G04 (created by PCBNEW (2013-07-07 BZR 4022)-stable) date 11/9/2013 6:23:53 PM*
%MOIN*%
G04 Gerber Fmt 3.4, Leading zero omitted, Abs format*
%FSLAX34Y34*%
G01*
G70*
G90*
G04 APERTURE LIST*
%ADD10C,0.006*%
%ADD11C,0.0984252*%
%ADD12C,0.025*%
G04 APERTURE END LIST*
G54D10*
G54D11*
X40000Y-18500D03*
X36000Y-18500D03*
G54D10*
G36*
X40600Y-21350D02*
X35400Y-21350D01*
X35400Y-19126D01*
X35448Y-19174D01*
X35470Y-19270D01*
X35806Y-19414D01*
X36170Y-19419D01*
X36509Y-19283D01*
X36529Y-19270D01*
X36551Y-19174D01*
X36674Y-19051D01*
X36770Y-19029D01*
X36914Y-18693D01*
X36919Y-18329D01*
X36783Y-17990D01*
X36770Y-17970D01*
X36674Y-17948D01*
X36551Y-17825D01*
X36529Y-17729D01*
X36193Y-17585D01*
X35829Y-17580D01*
X35490Y-17716D01*
X35470Y-17729D01*
X35448Y-17825D01*
X35400Y-17873D01*
X35400Y-15150D01*
X40600Y-15150D01*
X40600Y-17873D01*
X40551Y-17825D01*
X40529Y-17729D01*
X40193Y-17585D01*
X39829Y-17580D01*
X39490Y-17716D01*
X39470Y-17729D01*
X39448Y-17825D01*
X39325Y-17948D01*
X39229Y-17970D01*
X39085Y-18306D01*
X39080Y-18670D01*
X39216Y-19009D01*
X39229Y-19029D01*
X39325Y-19051D01*
X39448Y-19174D01*
X39470Y-19270D01*
X39806Y-19414D01*
X40170Y-19419D01*
X40509Y-19283D01*
X40529Y-19270D01*
X40551Y-19174D01*
X40600Y-19126D01*
X40600Y-21350D01*
X40600Y-21350D01*
G37*
G54D12*
X40600Y-21350D02*
X35400Y-21350D01*
X35400Y-19126D01*
X35448Y-19174D01*
X35470Y-19270D01*
X35806Y-19414D01*
X36170Y-19419D01*
X36509Y-19283D01*
X36529Y-19270D01*
X36551Y-19174D01*
X36674Y-19051D01*
X36770Y-19029D01*
X36914Y-18693D01*
X36919Y-18329D01*
X36783Y-17990D01*
X36770Y-17970D01*
X36674Y-17948D01*
X36551Y-17825D01*
X36529Y-17729D01*
X36193Y-17585D01*
X35829Y-17580D01*
X35490Y-17716D01*
X35470Y-17729D01*
X35448Y-17825D01*
X35400Y-17873D01*
X35400Y-15150D01*
X40600Y-15150D01*
X40600Y-17873D01*
X40551Y-17825D01*
X40529Y-17729D01*
X40193Y-17585D01*
X39829Y-17580D01*
X39490Y-17716D01*
X39470Y-17729D01*
X39448Y-17825D01*
X39325Y-17948D01*
X39229Y-17970D01*
X39085Y-18306D01*
X39080Y-18670D01*
X39216Y-19009D01*
X39229Y-19029D01*
X39325Y-19051D01*
X39448Y-19174D01*
X39470Y-19270D01*
X39806Y-19414D01*
X40170Y-19419D01*
X40509Y-19283D01*
X40529Y-19270D01*
X40551Y-19174D01*
X40600Y-19126D01*
X40600Y-21350D01*
M02*
