G04 (created by PCBNEW (2013-07-07 BZR 4022)-stable) date 11/9/2013 6:23:53 PM*
%MOIN*%
G04 Gerber Fmt 3.4, Leading zero omitted, Abs format*
%FSLAX34Y34*%
G01*
G70*
G90*
G04 APERTURE LIST*
%ADD10C,0.006*%
%ADD11C,0.008*%
%ADD12C,0.104425*%
%ADD13R,0.0847402X0.12411*%
%ADD14R,0.12411X0.20285*%
G04 APERTURE END LIST*
G54D10*
G54D11*
X39507Y-18500D02*
G75*
G03X40000Y-18992I492J0D01*
G74*
G01*
X40492Y-18500D02*
G75*
G03X40000Y-18007I-492J0D01*
G74*
G01*
X39409Y-18500D02*
G75*
G03X40000Y-19090I590J0D01*
G74*
G01*
X39311Y-18500D02*
G75*
G03X40000Y-19188I688J0D01*
G74*
G01*
X40590Y-18500D02*
G75*
G03X40000Y-17909I-590J0D01*
G74*
G01*
X40688Y-18500D02*
G75*
G03X40000Y-17811I-688J0D01*
G74*
G01*
X40000Y-18500D02*
X40000Y-19287D01*
X40000Y-18500D02*
X39212Y-18500D01*
X40000Y-17712D02*
X40000Y-18500D01*
X40000Y-18500D02*
X40787Y-18500D01*
X40787Y-18500D02*
G75*
G03X40787Y-18500I-787J0D01*
G74*
G01*
X35507Y-18500D02*
G75*
G03X36000Y-18992I492J0D01*
G74*
G01*
X36492Y-18500D02*
G75*
G03X36000Y-18007I-492J0D01*
G74*
G01*
X35409Y-18500D02*
G75*
G03X36000Y-19090I590J0D01*
G74*
G01*
X35311Y-18500D02*
G75*
G03X36000Y-19188I688J0D01*
G74*
G01*
X36590Y-18500D02*
G75*
G03X36000Y-17909I-590J0D01*
G74*
G01*
X36688Y-18500D02*
G75*
G03X36000Y-17811I-688J0D01*
G74*
G01*
X36000Y-18500D02*
X36000Y-19287D01*
X36000Y-18500D02*
X35212Y-18500D01*
X36000Y-17712D02*
X36000Y-18500D01*
X36000Y-18500D02*
X36787Y-18500D01*
X36787Y-18500D02*
G75*
G03X36787Y-18500I-787J0D01*
G74*
G01*
G54D10*
X40257Y-19621D02*
X40257Y-19321D01*
X40357Y-19535D01*
X40457Y-19321D01*
X40457Y-19621D01*
X40585Y-19350D02*
X40600Y-19335D01*
X40628Y-19321D01*
X40700Y-19321D01*
X40728Y-19335D01*
X40742Y-19350D01*
X40757Y-19378D01*
X40757Y-19407D01*
X40742Y-19450D01*
X40571Y-19621D01*
X40757Y-19621D01*
X35257Y-19621D02*
X35257Y-19321D01*
X35357Y-19535D01*
X35457Y-19321D01*
X35457Y-19621D01*
X35585Y-19350D02*
X35600Y-19335D01*
X35628Y-19321D01*
X35700Y-19321D01*
X35728Y-19335D01*
X35742Y-19350D01*
X35757Y-19378D01*
X35757Y-19407D01*
X35742Y-19450D01*
X35571Y-19621D01*
X35757Y-19621D01*
X40471Y-21457D02*
X40471Y-21599D01*
X40171Y-21599D01*
X40471Y-21357D02*
X40171Y-21357D01*
X40471Y-21185D01*
X40171Y-21185D01*
X40471Y-21042D02*
X40171Y-21042D01*
X40171Y-20971D01*
X40185Y-20928D01*
X40214Y-20899D01*
X40242Y-20885D01*
X40300Y-20871D01*
X40342Y-20871D01*
X40400Y-20885D01*
X40428Y-20899D01*
X40457Y-20928D01*
X40471Y-20971D01*
X40471Y-21042D01*
X40471Y-20585D02*
X40471Y-20757D01*
X40471Y-20671D02*
X40171Y-20671D01*
X40214Y-20699D01*
X40242Y-20728D01*
X40257Y-20757D01*
X40571Y-21607D02*
X40871Y-21507D01*
X40571Y-21407D01*
X40871Y-21164D02*
X40871Y-21307D01*
X40571Y-21307D01*
X40714Y-21064D02*
X40714Y-20964D01*
X40871Y-20921D02*
X40871Y-21064D01*
X40571Y-21064D01*
X40571Y-20921D01*
X40871Y-20792D02*
X40571Y-20792D01*
X40571Y-20721D01*
X40585Y-20678D01*
X40614Y-20649D01*
X40642Y-20635D01*
X40700Y-20621D01*
X40742Y-20621D01*
X40800Y-20635D01*
X40828Y-20649D01*
X40857Y-20678D01*
X40871Y-20721D01*
X40871Y-20792D01*
X38421Y-20007D02*
X38421Y-20149D01*
X38121Y-20149D01*
X38421Y-19907D02*
X38121Y-19907D01*
X38421Y-19735D01*
X38121Y-19735D01*
X38421Y-19592D02*
X38121Y-19592D01*
X38121Y-19521D01*
X38135Y-19478D01*
X38164Y-19449D01*
X38192Y-19435D01*
X38250Y-19421D01*
X38292Y-19421D01*
X38350Y-19435D01*
X38378Y-19449D01*
X38407Y-19478D01*
X38421Y-19521D01*
X38421Y-19592D01*
X38150Y-19307D02*
X38135Y-19292D01*
X38121Y-19264D01*
X38121Y-19192D01*
X38135Y-19164D01*
X38150Y-19149D01*
X38178Y-19135D01*
X38207Y-19135D01*
X38250Y-19149D01*
X38421Y-19321D01*
X38421Y-19135D01*
X38871Y-20150D02*
X38571Y-20150D01*
X38714Y-20150D02*
X38714Y-19978D01*
X38871Y-19978D02*
X38571Y-19978D01*
X38571Y-19778D02*
X38571Y-19721D01*
X38585Y-19692D01*
X38614Y-19664D01*
X38671Y-19650D01*
X38771Y-19650D01*
X38828Y-19664D01*
X38857Y-19692D01*
X38871Y-19721D01*
X38871Y-19778D01*
X38857Y-19807D01*
X38828Y-19835D01*
X38771Y-19850D01*
X38671Y-19850D01*
X38614Y-19835D01*
X38585Y-19807D01*
X38571Y-19778D01*
X38571Y-19521D02*
X38814Y-19521D01*
X38842Y-19507D01*
X38857Y-19492D01*
X38871Y-19464D01*
X38871Y-19407D01*
X38857Y-19378D01*
X38842Y-19364D01*
X38814Y-19350D01*
X38571Y-19350D01*
X38871Y-19035D02*
X38728Y-19135D01*
X38871Y-19207D02*
X38571Y-19207D01*
X38571Y-19092D01*
X38585Y-19064D01*
X38600Y-19050D01*
X38628Y-19035D01*
X38671Y-19035D01*
X38700Y-19050D01*
X38714Y-19064D01*
X38728Y-19092D01*
X38728Y-19207D01*
X37371Y-20007D02*
X37371Y-20149D01*
X37071Y-20149D01*
X37371Y-19907D02*
X37071Y-19907D01*
X37371Y-19735D01*
X37071Y-19735D01*
X37371Y-19592D02*
X37071Y-19592D01*
X37071Y-19521D01*
X37085Y-19478D01*
X37114Y-19449D01*
X37142Y-19435D01*
X37200Y-19421D01*
X37242Y-19421D01*
X37300Y-19435D01*
X37328Y-19449D01*
X37357Y-19478D01*
X37371Y-19521D01*
X37371Y-19592D01*
X37071Y-19321D02*
X37071Y-19135D01*
X37185Y-19235D01*
X37185Y-19192D01*
X37200Y-19164D01*
X37214Y-19149D01*
X37242Y-19135D01*
X37314Y-19135D01*
X37342Y-19149D01*
X37357Y-19164D01*
X37371Y-19192D01*
X37371Y-19278D01*
X37357Y-19307D01*
X37342Y-19321D01*
X37871Y-20128D02*
X37571Y-20128D01*
X37785Y-20028D01*
X37571Y-19928D01*
X37871Y-19928D01*
X37871Y-19785D02*
X37571Y-19785D01*
X37871Y-19642D02*
X37571Y-19642D01*
X37871Y-19471D01*
X37571Y-19471D01*
X35821Y-21457D02*
X35821Y-21599D01*
X35521Y-21599D01*
X35821Y-21357D02*
X35521Y-21357D01*
X35821Y-21185D01*
X35521Y-21185D01*
X35821Y-21042D02*
X35521Y-21042D01*
X35521Y-20971D01*
X35535Y-20928D01*
X35564Y-20899D01*
X35592Y-20885D01*
X35650Y-20871D01*
X35692Y-20871D01*
X35750Y-20885D01*
X35778Y-20899D01*
X35807Y-20928D01*
X35821Y-20971D01*
X35821Y-21042D01*
X35621Y-20614D02*
X35821Y-20614D01*
X35507Y-20685D02*
X35721Y-20757D01*
X35721Y-20571D01*
X35407Y-21621D02*
X35421Y-21578D01*
X35421Y-21507D01*
X35407Y-21478D01*
X35392Y-21464D01*
X35364Y-21450D01*
X35335Y-21450D01*
X35307Y-21464D01*
X35292Y-21478D01*
X35278Y-21507D01*
X35264Y-21564D01*
X35250Y-21592D01*
X35235Y-21607D01*
X35207Y-21621D01*
X35178Y-21621D01*
X35150Y-21607D01*
X35135Y-21592D01*
X35121Y-21564D01*
X35121Y-21492D01*
X35135Y-21450D01*
X35264Y-21321D02*
X35264Y-21221D01*
X35421Y-21178D02*
X35421Y-21321D01*
X35121Y-21321D01*
X35121Y-21178D01*
X35392Y-20878D02*
X35407Y-20892D01*
X35421Y-20935D01*
X35421Y-20964D01*
X35407Y-21007D01*
X35378Y-21035D01*
X35350Y-21049D01*
X35292Y-21064D01*
X35250Y-21064D01*
X35192Y-21049D01*
X35164Y-21035D01*
X35135Y-21007D01*
X35121Y-20964D01*
X35121Y-20935D01*
X35135Y-20892D01*
X35150Y-20878D01*
X39742Y-17171D02*
X39842Y-17471D01*
X39942Y-17171D01*
X40185Y-17471D02*
X40042Y-17471D01*
X40042Y-17171D01*
X40285Y-17314D02*
X40385Y-17314D01*
X40428Y-17471D02*
X40285Y-17471D01*
X40285Y-17171D01*
X40428Y-17171D01*
X40557Y-17471D02*
X40557Y-17171D01*
X40628Y-17171D01*
X40671Y-17185D01*
X40700Y-17214D01*
X40714Y-17242D01*
X40728Y-17300D01*
X40728Y-17342D01*
X40714Y-17400D01*
X40700Y-17428D01*
X40671Y-17457D01*
X40628Y-17471D01*
X40557Y-17471D01*
X38200Y-17471D02*
X38200Y-17171D01*
X38200Y-17314D02*
X38371Y-17314D01*
X38371Y-17471D02*
X38371Y-17171D01*
X38571Y-17171D02*
X38628Y-17171D01*
X38657Y-17185D01*
X38685Y-17214D01*
X38700Y-17271D01*
X38700Y-17371D01*
X38685Y-17428D01*
X38657Y-17457D01*
X38628Y-17471D01*
X38571Y-17471D01*
X38542Y-17457D01*
X38514Y-17428D01*
X38500Y-17371D01*
X38500Y-17271D01*
X38514Y-17214D01*
X38542Y-17185D01*
X38571Y-17171D01*
X38828Y-17171D02*
X38828Y-17414D01*
X38842Y-17442D01*
X38857Y-17457D01*
X38885Y-17471D01*
X38942Y-17471D01*
X38971Y-17457D01*
X38985Y-17442D01*
X39000Y-17414D01*
X39000Y-17171D01*
X39314Y-17471D02*
X39214Y-17328D01*
X39142Y-17471D02*
X39142Y-17171D01*
X39257Y-17171D01*
X39285Y-17185D01*
X39300Y-17200D01*
X39314Y-17228D01*
X39314Y-17271D01*
X39300Y-17300D01*
X39285Y-17314D01*
X39257Y-17328D01*
X39142Y-17328D01*
X36921Y-17471D02*
X36921Y-17171D01*
X37021Y-17385D01*
X37121Y-17171D01*
X37121Y-17471D01*
X37264Y-17471D02*
X37264Y-17171D01*
X37407Y-17471D02*
X37407Y-17171D01*
X37578Y-17471D01*
X37578Y-17171D01*
X35378Y-17457D02*
X35421Y-17471D01*
X35492Y-17471D01*
X35521Y-17457D01*
X35535Y-17442D01*
X35550Y-17414D01*
X35550Y-17385D01*
X35535Y-17357D01*
X35521Y-17342D01*
X35492Y-17328D01*
X35435Y-17314D01*
X35407Y-17300D01*
X35392Y-17285D01*
X35378Y-17257D01*
X35378Y-17228D01*
X35392Y-17200D01*
X35407Y-17185D01*
X35435Y-17171D01*
X35507Y-17171D01*
X35550Y-17185D01*
X35678Y-17314D02*
X35778Y-17314D01*
X35821Y-17471D02*
X35678Y-17471D01*
X35678Y-17171D01*
X35821Y-17171D01*
X36121Y-17442D02*
X36107Y-17457D01*
X36064Y-17471D01*
X36035Y-17471D01*
X35992Y-17457D01*
X35964Y-17428D01*
X35950Y-17400D01*
X35935Y-17342D01*
X35935Y-17300D01*
X35950Y-17242D01*
X35964Y-17214D01*
X35992Y-17185D01*
X36035Y-17171D01*
X36064Y-17171D01*
X36107Y-17185D01*
X36121Y-17200D01*
%LPC*%
G54D12*
X40000Y-18500D03*
X36000Y-18500D03*
G54D13*
X39500Y-21000D03*
X38500Y-21000D03*
X37500Y-21000D03*
X36500Y-21000D03*
G54D14*
X40250Y-16000D03*
X38750Y-16000D03*
X37250Y-16000D03*
X35750Y-16000D03*
M02*
