<?xml version="1.0" encoding="utf-8"?>
<!-- Generator: Adobe Illustrator 15.0.2, SVG Export Plug-In . SVG Version: 6.00 Build 0)  -->
<!DOCTYPE svg PUBLIC "-//W3C//DTD SVG 1.1//EN" "http://www.w3.org/Graphics/SVG/1.1/DTD/svg11.dtd">
<svg version="1.1" id="Layer_1" xmlns="http://www.w3.org/2000/svg" xmlns:xlink="http://www.w3.org/1999/xlink" x="0px" y="0px"
	 width="80.846px" height="100px" viewBox="0 0 80.846 100" enable-background="new 0 0 80.846 100" xml:space="preserve">
<g>
	<g>
		<path fill="#2A3F42" d="M75.498,81.471h-6.221v10.941h6.221c2.954,0,5.348-2.393,5.348-5.348v-0.248
			C80.845,83.861,78.452,81.471,75.498,81.471z"/>
	</g>
	<g>
		<path fill="#2A3F42" d="M75.498,63.091h-6.221v10.947h6.221c2.954,0,5.348-2.397,5.348-5.353v-0.248
			C80.845,65.482,78.452,63.091,75.498,63.091z"/>
	</g>
	<g>
		<path fill="#2A3F42" d="M75.498,44.712h-6.221v10.947h6.221c2.954,0,5.348-2.394,5.348-5.347v-0.249
			C80.845,47.109,78.452,44.712,75.498,44.712z"/>
	</g>
	<g>
		<path fill="#2A3F42" d="M75.498,26.338h-6.221V37.28h6.221c2.954,0,5.348-2.393,5.348-5.347v-0.249
			C80.845,28.73,78.452,26.338,75.498,26.338z"/>
	</g>
	<g>
		<path fill="#2A3F42" d="M75.498,7.959h-6.221v10.947h6.221c2.954,0,5.348-2.393,5.348-5.352V13.31
			C80.845,10.356,78.452,7.959,75.498,7.959z"/>
	</g>
	<g>
		<path fill="#2A3F42" d="M5.347,81.471h6.221v10.941H5.347C2.393,92.412,0,90.02,0,87.064v-0.248
			C0,83.861,2.393,81.471,5.347,81.471z"/>
	</g>
	<g>
		<path fill="#2A3F42" d="M5.347,63.091h6.221v10.947H5.347C2.393,74.038,0,71.641,0,68.688v-0.25
			C0,65.482,2.393,63.091,5.347,63.091z"/>
	</g>
	<g>
		<path fill="#2A3F42" d="M5.347,44.712h6.221v10.947H5.347C2.393,55.659,0,53.268,0,50.313v-0.249
			C0,47.109,2.393,44.712,5.347,44.712z"/>
	</g>
	<g>
		<path fill="#2A3F42" d="M5.347,26.338h6.221V37.28H5.347C2.393,37.28,0,34.888,0,31.934v-0.249C0,28.73,2.393,26.338,5.347,26.338
			z"/>
	</g>
	<g>
		<path fill="#2A3F42" d="M5.347,7.959h6.221v10.947H5.347C2.393,18.906,0,16.514,0,13.555v-0.244C0,10.356,2.393,7.959,5.347,7.959
			z"/>
	</g>
	<g>
		<path fill="#2A3F42" d="M61.318,0H19.526c-2.197,0-3.979,1.782-3.979,3.979V96.02c0,2.197,1.782,3.979,3.979,3.979h41.792
			c2.197,0,3.979-1.782,3.979-3.979V3.979C65.298,1.782,63.516,0,61.318,0z M40.425,13.408c-5.21,0-9.429-4.219-9.429-9.429h18.857
			C49.854,9.189,45.63,13.408,40.425,13.408z"/>
	</g>
</g>
</svg>
