<?xml version="1.0" encoding="utf-8"?>
<!-- Generator: Adobe Illustrator 15.0.2, SVG Export Plug-In . SVG Version: 6.00 Build 0)  -->
<!DOCTYPE svg PUBLIC "-//W3C//DTD SVG 1.1//EN" "http://www.w3.org/Graphics/SVG/1.1/DTD/svg11.dtd">
<svg version="1.1" id="Layer_1" xmlns="http://www.w3.org/2000/svg" xmlns:xlink="http://www.w3.org/1999/xlink" x="0px" y="0px"
	 width="100px" height="100px" viewBox="0 0 100 100" enable-background="new 0 0 100 100" xml:space="preserve">
<path fill="#2A3F42" d="M49.905,0.271c-27.426,0-49.636,22.258-49.636,49.726c0,27.48,22.21,49.73,49.636,49.73
	c27.618,0,49.826-22.251,49.826-49.73C99.73,22.529,77.522,0.271,49.905,0.271z M8.482,56.426
	c6.208-0.955,10.401-0.491,14.774-0.342c0.235,0.609,0.491,1.195,0.778,1.766c-4.277,0.154-8.629,0.017-14.987,1.492
	C8.834,58.376,8.642,57.413,8.482,56.426z M39.77,73.791c-1.984,0.973-8.299,3.328-12.107-3.188c0,0-2.134-3.879-6.187-4.167
	c0,0-3.948-0.048-0.278,2.459c0,0,2.646,1.236,4.48,5.904c0,0,2.401,7.963,13.836,5.365l0.032,8.236c0,0-0.085,1.043-0.736,2.102
	C24.121,86.469,12.654,74.627,9.133,59.693c6.432-1.498,10.849-1.344,15.094-1.493c2.965,5.489,8.769,9.015,19.095,10.085
	C41.85,69.283,40.368,70.963,39.77,73.791z M38.778,75.658c0,0.309-0.352,0.548-0.778,0.555c-0.438,0-0.789-0.24-0.789-0.545
	c0-0.299,0.352-0.549,0.778-0.549C38.426,75.113,38.778,75.363,38.778,75.658z M36.208,76.102c0.01,0.293-0.342,0.543-0.778,0.543
	c-0.438,0-0.789-0.245-0.789-0.543c0-0.305,0.352-0.55,0.789-0.55C35.854,75.552,36.208,75.79,36.208,76.102z M33.679,76.105
	c0,0.294-0.341,0.546-0.778,0.551c-0.449,0-0.79-0.25-0.801-0.544c0-0.309,0.352-0.55,0.789-0.55
	C33.327,75.562,33.679,75.803,33.679,76.105z M31.129,75.141c0,0.305-0.352,0.549-0.79,0.549c-0.427,0-0.778-0.238-0.778-0.549
	c0-0.294,0.341-0.545,0.778-0.545C30.778,74.59,31.129,74.842,31.129,75.141z M25.966,69.637c0.427,0,0.789,0.239,0.789,0.543
	c0,0.305-0.363,0.544-0.789,0.551c-0.438,0-0.79-0.24-0.79-0.545S25.528,69.637,25.966,69.637z M24.633,69.155
	c-0.438,0.007-0.79-0.245-0.801-0.544c0-0.305,0.363-0.545,0.789-0.545c0.437-0.005,0.789,0.24,0.789,0.539
	C25.422,68.91,25.059,69.155,24.633,69.155z M27.182,71.45c0.426,0,0.79,0.245,0.79,0.544c0,0.305-0.353,0.549-0.779,0.555
	c-0.437,0-0.8-0.245-0.8-0.545C26.393,71.701,26.746,71.45,27.182,71.45z M28.526,73.146c0.427,0,0.779,0.245,0.779,0.544
	c0,0.309-0.34,0.551-0.779,0.557c-0.437,0-0.79-0.248-0.79-0.55C27.737,73.402,28.089,73.152,28.526,73.146z M23.225,67.401
	c0,0.299-0.341,0.545-0.779,0.55c-0.436,0-0.789-0.24-0.789-0.545c0-0.304,0.353-0.549,0.789-0.549
	C22.873,66.854,23.225,67.098,23.225,67.401z M44.858,91.686c-0.555-0.07-1.099-0.139-1.643-0.226
	c0.565-0.671,0.939-1.604,0.929-2.954l-0.021-8.988c0,0-0.32-3.553,1.429-4.799l0.054,14.752
	C45.605,89.473,45.488,90.561,44.858,91.686z M49.915,91.996c-0.032,0-0.064-0.006-0.085-0.006c0.353-0.721,0.577-1.627,0.619-2.779
	l0.063-14.929l1.229-0.006l0.158,14.925c0.055,1.124,0.278,2.01,0.599,2.709C51.643,91.957,50.779,91.996,49.915,91.996z
	 M57.062,91.381c-0.277-1.051-0.309-1.952-0.309-1.952L56.7,74.803c1.749,1.355,1.472,4.668,1.472,4.668l0.031,8.988
	c0,1.112,0.256,1.951,0.66,2.58C58.268,91.173,57.66,91.279,57.062,91.381z M63.676,89.701C62.897,88.976,62.8,88.32,62.8,88.32
	l-0.043-11.777c-0.01-4.593-1.952-7.014-3.839-8.294c10.988-1.132,16.258-4.708,18.668-10.246c4.213,0.102,7.2-0.352,13.42,1.072
	C87.859,73.408,77.393,84.975,63.676,89.701z M91.091,58.729c-6.153-1.414-9.11-0.981-13.345-1.089
	c0.225-0.559,0.427-1.143,0.598-1.738c4.256-0.197,7.34-0.891,13.248-0.075C91.453,56.809,91.294,57.77,91.091,58.729z
	 M78.449,55.533c0.801-2.949,1.045-6.335,1.024-10.112c-0.011-5.419-2.069-9.75-5.376-13.031c0.565-1.867,1.323-6.011-0.811-11.308
	c0,0-3.734-1.168-12.162,4.518c-3.307-0.816-6.826-1.206-10.346-1.201c-3.884,0.016-7.799,0.523-11.448,1.542
	c-8.736-5.92-12.576-4.688-12.576-4.688c-2.485,6.299-0.917,10.946-0.448,12.102c-2.921,3.201-4.714,7.281-4.704,12.272
	c0.021,3.766,0.458,7.148,1.515,10.081c-4.384-0.139-8.545-0.596-14.679,0.352c-0.289-1.977-0.437-3.999-0.437-6.063
	C7.992,26.807,26.767,8,49.915,8c23.33,0,42.093,18.807,42.093,41.998c0,1.856-0.138,3.678-0.373,5.471
	C85.778,54.654,82.717,55.342,78.449,55.533z"/>
<g>
	<g>
		<path id="SVGID_1_" fill="#FFFFFF" d="M49.905,0.271c-27.426,0-49.636,22.258-49.636,49.726c0,27.48,22.21,49.73,49.636,49.73
			c27.618,0,49.826-22.251,49.826-49.73C99.73,22.529,77.522,0.271,49.905,0.271z M8.482,56.426
			c6.208-0.955,10.401-0.491,14.774-0.342c0.235,0.609,0.491,1.195,0.778,1.766c-4.277,0.154-8.629,0.017-14.987,1.492
			C8.834,58.376,8.642,57.413,8.482,56.426z M39.77,73.791c-1.984,0.973-8.299,3.328-12.107-3.188c0,0-2.134-3.879-6.187-4.167
			c0,0-3.948-0.048-0.278,2.459c0,0,2.646,1.236,4.48,5.904c0,0,2.401,7.963,13.836,5.365l0.032,8.236c0,0-0.085,1.043-0.736,2.102
			C24.121,86.469,12.654,74.627,9.133,59.693c6.432-1.498,10.849-1.344,15.094-1.493c2.965,5.489,8.769,9.015,19.095,10.085
			C41.85,69.283,40.368,70.963,39.77,73.791z M38.778,75.658c0,0.309-0.352,0.548-0.778,0.555c-0.438,0-0.789-0.24-0.789-0.545
			c0-0.299,0.352-0.549,0.778-0.549C38.426,75.113,38.778,75.363,38.778,75.658z M36.208,76.102c0.01,0.293-0.342,0.543-0.778,0.543
			c-0.438,0-0.789-0.245-0.789-0.543c0-0.305,0.352-0.55,0.789-0.55C35.854,75.552,36.208,75.79,36.208,76.102z M33.679,76.105
			c0,0.294-0.341,0.546-0.778,0.551c-0.449,0-0.79-0.25-0.801-0.544c0-0.309,0.352-0.55,0.789-0.55
			C33.327,75.562,33.679,75.803,33.679,76.105z M31.129,75.141c0,0.305-0.352,0.549-0.79,0.549c-0.427,0-0.778-0.238-0.778-0.549
			c0-0.294,0.341-0.545,0.778-0.545C30.778,74.59,31.129,74.842,31.129,75.141z M25.966,69.637c0.427,0,0.789,0.239,0.789,0.543
			c0,0.305-0.363,0.544-0.789,0.551c-0.438,0-0.79-0.24-0.79-0.545S25.528,69.637,25.966,69.637z M24.633,69.155
			c-0.438,0.007-0.79-0.245-0.801-0.544c0-0.305,0.363-0.545,0.789-0.545c0.437-0.005,0.789,0.24,0.789,0.539
			C25.422,68.91,25.059,69.155,24.633,69.155z M27.182,71.45c0.426,0,0.79,0.245,0.79,0.544c0,0.305-0.353,0.549-0.779,0.555
			c-0.437,0-0.8-0.245-0.8-0.545C26.393,71.701,26.746,71.45,27.182,71.45z M28.526,73.146c0.427,0,0.779,0.245,0.779,0.544
			c0,0.309-0.34,0.551-0.779,0.557c-0.437,0-0.79-0.248-0.79-0.55C27.737,73.402,28.089,73.152,28.526,73.146z M23.225,67.401
			c0,0.299-0.341,0.545-0.779,0.55c-0.436,0-0.789-0.24-0.789-0.545c0-0.304,0.353-0.549,0.789-0.549
			C22.873,66.854,23.225,67.098,23.225,67.401z M44.858,91.686c-0.555-0.07-1.099-0.139-1.643-0.226
			c0.565-0.671,0.939-1.604,0.929-2.954l-0.021-8.988c0,0-0.32-3.553,1.429-4.799l0.054,14.752
			C45.605,89.473,45.488,90.561,44.858,91.686z M49.915,91.996c-0.032,0-0.064-0.006-0.085-0.006
			c0.353-0.721,0.577-1.627,0.619-2.779l0.063-14.929l1.229-0.006l0.158,14.925c0.055,1.124,0.278,2.01,0.599,2.709
			C51.643,91.957,50.779,91.996,49.915,91.996z M57.062,91.381c-0.277-1.051-0.309-1.952-0.309-1.952L56.7,74.803
			c1.749,1.355,1.472,4.668,1.472,4.668l0.031,8.988c0,1.112,0.256,1.951,0.66,2.58C58.268,91.173,57.66,91.279,57.062,91.381z
			 M63.676,89.701C62.897,88.976,62.8,88.32,62.8,88.32l-0.043-11.777c-0.01-4.593-1.952-7.014-3.839-8.294
			c10.988-1.132,16.258-4.708,18.668-10.246c4.213,0.102,7.2-0.352,13.42,1.072C87.859,73.408,77.393,84.975,63.676,89.701z
			 M91.091,58.729c-6.153-1.414-9.11-0.981-13.345-1.089c0.225-0.559,0.427-1.143,0.598-1.738c4.256-0.197,7.34-0.891,13.248-0.075
			C91.453,56.809,91.294,57.77,91.091,58.729z M78.449,55.533c0.801-2.949,1.045-6.335,1.024-10.112
			c-0.011-5.419-2.069-9.75-5.376-13.031c0.565-1.867,1.323-6.011-0.811-11.308c0,0-3.734-1.168-12.162,4.518
			c-3.307-0.816-6.826-1.206-10.346-1.201c-3.884,0.016-7.799,0.523-11.448,1.542c-8.736-5.92-12.576-4.688-12.576-4.688
			c-2.485,6.299-0.917,10.946-0.448,12.102c-2.921,3.201-4.714,7.281-4.704,12.272c0.021,3.766,0.458,7.148,1.515,10.081
			c-4.384-0.139-8.545-0.596-14.679,0.352c-0.289-1.977-0.437-3.999-0.437-6.063C7.992,26.807,26.767,8,49.915,8
			c23.33,0,42.093,18.807,42.093,41.998c0,1.856-0.138,3.678-0.373,5.471C85.778,54.654,82.717,55.342,78.449,55.533z"/>
	</g>
	<g>
		<g>
			<defs>
				<path id="SVGID_2_" d="M49.905,0.271c-27.426,0-49.636,22.258-49.636,49.726c0,27.48,22.21,49.73,49.636,49.73
					c27.618,0,49.826-22.251,49.826-49.73C99.73,22.529,77.522,0.271,49.905,0.271z M8.482,56.426
					c6.208-0.955,10.401-0.491,14.774-0.342c0.235,0.609,0.491,1.195,0.778,1.766c-4.277,0.154-8.629,0.017-14.987,1.492
					C8.834,58.376,8.642,57.413,8.482,56.426z M39.77,73.791c-1.984,0.973-8.299,3.328-12.107-3.188c0,0-2.134-3.879-6.187-4.167
					c0,0-3.948-0.048-0.278,2.459c0,0,2.646,1.236,4.48,5.904c0,0,2.401,7.963,13.836,5.365l0.032,8.236
					c0,0-0.085,1.043-0.736,2.102C24.121,86.469,12.654,74.627,9.133,59.693c6.432-1.498,10.849-1.344,15.094-1.493
					c2.965,5.489,8.769,9.015,19.095,10.085C41.85,69.283,40.368,70.963,39.77,73.791z M38.778,75.658
					c0,0.309-0.352,0.548-0.778,0.555c-0.438,0-0.789-0.24-0.789-0.545c0-0.299,0.352-0.549,0.778-0.549
					C38.426,75.113,38.778,75.363,38.778,75.658z M36.208,76.102c0.01,0.293-0.342,0.543-0.778,0.543
					c-0.438,0-0.789-0.245-0.789-0.543c0-0.305,0.352-0.55,0.789-0.55C35.854,75.552,36.208,75.79,36.208,76.102z M33.679,76.105
					c0,0.294-0.341,0.546-0.778,0.551c-0.449,0-0.79-0.25-0.801-0.544c0-0.309,0.352-0.55,0.789-0.55
					C33.327,75.562,33.679,75.803,33.679,76.105z M31.129,75.141c0,0.305-0.352,0.549-0.79,0.549c-0.427,0-0.778-0.238-0.778-0.549
					c0-0.294,0.341-0.545,0.778-0.545C30.778,74.59,31.129,74.842,31.129,75.141z M25.966,69.637c0.427,0,0.789,0.239,0.789,0.543
					c0,0.305-0.363,0.544-0.789,0.551c-0.438,0-0.79-0.24-0.79-0.545S25.528,69.637,25.966,69.637z M24.633,69.155
					c-0.438,0.007-0.79-0.245-0.801-0.544c0-0.305,0.363-0.545,0.789-0.545c0.437-0.005,0.789,0.24,0.789,0.539
					C25.422,68.91,25.059,69.155,24.633,69.155z M27.182,71.45c0.426,0,0.79,0.245,0.79,0.544c0,0.305-0.353,0.549-0.779,0.555
					c-0.437,0-0.8-0.245-0.8-0.545C26.393,71.701,26.746,71.45,27.182,71.45z M28.526,73.146c0.427,0,0.779,0.245,0.779,0.544
					c0,0.309-0.34,0.551-0.779,0.557c-0.437,0-0.79-0.248-0.79-0.55C27.737,73.402,28.089,73.152,28.526,73.146z M23.225,67.401
					c0,0.299-0.341,0.545-0.779,0.55c-0.436,0-0.789-0.24-0.789-0.545c0-0.304,0.353-0.549,0.789-0.549
					C22.873,66.854,23.225,67.098,23.225,67.401z M44.858,91.686c-0.555-0.07-1.099-0.139-1.643-0.226
					c0.565-0.671,0.939-1.604,0.929-2.954l-0.021-8.988c0,0-0.32-3.553,1.429-4.799l0.054,14.752
					C45.605,89.473,45.488,90.561,44.858,91.686z M49.915,91.996c-0.032,0-0.064-0.006-0.085-0.006
					c0.353-0.721,0.577-1.627,0.619-2.779l0.063-14.929l1.229-0.006l0.158,14.925c0.055,1.124,0.278,2.01,0.599,2.709
					C51.643,91.957,50.779,91.996,49.915,91.996z M57.062,91.381c-0.277-1.051-0.309-1.952-0.309-1.952L56.7,74.803
					c1.749,1.355,1.472,4.668,1.472,4.668l0.031,8.988c0,1.112,0.256,1.951,0.66,2.58C58.268,91.173,57.66,91.279,57.062,91.381z
					 M63.676,89.701C62.897,88.976,62.8,88.32,62.8,88.32l-0.043-11.777c-0.01-4.593-1.952-7.014-3.839-8.294
					c10.988-1.132,16.258-4.708,18.668-10.246c4.213,0.102,7.2-0.352,13.42,1.072C87.859,73.408,77.393,84.975,63.676,89.701z
					 M91.091,58.729c-6.153-1.414-9.11-0.981-13.345-1.089c0.225-0.559,0.427-1.143,0.598-1.738
					c4.256-0.197,7.34-0.891,13.248-0.075C91.453,56.809,91.294,57.77,91.091,58.729z M78.449,55.533
					c0.801-2.949,1.045-6.335,1.024-10.112c-0.011-5.419-2.069-9.75-5.376-13.031c0.565-1.867,1.323-6.011-0.811-11.308
					c0,0-3.734-1.168-12.162,4.518c-3.307-0.816-6.826-1.206-10.346-1.201c-3.884,0.016-7.799,0.523-11.448,1.542
					c-8.736-5.92-12.576-4.688-12.576-4.688c-2.485,6.299-0.917,10.946-0.448,12.102c-2.921,3.201-4.714,7.281-4.704,12.272
					c0.021,3.766,0.458,7.148,1.515,10.081c-4.384-0.139-8.545-0.596-14.679,0.352c-0.289-1.977-0.437-3.999-0.437-6.063
					C7.992,26.807,26.767,8,49.915,8c23.33,0,42.093,18.807,42.093,41.998c0,1.856-0.138,3.678-0.373,5.471
					C85.778,54.654,82.717,55.342,78.449,55.533z"/>
			</defs>
			<use xlink:href="#SVGID_2_"  overflow="visible" fill="#FFFFFF"/>
			<clipPath id="SVGID_3_">
				<use xlink:href="#SVGID_2_"  overflow="visible"/>
			</clipPath>
			<path clip-path="url(#SVGID_3_)" fill="#FFFFFF" d="M49.905,1.187c-27.426,0-49.636,22.258-49.636,49.725
				c0,27.48,22.21,49.732,49.636,49.732c27.618,0,49.826-22.253,49.826-49.732C99.73,23.445,77.522,1.187,49.905,1.187z
				 M8.482,57.34c6.208-0.953,10.401-0.49,14.774-0.34c0.235,0.607,0.491,1.193,0.778,1.766c-4.277,0.154-8.629,0.016-14.987,1.491
				C8.834,59.291,8.642,58.327,8.482,57.34z M40.409,74.303c-1.984,0.972-8.938,3.732-12.746-2.785c0,0-2.134-3.877-6.187-4.166
				c0,0-3.948-0.048-0.278,2.459c0,0,2.646,1.238,4.48,5.904c0,0,2.401,7.964,13.836,5.365l0.03,7.703c0,0-0.161,1.578-0.812,2.634
				c-14.689-4.03-26.079-15.872-29.6-30.808c6.432-1.498,10.849-1.344,15.094-1.493c2.965,5.491,9.485,8.13,19.811,9.202
				C42.566,69.314,41.006,71.477,40.409,74.303z M38.778,76.573c0,0.31-0.352,0.548-0.778,0.555c-0.438,0-0.789-0.24-0.789-0.542
				c0-0.301,0.352-0.551,0.778-0.551C38.426,76.029,38.778,76.279,38.778,76.573z M36.208,77.018
				c0.01,0.293-0.342,0.543-0.778,0.543c-0.438,0-0.789-0.244-0.789-0.543c0-0.305,0.352-0.551,0.789-0.551
				C35.854,76.467,36.208,76.707,36.208,77.018z M33.679,77.022c0,0.293-0.341,0.543-0.778,0.548c-0.449,0-0.79-0.25-0.801-0.543
				c0-0.31,0.352-0.551,0.789-0.551C33.327,76.477,33.679,76.717,33.679,77.022z M31.129,76.057c0,0.303-0.352,0.549-0.79,0.549
				c-0.427,0-0.778-0.24-0.778-0.549c0-0.295,0.341-0.545,0.778-0.545C30.778,75.507,31.129,75.757,31.129,76.057z M25.966,70.553
				c0.427,0,0.789,0.24,0.789,0.542c0,0.305-0.363,0.546-0.789,0.551c-0.525,0-0.79-0.327-0.79-0.544
				C25.177,70.798,25.528,70.553,25.966,70.553z M24.633,70.072c-0.521,0.006-0.792-0.337-0.801-0.545
				c0-0.305,0.363-0.545,0.789-0.545c0.437-0.004,0.789,0.24,0.789,0.539C25.422,69.825,25.059,70.072,24.633,70.072z
				 M27.182,72.365c0.426,0,0.79,0.244,0.79,0.543c0,0.305-0.353,0.551-0.779,0.555c-0.437,0-0.8-0.242-0.8-0.543
				C26.393,72.615,26.746,72.365,27.182,72.365z M28.526,74.062c0.427,0,0.779,0.242,0.779,0.542c0,0.312-0.34,0.551-0.779,0.556
				c-0.437,0-0.79-0.244-0.79-0.549C27.737,74.318,28.089,74.066,28.526,74.062z M23.225,68.316c0,0.211-0.428,0.546-0.779,0.55
				c-0.436,0-0.789-0.24-0.789-0.544s0.353-0.549,0.789-0.549C22.873,67.768,23.225,68.014,23.225,68.316z M44.319,92.602
				c-0.556-0.069-1.33-0.139-1.874-0.226c0.565-0.671,1.709-1.604,1.699-2.954l-0.021-8.988c0,0-0.32-3.551,1.429-4.799
				L45.396,90.41C45.396,90.41,44.948,91.476,44.319,92.602z M49.915,92.91c-0.032,0-0.603-0.005-0.625-0.005
				c0.352-0.722,1.115-1.628,1.158-2.779l0.063-14.93l1.229-0.004l0.158,14.923c0.055,1.124,0.738,2.012,1.059,2.709
				C52.102,92.872,50.779,92.91,49.915,92.91z M57.293,92.297c-0.278-1.051-0.464-1.951-0.464-1.951L56.7,75.721
				c1.749,1.354,1.472,4.666,1.472,4.666l0.031,8.987c0,1.114,0.946,1.953,1.351,2.581C58.957,92.09,57.891,92.195,57.293,92.297z
				 M64.07,90.738c-0.777-0.727-1.271-2.18-1.271-2.18l-0.041-11.102c-0.01-4.592-2.793-7.86-4.681-9.141
				c10.988-1.131,17.099-3.861,19.509-9.396c4.213,0.1,7.2-0.354,13.42,1.07C87.859,74.323,77.787,86.012,64.07,90.738z
				 M91.091,59.645c-6.153-1.414-9.11-0.981-13.345-1.088c0.225-0.56,0.427-1.141,0.598-1.738c4.256-0.199,7.34-0.892,13.248-0.076
				C91.453,57.724,91.294,58.684,91.091,59.645z M78.449,56.45c0.801-2.951,1.045-6.337,1.024-10.113
				c-0.011-5.418-3.144-10.289-6.449-13.57c0.565-1.866,1.782-5.318-0.351-10.614c0,0-3.121-1.322-11.549,4.364
				c-3.307-0.815-6.826-1.206-10.346-1.2c-3.884,0.016-7.799,0.523-11.448,1.542c-8.736-5.921-12.037-4.688-12.037-4.688
				c-2.486,6.299-0.533,10.406-0.063,11.564c-2.922,3.201-5.64,7.82-5.628,12.812c0.021,3.766,0.458,7.147,1.515,10.08
				c-4.384-0.138-8.545-0.597-14.678,0.353c-0.289-1.978-0.437-4-0.437-6.064C7.992,27.722,26.767,8.916,49.915,8.916
				c23.33,0,42.093,18.807,42.093,41.997c0,1.857-0.138,3.682-0.373,5.473C85.778,55.569,82.717,56.258,78.449,56.45z"/>
		</g>
	</g>
</g>
</svg>
