<?xml version="1.0" encoding="utf-8"?>
<!-- Generator: Adobe Illustrator 15.0.2, SVG Export Plug-In . SVG Version: 6.00 Build 0)  -->
<!DOCTYPE svg PUBLIC "-//W3C//DTD SVG 1.1//EN" "http://www.w3.org/Graphics/SVG/1.1/DTD/svg11.dtd">
<svg version="1.1" id="Layer_1" xmlns="http://www.w3.org/2000/svg" xmlns:xlink="http://www.w3.org/1999/xlink" x="0px" y="0px"
	 width="60px" height="100px" viewBox="0 0 60 100" enable-background="new 0 0 60 100" xml:space="preserve">
<g>
	<path fill="#2A3F42" d="M57.121,0H2.093C0.72,0-0.393,1.113-0.393,2.486v95.028c0,1.373,1.113,2.486,2.486,2.486h55.028
		c1.373,0,2.486-1.113,2.486-2.486V2.486C59.607,1.113,58.494,0,57.121,0z M29.841,95.21c-2.961,0-5.359-2.399-5.359-5.358
		c0-2.961,2.398-5.358,5.359-5.358c2.96,0,5.358,2.397,5.358,5.358C35.199,92.811,32.801,95.21,29.841,95.21z M53.607,78.346
		c0,1.467-1.188,2.654-2.654,2.654H8.261c-1.466,0-2.654-1.188-2.654-2.654V10.655C5.607,9.188,6.795,8,8.261,8h42.692
		c1.467,0,2.654,1.188,2.654,2.655V78.346z"/>
	<g>
		<g>
			<path fill="#2A3F42" d="M9.978,43.776l-3.189-3.593C21.525,27.102,39.865,27.16,52.425,40.32l-3.476,3.318
				C38.303,32.482,22.644,32.536,9.978,43.776z"/>
		</g>
		<g>
			<path fill="#2A3F42" d="M16.517,50.182l-3.189-3.594c10.504-9.321,23.588-9.266,32.561,0.139l-3.477,3.316
				C35.241,42.529,25.079,42.583,16.517,50.182z"/>
		</g>
		<g>
			<path fill="#2A3F42" d="M22.522,56.589l-3.189-3.595c6.512-5.781,14.961-5.721,20.552,0.14l-3.479,3.316
				C32.584,52.441,27.135,52.496,22.522,56.589z"/>
		</g>
	</g>
</g>
</svg>
