G04 (created by PCBNEW (2013-07-07 BZR 4022)-stable) date 11/9/2013 6:13:17 PM*
%MOIN*%
G04 Gerber Fmt 3.4, Leading zero omitted, Abs format*
%FSLAX34Y34*%
G01*
G70*
G90*
G04 APERTURE LIST*
%ADD10C,0.006*%
%ADD11R,0.0685039X0.0173228*%
%ADD12R,0.0788346X0.0493071*%
%ADD13R,0.0493071X0.0788346*%
%ADD14R,0.0611X0.0198*%
%ADD15R,0.0334646X0.0496063*%
%ADD16R,0.0268661X0.0839528*%
%ADD17R,0.023622X0.0629921*%
%ADD18R,0.0984252X0.0826772*%
%ADD19R,0.0787402X0.0826772*%
%ADD20R,0.109134X0.135906*%
%ADD21R,0.0729291X0.0729291*%
%ADD22C,0.0729291*%
%ADD23R,0.0335591X0.0335591*%
%ADD24C,0.407575*%
%ADD25R,0.104425X0.206787*%
%ADD26R,0.0611181X0.0709606*%
%ADD27C,0.147732*%
%ADD28R,0.0886772X0.0571811*%
%ADD29C,0.021*%
%ADD30R,0.0453701X0.159543*%
%ADD31C,0.104425*%
G04 APERTURE END LIST*
G54D10*
G54D11*
X16102Y15895D03*
X16102Y16151D03*
X16102Y15639D03*
X16102Y15383D03*
X16102Y15127D03*
X16102Y14872D03*
X16102Y14616D03*
X16102Y14360D03*
X13897Y13848D03*
X13897Y14104D03*
X13897Y14360D03*
X13897Y14616D03*
X13897Y16151D03*
X13897Y15895D03*
X13897Y15639D03*
X13897Y15383D03*
X13897Y15127D03*
X13897Y14872D03*
X16102Y14104D03*
X16102Y13848D03*
G54D12*
X29251Y15500D03*
G54D10*
G36*
X9152Y2369D02*
X9579Y2123D01*
X9185Y1440D01*
X8758Y1687D01*
X9152Y2369D01*
X9152Y2369D01*
G37*
G54D13*
X13500Y748D03*
X14500Y748D03*
X15500Y748D03*
X16500Y748D03*
G54D10*
G36*
X21280Y2623D02*
X21707Y2869D01*
X22101Y2187D01*
X21674Y1940D01*
X21280Y2623D01*
X21280Y2623D01*
G37*
G36*
X22150Y3123D02*
X22577Y3369D01*
X22971Y2687D01*
X22544Y2440D01*
X22150Y3123D01*
X22150Y3123D01*
G37*
G36*
X23010Y3623D02*
X23437Y3869D01*
X23831Y3187D01*
X23404Y2940D01*
X23010Y3623D01*
X23010Y3623D01*
G37*
G36*
X26130Y6562D02*
X26376Y6989D01*
X27059Y6595D01*
X26812Y6168D01*
X26130Y6562D01*
X26130Y6562D01*
G37*
G36*
X26630Y7422D02*
X26876Y7849D01*
X27559Y7455D01*
X27312Y7028D01*
X26630Y7422D01*
X26630Y7422D01*
G37*
G36*
X27130Y8292D02*
X27376Y8719D01*
X28059Y8325D01*
X27812Y7898D01*
X27130Y8292D01*
X27130Y8292D01*
G37*
G36*
X27630Y9152D02*
X27876Y9579D01*
X28559Y9185D01*
X28312Y8758D01*
X27630Y9152D01*
X27630Y9152D01*
G37*
G54D12*
X29251Y13500D03*
X29251Y14500D03*
G54D10*
G36*
X20420Y2123D02*
X20847Y2369D01*
X21241Y1687D01*
X20814Y1440D01*
X20420Y2123D01*
X20420Y2123D01*
G37*
G54D12*
X29251Y16500D03*
G54D10*
G36*
X27876Y20420D02*
X27630Y20847D01*
X28312Y21241D01*
X28559Y20814D01*
X27876Y20420D01*
X27876Y20420D01*
G37*
G36*
X27376Y21280D02*
X27130Y21707D01*
X27812Y22101D01*
X28059Y21674D01*
X27376Y21280D01*
X27376Y21280D01*
G37*
G36*
X26876Y22150D02*
X26630Y22577D01*
X27312Y22971D01*
X27559Y22544D01*
X26876Y22150D01*
X26876Y22150D01*
G37*
G36*
X26376Y23010D02*
X26130Y23437D01*
X26812Y23831D01*
X27059Y23404D01*
X26376Y23010D01*
X26376Y23010D01*
G37*
G36*
X23437Y26130D02*
X23010Y26376D01*
X23404Y27059D01*
X23831Y26812D01*
X23437Y26130D01*
X23437Y26130D01*
G37*
G54D13*
X13500Y29251D03*
X14500Y29251D03*
X15500Y29251D03*
X16500Y29251D03*
G54D10*
G36*
X20847Y27630D02*
X20420Y27876D01*
X20814Y28559D01*
X21241Y28312D01*
X20847Y27630D01*
X20847Y27630D01*
G37*
G36*
X21707Y27130D02*
X21280Y27376D01*
X21674Y28059D01*
X22101Y27812D01*
X21707Y27130D01*
X21707Y27130D01*
G37*
G36*
X22577Y26630D02*
X22150Y26876D01*
X22544Y27559D01*
X22971Y27312D01*
X22577Y26630D01*
X22577Y26630D01*
G37*
G36*
X3369Y22577D02*
X3123Y22150D01*
X2440Y22544D01*
X2687Y22971D01*
X3369Y22577D01*
X3369Y22577D01*
G37*
G36*
X9579Y27876D02*
X9152Y27630D01*
X8758Y28312D01*
X9185Y28559D01*
X9579Y27876D01*
X9579Y27876D01*
G37*
G36*
X8719Y27376D02*
X8292Y27130D01*
X7898Y27812D01*
X8325Y28059D01*
X8719Y27376D01*
X8719Y27376D01*
G37*
G36*
X7849Y26876D02*
X7422Y26630D01*
X7028Y27312D01*
X7455Y27559D01*
X7849Y26876D01*
X7849Y26876D01*
G37*
G36*
X6989Y26376D02*
X6562Y26130D01*
X6168Y26812D01*
X6595Y27059D01*
X6989Y26376D01*
X6989Y26376D01*
G37*
G36*
X3869Y23437D02*
X3623Y23010D01*
X2940Y23404D01*
X3187Y23831D01*
X3869Y23437D01*
X3869Y23437D01*
G37*
G36*
X2869Y21707D02*
X2623Y21280D01*
X1940Y21674D01*
X2187Y22101D01*
X2869Y21707D01*
X2869Y21707D01*
G37*
G36*
X2369Y20847D02*
X2123Y20420D01*
X1440Y20814D01*
X1687Y21241D01*
X2369Y20847D01*
X2369Y20847D01*
G37*
G54D12*
X748Y16500D03*
X748Y15500D03*
G54D10*
G36*
X8292Y2869D02*
X8719Y2623D01*
X8325Y1940D01*
X7898Y2187D01*
X8292Y2869D01*
X8292Y2869D01*
G37*
G36*
X7422Y3369D02*
X7849Y3123D01*
X7455Y2440D01*
X7028Y2687D01*
X7422Y3369D01*
X7422Y3369D01*
G37*
G36*
X6562Y3869D02*
X6989Y3623D01*
X6595Y2940D01*
X6168Y3187D01*
X6562Y3869D01*
X6562Y3869D01*
G37*
G36*
X3623Y6989D02*
X3869Y6562D01*
X3187Y6168D01*
X2940Y6595D01*
X3623Y6989D01*
X3623Y6989D01*
G37*
G36*
X3123Y7849D02*
X3369Y7422D01*
X2687Y7028D01*
X2440Y7455D01*
X3123Y7849D01*
X3123Y7849D01*
G37*
G36*
X2623Y8719D02*
X2869Y8292D01*
X2187Y7898D01*
X1940Y8325D01*
X2623Y8719D01*
X2623Y8719D01*
G37*
G36*
X2123Y9579D02*
X2369Y9152D01*
X1687Y8758D01*
X1440Y9185D01*
X2123Y9579D01*
X2123Y9579D01*
G37*
G54D12*
X748Y14500D03*
X748Y13500D03*
G54D14*
X34868Y10896D03*
X34868Y10640D03*
X34868Y10384D03*
X34868Y10128D03*
X34868Y9872D03*
X34868Y9616D03*
X34868Y9360D03*
X34868Y9104D03*
X37132Y9104D03*
X37132Y9360D03*
X37132Y9616D03*
X37132Y9872D03*
X37132Y10128D03*
X37132Y10384D03*
X37132Y10640D03*
X37132Y10896D03*
G54D15*
X19625Y9566D03*
X20000Y9566D03*
X20374Y9566D03*
X20374Y10433D03*
X19625Y10433D03*
G54D16*
X8750Y18155D03*
X9250Y18155D03*
X9750Y18155D03*
X10250Y18155D03*
X10750Y18155D03*
X11250Y18155D03*
X11750Y18155D03*
X12250Y18155D03*
X12750Y18155D03*
X13250Y18155D03*
X13250Y21844D03*
X12750Y21844D03*
X12250Y21844D03*
X11750Y21844D03*
X11250Y21844D03*
X10750Y21844D03*
X10250Y21844D03*
X9750Y21844D03*
X9250Y21844D03*
X8750Y21844D03*
G54D17*
X35488Y1852D03*
X35744Y1852D03*
X36000Y1852D03*
X36255Y1852D03*
X36511Y1852D03*
G54D18*
X34523Y730D03*
X37476Y730D03*
G54D19*
X36452Y730D03*
X35547Y730D03*
G54D11*
X21102Y15895D03*
X21102Y16151D03*
X21102Y15639D03*
X21102Y15383D03*
X21102Y15127D03*
X21102Y14872D03*
X21102Y14616D03*
X21102Y14360D03*
X18897Y13848D03*
X18897Y14104D03*
X18897Y14360D03*
X18897Y14616D03*
X18897Y16151D03*
X18897Y15895D03*
X18897Y15639D03*
X18897Y15383D03*
X18897Y15127D03*
X18897Y14872D03*
G54D20*
X20000Y15000D03*
G54D11*
X21102Y14104D03*
X21102Y13848D03*
X16102Y10895D03*
X16102Y11151D03*
X16102Y10639D03*
X16102Y10383D03*
X16102Y10127D03*
X16102Y9872D03*
X16102Y9616D03*
X16102Y9360D03*
X13897Y8848D03*
X13897Y9104D03*
X13897Y9360D03*
X13897Y9616D03*
X13897Y11151D03*
X13897Y10895D03*
X13897Y10639D03*
X13897Y10383D03*
X13897Y10127D03*
X13897Y9872D03*
G54D20*
X15000Y10000D03*
G54D11*
X16102Y9104D03*
X16102Y8848D03*
X11102Y15895D03*
X11102Y16151D03*
X11102Y15639D03*
X11102Y15383D03*
X11102Y15127D03*
X11102Y14872D03*
X11102Y14616D03*
X11102Y14360D03*
X8897Y13848D03*
X8897Y14104D03*
X8897Y14360D03*
X8897Y14616D03*
X8897Y16151D03*
X8897Y15895D03*
X8897Y15639D03*
X8897Y15383D03*
X8897Y15127D03*
X8897Y14872D03*
G54D20*
X10000Y15000D03*
G54D11*
X11102Y14104D03*
X11102Y13848D03*
G54D21*
X9500Y11000D03*
G54D22*
X10500Y11000D03*
X9500Y10000D03*
X10500Y10000D03*
X9500Y9000D03*
X10500Y9000D03*
G54D23*
X15275Y17750D03*
X14724Y17750D03*
X39500Y2775D03*
X39500Y2224D03*
X38750Y2775D03*
X38750Y2224D03*
G54D10*
G36*
X28627Y10213D02*
X28460Y9922D01*
X28169Y10090D01*
X28337Y10381D01*
X28627Y10213D01*
X28627Y10213D01*
G37*
G36*
X28150Y10489D02*
X27982Y10198D01*
X27692Y10366D01*
X27859Y10657D01*
X28150Y10489D01*
X28150Y10489D01*
G37*
G36*
X4039Y5592D02*
X3872Y5883D01*
X4162Y6051D01*
X4330Y5760D01*
X4039Y5592D01*
X4039Y5592D01*
G37*
G36*
X4517Y5868D02*
X4349Y6159D01*
X4640Y6327D01*
X4807Y6036D01*
X4517Y5868D01*
X4517Y5868D01*
G37*
G54D23*
X17500Y974D03*
X17500Y1525D03*
G54D10*
G36*
X10213Y1372D02*
X9922Y1539D01*
X10090Y1830D01*
X10381Y1662D01*
X10213Y1372D01*
X10213Y1372D01*
G37*
G36*
X10489Y1849D02*
X10198Y2017D01*
X10366Y2307D01*
X10657Y2140D01*
X10489Y1849D01*
X10489Y1849D01*
G37*
G36*
X24407Y3839D02*
X24116Y3672D01*
X23948Y3962D01*
X24239Y4130D01*
X24407Y3839D01*
X24407Y3839D01*
G37*
G36*
X24131Y4317D02*
X23840Y4149D01*
X23672Y4440D01*
X23963Y4607D01*
X24131Y4317D01*
X24131Y4317D01*
G37*
G54D23*
X12500Y29025D03*
X12500Y28474D03*
G54D10*
G36*
X25960Y24407D02*
X26127Y24116D01*
X25837Y23948D01*
X25669Y24239D01*
X25960Y24407D01*
X25960Y24407D01*
G37*
G36*
X25482Y24131D02*
X25650Y23840D01*
X25359Y23672D01*
X25192Y23963D01*
X25482Y24131D01*
X25482Y24131D01*
G37*
G54D23*
X29025Y17500D03*
X28474Y17500D03*
G54D10*
G36*
X19786Y28627D02*
X20077Y28460D01*
X19909Y28169D01*
X19618Y28337D01*
X19786Y28627D01*
X19786Y28627D01*
G37*
G36*
X19510Y28150D02*
X19801Y27982D01*
X19633Y27692D01*
X19342Y27859D01*
X19510Y28150D01*
X19510Y28150D01*
G37*
G54D23*
X20275Y11250D03*
X19724Y11250D03*
X20275Y8750D03*
X19724Y8750D03*
X22000Y16525D03*
X22000Y15974D03*
X13000Y11525D03*
X13000Y10974D03*
X17000Y11525D03*
X17000Y10974D03*
X12000Y16525D03*
X12000Y15974D03*
X15275Y17000D03*
X14724Y17000D03*
X13000Y15275D03*
X13000Y14724D03*
X17000Y14724D03*
X17000Y15275D03*
X36750Y3974D03*
X36750Y4525D03*
X37474Y15250D03*
X38025Y15250D03*
X37474Y22250D03*
X38025Y22250D03*
X18000Y15974D03*
X18000Y16525D03*
X8000Y16525D03*
X8000Y15974D03*
X11474Y17250D03*
X12025Y17250D03*
X10025Y23500D03*
X9474Y23500D03*
X39500Y10775D03*
X39500Y10224D03*
X38750Y10775D03*
X38750Y10224D03*
X33474Y10750D03*
X34025Y10750D03*
X974Y12500D03*
X1525Y12500D03*
X36000Y3974D03*
X36000Y4525D03*
X35724Y3000D03*
X36275Y3000D03*
X37525Y3000D03*
X36974Y3000D03*
X33750Y4525D03*
X33750Y3974D03*
X34500Y3974D03*
X34500Y4525D03*
X35025Y3000D03*
X34474Y3000D03*
X37474Y8250D03*
X38025Y8250D03*
G54D10*
G36*
X1372Y19786D02*
X1539Y20077D01*
X1830Y19909D01*
X1662Y19618D01*
X1372Y19786D01*
X1372Y19786D01*
G37*
G36*
X1849Y19510D02*
X2017Y19801D01*
X2307Y19633D01*
X2140Y19342D01*
X1849Y19510D01*
X1849Y19510D01*
G37*
G36*
X5592Y25960D02*
X5883Y26127D01*
X6051Y25837D01*
X5760Y25669D01*
X5592Y25960D01*
X5592Y25960D01*
G37*
G36*
X5868Y25482D02*
X6159Y25650D01*
X6327Y25359D01*
X6036Y25192D01*
X5868Y25482D01*
X5868Y25482D01*
G37*
G54D24*
X18250Y20000D03*
G54D25*
X15238Y20000D03*
X21261Y20000D03*
G54D26*
X32000Y4600D03*
X32000Y3399D03*
G54D27*
X23750Y23750D03*
X6250Y6250D03*
X23750Y6250D03*
G54D23*
X9474Y22750D03*
X10025Y22750D03*
G54D28*
X34208Y21346D03*
X37791Y19653D03*
X34208Y19653D03*
X37791Y21346D03*
X34208Y14346D03*
X37791Y12653D03*
X34208Y12653D03*
X37791Y14346D03*
X34208Y7346D03*
X37791Y5653D03*
X34208Y5653D03*
X37791Y7346D03*
G54D23*
X33500Y2224D03*
X33500Y2775D03*
X33500Y974D03*
X33500Y1525D03*
G54D27*
X6250Y23750D03*
G54D29*
X30500Y14800D03*
X30500Y15200D03*
G54D30*
X34000Y24793D03*
X34000Y27706D03*
X35000Y24793D03*
X35000Y27706D03*
X36000Y24793D03*
X36000Y27706D03*
X37000Y24793D03*
X37000Y27706D03*
X38000Y24793D03*
X38000Y27706D03*
X17000Y7456D03*
X17000Y4543D03*
X16000Y7456D03*
X16000Y4543D03*
X15000Y7456D03*
X15000Y4543D03*
X14000Y7456D03*
X14000Y4543D03*
X13000Y7456D03*
X13000Y4543D03*
G54D31*
X31750Y29250D03*
X40250Y29250D03*
X31750Y750D03*
X40250Y750D03*
M02*
