G04 (created by PCBNEW (2013-07-07 BZR 4022)-stable) date 10/7/2013 10:29:13 PM*
%MOIN*%
G04 Gerber Fmt 3.4, Leading zero omitted, Abs format*
%FSLAX34Y34*%
G01*
G70*
G90*
G04 APERTURE LIST*
%ADD10C,0.006*%
%ADD11C,0.008*%
%ADD12C,0.015*%
%ADD13C,0.05*%
%ADD14C,0.0788661*%
%ADD15R,0.0788661X0.0788661*%
%ADD16C,0.110362*%
%ADD17R,0.0749291X0.0749291*%
%ADD18C,0.0749291*%
G04 APERTURE END LIST*
G54D10*
G54D11*
X23111Y7854D02*
X23035Y7588D01*
X22959Y7778D01*
X22883Y7588D01*
X22807Y7854D01*
X22692Y7854D02*
X22616Y7588D01*
X22540Y7778D01*
X22464Y7588D01*
X22388Y7854D01*
X22273Y7854D02*
X22197Y7588D01*
X22121Y7778D01*
X22045Y7588D01*
X21969Y7854D01*
X21816Y7626D02*
X21797Y7607D01*
X21816Y7588D01*
X21835Y7607D01*
X21816Y7626D01*
X21816Y7588D01*
X21664Y7854D02*
X21588Y7588D01*
X21511Y7778D01*
X21435Y7588D01*
X21359Y7854D01*
X21207Y7588D02*
X21207Y7854D01*
X21207Y7988D02*
X21226Y7969D01*
X21207Y7950D01*
X21188Y7969D01*
X21207Y7988D01*
X21207Y7950D01*
X20959Y7588D02*
X20997Y7607D01*
X21016Y7645D01*
X21016Y7988D01*
X20654Y7607D02*
X20692Y7588D01*
X20769Y7588D01*
X20807Y7607D01*
X20826Y7645D01*
X20826Y7797D01*
X20807Y7835D01*
X20769Y7854D01*
X20692Y7854D01*
X20654Y7835D01*
X20635Y7797D01*
X20635Y7759D01*
X20826Y7721D01*
X20502Y7854D02*
X20407Y7588D01*
X20311Y7854D02*
X20407Y7588D01*
X20445Y7492D01*
X20464Y7473D01*
X20502Y7454D01*
X19988Y7607D02*
X20026Y7588D01*
X20102Y7588D01*
X20140Y7607D01*
X20159Y7626D01*
X20178Y7664D01*
X20178Y7778D01*
X20159Y7816D01*
X20140Y7835D01*
X20102Y7854D01*
X20026Y7854D01*
X19988Y7835D01*
X19759Y7588D02*
X19797Y7607D01*
X19816Y7626D01*
X19835Y7664D01*
X19835Y7778D01*
X19816Y7816D01*
X19797Y7835D01*
X19759Y7854D01*
X19702Y7854D01*
X19664Y7835D01*
X19645Y7816D01*
X19626Y7778D01*
X19626Y7664D01*
X19645Y7626D01*
X19664Y7607D01*
X19702Y7588D01*
X19759Y7588D01*
X19283Y7854D02*
X19283Y7588D01*
X19454Y7854D02*
X19454Y7645D01*
X19435Y7607D01*
X19397Y7588D01*
X19340Y7588D01*
X19302Y7607D01*
X19283Y7626D01*
X19111Y7607D02*
X19073Y7588D01*
X18997Y7588D01*
X18959Y7607D01*
X18940Y7645D01*
X18940Y7664D01*
X18959Y7702D01*
X18997Y7721D01*
X19054Y7721D01*
X19092Y7740D01*
X19111Y7778D01*
X19111Y7797D01*
X19092Y7835D01*
X19054Y7854D01*
X18997Y7854D01*
X18959Y7835D01*
X18769Y7588D02*
X18769Y7854D01*
X18769Y7988D02*
X18788Y7969D01*
X18769Y7950D01*
X18749Y7969D01*
X18769Y7988D01*
X18769Y7950D01*
X18578Y7854D02*
X18578Y7588D01*
X18578Y7816D02*
X18559Y7835D01*
X18521Y7854D01*
X18464Y7854D01*
X18426Y7835D01*
X18407Y7797D01*
X18407Y7588D01*
X18235Y7607D02*
X18197Y7588D01*
X18121Y7588D01*
X18083Y7607D01*
X18064Y7645D01*
X18064Y7664D01*
X18083Y7702D01*
X18121Y7721D01*
X18178Y7721D01*
X18216Y7740D01*
X18235Y7778D01*
X18235Y7797D01*
X18216Y7835D01*
X18178Y7854D01*
X18121Y7854D01*
X18083Y7835D01*
X17892Y7626D02*
X17873Y7607D01*
X17892Y7588D01*
X17911Y7607D01*
X17892Y7626D01*
X17892Y7588D01*
X17530Y7607D02*
X17569Y7588D01*
X17645Y7588D01*
X17683Y7607D01*
X17702Y7626D01*
X17721Y7664D01*
X17721Y7778D01*
X17702Y7816D01*
X17683Y7835D01*
X17645Y7854D01*
X17569Y7854D01*
X17530Y7835D01*
X17302Y7588D02*
X17340Y7607D01*
X17359Y7626D01*
X17378Y7664D01*
X17378Y7778D01*
X17359Y7816D01*
X17340Y7835D01*
X17302Y7854D01*
X17245Y7854D01*
X17207Y7835D01*
X17188Y7816D01*
X17169Y7778D01*
X17169Y7664D01*
X17188Y7626D01*
X17207Y7607D01*
X17245Y7588D01*
X17302Y7588D01*
X16997Y7588D02*
X16997Y7854D01*
X16997Y7816D02*
X16978Y7835D01*
X16940Y7854D01*
X16883Y7854D01*
X16845Y7835D01*
X16826Y7797D01*
X16826Y7588D01*
X16826Y7797D02*
X16807Y7835D01*
X16769Y7854D01*
X16711Y7854D01*
X16673Y7835D01*
X16654Y7797D01*
X16654Y7588D01*
X16064Y7454D02*
X16064Y8026D01*
X15302Y7854D02*
X15302Y7530D01*
X15321Y7492D01*
X15340Y7473D01*
X15378Y7454D01*
X15435Y7454D01*
X15473Y7473D01*
X15302Y7607D02*
X15340Y7588D01*
X15416Y7588D01*
X15454Y7607D01*
X15473Y7626D01*
X15492Y7664D01*
X15492Y7778D01*
X15473Y7816D01*
X15454Y7835D01*
X15416Y7854D01*
X15340Y7854D01*
X15302Y7835D01*
X15111Y7588D02*
X15111Y7854D01*
X15111Y7988D02*
X15130Y7969D01*
X15111Y7950D01*
X15092Y7969D01*
X15111Y7988D01*
X15111Y7950D01*
X14978Y7854D02*
X14826Y7854D01*
X14921Y7988D02*
X14921Y7645D01*
X14902Y7607D01*
X14864Y7588D01*
X14826Y7588D01*
X14692Y7588D02*
X14692Y7988D01*
X14521Y7588D02*
X14521Y7797D01*
X14540Y7835D01*
X14578Y7854D01*
X14635Y7854D01*
X14673Y7835D01*
X14692Y7816D01*
X14159Y7854D02*
X14159Y7588D01*
X14330Y7854D02*
X14330Y7645D01*
X14311Y7607D01*
X14273Y7588D01*
X14216Y7588D01*
X14178Y7607D01*
X14159Y7626D01*
X13969Y7588D02*
X13969Y7988D01*
X13969Y7835D02*
X13930Y7854D01*
X13854Y7854D01*
X13816Y7835D01*
X13797Y7816D01*
X13778Y7778D01*
X13778Y7664D01*
X13797Y7626D01*
X13816Y7607D01*
X13854Y7588D01*
X13930Y7588D01*
X13969Y7607D01*
X13607Y7626D02*
X13588Y7607D01*
X13607Y7588D01*
X13626Y7607D01*
X13607Y7626D01*
X13607Y7588D01*
X13245Y7607D02*
X13283Y7588D01*
X13359Y7588D01*
X13397Y7607D01*
X13416Y7626D01*
X13435Y7664D01*
X13435Y7778D01*
X13416Y7816D01*
X13397Y7835D01*
X13359Y7854D01*
X13283Y7854D01*
X13245Y7835D01*
X13016Y7588D02*
X13054Y7607D01*
X13073Y7626D01*
X13092Y7664D01*
X13092Y7778D01*
X13073Y7816D01*
X13054Y7835D01*
X13016Y7854D01*
X12959Y7854D01*
X12921Y7835D01*
X12902Y7816D01*
X12883Y7778D01*
X12883Y7664D01*
X12902Y7626D01*
X12921Y7607D01*
X12959Y7588D01*
X13016Y7588D01*
X12711Y7588D02*
X12711Y7854D01*
X12711Y7816D02*
X12692Y7835D01*
X12654Y7854D01*
X12597Y7854D01*
X12559Y7835D01*
X12540Y7797D01*
X12540Y7588D01*
X12540Y7797D02*
X12521Y7835D01*
X12483Y7854D01*
X12426Y7854D01*
X12388Y7835D01*
X12369Y7797D01*
X12369Y7588D01*
X11892Y8007D02*
X12235Y7492D01*
X11759Y7588D02*
X11759Y7854D01*
X11759Y7816D02*
X11740Y7835D01*
X11702Y7854D01*
X11645Y7854D01*
X11607Y7835D01*
X11588Y7797D01*
X11588Y7588D01*
X11588Y7797D02*
X11569Y7835D01*
X11530Y7854D01*
X11473Y7854D01*
X11435Y7835D01*
X11416Y7797D01*
X11416Y7588D01*
X11054Y7607D02*
X11092Y7588D01*
X11169Y7588D01*
X11207Y7607D01*
X11226Y7626D01*
X11245Y7664D01*
X11245Y7778D01*
X11226Y7816D01*
X11207Y7835D01*
X11169Y7854D01*
X11092Y7854D01*
X11054Y7835D01*
X10826Y7588D02*
X10864Y7607D01*
X10883Y7626D01*
X10902Y7664D01*
X10902Y7778D01*
X10883Y7816D01*
X10864Y7835D01*
X10826Y7854D01*
X10769Y7854D01*
X10730Y7835D01*
X10711Y7816D01*
X10692Y7778D01*
X10692Y7664D01*
X10711Y7626D01*
X10730Y7607D01*
X10769Y7588D01*
X10826Y7588D01*
X10349Y7854D02*
X10349Y7588D01*
X10521Y7854D02*
X10521Y7645D01*
X10502Y7607D01*
X10464Y7588D01*
X10407Y7588D01*
X10369Y7607D01*
X10349Y7626D01*
X10178Y7607D02*
X10140Y7588D01*
X10064Y7588D01*
X10026Y7607D01*
X10007Y7645D01*
X10007Y7664D01*
X10026Y7702D01*
X10064Y7721D01*
X10121Y7721D01*
X10159Y7740D01*
X10178Y7778D01*
X10178Y7797D01*
X10159Y7835D01*
X10121Y7854D01*
X10064Y7854D01*
X10026Y7835D01*
X9549Y8007D02*
X9892Y7492D01*
X9245Y7607D02*
X9283Y7588D01*
X9359Y7588D01*
X9397Y7607D01*
X9416Y7626D01*
X9435Y7664D01*
X9435Y7778D01*
X9416Y7816D01*
X9397Y7835D01*
X9359Y7854D01*
X9283Y7854D01*
X9245Y7835D01*
X9016Y7588D02*
X9054Y7607D01*
X9073Y7645D01*
X9073Y7988D01*
X8807Y7588D02*
X8845Y7607D01*
X8864Y7626D01*
X8883Y7664D01*
X8883Y7778D01*
X8864Y7816D01*
X8845Y7835D01*
X8807Y7854D01*
X8750Y7854D01*
X8711Y7835D01*
X8692Y7816D01*
X8673Y7778D01*
X8673Y7664D01*
X8692Y7626D01*
X8711Y7607D01*
X8750Y7588D01*
X8807Y7588D01*
X8330Y7607D02*
X8369Y7588D01*
X8445Y7588D01*
X8483Y7607D01*
X8502Y7626D01*
X8521Y7664D01*
X8521Y7778D01*
X8502Y7816D01*
X8483Y7835D01*
X8445Y7854D01*
X8369Y7854D01*
X8330Y7835D01*
X8159Y7588D02*
X8159Y7988D01*
X8121Y7740D02*
X8007Y7588D01*
X8007Y7854D02*
X8159Y7702D01*
X7835Y7588D02*
X7835Y7988D01*
X7835Y7835D02*
X7797Y7854D01*
X7721Y7854D01*
X7683Y7835D01*
X7664Y7816D01*
X7645Y7778D01*
X7645Y7664D01*
X7664Y7626D01*
X7683Y7607D01*
X7721Y7588D01*
X7797Y7588D01*
X7835Y7607D01*
X7416Y7588D02*
X7454Y7607D01*
X7473Y7645D01*
X7473Y7988D01*
X7207Y7588D02*
X7245Y7607D01*
X7264Y7626D01*
X7283Y7664D01*
X7283Y7778D01*
X7264Y7816D01*
X7245Y7835D01*
X7207Y7854D01*
X7150Y7854D01*
X7111Y7835D01*
X7092Y7816D01*
X7073Y7778D01*
X7073Y7664D01*
X7092Y7626D01*
X7111Y7607D01*
X7150Y7588D01*
X7207Y7588D01*
X6730Y7607D02*
X6769Y7588D01*
X6845Y7588D01*
X6883Y7607D01*
X6902Y7626D01*
X6921Y7664D01*
X6921Y7778D01*
X6902Y7816D01*
X6883Y7835D01*
X6845Y7854D01*
X6769Y7854D01*
X6730Y7835D01*
X6559Y7588D02*
X6559Y7988D01*
X6521Y7740D02*
X6407Y7588D01*
X6407Y7854D02*
X6559Y7702D01*
G54D12*
X27283Y11871D02*
X27321Y11909D01*
X27397Y12023D01*
X27435Y12100D01*
X27473Y12214D01*
X27511Y12404D01*
X27511Y12557D01*
X27473Y12747D01*
X27435Y12861D01*
X27397Y12938D01*
X27321Y13052D01*
X27283Y13090D01*
X26635Y12176D02*
X26635Y12595D01*
X26673Y12671D01*
X26749Y12709D01*
X26902Y12709D01*
X26978Y12671D01*
X26635Y12214D02*
X26711Y12176D01*
X26902Y12176D01*
X26978Y12214D01*
X27016Y12290D01*
X27016Y12366D01*
X26978Y12442D01*
X26902Y12480D01*
X26711Y12480D01*
X26635Y12519D01*
X26254Y12709D02*
X26254Y12176D01*
X26254Y12633D02*
X26216Y12671D01*
X26140Y12709D01*
X26026Y12709D01*
X25949Y12671D01*
X25911Y12595D01*
X25911Y12176D01*
X25416Y12176D02*
X25492Y12214D01*
X25530Y12252D01*
X25569Y12328D01*
X25569Y12557D01*
X25530Y12633D01*
X25492Y12671D01*
X25416Y12709D01*
X25302Y12709D01*
X25226Y12671D01*
X25188Y12633D01*
X25149Y12557D01*
X25149Y12328D01*
X25188Y12252D01*
X25226Y12214D01*
X25302Y12176D01*
X25416Y12176D01*
X24921Y12709D02*
X24616Y12709D01*
X24807Y12976D02*
X24807Y12290D01*
X24769Y12214D01*
X24692Y12176D01*
X24616Y12176D01*
X24349Y12176D02*
X24349Y12976D01*
X24007Y12176D02*
X24007Y12595D01*
X24045Y12671D01*
X24121Y12709D01*
X24235Y12709D01*
X24311Y12671D01*
X24349Y12633D01*
X23321Y12214D02*
X23397Y12176D01*
X23549Y12176D01*
X23626Y12214D01*
X23664Y12290D01*
X23664Y12595D01*
X23626Y12671D01*
X23549Y12709D01*
X23397Y12709D01*
X23321Y12671D01*
X23283Y12595D01*
X23283Y12519D01*
X23664Y12442D01*
X22940Y12176D02*
X22940Y12709D01*
X22940Y12557D02*
X22902Y12633D01*
X22864Y12671D01*
X22788Y12709D01*
X22711Y12709D01*
X21492Y12709D02*
X21492Y11909D01*
X21492Y12214D02*
X21569Y12176D01*
X21721Y12176D01*
X21797Y12214D01*
X21835Y12252D01*
X21873Y12328D01*
X21873Y12557D01*
X21835Y12633D01*
X21797Y12671D01*
X21721Y12709D01*
X21569Y12709D01*
X21492Y12671D01*
X20769Y12709D02*
X20769Y12176D01*
X21111Y12709D02*
X21111Y12290D01*
X21073Y12214D01*
X20997Y12176D01*
X20883Y12176D01*
X20807Y12214D01*
X20769Y12252D01*
X20045Y12176D02*
X20045Y12595D01*
X20083Y12671D01*
X20159Y12709D01*
X20311Y12709D01*
X20388Y12671D01*
X20045Y12214D02*
X20121Y12176D01*
X20311Y12176D01*
X20388Y12214D01*
X20426Y12290D01*
X20426Y12366D01*
X20388Y12442D01*
X20311Y12480D01*
X20121Y12480D01*
X20045Y12519D01*
X19549Y12176D02*
X19626Y12214D01*
X19664Y12290D01*
X19664Y12976D01*
X19245Y12176D02*
X19245Y12709D01*
X19245Y12976D02*
X19283Y12938D01*
X19245Y12900D01*
X19207Y12938D01*
X19245Y12976D01*
X19245Y12900D01*
X18978Y12709D02*
X18673Y12709D01*
X18864Y12976D02*
X18864Y12290D01*
X18826Y12214D01*
X18749Y12176D01*
X18673Y12176D01*
X18483Y12709D02*
X18292Y12176D01*
X18102Y12709D02*
X18292Y12176D01*
X18369Y11985D01*
X18407Y11947D01*
X18483Y11909D01*
X17264Y12709D02*
X17111Y12176D01*
X16959Y12557D01*
X16807Y12176D01*
X16654Y12709D01*
X16349Y12176D02*
X16349Y12709D01*
X16349Y12976D02*
X16388Y12938D01*
X16349Y12900D01*
X16311Y12938D01*
X16349Y12976D01*
X16349Y12900D01*
X15854Y12176D02*
X15930Y12214D01*
X15969Y12290D01*
X15969Y12976D01*
X15245Y12214D02*
X15321Y12176D01*
X15473Y12176D01*
X15549Y12214D01*
X15588Y12290D01*
X15588Y12595D01*
X15549Y12671D01*
X15473Y12709D01*
X15321Y12709D01*
X15245Y12671D01*
X15207Y12595D01*
X15207Y12519D01*
X15588Y12442D01*
X14940Y12709D02*
X14749Y12176D01*
X14559Y12709D02*
X14749Y12176D01*
X14826Y11985D01*
X14864Y11947D01*
X14940Y11909D01*
X13302Y12214D02*
X13378Y12176D01*
X13530Y12176D01*
X13607Y12214D01*
X13645Y12252D01*
X13683Y12328D01*
X13683Y12557D01*
X13645Y12633D01*
X13607Y12671D01*
X13530Y12709D01*
X13378Y12709D01*
X13302Y12671D01*
X12845Y12176D02*
X12921Y12214D01*
X12959Y12252D01*
X12997Y12328D01*
X12997Y12557D01*
X12959Y12633D01*
X12921Y12671D01*
X12845Y12709D01*
X12730Y12709D01*
X12654Y12671D01*
X12616Y12633D01*
X12578Y12557D01*
X12578Y12328D01*
X12616Y12252D01*
X12654Y12214D01*
X12730Y12176D01*
X12845Y12176D01*
X11892Y12709D02*
X11892Y12176D01*
X12235Y12709D02*
X12235Y12290D01*
X12197Y12214D01*
X12121Y12176D01*
X12007Y12176D01*
X11930Y12214D01*
X11892Y12252D01*
X11550Y12214D02*
X11473Y12176D01*
X11321Y12176D01*
X11245Y12214D01*
X11207Y12290D01*
X11207Y12328D01*
X11245Y12404D01*
X11321Y12442D01*
X11435Y12442D01*
X11511Y12480D01*
X11550Y12557D01*
X11550Y12595D01*
X11511Y12671D01*
X11435Y12709D01*
X11321Y12709D01*
X11245Y12671D01*
X10864Y12176D02*
X10864Y12709D01*
X10864Y12976D02*
X10902Y12938D01*
X10864Y12900D01*
X10826Y12938D01*
X10864Y12976D01*
X10864Y12900D01*
X10483Y12709D02*
X10483Y12176D01*
X10483Y12633D02*
X10445Y12671D01*
X10369Y12709D01*
X10254Y12709D01*
X10178Y12671D01*
X10140Y12595D01*
X10140Y12176D01*
X9797Y12214D02*
X9721Y12176D01*
X9569Y12176D01*
X9492Y12214D01*
X9454Y12290D01*
X9454Y12328D01*
X9492Y12404D01*
X9569Y12442D01*
X9683Y12442D01*
X9759Y12480D01*
X9797Y12557D01*
X9797Y12595D01*
X9759Y12671D01*
X9683Y12709D01*
X9569Y12709D01*
X9492Y12671D01*
X8502Y12709D02*
X8502Y11909D01*
X8502Y12671D02*
X8426Y12709D01*
X8273Y12709D01*
X8197Y12671D01*
X8159Y12633D01*
X8121Y12557D01*
X8121Y12328D01*
X8159Y12252D01*
X8197Y12214D01*
X8273Y12176D01*
X8426Y12176D01*
X8502Y12214D01*
X7778Y12176D02*
X7778Y12709D01*
X7778Y12557D02*
X7740Y12633D01*
X7702Y12671D01*
X7626Y12709D01*
X7550Y12709D01*
X7169Y12176D02*
X7245Y12214D01*
X7283Y12252D01*
X7321Y12328D01*
X7321Y12557D01*
X7283Y12633D01*
X7245Y12671D01*
X7169Y12709D01*
X7054Y12709D01*
X6978Y12671D01*
X6940Y12633D01*
X6902Y12557D01*
X6902Y12328D01*
X6940Y12252D01*
X6978Y12214D01*
X7054Y12176D01*
X7169Y12176D01*
X6216Y12176D02*
X6216Y12976D01*
X6216Y12214D02*
X6292Y12176D01*
X6445Y12176D01*
X6521Y12214D01*
X6559Y12252D01*
X6597Y12328D01*
X6597Y12557D01*
X6559Y12633D01*
X6521Y12671D01*
X6445Y12709D01*
X6292Y12709D01*
X6216Y12671D01*
X5492Y12709D02*
X5492Y12176D01*
X5835Y12709D02*
X5835Y12290D01*
X5797Y12214D01*
X5721Y12176D01*
X5607Y12176D01*
X5530Y12214D01*
X5492Y12252D01*
X4769Y12214D02*
X4845Y12176D01*
X4997Y12176D01*
X5073Y12214D01*
X5111Y12252D01*
X5150Y12328D01*
X5150Y12557D01*
X5111Y12633D01*
X5073Y12671D01*
X4997Y12709D01*
X4845Y12709D01*
X4769Y12671D01*
X4540Y12709D02*
X4235Y12709D01*
X4426Y12976D02*
X4426Y12290D01*
X4388Y12214D01*
X4311Y12176D01*
X4235Y12176D01*
X3969Y12176D02*
X3969Y12709D01*
X3969Y12976D02*
X4007Y12938D01*
X3969Y12900D01*
X3930Y12938D01*
X3969Y12976D01*
X3969Y12900D01*
X3473Y12176D02*
X3550Y12214D01*
X3588Y12252D01*
X3626Y12328D01*
X3626Y12557D01*
X3588Y12633D01*
X3550Y12671D01*
X3473Y12709D01*
X3359Y12709D01*
X3283Y12671D01*
X3245Y12633D01*
X3207Y12557D01*
X3207Y12328D01*
X3245Y12252D01*
X3283Y12214D01*
X3359Y12176D01*
X3473Y12176D01*
X2864Y12709D02*
X2864Y12176D01*
X2864Y12633D02*
X2826Y12671D01*
X2750Y12709D01*
X2635Y12709D01*
X2559Y12671D01*
X2521Y12595D01*
X2521Y12176D01*
X2216Y11871D02*
X2178Y11909D01*
X2102Y12023D01*
X2064Y12100D01*
X2026Y12214D01*
X1988Y12404D01*
X1988Y12557D01*
X2026Y12747D01*
X2064Y12861D01*
X2102Y12938D01*
X2178Y13052D01*
X2216Y13090D01*
G54D13*
X23273Y14107D02*
X23511Y13988D01*
X23988Y13988D01*
X24226Y14107D01*
X24345Y14226D01*
X24464Y14464D01*
X24464Y15178D01*
X24345Y15416D01*
X24226Y15535D01*
X23988Y15654D01*
X23511Y15654D01*
X23273Y15535D01*
X21845Y13988D02*
X22083Y14107D01*
X22202Y14345D01*
X22202Y16488D01*
X20535Y13988D02*
X20773Y14107D01*
X20892Y14226D01*
X21011Y14464D01*
X21011Y15178D01*
X20892Y15416D01*
X20773Y15535D01*
X20535Y15654D01*
X20178Y15654D01*
X19940Y15535D01*
X19821Y15416D01*
X19702Y15178D01*
X19702Y14464D01*
X19821Y14226D01*
X19940Y14107D01*
X20178Y13988D01*
X20535Y13988D01*
X17559Y14107D02*
X17797Y13988D01*
X18273Y13988D01*
X18511Y14107D01*
X18630Y14226D01*
X18749Y14464D01*
X18749Y15178D01*
X18630Y15416D01*
X18511Y15535D01*
X18273Y15654D01*
X17797Y15654D01*
X17559Y15535D01*
X16488Y13988D02*
X16488Y16488D01*
X16249Y14940D02*
X15535Y13988D01*
X15535Y15654D02*
X16488Y14702D01*
X14464Y13988D02*
X14464Y16488D01*
X14464Y15535D02*
X14226Y15654D01*
X13750Y15654D01*
X13511Y15535D01*
X13392Y15416D01*
X13273Y15178D01*
X13273Y14464D01*
X13392Y14226D01*
X13511Y14107D01*
X13750Y13988D01*
X14226Y13988D01*
X14464Y14107D01*
X11845Y13988D02*
X12083Y14107D01*
X12202Y14345D01*
X12202Y16488D01*
X10535Y13988D02*
X10773Y14107D01*
X10892Y14226D01*
X11011Y14464D01*
X11011Y15178D01*
X10892Y15416D01*
X10773Y15535D01*
X10535Y15654D01*
X10178Y15654D01*
X9940Y15535D01*
X9821Y15416D01*
X9702Y15178D01*
X9702Y14464D01*
X9821Y14226D01*
X9940Y14107D01*
X10178Y13988D01*
X10535Y13988D01*
X7559Y14107D02*
X7797Y13988D01*
X8273Y13988D01*
X8511Y14107D01*
X8630Y14226D01*
X8750Y14464D01*
X8750Y15178D01*
X8630Y15416D01*
X8511Y15535D01*
X8273Y15654D01*
X7797Y15654D01*
X7559Y15535D01*
X6488Y13988D02*
X6488Y16488D01*
X6250Y14940D02*
X5535Y13988D01*
X5535Y15654D02*
X6488Y14702D01*
%LPC*%
G54D14*
X19220Y8514D03*
X21779Y8514D03*
X19220Y10285D03*
X21779Y10285D03*
G54D10*
G36*
X23443Y4288D02*
X23837Y3605D01*
X23154Y3211D01*
X22760Y3894D01*
X23443Y4288D01*
X23443Y4288D01*
G37*
G54D14*
X22433Y3250D03*
X21566Y2750D03*
X20700Y2250D03*
G54D10*
G36*
X6556Y25831D02*
X6162Y26514D01*
X6845Y26908D01*
X7239Y26225D01*
X6556Y25831D01*
X6556Y25831D01*
G37*
G54D14*
X7566Y26870D03*
X8433Y27370D03*
X9299Y27870D03*
G54D10*
G36*
X2274Y20162D02*
X1591Y20556D01*
X1985Y21239D01*
X2668Y20845D01*
X2274Y20162D01*
X2274Y20162D01*
G37*
G54D14*
X2630Y21566D03*
X3130Y22433D03*
X3630Y23299D03*
G54D15*
X1000Y13500D03*
G54D14*
X1000Y14500D03*
X1000Y15500D03*
X1000Y16500D03*
G54D10*
G36*
X4168Y6556D02*
X3485Y6162D01*
X3091Y6845D01*
X3774Y7239D01*
X4168Y6556D01*
X4168Y6556D01*
G37*
G54D14*
X3130Y7566D03*
X2630Y8433D03*
X2130Y9299D03*
G54D10*
G36*
X9837Y2274D02*
X9443Y1591D01*
X8760Y1985D01*
X9154Y2668D01*
X9837Y2274D01*
X9837Y2274D01*
G37*
G54D14*
X8433Y2630D03*
X7566Y3130D03*
X6700Y3630D03*
G54D15*
X16500Y1000D03*
G54D14*
X15500Y1000D03*
X14500Y1000D03*
X13500Y1000D03*
G54D10*
G36*
X27725Y9837D02*
X28408Y9443D01*
X28014Y8760D01*
X27331Y9154D01*
X27725Y9837D01*
X27725Y9837D01*
G37*
G54D14*
X27370Y8433D03*
X26870Y7566D03*
X26370Y6700D03*
G54D15*
X29000Y16500D03*
G54D14*
X29000Y15500D03*
X29000Y14500D03*
X29000Y13500D03*
G54D10*
G36*
X25831Y23443D02*
X26514Y23837D01*
X26908Y23154D01*
X26225Y22760D01*
X25831Y23443D01*
X25831Y23443D01*
G37*
G54D14*
X26870Y22433D03*
X27370Y21566D03*
X27870Y20700D03*
G54D10*
G36*
X20162Y27725D02*
X20556Y28408D01*
X21239Y28014D01*
X20845Y27331D01*
X20162Y27725D01*
X20162Y27725D01*
G37*
G54D14*
X21566Y27370D03*
X22433Y26870D03*
X23299Y26370D03*
G54D15*
X13500Y29000D03*
G54D14*
X14500Y29000D03*
X15500Y29000D03*
X16500Y29000D03*
G54D16*
X17181Y6500D03*
X14818Y6500D03*
X16000Y4649D03*
G54D17*
X6400Y22200D03*
G54D18*
X6400Y23200D03*
X7400Y22200D03*
X7400Y23200D03*
X8400Y22200D03*
X8400Y23200D03*
G54D14*
X17920Y23014D03*
X20479Y23014D03*
X17920Y24785D03*
X20479Y24785D03*
X17920Y20014D03*
X20479Y20014D03*
X17920Y21785D03*
X20479Y21785D03*
G54D15*
X3700Y13500D03*
G54D14*
X3700Y14500D03*
X3700Y15500D03*
X3700Y16500D03*
M02*
