M48
;DRILL file {Pcbnew (2013-07-07 BZR 4022)-stable} date 10/7/2013 10:29:22 PM
;FORMAT={2:4/ absolute / inch / keep zeros}
FMAT,2
INCH,TZ
T1C0.015
T2C0.035
T3C0.039
T4C0.063
%
G90
G05
M72
T1
X001890Y018430
X003720Y019050
X003890Y007860
X004170Y019070
X004220Y007590
X004570Y016130
X004600Y019130
X004990Y011240
X004990Y010830
X005050Y019210
X005290Y014720
X005290Y014240
X005310Y010520
X005340Y017920
X005480Y019240
X005580Y015050
X005670Y010110
X005680Y011950
X005880Y024650
X005890Y012300
X005990Y017690
X005990Y010390
X006240Y012505
X007460Y024280
X007640Y015020
X007640Y014290
X007650Y017770
X007660Y015780
X007660Y010945
X007670Y019760
X007675Y011755
X007700Y012695
X007790Y006880
X008200Y019750
X008200Y015530
X008310Y010960
X008320Y011750
X008340Y015020
X008380Y017780
X008730Y020970
X008760Y017130
X009140Y013730
X009200Y017030
X009880Y017780
X010160Y015550
X010165Y024265
X010220Y018450
X010450Y014540
X010470Y018810
X010680Y019650
X010680Y018450
X010730Y015470
X010750Y014230
X010910Y012410
X010950Y005050
X011020Y019250
X011160Y005450
X011230Y015480
X011310Y018920
X011360Y011580
X011420Y005850
X011510Y011990
X011950Y012070
X012140Y013010
X012480Y014120
X012760Y016920
X012790Y016005
X012800Y017330
X012870Y015590
X013135Y013945
X013250Y019470
X013510Y020320
X013685Y016690
X013735Y019955
X013755Y026575
X013780Y027410
X013900Y002310
X014010Y027020
X014165Y026395
X014230Y019770
X014390Y013380
X014480Y017040
X014560Y001970
X014680Y015630
X014740Y023225
X015600Y014820
X015975Y013820
X016440Y022210
X016440Y017250
X016600Y026000
X017035Y025805
X017080Y014540
X017620Y017030
X017840Y002160
X018130Y027600
X021845Y020160
X022780Y021030
X022900Y020610
X022980Y017780
X023220Y021000
X023290Y017470
X023720Y021060
X023860Y024070
X024100Y005930
X024620Y020190
X024850Y006280
X024850Y005150
X025060Y013900
X026340Y018330
T2
X001000Y016500
X001000Y015500
X001000Y014500
X001000Y013500
X002130Y020701
X002130Y009299
X002630Y021567
X002630Y008433
X003130Y022433
X003130Y007567
X003630Y023299
X003630Y006701
X003700Y016500
X003700Y015500
X003700Y014500
X003700Y013500
X006400Y023200
X006400Y022200
X006701Y026370
X006701Y003630
X007400Y023200
X007400Y022200
X007567Y026870
X007567Y003130
X008400Y023200
X008400Y022200
X008433Y027370
X008433Y002630
X009299Y027870
X009299Y002130
X013500Y029000
X013500Y001000
X014500Y029000
X014500Y001000
X015500Y029000
X015500Y001000
X016500Y029000
X016500Y001000
X020701Y027870
X020701Y002250
X021567Y027370
X021567Y002750
X022433Y026870
X022433Y003250
X023299Y026370
X023299Y003750
X026370Y023299
X026370Y006701
X026870Y022433
X026870Y007567
X027370Y021567
X027370Y008433
X027870Y020701
X027870Y009299
X029000Y016500
X029000Y015500
X029000Y014500
X029000Y013500
T3
X017920Y024786
X017920Y023014
X017920Y021786
X017920Y020014
X019220Y010286
X019220Y008514
X020480Y024786
X020480Y023014
X020480Y021786
X020480Y020014
X021780Y010286
X021780Y008514
T4
X014819Y006500
X016000Y004650
X017181Y006500
T0
M30
