G04 (created by PCBNEW (2013-07-07 BZR 4022)-stable) date 9/25/2013 7:54:20 PM*
%MOIN*%
G04 Gerber Fmt 3.4, Leading zero omitted, Abs format*
%FSLAX34Y34*%
G01*
G70*
G90*
G04 APERTURE LIST*
%ADD10C,0.006*%
%ADD11C,0.0708661*%
%ADD12R,0.0708661X0.0708661*%
%ADD13C,0.102362*%
%ADD14R,0.0669291X0.0669291*%
%ADD15C,0.0669291*%
%ADD16C,0.03*%
%ADD17C,0.01*%
%ADD18C,0.012*%
G04 APERTURE END LIST*
G54D10*
G54D11*
X88220Y-65985D03*
X90779Y-65985D03*
X88220Y-64214D03*
X90779Y-64214D03*
G54D10*
G36*
X92428Y-70265D02*
X92783Y-70879D01*
X92169Y-71234D01*
X91815Y-70620D01*
X92428Y-70265D01*
X92428Y-70265D01*
G37*
G54D11*
X91433Y-71250D03*
X90566Y-71750D03*
X89700Y-72250D03*
G54D10*
G36*
X75571Y-48614D02*
X75216Y-48000D01*
X75830Y-47645D01*
X76184Y-48259D01*
X75571Y-48614D01*
X75571Y-48614D01*
G37*
G54D11*
X76566Y-47630D03*
X77433Y-47130D03*
X78299Y-46630D03*
G54D10*
G36*
X71259Y-54283D02*
X70645Y-53928D01*
X71000Y-53315D01*
X71614Y-53669D01*
X71259Y-54283D01*
X71259Y-54283D01*
G37*
G54D11*
X71630Y-52933D03*
X72130Y-52066D03*
X72630Y-51200D03*
G54D12*
X70000Y-61000D03*
G54D11*
X70000Y-60000D03*
X70000Y-59000D03*
X70000Y-58000D03*
G54D10*
G36*
X73114Y-67928D02*
X72500Y-68283D01*
X72145Y-67669D01*
X72759Y-67315D01*
X73114Y-67928D01*
X73114Y-67928D01*
G37*
G54D11*
X72130Y-66933D03*
X71630Y-66066D03*
X71130Y-65200D03*
G54D10*
G36*
X78783Y-72240D02*
X78428Y-72854D01*
X77815Y-72499D01*
X78169Y-71885D01*
X78783Y-72240D01*
X78783Y-72240D01*
G37*
G54D11*
X77433Y-71870D03*
X76566Y-71370D03*
X75700Y-70870D03*
G54D12*
X85500Y-73500D03*
G54D11*
X84500Y-73500D03*
X83500Y-73500D03*
X82500Y-73500D03*
G54D10*
G36*
X96740Y-64716D02*
X97354Y-65071D01*
X96999Y-65684D01*
X96385Y-65330D01*
X96740Y-64716D01*
X96740Y-64716D01*
G37*
G54D11*
X96370Y-66066D03*
X95870Y-66933D03*
X95370Y-67799D03*
G54D12*
X98000Y-58000D03*
G54D11*
X98000Y-59000D03*
X98000Y-60000D03*
X98000Y-61000D03*
G54D10*
G36*
X94885Y-51071D02*
X95499Y-50716D01*
X95854Y-51330D01*
X95240Y-51684D01*
X94885Y-51071D01*
X94885Y-51071D01*
G37*
G54D11*
X95870Y-52066D03*
X96370Y-52933D03*
X96870Y-53799D03*
G54D10*
G36*
X89216Y-46759D02*
X89571Y-46145D01*
X90184Y-46500D01*
X89830Y-47114D01*
X89216Y-46759D01*
X89216Y-46759D01*
G37*
G54D11*
X90566Y-47130D03*
X91433Y-47630D03*
X92299Y-48130D03*
G54D12*
X82500Y-45500D03*
G54D11*
X83500Y-45500D03*
X84500Y-45500D03*
X85500Y-45500D03*
G54D13*
X86181Y-68000D03*
X83818Y-68000D03*
X85000Y-69850D03*
G54D14*
X75400Y-52300D03*
G54D15*
X75400Y-51300D03*
X76400Y-52300D03*
X76400Y-51300D03*
X77400Y-52300D03*
X77400Y-51300D03*
G54D11*
X86920Y-51485D03*
X89479Y-51485D03*
X86920Y-49714D03*
X89479Y-49714D03*
X86920Y-54485D03*
X89479Y-54485D03*
X86920Y-52714D03*
X89479Y-52714D03*
G54D12*
X72700Y-61000D03*
G54D11*
X72700Y-60000D03*
X72700Y-59000D03*
X72700Y-58000D03*
G54D16*
X93620Y-54310D03*
X92720Y-53440D03*
X85600Y-48500D03*
X83010Y-47480D03*
X82685Y-57810D03*
X74990Y-56810D03*
X78200Y-57470D03*
X83165Y-48105D03*
X84600Y-59680D03*
X86080Y-59960D03*
X76460Y-50220D03*
X82780Y-47090D03*
X86035Y-48695D03*
X83740Y-51275D03*
X82250Y-55030D03*
X81800Y-57170D03*
X82755Y-47925D03*
X86840Y-72340D03*
X76700Y-61805D03*
X76790Y-67620D03*
X93850Y-69350D03*
X74880Y-49850D03*
X94060Y-60600D03*
X95340Y-56170D03*
X70890Y-56070D03*
X87130Y-46900D03*
X92860Y-50430D03*
X86620Y-57470D03*
X85440Y-57250D03*
X79910Y-62090D03*
X81760Y-57580D03*
X83480Y-57460D03*
X76670Y-54740D03*
X77730Y-53530D03*
X79165Y-50235D03*
X77320Y-62750D03*
X76675Y-62745D03*
X77310Y-63540D03*
X76660Y-63555D03*
X85440Y-52290D03*
X76640Y-60210D03*
X77340Y-59480D03*
X76640Y-59480D03*
X77200Y-58970D03*
X76660Y-58720D03*
X77200Y-54750D03*
X77380Y-56720D03*
X76650Y-56730D03*
X79680Y-56050D03*
X74050Y-55290D03*
X73600Y-55370D03*
X78880Y-56720D03*
X74670Y-64390D03*
X77760Y-57370D03*
X74990Y-64110D03*
X74680Y-62550D03*
X91780Y-53470D03*
X79680Y-54850D03*
X80360Y-62920D03*
X74310Y-63980D03*
X80510Y-62510D03*
X73990Y-63670D03*
X75240Y-61995D03*
X93100Y-68570D03*
X74890Y-62200D03*
X93850Y-68220D03*
X80950Y-62430D03*
X73990Y-63260D03*
X73170Y-55430D03*
X80420Y-68650D03*
X80160Y-69050D03*
X79950Y-69450D03*
X91900Y-53890D03*
X80020Y-55250D03*
X82900Y-72190D03*
X83560Y-72530D03*
X92220Y-53500D03*
X80310Y-55580D03*
X81790Y-58495D03*
X81870Y-58910D03*
X92290Y-57030D03*
X84975Y-60680D03*
X90845Y-54340D03*
X79470Y-55690D03*
X79220Y-56050D03*
X74340Y-56580D03*
X91980Y-56720D03*
X82135Y-60555D03*
X73220Y-66910D03*
X74580Y-59450D03*
X79160Y-58950D03*
X83230Y-54730D03*
X72720Y-55450D03*
X82735Y-54545D03*
X79730Y-59030D03*
X80230Y-59020D03*
X82510Y-54180D03*
X79450Y-59960D03*
X79750Y-60270D03*
X78140Y-60770D03*
X73570Y-58370D03*
X74290Y-60260D03*
X74290Y-59780D03*
X72890Y-66640D03*
X74480Y-55260D03*
X83680Y-58870D03*
X83390Y-61120D03*
X81140Y-61490D03*
X81480Y-60380D03*
G54D17*
X92720Y-53440D02*
X90300Y-51020D01*
X90300Y-51020D02*
X90300Y-49435D01*
X90300Y-49435D02*
X89200Y-48335D01*
X89200Y-48335D02*
X85765Y-48335D01*
X85765Y-48335D02*
X85600Y-48500D01*
X83090Y-57810D02*
X83810Y-57810D01*
X85020Y-56600D02*
X86110Y-56600D01*
X83810Y-57810D02*
X85020Y-56600D01*
X82685Y-57810D02*
X83090Y-57810D01*
X82620Y-59130D02*
X82620Y-59560D01*
X81800Y-63330D02*
X82684Y-64214D01*
X81800Y-60380D02*
X81800Y-63330D01*
X82620Y-59560D02*
X81800Y-60380D01*
X83010Y-47480D02*
X82620Y-47480D01*
X86110Y-56600D02*
X91065Y-56600D01*
X91065Y-56600D02*
X93355Y-54310D01*
X93355Y-54310D02*
X93620Y-54310D01*
X82620Y-47480D02*
X77800Y-52300D01*
X77800Y-52300D02*
X77400Y-52300D01*
X88220Y-64214D02*
X82684Y-64214D01*
X82620Y-57875D02*
X82685Y-57810D01*
X82620Y-59130D02*
X82620Y-57875D01*
X78200Y-57470D02*
X78200Y-57520D01*
X75930Y-57700D02*
X75810Y-57580D01*
X78020Y-57700D02*
X75930Y-57700D01*
X78200Y-57520D02*
X78020Y-57700D01*
X75810Y-57580D02*
X75040Y-56810D01*
X75040Y-56810D02*
X74990Y-56810D01*
X85800Y-59680D02*
X84600Y-59680D01*
X86080Y-59960D02*
X85800Y-59680D01*
X75400Y-52300D02*
X75400Y-52305D01*
X82965Y-48305D02*
X83165Y-48105D01*
X82385Y-48305D02*
X82965Y-48305D01*
X78318Y-52371D02*
X82385Y-48305D01*
X78318Y-52596D02*
X78318Y-52371D01*
X77745Y-53170D02*
X78318Y-52596D01*
X76265Y-53170D02*
X77745Y-53170D01*
X75400Y-52305D02*
X76265Y-53170D01*
X78600Y-49900D02*
X76780Y-49900D01*
X76780Y-49900D02*
X76460Y-50220D01*
X79855Y-49900D02*
X78600Y-49900D01*
X82505Y-47250D02*
X79855Y-49900D01*
X82620Y-47250D02*
X82505Y-47250D01*
X82780Y-47090D02*
X82620Y-47250D01*
X85860Y-48870D02*
X86035Y-48695D01*
X84980Y-48870D02*
X85860Y-48870D01*
X83495Y-50355D02*
X84980Y-48870D01*
X83495Y-51030D02*
X83495Y-50355D01*
X83740Y-51275D02*
X83495Y-51030D01*
X82090Y-55030D02*
X82250Y-55030D01*
X81940Y-55180D02*
X82090Y-55030D01*
X81940Y-57030D02*
X81940Y-55180D01*
X81800Y-57170D02*
X81940Y-57030D01*
X76400Y-52300D02*
X76400Y-52370D01*
X82475Y-47925D02*
X82755Y-47925D01*
X78105Y-52295D02*
X82475Y-47925D01*
X78105Y-52485D02*
X78105Y-52295D01*
X77640Y-52950D02*
X78105Y-52485D01*
X76980Y-52950D02*
X77640Y-52950D01*
X76400Y-52370D02*
X76980Y-52950D01*
G54D18*
X86840Y-72340D02*
X87990Y-72340D01*
X80470Y-67620D02*
X81410Y-68560D01*
X81410Y-68560D02*
X81410Y-69810D01*
X81410Y-69810D02*
X82820Y-71220D01*
X82820Y-71220D02*
X83220Y-71220D01*
X83220Y-71220D02*
X83740Y-71740D01*
X83740Y-71740D02*
X86240Y-71740D01*
X86240Y-71740D02*
X86840Y-72340D01*
X76700Y-61805D02*
X76065Y-61805D01*
X75320Y-67620D02*
X76790Y-67620D01*
X72430Y-64730D02*
X75320Y-67620D01*
X72430Y-63180D02*
X72430Y-64730D01*
X74060Y-61550D02*
X72430Y-63180D01*
X75810Y-61550D02*
X74060Y-61550D01*
X76065Y-61805D02*
X75810Y-61550D01*
X76790Y-67620D02*
X80470Y-67620D01*
X93570Y-69630D02*
X93850Y-69350D01*
X90700Y-69630D02*
X93570Y-69630D01*
X87990Y-72340D02*
X90700Y-69630D01*
X82030Y-57580D02*
X81760Y-57580D01*
X82210Y-57400D02*
X82030Y-57580D01*
X83420Y-57400D02*
X82210Y-57400D01*
X83480Y-57460D02*
X83420Y-57400D01*
X74510Y-50580D02*
X74510Y-50220D01*
X74510Y-50220D02*
X74880Y-49850D01*
X94060Y-60600D02*
X94060Y-57450D01*
X93500Y-61160D02*
X94060Y-60600D01*
X92670Y-61160D02*
X93500Y-61160D01*
X94060Y-57450D02*
X95340Y-56170D01*
X77730Y-53530D02*
X75100Y-53530D01*
X77400Y-50850D02*
X77400Y-51300D01*
X77130Y-50580D02*
X77400Y-50850D01*
X74510Y-50580D02*
X77130Y-50580D01*
X74360Y-50730D02*
X74510Y-50580D01*
X74360Y-52790D02*
X74360Y-50730D01*
X75100Y-53530D02*
X74360Y-52790D01*
X86620Y-57470D02*
X90260Y-57470D01*
X92670Y-64095D02*
X90779Y-65985D01*
X92670Y-56720D02*
X92670Y-61160D01*
X92670Y-61160D02*
X92670Y-64095D01*
X92200Y-56250D02*
X92670Y-56720D01*
X91890Y-56250D02*
X92200Y-56250D01*
X91220Y-56920D02*
X91890Y-56250D01*
X90810Y-56920D02*
X91220Y-56920D01*
X90260Y-57470D02*
X90810Y-56920D01*
X85660Y-57470D02*
X86620Y-57470D01*
X85440Y-57250D02*
X85660Y-57470D01*
X83818Y-68000D02*
X83540Y-68000D01*
X80040Y-61960D02*
X79910Y-62090D01*
X81190Y-61960D02*
X80040Y-61960D01*
X81430Y-62200D02*
X81190Y-61960D01*
X81430Y-65890D02*
X81430Y-62200D01*
X83540Y-68000D02*
X81430Y-65890D01*
X76670Y-54590D02*
X76670Y-54740D01*
X77730Y-53530D02*
X76670Y-54590D01*
X79165Y-50235D02*
X78100Y-51300D01*
X78100Y-51300D02*
X77400Y-51300D01*
X85864Y-52714D02*
X86920Y-52714D01*
X85440Y-52290D02*
X85864Y-52714D01*
X89479Y-52714D02*
X89184Y-52714D01*
X88120Y-51073D02*
X89479Y-49714D01*
X88120Y-51650D02*
X88120Y-51073D01*
X89184Y-52714D02*
X88120Y-51650D01*
G54D17*
X80310Y-55930D02*
X80480Y-55930D01*
X86430Y-55930D02*
X86630Y-55930D01*
X83320Y-52820D02*
X86430Y-55930D01*
X82090Y-52820D02*
X83320Y-52820D01*
X80640Y-54270D02*
X82090Y-52820D01*
X80640Y-55770D02*
X80640Y-54270D01*
X80480Y-55930D02*
X80640Y-55770D01*
X95870Y-52066D02*
X94613Y-52066D01*
X90750Y-55930D02*
X86630Y-55930D01*
X94613Y-52066D02*
X90750Y-55930D01*
X79800Y-55930D02*
X79680Y-56050D01*
X80310Y-55930D02*
X79800Y-55930D01*
X77210Y-55480D02*
X77650Y-55480D01*
X77760Y-54500D02*
X77770Y-54490D01*
X77760Y-55370D02*
X77760Y-54500D01*
X77650Y-55480D02*
X77760Y-55370D01*
X76480Y-55480D02*
X77210Y-55480D01*
X74050Y-55290D02*
X74340Y-55580D01*
X74340Y-55580D02*
X74680Y-55580D01*
X74680Y-55580D02*
X74780Y-55480D01*
X74780Y-55480D02*
X76480Y-55480D01*
X77770Y-54490D02*
X84500Y-47760D01*
X84500Y-47760D02*
X84500Y-45500D01*
X84730Y-47890D02*
X84730Y-46430D01*
X85500Y-45660D02*
X85500Y-45500D01*
X84730Y-46430D02*
X85500Y-45660D01*
X77970Y-54650D02*
X77970Y-55639D01*
X84730Y-47890D02*
X77970Y-54650D01*
X77150Y-55690D02*
X77919Y-55690D01*
X77919Y-55690D02*
X77970Y-55639D01*
X76580Y-55690D02*
X77150Y-55690D01*
X74030Y-55800D02*
X73600Y-55370D01*
X74780Y-55800D02*
X74030Y-55800D01*
X74890Y-55690D02*
X74780Y-55800D01*
X76580Y-55690D02*
X74890Y-55690D01*
X79450Y-61315D02*
X80085Y-61315D01*
X82090Y-59490D02*
X82385Y-59195D01*
X81910Y-59490D02*
X82090Y-59490D01*
X80085Y-61315D02*
X81910Y-59490D01*
X78180Y-62690D02*
X78180Y-62420D01*
X78180Y-62420D02*
X79285Y-61315D01*
X82385Y-58335D02*
X82385Y-59195D01*
X79300Y-59370D02*
X80440Y-59370D01*
X81950Y-57900D02*
X82385Y-58335D01*
X81320Y-57900D02*
X81950Y-57900D01*
X80875Y-58345D02*
X81320Y-57900D01*
X80875Y-58935D02*
X80875Y-58345D01*
X80440Y-59370D02*
X80875Y-58935D01*
X79300Y-59370D02*
X78760Y-59370D01*
X78760Y-59370D02*
X78560Y-59169D01*
X78560Y-59169D02*
X78560Y-58580D01*
X78560Y-58580D02*
X78740Y-58400D01*
X78740Y-58400D02*
X78740Y-56860D01*
X78740Y-56860D02*
X78880Y-56720D01*
X79450Y-61315D02*
X79285Y-61315D01*
X74710Y-64430D02*
X74670Y-64390D01*
X78180Y-63730D02*
X78180Y-62690D01*
X77780Y-64130D02*
X78180Y-63730D01*
X75420Y-64130D02*
X77780Y-64130D01*
X75120Y-64430D02*
X75420Y-64130D01*
X74820Y-64430D02*
X75120Y-64430D01*
X74820Y-64430D02*
X74710Y-64430D01*
X82175Y-58830D02*
X82175Y-59045D01*
X80010Y-61090D02*
X79780Y-61090D01*
X81850Y-59250D02*
X80010Y-61090D01*
X81970Y-59250D02*
X81850Y-59250D01*
X82175Y-59045D02*
X81970Y-59250D01*
X77970Y-62715D02*
X77970Y-62290D01*
X77970Y-62290D02*
X79170Y-61090D01*
X82175Y-58780D02*
X82175Y-58830D01*
X80545Y-59590D02*
X81160Y-58975D01*
X81160Y-58975D02*
X81160Y-58380D01*
X81160Y-58380D02*
X81385Y-58155D01*
X81385Y-58155D02*
X81900Y-58155D01*
X81900Y-58155D02*
X82175Y-58430D01*
X82175Y-58430D02*
X82175Y-58780D01*
X79130Y-59590D02*
X80545Y-59590D01*
X79780Y-61090D02*
X79170Y-61090D01*
X77760Y-57370D02*
X77810Y-57370D01*
X78670Y-59590D02*
X79130Y-59590D01*
X78330Y-59250D02*
X78670Y-59590D01*
X78330Y-58490D02*
X78330Y-59250D01*
X78520Y-58300D02*
X78330Y-58490D01*
X78520Y-57310D02*
X78520Y-58300D01*
X78360Y-57150D02*
X78520Y-57310D01*
X78030Y-57150D02*
X78360Y-57150D01*
X77810Y-57370D02*
X78030Y-57150D01*
X75190Y-63910D02*
X74990Y-64110D01*
X77690Y-63910D02*
X75190Y-63910D01*
X77970Y-63630D02*
X77690Y-63910D01*
X77970Y-62715D02*
X77970Y-63630D01*
X82690Y-69100D02*
X82690Y-69300D01*
X91180Y-67799D02*
X91940Y-67799D01*
X88290Y-70690D02*
X91180Y-67799D01*
X84080Y-70690D02*
X88290Y-70690D01*
X82690Y-69300D02*
X84080Y-70690D01*
X91940Y-67799D02*
X95370Y-67799D01*
X82690Y-68170D02*
X82690Y-69100D01*
X79990Y-65470D02*
X82690Y-68170D01*
X74300Y-65470D02*
X79990Y-65470D01*
X73430Y-64600D02*
X74300Y-65470D01*
X73430Y-63330D02*
X73430Y-64600D01*
X73840Y-62920D02*
X73430Y-63330D01*
X74310Y-62920D02*
X73840Y-62920D01*
X74680Y-62550D02*
X74310Y-62920D01*
X86980Y-55280D02*
X86730Y-55280D01*
X79680Y-54270D02*
X79680Y-54850D01*
X81810Y-52140D02*
X79680Y-54270D01*
X83590Y-52140D02*
X81810Y-52140D01*
X86730Y-55280D02*
X83590Y-52140D01*
X91580Y-53670D02*
X91780Y-53470D01*
X91580Y-54180D02*
X91580Y-53670D01*
X90480Y-55280D02*
X91580Y-54180D01*
X86980Y-55280D02*
X90480Y-55280D01*
X75210Y-64670D02*
X75520Y-64360D01*
X75520Y-64360D02*
X78920Y-64360D01*
X78920Y-64360D02*
X80360Y-62920D01*
X75140Y-64740D02*
X75210Y-64670D01*
X74570Y-64740D02*
X75140Y-64740D01*
X74320Y-64490D02*
X74570Y-64740D01*
X74320Y-63990D02*
X74320Y-64490D01*
X74310Y-63980D02*
X74320Y-63990D01*
X80690Y-62690D02*
X80690Y-62850D01*
X80510Y-62510D02*
X80690Y-62690D01*
X75200Y-64950D02*
X75280Y-64950D01*
X80690Y-62850D02*
X80690Y-63050D01*
X80690Y-63050D02*
X79160Y-64580D01*
X79160Y-64580D02*
X75650Y-64580D01*
X75280Y-64950D02*
X75650Y-64580D01*
X73990Y-63670D02*
X73950Y-63710D01*
X73950Y-63710D02*
X73950Y-64420D01*
X73950Y-64420D02*
X74480Y-64950D01*
X74480Y-64950D02*
X75200Y-64950D01*
X82270Y-69040D02*
X82270Y-69520D01*
X91060Y-68570D02*
X93100Y-68570D01*
X88510Y-71120D02*
X91060Y-68570D01*
X83870Y-71120D02*
X88510Y-71120D01*
X82270Y-69520D02*
X83870Y-71120D01*
X75055Y-61810D02*
X75240Y-61995D01*
X74330Y-61810D02*
X75055Y-61810D01*
X72990Y-63150D02*
X74330Y-61810D01*
X72990Y-64790D02*
X72990Y-63150D01*
X74090Y-65890D02*
X72990Y-64790D01*
X79790Y-65890D02*
X74090Y-65890D01*
X82270Y-68370D02*
X79790Y-65890D01*
X82270Y-69040D02*
X82270Y-68370D01*
X93850Y-68220D02*
X91110Y-68220D01*
X83960Y-70900D02*
X82480Y-69419D01*
X88430Y-70900D02*
X83960Y-70900D01*
X91110Y-68220D02*
X88430Y-70900D01*
X82480Y-68260D02*
X82480Y-69419D01*
X79900Y-65680D02*
X82480Y-68260D01*
X74180Y-65680D02*
X79900Y-65680D01*
X73220Y-64720D02*
X74180Y-65680D01*
X73220Y-63230D02*
X73220Y-64720D01*
X73780Y-62670D02*
X73220Y-63230D01*
X73900Y-62670D02*
X73780Y-62670D01*
X74370Y-62200D02*
X73900Y-62670D01*
X74890Y-62200D02*
X74370Y-62200D01*
X75430Y-65100D02*
X75730Y-64800D01*
X75730Y-64800D02*
X79250Y-64800D01*
X79250Y-64800D02*
X80950Y-63100D01*
X80950Y-63100D02*
X80950Y-62430D01*
X75360Y-65170D02*
X75430Y-65100D01*
X74390Y-65170D02*
X75360Y-65170D01*
X73660Y-64440D02*
X74390Y-65170D01*
X73660Y-63520D02*
X73660Y-64440D01*
X73870Y-63310D02*
X73660Y-63520D01*
X73940Y-63310D02*
X73870Y-63310D01*
X73990Y-63260D02*
X73940Y-63310D01*
X77420Y-55910D02*
X78020Y-55910D01*
X78180Y-55750D02*
X78180Y-54760D01*
X78020Y-55910D02*
X78180Y-55750D01*
X76770Y-55910D02*
X77420Y-55910D01*
X90566Y-47130D02*
X90566Y-47183D01*
X90566Y-47183D02*
X90160Y-47590D01*
X90160Y-47590D02*
X85350Y-47590D01*
X85350Y-47590D02*
X78180Y-54760D01*
X73440Y-55700D02*
X73170Y-55430D01*
X73630Y-55700D02*
X73440Y-55700D01*
X73940Y-56010D02*
X73630Y-55700D01*
X74870Y-56010D02*
X73940Y-56010D01*
X74970Y-55910D02*
X74870Y-56010D01*
X76770Y-55910D02*
X74970Y-55910D01*
X79300Y-69120D02*
X78480Y-69120D01*
X79740Y-68680D02*
X79300Y-69120D01*
X80390Y-68680D02*
X79740Y-68680D01*
X80420Y-68650D02*
X80390Y-68680D01*
X75700Y-70870D02*
X75820Y-70870D01*
X75820Y-70870D02*
X76030Y-70660D01*
X76030Y-70660D02*
X76940Y-70660D01*
X76940Y-70660D02*
X78480Y-69120D01*
X78530Y-69420D02*
X79340Y-69420D01*
X79710Y-69050D02*
X80160Y-69050D01*
X79340Y-69420D02*
X79710Y-69050D01*
X76580Y-71370D02*
X76566Y-71370D01*
X78530Y-69420D02*
X76580Y-71370D01*
X79650Y-69750D02*
X78680Y-69750D01*
X79950Y-69450D02*
X79650Y-69750D01*
X77433Y-70996D02*
X77433Y-71870D01*
X78680Y-69750D02*
X77433Y-70996D01*
X80020Y-55250D02*
X80020Y-54270D01*
X86620Y-55490D02*
X86810Y-55490D01*
X83510Y-52380D02*
X86620Y-55490D01*
X81910Y-52380D02*
X83510Y-52380D01*
X80020Y-54270D02*
X81910Y-52380D01*
X90580Y-55490D02*
X86810Y-55490D01*
X91840Y-54230D02*
X90580Y-55490D01*
X91840Y-53950D02*
X91840Y-54230D01*
X91900Y-53890D02*
X91840Y-53950D01*
X82500Y-73500D02*
X82500Y-72590D01*
X82500Y-72590D02*
X82900Y-72190D01*
X83500Y-72590D02*
X83500Y-73500D01*
X83560Y-72530D02*
X83500Y-72590D01*
X87050Y-55710D02*
X86520Y-55710D01*
X80330Y-55560D02*
X80310Y-55580D01*
X80330Y-54260D02*
X80330Y-55560D01*
X81990Y-52600D02*
X80330Y-54260D01*
X83410Y-52600D02*
X81990Y-52600D01*
X86520Y-55710D02*
X83410Y-52600D01*
X92220Y-54150D02*
X92220Y-53500D01*
X90660Y-55710D02*
X92220Y-54150D01*
X87050Y-55710D02*
X90660Y-55710D01*
X81790Y-58495D02*
X81625Y-58495D01*
X72785Y-61085D02*
X72700Y-61000D01*
X78290Y-61085D02*
X72785Y-61085D01*
X78780Y-60595D02*
X78290Y-61085D01*
X79865Y-60595D02*
X78780Y-60595D01*
X81400Y-59060D02*
X79865Y-60595D01*
X81400Y-58720D02*
X81400Y-59060D01*
X81625Y-58495D02*
X81400Y-58720D01*
X72700Y-60000D02*
X72250Y-60000D01*
X81865Y-58910D02*
X81870Y-58910D01*
X79965Y-60810D02*
X81865Y-58910D01*
X78875Y-60810D02*
X79965Y-60810D01*
X78375Y-61310D02*
X78875Y-60810D01*
X73530Y-61310D02*
X78375Y-61310D01*
X73160Y-61680D02*
X73530Y-61310D01*
X72080Y-61680D02*
X73160Y-61680D01*
X71950Y-61550D02*
X72080Y-61680D01*
X71950Y-60300D02*
X71950Y-61550D01*
X72250Y-60000D02*
X71950Y-60300D01*
X91005Y-57395D02*
X91925Y-57395D01*
X91925Y-57395D02*
X92290Y-57030D01*
X91005Y-57395D02*
X87895Y-60505D01*
X85150Y-60505D02*
X84975Y-60680D01*
X87895Y-60505D02*
X85150Y-60505D01*
X86920Y-51485D02*
X87165Y-51485D01*
X90215Y-53710D02*
X90845Y-54340D01*
X89390Y-53710D02*
X90215Y-53710D01*
X87165Y-51485D02*
X89390Y-53710D01*
X86650Y-56360D02*
X86250Y-56360D01*
X81080Y-56010D02*
X80729Y-56360D01*
X81080Y-54440D02*
X81080Y-56010D01*
X82270Y-53250D02*
X81080Y-54440D01*
X83140Y-53250D02*
X82270Y-53250D01*
X86250Y-56360D02*
X83140Y-53250D01*
X96870Y-53799D02*
X93550Y-53799D01*
X79060Y-55690D02*
X79470Y-55690D01*
X78890Y-55860D02*
X79060Y-55690D01*
X78890Y-56220D02*
X78890Y-55860D01*
X79300Y-56630D02*
X78890Y-56220D01*
X79930Y-56630D02*
X79300Y-56630D01*
X80199Y-56360D02*
X79930Y-56630D01*
X90989Y-56360D02*
X86650Y-56360D01*
X80729Y-56360D02*
X80199Y-56360D01*
X93550Y-53799D02*
X90989Y-56360D01*
X80280Y-56160D02*
X80560Y-56160D01*
X86350Y-56160D02*
X86620Y-56160D01*
X83230Y-53040D02*
X86350Y-56160D01*
X82180Y-53040D02*
X83230Y-53040D01*
X80860Y-54360D02*
X82180Y-53040D01*
X80860Y-55860D02*
X80860Y-54360D01*
X80560Y-56160D02*
X80860Y-55860D01*
X96370Y-52933D02*
X94106Y-52933D01*
X90880Y-56160D02*
X86620Y-56160D01*
X94106Y-52933D02*
X90880Y-56160D01*
X79570Y-56400D02*
X79220Y-56050D01*
X79840Y-56400D02*
X79570Y-56400D01*
X80080Y-56160D02*
X79840Y-56400D01*
X80280Y-56160D02*
X80080Y-56160D01*
X85520Y-48040D02*
X85502Y-48040D01*
X77120Y-56330D02*
X75210Y-56330D01*
X75210Y-56330D02*
X75110Y-56430D01*
X75110Y-56430D02*
X74490Y-56430D01*
X74490Y-56430D02*
X74340Y-56580D01*
X90830Y-48040D02*
X85520Y-48040D01*
X91060Y-48270D02*
X90830Y-48040D01*
X91690Y-48270D02*
X91060Y-48270D01*
X91830Y-48130D02*
X91690Y-48270D01*
X91830Y-48130D02*
X92299Y-48130D01*
X78190Y-56330D02*
X78601Y-55918D01*
X78601Y-55918D02*
X78601Y-54958D01*
X77120Y-56330D02*
X78190Y-56330D01*
X78601Y-54941D02*
X78601Y-54958D01*
X85502Y-48040D02*
X78601Y-54941D01*
X90912Y-57182D02*
X91517Y-57182D01*
X91517Y-57182D02*
X91980Y-56720D01*
X82135Y-60555D02*
X82135Y-61225D01*
X83300Y-61750D02*
X84765Y-60285D01*
X82660Y-61750D02*
X83300Y-61750D01*
X82135Y-61225D02*
X82660Y-61750D01*
X87810Y-60285D02*
X90912Y-57182D01*
X84765Y-60285D02*
X87810Y-60285D01*
X71130Y-65200D02*
X72040Y-65200D01*
X73220Y-66380D02*
X73220Y-66910D01*
X72040Y-65200D02*
X73220Y-66380D01*
X70000Y-59880D02*
X70000Y-60000D01*
X72480Y-57400D02*
X70000Y-59880D01*
X73080Y-57400D02*
X72480Y-57400D01*
X74690Y-59010D02*
X73080Y-57400D01*
X74690Y-59340D02*
X74690Y-59010D01*
X74580Y-59450D02*
X74690Y-59340D01*
X79330Y-58950D02*
X79160Y-58950D01*
X79720Y-58560D02*
X79330Y-58950D01*
X79720Y-57180D02*
X79720Y-58560D01*
X80320Y-56580D02*
X79720Y-57180D01*
X80810Y-56580D02*
X80320Y-56580D01*
X81290Y-56100D02*
X80810Y-56580D01*
X81290Y-54540D02*
X81290Y-56100D01*
X82370Y-53460D02*
X81290Y-54540D01*
X83050Y-53460D02*
X82370Y-53460D01*
X83590Y-54000D02*
X83050Y-53460D01*
X83590Y-54370D02*
X83590Y-54000D01*
X83230Y-54730D02*
X83590Y-54370D01*
X77630Y-56120D02*
X78100Y-56120D01*
X78390Y-55830D02*
X78390Y-54870D01*
X78100Y-56120D02*
X78390Y-55830D01*
X76860Y-56120D02*
X77630Y-56120D01*
X91243Y-47820D02*
X91433Y-47630D01*
X85440Y-47820D02*
X91243Y-47820D01*
X78390Y-54870D02*
X85440Y-47820D01*
X75060Y-56120D02*
X76860Y-56120D01*
X74960Y-56220D02*
X75060Y-56120D01*
X73490Y-56220D02*
X74960Y-56220D01*
X72720Y-55450D02*
X73490Y-56220D01*
X82870Y-54410D02*
X83010Y-54410D01*
X82735Y-54545D02*
X82870Y-54410D01*
X83240Y-54410D02*
X83010Y-54410D01*
X83360Y-54290D02*
X83240Y-54410D01*
X83360Y-54090D02*
X83360Y-54290D01*
X82940Y-53670D02*
X83360Y-54090D01*
X82490Y-53670D02*
X82940Y-53670D01*
X81510Y-54650D02*
X82490Y-53670D01*
X81510Y-56200D02*
X81510Y-54650D01*
X80910Y-56800D02*
X81510Y-56200D01*
X80410Y-56800D02*
X80910Y-56800D01*
X79930Y-57280D02*
X80410Y-56800D01*
X79930Y-58830D02*
X79930Y-57280D01*
X79730Y-59030D02*
X79930Y-58830D01*
X80160Y-58950D02*
X80230Y-59020D01*
X80160Y-57340D02*
X80160Y-58950D01*
X80490Y-57010D02*
X80160Y-57340D01*
X81010Y-57010D02*
X80490Y-57010D01*
X81730Y-56290D02*
X81010Y-57010D01*
X81730Y-54960D02*
X81730Y-56290D01*
X82510Y-54180D02*
X81730Y-54960D01*
X72630Y-51200D02*
X72630Y-51240D01*
X79290Y-59800D02*
X79450Y-59960D01*
X78590Y-59800D02*
X79290Y-59800D01*
X78120Y-59330D02*
X78590Y-59800D01*
X78120Y-58760D02*
X78120Y-59330D01*
X77290Y-57930D02*
X78120Y-58760D01*
X75830Y-57930D02*
X77290Y-57930D01*
X75036Y-57136D02*
X75830Y-57930D01*
X74376Y-57136D02*
X75036Y-57136D01*
X73700Y-56460D02*
X74376Y-57136D01*
X73220Y-56460D02*
X73700Y-56460D01*
X72390Y-55630D02*
X73220Y-56460D01*
X72390Y-55260D02*
X72390Y-55630D01*
X73380Y-54270D02*
X72390Y-55260D01*
X73380Y-51990D02*
X73380Y-54270D01*
X72630Y-51240D02*
X73380Y-51990D01*
X73140Y-53076D02*
X72130Y-52066D01*
X73140Y-54200D02*
X73140Y-53076D01*
X72180Y-55160D02*
X73140Y-54200D01*
X72180Y-55790D02*
X72180Y-55160D01*
X73070Y-56680D02*
X72180Y-55790D01*
X73590Y-56680D02*
X73070Y-56680D01*
X74270Y-57360D02*
X73590Y-56680D01*
X74950Y-57360D02*
X74270Y-57360D01*
X75730Y-58140D02*
X74950Y-57360D01*
X77180Y-58140D02*
X75730Y-58140D01*
X77900Y-58860D02*
X77180Y-58140D01*
X77900Y-59430D02*
X77900Y-58860D01*
X78770Y-60300D02*
X77900Y-59430D01*
X79720Y-60300D02*
X78770Y-60300D01*
X79750Y-60270D02*
X79720Y-60300D01*
X72930Y-54110D02*
X72930Y-53430D01*
X78140Y-60770D02*
X78170Y-60740D01*
X78170Y-60740D02*
X78170Y-60010D01*
X78170Y-60010D02*
X77670Y-59510D01*
X77670Y-59510D02*
X77670Y-58930D01*
X77670Y-58930D02*
X77090Y-58350D01*
X77090Y-58350D02*
X75630Y-58350D01*
X75630Y-58350D02*
X74850Y-57570D01*
X74850Y-57570D02*
X74180Y-57570D01*
X74180Y-57570D02*
X73500Y-56890D01*
X73500Y-56890D02*
X72980Y-56890D01*
X72980Y-56890D02*
X71970Y-55880D01*
X71970Y-55880D02*
X71970Y-55070D01*
X71970Y-55070D02*
X72930Y-54110D01*
X72433Y-52933D02*
X71630Y-52933D01*
X72930Y-53430D02*
X72433Y-52933D01*
X73910Y-58710D02*
X73910Y-58835D01*
X73570Y-58370D02*
X73910Y-58710D01*
X73910Y-59880D02*
X74290Y-60260D01*
X73910Y-58835D02*
X73910Y-59880D01*
X70000Y-59000D02*
X70550Y-59000D01*
X74720Y-59780D02*
X74290Y-59780D01*
X74940Y-59560D02*
X74720Y-59780D01*
X74940Y-58970D02*
X74940Y-59560D01*
X73150Y-57180D02*
X74940Y-58970D01*
X72370Y-57180D02*
X73150Y-57180D01*
X70550Y-59000D02*
X72370Y-57180D01*
X71630Y-66066D02*
X72316Y-66066D01*
X72316Y-66066D02*
X72890Y-66640D01*
X83500Y-45500D02*
X83500Y-45730D01*
X84230Y-47730D02*
X83500Y-48460D01*
X84230Y-46460D02*
X84230Y-47730D01*
X83500Y-45730D02*
X84230Y-46460D01*
X76800Y-55260D02*
X77460Y-55260D01*
X77550Y-55170D02*
X77550Y-54410D01*
X77460Y-55260D02*
X77550Y-55170D01*
X76480Y-55260D02*
X76800Y-55260D01*
X83500Y-48460D02*
X77550Y-54410D01*
X76480Y-55260D02*
X74480Y-55260D01*
G54D18*
X83680Y-60830D02*
X83680Y-58870D01*
X83390Y-61120D02*
X83680Y-60830D01*
X81140Y-60720D02*
X81140Y-61490D01*
X81480Y-60380D02*
X81140Y-60720D01*
X89080Y-71920D02*
X89090Y-71920D01*
X92109Y-70560D02*
X92299Y-70750D01*
X90570Y-70560D02*
X92109Y-70560D01*
X89850Y-71280D02*
X90570Y-70560D01*
X89730Y-71280D02*
X89850Y-71280D01*
X89090Y-71920D02*
X89730Y-71280D01*
X85500Y-73500D02*
X85500Y-73370D01*
X81270Y-73310D02*
X80790Y-73310D01*
X82790Y-71790D02*
X81270Y-73310D01*
X83000Y-71790D02*
X82790Y-71790D01*
X83350Y-72140D02*
X83000Y-71790D01*
X84270Y-72140D02*
X83350Y-72140D01*
X85500Y-73370D02*
X84270Y-72140D01*
X72630Y-67799D02*
X72940Y-67799D01*
X71350Y-64540D02*
X71050Y-64240D01*
X71740Y-64540D02*
X71350Y-64540D01*
X73560Y-66360D02*
X71740Y-64540D01*
X73560Y-67180D02*
X73560Y-66360D01*
X72940Y-67799D02*
X73560Y-67180D01*
X72700Y-59000D02*
X71310Y-59000D01*
X70805Y-60195D02*
X70000Y-61000D01*
X70805Y-59505D02*
X70805Y-60195D01*
X71310Y-59000D02*
X70805Y-59505D01*
X75700Y-48130D02*
X75940Y-48130D01*
X80640Y-45500D02*
X82500Y-45500D01*
X77720Y-48420D02*
X80640Y-45500D01*
X76230Y-48420D02*
X77720Y-48420D01*
X75940Y-48130D02*
X76230Y-48420D01*
X70000Y-61000D02*
X70000Y-63190D01*
X70000Y-63190D02*
X71050Y-64240D01*
X85500Y-73500D02*
X88080Y-73500D01*
X89080Y-72500D02*
X89080Y-71920D01*
X88080Y-73500D02*
X89080Y-72500D01*
X78299Y-72370D02*
X78560Y-72370D01*
X79500Y-73310D02*
X80790Y-73310D01*
X78560Y-72370D02*
X79500Y-73310D01*
X96870Y-65200D02*
X96870Y-58370D01*
X96870Y-58370D02*
X97240Y-58000D01*
X97240Y-58000D02*
X98000Y-58000D01*
G54D10*
G36*
X77910Y-60491D02*
X77862Y-60537D01*
X77823Y-60595D01*
X77795Y-60660D01*
X77780Y-60729D01*
X77779Y-60800D01*
X77784Y-60825D01*
X73264Y-60825D01*
X73264Y-60625D01*
X73256Y-60584D01*
X73240Y-60546D01*
X73217Y-60512D01*
X73188Y-60483D01*
X73154Y-60460D01*
X73116Y-60444D01*
X73076Y-60435D01*
X73060Y-60435D01*
X73129Y-60370D01*
X73193Y-60280D01*
X73238Y-60178D01*
X73262Y-60071D01*
X73264Y-59944D01*
X73242Y-59836D01*
X73200Y-59733D01*
X73139Y-59641D01*
X73061Y-59563D01*
X72969Y-59501D01*
X72965Y-59499D01*
X73049Y-59446D01*
X73129Y-59370D01*
X73193Y-59280D01*
X73238Y-59178D01*
X73262Y-59071D01*
X73264Y-58944D01*
X73242Y-58836D01*
X73200Y-58733D01*
X73139Y-58641D01*
X73061Y-58563D01*
X72969Y-58501D01*
X72964Y-58498D01*
X73006Y-58477D01*
X73021Y-58467D01*
X73053Y-58374D01*
X72700Y-58021D01*
X72346Y-58374D01*
X72378Y-58467D01*
X72435Y-58498D01*
X72344Y-58558D01*
X72265Y-58635D01*
X72203Y-58726D01*
X72201Y-58730D01*
X71517Y-58730D01*
X72143Y-58104D01*
X72172Y-58207D01*
X72222Y-58306D01*
X72232Y-58321D01*
X72325Y-58353D01*
X72678Y-58000D01*
X72673Y-57994D01*
X72694Y-57973D01*
X72700Y-57978D01*
X72705Y-57973D01*
X72726Y-57994D01*
X72721Y-58000D01*
X73074Y-58353D01*
X73167Y-58321D01*
X73220Y-58224D01*
X73254Y-58118D01*
X73266Y-58008D01*
X73262Y-57949D01*
X73377Y-58065D01*
X73343Y-58088D01*
X73292Y-58137D01*
X73253Y-58195D01*
X73225Y-58260D01*
X73210Y-58329D01*
X73209Y-58400D01*
X73222Y-58469D01*
X73248Y-58535D01*
X73286Y-58594D01*
X73335Y-58645D01*
X73393Y-58685D01*
X73458Y-58714D01*
X73527Y-58729D01*
X73562Y-58729D01*
X73650Y-58817D01*
X73650Y-58835D01*
X73650Y-59880D01*
X73652Y-59903D01*
X73654Y-59927D01*
X73654Y-59929D01*
X73654Y-59930D01*
X73661Y-59953D01*
X73668Y-59976D01*
X73669Y-59977D01*
X73669Y-59979D01*
X73680Y-60000D01*
X73691Y-60021D01*
X73692Y-60022D01*
X73693Y-60023D01*
X73708Y-60042D01*
X73723Y-60061D01*
X73725Y-60063D01*
X73725Y-60063D01*
X73725Y-60063D01*
X73726Y-60063D01*
X73929Y-60267D01*
X73929Y-60290D01*
X73942Y-60359D01*
X73968Y-60425D01*
X74006Y-60484D01*
X74055Y-60535D01*
X74113Y-60575D01*
X74178Y-60604D01*
X74247Y-60619D01*
X74317Y-60620D01*
X74387Y-60608D01*
X74453Y-60582D01*
X74512Y-60545D01*
X74563Y-60496D01*
X74604Y-60438D01*
X74633Y-60374D01*
X74648Y-60305D01*
X74650Y-60224D01*
X74636Y-60155D01*
X74609Y-60090D01*
X74576Y-60040D01*
X74720Y-60040D01*
X74743Y-60037D01*
X74767Y-60035D01*
X74769Y-60035D01*
X74770Y-60035D01*
X74793Y-60028D01*
X74816Y-60021D01*
X74817Y-60020D01*
X74819Y-60020D01*
X74840Y-60009D01*
X74861Y-59998D01*
X74862Y-59997D01*
X74863Y-59996D01*
X74882Y-59981D01*
X74901Y-59966D01*
X74903Y-59964D01*
X74903Y-59964D01*
X74903Y-59964D01*
X74903Y-59963D01*
X75123Y-59743D01*
X75139Y-59725D01*
X75154Y-59706D01*
X75155Y-59705D01*
X75156Y-59704D01*
X75167Y-59683D01*
X75178Y-59662D01*
X75179Y-59661D01*
X75180Y-59659D01*
X75187Y-59636D01*
X75194Y-59614D01*
X75194Y-59612D01*
X75194Y-59611D01*
X75197Y-59587D01*
X75199Y-59563D01*
X75199Y-59560D01*
X75199Y-59560D01*
X75199Y-59560D01*
X75200Y-59560D01*
X75200Y-58970D01*
X75197Y-58946D01*
X75195Y-58922D01*
X75195Y-58920D01*
X75195Y-58919D01*
X75188Y-58896D01*
X75181Y-58873D01*
X75180Y-58872D01*
X75180Y-58870D01*
X75169Y-58849D01*
X75158Y-58828D01*
X75157Y-58827D01*
X75156Y-58826D01*
X75141Y-58807D01*
X75126Y-58788D01*
X75124Y-58786D01*
X75124Y-58786D01*
X75124Y-58786D01*
X75123Y-58786D01*
X74166Y-57828D01*
X74176Y-57829D01*
X74179Y-57829D01*
X74179Y-57829D01*
X74179Y-57829D01*
X74180Y-57830D01*
X74742Y-57830D01*
X75446Y-58533D01*
X75464Y-58549D01*
X75483Y-58564D01*
X75484Y-58565D01*
X75485Y-58566D01*
X75506Y-58577D01*
X75527Y-58588D01*
X75528Y-58589D01*
X75530Y-58590D01*
X75553Y-58597D01*
X75575Y-58604D01*
X75577Y-58604D01*
X75578Y-58604D01*
X75602Y-58607D01*
X75626Y-58609D01*
X75629Y-58609D01*
X75629Y-58609D01*
X75629Y-58609D01*
X75630Y-58610D01*
X76982Y-58610D01*
X77410Y-59037D01*
X77410Y-59510D01*
X77412Y-59533D01*
X77414Y-59557D01*
X77414Y-59559D01*
X77414Y-59560D01*
X77421Y-59583D01*
X77428Y-59606D01*
X77429Y-59607D01*
X77429Y-59609D01*
X77440Y-59630D01*
X77451Y-59651D01*
X77452Y-59652D01*
X77453Y-59653D01*
X77468Y-59672D01*
X77483Y-59691D01*
X77485Y-59693D01*
X77485Y-59693D01*
X77485Y-59693D01*
X77486Y-59693D01*
X77910Y-60117D01*
X77910Y-60491D01*
X77910Y-60491D01*
G37*
G54D18*
X77910Y-60491D02*
X77862Y-60537D01*
X77823Y-60595D01*
X77795Y-60660D01*
X77780Y-60729D01*
X77779Y-60800D01*
X77784Y-60825D01*
X73264Y-60825D01*
X73264Y-60625D01*
X73256Y-60584D01*
X73240Y-60546D01*
X73217Y-60512D01*
X73188Y-60483D01*
X73154Y-60460D01*
X73116Y-60444D01*
X73076Y-60435D01*
X73060Y-60435D01*
X73129Y-60370D01*
X73193Y-60280D01*
X73238Y-60178D01*
X73262Y-60071D01*
X73264Y-59944D01*
X73242Y-59836D01*
X73200Y-59733D01*
X73139Y-59641D01*
X73061Y-59563D01*
X72969Y-59501D01*
X72965Y-59499D01*
X73049Y-59446D01*
X73129Y-59370D01*
X73193Y-59280D01*
X73238Y-59178D01*
X73262Y-59071D01*
X73264Y-58944D01*
X73242Y-58836D01*
X73200Y-58733D01*
X73139Y-58641D01*
X73061Y-58563D01*
X72969Y-58501D01*
X72964Y-58498D01*
X73006Y-58477D01*
X73021Y-58467D01*
X73053Y-58374D01*
X72700Y-58021D01*
X72346Y-58374D01*
X72378Y-58467D01*
X72435Y-58498D01*
X72344Y-58558D01*
X72265Y-58635D01*
X72203Y-58726D01*
X72201Y-58730D01*
X71517Y-58730D01*
X72143Y-58104D01*
X72172Y-58207D01*
X72222Y-58306D01*
X72232Y-58321D01*
X72325Y-58353D01*
X72678Y-58000D01*
X72673Y-57994D01*
X72694Y-57973D01*
X72700Y-57978D01*
X72705Y-57973D01*
X72726Y-57994D01*
X72721Y-58000D01*
X73074Y-58353D01*
X73167Y-58321D01*
X73220Y-58224D01*
X73254Y-58118D01*
X73266Y-58008D01*
X73262Y-57949D01*
X73377Y-58065D01*
X73343Y-58088D01*
X73292Y-58137D01*
X73253Y-58195D01*
X73225Y-58260D01*
X73210Y-58329D01*
X73209Y-58400D01*
X73222Y-58469D01*
X73248Y-58535D01*
X73286Y-58594D01*
X73335Y-58645D01*
X73393Y-58685D01*
X73458Y-58714D01*
X73527Y-58729D01*
X73562Y-58729D01*
X73650Y-58817D01*
X73650Y-58835D01*
X73650Y-59880D01*
X73652Y-59903D01*
X73654Y-59927D01*
X73654Y-59929D01*
X73654Y-59930D01*
X73661Y-59953D01*
X73668Y-59976D01*
X73669Y-59977D01*
X73669Y-59979D01*
X73680Y-60000D01*
X73691Y-60021D01*
X73692Y-60022D01*
X73693Y-60023D01*
X73708Y-60042D01*
X73723Y-60061D01*
X73725Y-60063D01*
X73725Y-60063D01*
X73725Y-60063D01*
X73726Y-60063D01*
X73929Y-60267D01*
X73929Y-60290D01*
X73942Y-60359D01*
X73968Y-60425D01*
X74006Y-60484D01*
X74055Y-60535D01*
X74113Y-60575D01*
X74178Y-60604D01*
X74247Y-60619D01*
X74317Y-60620D01*
X74387Y-60608D01*
X74453Y-60582D01*
X74512Y-60545D01*
X74563Y-60496D01*
X74604Y-60438D01*
X74633Y-60374D01*
X74648Y-60305D01*
X74650Y-60224D01*
X74636Y-60155D01*
X74609Y-60090D01*
X74576Y-60040D01*
X74720Y-60040D01*
X74743Y-60037D01*
X74767Y-60035D01*
X74769Y-60035D01*
X74770Y-60035D01*
X74793Y-60028D01*
X74816Y-60021D01*
X74817Y-60020D01*
X74819Y-60020D01*
X74840Y-60009D01*
X74861Y-59998D01*
X74862Y-59997D01*
X74863Y-59996D01*
X74882Y-59981D01*
X74901Y-59966D01*
X74903Y-59964D01*
X74903Y-59964D01*
X74903Y-59964D01*
X74903Y-59963D01*
X75123Y-59743D01*
X75139Y-59725D01*
X75154Y-59706D01*
X75155Y-59705D01*
X75156Y-59704D01*
X75167Y-59683D01*
X75178Y-59662D01*
X75179Y-59661D01*
X75180Y-59659D01*
X75187Y-59636D01*
X75194Y-59614D01*
X75194Y-59612D01*
X75194Y-59611D01*
X75197Y-59587D01*
X75199Y-59563D01*
X75199Y-59560D01*
X75199Y-59560D01*
X75199Y-59560D01*
X75200Y-59560D01*
X75200Y-58970D01*
X75197Y-58946D01*
X75195Y-58922D01*
X75195Y-58920D01*
X75195Y-58919D01*
X75188Y-58896D01*
X75181Y-58873D01*
X75180Y-58872D01*
X75180Y-58870D01*
X75169Y-58849D01*
X75158Y-58828D01*
X75157Y-58827D01*
X75156Y-58826D01*
X75141Y-58807D01*
X75126Y-58788D01*
X75124Y-58786D01*
X75124Y-58786D01*
X75124Y-58786D01*
X75123Y-58786D01*
X74166Y-57828D01*
X74176Y-57829D01*
X74179Y-57829D01*
X74179Y-57829D01*
X74179Y-57829D01*
X74180Y-57830D01*
X74742Y-57830D01*
X75446Y-58533D01*
X75464Y-58549D01*
X75483Y-58564D01*
X75484Y-58565D01*
X75485Y-58566D01*
X75506Y-58577D01*
X75527Y-58588D01*
X75528Y-58589D01*
X75530Y-58590D01*
X75553Y-58597D01*
X75575Y-58604D01*
X75577Y-58604D01*
X75578Y-58604D01*
X75602Y-58607D01*
X75626Y-58609D01*
X75629Y-58609D01*
X75629Y-58609D01*
X75629Y-58609D01*
X75630Y-58610D01*
X76982Y-58610D01*
X77410Y-59037D01*
X77410Y-59510D01*
X77412Y-59533D01*
X77414Y-59557D01*
X77414Y-59559D01*
X77414Y-59560D01*
X77421Y-59583D01*
X77428Y-59606D01*
X77429Y-59607D01*
X77429Y-59609D01*
X77440Y-59630D01*
X77451Y-59651D01*
X77452Y-59652D01*
X77453Y-59653D01*
X77468Y-59672D01*
X77483Y-59691D01*
X77485Y-59693D01*
X77485Y-59693D01*
X77485Y-59693D01*
X77486Y-59693D01*
X77910Y-60117D01*
X77910Y-60491D01*
G54D10*
G36*
X78322Y-61570D02*
X77786Y-62106D01*
X77770Y-62124D01*
X77755Y-62143D01*
X77754Y-62144D01*
X77753Y-62145D01*
X77742Y-62166D01*
X77731Y-62187D01*
X77730Y-62188D01*
X77729Y-62190D01*
X77722Y-62213D01*
X77715Y-62235D01*
X77715Y-62237D01*
X77715Y-62238D01*
X77712Y-62262D01*
X77710Y-62286D01*
X77710Y-62289D01*
X77710Y-62289D01*
X77710Y-62289D01*
X77710Y-62290D01*
X77710Y-62715D01*
X77710Y-63522D01*
X77582Y-63650D01*
X75190Y-63650D01*
X75166Y-63652D01*
X75142Y-63654D01*
X75140Y-63654D01*
X75139Y-63654D01*
X75116Y-63661D01*
X75093Y-63668D01*
X75092Y-63669D01*
X75090Y-63669D01*
X75069Y-63680D01*
X75048Y-63691D01*
X75047Y-63692D01*
X75046Y-63693D01*
X75027Y-63708D01*
X75008Y-63723D01*
X75006Y-63725D01*
X75006Y-63725D01*
X75006Y-63725D01*
X75006Y-63726D01*
X74982Y-63749D01*
X74957Y-63749D01*
X74887Y-63762D01*
X74822Y-63789D01*
X74763Y-63828D01*
X74712Y-63877D01*
X74673Y-63935D01*
X74669Y-63943D01*
X74656Y-63875D01*
X74629Y-63810D01*
X74590Y-63751D01*
X74540Y-63701D01*
X74482Y-63661D01*
X74416Y-63634D01*
X74347Y-63620D01*
X74347Y-63620D01*
X74336Y-63565D01*
X74309Y-63500D01*
X74285Y-63464D01*
X74304Y-63438D01*
X74333Y-63374D01*
X74348Y-63305D01*
X74350Y-63224D01*
X74340Y-63177D01*
X74357Y-63175D01*
X74359Y-63175D01*
X74360Y-63175D01*
X74383Y-63168D01*
X74406Y-63161D01*
X74407Y-63160D01*
X74409Y-63160D01*
X74430Y-63149D01*
X74451Y-63138D01*
X74452Y-63137D01*
X74453Y-63136D01*
X74472Y-63121D01*
X74491Y-63106D01*
X74493Y-63104D01*
X74493Y-63104D01*
X74493Y-63104D01*
X74493Y-63103D01*
X74687Y-62910D01*
X74707Y-62910D01*
X74777Y-62898D01*
X74843Y-62872D01*
X74902Y-62835D01*
X74953Y-62786D01*
X74994Y-62728D01*
X75023Y-62664D01*
X75038Y-62595D01*
X75039Y-62528D01*
X75053Y-62522D01*
X75112Y-62485D01*
X75163Y-62436D01*
X75204Y-62378D01*
X75215Y-62354D01*
X75267Y-62355D01*
X75337Y-62343D01*
X75403Y-62317D01*
X75462Y-62280D01*
X75513Y-62231D01*
X75554Y-62173D01*
X75583Y-62109D01*
X75598Y-62040D01*
X75600Y-61959D01*
X75586Y-61890D01*
X75559Y-61825D01*
X75520Y-61766D01*
X75470Y-61716D01*
X75412Y-61676D01*
X75346Y-61649D01*
X75277Y-61635D01*
X75247Y-61635D01*
X75238Y-61626D01*
X75220Y-61610D01*
X75201Y-61595D01*
X75200Y-61594D01*
X75199Y-61593D01*
X75178Y-61582D01*
X75157Y-61571D01*
X75156Y-61570D01*
X75154Y-61570D01*
X78322Y-61570D01*
X78322Y-61570D01*
G37*
G54D18*
X78322Y-61570D02*
X77786Y-62106D01*
X77770Y-62124D01*
X77755Y-62143D01*
X77754Y-62144D01*
X77753Y-62145D01*
X77742Y-62166D01*
X77731Y-62187D01*
X77730Y-62188D01*
X77729Y-62190D01*
X77722Y-62213D01*
X77715Y-62235D01*
X77715Y-62237D01*
X77715Y-62238D01*
X77712Y-62262D01*
X77710Y-62286D01*
X77710Y-62289D01*
X77710Y-62289D01*
X77710Y-62289D01*
X77710Y-62290D01*
X77710Y-62715D01*
X77710Y-63522D01*
X77582Y-63650D01*
X75190Y-63650D01*
X75166Y-63652D01*
X75142Y-63654D01*
X75140Y-63654D01*
X75139Y-63654D01*
X75116Y-63661D01*
X75093Y-63668D01*
X75092Y-63669D01*
X75090Y-63669D01*
X75069Y-63680D01*
X75048Y-63691D01*
X75047Y-63692D01*
X75046Y-63693D01*
X75027Y-63708D01*
X75008Y-63723D01*
X75006Y-63725D01*
X75006Y-63725D01*
X75006Y-63725D01*
X75006Y-63726D01*
X74982Y-63749D01*
X74957Y-63749D01*
X74887Y-63762D01*
X74822Y-63789D01*
X74763Y-63828D01*
X74712Y-63877D01*
X74673Y-63935D01*
X74669Y-63943D01*
X74656Y-63875D01*
X74629Y-63810D01*
X74590Y-63751D01*
X74540Y-63701D01*
X74482Y-63661D01*
X74416Y-63634D01*
X74347Y-63620D01*
X74347Y-63620D01*
X74336Y-63565D01*
X74309Y-63500D01*
X74285Y-63464D01*
X74304Y-63438D01*
X74333Y-63374D01*
X74348Y-63305D01*
X74350Y-63224D01*
X74340Y-63177D01*
X74357Y-63175D01*
X74359Y-63175D01*
X74360Y-63175D01*
X74383Y-63168D01*
X74406Y-63161D01*
X74407Y-63160D01*
X74409Y-63160D01*
X74430Y-63149D01*
X74451Y-63138D01*
X74452Y-63137D01*
X74453Y-63136D01*
X74472Y-63121D01*
X74491Y-63106D01*
X74493Y-63104D01*
X74493Y-63104D01*
X74493Y-63104D01*
X74493Y-63103D01*
X74687Y-62910D01*
X74707Y-62910D01*
X74777Y-62898D01*
X74843Y-62872D01*
X74902Y-62835D01*
X74953Y-62786D01*
X74994Y-62728D01*
X75023Y-62664D01*
X75038Y-62595D01*
X75039Y-62528D01*
X75053Y-62522D01*
X75112Y-62485D01*
X75163Y-62436D01*
X75204Y-62378D01*
X75215Y-62354D01*
X75267Y-62355D01*
X75337Y-62343D01*
X75403Y-62317D01*
X75462Y-62280D01*
X75513Y-62231D01*
X75554Y-62173D01*
X75583Y-62109D01*
X75598Y-62040D01*
X75600Y-61959D01*
X75586Y-61890D01*
X75559Y-61825D01*
X75520Y-61766D01*
X75470Y-61716D01*
X75412Y-61676D01*
X75346Y-61649D01*
X75277Y-61635D01*
X75247Y-61635D01*
X75238Y-61626D01*
X75220Y-61610D01*
X75201Y-61595D01*
X75200Y-61594D01*
X75199Y-61593D01*
X75178Y-61582D01*
X75157Y-61571D01*
X75156Y-61570D01*
X75154Y-61570D01*
X78322Y-61570D01*
G54D10*
G36*
X78705Y-56403D02*
X78653Y-56438D01*
X78602Y-56487D01*
X78563Y-56545D01*
X78535Y-56610D01*
X78520Y-56679D01*
X78519Y-56722D01*
X78512Y-56736D01*
X78501Y-56757D01*
X78500Y-56758D01*
X78499Y-56760D01*
X78492Y-56783D01*
X78485Y-56805D01*
X78485Y-56807D01*
X78485Y-56808D01*
X78482Y-56832D01*
X78480Y-56856D01*
X78480Y-56859D01*
X78480Y-56859D01*
X78480Y-56859D01*
X78480Y-56860D01*
X78480Y-56920D01*
X78462Y-56911D01*
X78461Y-56910D01*
X78459Y-56909D01*
X78436Y-56902D01*
X78414Y-56895D01*
X78412Y-56895D01*
X78411Y-56895D01*
X78387Y-56892D01*
X78363Y-56890D01*
X78360Y-56890D01*
X78360Y-56890D01*
X78360Y-56890D01*
X78360Y-56890D01*
X78030Y-56890D01*
X78006Y-56892D01*
X77982Y-56894D01*
X77980Y-56894D01*
X77979Y-56894D01*
X77956Y-56901D01*
X77933Y-56908D01*
X77932Y-56909D01*
X77930Y-56909D01*
X77909Y-56920D01*
X77888Y-56931D01*
X77887Y-56932D01*
X77886Y-56933D01*
X77867Y-56948D01*
X77848Y-56963D01*
X77846Y-56965D01*
X77846Y-56965D01*
X77846Y-56965D01*
X77846Y-56966D01*
X77801Y-57010D01*
X77797Y-57010D01*
X77727Y-57009D01*
X77657Y-57022D01*
X77592Y-57049D01*
X77533Y-57088D01*
X77482Y-57137D01*
X77443Y-57195D01*
X77415Y-57260D01*
X77400Y-57329D01*
X77399Y-57400D01*
X77406Y-57440D01*
X76037Y-57440D01*
X75993Y-57396D01*
X75993Y-57396D01*
X75993Y-57396D01*
X75344Y-56746D01*
X75336Y-56705D01*
X75309Y-56640D01*
X75292Y-56615D01*
X75293Y-56614D01*
X75293Y-56614D01*
X75293Y-56614D01*
X75293Y-56613D01*
X75317Y-56590D01*
X77120Y-56590D01*
X78190Y-56590D01*
X78213Y-56587D01*
X78237Y-56585D01*
X78239Y-56585D01*
X78240Y-56585D01*
X78263Y-56578D01*
X78286Y-56571D01*
X78287Y-56570D01*
X78289Y-56570D01*
X78310Y-56559D01*
X78331Y-56548D01*
X78332Y-56547D01*
X78333Y-56546D01*
X78352Y-56531D01*
X78371Y-56516D01*
X78373Y-56514D01*
X78373Y-56514D01*
X78373Y-56514D01*
X78373Y-56513D01*
X78633Y-56254D01*
X78634Y-56267D01*
X78634Y-56269D01*
X78634Y-56270D01*
X78641Y-56293D01*
X78648Y-56316D01*
X78649Y-56317D01*
X78649Y-56319D01*
X78660Y-56340D01*
X78671Y-56361D01*
X78672Y-56362D01*
X78673Y-56363D01*
X78688Y-56382D01*
X78703Y-56401D01*
X78705Y-56403D01*
X78705Y-56403D01*
X78705Y-56403D01*
X78705Y-56403D01*
X78705Y-56403D01*
G37*
G54D18*
X78705Y-56403D02*
X78653Y-56438D01*
X78602Y-56487D01*
X78563Y-56545D01*
X78535Y-56610D01*
X78520Y-56679D01*
X78519Y-56722D01*
X78512Y-56736D01*
X78501Y-56757D01*
X78500Y-56758D01*
X78499Y-56760D01*
X78492Y-56783D01*
X78485Y-56805D01*
X78485Y-56807D01*
X78485Y-56808D01*
X78482Y-56832D01*
X78480Y-56856D01*
X78480Y-56859D01*
X78480Y-56859D01*
X78480Y-56859D01*
X78480Y-56860D01*
X78480Y-56920D01*
X78462Y-56911D01*
X78461Y-56910D01*
X78459Y-56909D01*
X78436Y-56902D01*
X78414Y-56895D01*
X78412Y-56895D01*
X78411Y-56895D01*
X78387Y-56892D01*
X78363Y-56890D01*
X78360Y-56890D01*
X78360Y-56890D01*
X78360Y-56890D01*
X78360Y-56890D01*
X78030Y-56890D01*
X78006Y-56892D01*
X77982Y-56894D01*
X77980Y-56894D01*
X77979Y-56894D01*
X77956Y-56901D01*
X77933Y-56908D01*
X77932Y-56909D01*
X77930Y-56909D01*
X77909Y-56920D01*
X77888Y-56931D01*
X77887Y-56932D01*
X77886Y-56933D01*
X77867Y-56948D01*
X77848Y-56963D01*
X77846Y-56965D01*
X77846Y-56965D01*
X77846Y-56965D01*
X77846Y-56966D01*
X77801Y-57010D01*
X77797Y-57010D01*
X77727Y-57009D01*
X77657Y-57022D01*
X77592Y-57049D01*
X77533Y-57088D01*
X77482Y-57137D01*
X77443Y-57195D01*
X77415Y-57260D01*
X77400Y-57329D01*
X77399Y-57400D01*
X77406Y-57440D01*
X76037Y-57440D01*
X75993Y-57396D01*
X75993Y-57396D01*
X75993Y-57396D01*
X75344Y-56746D01*
X75336Y-56705D01*
X75309Y-56640D01*
X75292Y-56615D01*
X75293Y-56614D01*
X75293Y-56614D01*
X75293Y-56614D01*
X75293Y-56613D01*
X75317Y-56590D01*
X77120Y-56590D01*
X78190Y-56590D01*
X78213Y-56587D01*
X78237Y-56585D01*
X78239Y-56585D01*
X78240Y-56585D01*
X78263Y-56578D01*
X78286Y-56571D01*
X78287Y-56570D01*
X78289Y-56570D01*
X78310Y-56559D01*
X78331Y-56548D01*
X78332Y-56547D01*
X78333Y-56546D01*
X78352Y-56531D01*
X78371Y-56516D01*
X78373Y-56514D01*
X78373Y-56514D01*
X78373Y-56514D01*
X78373Y-56513D01*
X78633Y-56254D01*
X78634Y-56267D01*
X78634Y-56269D01*
X78634Y-56270D01*
X78641Y-56293D01*
X78648Y-56316D01*
X78649Y-56317D01*
X78649Y-56319D01*
X78660Y-56340D01*
X78671Y-56361D01*
X78672Y-56362D01*
X78673Y-56363D01*
X78688Y-56382D01*
X78703Y-56401D01*
X78705Y-56403D01*
X78705Y-56403D01*
X78705Y-56403D01*
X78705Y-56403D01*
G54D10*
G36*
X85862Y-56340D02*
X85020Y-56340D01*
X84996Y-56342D01*
X84972Y-56344D01*
X84970Y-56344D01*
X84969Y-56344D01*
X84946Y-56351D01*
X84923Y-56358D01*
X84922Y-56359D01*
X84920Y-56359D01*
X84899Y-56370D01*
X84878Y-56381D01*
X84877Y-56382D01*
X84876Y-56383D01*
X84857Y-56398D01*
X84838Y-56413D01*
X84836Y-56415D01*
X84836Y-56415D01*
X84836Y-56415D01*
X84836Y-56416D01*
X83702Y-57550D01*
X83090Y-57550D01*
X82934Y-57550D01*
X82915Y-57531D01*
X82857Y-57491D01*
X82791Y-57464D01*
X82722Y-57450D01*
X82652Y-57449D01*
X82582Y-57462D01*
X82517Y-57489D01*
X82458Y-57528D01*
X82407Y-57577D01*
X82368Y-57635D01*
X82340Y-57700D01*
X82325Y-57769D01*
X82324Y-57840D01*
X82337Y-57909D01*
X82343Y-57926D01*
X82133Y-57716D01*
X82115Y-57700D01*
X82096Y-57685D01*
X82095Y-57684D01*
X82094Y-57683D01*
X82073Y-57672D01*
X82052Y-57661D01*
X82051Y-57660D01*
X82049Y-57659D01*
X82026Y-57652D01*
X82004Y-57645D01*
X82002Y-57645D01*
X82001Y-57645D01*
X81977Y-57642D01*
X81953Y-57640D01*
X81950Y-57640D01*
X81950Y-57640D01*
X81950Y-57640D01*
X81950Y-57640D01*
X81320Y-57640D01*
X81296Y-57642D01*
X81272Y-57644D01*
X81270Y-57644D01*
X81269Y-57644D01*
X81246Y-57651D01*
X81223Y-57658D01*
X81222Y-57659D01*
X81220Y-57659D01*
X81199Y-57670D01*
X81178Y-57681D01*
X81177Y-57682D01*
X81176Y-57683D01*
X81157Y-57698D01*
X81138Y-57713D01*
X81136Y-57715D01*
X81136Y-57715D01*
X81136Y-57715D01*
X81136Y-57716D01*
X80691Y-58161D01*
X80675Y-58179D01*
X80660Y-58198D01*
X80659Y-58199D01*
X80658Y-58200D01*
X80647Y-58221D01*
X80636Y-58242D01*
X80635Y-58243D01*
X80634Y-58245D01*
X80627Y-58268D01*
X80620Y-58290D01*
X80620Y-58292D01*
X80620Y-58293D01*
X80617Y-58317D01*
X80615Y-58341D01*
X80615Y-58344D01*
X80615Y-58344D01*
X80615Y-58344D01*
X80615Y-58345D01*
X80615Y-58827D01*
X80561Y-58880D01*
X80549Y-58850D01*
X80510Y-58791D01*
X80460Y-58741D01*
X80420Y-58713D01*
X80420Y-57447D01*
X80597Y-57270D01*
X81010Y-57270D01*
X81033Y-57267D01*
X81057Y-57265D01*
X81059Y-57265D01*
X81060Y-57265D01*
X81083Y-57258D01*
X81106Y-57251D01*
X81107Y-57250D01*
X81109Y-57250D01*
X81130Y-57239D01*
X81151Y-57228D01*
X81152Y-57227D01*
X81153Y-57226D01*
X81172Y-57211D01*
X81191Y-57196D01*
X81193Y-57194D01*
X81193Y-57194D01*
X81193Y-57194D01*
X81193Y-57193D01*
X81680Y-56707D01*
X81680Y-56830D01*
X81632Y-56849D01*
X81573Y-56888D01*
X81522Y-56937D01*
X81483Y-56995D01*
X81455Y-57060D01*
X81440Y-57129D01*
X81439Y-57200D01*
X81452Y-57269D01*
X81478Y-57335D01*
X81516Y-57394D01*
X81565Y-57445D01*
X81623Y-57485D01*
X81688Y-57514D01*
X81757Y-57529D01*
X81827Y-57530D01*
X81897Y-57518D01*
X81963Y-57492D01*
X82022Y-57455D01*
X82073Y-57406D01*
X82114Y-57348D01*
X82143Y-57284D01*
X82158Y-57215D01*
X82159Y-57168D01*
X82167Y-57153D01*
X82178Y-57132D01*
X82179Y-57131D01*
X82180Y-57129D01*
X82187Y-57106D01*
X82194Y-57084D01*
X82194Y-57082D01*
X82194Y-57081D01*
X82197Y-57057D01*
X82199Y-57033D01*
X82199Y-57030D01*
X82199Y-57030D01*
X82199Y-57030D01*
X82200Y-57030D01*
X82200Y-55387D01*
X82207Y-55389D01*
X82277Y-55390D01*
X82347Y-55378D01*
X82413Y-55352D01*
X82472Y-55315D01*
X82523Y-55266D01*
X82564Y-55208D01*
X82593Y-55144D01*
X82608Y-55075D01*
X82610Y-54994D01*
X82596Y-54925D01*
X82572Y-54866D01*
X82623Y-54889D01*
X82692Y-54904D01*
X82762Y-54905D01*
X82832Y-54893D01*
X82897Y-54868D01*
X82908Y-54895D01*
X82946Y-54954D01*
X82995Y-55005D01*
X83053Y-55045D01*
X83118Y-55074D01*
X83187Y-55089D01*
X83257Y-55090D01*
X83327Y-55078D01*
X83393Y-55052D01*
X83452Y-55015D01*
X83503Y-54966D01*
X83544Y-54908D01*
X83573Y-54844D01*
X83588Y-54775D01*
X83589Y-54738D01*
X83773Y-54553D01*
X83789Y-54535D01*
X83804Y-54516D01*
X83805Y-54515D01*
X83806Y-54514D01*
X83817Y-54493D01*
X83828Y-54472D01*
X83829Y-54471D01*
X83830Y-54469D01*
X83837Y-54446D01*
X83844Y-54424D01*
X83844Y-54422D01*
X83844Y-54421D01*
X83847Y-54397D01*
X83849Y-54373D01*
X83849Y-54370D01*
X83849Y-54370D01*
X83849Y-54370D01*
X83850Y-54370D01*
X83850Y-54327D01*
X85862Y-56340D01*
X85862Y-56340D01*
G37*
G54D18*
X85862Y-56340D02*
X85020Y-56340D01*
X84996Y-56342D01*
X84972Y-56344D01*
X84970Y-56344D01*
X84969Y-56344D01*
X84946Y-56351D01*
X84923Y-56358D01*
X84922Y-56359D01*
X84920Y-56359D01*
X84899Y-56370D01*
X84878Y-56381D01*
X84877Y-56382D01*
X84876Y-56383D01*
X84857Y-56398D01*
X84838Y-56413D01*
X84836Y-56415D01*
X84836Y-56415D01*
X84836Y-56415D01*
X84836Y-56416D01*
X83702Y-57550D01*
X83090Y-57550D01*
X82934Y-57550D01*
X82915Y-57531D01*
X82857Y-57491D01*
X82791Y-57464D01*
X82722Y-57450D01*
X82652Y-57449D01*
X82582Y-57462D01*
X82517Y-57489D01*
X82458Y-57528D01*
X82407Y-57577D01*
X82368Y-57635D01*
X82340Y-57700D01*
X82325Y-57769D01*
X82324Y-57840D01*
X82337Y-57909D01*
X82343Y-57926D01*
X82133Y-57716D01*
X82115Y-57700D01*
X82096Y-57685D01*
X82095Y-57684D01*
X82094Y-57683D01*
X82073Y-57672D01*
X82052Y-57661D01*
X82051Y-57660D01*
X82049Y-57659D01*
X82026Y-57652D01*
X82004Y-57645D01*
X82002Y-57645D01*
X82001Y-57645D01*
X81977Y-57642D01*
X81953Y-57640D01*
X81950Y-57640D01*
X81950Y-57640D01*
X81950Y-57640D01*
X81950Y-57640D01*
X81320Y-57640D01*
X81296Y-57642D01*
X81272Y-57644D01*
X81270Y-57644D01*
X81269Y-57644D01*
X81246Y-57651D01*
X81223Y-57658D01*
X81222Y-57659D01*
X81220Y-57659D01*
X81199Y-57670D01*
X81178Y-57681D01*
X81177Y-57682D01*
X81176Y-57683D01*
X81157Y-57698D01*
X81138Y-57713D01*
X81136Y-57715D01*
X81136Y-57715D01*
X81136Y-57715D01*
X81136Y-57716D01*
X80691Y-58161D01*
X80675Y-58179D01*
X80660Y-58198D01*
X80659Y-58199D01*
X80658Y-58200D01*
X80647Y-58221D01*
X80636Y-58242D01*
X80635Y-58243D01*
X80634Y-58245D01*
X80627Y-58268D01*
X80620Y-58290D01*
X80620Y-58292D01*
X80620Y-58293D01*
X80617Y-58317D01*
X80615Y-58341D01*
X80615Y-58344D01*
X80615Y-58344D01*
X80615Y-58344D01*
X80615Y-58345D01*
X80615Y-58827D01*
X80561Y-58880D01*
X80549Y-58850D01*
X80510Y-58791D01*
X80460Y-58741D01*
X80420Y-58713D01*
X80420Y-57447D01*
X80597Y-57270D01*
X81010Y-57270D01*
X81033Y-57267D01*
X81057Y-57265D01*
X81059Y-57265D01*
X81060Y-57265D01*
X81083Y-57258D01*
X81106Y-57251D01*
X81107Y-57250D01*
X81109Y-57250D01*
X81130Y-57239D01*
X81151Y-57228D01*
X81152Y-57227D01*
X81153Y-57226D01*
X81172Y-57211D01*
X81191Y-57196D01*
X81193Y-57194D01*
X81193Y-57194D01*
X81193Y-57194D01*
X81193Y-57193D01*
X81680Y-56707D01*
X81680Y-56830D01*
X81632Y-56849D01*
X81573Y-56888D01*
X81522Y-56937D01*
X81483Y-56995D01*
X81455Y-57060D01*
X81440Y-57129D01*
X81439Y-57200D01*
X81452Y-57269D01*
X81478Y-57335D01*
X81516Y-57394D01*
X81565Y-57445D01*
X81623Y-57485D01*
X81688Y-57514D01*
X81757Y-57529D01*
X81827Y-57530D01*
X81897Y-57518D01*
X81963Y-57492D01*
X82022Y-57455D01*
X82073Y-57406D01*
X82114Y-57348D01*
X82143Y-57284D01*
X82158Y-57215D01*
X82159Y-57168D01*
X82167Y-57153D01*
X82178Y-57132D01*
X82179Y-57131D01*
X82180Y-57129D01*
X82187Y-57106D01*
X82194Y-57084D01*
X82194Y-57082D01*
X82194Y-57081D01*
X82197Y-57057D01*
X82199Y-57033D01*
X82199Y-57030D01*
X82199Y-57030D01*
X82199Y-57030D01*
X82200Y-57030D01*
X82200Y-55387D01*
X82207Y-55389D01*
X82277Y-55390D01*
X82347Y-55378D01*
X82413Y-55352D01*
X82472Y-55315D01*
X82523Y-55266D01*
X82564Y-55208D01*
X82593Y-55144D01*
X82608Y-55075D01*
X82610Y-54994D01*
X82596Y-54925D01*
X82572Y-54866D01*
X82623Y-54889D01*
X82692Y-54904D01*
X82762Y-54905D01*
X82832Y-54893D01*
X82897Y-54868D01*
X82908Y-54895D01*
X82946Y-54954D01*
X82995Y-55005D01*
X83053Y-55045D01*
X83118Y-55074D01*
X83187Y-55089D01*
X83257Y-55090D01*
X83327Y-55078D01*
X83393Y-55052D01*
X83452Y-55015D01*
X83503Y-54966D01*
X83544Y-54908D01*
X83573Y-54844D01*
X83588Y-54775D01*
X83589Y-54738D01*
X83773Y-54553D01*
X83789Y-54535D01*
X83804Y-54516D01*
X83805Y-54515D01*
X83806Y-54514D01*
X83817Y-54493D01*
X83828Y-54472D01*
X83829Y-54471D01*
X83830Y-54469D01*
X83837Y-54446D01*
X83844Y-54424D01*
X83844Y-54422D01*
X83844Y-54421D01*
X83847Y-54397D01*
X83849Y-54373D01*
X83849Y-54370D01*
X83849Y-54370D01*
X83849Y-54370D01*
X83850Y-54370D01*
X83850Y-54327D01*
X85862Y-56340D01*
G54D10*
G36*
X92080Y-53168D02*
X92052Y-53179D01*
X92019Y-53200D01*
X92010Y-53191D01*
X91952Y-53151D01*
X91886Y-53124D01*
X91817Y-53110D01*
X91747Y-53109D01*
X91677Y-53122D01*
X91612Y-53149D01*
X91553Y-53188D01*
X91502Y-53237D01*
X91463Y-53295D01*
X91435Y-53360D01*
X91420Y-53429D01*
X91420Y-53462D01*
X91396Y-53486D01*
X91380Y-53504D01*
X91365Y-53523D01*
X91364Y-53524D01*
X91363Y-53525D01*
X91352Y-53546D01*
X91341Y-53567D01*
X91340Y-53568D01*
X91339Y-53570D01*
X91332Y-53593D01*
X91325Y-53615D01*
X91325Y-53617D01*
X91325Y-53618D01*
X91322Y-53642D01*
X91320Y-53666D01*
X91320Y-53669D01*
X91320Y-53669D01*
X91320Y-53669D01*
X91320Y-53670D01*
X91320Y-54072D01*
X91181Y-54211D01*
X91164Y-54170D01*
X91125Y-54111D01*
X91075Y-54061D01*
X91017Y-54021D01*
X90951Y-53994D01*
X90882Y-53980D01*
X90852Y-53980D01*
X90398Y-53526D01*
X90380Y-53510D01*
X90361Y-53495D01*
X90360Y-53494D01*
X90359Y-53493D01*
X90338Y-53482D01*
X90317Y-53471D01*
X90316Y-53470D01*
X90314Y-53469D01*
X90291Y-53462D01*
X90269Y-53455D01*
X90267Y-53455D01*
X90266Y-53455D01*
X90242Y-53452D01*
X90218Y-53450D01*
X90215Y-53450D01*
X90215Y-53450D01*
X90215Y-53450D01*
X90215Y-53450D01*
X90046Y-53450D01*
X90046Y-52722D01*
X90043Y-52690D01*
X90043Y-51430D01*
X90022Y-51321D01*
X89980Y-51219D01*
X89918Y-51127D01*
X89840Y-51048D01*
X89832Y-51043D01*
X89832Y-50088D01*
X89479Y-49735D01*
X89458Y-49756D01*
X89458Y-49714D01*
X89105Y-49361D01*
X89012Y-49393D01*
X88958Y-49490D01*
X88925Y-49595D01*
X88912Y-49705D01*
X88921Y-49815D01*
X88951Y-49922D01*
X89002Y-50020D01*
X89012Y-50035D01*
X89105Y-50067D01*
X89458Y-49714D01*
X89458Y-49756D01*
X89126Y-50088D01*
X89158Y-50181D01*
X89255Y-50235D01*
X89360Y-50268D01*
X89470Y-50281D01*
X89581Y-50272D01*
X89687Y-50241D01*
X89786Y-50191D01*
X89800Y-50181D01*
X89832Y-50088D01*
X89832Y-51043D01*
X89749Y-50987D01*
X89647Y-50944D01*
X89538Y-50921D01*
X89428Y-50921D01*
X89319Y-50941D01*
X89216Y-50983D01*
X89124Y-51043D01*
X89045Y-51121D01*
X88982Y-51212D01*
X88939Y-51314D01*
X88916Y-51422D01*
X88914Y-51533D01*
X88934Y-51642D01*
X88975Y-51745D01*
X89035Y-51838D01*
X89112Y-51917D01*
X89202Y-51980D01*
X89304Y-52025D01*
X89412Y-52048D01*
X89523Y-52051D01*
X89632Y-52031D01*
X89735Y-51991D01*
X89828Y-51932D01*
X89908Y-51856D01*
X89972Y-51765D01*
X90017Y-51664D01*
X90042Y-51556D01*
X90043Y-51430D01*
X90043Y-52690D01*
X90037Y-52612D01*
X90007Y-52506D01*
X89956Y-52407D01*
X89946Y-52393D01*
X89853Y-52361D01*
X89832Y-52382D01*
X89832Y-52339D01*
X89800Y-52246D01*
X89703Y-52193D01*
X89598Y-52159D01*
X89488Y-52147D01*
X89377Y-52156D01*
X89271Y-52186D01*
X89173Y-52237D01*
X89158Y-52246D01*
X89126Y-52339D01*
X89479Y-52692D01*
X89832Y-52339D01*
X89832Y-52382D01*
X89500Y-52714D01*
X89853Y-53067D01*
X89946Y-53035D01*
X90000Y-52938D01*
X90034Y-52832D01*
X90046Y-52722D01*
X90046Y-53450D01*
X89497Y-53450D01*
X89295Y-53247D01*
X89360Y-53268D01*
X89470Y-53281D01*
X89581Y-53272D01*
X89687Y-53241D01*
X89786Y-53191D01*
X89800Y-53181D01*
X89832Y-53088D01*
X89479Y-52735D01*
X89473Y-52740D01*
X89452Y-52719D01*
X89458Y-52714D01*
X89105Y-52361D01*
X89012Y-52393D01*
X88958Y-52490D01*
X88925Y-52595D01*
X88912Y-52705D01*
X88921Y-52815D01*
X88944Y-52897D01*
X87487Y-51439D01*
X87487Y-49722D01*
X87478Y-49612D01*
X87448Y-49506D01*
X87397Y-49407D01*
X87387Y-49393D01*
X87294Y-49361D01*
X87273Y-49382D01*
X87273Y-49339D01*
X87241Y-49246D01*
X87144Y-49193D01*
X87039Y-49159D01*
X86929Y-49147D01*
X86818Y-49156D01*
X86712Y-49186D01*
X86613Y-49237D01*
X86599Y-49246D01*
X86567Y-49339D01*
X86920Y-49692D01*
X87273Y-49339D01*
X87273Y-49382D01*
X86941Y-49714D01*
X87294Y-50067D01*
X87387Y-50035D01*
X87441Y-49938D01*
X87474Y-49832D01*
X87487Y-49722D01*
X87487Y-51439D01*
X87484Y-51437D01*
X87484Y-51430D01*
X87463Y-51321D01*
X87421Y-51219D01*
X87359Y-51127D01*
X87281Y-51048D01*
X87273Y-51043D01*
X87273Y-50088D01*
X86920Y-49735D01*
X86899Y-49756D01*
X86899Y-49714D01*
X86546Y-49361D01*
X86453Y-49393D01*
X86399Y-49490D01*
X86365Y-49595D01*
X86353Y-49705D01*
X86362Y-49815D01*
X86392Y-49922D01*
X86443Y-50020D01*
X86453Y-50035D01*
X86546Y-50067D01*
X86899Y-49714D01*
X86899Y-49756D01*
X86567Y-50088D01*
X86599Y-50181D01*
X86696Y-50235D01*
X86801Y-50268D01*
X86911Y-50281D01*
X87022Y-50272D01*
X87128Y-50241D01*
X87226Y-50191D01*
X87241Y-50181D01*
X87273Y-50088D01*
X87273Y-51043D01*
X87190Y-50987D01*
X87088Y-50944D01*
X86979Y-50921D01*
X86869Y-50921D01*
X86760Y-50941D01*
X86657Y-50983D01*
X86565Y-51043D01*
X86486Y-51121D01*
X86423Y-51212D01*
X86379Y-51314D01*
X86356Y-51422D01*
X86355Y-51533D01*
X86375Y-51642D01*
X86416Y-51745D01*
X86476Y-51838D01*
X86552Y-51917D01*
X86643Y-51980D01*
X86745Y-52025D01*
X86853Y-52048D01*
X86963Y-52051D01*
X87072Y-52031D01*
X87176Y-51991D01*
X87254Y-51942D01*
X89206Y-53893D01*
X89224Y-53909D01*
X89243Y-53924D01*
X89244Y-53925D01*
X89245Y-53926D01*
X89266Y-53937D01*
X89287Y-53948D01*
X89288Y-53949D01*
X89290Y-53950D01*
X89295Y-53951D01*
X89216Y-53983D01*
X89124Y-54043D01*
X89045Y-54121D01*
X88982Y-54212D01*
X88939Y-54314D01*
X88916Y-54422D01*
X88914Y-54533D01*
X88934Y-54642D01*
X88975Y-54745D01*
X89035Y-54838D01*
X89112Y-54917D01*
X89202Y-54980D01*
X89292Y-55020D01*
X87487Y-55020D01*
X87487Y-52722D01*
X87478Y-52612D01*
X87448Y-52506D01*
X87397Y-52407D01*
X87387Y-52393D01*
X87294Y-52361D01*
X87273Y-52382D01*
X87273Y-52339D01*
X87241Y-52246D01*
X87144Y-52193D01*
X87039Y-52159D01*
X86929Y-52147D01*
X86818Y-52156D01*
X86712Y-52186D01*
X86613Y-52237D01*
X86599Y-52246D01*
X86567Y-52339D01*
X86920Y-52692D01*
X87273Y-52339D01*
X87273Y-52382D01*
X86941Y-52714D01*
X87294Y-53067D01*
X87387Y-53035D01*
X87441Y-52938D01*
X87474Y-52832D01*
X87487Y-52722D01*
X87487Y-55020D01*
X87103Y-55020D01*
X87176Y-54991D01*
X87269Y-54932D01*
X87349Y-54856D01*
X87413Y-54765D01*
X87458Y-54664D01*
X87483Y-54556D01*
X87484Y-54430D01*
X87463Y-54321D01*
X87421Y-54219D01*
X87359Y-54127D01*
X87281Y-54048D01*
X87273Y-54043D01*
X87273Y-53088D01*
X86920Y-52735D01*
X86899Y-52756D01*
X86899Y-52714D01*
X86546Y-52361D01*
X86453Y-52393D01*
X86399Y-52490D01*
X86365Y-52595D01*
X86353Y-52705D01*
X86362Y-52815D01*
X86392Y-52922D01*
X86443Y-53020D01*
X86453Y-53035D01*
X86546Y-53067D01*
X86899Y-52714D01*
X86899Y-52756D01*
X86567Y-53088D01*
X86599Y-53181D01*
X86696Y-53235D01*
X86801Y-53268D01*
X86911Y-53281D01*
X87022Y-53272D01*
X87128Y-53241D01*
X87226Y-53191D01*
X87241Y-53181D01*
X87273Y-53088D01*
X87273Y-54043D01*
X87190Y-53987D01*
X87088Y-53944D01*
X86979Y-53921D01*
X86869Y-53921D01*
X86760Y-53941D01*
X86657Y-53983D01*
X86565Y-54043D01*
X86486Y-54121D01*
X86423Y-54212D01*
X86379Y-54314D01*
X86356Y-54422D01*
X86355Y-54533D01*
X86356Y-54538D01*
X83773Y-51956D01*
X83755Y-51940D01*
X83736Y-51925D01*
X83735Y-51924D01*
X83734Y-51923D01*
X83713Y-51912D01*
X83692Y-51901D01*
X83691Y-51900D01*
X83689Y-51899D01*
X83666Y-51892D01*
X83644Y-51885D01*
X83642Y-51885D01*
X83641Y-51885D01*
X83617Y-51882D01*
X83593Y-51880D01*
X83590Y-51880D01*
X83590Y-51880D01*
X83590Y-51880D01*
X83590Y-51880D01*
X82030Y-51880D01*
X83235Y-50675D01*
X83235Y-51030D01*
X83237Y-51053D01*
X83239Y-51077D01*
X83239Y-51079D01*
X83239Y-51080D01*
X83246Y-51103D01*
X83253Y-51126D01*
X83254Y-51127D01*
X83254Y-51129D01*
X83265Y-51150D01*
X83276Y-51171D01*
X83277Y-51172D01*
X83278Y-51173D01*
X83293Y-51192D01*
X83308Y-51211D01*
X83310Y-51213D01*
X83310Y-51213D01*
X83310Y-51213D01*
X83311Y-51213D01*
X83379Y-51282D01*
X83379Y-51305D01*
X83392Y-51374D01*
X83418Y-51440D01*
X83456Y-51499D01*
X83505Y-51550D01*
X83563Y-51590D01*
X83628Y-51619D01*
X83697Y-51634D01*
X83767Y-51635D01*
X83837Y-51623D01*
X83903Y-51597D01*
X83962Y-51560D01*
X84013Y-51511D01*
X84054Y-51453D01*
X84083Y-51389D01*
X84098Y-51320D01*
X84100Y-51239D01*
X84086Y-51170D01*
X84059Y-51105D01*
X84020Y-51046D01*
X83970Y-50996D01*
X83912Y-50956D01*
X83846Y-50929D01*
X83777Y-50915D01*
X83755Y-50915D01*
X83755Y-50462D01*
X85087Y-49130D01*
X85860Y-49130D01*
X85883Y-49127D01*
X85907Y-49125D01*
X85909Y-49125D01*
X85910Y-49125D01*
X85933Y-49118D01*
X85956Y-49111D01*
X85957Y-49110D01*
X85959Y-49110D01*
X85980Y-49099D01*
X86001Y-49088D01*
X86002Y-49087D01*
X86003Y-49086D01*
X86022Y-49071D01*
X86041Y-49056D01*
X86042Y-49055D01*
X86062Y-49055D01*
X86132Y-49043D01*
X86198Y-49017D01*
X86257Y-48980D01*
X86308Y-48931D01*
X86349Y-48873D01*
X86378Y-48809D01*
X86393Y-48740D01*
X86395Y-48659D01*
X86382Y-48595D01*
X89092Y-48595D01*
X89684Y-49187D01*
X89598Y-49159D01*
X89488Y-49147D01*
X89377Y-49156D01*
X89271Y-49186D01*
X89173Y-49237D01*
X89158Y-49246D01*
X89126Y-49339D01*
X89479Y-49692D01*
X89485Y-49687D01*
X89506Y-49708D01*
X89500Y-49714D01*
X89853Y-50067D01*
X89946Y-50035D01*
X90000Y-49938D01*
X90034Y-49832D01*
X90040Y-49780D01*
X90040Y-51020D01*
X90042Y-51043D01*
X90044Y-51067D01*
X90044Y-51069D01*
X90044Y-51070D01*
X90051Y-51093D01*
X90058Y-51116D01*
X90059Y-51117D01*
X90059Y-51119D01*
X90070Y-51140D01*
X90081Y-51161D01*
X90082Y-51162D01*
X90083Y-51163D01*
X90098Y-51182D01*
X90113Y-51201D01*
X90115Y-51203D01*
X90115Y-51203D01*
X90115Y-51203D01*
X90116Y-51203D01*
X92080Y-53168D01*
X92080Y-53168D01*
G37*
G54D18*
X92080Y-53168D02*
X92052Y-53179D01*
X92019Y-53200D01*
X92010Y-53191D01*
X91952Y-53151D01*
X91886Y-53124D01*
X91817Y-53110D01*
X91747Y-53109D01*
X91677Y-53122D01*
X91612Y-53149D01*
X91553Y-53188D01*
X91502Y-53237D01*
X91463Y-53295D01*
X91435Y-53360D01*
X91420Y-53429D01*
X91420Y-53462D01*
X91396Y-53486D01*
X91380Y-53504D01*
X91365Y-53523D01*
X91364Y-53524D01*
X91363Y-53525D01*
X91352Y-53546D01*
X91341Y-53567D01*
X91340Y-53568D01*
X91339Y-53570D01*
X91332Y-53593D01*
X91325Y-53615D01*
X91325Y-53617D01*
X91325Y-53618D01*
X91322Y-53642D01*
X91320Y-53666D01*
X91320Y-53669D01*
X91320Y-53669D01*
X91320Y-53669D01*
X91320Y-53670D01*
X91320Y-54072D01*
X91181Y-54211D01*
X91164Y-54170D01*
X91125Y-54111D01*
X91075Y-54061D01*
X91017Y-54021D01*
X90951Y-53994D01*
X90882Y-53980D01*
X90852Y-53980D01*
X90398Y-53526D01*
X90380Y-53510D01*
X90361Y-53495D01*
X90360Y-53494D01*
X90359Y-53493D01*
X90338Y-53482D01*
X90317Y-53471D01*
X90316Y-53470D01*
X90314Y-53469D01*
X90291Y-53462D01*
X90269Y-53455D01*
X90267Y-53455D01*
X90266Y-53455D01*
X90242Y-53452D01*
X90218Y-53450D01*
X90215Y-53450D01*
X90215Y-53450D01*
X90215Y-53450D01*
X90215Y-53450D01*
X90046Y-53450D01*
X90046Y-52722D01*
X90043Y-52690D01*
X90043Y-51430D01*
X90022Y-51321D01*
X89980Y-51219D01*
X89918Y-51127D01*
X89840Y-51048D01*
X89832Y-51043D01*
X89832Y-50088D01*
X89479Y-49735D01*
X89458Y-49756D01*
X89458Y-49714D01*
X89105Y-49361D01*
X89012Y-49393D01*
X88958Y-49490D01*
X88925Y-49595D01*
X88912Y-49705D01*
X88921Y-49815D01*
X88951Y-49922D01*
X89002Y-50020D01*
X89012Y-50035D01*
X89105Y-50067D01*
X89458Y-49714D01*
X89458Y-49756D01*
X89126Y-50088D01*
X89158Y-50181D01*
X89255Y-50235D01*
X89360Y-50268D01*
X89470Y-50281D01*
X89581Y-50272D01*
X89687Y-50241D01*
X89786Y-50191D01*
X89800Y-50181D01*
X89832Y-50088D01*
X89832Y-51043D01*
X89749Y-50987D01*
X89647Y-50944D01*
X89538Y-50921D01*
X89428Y-50921D01*
X89319Y-50941D01*
X89216Y-50983D01*
X89124Y-51043D01*
X89045Y-51121D01*
X88982Y-51212D01*
X88939Y-51314D01*
X88916Y-51422D01*
X88914Y-51533D01*
X88934Y-51642D01*
X88975Y-51745D01*
X89035Y-51838D01*
X89112Y-51917D01*
X89202Y-51980D01*
X89304Y-52025D01*
X89412Y-52048D01*
X89523Y-52051D01*
X89632Y-52031D01*
X89735Y-51991D01*
X89828Y-51932D01*
X89908Y-51856D01*
X89972Y-51765D01*
X90017Y-51664D01*
X90042Y-51556D01*
X90043Y-51430D01*
X90043Y-52690D01*
X90037Y-52612D01*
X90007Y-52506D01*
X89956Y-52407D01*
X89946Y-52393D01*
X89853Y-52361D01*
X89832Y-52382D01*
X89832Y-52339D01*
X89800Y-52246D01*
X89703Y-52193D01*
X89598Y-52159D01*
X89488Y-52147D01*
X89377Y-52156D01*
X89271Y-52186D01*
X89173Y-52237D01*
X89158Y-52246D01*
X89126Y-52339D01*
X89479Y-52692D01*
X89832Y-52339D01*
X89832Y-52382D01*
X89500Y-52714D01*
X89853Y-53067D01*
X89946Y-53035D01*
X90000Y-52938D01*
X90034Y-52832D01*
X90046Y-52722D01*
X90046Y-53450D01*
X89497Y-53450D01*
X89295Y-53247D01*
X89360Y-53268D01*
X89470Y-53281D01*
X89581Y-53272D01*
X89687Y-53241D01*
X89786Y-53191D01*
X89800Y-53181D01*
X89832Y-53088D01*
X89479Y-52735D01*
X89473Y-52740D01*
X89452Y-52719D01*
X89458Y-52714D01*
X89105Y-52361D01*
X89012Y-52393D01*
X88958Y-52490D01*
X88925Y-52595D01*
X88912Y-52705D01*
X88921Y-52815D01*
X88944Y-52897D01*
X87487Y-51439D01*
X87487Y-49722D01*
X87478Y-49612D01*
X87448Y-49506D01*
X87397Y-49407D01*
X87387Y-49393D01*
X87294Y-49361D01*
X87273Y-49382D01*
X87273Y-49339D01*
X87241Y-49246D01*
X87144Y-49193D01*
X87039Y-49159D01*
X86929Y-49147D01*
X86818Y-49156D01*
X86712Y-49186D01*
X86613Y-49237D01*
X86599Y-49246D01*
X86567Y-49339D01*
X86920Y-49692D01*
X87273Y-49339D01*
X87273Y-49382D01*
X86941Y-49714D01*
X87294Y-50067D01*
X87387Y-50035D01*
X87441Y-49938D01*
X87474Y-49832D01*
X87487Y-49722D01*
X87487Y-51439D01*
X87484Y-51437D01*
X87484Y-51430D01*
X87463Y-51321D01*
X87421Y-51219D01*
X87359Y-51127D01*
X87281Y-51048D01*
X87273Y-51043D01*
X87273Y-50088D01*
X86920Y-49735D01*
X86899Y-49756D01*
X86899Y-49714D01*
X86546Y-49361D01*
X86453Y-49393D01*
X86399Y-49490D01*
X86365Y-49595D01*
X86353Y-49705D01*
X86362Y-49815D01*
X86392Y-49922D01*
X86443Y-50020D01*
X86453Y-50035D01*
X86546Y-50067D01*
X86899Y-49714D01*
X86899Y-49756D01*
X86567Y-50088D01*
X86599Y-50181D01*
X86696Y-50235D01*
X86801Y-50268D01*
X86911Y-50281D01*
X87022Y-50272D01*
X87128Y-50241D01*
X87226Y-50191D01*
X87241Y-50181D01*
X87273Y-50088D01*
X87273Y-51043D01*
X87190Y-50987D01*
X87088Y-50944D01*
X86979Y-50921D01*
X86869Y-50921D01*
X86760Y-50941D01*
X86657Y-50983D01*
X86565Y-51043D01*
X86486Y-51121D01*
X86423Y-51212D01*
X86379Y-51314D01*
X86356Y-51422D01*
X86355Y-51533D01*
X86375Y-51642D01*
X86416Y-51745D01*
X86476Y-51838D01*
X86552Y-51917D01*
X86643Y-51980D01*
X86745Y-52025D01*
X86853Y-52048D01*
X86963Y-52051D01*
X87072Y-52031D01*
X87176Y-51991D01*
X87254Y-51942D01*
X89206Y-53893D01*
X89224Y-53909D01*
X89243Y-53924D01*
X89244Y-53925D01*
X89245Y-53926D01*
X89266Y-53937D01*
X89287Y-53948D01*
X89288Y-53949D01*
X89290Y-53950D01*
X89295Y-53951D01*
X89216Y-53983D01*
X89124Y-54043D01*
X89045Y-54121D01*
X88982Y-54212D01*
X88939Y-54314D01*
X88916Y-54422D01*
X88914Y-54533D01*
X88934Y-54642D01*
X88975Y-54745D01*
X89035Y-54838D01*
X89112Y-54917D01*
X89202Y-54980D01*
X89292Y-55020D01*
X87487Y-55020D01*
X87487Y-52722D01*
X87478Y-52612D01*
X87448Y-52506D01*
X87397Y-52407D01*
X87387Y-52393D01*
X87294Y-52361D01*
X87273Y-52382D01*
X87273Y-52339D01*
X87241Y-52246D01*
X87144Y-52193D01*
X87039Y-52159D01*
X86929Y-52147D01*
X86818Y-52156D01*
X86712Y-52186D01*
X86613Y-52237D01*
X86599Y-52246D01*
X86567Y-52339D01*
X86920Y-52692D01*
X87273Y-52339D01*
X87273Y-52382D01*
X86941Y-52714D01*
X87294Y-53067D01*
X87387Y-53035D01*
X87441Y-52938D01*
X87474Y-52832D01*
X87487Y-52722D01*
X87487Y-55020D01*
X87103Y-55020D01*
X87176Y-54991D01*
X87269Y-54932D01*
X87349Y-54856D01*
X87413Y-54765D01*
X87458Y-54664D01*
X87483Y-54556D01*
X87484Y-54430D01*
X87463Y-54321D01*
X87421Y-54219D01*
X87359Y-54127D01*
X87281Y-54048D01*
X87273Y-54043D01*
X87273Y-53088D01*
X86920Y-52735D01*
X86899Y-52756D01*
X86899Y-52714D01*
X86546Y-52361D01*
X86453Y-52393D01*
X86399Y-52490D01*
X86365Y-52595D01*
X86353Y-52705D01*
X86362Y-52815D01*
X86392Y-52922D01*
X86443Y-53020D01*
X86453Y-53035D01*
X86546Y-53067D01*
X86899Y-52714D01*
X86899Y-52756D01*
X86567Y-53088D01*
X86599Y-53181D01*
X86696Y-53235D01*
X86801Y-53268D01*
X86911Y-53281D01*
X87022Y-53272D01*
X87128Y-53241D01*
X87226Y-53191D01*
X87241Y-53181D01*
X87273Y-53088D01*
X87273Y-54043D01*
X87190Y-53987D01*
X87088Y-53944D01*
X86979Y-53921D01*
X86869Y-53921D01*
X86760Y-53941D01*
X86657Y-53983D01*
X86565Y-54043D01*
X86486Y-54121D01*
X86423Y-54212D01*
X86379Y-54314D01*
X86356Y-54422D01*
X86355Y-54533D01*
X86356Y-54538D01*
X83773Y-51956D01*
X83755Y-51940D01*
X83736Y-51925D01*
X83735Y-51924D01*
X83734Y-51923D01*
X83713Y-51912D01*
X83692Y-51901D01*
X83691Y-51900D01*
X83689Y-51899D01*
X83666Y-51892D01*
X83644Y-51885D01*
X83642Y-51885D01*
X83641Y-51885D01*
X83617Y-51882D01*
X83593Y-51880D01*
X83590Y-51880D01*
X83590Y-51880D01*
X83590Y-51880D01*
X83590Y-51880D01*
X82030Y-51880D01*
X83235Y-50675D01*
X83235Y-51030D01*
X83237Y-51053D01*
X83239Y-51077D01*
X83239Y-51079D01*
X83239Y-51080D01*
X83246Y-51103D01*
X83253Y-51126D01*
X83254Y-51127D01*
X83254Y-51129D01*
X83265Y-51150D01*
X83276Y-51171D01*
X83277Y-51172D01*
X83278Y-51173D01*
X83293Y-51192D01*
X83308Y-51211D01*
X83310Y-51213D01*
X83310Y-51213D01*
X83310Y-51213D01*
X83311Y-51213D01*
X83379Y-51282D01*
X83379Y-51305D01*
X83392Y-51374D01*
X83418Y-51440D01*
X83456Y-51499D01*
X83505Y-51550D01*
X83563Y-51590D01*
X83628Y-51619D01*
X83697Y-51634D01*
X83767Y-51635D01*
X83837Y-51623D01*
X83903Y-51597D01*
X83962Y-51560D01*
X84013Y-51511D01*
X84054Y-51453D01*
X84083Y-51389D01*
X84098Y-51320D01*
X84100Y-51239D01*
X84086Y-51170D01*
X84059Y-51105D01*
X84020Y-51046D01*
X83970Y-50996D01*
X83912Y-50956D01*
X83846Y-50929D01*
X83777Y-50915D01*
X83755Y-50915D01*
X83755Y-50462D01*
X85087Y-49130D01*
X85860Y-49130D01*
X85883Y-49127D01*
X85907Y-49125D01*
X85909Y-49125D01*
X85910Y-49125D01*
X85933Y-49118D01*
X85956Y-49111D01*
X85957Y-49110D01*
X85959Y-49110D01*
X85980Y-49099D01*
X86001Y-49088D01*
X86002Y-49087D01*
X86003Y-49086D01*
X86022Y-49071D01*
X86041Y-49056D01*
X86042Y-49055D01*
X86062Y-49055D01*
X86132Y-49043D01*
X86198Y-49017D01*
X86257Y-48980D01*
X86308Y-48931D01*
X86349Y-48873D01*
X86378Y-48809D01*
X86393Y-48740D01*
X86395Y-48659D01*
X86382Y-48595D01*
X89092Y-48595D01*
X89684Y-49187D01*
X89598Y-49159D01*
X89488Y-49147D01*
X89377Y-49156D01*
X89271Y-49186D01*
X89173Y-49237D01*
X89158Y-49246D01*
X89126Y-49339D01*
X89479Y-49692D01*
X89485Y-49687D01*
X89506Y-49708D01*
X89500Y-49714D01*
X89853Y-50067D01*
X89946Y-50035D01*
X90000Y-49938D01*
X90034Y-49832D01*
X90040Y-49780D01*
X90040Y-51020D01*
X90042Y-51043D01*
X90044Y-51067D01*
X90044Y-51069D01*
X90044Y-51070D01*
X90051Y-51093D01*
X90058Y-51116D01*
X90059Y-51117D01*
X90059Y-51119D01*
X90070Y-51140D01*
X90081Y-51161D01*
X90082Y-51162D01*
X90083Y-51163D01*
X90098Y-51182D01*
X90113Y-51201D01*
X90115Y-51203D01*
X90115Y-51203D01*
X90115Y-51203D01*
X90116Y-51203D01*
X92080Y-53168D01*
G54D10*
G36*
X98762Y-59293D02*
X98521Y-62165D01*
X97727Y-64934D01*
X96410Y-67497D01*
X94620Y-69755D01*
X92425Y-71623D01*
X89910Y-73029D01*
X88462Y-73499D01*
X89270Y-72690D01*
X89286Y-72671D01*
X89302Y-72652D01*
X89303Y-72651D01*
X89303Y-72651D01*
X89333Y-72681D01*
X89424Y-72745D01*
X89525Y-72789D01*
X89633Y-72813D01*
X89744Y-72815D01*
X89853Y-72796D01*
X89956Y-72756D01*
X90050Y-72696D01*
X90130Y-72620D01*
X90194Y-72530D01*
X90239Y-72428D01*
X90263Y-72321D01*
X90264Y-72227D01*
X90290Y-72245D01*
X90391Y-72289D01*
X90499Y-72313D01*
X90610Y-72315D01*
X90719Y-72296D01*
X90822Y-72256D01*
X90916Y-72196D01*
X90996Y-72120D01*
X91060Y-72030D01*
X91105Y-71928D01*
X91129Y-71821D01*
X91130Y-71727D01*
X91156Y-71745D01*
X91257Y-71789D01*
X91365Y-71813D01*
X91476Y-71815D01*
X91585Y-71796D01*
X91688Y-71756D01*
X91782Y-71696D01*
X91862Y-71620D01*
X91926Y-71530D01*
X91971Y-71428D01*
X91990Y-71344D01*
X91997Y-71356D01*
X92024Y-71387D01*
X92057Y-71412D01*
X92094Y-71431D01*
X92134Y-71442D01*
X92175Y-71444D01*
X92216Y-71439D01*
X92255Y-71426D01*
X92290Y-71406D01*
X92905Y-71051D01*
X92936Y-71024D01*
X92962Y-70991D01*
X92980Y-70954D01*
X92991Y-70914D01*
X92993Y-70873D01*
X92988Y-70832D01*
X92975Y-70793D01*
X92955Y-70758D01*
X92600Y-70143D01*
X92573Y-70112D01*
X92540Y-70087D01*
X92503Y-70068D01*
X92463Y-70057D01*
X92422Y-70055D01*
X92381Y-70060D01*
X92342Y-70073D01*
X92307Y-70093D01*
X91966Y-70290D01*
X90570Y-70290D01*
X90545Y-70292D01*
X90520Y-70294D01*
X90518Y-70295D01*
X90517Y-70295D01*
X90493Y-70302D01*
X90469Y-70309D01*
X90468Y-70309D01*
X90467Y-70310D01*
X90445Y-70322D01*
X90422Y-70333D01*
X90421Y-70334D01*
X90420Y-70335D01*
X90401Y-70350D01*
X90381Y-70366D01*
X90379Y-70368D01*
X90379Y-70368D01*
X90379Y-70368D01*
X90379Y-70369D01*
X89738Y-71010D01*
X89730Y-71010D01*
X89705Y-71012D01*
X89680Y-71014D01*
X89678Y-71015D01*
X89677Y-71015D01*
X89653Y-71022D01*
X89629Y-71029D01*
X89628Y-71029D01*
X89627Y-71030D01*
X89605Y-71042D01*
X89582Y-71053D01*
X89581Y-71054D01*
X89580Y-71055D01*
X89561Y-71070D01*
X89541Y-71086D01*
X89539Y-71088D01*
X89539Y-71088D01*
X89539Y-71088D01*
X89539Y-71089D01*
X88936Y-71691D01*
X88932Y-71694D01*
X88931Y-71694D01*
X88930Y-71695D01*
X88910Y-71711D01*
X88891Y-71727D01*
X88890Y-71727D01*
X88889Y-71728D01*
X88873Y-71748D01*
X88857Y-71767D01*
X88856Y-71768D01*
X88856Y-71769D01*
X88844Y-71791D01*
X88831Y-71813D01*
X88831Y-71814D01*
X88831Y-71815D01*
X88823Y-71839D01*
X88815Y-71863D01*
X88815Y-71864D01*
X88815Y-71865D01*
X88812Y-71890D01*
X88810Y-71916D01*
X88810Y-71918D01*
X88810Y-71918D01*
X88810Y-71918D01*
X88810Y-71920D01*
X88810Y-72388D01*
X87968Y-73230D01*
X86064Y-73230D01*
X86064Y-73125D01*
X86056Y-73084D01*
X86040Y-73046D01*
X86017Y-73012D01*
X85988Y-72983D01*
X85954Y-72960D01*
X85916Y-72944D01*
X85876Y-72935D01*
X85835Y-72935D01*
X85447Y-72935D01*
X84460Y-71949D01*
X84441Y-71933D01*
X84422Y-71917D01*
X84421Y-71916D01*
X84420Y-71915D01*
X84398Y-71903D01*
X84376Y-71891D01*
X84375Y-71891D01*
X84373Y-71890D01*
X84349Y-71883D01*
X84326Y-71875D01*
X84324Y-71875D01*
X84323Y-71875D01*
X84298Y-71872D01*
X84273Y-71870D01*
X84270Y-71870D01*
X84270Y-71870D01*
X84270Y-71870D01*
X84270Y-71870D01*
X83461Y-71870D01*
X83190Y-71599D01*
X83171Y-71583D01*
X83152Y-71567D01*
X83151Y-71566D01*
X83150Y-71565D01*
X83128Y-71553D01*
X83106Y-71541D01*
X83105Y-71541D01*
X83103Y-71540D01*
X83079Y-71533D01*
X83056Y-71525D01*
X83054Y-71525D01*
X83053Y-71525D01*
X83028Y-71522D01*
X83003Y-71520D01*
X83000Y-71520D01*
X83000Y-71520D01*
X83000Y-71520D01*
X83000Y-71520D01*
X82790Y-71520D01*
X82765Y-71522D01*
X82740Y-71524D01*
X82738Y-71525D01*
X82737Y-71525D01*
X82713Y-71532D01*
X82689Y-71539D01*
X82688Y-71539D01*
X82687Y-71540D01*
X82665Y-71552D01*
X82642Y-71563D01*
X82641Y-71564D01*
X82640Y-71565D01*
X82621Y-71580D01*
X82601Y-71596D01*
X82599Y-71598D01*
X82599Y-71598D01*
X82599Y-71598D01*
X82599Y-71599D01*
X81158Y-73040D01*
X80790Y-73040D01*
X79611Y-73040D01*
X78947Y-72375D01*
X78975Y-72327D01*
X78988Y-72288D01*
X78993Y-72247D01*
X78991Y-72206D01*
X78980Y-72166D01*
X78962Y-72129D01*
X78937Y-72096D01*
X78907Y-72069D01*
X78871Y-72048D01*
X78256Y-71693D01*
X78217Y-71680D01*
X78176Y-71675D01*
X78135Y-71677D01*
X78095Y-71688D01*
X78058Y-71706D01*
X78025Y-71731D01*
X77998Y-71761D01*
X77989Y-71776D01*
X77975Y-71706D01*
X77933Y-71603D01*
X77872Y-71511D01*
X77794Y-71433D01*
X77702Y-71371D01*
X77693Y-71367D01*
X77693Y-71104D01*
X78787Y-70010D01*
X79650Y-70010D01*
X79673Y-70007D01*
X79697Y-70005D01*
X79699Y-70005D01*
X79700Y-70005D01*
X79723Y-69998D01*
X79746Y-69991D01*
X79747Y-69990D01*
X79749Y-69990D01*
X79770Y-69979D01*
X79791Y-69968D01*
X79792Y-69967D01*
X79793Y-69966D01*
X79812Y-69951D01*
X79831Y-69936D01*
X79833Y-69934D01*
X79833Y-69934D01*
X79833Y-69934D01*
X79833Y-69933D01*
X79957Y-69810D01*
X79977Y-69810D01*
X80047Y-69798D01*
X80113Y-69772D01*
X80172Y-69735D01*
X80223Y-69686D01*
X80264Y-69628D01*
X80293Y-69564D01*
X80308Y-69495D01*
X80310Y-69414D01*
X80303Y-69380D01*
X80323Y-69372D01*
X80382Y-69335D01*
X80433Y-69286D01*
X80474Y-69228D01*
X80503Y-69164D01*
X80518Y-69095D01*
X80520Y-69014D01*
X80516Y-68998D01*
X80517Y-68998D01*
X80583Y-68972D01*
X80642Y-68935D01*
X80693Y-68886D01*
X80734Y-68828D01*
X80763Y-68764D01*
X80778Y-68695D01*
X80780Y-68614D01*
X80766Y-68545D01*
X80739Y-68480D01*
X80700Y-68421D01*
X80650Y-68371D01*
X80592Y-68331D01*
X80526Y-68304D01*
X80457Y-68290D01*
X80387Y-68289D01*
X80317Y-68302D01*
X80252Y-68329D01*
X80193Y-68368D01*
X80142Y-68417D01*
X80141Y-68420D01*
X79740Y-68420D01*
X79716Y-68422D01*
X79692Y-68424D01*
X79690Y-68424D01*
X79689Y-68424D01*
X79666Y-68431D01*
X79643Y-68438D01*
X79642Y-68439D01*
X79640Y-68439D01*
X79619Y-68450D01*
X79598Y-68461D01*
X79597Y-68462D01*
X79596Y-68463D01*
X79577Y-68478D01*
X79558Y-68493D01*
X79556Y-68495D01*
X79556Y-68495D01*
X79556Y-68495D01*
X79556Y-68496D01*
X79192Y-68860D01*
X78480Y-68860D01*
X78456Y-68862D01*
X78432Y-68864D01*
X78430Y-68864D01*
X78429Y-68864D01*
X78406Y-68871D01*
X78383Y-68878D01*
X78382Y-68879D01*
X78380Y-68879D01*
X78359Y-68890D01*
X78338Y-68901D01*
X78337Y-68902D01*
X78336Y-68903D01*
X78317Y-68918D01*
X78298Y-68933D01*
X78296Y-68935D01*
X78296Y-68935D01*
X78296Y-68935D01*
X78296Y-68936D01*
X76832Y-70400D01*
X76030Y-70400D01*
X76015Y-70401D01*
X75970Y-70371D01*
X75868Y-70328D01*
X75760Y-70306D01*
X75649Y-70305D01*
X75540Y-70326D01*
X75438Y-70367D01*
X75345Y-70428D01*
X75266Y-70505D01*
X75204Y-70596D01*
X75160Y-70698D01*
X75137Y-70806D01*
X75135Y-70917D01*
X75155Y-71026D01*
X75196Y-71129D01*
X75256Y-71222D01*
X75333Y-71301D01*
X75424Y-71365D01*
X75525Y-71409D01*
X75633Y-71433D01*
X75744Y-71435D01*
X75853Y-71416D01*
X75956Y-71376D01*
X76002Y-71346D01*
X76001Y-71417D01*
X76021Y-71526D01*
X76062Y-71629D01*
X76122Y-71722D01*
X76199Y-71801D01*
X76290Y-71865D01*
X76391Y-71909D01*
X76499Y-71933D01*
X76610Y-71935D01*
X76719Y-71916D01*
X76822Y-71876D01*
X76868Y-71846D01*
X76867Y-71917D01*
X76887Y-72026D01*
X76928Y-72129D01*
X76988Y-72222D01*
X77065Y-72301D01*
X77156Y-72365D01*
X77257Y-72409D01*
X77365Y-72433D01*
X77476Y-72435D01*
X77585Y-72416D01*
X77630Y-72398D01*
X77622Y-72412D01*
X77609Y-72451D01*
X77604Y-72492D01*
X77606Y-72533D01*
X77617Y-72573D01*
X77635Y-72610D01*
X77660Y-72643D01*
X77690Y-72670D01*
X77726Y-72691D01*
X78341Y-73046D01*
X78380Y-73059D01*
X78421Y-73064D01*
X78462Y-73062D01*
X78502Y-73051D01*
X78539Y-73033D01*
X78572Y-73008D01*
X78599Y-72978D01*
X78620Y-72942D01*
X78668Y-72859D01*
X79232Y-73424D01*
X78661Y-73264D01*
X76089Y-71965D01*
X73818Y-70191D01*
X71935Y-68010D01*
X70512Y-65505D01*
X69804Y-63375D01*
X69806Y-63378D01*
X69808Y-63380D01*
X69808Y-63380D01*
X69808Y-63380D01*
X69809Y-63380D01*
X70859Y-64430D01*
X70859Y-64430D01*
X71066Y-64638D01*
X70969Y-64656D01*
X70867Y-64698D01*
X70774Y-64759D01*
X70695Y-64836D01*
X70633Y-64927D01*
X70589Y-65029D01*
X70566Y-65137D01*
X70564Y-65248D01*
X70584Y-65357D01*
X70625Y-65460D01*
X70685Y-65553D01*
X70762Y-65632D01*
X70853Y-65695D01*
X70954Y-65740D01*
X71062Y-65764D01*
X71152Y-65765D01*
X71133Y-65793D01*
X71089Y-65895D01*
X71066Y-66003D01*
X71064Y-66114D01*
X71084Y-66223D01*
X71125Y-66326D01*
X71185Y-66419D01*
X71262Y-66498D01*
X71353Y-66561D01*
X71454Y-66606D01*
X71562Y-66630D01*
X71652Y-66631D01*
X71633Y-66659D01*
X71589Y-66761D01*
X71566Y-66869D01*
X71564Y-66980D01*
X71584Y-67089D01*
X71625Y-67192D01*
X71685Y-67285D01*
X71762Y-67364D01*
X71853Y-67428D01*
X71954Y-67472D01*
X72036Y-67490D01*
X72023Y-67497D01*
X71992Y-67524D01*
X71967Y-67557D01*
X71948Y-67594D01*
X71937Y-67634D01*
X71935Y-67675D01*
X71940Y-67716D01*
X71953Y-67755D01*
X71973Y-67790D01*
X72328Y-68405D01*
X72355Y-68436D01*
X72388Y-68462D01*
X72425Y-68480D01*
X72465Y-68491D01*
X72506Y-68493D01*
X72547Y-68488D01*
X72586Y-68475D01*
X72621Y-68455D01*
X73236Y-68100D01*
X73267Y-68073D01*
X73292Y-68040D01*
X73311Y-68003D01*
X73322Y-67963D01*
X73324Y-67922D01*
X73319Y-67881D01*
X73306Y-67842D01*
X73296Y-67825D01*
X73750Y-67370D01*
X73766Y-67351D01*
X73782Y-67332D01*
X73783Y-67331D01*
X73784Y-67330D01*
X73796Y-67308D01*
X73808Y-67286D01*
X73808Y-67285D01*
X73809Y-67283D01*
X73816Y-67259D01*
X73824Y-67236D01*
X73824Y-67234D01*
X73824Y-67233D01*
X73827Y-67208D01*
X73829Y-67183D01*
X73829Y-67180D01*
X73829Y-67180D01*
X73829Y-67180D01*
X73830Y-67180D01*
X73830Y-66360D01*
X73827Y-66335D01*
X73825Y-66310D01*
X73824Y-66308D01*
X73824Y-66307D01*
X73817Y-66283D01*
X73810Y-66259D01*
X73810Y-66258D01*
X73809Y-66257D01*
X73797Y-66235D01*
X73786Y-66212D01*
X73785Y-66211D01*
X73784Y-66210D01*
X73769Y-66191D01*
X73753Y-66171D01*
X73751Y-66169D01*
X73751Y-66169D01*
X73751Y-66169D01*
X73750Y-66169D01*
X71930Y-64349D01*
X71911Y-64333D01*
X71892Y-64317D01*
X71891Y-64316D01*
X71890Y-64315D01*
X71868Y-64303D01*
X71846Y-64291D01*
X71845Y-64291D01*
X71843Y-64290D01*
X71819Y-64283D01*
X71796Y-64275D01*
X71794Y-64275D01*
X71793Y-64275D01*
X71768Y-64272D01*
X71743Y-64270D01*
X71740Y-64270D01*
X71740Y-64270D01*
X71740Y-64270D01*
X71740Y-64270D01*
X71461Y-64270D01*
X71240Y-64049D01*
X71240Y-64049D01*
X70270Y-63078D01*
X70270Y-61564D01*
X70374Y-61564D01*
X70415Y-61556D01*
X70453Y-61540D01*
X70487Y-61517D01*
X70516Y-61488D01*
X70539Y-61454D01*
X70555Y-61416D01*
X70564Y-61376D01*
X70564Y-61335D01*
X70564Y-60817D01*
X70995Y-60385D01*
X71011Y-60366D01*
X71027Y-60347D01*
X71028Y-60346D01*
X71029Y-60345D01*
X71041Y-60323D01*
X71053Y-60301D01*
X71053Y-60300D01*
X71054Y-60298D01*
X71061Y-60274D01*
X71069Y-60251D01*
X71069Y-60249D01*
X71069Y-60248D01*
X71072Y-60223D01*
X71074Y-60198D01*
X71074Y-60195D01*
X71074Y-60195D01*
X71074Y-60195D01*
X71075Y-60195D01*
X71075Y-59616D01*
X71421Y-59270D01*
X72202Y-59270D01*
X72255Y-59352D01*
X72332Y-59431D01*
X72423Y-59495D01*
X72433Y-59499D01*
X72344Y-59558D01*
X72265Y-59635D01*
X72203Y-59726D01*
X72194Y-59746D01*
X72176Y-59751D01*
X72153Y-59758D01*
X72152Y-59759D01*
X72150Y-59759D01*
X72129Y-59770D01*
X72108Y-59781D01*
X72107Y-59782D01*
X72106Y-59783D01*
X72087Y-59798D01*
X72068Y-59813D01*
X72066Y-59815D01*
X72066Y-59815D01*
X72066Y-59815D01*
X72066Y-59816D01*
X71766Y-60116D01*
X71750Y-60134D01*
X71735Y-60153D01*
X71734Y-60154D01*
X71733Y-60155D01*
X71722Y-60176D01*
X71711Y-60197D01*
X71710Y-60198D01*
X71709Y-60200D01*
X71702Y-60223D01*
X71695Y-60245D01*
X71695Y-60247D01*
X71695Y-60248D01*
X71692Y-60272D01*
X71690Y-60296D01*
X71690Y-60299D01*
X71690Y-60299D01*
X71690Y-60299D01*
X71690Y-60300D01*
X71690Y-61550D01*
X71692Y-61573D01*
X71694Y-61597D01*
X71694Y-61599D01*
X71694Y-61600D01*
X71701Y-61623D01*
X71708Y-61646D01*
X71709Y-61647D01*
X71709Y-61649D01*
X71720Y-61670D01*
X71731Y-61691D01*
X71732Y-61692D01*
X71733Y-61693D01*
X71748Y-61712D01*
X71763Y-61731D01*
X71765Y-61733D01*
X71765Y-61733D01*
X71765Y-61733D01*
X71766Y-61733D01*
X71896Y-61863D01*
X71914Y-61879D01*
X71933Y-61894D01*
X71934Y-61895D01*
X71935Y-61896D01*
X71956Y-61907D01*
X71977Y-61918D01*
X71978Y-61919D01*
X71980Y-61920D01*
X72003Y-61927D01*
X72025Y-61934D01*
X72027Y-61934D01*
X72028Y-61934D01*
X72052Y-61937D01*
X72076Y-61939D01*
X72079Y-61939D01*
X72079Y-61939D01*
X72079Y-61939D01*
X72080Y-61940D01*
X73160Y-61940D01*
X73183Y-61937D01*
X73207Y-61935D01*
X73209Y-61935D01*
X73210Y-61935D01*
X73233Y-61928D01*
X73256Y-61921D01*
X73257Y-61920D01*
X73259Y-61920D01*
X73280Y-61909D01*
X73301Y-61898D01*
X73302Y-61897D01*
X73303Y-61896D01*
X73322Y-61881D01*
X73341Y-61866D01*
X73343Y-61864D01*
X73343Y-61864D01*
X73343Y-61864D01*
X73343Y-61863D01*
X73637Y-61570D01*
X74230Y-61570D01*
X74209Y-61580D01*
X74188Y-61591D01*
X74187Y-61592D01*
X74186Y-61593D01*
X74167Y-61608D01*
X74148Y-61623D01*
X74146Y-61625D01*
X74146Y-61625D01*
X74146Y-61625D01*
X74146Y-61626D01*
X72806Y-62966D01*
X72790Y-62984D01*
X72775Y-63003D01*
X72774Y-63004D01*
X72773Y-63005D01*
X72762Y-63026D01*
X72751Y-63047D01*
X72750Y-63048D01*
X72749Y-63050D01*
X72742Y-63073D01*
X72735Y-63095D01*
X72735Y-63097D01*
X72735Y-63098D01*
X72732Y-63122D01*
X72730Y-63146D01*
X72730Y-63149D01*
X72730Y-63149D01*
X72730Y-63149D01*
X72730Y-63150D01*
X72730Y-64790D01*
X72732Y-64813D01*
X72734Y-64837D01*
X72734Y-64839D01*
X72734Y-64840D01*
X72741Y-64863D01*
X72748Y-64886D01*
X72749Y-64887D01*
X72749Y-64889D01*
X72760Y-64910D01*
X72771Y-64931D01*
X72772Y-64932D01*
X72773Y-64933D01*
X72788Y-64952D01*
X72803Y-64971D01*
X72805Y-64973D01*
X72805Y-64973D01*
X72805Y-64973D01*
X72806Y-64973D01*
X73906Y-66073D01*
X73924Y-66089D01*
X73943Y-66104D01*
X73944Y-66105D01*
X73945Y-66106D01*
X73966Y-66117D01*
X73987Y-66128D01*
X73988Y-66129D01*
X73990Y-66130D01*
X74013Y-66137D01*
X74035Y-66144D01*
X74037Y-66144D01*
X74038Y-66144D01*
X74062Y-66147D01*
X74086Y-66149D01*
X74089Y-66149D01*
X74089Y-66149D01*
X74089Y-66149D01*
X74090Y-66150D01*
X79682Y-66150D01*
X82010Y-68477D01*
X82010Y-69040D01*
X82010Y-69520D01*
X82012Y-69543D01*
X82014Y-69567D01*
X82014Y-69569D01*
X82014Y-69570D01*
X82021Y-69593D01*
X82028Y-69616D01*
X82029Y-69617D01*
X82029Y-69619D01*
X82040Y-69640D01*
X82051Y-69661D01*
X82052Y-69662D01*
X82053Y-69663D01*
X82068Y-69682D01*
X82083Y-69701D01*
X82085Y-69703D01*
X82085Y-69703D01*
X82085Y-69703D01*
X82086Y-69703D01*
X83686Y-71303D01*
X83704Y-71319D01*
X83723Y-71334D01*
X83724Y-71335D01*
X83725Y-71336D01*
X83746Y-71347D01*
X83767Y-71358D01*
X83768Y-71359D01*
X83770Y-71360D01*
X83793Y-71367D01*
X83815Y-71374D01*
X83817Y-71374D01*
X83818Y-71374D01*
X83842Y-71377D01*
X83866Y-71379D01*
X83869Y-71379D01*
X83869Y-71379D01*
X83869Y-71379D01*
X83870Y-71380D01*
X88510Y-71380D01*
X88533Y-71377D01*
X88557Y-71375D01*
X88559Y-71375D01*
X88560Y-71375D01*
X88583Y-71368D01*
X88606Y-71361D01*
X88607Y-71360D01*
X88609Y-71360D01*
X88630Y-71349D01*
X88651Y-71338D01*
X88652Y-71337D01*
X88653Y-71336D01*
X88672Y-71321D01*
X88691Y-71306D01*
X88693Y-71304D01*
X88693Y-71304D01*
X88693Y-71304D01*
X88693Y-71303D01*
X91167Y-68830D01*
X92850Y-68830D01*
X92865Y-68845D01*
X92923Y-68885D01*
X92988Y-68914D01*
X93057Y-68929D01*
X93127Y-68930D01*
X93197Y-68918D01*
X93263Y-68892D01*
X93322Y-68855D01*
X93373Y-68806D01*
X93414Y-68748D01*
X93443Y-68684D01*
X93458Y-68615D01*
X93460Y-68534D01*
X93449Y-68480D01*
X93600Y-68480D01*
X93615Y-68495D01*
X93673Y-68535D01*
X93738Y-68564D01*
X93807Y-68579D01*
X93877Y-68580D01*
X93947Y-68568D01*
X94013Y-68542D01*
X94072Y-68505D01*
X94123Y-68456D01*
X94164Y-68398D01*
X94193Y-68334D01*
X94208Y-68265D01*
X94210Y-68184D01*
X94196Y-68115D01*
X94173Y-68059D01*
X94866Y-68059D01*
X94925Y-68151D01*
X95002Y-68230D01*
X95093Y-68294D01*
X95194Y-68338D01*
X95302Y-68362D01*
X95413Y-68364D01*
X95522Y-68345D01*
X95625Y-68305D01*
X95719Y-68245D01*
X95799Y-68169D01*
X95863Y-68079D01*
X95908Y-67978D01*
X95932Y-67870D01*
X95934Y-67743D01*
X95912Y-67635D01*
X95870Y-67532D01*
X95846Y-67497D01*
X95913Y-67498D01*
X96022Y-67479D01*
X96125Y-67439D01*
X96219Y-67379D01*
X96299Y-67303D01*
X96363Y-67213D01*
X96408Y-67112D01*
X96432Y-67004D01*
X96434Y-66877D01*
X96412Y-66769D01*
X96370Y-66666D01*
X96346Y-66630D01*
X96413Y-66632D01*
X96522Y-66613D01*
X96625Y-66573D01*
X96719Y-66513D01*
X96799Y-66437D01*
X96863Y-66347D01*
X96908Y-66245D01*
X96932Y-66138D01*
X96934Y-66011D01*
X96912Y-65903D01*
X96898Y-65869D01*
X96912Y-65877D01*
X96951Y-65890D01*
X96992Y-65895D01*
X97033Y-65893D01*
X97073Y-65882D01*
X97110Y-65864D01*
X97143Y-65839D01*
X97170Y-65809D01*
X97191Y-65773D01*
X97546Y-65158D01*
X97559Y-65119D01*
X97564Y-65078D01*
X97562Y-65037D01*
X97551Y-64997D01*
X97533Y-64960D01*
X97508Y-64927D01*
X97478Y-64900D01*
X97442Y-64879D01*
X97140Y-64705D01*
X97140Y-58481D01*
X97351Y-58270D01*
X97435Y-58270D01*
X97435Y-58374D01*
X97443Y-58415D01*
X97459Y-58453D01*
X97482Y-58487D01*
X97511Y-58516D01*
X97545Y-58539D01*
X97583Y-58555D01*
X97623Y-58564D01*
X97638Y-58564D01*
X97565Y-58635D01*
X97503Y-58726D01*
X97459Y-58828D01*
X97436Y-58936D01*
X97434Y-59047D01*
X97454Y-59156D01*
X97495Y-59259D01*
X97555Y-59352D01*
X97632Y-59431D01*
X97723Y-59495D01*
X97733Y-59499D01*
X97644Y-59558D01*
X97565Y-59635D01*
X97503Y-59726D01*
X97459Y-59828D01*
X97436Y-59936D01*
X97434Y-60047D01*
X97454Y-60156D01*
X97495Y-60259D01*
X97555Y-60352D01*
X97632Y-60431D01*
X97723Y-60495D01*
X97733Y-60499D01*
X97644Y-60558D01*
X97565Y-60635D01*
X97503Y-60726D01*
X97459Y-60828D01*
X97436Y-60936D01*
X97434Y-61047D01*
X97454Y-61156D01*
X97495Y-61259D01*
X97555Y-61352D01*
X97632Y-61431D01*
X97723Y-61495D01*
X97824Y-61539D01*
X97932Y-61563D01*
X98043Y-61565D01*
X98152Y-61546D01*
X98255Y-61506D01*
X98349Y-61446D01*
X98429Y-61370D01*
X98493Y-61280D01*
X98538Y-61178D01*
X98562Y-61071D01*
X98564Y-60944D01*
X98542Y-60836D01*
X98500Y-60733D01*
X98439Y-60641D01*
X98361Y-60563D01*
X98269Y-60501D01*
X98265Y-60499D01*
X98349Y-60446D01*
X98429Y-60370D01*
X98493Y-60280D01*
X98538Y-60178D01*
X98562Y-60071D01*
X98564Y-59944D01*
X98542Y-59836D01*
X98500Y-59733D01*
X98439Y-59641D01*
X98361Y-59563D01*
X98269Y-59501D01*
X98265Y-59499D01*
X98349Y-59446D01*
X98429Y-59370D01*
X98493Y-59280D01*
X98538Y-59178D01*
X98562Y-59071D01*
X98564Y-58944D01*
X98542Y-58836D01*
X98500Y-58733D01*
X98439Y-58641D01*
X98362Y-58564D01*
X98374Y-58564D01*
X98415Y-58556D01*
X98453Y-58540D01*
X98487Y-58517D01*
X98516Y-58488D01*
X98539Y-58454D01*
X98555Y-58416D01*
X98564Y-58376D01*
X98564Y-58335D01*
X98564Y-57625D01*
X98556Y-57584D01*
X98540Y-57546D01*
X98517Y-57512D01*
X98488Y-57483D01*
X98454Y-57460D01*
X98416Y-57444D01*
X98376Y-57435D01*
X98335Y-57435D01*
X97625Y-57435D01*
X97584Y-57443D01*
X97546Y-57459D01*
X97512Y-57482D01*
X97483Y-57511D01*
X97460Y-57545D01*
X97444Y-57583D01*
X97435Y-57623D01*
X97435Y-57664D01*
X97435Y-57730D01*
X97240Y-57730D01*
X97215Y-57732D01*
X97190Y-57734D01*
X97188Y-57735D01*
X97187Y-57735D01*
X97163Y-57742D01*
X97139Y-57749D01*
X97138Y-57749D01*
X97137Y-57750D01*
X97115Y-57762D01*
X97092Y-57773D01*
X97091Y-57774D01*
X97090Y-57775D01*
X97071Y-57790D01*
X97051Y-57806D01*
X97049Y-57808D01*
X97049Y-57808D01*
X97049Y-57808D01*
X97049Y-57809D01*
X96679Y-58179D01*
X96663Y-58198D01*
X96647Y-58217D01*
X96646Y-58218D01*
X96645Y-58219D01*
X96633Y-58241D01*
X96621Y-58263D01*
X96621Y-58264D01*
X96620Y-58266D01*
X96613Y-58290D01*
X96605Y-58313D01*
X96605Y-58315D01*
X96605Y-58316D01*
X96602Y-58341D01*
X96600Y-58366D01*
X96600Y-58369D01*
X96600Y-58369D01*
X96600Y-58369D01*
X96600Y-58370D01*
X96600Y-64559D01*
X96596Y-64562D01*
X96569Y-64592D01*
X96548Y-64628D01*
X96193Y-65243D01*
X96180Y-65282D01*
X96175Y-65323D01*
X96177Y-65364D01*
X96188Y-65404D01*
X96206Y-65441D01*
X96231Y-65474D01*
X96261Y-65501D01*
X96276Y-65510D01*
X96209Y-65522D01*
X96107Y-65564D01*
X96014Y-65625D01*
X95935Y-65702D01*
X95873Y-65793D01*
X95829Y-65895D01*
X95806Y-66003D01*
X95804Y-66114D01*
X95824Y-66223D01*
X95865Y-66326D01*
X95893Y-66368D01*
X95818Y-66368D01*
X95709Y-66389D01*
X95607Y-66430D01*
X95514Y-66491D01*
X95435Y-66568D01*
X95373Y-66659D01*
X95329Y-66761D01*
X95306Y-66869D01*
X95304Y-66980D01*
X95324Y-67089D01*
X95365Y-67192D01*
X95393Y-67234D01*
X95318Y-67234D01*
X95209Y-67255D01*
X95107Y-67296D01*
X95014Y-67357D01*
X94935Y-67434D01*
X94873Y-67525D01*
X94867Y-67539D01*
X91940Y-67539D01*
X91346Y-67539D01*
X91346Y-65994D01*
X91343Y-65962D01*
X91343Y-64158D01*
X91322Y-64050D01*
X91280Y-63947D01*
X91218Y-63855D01*
X91140Y-63777D01*
X91049Y-63715D01*
X90947Y-63672D01*
X90838Y-63650D01*
X90728Y-63649D01*
X90619Y-63670D01*
X90516Y-63711D01*
X90424Y-63772D01*
X90345Y-63849D01*
X90282Y-63940D01*
X90239Y-64042D01*
X90216Y-64150D01*
X90214Y-64261D01*
X90234Y-64370D01*
X90275Y-64473D01*
X90335Y-64566D01*
X90412Y-64646D01*
X90502Y-64709D01*
X90604Y-64753D01*
X90712Y-64777D01*
X90823Y-64779D01*
X90932Y-64760D01*
X91035Y-64720D01*
X91128Y-64661D01*
X91208Y-64584D01*
X91272Y-64494D01*
X91317Y-64393D01*
X91342Y-64285D01*
X91343Y-64158D01*
X91343Y-65962D01*
X91337Y-65884D01*
X91307Y-65777D01*
X91256Y-65679D01*
X91246Y-65664D01*
X91153Y-65632D01*
X91132Y-65653D01*
X91132Y-65611D01*
X91100Y-65518D01*
X91003Y-65464D01*
X90898Y-65431D01*
X90788Y-65418D01*
X90677Y-65427D01*
X90571Y-65458D01*
X90473Y-65508D01*
X90458Y-65518D01*
X90426Y-65611D01*
X90779Y-65964D01*
X91132Y-65611D01*
X91132Y-65653D01*
X90800Y-65985D01*
X91153Y-66338D01*
X91246Y-66306D01*
X91300Y-66209D01*
X91334Y-66104D01*
X91346Y-65994D01*
X91346Y-67539D01*
X91180Y-67539D01*
X91157Y-67541D01*
X91133Y-67543D01*
X91132Y-67543D01*
X91132Y-66360D01*
X90779Y-66007D01*
X90758Y-66028D01*
X90758Y-65985D01*
X90405Y-65632D01*
X90312Y-65664D01*
X90258Y-65761D01*
X90225Y-65867D01*
X90212Y-65977D01*
X90221Y-66087D01*
X90251Y-66193D01*
X90302Y-66292D01*
X90312Y-66306D01*
X90405Y-66338D01*
X90758Y-65985D01*
X90758Y-66028D01*
X90426Y-66360D01*
X90458Y-66453D01*
X90555Y-66506D01*
X90660Y-66540D01*
X90770Y-66552D01*
X90881Y-66543D01*
X90987Y-66513D01*
X91086Y-66462D01*
X91100Y-66453D01*
X91132Y-66360D01*
X91132Y-67543D01*
X91131Y-67543D01*
X91130Y-67543D01*
X91107Y-67550D01*
X91084Y-67557D01*
X91083Y-67558D01*
X91081Y-67558D01*
X91060Y-67569D01*
X91039Y-67580D01*
X91038Y-67581D01*
X91037Y-67582D01*
X91018Y-67597D01*
X90999Y-67612D01*
X90997Y-67614D01*
X90997Y-67614D01*
X90997Y-67614D01*
X90997Y-67615D01*
X88787Y-69824D01*
X88787Y-65994D01*
X88778Y-65884D01*
X88748Y-65777D01*
X88697Y-65679D01*
X88687Y-65664D01*
X88594Y-65632D01*
X88573Y-65653D01*
X88573Y-65611D01*
X88541Y-65518D01*
X88444Y-65464D01*
X88339Y-65431D01*
X88229Y-65418D01*
X88118Y-65427D01*
X88012Y-65458D01*
X87913Y-65508D01*
X87899Y-65518D01*
X87867Y-65611D01*
X88220Y-65964D01*
X88573Y-65611D01*
X88573Y-65653D01*
X88241Y-65985D01*
X88594Y-66338D01*
X88687Y-66306D01*
X88741Y-66209D01*
X88774Y-66104D01*
X88787Y-65994D01*
X88787Y-69824D01*
X88573Y-70038D01*
X88573Y-66360D01*
X88220Y-66007D01*
X88199Y-66028D01*
X88199Y-65985D01*
X87846Y-65632D01*
X87753Y-65664D01*
X87699Y-65761D01*
X87665Y-65867D01*
X87653Y-65977D01*
X87662Y-66087D01*
X87692Y-66193D01*
X87743Y-66292D01*
X87753Y-66306D01*
X87846Y-66338D01*
X88199Y-65985D01*
X88199Y-66028D01*
X87867Y-66360D01*
X87899Y-66453D01*
X87996Y-66506D01*
X88101Y-66540D01*
X88211Y-66552D01*
X88322Y-66543D01*
X88428Y-66513D01*
X88526Y-66462D01*
X88541Y-66453D01*
X88573Y-66360D01*
X88573Y-70038D01*
X88182Y-70430D01*
X86902Y-70430D01*
X86902Y-67929D01*
X86875Y-67790D01*
X86821Y-67659D01*
X86743Y-67541D01*
X86643Y-67441D01*
X86526Y-67361D01*
X86395Y-67307D01*
X86256Y-67278D01*
X86115Y-67277D01*
X85976Y-67304D01*
X85845Y-67357D01*
X85726Y-67434D01*
X85625Y-67533D01*
X85545Y-67650D01*
X85489Y-67780D01*
X85460Y-67919D01*
X85458Y-68060D01*
X85483Y-68199D01*
X85536Y-68331D01*
X85612Y-68450D01*
X85711Y-68552D01*
X85827Y-68633D01*
X85956Y-68689D01*
X86095Y-68720D01*
X86236Y-68723D01*
X86376Y-68698D01*
X86508Y-68647D01*
X86627Y-68571D01*
X86730Y-68473D01*
X86811Y-68358D01*
X86869Y-68228D01*
X86900Y-68090D01*
X86902Y-67929D01*
X86902Y-70430D01*
X85725Y-70430D01*
X85725Y-69865D01*
X85714Y-69724D01*
X85676Y-69588D01*
X85612Y-69461D01*
X85595Y-69436D01*
X85486Y-69385D01*
X85465Y-69406D01*
X85465Y-69364D01*
X85414Y-69254D01*
X85290Y-69185D01*
X85155Y-69142D01*
X85015Y-69125D01*
X84874Y-69136D01*
X84737Y-69174D01*
X84611Y-69237D01*
X84585Y-69254D01*
X84544Y-69344D01*
X84544Y-68015D01*
X84533Y-67874D01*
X84495Y-67737D01*
X84431Y-67611D01*
X84414Y-67585D01*
X84305Y-67534D01*
X84283Y-67556D01*
X84283Y-67513D01*
X84232Y-67404D01*
X84109Y-67335D01*
X83974Y-67291D01*
X83834Y-67274D01*
X83693Y-67285D01*
X83556Y-67323D01*
X83430Y-67387D01*
X83404Y-67404D01*
X83353Y-67513D01*
X83818Y-67978D01*
X84283Y-67513D01*
X84283Y-67556D01*
X83840Y-68000D01*
X84305Y-68465D01*
X84414Y-68414D01*
X84483Y-68290D01*
X84527Y-68155D01*
X84544Y-68015D01*
X84544Y-69344D01*
X84534Y-69364D01*
X85000Y-69829D01*
X85465Y-69364D01*
X85465Y-69406D01*
X85021Y-69850D01*
X85486Y-70315D01*
X85595Y-70264D01*
X85664Y-70140D01*
X85708Y-70006D01*
X85725Y-69865D01*
X85725Y-70430D01*
X85421Y-70430D01*
X85465Y-70336D01*
X85000Y-69871D01*
X84978Y-69892D01*
X84978Y-69850D01*
X84513Y-69385D01*
X84404Y-69436D01*
X84335Y-69559D01*
X84291Y-69694D01*
X84283Y-69759D01*
X84283Y-68486D01*
X83818Y-68021D01*
X83797Y-68042D01*
X83797Y-68000D01*
X83332Y-67534D01*
X83223Y-67585D01*
X83154Y-67709D01*
X83110Y-67844D01*
X83093Y-67984D01*
X83104Y-68125D01*
X83142Y-68262D01*
X83206Y-68388D01*
X83223Y-68414D01*
X83332Y-68465D01*
X83797Y-68000D01*
X83797Y-68042D01*
X83353Y-68486D01*
X83404Y-68595D01*
X83528Y-68664D01*
X83662Y-68708D01*
X83803Y-68725D01*
X83944Y-68714D01*
X84081Y-68676D01*
X84207Y-68612D01*
X84232Y-68595D01*
X84283Y-68486D01*
X84283Y-69759D01*
X84274Y-69835D01*
X84285Y-69976D01*
X84323Y-70112D01*
X84387Y-70238D01*
X84404Y-70264D01*
X84513Y-70315D01*
X84978Y-69850D01*
X84978Y-69892D01*
X84534Y-70336D01*
X84578Y-70430D01*
X84187Y-70430D01*
X82950Y-69192D01*
X82950Y-69100D01*
X82950Y-68170D01*
X82947Y-68146D01*
X82945Y-68122D01*
X82945Y-68120D01*
X82945Y-68119D01*
X82938Y-68096D01*
X82931Y-68073D01*
X82930Y-68072D01*
X82930Y-68070D01*
X82919Y-68049D01*
X82908Y-68028D01*
X82907Y-68027D01*
X82906Y-68026D01*
X82891Y-68007D01*
X82876Y-67988D01*
X82874Y-67986D01*
X82874Y-67986D01*
X82874Y-67986D01*
X82873Y-67986D01*
X80173Y-65286D01*
X80155Y-65270D01*
X80136Y-65255D01*
X80135Y-65254D01*
X80134Y-65253D01*
X80113Y-65242D01*
X80092Y-65231D01*
X80091Y-65230D01*
X80089Y-65229D01*
X80066Y-65222D01*
X80044Y-65215D01*
X80042Y-65215D01*
X80041Y-65215D01*
X80017Y-65212D01*
X79993Y-65210D01*
X79990Y-65210D01*
X79990Y-65210D01*
X79990Y-65210D01*
X79990Y-65210D01*
X75687Y-65210D01*
X75837Y-65060D01*
X79250Y-65060D01*
X79273Y-65057D01*
X79297Y-65055D01*
X79299Y-65055D01*
X79300Y-65055D01*
X79323Y-65048D01*
X79346Y-65041D01*
X79347Y-65040D01*
X79349Y-65040D01*
X79370Y-65029D01*
X79391Y-65018D01*
X79392Y-65017D01*
X79393Y-65016D01*
X79412Y-65001D01*
X79431Y-64986D01*
X79433Y-64984D01*
X79433Y-64984D01*
X79433Y-64984D01*
X79433Y-64983D01*
X81133Y-63283D01*
X81149Y-63265D01*
X81164Y-63246D01*
X81165Y-63245D01*
X81166Y-63244D01*
X81177Y-63223D01*
X81188Y-63202D01*
X81189Y-63201D01*
X81190Y-63199D01*
X81197Y-63176D01*
X81204Y-63154D01*
X81204Y-63152D01*
X81204Y-63151D01*
X81207Y-63127D01*
X81209Y-63103D01*
X81209Y-63100D01*
X81209Y-63100D01*
X81209Y-63100D01*
X81210Y-63100D01*
X81210Y-62679D01*
X81223Y-62666D01*
X81264Y-62608D01*
X81293Y-62544D01*
X81308Y-62475D01*
X81310Y-62394D01*
X81296Y-62325D01*
X81269Y-62260D01*
X81230Y-62201D01*
X81180Y-62151D01*
X81122Y-62111D01*
X81056Y-62084D01*
X80987Y-62070D01*
X80917Y-62069D01*
X80847Y-62082D01*
X80782Y-62109D01*
X80723Y-62148D01*
X80679Y-62190D01*
X80616Y-62164D01*
X80547Y-62150D01*
X80477Y-62149D01*
X80407Y-62162D01*
X80342Y-62189D01*
X80283Y-62228D01*
X80232Y-62277D01*
X80193Y-62335D01*
X80165Y-62400D01*
X80150Y-62469D01*
X80149Y-62540D01*
X80162Y-62609D01*
X80165Y-62617D01*
X80133Y-62638D01*
X80082Y-62687D01*
X80043Y-62745D01*
X80015Y-62810D01*
X80000Y-62879D01*
X80000Y-62912D01*
X78812Y-64100D01*
X78177Y-64100D01*
X78363Y-63913D01*
X78379Y-63895D01*
X78394Y-63876D01*
X78395Y-63875D01*
X78396Y-63874D01*
X78407Y-63853D01*
X78418Y-63832D01*
X78419Y-63831D01*
X78420Y-63829D01*
X78427Y-63806D01*
X78434Y-63784D01*
X78434Y-63782D01*
X78434Y-63781D01*
X78437Y-63757D01*
X78439Y-63733D01*
X78439Y-63730D01*
X78439Y-63730D01*
X78439Y-63730D01*
X78440Y-63730D01*
X78440Y-62690D01*
X78440Y-62527D01*
X79392Y-61575D01*
X79450Y-61575D01*
X80085Y-61575D01*
X80108Y-61572D01*
X80132Y-61570D01*
X80134Y-61570D01*
X80135Y-61570D01*
X80158Y-61563D01*
X80181Y-61556D01*
X80182Y-61555D01*
X80184Y-61555D01*
X80205Y-61544D01*
X80226Y-61533D01*
X80227Y-61532D01*
X80228Y-61531D01*
X80247Y-61516D01*
X80266Y-61501D01*
X80268Y-61499D01*
X80268Y-61499D01*
X80268Y-61499D01*
X80268Y-61498D01*
X80870Y-60897D01*
X80870Y-61250D01*
X80862Y-61257D01*
X80823Y-61315D01*
X80795Y-61380D01*
X80780Y-61449D01*
X80779Y-61520D01*
X80792Y-61589D01*
X80818Y-61655D01*
X80856Y-61714D01*
X80905Y-61765D01*
X80963Y-61805D01*
X81028Y-61834D01*
X81097Y-61849D01*
X81167Y-61850D01*
X81237Y-61838D01*
X81303Y-61812D01*
X81362Y-61775D01*
X81413Y-61726D01*
X81454Y-61668D01*
X81483Y-61604D01*
X81498Y-61535D01*
X81500Y-61454D01*
X81486Y-61385D01*
X81459Y-61320D01*
X81420Y-61261D01*
X81410Y-61250D01*
X81410Y-60831D01*
X81501Y-60740D01*
X81507Y-60740D01*
X81540Y-60734D01*
X81540Y-63330D01*
X81542Y-63353D01*
X81544Y-63377D01*
X81544Y-63379D01*
X81544Y-63380D01*
X81551Y-63403D01*
X81558Y-63426D01*
X81559Y-63427D01*
X81559Y-63429D01*
X81570Y-63450D01*
X81581Y-63471D01*
X81582Y-63472D01*
X81583Y-63473D01*
X81598Y-63492D01*
X81613Y-63511D01*
X81615Y-63513D01*
X81615Y-63513D01*
X81615Y-63513D01*
X81616Y-63513D01*
X82500Y-64398D01*
X82518Y-64413D01*
X82537Y-64428D01*
X82538Y-64429D01*
X82539Y-64430D01*
X82560Y-64441D01*
X82581Y-64453D01*
X82583Y-64453D01*
X82584Y-64454D01*
X82607Y-64461D01*
X82630Y-64468D01*
X82631Y-64468D01*
X82632Y-64469D01*
X82656Y-64471D01*
X82680Y-64474D01*
X82683Y-64474D01*
X82683Y-64474D01*
X82683Y-64474D01*
X82684Y-64474D01*
X87716Y-64474D01*
X87776Y-64566D01*
X87852Y-64646D01*
X87943Y-64709D01*
X88045Y-64753D01*
X88153Y-64777D01*
X88263Y-64779D01*
X88372Y-64760D01*
X88476Y-64720D01*
X88569Y-64661D01*
X88649Y-64584D01*
X88713Y-64494D01*
X88758Y-64393D01*
X88783Y-64285D01*
X88784Y-64158D01*
X88763Y-64050D01*
X88721Y-63947D01*
X88659Y-63855D01*
X88581Y-63777D01*
X88490Y-63715D01*
X88388Y-63672D01*
X88279Y-63650D01*
X88169Y-63649D01*
X88060Y-63670D01*
X87957Y-63711D01*
X87865Y-63772D01*
X87786Y-63849D01*
X87723Y-63940D01*
X87717Y-63954D01*
X82791Y-63954D01*
X82060Y-63222D01*
X82060Y-61517D01*
X82476Y-61933D01*
X82494Y-61949D01*
X82513Y-61964D01*
X82514Y-61965D01*
X82515Y-61966D01*
X82536Y-61977D01*
X82557Y-61988D01*
X82558Y-61989D01*
X82560Y-61990D01*
X82583Y-61997D01*
X82605Y-62004D01*
X82607Y-62004D01*
X82608Y-62004D01*
X82632Y-62007D01*
X82656Y-62009D01*
X82659Y-62009D01*
X82659Y-62009D01*
X82659Y-62009D01*
X82660Y-62010D01*
X83300Y-62010D01*
X83323Y-62007D01*
X83347Y-62005D01*
X83349Y-62005D01*
X83350Y-62005D01*
X83373Y-61998D01*
X83396Y-61991D01*
X83397Y-61990D01*
X83399Y-61990D01*
X83420Y-61979D01*
X83441Y-61968D01*
X83442Y-61967D01*
X83443Y-61966D01*
X83462Y-61951D01*
X83481Y-61936D01*
X83483Y-61934D01*
X83483Y-61934D01*
X83483Y-61934D01*
X83483Y-61933D01*
X84630Y-60787D01*
X84653Y-60845D01*
X84691Y-60904D01*
X84740Y-60955D01*
X84798Y-60995D01*
X84863Y-61024D01*
X84932Y-61039D01*
X85002Y-61040D01*
X85072Y-61028D01*
X85138Y-61002D01*
X85197Y-60965D01*
X85248Y-60916D01*
X85289Y-60858D01*
X85318Y-60794D01*
X85324Y-60765D01*
X87895Y-60765D01*
X87918Y-60762D01*
X87942Y-60760D01*
X87944Y-60760D01*
X87945Y-60760D01*
X87968Y-60753D01*
X87991Y-60746D01*
X87992Y-60745D01*
X87994Y-60745D01*
X88015Y-60734D01*
X88036Y-60723D01*
X88037Y-60722D01*
X88038Y-60721D01*
X88057Y-60706D01*
X88076Y-60691D01*
X88078Y-60689D01*
X88078Y-60689D01*
X88078Y-60689D01*
X88078Y-60688D01*
X91112Y-57655D01*
X91925Y-57655D01*
X91948Y-57652D01*
X91972Y-57650D01*
X91974Y-57650D01*
X91975Y-57650D01*
X91998Y-57643D01*
X92021Y-57636D01*
X92022Y-57635D01*
X92024Y-57635D01*
X92045Y-57624D01*
X92066Y-57613D01*
X92067Y-57612D01*
X92068Y-57611D01*
X92087Y-57596D01*
X92106Y-57581D01*
X92108Y-57579D01*
X92108Y-57579D01*
X92108Y-57579D01*
X92108Y-57578D01*
X92297Y-57390D01*
X92317Y-57390D01*
X92387Y-57378D01*
X92453Y-57352D01*
X92512Y-57315D01*
X92563Y-57266D01*
X92604Y-57208D01*
X92633Y-57144D01*
X92648Y-57075D01*
X92650Y-56994D01*
X92636Y-56925D01*
X92609Y-56860D01*
X92570Y-56801D01*
X92520Y-56751D01*
X92462Y-56711D01*
X92396Y-56684D01*
X92337Y-56672D01*
X92326Y-56615D01*
X92299Y-56550D01*
X92260Y-56491D01*
X92210Y-56441D01*
X92152Y-56401D01*
X92086Y-56374D01*
X92017Y-56360D01*
X91947Y-56359D01*
X91877Y-56372D01*
X91812Y-56399D01*
X91753Y-56438D01*
X91702Y-56487D01*
X91663Y-56545D01*
X91635Y-56610D01*
X91620Y-56679D01*
X91620Y-56712D01*
X91409Y-56922D01*
X90912Y-56922D01*
X90888Y-56924D01*
X90864Y-56926D01*
X90863Y-56927D01*
X90861Y-56927D01*
X90838Y-56934D01*
X90815Y-56941D01*
X90814Y-56941D01*
X90813Y-56942D01*
X90792Y-56953D01*
X90770Y-56964D01*
X90769Y-56965D01*
X90768Y-56965D01*
X90750Y-56981D01*
X90731Y-56996D01*
X90729Y-56997D01*
X90729Y-56998D01*
X90729Y-56998D01*
X90728Y-56998D01*
X87702Y-60025D01*
X86434Y-60025D01*
X86438Y-60005D01*
X86440Y-59924D01*
X86426Y-59855D01*
X86399Y-59790D01*
X86360Y-59731D01*
X86310Y-59681D01*
X86252Y-59641D01*
X86186Y-59614D01*
X86117Y-59600D01*
X86087Y-59600D01*
X85983Y-59496D01*
X85965Y-59480D01*
X85946Y-59465D01*
X85945Y-59464D01*
X85944Y-59463D01*
X85923Y-59452D01*
X85902Y-59441D01*
X85901Y-59440D01*
X85899Y-59439D01*
X85876Y-59432D01*
X85854Y-59425D01*
X85852Y-59425D01*
X85851Y-59425D01*
X85827Y-59422D01*
X85803Y-59420D01*
X85800Y-59420D01*
X85800Y-59420D01*
X85800Y-59420D01*
X85800Y-59420D01*
X84849Y-59420D01*
X84830Y-59401D01*
X84772Y-59361D01*
X84706Y-59334D01*
X84637Y-59320D01*
X84567Y-59319D01*
X84497Y-59332D01*
X84432Y-59359D01*
X84373Y-59398D01*
X84322Y-59447D01*
X84283Y-59505D01*
X84255Y-59570D01*
X84240Y-59639D01*
X84239Y-59710D01*
X84252Y-59779D01*
X84278Y-59845D01*
X84316Y-59904D01*
X84365Y-59955D01*
X84423Y-59995D01*
X84488Y-60024D01*
X84557Y-60039D01*
X84627Y-60040D01*
X84697Y-60028D01*
X84763Y-60002D01*
X84822Y-59965D01*
X84849Y-59940D01*
X85692Y-59940D01*
X85719Y-59967D01*
X85719Y-59990D01*
X85725Y-60025D01*
X84765Y-60025D01*
X84741Y-60027D01*
X84717Y-60029D01*
X84715Y-60029D01*
X84714Y-60029D01*
X84691Y-60036D01*
X84668Y-60043D01*
X84667Y-60044D01*
X84665Y-60044D01*
X84644Y-60055D01*
X84623Y-60066D01*
X84622Y-60067D01*
X84621Y-60068D01*
X84602Y-60083D01*
X84583Y-60098D01*
X84581Y-60100D01*
X84581Y-60100D01*
X84581Y-60100D01*
X84581Y-60101D01*
X83950Y-60732D01*
X83950Y-59110D01*
X83953Y-59106D01*
X83994Y-59048D01*
X84023Y-58984D01*
X84038Y-58915D01*
X84040Y-58834D01*
X84026Y-58765D01*
X83999Y-58700D01*
X83960Y-58641D01*
X83910Y-58591D01*
X83852Y-58551D01*
X83786Y-58524D01*
X83717Y-58510D01*
X83647Y-58509D01*
X83577Y-58522D01*
X83512Y-58549D01*
X83453Y-58588D01*
X83402Y-58637D01*
X83363Y-58695D01*
X83335Y-58760D01*
X83320Y-58829D01*
X83319Y-58900D01*
X83332Y-58969D01*
X83358Y-59035D01*
X83396Y-59094D01*
X83410Y-59108D01*
X83410Y-60718D01*
X83368Y-60759D01*
X83357Y-60759D01*
X83287Y-60772D01*
X83222Y-60799D01*
X83163Y-60838D01*
X83112Y-60887D01*
X83073Y-60945D01*
X83045Y-61010D01*
X83030Y-61079D01*
X83029Y-61150D01*
X83042Y-61219D01*
X83068Y-61285D01*
X83106Y-61344D01*
X83155Y-61395D01*
X83213Y-61435D01*
X83236Y-61445D01*
X83192Y-61490D01*
X82767Y-61490D01*
X82395Y-61117D01*
X82395Y-60804D01*
X82408Y-60791D01*
X82449Y-60733D01*
X82478Y-60669D01*
X82493Y-60600D01*
X82495Y-60519D01*
X82481Y-60450D01*
X82454Y-60385D01*
X82415Y-60326D01*
X82365Y-60276D01*
X82309Y-60238D01*
X82803Y-59743D01*
X82819Y-59725D01*
X82834Y-59706D01*
X82835Y-59705D01*
X82836Y-59704D01*
X82847Y-59683D01*
X82858Y-59662D01*
X82859Y-59661D01*
X82860Y-59659D01*
X82867Y-59636D01*
X82874Y-59614D01*
X82874Y-59612D01*
X82874Y-59611D01*
X82877Y-59587D01*
X82879Y-59563D01*
X82879Y-59560D01*
X82879Y-59560D01*
X82879Y-59560D01*
X82880Y-59560D01*
X82880Y-59130D01*
X82880Y-58112D01*
X82907Y-58095D01*
X82934Y-58070D01*
X83090Y-58070D01*
X83810Y-58070D01*
X83833Y-58067D01*
X83857Y-58065D01*
X83859Y-58065D01*
X83860Y-58065D01*
X83883Y-58058D01*
X83906Y-58051D01*
X83907Y-58050D01*
X83909Y-58050D01*
X83930Y-58039D01*
X83951Y-58028D01*
X83952Y-58027D01*
X83953Y-58026D01*
X83972Y-58011D01*
X83991Y-57996D01*
X83993Y-57994D01*
X83993Y-57994D01*
X83993Y-57994D01*
X83993Y-57993D01*
X85127Y-56860D01*
X86110Y-56860D01*
X91065Y-56860D01*
X91088Y-56857D01*
X91112Y-56855D01*
X91114Y-56855D01*
X91115Y-56855D01*
X91138Y-56848D01*
X91161Y-56841D01*
X91162Y-56840D01*
X91164Y-56840D01*
X91185Y-56829D01*
X91206Y-56818D01*
X91207Y-56817D01*
X91208Y-56816D01*
X91227Y-56801D01*
X91246Y-56786D01*
X91248Y-56784D01*
X91248Y-56784D01*
X91248Y-56784D01*
X91248Y-56783D01*
X93421Y-54610D01*
X93443Y-54625D01*
X93508Y-54654D01*
X93577Y-54669D01*
X93647Y-54670D01*
X93717Y-54658D01*
X93783Y-54632D01*
X93842Y-54595D01*
X93893Y-54546D01*
X93934Y-54488D01*
X93963Y-54424D01*
X93978Y-54355D01*
X93980Y-54274D01*
X93966Y-54205D01*
X93939Y-54140D01*
X93900Y-54081D01*
X93878Y-54059D01*
X96366Y-54059D01*
X96425Y-54151D01*
X96502Y-54230D01*
X96593Y-54294D01*
X96694Y-54338D01*
X96802Y-54362D01*
X96913Y-54364D01*
X97022Y-54345D01*
X97125Y-54305D01*
X97219Y-54245D01*
X97299Y-54169D01*
X97363Y-54079D01*
X97408Y-53978D01*
X97432Y-53870D01*
X97434Y-53743D01*
X97412Y-53635D01*
X97370Y-53532D01*
X97309Y-53440D01*
X97231Y-53362D01*
X97139Y-53300D01*
X97037Y-53257D01*
X96929Y-53235D01*
X96847Y-53234D01*
X96863Y-53213D01*
X96908Y-53112D01*
X96932Y-53004D01*
X96934Y-52877D01*
X96912Y-52769D01*
X96870Y-52666D01*
X96809Y-52574D01*
X96731Y-52496D01*
X96639Y-52434D01*
X96537Y-52391D01*
X96429Y-52369D01*
X96347Y-52368D01*
X96363Y-52347D01*
X96408Y-52245D01*
X96432Y-52138D01*
X96434Y-52011D01*
X96412Y-51903D01*
X96370Y-51800D01*
X96309Y-51708D01*
X96231Y-51630D01*
X96139Y-51568D01*
X96037Y-51525D01*
X95963Y-51510D01*
X95976Y-51502D01*
X96007Y-51475D01*
X96032Y-51442D01*
X96051Y-51405D01*
X96062Y-51365D01*
X96064Y-51324D01*
X96059Y-51283D01*
X96046Y-51244D01*
X96026Y-51209D01*
X95671Y-50594D01*
X95644Y-50563D01*
X95611Y-50537D01*
X95574Y-50519D01*
X95534Y-50508D01*
X95493Y-50506D01*
X95452Y-50511D01*
X95413Y-50524D01*
X95378Y-50544D01*
X94763Y-50899D01*
X94732Y-50926D01*
X94707Y-50959D01*
X94688Y-50996D01*
X94677Y-51036D01*
X94675Y-51077D01*
X94680Y-51118D01*
X94693Y-51157D01*
X94713Y-51192D01*
X95068Y-51806D01*
X94613Y-51806D01*
X94589Y-51809D01*
X94565Y-51811D01*
X94563Y-51811D01*
X94562Y-51811D01*
X94539Y-51818D01*
X94516Y-51825D01*
X94515Y-51826D01*
X94513Y-51826D01*
X94492Y-51837D01*
X94471Y-51848D01*
X94470Y-51849D01*
X94469Y-51850D01*
X94450Y-51865D01*
X94431Y-51880D01*
X94429Y-51882D01*
X94429Y-51882D01*
X94429Y-51882D01*
X94429Y-51883D01*
X93040Y-53272D01*
X93039Y-53270D01*
X93000Y-53211D01*
X92950Y-53161D01*
X92892Y-53121D01*
X92826Y-53094D01*
X92757Y-53080D01*
X92727Y-53080D01*
X90560Y-50912D01*
X90560Y-49435D01*
X90557Y-49411D01*
X90555Y-49387D01*
X90555Y-49385D01*
X90555Y-49384D01*
X90548Y-49361D01*
X90541Y-49338D01*
X90540Y-49337D01*
X90540Y-49335D01*
X90529Y-49314D01*
X90518Y-49293D01*
X90517Y-49292D01*
X90516Y-49291D01*
X90501Y-49272D01*
X90486Y-49253D01*
X90484Y-49251D01*
X90484Y-49251D01*
X90484Y-49251D01*
X90483Y-49251D01*
X89532Y-48300D01*
X90722Y-48300D01*
X90876Y-48453D01*
X90894Y-48469D01*
X90913Y-48484D01*
X90914Y-48485D01*
X90915Y-48486D01*
X90936Y-48497D01*
X90957Y-48508D01*
X90958Y-48509D01*
X90960Y-48510D01*
X90983Y-48517D01*
X91005Y-48524D01*
X91007Y-48524D01*
X91008Y-48524D01*
X91032Y-48527D01*
X91056Y-48529D01*
X91059Y-48529D01*
X91059Y-48529D01*
X91059Y-48529D01*
X91060Y-48530D01*
X91690Y-48530D01*
X91713Y-48527D01*
X91737Y-48525D01*
X91739Y-48525D01*
X91740Y-48525D01*
X91763Y-48518D01*
X91786Y-48511D01*
X91787Y-48510D01*
X91789Y-48510D01*
X91810Y-48499D01*
X91831Y-48488D01*
X91832Y-48487D01*
X91833Y-48486D01*
X91849Y-48473D01*
X91854Y-48482D01*
X91931Y-48561D01*
X92022Y-48625D01*
X92123Y-48669D01*
X92231Y-48693D01*
X92342Y-48695D01*
X92451Y-48676D01*
X92554Y-48636D01*
X92648Y-48576D01*
X92728Y-48500D01*
X92792Y-48410D01*
X92837Y-48308D01*
X92861Y-48201D01*
X92863Y-48074D01*
X92841Y-47966D01*
X92799Y-47863D01*
X92738Y-47771D01*
X92660Y-47693D01*
X92568Y-47631D01*
X92466Y-47588D01*
X92358Y-47566D01*
X92247Y-47565D01*
X92138Y-47586D01*
X92036Y-47627D01*
X91996Y-47653D01*
X91997Y-47574D01*
X91975Y-47466D01*
X91933Y-47363D01*
X91872Y-47271D01*
X91794Y-47193D01*
X91702Y-47131D01*
X91600Y-47088D01*
X91492Y-47066D01*
X91381Y-47065D01*
X91272Y-47086D01*
X91170Y-47127D01*
X91130Y-47153D01*
X91131Y-47074D01*
X91109Y-46966D01*
X91067Y-46863D01*
X91006Y-46771D01*
X90928Y-46693D01*
X90836Y-46631D01*
X90734Y-46588D01*
X90626Y-46566D01*
X90515Y-46565D01*
X90406Y-46586D01*
X90369Y-46601D01*
X90377Y-46587D01*
X90390Y-46548D01*
X90395Y-46507D01*
X90393Y-46466D01*
X90382Y-46426D01*
X90364Y-46389D01*
X90339Y-46356D01*
X90309Y-46329D01*
X90273Y-46308D01*
X89658Y-45953D01*
X89619Y-45940D01*
X89578Y-45935D01*
X89537Y-45937D01*
X89497Y-45948D01*
X89460Y-45966D01*
X89427Y-45991D01*
X89400Y-46021D01*
X89379Y-46057D01*
X89024Y-46672D01*
X89011Y-46711D01*
X89006Y-46752D01*
X89008Y-46793D01*
X89019Y-46833D01*
X89037Y-46870D01*
X89062Y-46903D01*
X89092Y-46930D01*
X89128Y-46951D01*
X89743Y-47306D01*
X89782Y-47319D01*
X89823Y-47324D01*
X89864Y-47322D01*
X89904Y-47311D01*
X89941Y-47293D01*
X89974Y-47268D01*
X90001Y-47238D01*
X90010Y-47222D01*
X90021Y-47286D01*
X90039Y-47330D01*
X85350Y-47330D01*
X85326Y-47332D01*
X85302Y-47334D01*
X85300Y-47334D01*
X85299Y-47334D01*
X85276Y-47341D01*
X85253Y-47348D01*
X85252Y-47349D01*
X85250Y-47349D01*
X85229Y-47360D01*
X85208Y-47371D01*
X85207Y-47372D01*
X85206Y-47373D01*
X85187Y-47388D01*
X85168Y-47403D01*
X85166Y-47405D01*
X85166Y-47405D01*
X85166Y-47405D01*
X85166Y-47406D01*
X84990Y-47582D01*
X84990Y-46537D01*
X85463Y-46063D01*
X85543Y-46065D01*
X85652Y-46046D01*
X85755Y-46006D01*
X85849Y-45946D01*
X85929Y-45870D01*
X85993Y-45780D01*
X86038Y-45678D01*
X86062Y-45571D01*
X86064Y-45444D01*
X86042Y-45336D01*
X86000Y-45233D01*
X85939Y-45141D01*
X85861Y-45063D01*
X85769Y-45001D01*
X85667Y-44958D01*
X85559Y-44936D01*
X85448Y-44935D01*
X85339Y-44956D01*
X85237Y-44997D01*
X85144Y-45058D01*
X85065Y-45135D01*
X85003Y-45226D01*
X85000Y-45233D01*
X84939Y-45141D01*
X84861Y-45063D01*
X84769Y-45001D01*
X84667Y-44958D01*
X84559Y-44936D01*
X84448Y-44935D01*
X84339Y-44956D01*
X84237Y-44997D01*
X84144Y-45058D01*
X84065Y-45135D01*
X84003Y-45226D01*
X84000Y-45233D01*
X83939Y-45141D01*
X83861Y-45063D01*
X83769Y-45001D01*
X83667Y-44958D01*
X83559Y-44936D01*
X83448Y-44935D01*
X83339Y-44956D01*
X83237Y-44997D01*
X83144Y-45058D01*
X83065Y-45135D01*
X83064Y-45137D01*
X83064Y-45125D01*
X83056Y-45084D01*
X83040Y-45046D01*
X83017Y-45012D01*
X82988Y-44983D01*
X82954Y-44960D01*
X82916Y-44944D01*
X82876Y-44935D01*
X82835Y-44935D01*
X82125Y-44935D01*
X82084Y-44943D01*
X82046Y-44959D01*
X82012Y-44982D01*
X81983Y-45011D01*
X81960Y-45045D01*
X81944Y-45083D01*
X81935Y-45123D01*
X81935Y-45164D01*
X81935Y-45230D01*
X80640Y-45230D01*
X80615Y-45232D01*
X80590Y-45234D01*
X80588Y-45235D01*
X80587Y-45235D01*
X80563Y-45242D01*
X80539Y-45249D01*
X80538Y-45249D01*
X80537Y-45250D01*
X80515Y-45262D01*
X80492Y-45273D01*
X80491Y-45274D01*
X80490Y-45275D01*
X80471Y-45290D01*
X80451Y-45306D01*
X80449Y-45308D01*
X80449Y-45308D01*
X80449Y-45308D01*
X80449Y-45309D01*
X77608Y-48150D01*
X76786Y-48150D01*
X76822Y-48136D01*
X76916Y-48076D01*
X76996Y-48000D01*
X77060Y-47910D01*
X77105Y-47808D01*
X77129Y-47701D01*
X77130Y-47607D01*
X77156Y-47625D01*
X77257Y-47669D01*
X77365Y-47693D01*
X77476Y-47695D01*
X77585Y-47676D01*
X77688Y-47636D01*
X77782Y-47576D01*
X77862Y-47500D01*
X77926Y-47410D01*
X77971Y-47308D01*
X77995Y-47201D01*
X77996Y-47107D01*
X78022Y-47125D01*
X78123Y-47169D01*
X78231Y-47193D01*
X78342Y-47195D01*
X78451Y-47176D01*
X78554Y-47136D01*
X78648Y-47076D01*
X78728Y-47000D01*
X78792Y-46910D01*
X78837Y-46808D01*
X78861Y-46701D01*
X78863Y-46574D01*
X78841Y-46466D01*
X78799Y-46363D01*
X78738Y-46271D01*
X78660Y-46193D01*
X78568Y-46131D01*
X78466Y-46088D01*
X78358Y-46066D01*
X78247Y-46065D01*
X78138Y-46086D01*
X78036Y-46127D01*
X77943Y-46188D01*
X77864Y-46265D01*
X77802Y-46356D01*
X77758Y-46458D01*
X77735Y-46566D01*
X77734Y-46652D01*
X77702Y-46631D01*
X77600Y-46588D01*
X77492Y-46566D01*
X77381Y-46565D01*
X77272Y-46586D01*
X77170Y-46627D01*
X77077Y-46688D01*
X76998Y-46765D01*
X76936Y-46856D01*
X76892Y-46958D01*
X76869Y-47066D01*
X76868Y-47152D01*
X76836Y-47131D01*
X76734Y-47088D01*
X76626Y-47066D01*
X76515Y-47065D01*
X76406Y-47086D01*
X76304Y-47127D01*
X76211Y-47188D01*
X76132Y-47265D01*
X76070Y-47356D01*
X76026Y-47458D01*
X76009Y-47536D01*
X76002Y-47523D01*
X75975Y-47492D01*
X75942Y-47467D01*
X75905Y-47448D01*
X75865Y-47437D01*
X75824Y-47435D01*
X75783Y-47440D01*
X75744Y-47453D01*
X75709Y-47473D01*
X75094Y-47828D01*
X75063Y-47855D01*
X75037Y-47888D01*
X75019Y-47925D01*
X75008Y-47965D01*
X75006Y-48006D01*
X75011Y-48047D01*
X75024Y-48086D01*
X75044Y-48121D01*
X75399Y-48736D01*
X75426Y-48767D01*
X75459Y-48792D01*
X75496Y-48811D01*
X75536Y-48822D01*
X75577Y-48824D01*
X75618Y-48819D01*
X75657Y-48806D01*
X75692Y-48786D01*
X76023Y-48595D01*
X76039Y-48610D01*
X76058Y-48626D01*
X76077Y-48642D01*
X76078Y-48643D01*
X76079Y-48644D01*
X76101Y-48656D01*
X76123Y-48668D01*
X76124Y-48668D01*
X76126Y-48669D01*
X76150Y-48676D01*
X76173Y-48684D01*
X76175Y-48684D01*
X76176Y-48684D01*
X76201Y-48687D01*
X76226Y-48689D01*
X76229Y-48689D01*
X76229Y-48689D01*
X76229Y-48689D01*
X76230Y-48690D01*
X77720Y-48690D01*
X77744Y-48687D01*
X77769Y-48685D01*
X77771Y-48684D01*
X77772Y-48684D01*
X77796Y-48677D01*
X77820Y-48670D01*
X77821Y-48670D01*
X77822Y-48669D01*
X77844Y-48657D01*
X77867Y-48646D01*
X77868Y-48645D01*
X77869Y-48644D01*
X77888Y-48629D01*
X77908Y-48613D01*
X77910Y-48611D01*
X77910Y-48611D01*
X77910Y-48611D01*
X77910Y-48610D01*
X80751Y-45770D01*
X81935Y-45770D01*
X81935Y-45874D01*
X81943Y-45915D01*
X81959Y-45953D01*
X81982Y-45987D01*
X82011Y-46016D01*
X82045Y-46039D01*
X82083Y-46055D01*
X82123Y-46064D01*
X82164Y-46064D01*
X82874Y-46064D01*
X82915Y-46056D01*
X82953Y-46040D01*
X82987Y-46017D01*
X83016Y-45988D01*
X83039Y-45954D01*
X83055Y-45916D01*
X83064Y-45876D01*
X83064Y-45861D01*
X83132Y-45931D01*
X83223Y-45995D01*
X83324Y-46039D01*
X83432Y-46063D01*
X83466Y-46063D01*
X83970Y-46567D01*
X83970Y-47622D01*
X83524Y-48067D01*
X83511Y-48000D01*
X83484Y-47935D01*
X83445Y-47876D01*
X83395Y-47826D01*
X83337Y-47786D01*
X83271Y-47759D01*
X83244Y-47753D01*
X83283Y-47716D01*
X83324Y-47658D01*
X83353Y-47594D01*
X83368Y-47525D01*
X83370Y-47444D01*
X83356Y-47375D01*
X83329Y-47310D01*
X83290Y-47251D01*
X83240Y-47201D01*
X83182Y-47161D01*
X83137Y-47142D01*
X83138Y-47135D01*
X83140Y-47054D01*
X83126Y-46985D01*
X83099Y-46920D01*
X83060Y-46861D01*
X83010Y-46811D01*
X82952Y-46771D01*
X82886Y-46744D01*
X82817Y-46730D01*
X82747Y-46729D01*
X82677Y-46742D01*
X82612Y-46769D01*
X82553Y-46808D01*
X82502Y-46857D01*
X82463Y-46915D01*
X82435Y-46980D01*
X82430Y-47002D01*
X82408Y-47008D01*
X82407Y-47009D01*
X82405Y-47009D01*
X82384Y-47020D01*
X82363Y-47031D01*
X82362Y-47032D01*
X82361Y-47033D01*
X82342Y-47048D01*
X82323Y-47063D01*
X82321Y-47065D01*
X82321Y-47065D01*
X82321Y-47065D01*
X82321Y-47066D01*
X79747Y-49640D01*
X78600Y-49640D01*
X76780Y-49640D01*
X76756Y-49642D01*
X76732Y-49644D01*
X76730Y-49644D01*
X76729Y-49644D01*
X76706Y-49651D01*
X76683Y-49658D01*
X76682Y-49659D01*
X76680Y-49659D01*
X76659Y-49670D01*
X76638Y-49681D01*
X76637Y-49682D01*
X76636Y-49683D01*
X76617Y-49698D01*
X76598Y-49713D01*
X76596Y-49715D01*
X76596Y-49715D01*
X76596Y-49715D01*
X76596Y-49716D01*
X76452Y-49859D01*
X76427Y-49859D01*
X76357Y-49872D01*
X76292Y-49899D01*
X76233Y-49938D01*
X76182Y-49987D01*
X76143Y-50045D01*
X76115Y-50110D01*
X76100Y-50179D01*
X76099Y-50250D01*
X76112Y-50319D01*
X76138Y-50385D01*
X76176Y-50444D01*
X76225Y-50495D01*
X76283Y-50535D01*
X76348Y-50564D01*
X76417Y-50579D01*
X76487Y-50580D01*
X76557Y-50568D01*
X76623Y-50542D01*
X76682Y-50505D01*
X76733Y-50456D01*
X76774Y-50398D01*
X76803Y-50334D01*
X76818Y-50265D01*
X76819Y-50228D01*
X76887Y-50160D01*
X78600Y-50160D01*
X79572Y-50160D01*
X77947Y-51785D01*
X77947Y-51307D01*
X77938Y-51201D01*
X77908Y-51098D01*
X77860Y-51003D01*
X77851Y-50990D01*
X77760Y-50960D01*
X77739Y-50982D01*
X77739Y-50939D01*
X77709Y-50848D01*
X77615Y-50797D01*
X77514Y-50764D01*
X77407Y-50752D01*
X77301Y-50761D01*
X77198Y-50791D01*
X77103Y-50839D01*
X77090Y-50848D01*
X77060Y-50939D01*
X77400Y-51278D01*
X77739Y-50939D01*
X77739Y-50982D01*
X77421Y-51300D01*
X77760Y-51639D01*
X77851Y-51609D01*
X77902Y-51515D01*
X77935Y-51414D01*
X77947Y-51307D01*
X77947Y-51785D01*
X77801Y-51931D01*
X77748Y-51878D01*
X77660Y-51818D01*
X77617Y-51800D01*
X77696Y-51760D01*
X77709Y-51751D01*
X77739Y-51660D01*
X77400Y-51321D01*
X77060Y-51660D01*
X77090Y-51751D01*
X77180Y-51801D01*
X77146Y-51814D01*
X77057Y-51873D01*
X76980Y-51948D01*
X76920Y-52036D01*
X76900Y-52083D01*
X76883Y-52043D01*
X76824Y-51954D01*
X76748Y-51878D01*
X76660Y-51818D01*
X76616Y-51800D01*
X76646Y-51788D01*
X76736Y-51731D01*
X76814Y-51657D01*
X76875Y-51570D01*
X76899Y-51517D01*
X76939Y-51596D01*
X76948Y-51609D01*
X77039Y-51639D01*
X77378Y-51300D01*
X77039Y-50960D01*
X76948Y-50990D01*
X76898Y-51080D01*
X76883Y-51043D01*
X76824Y-50954D01*
X76748Y-50878D01*
X76660Y-50818D01*
X76561Y-50777D01*
X76457Y-50755D01*
X76350Y-50754D01*
X76245Y-50774D01*
X76146Y-50814D01*
X76057Y-50873D01*
X75980Y-50948D01*
X75920Y-51036D01*
X75900Y-51083D01*
X75883Y-51043D01*
X75824Y-50954D01*
X75748Y-50878D01*
X75660Y-50818D01*
X75561Y-50777D01*
X75457Y-50755D01*
X75350Y-50754D01*
X75245Y-50774D01*
X75146Y-50814D01*
X75057Y-50873D01*
X74980Y-50948D01*
X74920Y-51036D01*
X74878Y-51134D01*
X74856Y-51238D01*
X74854Y-51345D01*
X74873Y-51450D01*
X74913Y-51550D01*
X74971Y-51639D01*
X75045Y-51716D01*
X75100Y-51755D01*
X75044Y-51755D01*
X75004Y-51763D01*
X74966Y-51779D01*
X74931Y-51801D01*
X74902Y-51830D01*
X74879Y-51864D01*
X74863Y-51902D01*
X74855Y-51943D01*
X74855Y-51984D01*
X74855Y-52655D01*
X74863Y-52695D01*
X74879Y-52733D01*
X74901Y-52768D01*
X74930Y-52797D01*
X74964Y-52820D01*
X75002Y-52836D01*
X75043Y-52844D01*
X75084Y-52844D01*
X75571Y-52844D01*
X76081Y-53353D01*
X76099Y-53369D01*
X76118Y-53384D01*
X76119Y-53385D01*
X76120Y-53386D01*
X76141Y-53397D01*
X76162Y-53408D01*
X76163Y-53409D01*
X76165Y-53410D01*
X76188Y-53417D01*
X76210Y-53424D01*
X76212Y-53424D01*
X76213Y-53424D01*
X76237Y-53427D01*
X76261Y-53429D01*
X76264Y-53429D01*
X76264Y-53429D01*
X76264Y-53429D01*
X76265Y-53430D01*
X77745Y-53430D01*
X77768Y-53427D01*
X77792Y-53425D01*
X77794Y-53425D01*
X77795Y-53425D01*
X77818Y-53418D01*
X77841Y-53411D01*
X77842Y-53410D01*
X77844Y-53410D01*
X77865Y-53399D01*
X77886Y-53388D01*
X77887Y-53387D01*
X77888Y-53386D01*
X77907Y-53371D01*
X77926Y-53356D01*
X77928Y-53354D01*
X77928Y-53354D01*
X77928Y-53354D01*
X77928Y-53353D01*
X78502Y-52779D01*
X78518Y-52761D01*
X78533Y-52742D01*
X78534Y-52741D01*
X78534Y-52740D01*
X78546Y-52719D01*
X78557Y-52698D01*
X78558Y-52697D01*
X78558Y-52695D01*
X78565Y-52673D01*
X78573Y-52650D01*
X78573Y-52648D01*
X78573Y-52647D01*
X78576Y-52623D01*
X78578Y-52599D01*
X78578Y-52597D01*
X78578Y-52596D01*
X78578Y-52596D01*
X78578Y-52596D01*
X78578Y-52478D01*
X82492Y-48565D01*
X82965Y-48565D01*
X82988Y-48562D01*
X83012Y-48560D01*
X83014Y-48560D01*
X83015Y-48560D01*
X83038Y-48553D01*
X83039Y-48552D01*
X77366Y-54226D01*
X77350Y-54244D01*
X77335Y-54263D01*
X77334Y-54264D01*
X77333Y-54265D01*
X77322Y-54286D01*
X77311Y-54307D01*
X77310Y-54308D01*
X77309Y-54310D01*
X77302Y-54333D01*
X77295Y-54355D01*
X77295Y-54357D01*
X77295Y-54358D01*
X77292Y-54382D01*
X77290Y-54406D01*
X77290Y-54409D01*
X77290Y-54409D01*
X77290Y-54409D01*
X77290Y-54410D01*
X77290Y-55000D01*
X76800Y-55000D01*
X76480Y-55000D01*
X74729Y-55000D01*
X74710Y-54981D01*
X74652Y-54941D01*
X74586Y-54914D01*
X74517Y-54900D01*
X74447Y-54899D01*
X74377Y-54912D01*
X74312Y-54939D01*
X74253Y-54978D01*
X74244Y-54986D01*
X74222Y-54971D01*
X74156Y-54944D01*
X74087Y-54930D01*
X74017Y-54929D01*
X73947Y-54942D01*
X73882Y-54969D01*
X73823Y-55008D01*
X73775Y-55054D01*
X73772Y-55051D01*
X73706Y-55024D01*
X73637Y-55010D01*
X73567Y-55009D01*
X73497Y-55022D01*
X73432Y-55049D01*
X73373Y-55088D01*
X73346Y-55114D01*
X73342Y-55111D01*
X73276Y-55084D01*
X73207Y-55070D01*
X73137Y-55069D01*
X73067Y-55082D01*
X73002Y-55109D01*
X72943Y-55148D01*
X72932Y-55158D01*
X72892Y-55131D01*
X72887Y-55129D01*
X73563Y-54453D01*
X73579Y-54435D01*
X73594Y-54416D01*
X73595Y-54415D01*
X73596Y-54414D01*
X73607Y-54393D01*
X73618Y-54372D01*
X73619Y-54371D01*
X73620Y-54369D01*
X73627Y-54346D01*
X73634Y-54324D01*
X73634Y-54322D01*
X73634Y-54321D01*
X73637Y-54297D01*
X73639Y-54273D01*
X73639Y-54270D01*
X73639Y-54270D01*
X73639Y-54270D01*
X73640Y-54270D01*
X73640Y-51990D01*
X73637Y-51966D01*
X73635Y-51942D01*
X73635Y-51940D01*
X73635Y-51939D01*
X73628Y-51916D01*
X73621Y-51893D01*
X73620Y-51892D01*
X73620Y-51890D01*
X73609Y-51869D01*
X73598Y-51848D01*
X73597Y-51847D01*
X73596Y-51846D01*
X73581Y-51827D01*
X73566Y-51808D01*
X73564Y-51806D01*
X73564Y-51806D01*
X73564Y-51806D01*
X73563Y-51806D01*
X73158Y-51401D01*
X73168Y-51379D01*
X73192Y-51272D01*
X73194Y-51145D01*
X73172Y-51037D01*
X73130Y-50934D01*
X73069Y-50842D01*
X72991Y-50764D01*
X72899Y-50702D01*
X72797Y-50659D01*
X72689Y-50637D01*
X72578Y-50636D01*
X72469Y-50656D01*
X72367Y-50698D01*
X72274Y-50759D01*
X72195Y-50836D01*
X72133Y-50927D01*
X72089Y-51029D01*
X72066Y-51137D01*
X72064Y-51248D01*
X72084Y-51357D01*
X72125Y-51460D01*
X72153Y-51502D01*
X72078Y-51502D01*
X71969Y-51522D01*
X71867Y-51564D01*
X71774Y-51625D01*
X71695Y-51702D01*
X71633Y-51793D01*
X71589Y-51895D01*
X71566Y-52003D01*
X71564Y-52114D01*
X71584Y-52223D01*
X71625Y-52326D01*
X71653Y-52368D01*
X71578Y-52368D01*
X71469Y-52389D01*
X71367Y-52430D01*
X71274Y-52491D01*
X71195Y-52568D01*
X71133Y-52659D01*
X71089Y-52761D01*
X71066Y-52869D01*
X71064Y-52980D01*
X71084Y-53089D01*
X71101Y-53130D01*
X71087Y-53122D01*
X71048Y-53109D01*
X71007Y-53104D01*
X70966Y-53106D01*
X70926Y-53117D01*
X70889Y-53135D01*
X70856Y-53160D01*
X70829Y-53190D01*
X70808Y-53226D01*
X70453Y-53841D01*
X70440Y-53880D01*
X70435Y-53921D01*
X70437Y-53962D01*
X70448Y-54002D01*
X70466Y-54039D01*
X70491Y-54072D01*
X70521Y-54099D01*
X70557Y-54120D01*
X71172Y-54475D01*
X71211Y-54488D01*
X71252Y-54493D01*
X71293Y-54491D01*
X71333Y-54480D01*
X71370Y-54462D01*
X71403Y-54437D01*
X71430Y-54407D01*
X71451Y-54371D01*
X71806Y-53756D01*
X71819Y-53717D01*
X71824Y-53676D01*
X71822Y-53635D01*
X71811Y-53595D01*
X71793Y-53558D01*
X71768Y-53525D01*
X71738Y-53498D01*
X71722Y-53489D01*
X71782Y-53479D01*
X71885Y-53439D01*
X71979Y-53379D01*
X72059Y-53303D01*
X72123Y-53213D01*
X72132Y-53193D01*
X72325Y-53193D01*
X72670Y-53537D01*
X72670Y-54002D01*
X71786Y-54886D01*
X71770Y-54904D01*
X71755Y-54923D01*
X71754Y-54924D01*
X71753Y-54925D01*
X71742Y-54946D01*
X71731Y-54967D01*
X71730Y-54968D01*
X71729Y-54970D01*
X71722Y-54993D01*
X71715Y-55015D01*
X71715Y-55017D01*
X71715Y-55018D01*
X71712Y-55042D01*
X71710Y-55066D01*
X71710Y-55069D01*
X71710Y-55069D01*
X71710Y-55069D01*
X71710Y-55070D01*
X71710Y-55880D01*
X71712Y-55903D01*
X71714Y-55927D01*
X71714Y-55929D01*
X71714Y-55930D01*
X71721Y-55953D01*
X71728Y-55976D01*
X71729Y-55977D01*
X71729Y-55979D01*
X71740Y-56000D01*
X71751Y-56021D01*
X71752Y-56022D01*
X71753Y-56023D01*
X71768Y-56042D01*
X71783Y-56061D01*
X71785Y-56063D01*
X71785Y-56063D01*
X71785Y-56063D01*
X71786Y-56063D01*
X72642Y-56920D01*
X72370Y-56920D01*
X72346Y-56922D01*
X72322Y-56924D01*
X72320Y-56924D01*
X72319Y-56924D01*
X72296Y-56931D01*
X72273Y-56938D01*
X72272Y-56939D01*
X72270Y-56939D01*
X72249Y-56950D01*
X72228Y-56961D01*
X72227Y-56962D01*
X72226Y-56963D01*
X72207Y-56978D01*
X72188Y-56993D01*
X72186Y-56995D01*
X72186Y-56995D01*
X72186Y-56995D01*
X72186Y-56996D01*
X70479Y-58702D01*
X70439Y-58641D01*
X70361Y-58563D01*
X70269Y-58501D01*
X70265Y-58499D01*
X70349Y-58446D01*
X70429Y-58370D01*
X70493Y-58280D01*
X70538Y-58178D01*
X70562Y-58071D01*
X70564Y-57944D01*
X70542Y-57836D01*
X70500Y-57733D01*
X70439Y-57641D01*
X70361Y-57563D01*
X70269Y-57501D01*
X70167Y-57458D01*
X70059Y-57436D01*
X69948Y-57435D01*
X69839Y-57456D01*
X69737Y-57497D01*
X69644Y-57558D01*
X69565Y-57635D01*
X69503Y-57726D01*
X69459Y-57828D01*
X69436Y-57936D01*
X69434Y-58047D01*
X69454Y-58156D01*
X69495Y-58259D01*
X69555Y-58352D01*
X69632Y-58431D01*
X69723Y-58495D01*
X69733Y-58499D01*
X69644Y-58558D01*
X69565Y-58635D01*
X69503Y-58726D01*
X69459Y-58828D01*
X69436Y-58936D01*
X69434Y-59047D01*
X69454Y-59156D01*
X69495Y-59259D01*
X69555Y-59352D01*
X69632Y-59431D01*
X69723Y-59495D01*
X69733Y-59499D01*
X69644Y-59558D01*
X69565Y-59635D01*
X69503Y-59726D01*
X69459Y-59828D01*
X69436Y-59936D01*
X69434Y-60047D01*
X69454Y-60156D01*
X69495Y-60259D01*
X69555Y-60352D01*
X69632Y-60431D01*
X69637Y-60435D01*
X69625Y-60435D01*
X69584Y-60443D01*
X69546Y-60459D01*
X69512Y-60482D01*
X69483Y-60511D01*
X69460Y-60545D01*
X69444Y-60583D01*
X69435Y-60623D01*
X69435Y-60664D01*
X69435Y-61374D01*
X69443Y-61415D01*
X69459Y-61453D01*
X69482Y-61487D01*
X69511Y-61516D01*
X69545Y-61539D01*
X69583Y-61555D01*
X69623Y-61564D01*
X69664Y-61564D01*
X69730Y-61564D01*
X69730Y-63152D01*
X69603Y-62770D01*
X69240Y-59902D01*
X69235Y-59509D01*
X69517Y-56632D01*
X70350Y-53873D01*
X71702Y-51329D01*
X73523Y-49096D01*
X75744Y-47260D01*
X78278Y-45889D01*
X81031Y-45037D01*
X83896Y-44736D01*
X86766Y-44997D01*
X89530Y-45811D01*
X92084Y-47146D01*
X94329Y-48951D01*
X96181Y-51158D01*
X97569Y-53683D01*
X98441Y-56430D01*
X98762Y-59293D01*
X98762Y-59293D01*
G37*
G54D18*
X98762Y-59293D02*
X98521Y-62165D01*
X97727Y-64934D01*
X96410Y-67497D01*
X94620Y-69755D01*
X92425Y-71623D01*
X89910Y-73029D01*
X88462Y-73499D01*
X89270Y-72690D01*
X89286Y-72671D01*
X89302Y-72652D01*
X89303Y-72651D01*
X89303Y-72651D01*
X89333Y-72681D01*
X89424Y-72745D01*
X89525Y-72789D01*
X89633Y-72813D01*
X89744Y-72815D01*
X89853Y-72796D01*
X89956Y-72756D01*
X90050Y-72696D01*
X90130Y-72620D01*
X90194Y-72530D01*
X90239Y-72428D01*
X90263Y-72321D01*
X90264Y-72227D01*
X90290Y-72245D01*
X90391Y-72289D01*
X90499Y-72313D01*
X90610Y-72315D01*
X90719Y-72296D01*
X90822Y-72256D01*
X90916Y-72196D01*
X90996Y-72120D01*
X91060Y-72030D01*
X91105Y-71928D01*
X91129Y-71821D01*
X91130Y-71727D01*
X91156Y-71745D01*
X91257Y-71789D01*
X91365Y-71813D01*
X91476Y-71815D01*
X91585Y-71796D01*
X91688Y-71756D01*
X91782Y-71696D01*
X91862Y-71620D01*
X91926Y-71530D01*
X91971Y-71428D01*
X91990Y-71344D01*
X91997Y-71356D01*
X92024Y-71387D01*
X92057Y-71412D01*
X92094Y-71431D01*
X92134Y-71442D01*
X92175Y-71444D01*
X92216Y-71439D01*
X92255Y-71426D01*
X92290Y-71406D01*
X92905Y-71051D01*
X92936Y-71024D01*
X92962Y-70991D01*
X92980Y-70954D01*
X92991Y-70914D01*
X92993Y-70873D01*
X92988Y-70832D01*
X92975Y-70793D01*
X92955Y-70758D01*
X92600Y-70143D01*
X92573Y-70112D01*
X92540Y-70087D01*
X92503Y-70068D01*
X92463Y-70057D01*
X92422Y-70055D01*
X92381Y-70060D01*
X92342Y-70073D01*
X92307Y-70093D01*
X91966Y-70290D01*
X90570Y-70290D01*
X90545Y-70292D01*
X90520Y-70294D01*
X90518Y-70295D01*
X90517Y-70295D01*
X90493Y-70302D01*
X90469Y-70309D01*
X90468Y-70309D01*
X90467Y-70310D01*
X90445Y-70322D01*
X90422Y-70333D01*
X90421Y-70334D01*
X90420Y-70335D01*
X90401Y-70350D01*
X90381Y-70366D01*
X90379Y-70368D01*
X90379Y-70368D01*
X90379Y-70368D01*
X90379Y-70369D01*
X89738Y-71010D01*
X89730Y-71010D01*
X89705Y-71012D01*
X89680Y-71014D01*
X89678Y-71015D01*
X89677Y-71015D01*
X89653Y-71022D01*
X89629Y-71029D01*
X89628Y-71029D01*
X89627Y-71030D01*
X89605Y-71042D01*
X89582Y-71053D01*
X89581Y-71054D01*
X89580Y-71055D01*
X89561Y-71070D01*
X89541Y-71086D01*
X89539Y-71088D01*
X89539Y-71088D01*
X89539Y-71088D01*
X89539Y-71089D01*
X88936Y-71691D01*
X88932Y-71694D01*
X88931Y-71694D01*
X88930Y-71695D01*
X88910Y-71711D01*
X88891Y-71727D01*
X88890Y-71727D01*
X88889Y-71728D01*
X88873Y-71748D01*
X88857Y-71767D01*
X88856Y-71768D01*
X88856Y-71769D01*
X88844Y-71791D01*
X88831Y-71813D01*
X88831Y-71814D01*
X88831Y-71815D01*
X88823Y-71839D01*
X88815Y-71863D01*
X88815Y-71864D01*
X88815Y-71865D01*
X88812Y-71890D01*
X88810Y-71916D01*
X88810Y-71918D01*
X88810Y-71918D01*
X88810Y-71918D01*
X88810Y-71920D01*
X88810Y-72388D01*
X87968Y-73230D01*
X86064Y-73230D01*
X86064Y-73125D01*
X86056Y-73084D01*
X86040Y-73046D01*
X86017Y-73012D01*
X85988Y-72983D01*
X85954Y-72960D01*
X85916Y-72944D01*
X85876Y-72935D01*
X85835Y-72935D01*
X85447Y-72935D01*
X84460Y-71949D01*
X84441Y-71933D01*
X84422Y-71917D01*
X84421Y-71916D01*
X84420Y-71915D01*
X84398Y-71903D01*
X84376Y-71891D01*
X84375Y-71891D01*
X84373Y-71890D01*
X84349Y-71883D01*
X84326Y-71875D01*
X84324Y-71875D01*
X84323Y-71875D01*
X84298Y-71872D01*
X84273Y-71870D01*
X84270Y-71870D01*
X84270Y-71870D01*
X84270Y-71870D01*
X84270Y-71870D01*
X83461Y-71870D01*
X83190Y-71599D01*
X83171Y-71583D01*
X83152Y-71567D01*
X83151Y-71566D01*
X83150Y-71565D01*
X83128Y-71553D01*
X83106Y-71541D01*
X83105Y-71541D01*
X83103Y-71540D01*
X83079Y-71533D01*
X83056Y-71525D01*
X83054Y-71525D01*
X83053Y-71525D01*
X83028Y-71522D01*
X83003Y-71520D01*
X83000Y-71520D01*
X83000Y-71520D01*
X83000Y-71520D01*
X83000Y-71520D01*
X82790Y-71520D01*
X82765Y-71522D01*
X82740Y-71524D01*
X82738Y-71525D01*
X82737Y-71525D01*
X82713Y-71532D01*
X82689Y-71539D01*
X82688Y-71539D01*
X82687Y-71540D01*
X82665Y-71552D01*
X82642Y-71563D01*
X82641Y-71564D01*
X82640Y-71565D01*
X82621Y-71580D01*
X82601Y-71596D01*
X82599Y-71598D01*
X82599Y-71598D01*
X82599Y-71598D01*
X82599Y-71599D01*
X81158Y-73040D01*
X80790Y-73040D01*
X79611Y-73040D01*
X78947Y-72375D01*
X78975Y-72327D01*
X78988Y-72288D01*
X78993Y-72247D01*
X78991Y-72206D01*
X78980Y-72166D01*
X78962Y-72129D01*
X78937Y-72096D01*
X78907Y-72069D01*
X78871Y-72048D01*
X78256Y-71693D01*
X78217Y-71680D01*
X78176Y-71675D01*
X78135Y-71677D01*
X78095Y-71688D01*
X78058Y-71706D01*
X78025Y-71731D01*
X77998Y-71761D01*
X77989Y-71776D01*
X77975Y-71706D01*
X77933Y-71603D01*
X77872Y-71511D01*
X77794Y-71433D01*
X77702Y-71371D01*
X77693Y-71367D01*
X77693Y-71104D01*
X78787Y-70010D01*
X79650Y-70010D01*
X79673Y-70007D01*
X79697Y-70005D01*
X79699Y-70005D01*
X79700Y-70005D01*
X79723Y-69998D01*
X79746Y-69991D01*
X79747Y-69990D01*
X79749Y-69990D01*
X79770Y-69979D01*
X79791Y-69968D01*
X79792Y-69967D01*
X79793Y-69966D01*
X79812Y-69951D01*
X79831Y-69936D01*
X79833Y-69934D01*
X79833Y-69934D01*
X79833Y-69934D01*
X79833Y-69933D01*
X79957Y-69810D01*
X79977Y-69810D01*
X80047Y-69798D01*
X80113Y-69772D01*
X80172Y-69735D01*
X80223Y-69686D01*
X80264Y-69628D01*
X80293Y-69564D01*
X80308Y-69495D01*
X80310Y-69414D01*
X80303Y-69380D01*
X80323Y-69372D01*
X80382Y-69335D01*
X80433Y-69286D01*
X80474Y-69228D01*
X80503Y-69164D01*
X80518Y-69095D01*
X80520Y-69014D01*
X80516Y-68998D01*
X80517Y-68998D01*
X80583Y-68972D01*
X80642Y-68935D01*
X80693Y-68886D01*
X80734Y-68828D01*
X80763Y-68764D01*
X80778Y-68695D01*
X80780Y-68614D01*
X80766Y-68545D01*
X80739Y-68480D01*
X80700Y-68421D01*
X80650Y-68371D01*
X80592Y-68331D01*
X80526Y-68304D01*
X80457Y-68290D01*
X80387Y-68289D01*
X80317Y-68302D01*
X80252Y-68329D01*
X80193Y-68368D01*
X80142Y-68417D01*
X80141Y-68420D01*
X79740Y-68420D01*
X79716Y-68422D01*
X79692Y-68424D01*
X79690Y-68424D01*
X79689Y-68424D01*
X79666Y-68431D01*
X79643Y-68438D01*
X79642Y-68439D01*
X79640Y-68439D01*
X79619Y-68450D01*
X79598Y-68461D01*
X79597Y-68462D01*
X79596Y-68463D01*
X79577Y-68478D01*
X79558Y-68493D01*
X79556Y-68495D01*
X79556Y-68495D01*
X79556Y-68495D01*
X79556Y-68496D01*
X79192Y-68860D01*
X78480Y-68860D01*
X78456Y-68862D01*
X78432Y-68864D01*
X78430Y-68864D01*
X78429Y-68864D01*
X78406Y-68871D01*
X78383Y-68878D01*
X78382Y-68879D01*
X78380Y-68879D01*
X78359Y-68890D01*
X78338Y-68901D01*
X78337Y-68902D01*
X78336Y-68903D01*
X78317Y-68918D01*
X78298Y-68933D01*
X78296Y-68935D01*
X78296Y-68935D01*
X78296Y-68935D01*
X78296Y-68936D01*
X76832Y-70400D01*
X76030Y-70400D01*
X76015Y-70401D01*
X75970Y-70371D01*
X75868Y-70328D01*
X75760Y-70306D01*
X75649Y-70305D01*
X75540Y-70326D01*
X75438Y-70367D01*
X75345Y-70428D01*
X75266Y-70505D01*
X75204Y-70596D01*
X75160Y-70698D01*
X75137Y-70806D01*
X75135Y-70917D01*
X75155Y-71026D01*
X75196Y-71129D01*
X75256Y-71222D01*
X75333Y-71301D01*
X75424Y-71365D01*
X75525Y-71409D01*
X75633Y-71433D01*
X75744Y-71435D01*
X75853Y-71416D01*
X75956Y-71376D01*
X76002Y-71346D01*
X76001Y-71417D01*
X76021Y-71526D01*
X76062Y-71629D01*
X76122Y-71722D01*
X76199Y-71801D01*
X76290Y-71865D01*
X76391Y-71909D01*
X76499Y-71933D01*
X76610Y-71935D01*
X76719Y-71916D01*
X76822Y-71876D01*
X76868Y-71846D01*
X76867Y-71917D01*
X76887Y-72026D01*
X76928Y-72129D01*
X76988Y-72222D01*
X77065Y-72301D01*
X77156Y-72365D01*
X77257Y-72409D01*
X77365Y-72433D01*
X77476Y-72435D01*
X77585Y-72416D01*
X77630Y-72398D01*
X77622Y-72412D01*
X77609Y-72451D01*
X77604Y-72492D01*
X77606Y-72533D01*
X77617Y-72573D01*
X77635Y-72610D01*
X77660Y-72643D01*
X77690Y-72670D01*
X77726Y-72691D01*
X78341Y-73046D01*
X78380Y-73059D01*
X78421Y-73064D01*
X78462Y-73062D01*
X78502Y-73051D01*
X78539Y-73033D01*
X78572Y-73008D01*
X78599Y-72978D01*
X78620Y-72942D01*
X78668Y-72859D01*
X79232Y-73424D01*
X78661Y-73264D01*
X76089Y-71965D01*
X73818Y-70191D01*
X71935Y-68010D01*
X70512Y-65505D01*
X69804Y-63375D01*
X69806Y-63378D01*
X69808Y-63380D01*
X69808Y-63380D01*
X69808Y-63380D01*
X69809Y-63380D01*
X70859Y-64430D01*
X70859Y-64430D01*
X71066Y-64638D01*
X70969Y-64656D01*
X70867Y-64698D01*
X70774Y-64759D01*
X70695Y-64836D01*
X70633Y-64927D01*
X70589Y-65029D01*
X70566Y-65137D01*
X70564Y-65248D01*
X70584Y-65357D01*
X70625Y-65460D01*
X70685Y-65553D01*
X70762Y-65632D01*
X70853Y-65695D01*
X70954Y-65740D01*
X71062Y-65764D01*
X71152Y-65765D01*
X71133Y-65793D01*
X71089Y-65895D01*
X71066Y-66003D01*
X71064Y-66114D01*
X71084Y-66223D01*
X71125Y-66326D01*
X71185Y-66419D01*
X71262Y-66498D01*
X71353Y-66561D01*
X71454Y-66606D01*
X71562Y-66630D01*
X71652Y-66631D01*
X71633Y-66659D01*
X71589Y-66761D01*
X71566Y-66869D01*
X71564Y-66980D01*
X71584Y-67089D01*
X71625Y-67192D01*
X71685Y-67285D01*
X71762Y-67364D01*
X71853Y-67428D01*
X71954Y-67472D01*
X72036Y-67490D01*
X72023Y-67497D01*
X71992Y-67524D01*
X71967Y-67557D01*
X71948Y-67594D01*
X71937Y-67634D01*
X71935Y-67675D01*
X71940Y-67716D01*
X71953Y-67755D01*
X71973Y-67790D01*
X72328Y-68405D01*
X72355Y-68436D01*
X72388Y-68462D01*
X72425Y-68480D01*
X72465Y-68491D01*
X72506Y-68493D01*
X72547Y-68488D01*
X72586Y-68475D01*
X72621Y-68455D01*
X73236Y-68100D01*
X73267Y-68073D01*
X73292Y-68040D01*
X73311Y-68003D01*
X73322Y-67963D01*
X73324Y-67922D01*
X73319Y-67881D01*
X73306Y-67842D01*
X73296Y-67825D01*
X73750Y-67370D01*
X73766Y-67351D01*
X73782Y-67332D01*
X73783Y-67331D01*
X73784Y-67330D01*
X73796Y-67308D01*
X73808Y-67286D01*
X73808Y-67285D01*
X73809Y-67283D01*
X73816Y-67259D01*
X73824Y-67236D01*
X73824Y-67234D01*
X73824Y-67233D01*
X73827Y-67208D01*
X73829Y-67183D01*
X73829Y-67180D01*
X73829Y-67180D01*
X73829Y-67180D01*
X73830Y-67180D01*
X73830Y-66360D01*
X73827Y-66335D01*
X73825Y-66310D01*
X73824Y-66308D01*
X73824Y-66307D01*
X73817Y-66283D01*
X73810Y-66259D01*
X73810Y-66258D01*
X73809Y-66257D01*
X73797Y-66235D01*
X73786Y-66212D01*
X73785Y-66211D01*
X73784Y-66210D01*
X73769Y-66191D01*
X73753Y-66171D01*
X73751Y-66169D01*
X73751Y-66169D01*
X73751Y-66169D01*
X73750Y-66169D01*
X71930Y-64349D01*
X71911Y-64333D01*
X71892Y-64317D01*
X71891Y-64316D01*
X71890Y-64315D01*
X71868Y-64303D01*
X71846Y-64291D01*
X71845Y-64291D01*
X71843Y-64290D01*
X71819Y-64283D01*
X71796Y-64275D01*
X71794Y-64275D01*
X71793Y-64275D01*
X71768Y-64272D01*
X71743Y-64270D01*
X71740Y-64270D01*
X71740Y-64270D01*
X71740Y-64270D01*
X71740Y-64270D01*
X71461Y-64270D01*
X71240Y-64049D01*
X71240Y-64049D01*
X70270Y-63078D01*
X70270Y-61564D01*
X70374Y-61564D01*
X70415Y-61556D01*
X70453Y-61540D01*
X70487Y-61517D01*
X70516Y-61488D01*
X70539Y-61454D01*
X70555Y-61416D01*
X70564Y-61376D01*
X70564Y-61335D01*
X70564Y-60817D01*
X70995Y-60385D01*
X71011Y-60366D01*
X71027Y-60347D01*
X71028Y-60346D01*
X71029Y-60345D01*
X71041Y-60323D01*
X71053Y-60301D01*
X71053Y-60300D01*
X71054Y-60298D01*
X71061Y-60274D01*
X71069Y-60251D01*
X71069Y-60249D01*
X71069Y-60248D01*
X71072Y-60223D01*
X71074Y-60198D01*
X71074Y-60195D01*
X71074Y-60195D01*
X71074Y-60195D01*
X71075Y-60195D01*
X71075Y-59616D01*
X71421Y-59270D01*
X72202Y-59270D01*
X72255Y-59352D01*
X72332Y-59431D01*
X72423Y-59495D01*
X72433Y-59499D01*
X72344Y-59558D01*
X72265Y-59635D01*
X72203Y-59726D01*
X72194Y-59746D01*
X72176Y-59751D01*
X72153Y-59758D01*
X72152Y-59759D01*
X72150Y-59759D01*
X72129Y-59770D01*
X72108Y-59781D01*
X72107Y-59782D01*
X72106Y-59783D01*
X72087Y-59798D01*
X72068Y-59813D01*
X72066Y-59815D01*
X72066Y-59815D01*
X72066Y-59815D01*
X72066Y-59816D01*
X71766Y-60116D01*
X71750Y-60134D01*
X71735Y-60153D01*
X71734Y-60154D01*
X71733Y-60155D01*
X71722Y-60176D01*
X71711Y-60197D01*
X71710Y-60198D01*
X71709Y-60200D01*
X71702Y-60223D01*
X71695Y-60245D01*
X71695Y-60247D01*
X71695Y-60248D01*
X71692Y-60272D01*
X71690Y-60296D01*
X71690Y-60299D01*
X71690Y-60299D01*
X71690Y-60299D01*
X71690Y-60300D01*
X71690Y-61550D01*
X71692Y-61573D01*
X71694Y-61597D01*
X71694Y-61599D01*
X71694Y-61600D01*
X71701Y-61623D01*
X71708Y-61646D01*
X71709Y-61647D01*
X71709Y-61649D01*
X71720Y-61670D01*
X71731Y-61691D01*
X71732Y-61692D01*
X71733Y-61693D01*
X71748Y-61712D01*
X71763Y-61731D01*
X71765Y-61733D01*
X71765Y-61733D01*
X71765Y-61733D01*
X71766Y-61733D01*
X71896Y-61863D01*
X71914Y-61879D01*
X71933Y-61894D01*
X71934Y-61895D01*
X71935Y-61896D01*
X71956Y-61907D01*
X71977Y-61918D01*
X71978Y-61919D01*
X71980Y-61920D01*
X72003Y-61927D01*
X72025Y-61934D01*
X72027Y-61934D01*
X72028Y-61934D01*
X72052Y-61937D01*
X72076Y-61939D01*
X72079Y-61939D01*
X72079Y-61939D01*
X72079Y-61939D01*
X72080Y-61940D01*
X73160Y-61940D01*
X73183Y-61937D01*
X73207Y-61935D01*
X73209Y-61935D01*
X73210Y-61935D01*
X73233Y-61928D01*
X73256Y-61921D01*
X73257Y-61920D01*
X73259Y-61920D01*
X73280Y-61909D01*
X73301Y-61898D01*
X73302Y-61897D01*
X73303Y-61896D01*
X73322Y-61881D01*
X73341Y-61866D01*
X73343Y-61864D01*
X73343Y-61864D01*
X73343Y-61864D01*
X73343Y-61863D01*
X73637Y-61570D01*
X74230Y-61570D01*
X74209Y-61580D01*
X74188Y-61591D01*
X74187Y-61592D01*
X74186Y-61593D01*
X74167Y-61608D01*
X74148Y-61623D01*
X74146Y-61625D01*
X74146Y-61625D01*
X74146Y-61625D01*
X74146Y-61626D01*
X72806Y-62966D01*
X72790Y-62984D01*
X72775Y-63003D01*
X72774Y-63004D01*
X72773Y-63005D01*
X72762Y-63026D01*
X72751Y-63047D01*
X72750Y-63048D01*
X72749Y-63050D01*
X72742Y-63073D01*
X72735Y-63095D01*
X72735Y-63097D01*
X72735Y-63098D01*
X72732Y-63122D01*
X72730Y-63146D01*
X72730Y-63149D01*
X72730Y-63149D01*
X72730Y-63149D01*
X72730Y-63150D01*
X72730Y-64790D01*
X72732Y-64813D01*
X72734Y-64837D01*
X72734Y-64839D01*
X72734Y-64840D01*
X72741Y-64863D01*
X72748Y-64886D01*
X72749Y-64887D01*
X72749Y-64889D01*
X72760Y-64910D01*
X72771Y-64931D01*
X72772Y-64932D01*
X72773Y-64933D01*
X72788Y-64952D01*
X72803Y-64971D01*
X72805Y-64973D01*
X72805Y-64973D01*
X72805Y-64973D01*
X72806Y-64973D01*
X73906Y-66073D01*
X73924Y-66089D01*
X73943Y-66104D01*
X73944Y-66105D01*
X73945Y-66106D01*
X73966Y-66117D01*
X73987Y-66128D01*
X73988Y-66129D01*
X73990Y-66130D01*
X74013Y-66137D01*
X74035Y-66144D01*
X74037Y-66144D01*
X74038Y-66144D01*
X74062Y-66147D01*
X74086Y-66149D01*
X74089Y-66149D01*
X74089Y-66149D01*
X74089Y-66149D01*
X74090Y-66150D01*
X79682Y-66150D01*
X82010Y-68477D01*
X82010Y-69040D01*
X82010Y-69520D01*
X82012Y-69543D01*
X82014Y-69567D01*
X82014Y-69569D01*
X82014Y-69570D01*
X82021Y-69593D01*
X82028Y-69616D01*
X82029Y-69617D01*
X82029Y-69619D01*
X82040Y-69640D01*
X82051Y-69661D01*
X82052Y-69662D01*
X82053Y-69663D01*
X82068Y-69682D01*
X82083Y-69701D01*
X82085Y-69703D01*
X82085Y-69703D01*
X82085Y-69703D01*
X82086Y-69703D01*
X83686Y-71303D01*
X83704Y-71319D01*
X83723Y-71334D01*
X83724Y-71335D01*
X83725Y-71336D01*
X83746Y-71347D01*
X83767Y-71358D01*
X83768Y-71359D01*
X83770Y-71360D01*
X83793Y-71367D01*
X83815Y-71374D01*
X83817Y-71374D01*
X83818Y-71374D01*
X83842Y-71377D01*
X83866Y-71379D01*
X83869Y-71379D01*
X83869Y-71379D01*
X83869Y-71379D01*
X83870Y-71380D01*
X88510Y-71380D01*
X88533Y-71377D01*
X88557Y-71375D01*
X88559Y-71375D01*
X88560Y-71375D01*
X88583Y-71368D01*
X88606Y-71361D01*
X88607Y-71360D01*
X88609Y-71360D01*
X88630Y-71349D01*
X88651Y-71338D01*
X88652Y-71337D01*
X88653Y-71336D01*
X88672Y-71321D01*
X88691Y-71306D01*
X88693Y-71304D01*
X88693Y-71304D01*
X88693Y-71304D01*
X88693Y-71303D01*
X91167Y-68830D01*
X92850Y-68830D01*
X92865Y-68845D01*
X92923Y-68885D01*
X92988Y-68914D01*
X93057Y-68929D01*
X93127Y-68930D01*
X93197Y-68918D01*
X93263Y-68892D01*
X93322Y-68855D01*
X93373Y-68806D01*
X93414Y-68748D01*
X93443Y-68684D01*
X93458Y-68615D01*
X93460Y-68534D01*
X93449Y-68480D01*
X93600Y-68480D01*
X93615Y-68495D01*
X93673Y-68535D01*
X93738Y-68564D01*
X93807Y-68579D01*
X93877Y-68580D01*
X93947Y-68568D01*
X94013Y-68542D01*
X94072Y-68505D01*
X94123Y-68456D01*
X94164Y-68398D01*
X94193Y-68334D01*
X94208Y-68265D01*
X94210Y-68184D01*
X94196Y-68115D01*
X94173Y-68059D01*
X94866Y-68059D01*
X94925Y-68151D01*
X95002Y-68230D01*
X95093Y-68294D01*
X95194Y-68338D01*
X95302Y-68362D01*
X95413Y-68364D01*
X95522Y-68345D01*
X95625Y-68305D01*
X95719Y-68245D01*
X95799Y-68169D01*
X95863Y-68079D01*
X95908Y-67978D01*
X95932Y-67870D01*
X95934Y-67743D01*
X95912Y-67635D01*
X95870Y-67532D01*
X95846Y-67497D01*
X95913Y-67498D01*
X96022Y-67479D01*
X96125Y-67439D01*
X96219Y-67379D01*
X96299Y-67303D01*
X96363Y-67213D01*
X96408Y-67112D01*
X96432Y-67004D01*
X96434Y-66877D01*
X96412Y-66769D01*
X96370Y-66666D01*
X96346Y-66630D01*
X96413Y-66632D01*
X96522Y-66613D01*
X96625Y-66573D01*
X96719Y-66513D01*
X96799Y-66437D01*
X96863Y-66347D01*
X96908Y-66245D01*
X96932Y-66138D01*
X96934Y-66011D01*
X96912Y-65903D01*
X96898Y-65869D01*
X96912Y-65877D01*
X96951Y-65890D01*
X96992Y-65895D01*
X97033Y-65893D01*
X97073Y-65882D01*
X97110Y-65864D01*
X97143Y-65839D01*
X97170Y-65809D01*
X97191Y-65773D01*
X97546Y-65158D01*
X97559Y-65119D01*
X97564Y-65078D01*
X97562Y-65037D01*
X97551Y-64997D01*
X97533Y-64960D01*
X97508Y-64927D01*
X97478Y-64900D01*
X97442Y-64879D01*
X97140Y-64705D01*
X97140Y-58481D01*
X97351Y-58270D01*
X97435Y-58270D01*
X97435Y-58374D01*
X97443Y-58415D01*
X97459Y-58453D01*
X97482Y-58487D01*
X97511Y-58516D01*
X97545Y-58539D01*
X97583Y-58555D01*
X97623Y-58564D01*
X97638Y-58564D01*
X97565Y-58635D01*
X97503Y-58726D01*
X97459Y-58828D01*
X97436Y-58936D01*
X97434Y-59047D01*
X97454Y-59156D01*
X97495Y-59259D01*
X97555Y-59352D01*
X97632Y-59431D01*
X97723Y-59495D01*
X97733Y-59499D01*
X97644Y-59558D01*
X97565Y-59635D01*
X97503Y-59726D01*
X97459Y-59828D01*
X97436Y-59936D01*
X97434Y-60047D01*
X97454Y-60156D01*
X97495Y-60259D01*
X97555Y-60352D01*
X97632Y-60431D01*
X97723Y-60495D01*
X97733Y-60499D01*
X97644Y-60558D01*
X97565Y-60635D01*
X97503Y-60726D01*
X97459Y-60828D01*
X97436Y-60936D01*
X97434Y-61047D01*
X97454Y-61156D01*
X97495Y-61259D01*
X97555Y-61352D01*
X97632Y-61431D01*
X97723Y-61495D01*
X97824Y-61539D01*
X97932Y-61563D01*
X98043Y-61565D01*
X98152Y-61546D01*
X98255Y-61506D01*
X98349Y-61446D01*
X98429Y-61370D01*
X98493Y-61280D01*
X98538Y-61178D01*
X98562Y-61071D01*
X98564Y-60944D01*
X98542Y-60836D01*
X98500Y-60733D01*
X98439Y-60641D01*
X98361Y-60563D01*
X98269Y-60501D01*
X98265Y-60499D01*
X98349Y-60446D01*
X98429Y-60370D01*
X98493Y-60280D01*
X98538Y-60178D01*
X98562Y-60071D01*
X98564Y-59944D01*
X98542Y-59836D01*
X98500Y-59733D01*
X98439Y-59641D01*
X98361Y-59563D01*
X98269Y-59501D01*
X98265Y-59499D01*
X98349Y-59446D01*
X98429Y-59370D01*
X98493Y-59280D01*
X98538Y-59178D01*
X98562Y-59071D01*
X98564Y-58944D01*
X98542Y-58836D01*
X98500Y-58733D01*
X98439Y-58641D01*
X98362Y-58564D01*
X98374Y-58564D01*
X98415Y-58556D01*
X98453Y-58540D01*
X98487Y-58517D01*
X98516Y-58488D01*
X98539Y-58454D01*
X98555Y-58416D01*
X98564Y-58376D01*
X98564Y-58335D01*
X98564Y-57625D01*
X98556Y-57584D01*
X98540Y-57546D01*
X98517Y-57512D01*
X98488Y-57483D01*
X98454Y-57460D01*
X98416Y-57444D01*
X98376Y-57435D01*
X98335Y-57435D01*
X97625Y-57435D01*
X97584Y-57443D01*
X97546Y-57459D01*
X97512Y-57482D01*
X97483Y-57511D01*
X97460Y-57545D01*
X97444Y-57583D01*
X97435Y-57623D01*
X97435Y-57664D01*
X97435Y-57730D01*
X97240Y-57730D01*
X97215Y-57732D01*
X97190Y-57734D01*
X97188Y-57735D01*
X97187Y-57735D01*
X97163Y-57742D01*
X97139Y-57749D01*
X97138Y-57749D01*
X97137Y-57750D01*
X97115Y-57762D01*
X97092Y-57773D01*
X97091Y-57774D01*
X97090Y-57775D01*
X97071Y-57790D01*
X97051Y-57806D01*
X97049Y-57808D01*
X97049Y-57808D01*
X97049Y-57808D01*
X97049Y-57809D01*
X96679Y-58179D01*
X96663Y-58198D01*
X96647Y-58217D01*
X96646Y-58218D01*
X96645Y-58219D01*
X96633Y-58241D01*
X96621Y-58263D01*
X96621Y-58264D01*
X96620Y-58266D01*
X96613Y-58290D01*
X96605Y-58313D01*
X96605Y-58315D01*
X96605Y-58316D01*
X96602Y-58341D01*
X96600Y-58366D01*
X96600Y-58369D01*
X96600Y-58369D01*
X96600Y-58369D01*
X96600Y-58370D01*
X96600Y-64559D01*
X96596Y-64562D01*
X96569Y-64592D01*
X96548Y-64628D01*
X96193Y-65243D01*
X96180Y-65282D01*
X96175Y-65323D01*
X96177Y-65364D01*
X96188Y-65404D01*
X96206Y-65441D01*
X96231Y-65474D01*
X96261Y-65501D01*
X96276Y-65510D01*
X96209Y-65522D01*
X96107Y-65564D01*
X96014Y-65625D01*
X95935Y-65702D01*
X95873Y-65793D01*
X95829Y-65895D01*
X95806Y-66003D01*
X95804Y-66114D01*
X95824Y-66223D01*
X95865Y-66326D01*
X95893Y-66368D01*
X95818Y-66368D01*
X95709Y-66389D01*
X95607Y-66430D01*
X95514Y-66491D01*
X95435Y-66568D01*
X95373Y-66659D01*
X95329Y-66761D01*
X95306Y-66869D01*
X95304Y-66980D01*
X95324Y-67089D01*
X95365Y-67192D01*
X95393Y-67234D01*
X95318Y-67234D01*
X95209Y-67255D01*
X95107Y-67296D01*
X95014Y-67357D01*
X94935Y-67434D01*
X94873Y-67525D01*
X94867Y-67539D01*
X91940Y-67539D01*
X91346Y-67539D01*
X91346Y-65994D01*
X91343Y-65962D01*
X91343Y-64158D01*
X91322Y-64050D01*
X91280Y-63947D01*
X91218Y-63855D01*
X91140Y-63777D01*
X91049Y-63715D01*
X90947Y-63672D01*
X90838Y-63650D01*
X90728Y-63649D01*
X90619Y-63670D01*
X90516Y-63711D01*
X90424Y-63772D01*
X90345Y-63849D01*
X90282Y-63940D01*
X90239Y-64042D01*
X90216Y-64150D01*
X90214Y-64261D01*
X90234Y-64370D01*
X90275Y-64473D01*
X90335Y-64566D01*
X90412Y-64646D01*
X90502Y-64709D01*
X90604Y-64753D01*
X90712Y-64777D01*
X90823Y-64779D01*
X90932Y-64760D01*
X91035Y-64720D01*
X91128Y-64661D01*
X91208Y-64584D01*
X91272Y-64494D01*
X91317Y-64393D01*
X91342Y-64285D01*
X91343Y-64158D01*
X91343Y-65962D01*
X91337Y-65884D01*
X91307Y-65777D01*
X91256Y-65679D01*
X91246Y-65664D01*
X91153Y-65632D01*
X91132Y-65653D01*
X91132Y-65611D01*
X91100Y-65518D01*
X91003Y-65464D01*
X90898Y-65431D01*
X90788Y-65418D01*
X90677Y-65427D01*
X90571Y-65458D01*
X90473Y-65508D01*
X90458Y-65518D01*
X90426Y-65611D01*
X90779Y-65964D01*
X91132Y-65611D01*
X91132Y-65653D01*
X90800Y-65985D01*
X91153Y-66338D01*
X91246Y-66306D01*
X91300Y-66209D01*
X91334Y-66104D01*
X91346Y-65994D01*
X91346Y-67539D01*
X91180Y-67539D01*
X91157Y-67541D01*
X91133Y-67543D01*
X91132Y-67543D01*
X91132Y-66360D01*
X90779Y-66007D01*
X90758Y-66028D01*
X90758Y-65985D01*
X90405Y-65632D01*
X90312Y-65664D01*
X90258Y-65761D01*
X90225Y-65867D01*
X90212Y-65977D01*
X90221Y-66087D01*
X90251Y-66193D01*
X90302Y-66292D01*
X90312Y-66306D01*
X90405Y-66338D01*
X90758Y-65985D01*
X90758Y-66028D01*
X90426Y-66360D01*
X90458Y-66453D01*
X90555Y-66506D01*
X90660Y-66540D01*
X90770Y-66552D01*
X90881Y-66543D01*
X90987Y-66513D01*
X91086Y-66462D01*
X91100Y-66453D01*
X91132Y-66360D01*
X91132Y-67543D01*
X91131Y-67543D01*
X91130Y-67543D01*
X91107Y-67550D01*
X91084Y-67557D01*
X91083Y-67558D01*
X91081Y-67558D01*
X91060Y-67569D01*
X91039Y-67580D01*
X91038Y-67581D01*
X91037Y-67582D01*
X91018Y-67597D01*
X90999Y-67612D01*
X90997Y-67614D01*
X90997Y-67614D01*
X90997Y-67614D01*
X90997Y-67615D01*
X88787Y-69824D01*
X88787Y-65994D01*
X88778Y-65884D01*
X88748Y-65777D01*
X88697Y-65679D01*
X88687Y-65664D01*
X88594Y-65632D01*
X88573Y-65653D01*
X88573Y-65611D01*
X88541Y-65518D01*
X88444Y-65464D01*
X88339Y-65431D01*
X88229Y-65418D01*
X88118Y-65427D01*
X88012Y-65458D01*
X87913Y-65508D01*
X87899Y-65518D01*
X87867Y-65611D01*
X88220Y-65964D01*
X88573Y-65611D01*
X88573Y-65653D01*
X88241Y-65985D01*
X88594Y-66338D01*
X88687Y-66306D01*
X88741Y-66209D01*
X88774Y-66104D01*
X88787Y-65994D01*
X88787Y-69824D01*
X88573Y-70038D01*
X88573Y-66360D01*
X88220Y-66007D01*
X88199Y-66028D01*
X88199Y-65985D01*
X87846Y-65632D01*
X87753Y-65664D01*
X87699Y-65761D01*
X87665Y-65867D01*
X87653Y-65977D01*
X87662Y-66087D01*
X87692Y-66193D01*
X87743Y-66292D01*
X87753Y-66306D01*
X87846Y-66338D01*
X88199Y-65985D01*
X88199Y-66028D01*
X87867Y-66360D01*
X87899Y-66453D01*
X87996Y-66506D01*
X88101Y-66540D01*
X88211Y-66552D01*
X88322Y-66543D01*
X88428Y-66513D01*
X88526Y-66462D01*
X88541Y-66453D01*
X88573Y-66360D01*
X88573Y-70038D01*
X88182Y-70430D01*
X86902Y-70430D01*
X86902Y-67929D01*
X86875Y-67790D01*
X86821Y-67659D01*
X86743Y-67541D01*
X86643Y-67441D01*
X86526Y-67361D01*
X86395Y-67307D01*
X86256Y-67278D01*
X86115Y-67277D01*
X85976Y-67304D01*
X85845Y-67357D01*
X85726Y-67434D01*
X85625Y-67533D01*
X85545Y-67650D01*
X85489Y-67780D01*
X85460Y-67919D01*
X85458Y-68060D01*
X85483Y-68199D01*
X85536Y-68331D01*
X85612Y-68450D01*
X85711Y-68552D01*
X85827Y-68633D01*
X85956Y-68689D01*
X86095Y-68720D01*
X86236Y-68723D01*
X86376Y-68698D01*
X86508Y-68647D01*
X86627Y-68571D01*
X86730Y-68473D01*
X86811Y-68358D01*
X86869Y-68228D01*
X86900Y-68090D01*
X86902Y-67929D01*
X86902Y-70430D01*
X85725Y-70430D01*
X85725Y-69865D01*
X85714Y-69724D01*
X85676Y-69588D01*
X85612Y-69461D01*
X85595Y-69436D01*
X85486Y-69385D01*
X85465Y-69406D01*
X85465Y-69364D01*
X85414Y-69254D01*
X85290Y-69185D01*
X85155Y-69142D01*
X85015Y-69125D01*
X84874Y-69136D01*
X84737Y-69174D01*
X84611Y-69237D01*
X84585Y-69254D01*
X84544Y-69344D01*
X84544Y-68015D01*
X84533Y-67874D01*
X84495Y-67737D01*
X84431Y-67611D01*
X84414Y-67585D01*
X84305Y-67534D01*
X84283Y-67556D01*
X84283Y-67513D01*
X84232Y-67404D01*
X84109Y-67335D01*
X83974Y-67291D01*
X83834Y-67274D01*
X83693Y-67285D01*
X83556Y-67323D01*
X83430Y-67387D01*
X83404Y-67404D01*
X83353Y-67513D01*
X83818Y-67978D01*
X84283Y-67513D01*
X84283Y-67556D01*
X83840Y-68000D01*
X84305Y-68465D01*
X84414Y-68414D01*
X84483Y-68290D01*
X84527Y-68155D01*
X84544Y-68015D01*
X84544Y-69344D01*
X84534Y-69364D01*
X85000Y-69829D01*
X85465Y-69364D01*
X85465Y-69406D01*
X85021Y-69850D01*
X85486Y-70315D01*
X85595Y-70264D01*
X85664Y-70140D01*
X85708Y-70006D01*
X85725Y-69865D01*
X85725Y-70430D01*
X85421Y-70430D01*
X85465Y-70336D01*
X85000Y-69871D01*
X84978Y-69892D01*
X84978Y-69850D01*
X84513Y-69385D01*
X84404Y-69436D01*
X84335Y-69559D01*
X84291Y-69694D01*
X84283Y-69759D01*
X84283Y-68486D01*
X83818Y-68021D01*
X83797Y-68042D01*
X83797Y-68000D01*
X83332Y-67534D01*
X83223Y-67585D01*
X83154Y-67709D01*
X83110Y-67844D01*
X83093Y-67984D01*
X83104Y-68125D01*
X83142Y-68262D01*
X83206Y-68388D01*
X83223Y-68414D01*
X83332Y-68465D01*
X83797Y-68000D01*
X83797Y-68042D01*
X83353Y-68486D01*
X83404Y-68595D01*
X83528Y-68664D01*
X83662Y-68708D01*
X83803Y-68725D01*
X83944Y-68714D01*
X84081Y-68676D01*
X84207Y-68612D01*
X84232Y-68595D01*
X84283Y-68486D01*
X84283Y-69759D01*
X84274Y-69835D01*
X84285Y-69976D01*
X84323Y-70112D01*
X84387Y-70238D01*
X84404Y-70264D01*
X84513Y-70315D01*
X84978Y-69850D01*
X84978Y-69892D01*
X84534Y-70336D01*
X84578Y-70430D01*
X84187Y-70430D01*
X82950Y-69192D01*
X82950Y-69100D01*
X82950Y-68170D01*
X82947Y-68146D01*
X82945Y-68122D01*
X82945Y-68120D01*
X82945Y-68119D01*
X82938Y-68096D01*
X82931Y-68073D01*
X82930Y-68072D01*
X82930Y-68070D01*
X82919Y-68049D01*
X82908Y-68028D01*
X82907Y-68027D01*
X82906Y-68026D01*
X82891Y-68007D01*
X82876Y-67988D01*
X82874Y-67986D01*
X82874Y-67986D01*
X82874Y-67986D01*
X82873Y-67986D01*
X80173Y-65286D01*
X80155Y-65270D01*
X80136Y-65255D01*
X80135Y-65254D01*
X80134Y-65253D01*
X80113Y-65242D01*
X80092Y-65231D01*
X80091Y-65230D01*
X80089Y-65229D01*
X80066Y-65222D01*
X80044Y-65215D01*
X80042Y-65215D01*
X80041Y-65215D01*
X80017Y-65212D01*
X79993Y-65210D01*
X79990Y-65210D01*
X79990Y-65210D01*
X79990Y-65210D01*
X79990Y-65210D01*
X75687Y-65210D01*
X75837Y-65060D01*
X79250Y-65060D01*
X79273Y-65057D01*
X79297Y-65055D01*
X79299Y-65055D01*
X79300Y-65055D01*
X79323Y-65048D01*
X79346Y-65041D01*
X79347Y-65040D01*
X79349Y-65040D01*
X79370Y-65029D01*
X79391Y-65018D01*
X79392Y-65017D01*
X79393Y-65016D01*
X79412Y-65001D01*
X79431Y-64986D01*
X79433Y-64984D01*
X79433Y-64984D01*
X79433Y-64984D01*
X79433Y-64983D01*
X81133Y-63283D01*
X81149Y-63265D01*
X81164Y-63246D01*
X81165Y-63245D01*
X81166Y-63244D01*
X81177Y-63223D01*
X81188Y-63202D01*
X81189Y-63201D01*
X81190Y-63199D01*
X81197Y-63176D01*
X81204Y-63154D01*
X81204Y-63152D01*
X81204Y-63151D01*
X81207Y-63127D01*
X81209Y-63103D01*
X81209Y-63100D01*
X81209Y-63100D01*
X81209Y-63100D01*
X81210Y-63100D01*
X81210Y-62679D01*
X81223Y-62666D01*
X81264Y-62608D01*
X81293Y-62544D01*
X81308Y-62475D01*
X81310Y-62394D01*
X81296Y-62325D01*
X81269Y-62260D01*
X81230Y-62201D01*
X81180Y-62151D01*
X81122Y-62111D01*
X81056Y-62084D01*
X80987Y-62070D01*
X80917Y-62069D01*
X80847Y-62082D01*
X80782Y-62109D01*
X80723Y-62148D01*
X80679Y-62190D01*
X80616Y-62164D01*
X80547Y-62150D01*
X80477Y-62149D01*
X80407Y-62162D01*
X80342Y-62189D01*
X80283Y-62228D01*
X80232Y-62277D01*
X80193Y-62335D01*
X80165Y-62400D01*
X80150Y-62469D01*
X80149Y-62540D01*
X80162Y-62609D01*
X80165Y-62617D01*
X80133Y-62638D01*
X80082Y-62687D01*
X80043Y-62745D01*
X80015Y-62810D01*
X80000Y-62879D01*
X80000Y-62912D01*
X78812Y-64100D01*
X78177Y-64100D01*
X78363Y-63913D01*
X78379Y-63895D01*
X78394Y-63876D01*
X78395Y-63875D01*
X78396Y-63874D01*
X78407Y-63853D01*
X78418Y-63832D01*
X78419Y-63831D01*
X78420Y-63829D01*
X78427Y-63806D01*
X78434Y-63784D01*
X78434Y-63782D01*
X78434Y-63781D01*
X78437Y-63757D01*
X78439Y-63733D01*
X78439Y-63730D01*
X78439Y-63730D01*
X78439Y-63730D01*
X78440Y-63730D01*
X78440Y-62690D01*
X78440Y-62527D01*
X79392Y-61575D01*
X79450Y-61575D01*
X80085Y-61575D01*
X80108Y-61572D01*
X80132Y-61570D01*
X80134Y-61570D01*
X80135Y-61570D01*
X80158Y-61563D01*
X80181Y-61556D01*
X80182Y-61555D01*
X80184Y-61555D01*
X80205Y-61544D01*
X80226Y-61533D01*
X80227Y-61532D01*
X80228Y-61531D01*
X80247Y-61516D01*
X80266Y-61501D01*
X80268Y-61499D01*
X80268Y-61499D01*
X80268Y-61499D01*
X80268Y-61498D01*
X80870Y-60897D01*
X80870Y-61250D01*
X80862Y-61257D01*
X80823Y-61315D01*
X80795Y-61380D01*
X80780Y-61449D01*
X80779Y-61520D01*
X80792Y-61589D01*
X80818Y-61655D01*
X80856Y-61714D01*
X80905Y-61765D01*
X80963Y-61805D01*
X81028Y-61834D01*
X81097Y-61849D01*
X81167Y-61850D01*
X81237Y-61838D01*
X81303Y-61812D01*
X81362Y-61775D01*
X81413Y-61726D01*
X81454Y-61668D01*
X81483Y-61604D01*
X81498Y-61535D01*
X81500Y-61454D01*
X81486Y-61385D01*
X81459Y-61320D01*
X81420Y-61261D01*
X81410Y-61250D01*
X81410Y-60831D01*
X81501Y-60740D01*
X81507Y-60740D01*
X81540Y-60734D01*
X81540Y-63330D01*
X81542Y-63353D01*
X81544Y-63377D01*
X81544Y-63379D01*
X81544Y-63380D01*
X81551Y-63403D01*
X81558Y-63426D01*
X81559Y-63427D01*
X81559Y-63429D01*
X81570Y-63450D01*
X81581Y-63471D01*
X81582Y-63472D01*
X81583Y-63473D01*
X81598Y-63492D01*
X81613Y-63511D01*
X81615Y-63513D01*
X81615Y-63513D01*
X81615Y-63513D01*
X81616Y-63513D01*
X82500Y-64398D01*
X82518Y-64413D01*
X82537Y-64428D01*
X82538Y-64429D01*
X82539Y-64430D01*
X82560Y-64441D01*
X82581Y-64453D01*
X82583Y-64453D01*
X82584Y-64454D01*
X82607Y-64461D01*
X82630Y-64468D01*
X82631Y-64468D01*
X82632Y-64469D01*
X82656Y-64471D01*
X82680Y-64474D01*
X82683Y-64474D01*
X82683Y-64474D01*
X82683Y-64474D01*
X82684Y-64474D01*
X87716Y-64474D01*
X87776Y-64566D01*
X87852Y-64646D01*
X87943Y-64709D01*
X88045Y-64753D01*
X88153Y-64777D01*
X88263Y-64779D01*
X88372Y-64760D01*
X88476Y-64720D01*
X88569Y-64661D01*
X88649Y-64584D01*
X88713Y-64494D01*
X88758Y-64393D01*
X88783Y-64285D01*
X88784Y-64158D01*
X88763Y-64050D01*
X88721Y-63947D01*
X88659Y-63855D01*
X88581Y-63777D01*
X88490Y-63715D01*
X88388Y-63672D01*
X88279Y-63650D01*
X88169Y-63649D01*
X88060Y-63670D01*
X87957Y-63711D01*
X87865Y-63772D01*
X87786Y-63849D01*
X87723Y-63940D01*
X87717Y-63954D01*
X82791Y-63954D01*
X82060Y-63222D01*
X82060Y-61517D01*
X82476Y-61933D01*
X82494Y-61949D01*
X82513Y-61964D01*
X82514Y-61965D01*
X82515Y-61966D01*
X82536Y-61977D01*
X82557Y-61988D01*
X82558Y-61989D01*
X82560Y-61990D01*
X82583Y-61997D01*
X82605Y-62004D01*
X82607Y-62004D01*
X82608Y-62004D01*
X82632Y-62007D01*
X82656Y-62009D01*
X82659Y-62009D01*
X82659Y-62009D01*
X82659Y-62009D01*
X82660Y-62010D01*
X83300Y-62010D01*
X83323Y-62007D01*
X83347Y-62005D01*
X83349Y-62005D01*
X83350Y-62005D01*
X83373Y-61998D01*
X83396Y-61991D01*
X83397Y-61990D01*
X83399Y-61990D01*
X83420Y-61979D01*
X83441Y-61968D01*
X83442Y-61967D01*
X83443Y-61966D01*
X83462Y-61951D01*
X83481Y-61936D01*
X83483Y-61934D01*
X83483Y-61934D01*
X83483Y-61934D01*
X83483Y-61933D01*
X84630Y-60787D01*
X84653Y-60845D01*
X84691Y-60904D01*
X84740Y-60955D01*
X84798Y-60995D01*
X84863Y-61024D01*
X84932Y-61039D01*
X85002Y-61040D01*
X85072Y-61028D01*
X85138Y-61002D01*
X85197Y-60965D01*
X85248Y-60916D01*
X85289Y-60858D01*
X85318Y-60794D01*
X85324Y-60765D01*
X87895Y-60765D01*
X87918Y-60762D01*
X87942Y-60760D01*
X87944Y-60760D01*
X87945Y-60760D01*
X87968Y-60753D01*
X87991Y-60746D01*
X87992Y-60745D01*
X87994Y-60745D01*
X88015Y-60734D01*
X88036Y-60723D01*
X88037Y-60722D01*
X88038Y-60721D01*
X88057Y-60706D01*
X88076Y-60691D01*
X88078Y-60689D01*
X88078Y-60689D01*
X88078Y-60689D01*
X88078Y-60688D01*
X91112Y-57655D01*
X91925Y-57655D01*
X91948Y-57652D01*
X91972Y-57650D01*
X91974Y-57650D01*
X91975Y-57650D01*
X91998Y-57643D01*
X92021Y-57636D01*
X92022Y-57635D01*
X92024Y-57635D01*
X92045Y-57624D01*
X92066Y-57613D01*
X92067Y-57612D01*
X92068Y-57611D01*
X92087Y-57596D01*
X92106Y-57581D01*
X92108Y-57579D01*
X92108Y-57579D01*
X92108Y-57579D01*
X92108Y-57578D01*
X92297Y-57390D01*
X92317Y-57390D01*
X92387Y-57378D01*
X92453Y-57352D01*
X92512Y-57315D01*
X92563Y-57266D01*
X92604Y-57208D01*
X92633Y-57144D01*
X92648Y-57075D01*
X92650Y-56994D01*
X92636Y-56925D01*
X92609Y-56860D01*
X92570Y-56801D01*
X92520Y-56751D01*
X92462Y-56711D01*
X92396Y-56684D01*
X92337Y-56672D01*
X92326Y-56615D01*
X92299Y-56550D01*
X92260Y-56491D01*
X92210Y-56441D01*
X92152Y-56401D01*
X92086Y-56374D01*
X92017Y-56360D01*
X91947Y-56359D01*
X91877Y-56372D01*
X91812Y-56399D01*
X91753Y-56438D01*
X91702Y-56487D01*
X91663Y-56545D01*
X91635Y-56610D01*
X91620Y-56679D01*
X91620Y-56712D01*
X91409Y-56922D01*
X90912Y-56922D01*
X90888Y-56924D01*
X90864Y-56926D01*
X90863Y-56927D01*
X90861Y-56927D01*
X90838Y-56934D01*
X90815Y-56941D01*
X90814Y-56941D01*
X90813Y-56942D01*
X90792Y-56953D01*
X90770Y-56964D01*
X90769Y-56965D01*
X90768Y-56965D01*
X90750Y-56981D01*
X90731Y-56996D01*
X90729Y-56997D01*
X90729Y-56998D01*
X90729Y-56998D01*
X90728Y-56998D01*
X87702Y-60025D01*
X86434Y-60025D01*
X86438Y-60005D01*
X86440Y-59924D01*
X86426Y-59855D01*
X86399Y-59790D01*
X86360Y-59731D01*
X86310Y-59681D01*
X86252Y-59641D01*
X86186Y-59614D01*
X86117Y-59600D01*
X86087Y-59600D01*
X85983Y-59496D01*
X85965Y-59480D01*
X85946Y-59465D01*
X85945Y-59464D01*
X85944Y-59463D01*
X85923Y-59452D01*
X85902Y-59441D01*
X85901Y-59440D01*
X85899Y-59439D01*
X85876Y-59432D01*
X85854Y-59425D01*
X85852Y-59425D01*
X85851Y-59425D01*
X85827Y-59422D01*
X85803Y-59420D01*
X85800Y-59420D01*
X85800Y-59420D01*
X85800Y-59420D01*
X85800Y-59420D01*
X84849Y-59420D01*
X84830Y-59401D01*
X84772Y-59361D01*
X84706Y-59334D01*
X84637Y-59320D01*
X84567Y-59319D01*
X84497Y-59332D01*
X84432Y-59359D01*
X84373Y-59398D01*
X84322Y-59447D01*
X84283Y-59505D01*
X84255Y-59570D01*
X84240Y-59639D01*
X84239Y-59710D01*
X84252Y-59779D01*
X84278Y-59845D01*
X84316Y-59904D01*
X84365Y-59955D01*
X84423Y-59995D01*
X84488Y-60024D01*
X84557Y-60039D01*
X84627Y-60040D01*
X84697Y-60028D01*
X84763Y-60002D01*
X84822Y-59965D01*
X84849Y-59940D01*
X85692Y-59940D01*
X85719Y-59967D01*
X85719Y-59990D01*
X85725Y-60025D01*
X84765Y-60025D01*
X84741Y-60027D01*
X84717Y-60029D01*
X84715Y-60029D01*
X84714Y-60029D01*
X84691Y-60036D01*
X84668Y-60043D01*
X84667Y-60044D01*
X84665Y-60044D01*
X84644Y-60055D01*
X84623Y-60066D01*
X84622Y-60067D01*
X84621Y-60068D01*
X84602Y-60083D01*
X84583Y-60098D01*
X84581Y-60100D01*
X84581Y-60100D01*
X84581Y-60100D01*
X84581Y-60101D01*
X83950Y-60732D01*
X83950Y-59110D01*
X83953Y-59106D01*
X83994Y-59048D01*
X84023Y-58984D01*
X84038Y-58915D01*
X84040Y-58834D01*
X84026Y-58765D01*
X83999Y-58700D01*
X83960Y-58641D01*
X83910Y-58591D01*
X83852Y-58551D01*
X83786Y-58524D01*
X83717Y-58510D01*
X83647Y-58509D01*
X83577Y-58522D01*
X83512Y-58549D01*
X83453Y-58588D01*
X83402Y-58637D01*
X83363Y-58695D01*
X83335Y-58760D01*
X83320Y-58829D01*
X83319Y-58900D01*
X83332Y-58969D01*
X83358Y-59035D01*
X83396Y-59094D01*
X83410Y-59108D01*
X83410Y-60718D01*
X83368Y-60759D01*
X83357Y-60759D01*
X83287Y-60772D01*
X83222Y-60799D01*
X83163Y-60838D01*
X83112Y-60887D01*
X83073Y-60945D01*
X83045Y-61010D01*
X83030Y-61079D01*
X83029Y-61150D01*
X83042Y-61219D01*
X83068Y-61285D01*
X83106Y-61344D01*
X83155Y-61395D01*
X83213Y-61435D01*
X83236Y-61445D01*
X83192Y-61490D01*
X82767Y-61490D01*
X82395Y-61117D01*
X82395Y-60804D01*
X82408Y-60791D01*
X82449Y-60733D01*
X82478Y-60669D01*
X82493Y-60600D01*
X82495Y-60519D01*
X82481Y-60450D01*
X82454Y-60385D01*
X82415Y-60326D01*
X82365Y-60276D01*
X82309Y-60238D01*
X82803Y-59743D01*
X82819Y-59725D01*
X82834Y-59706D01*
X82835Y-59705D01*
X82836Y-59704D01*
X82847Y-59683D01*
X82858Y-59662D01*
X82859Y-59661D01*
X82860Y-59659D01*
X82867Y-59636D01*
X82874Y-59614D01*
X82874Y-59612D01*
X82874Y-59611D01*
X82877Y-59587D01*
X82879Y-59563D01*
X82879Y-59560D01*
X82879Y-59560D01*
X82879Y-59560D01*
X82880Y-59560D01*
X82880Y-59130D01*
X82880Y-58112D01*
X82907Y-58095D01*
X82934Y-58070D01*
X83090Y-58070D01*
X83810Y-58070D01*
X83833Y-58067D01*
X83857Y-58065D01*
X83859Y-58065D01*
X83860Y-58065D01*
X83883Y-58058D01*
X83906Y-58051D01*
X83907Y-58050D01*
X83909Y-58050D01*
X83930Y-58039D01*
X83951Y-58028D01*
X83952Y-58027D01*
X83953Y-58026D01*
X83972Y-58011D01*
X83991Y-57996D01*
X83993Y-57994D01*
X83993Y-57994D01*
X83993Y-57994D01*
X83993Y-57993D01*
X85127Y-56860D01*
X86110Y-56860D01*
X91065Y-56860D01*
X91088Y-56857D01*
X91112Y-56855D01*
X91114Y-56855D01*
X91115Y-56855D01*
X91138Y-56848D01*
X91161Y-56841D01*
X91162Y-56840D01*
X91164Y-56840D01*
X91185Y-56829D01*
X91206Y-56818D01*
X91207Y-56817D01*
X91208Y-56816D01*
X91227Y-56801D01*
X91246Y-56786D01*
X91248Y-56784D01*
X91248Y-56784D01*
X91248Y-56784D01*
X91248Y-56783D01*
X93421Y-54610D01*
X93443Y-54625D01*
X93508Y-54654D01*
X93577Y-54669D01*
X93647Y-54670D01*
X93717Y-54658D01*
X93783Y-54632D01*
X93842Y-54595D01*
X93893Y-54546D01*
X93934Y-54488D01*
X93963Y-54424D01*
X93978Y-54355D01*
X93980Y-54274D01*
X93966Y-54205D01*
X93939Y-54140D01*
X93900Y-54081D01*
X93878Y-54059D01*
X96366Y-54059D01*
X96425Y-54151D01*
X96502Y-54230D01*
X96593Y-54294D01*
X96694Y-54338D01*
X96802Y-54362D01*
X96913Y-54364D01*
X97022Y-54345D01*
X97125Y-54305D01*
X97219Y-54245D01*
X97299Y-54169D01*
X97363Y-54079D01*
X97408Y-53978D01*
X97432Y-53870D01*
X97434Y-53743D01*
X97412Y-53635D01*
X97370Y-53532D01*
X97309Y-53440D01*
X97231Y-53362D01*
X97139Y-53300D01*
X97037Y-53257D01*
X96929Y-53235D01*
X96847Y-53234D01*
X96863Y-53213D01*
X96908Y-53112D01*
X96932Y-53004D01*
X96934Y-52877D01*
X96912Y-52769D01*
X96870Y-52666D01*
X96809Y-52574D01*
X96731Y-52496D01*
X96639Y-52434D01*
X96537Y-52391D01*
X96429Y-52369D01*
X96347Y-52368D01*
X96363Y-52347D01*
X96408Y-52245D01*
X96432Y-52138D01*
X96434Y-52011D01*
X96412Y-51903D01*
X96370Y-51800D01*
X96309Y-51708D01*
X96231Y-51630D01*
X96139Y-51568D01*
X96037Y-51525D01*
X95963Y-51510D01*
X95976Y-51502D01*
X96007Y-51475D01*
X96032Y-51442D01*
X96051Y-51405D01*
X96062Y-51365D01*
X96064Y-51324D01*
X96059Y-51283D01*
X96046Y-51244D01*
X96026Y-51209D01*
X95671Y-50594D01*
X95644Y-50563D01*
X95611Y-50537D01*
X95574Y-50519D01*
X95534Y-50508D01*
X95493Y-50506D01*
X95452Y-50511D01*
X95413Y-50524D01*
X95378Y-50544D01*
X94763Y-50899D01*
X94732Y-50926D01*
X94707Y-50959D01*
X94688Y-50996D01*
X94677Y-51036D01*
X94675Y-51077D01*
X94680Y-51118D01*
X94693Y-51157D01*
X94713Y-51192D01*
X95068Y-51806D01*
X94613Y-51806D01*
X94589Y-51809D01*
X94565Y-51811D01*
X94563Y-51811D01*
X94562Y-51811D01*
X94539Y-51818D01*
X94516Y-51825D01*
X94515Y-51826D01*
X94513Y-51826D01*
X94492Y-51837D01*
X94471Y-51848D01*
X94470Y-51849D01*
X94469Y-51850D01*
X94450Y-51865D01*
X94431Y-51880D01*
X94429Y-51882D01*
X94429Y-51882D01*
X94429Y-51882D01*
X94429Y-51883D01*
X93040Y-53272D01*
X93039Y-53270D01*
X93000Y-53211D01*
X92950Y-53161D01*
X92892Y-53121D01*
X92826Y-53094D01*
X92757Y-53080D01*
X92727Y-53080D01*
X90560Y-50912D01*
X90560Y-49435D01*
X90557Y-49411D01*
X90555Y-49387D01*
X90555Y-49385D01*
X90555Y-49384D01*
X90548Y-49361D01*
X90541Y-49338D01*
X90540Y-49337D01*
X90540Y-49335D01*
X90529Y-49314D01*
X90518Y-49293D01*
X90517Y-49292D01*
X90516Y-49291D01*
X90501Y-49272D01*
X90486Y-49253D01*
X90484Y-49251D01*
X90484Y-49251D01*
X90484Y-49251D01*
X90483Y-49251D01*
X89532Y-48300D01*
X90722Y-48300D01*
X90876Y-48453D01*
X90894Y-48469D01*
X90913Y-48484D01*
X90914Y-48485D01*
X90915Y-48486D01*
X90936Y-48497D01*
X90957Y-48508D01*
X90958Y-48509D01*
X90960Y-48510D01*
X90983Y-48517D01*
X91005Y-48524D01*
X91007Y-48524D01*
X91008Y-48524D01*
X91032Y-48527D01*
X91056Y-48529D01*
X91059Y-48529D01*
X91059Y-48529D01*
X91059Y-48529D01*
X91060Y-48530D01*
X91690Y-48530D01*
X91713Y-48527D01*
X91737Y-48525D01*
X91739Y-48525D01*
X91740Y-48525D01*
X91763Y-48518D01*
X91786Y-48511D01*
X91787Y-48510D01*
X91789Y-48510D01*
X91810Y-48499D01*
X91831Y-48488D01*
X91832Y-48487D01*
X91833Y-48486D01*
X91849Y-48473D01*
X91854Y-48482D01*
X91931Y-48561D01*
X92022Y-48625D01*
X92123Y-48669D01*
X92231Y-48693D01*
X92342Y-48695D01*
X92451Y-48676D01*
X92554Y-48636D01*
X92648Y-48576D01*
X92728Y-48500D01*
X92792Y-48410D01*
X92837Y-48308D01*
X92861Y-48201D01*
X92863Y-48074D01*
X92841Y-47966D01*
X92799Y-47863D01*
X92738Y-47771D01*
X92660Y-47693D01*
X92568Y-47631D01*
X92466Y-47588D01*
X92358Y-47566D01*
X92247Y-47565D01*
X92138Y-47586D01*
X92036Y-47627D01*
X91996Y-47653D01*
X91997Y-47574D01*
X91975Y-47466D01*
X91933Y-47363D01*
X91872Y-47271D01*
X91794Y-47193D01*
X91702Y-47131D01*
X91600Y-47088D01*
X91492Y-47066D01*
X91381Y-47065D01*
X91272Y-47086D01*
X91170Y-47127D01*
X91130Y-47153D01*
X91131Y-47074D01*
X91109Y-46966D01*
X91067Y-46863D01*
X91006Y-46771D01*
X90928Y-46693D01*
X90836Y-46631D01*
X90734Y-46588D01*
X90626Y-46566D01*
X90515Y-46565D01*
X90406Y-46586D01*
X90369Y-46601D01*
X90377Y-46587D01*
X90390Y-46548D01*
X90395Y-46507D01*
X90393Y-46466D01*
X90382Y-46426D01*
X90364Y-46389D01*
X90339Y-46356D01*
X90309Y-46329D01*
X90273Y-46308D01*
X89658Y-45953D01*
X89619Y-45940D01*
X89578Y-45935D01*
X89537Y-45937D01*
X89497Y-45948D01*
X89460Y-45966D01*
X89427Y-45991D01*
X89400Y-46021D01*
X89379Y-46057D01*
X89024Y-46672D01*
X89011Y-46711D01*
X89006Y-46752D01*
X89008Y-46793D01*
X89019Y-46833D01*
X89037Y-46870D01*
X89062Y-46903D01*
X89092Y-46930D01*
X89128Y-46951D01*
X89743Y-47306D01*
X89782Y-47319D01*
X89823Y-47324D01*
X89864Y-47322D01*
X89904Y-47311D01*
X89941Y-47293D01*
X89974Y-47268D01*
X90001Y-47238D01*
X90010Y-47222D01*
X90021Y-47286D01*
X90039Y-47330D01*
X85350Y-47330D01*
X85326Y-47332D01*
X85302Y-47334D01*
X85300Y-47334D01*
X85299Y-47334D01*
X85276Y-47341D01*
X85253Y-47348D01*
X85252Y-47349D01*
X85250Y-47349D01*
X85229Y-47360D01*
X85208Y-47371D01*
X85207Y-47372D01*
X85206Y-47373D01*
X85187Y-47388D01*
X85168Y-47403D01*
X85166Y-47405D01*
X85166Y-47405D01*
X85166Y-47405D01*
X85166Y-47406D01*
X84990Y-47582D01*
X84990Y-46537D01*
X85463Y-46063D01*
X85543Y-46065D01*
X85652Y-46046D01*
X85755Y-46006D01*
X85849Y-45946D01*
X85929Y-45870D01*
X85993Y-45780D01*
X86038Y-45678D01*
X86062Y-45571D01*
X86064Y-45444D01*
X86042Y-45336D01*
X86000Y-45233D01*
X85939Y-45141D01*
X85861Y-45063D01*
X85769Y-45001D01*
X85667Y-44958D01*
X85559Y-44936D01*
X85448Y-44935D01*
X85339Y-44956D01*
X85237Y-44997D01*
X85144Y-45058D01*
X85065Y-45135D01*
X85003Y-45226D01*
X85000Y-45233D01*
X84939Y-45141D01*
X84861Y-45063D01*
X84769Y-45001D01*
X84667Y-44958D01*
X84559Y-44936D01*
X84448Y-44935D01*
X84339Y-44956D01*
X84237Y-44997D01*
X84144Y-45058D01*
X84065Y-45135D01*
X84003Y-45226D01*
X84000Y-45233D01*
X83939Y-45141D01*
X83861Y-45063D01*
X83769Y-45001D01*
X83667Y-44958D01*
X83559Y-44936D01*
X83448Y-44935D01*
X83339Y-44956D01*
X83237Y-44997D01*
X83144Y-45058D01*
X83065Y-45135D01*
X83064Y-45137D01*
X83064Y-45125D01*
X83056Y-45084D01*
X83040Y-45046D01*
X83017Y-45012D01*
X82988Y-44983D01*
X82954Y-44960D01*
X82916Y-44944D01*
X82876Y-44935D01*
X82835Y-44935D01*
X82125Y-44935D01*
X82084Y-44943D01*
X82046Y-44959D01*
X82012Y-44982D01*
X81983Y-45011D01*
X81960Y-45045D01*
X81944Y-45083D01*
X81935Y-45123D01*
X81935Y-45164D01*
X81935Y-45230D01*
X80640Y-45230D01*
X80615Y-45232D01*
X80590Y-45234D01*
X80588Y-45235D01*
X80587Y-45235D01*
X80563Y-45242D01*
X80539Y-45249D01*
X80538Y-45249D01*
X80537Y-45250D01*
X80515Y-45262D01*
X80492Y-45273D01*
X80491Y-45274D01*
X80490Y-45275D01*
X80471Y-45290D01*
X80451Y-45306D01*
X80449Y-45308D01*
X80449Y-45308D01*
X80449Y-45308D01*
X80449Y-45309D01*
X77608Y-48150D01*
X76786Y-48150D01*
X76822Y-48136D01*
X76916Y-48076D01*
X76996Y-48000D01*
X77060Y-47910D01*
X77105Y-47808D01*
X77129Y-47701D01*
X77130Y-47607D01*
X77156Y-47625D01*
X77257Y-47669D01*
X77365Y-47693D01*
X77476Y-47695D01*
X77585Y-47676D01*
X77688Y-47636D01*
X77782Y-47576D01*
X77862Y-47500D01*
X77926Y-47410D01*
X77971Y-47308D01*
X77995Y-47201D01*
X77996Y-47107D01*
X78022Y-47125D01*
X78123Y-47169D01*
X78231Y-47193D01*
X78342Y-47195D01*
X78451Y-47176D01*
X78554Y-47136D01*
X78648Y-47076D01*
X78728Y-47000D01*
X78792Y-46910D01*
X78837Y-46808D01*
X78861Y-46701D01*
X78863Y-46574D01*
X78841Y-46466D01*
X78799Y-46363D01*
X78738Y-46271D01*
X78660Y-46193D01*
X78568Y-46131D01*
X78466Y-46088D01*
X78358Y-46066D01*
X78247Y-46065D01*
X78138Y-46086D01*
X78036Y-46127D01*
X77943Y-46188D01*
X77864Y-46265D01*
X77802Y-46356D01*
X77758Y-46458D01*
X77735Y-46566D01*
X77734Y-46652D01*
X77702Y-46631D01*
X77600Y-46588D01*
X77492Y-46566D01*
X77381Y-46565D01*
X77272Y-46586D01*
X77170Y-46627D01*
X77077Y-46688D01*
X76998Y-46765D01*
X76936Y-46856D01*
X76892Y-46958D01*
X76869Y-47066D01*
X76868Y-47152D01*
X76836Y-47131D01*
X76734Y-47088D01*
X76626Y-47066D01*
X76515Y-47065D01*
X76406Y-47086D01*
X76304Y-47127D01*
X76211Y-47188D01*
X76132Y-47265D01*
X76070Y-47356D01*
X76026Y-47458D01*
X76009Y-47536D01*
X76002Y-47523D01*
X75975Y-47492D01*
X75942Y-47467D01*
X75905Y-47448D01*
X75865Y-47437D01*
X75824Y-47435D01*
X75783Y-47440D01*
X75744Y-47453D01*
X75709Y-47473D01*
X75094Y-47828D01*
X75063Y-47855D01*
X75037Y-47888D01*
X75019Y-47925D01*
X75008Y-47965D01*
X75006Y-48006D01*
X75011Y-48047D01*
X75024Y-48086D01*
X75044Y-48121D01*
X75399Y-48736D01*
X75426Y-48767D01*
X75459Y-48792D01*
X75496Y-48811D01*
X75536Y-48822D01*
X75577Y-48824D01*
X75618Y-48819D01*
X75657Y-48806D01*
X75692Y-48786D01*
X76023Y-48595D01*
X76039Y-48610D01*
X76058Y-48626D01*
X76077Y-48642D01*
X76078Y-48643D01*
X76079Y-48644D01*
X76101Y-48656D01*
X76123Y-48668D01*
X76124Y-48668D01*
X76126Y-48669D01*
X76150Y-48676D01*
X76173Y-48684D01*
X76175Y-48684D01*
X76176Y-48684D01*
X76201Y-48687D01*
X76226Y-48689D01*
X76229Y-48689D01*
X76229Y-48689D01*
X76229Y-48689D01*
X76230Y-48690D01*
X77720Y-48690D01*
X77744Y-48687D01*
X77769Y-48685D01*
X77771Y-48684D01*
X77772Y-48684D01*
X77796Y-48677D01*
X77820Y-48670D01*
X77821Y-48670D01*
X77822Y-48669D01*
X77844Y-48657D01*
X77867Y-48646D01*
X77868Y-48645D01*
X77869Y-48644D01*
X77888Y-48629D01*
X77908Y-48613D01*
X77910Y-48611D01*
X77910Y-48611D01*
X77910Y-48611D01*
X77910Y-48610D01*
X80751Y-45770D01*
X81935Y-45770D01*
X81935Y-45874D01*
X81943Y-45915D01*
X81959Y-45953D01*
X81982Y-45987D01*
X82011Y-46016D01*
X82045Y-46039D01*
X82083Y-46055D01*
X82123Y-46064D01*
X82164Y-46064D01*
X82874Y-46064D01*
X82915Y-46056D01*
X82953Y-46040D01*
X82987Y-46017D01*
X83016Y-45988D01*
X83039Y-45954D01*
X83055Y-45916D01*
X83064Y-45876D01*
X83064Y-45861D01*
X83132Y-45931D01*
X83223Y-45995D01*
X83324Y-46039D01*
X83432Y-46063D01*
X83466Y-46063D01*
X83970Y-46567D01*
X83970Y-47622D01*
X83524Y-48067D01*
X83511Y-48000D01*
X83484Y-47935D01*
X83445Y-47876D01*
X83395Y-47826D01*
X83337Y-47786D01*
X83271Y-47759D01*
X83244Y-47753D01*
X83283Y-47716D01*
X83324Y-47658D01*
X83353Y-47594D01*
X83368Y-47525D01*
X83370Y-47444D01*
X83356Y-47375D01*
X83329Y-47310D01*
X83290Y-47251D01*
X83240Y-47201D01*
X83182Y-47161D01*
X83137Y-47142D01*
X83138Y-47135D01*
X83140Y-47054D01*
X83126Y-46985D01*
X83099Y-46920D01*
X83060Y-46861D01*
X83010Y-46811D01*
X82952Y-46771D01*
X82886Y-46744D01*
X82817Y-46730D01*
X82747Y-46729D01*
X82677Y-46742D01*
X82612Y-46769D01*
X82553Y-46808D01*
X82502Y-46857D01*
X82463Y-46915D01*
X82435Y-46980D01*
X82430Y-47002D01*
X82408Y-47008D01*
X82407Y-47009D01*
X82405Y-47009D01*
X82384Y-47020D01*
X82363Y-47031D01*
X82362Y-47032D01*
X82361Y-47033D01*
X82342Y-47048D01*
X82323Y-47063D01*
X82321Y-47065D01*
X82321Y-47065D01*
X82321Y-47065D01*
X82321Y-47066D01*
X79747Y-49640D01*
X78600Y-49640D01*
X76780Y-49640D01*
X76756Y-49642D01*
X76732Y-49644D01*
X76730Y-49644D01*
X76729Y-49644D01*
X76706Y-49651D01*
X76683Y-49658D01*
X76682Y-49659D01*
X76680Y-49659D01*
X76659Y-49670D01*
X76638Y-49681D01*
X76637Y-49682D01*
X76636Y-49683D01*
X76617Y-49698D01*
X76598Y-49713D01*
X76596Y-49715D01*
X76596Y-49715D01*
X76596Y-49715D01*
X76596Y-49716D01*
X76452Y-49859D01*
X76427Y-49859D01*
X76357Y-49872D01*
X76292Y-49899D01*
X76233Y-49938D01*
X76182Y-49987D01*
X76143Y-50045D01*
X76115Y-50110D01*
X76100Y-50179D01*
X76099Y-50250D01*
X76112Y-50319D01*
X76138Y-50385D01*
X76176Y-50444D01*
X76225Y-50495D01*
X76283Y-50535D01*
X76348Y-50564D01*
X76417Y-50579D01*
X76487Y-50580D01*
X76557Y-50568D01*
X76623Y-50542D01*
X76682Y-50505D01*
X76733Y-50456D01*
X76774Y-50398D01*
X76803Y-50334D01*
X76818Y-50265D01*
X76819Y-50228D01*
X76887Y-50160D01*
X78600Y-50160D01*
X79572Y-50160D01*
X77947Y-51785D01*
X77947Y-51307D01*
X77938Y-51201D01*
X77908Y-51098D01*
X77860Y-51003D01*
X77851Y-50990D01*
X77760Y-50960D01*
X77739Y-50982D01*
X77739Y-50939D01*
X77709Y-50848D01*
X77615Y-50797D01*
X77514Y-50764D01*
X77407Y-50752D01*
X77301Y-50761D01*
X77198Y-50791D01*
X77103Y-50839D01*
X77090Y-50848D01*
X77060Y-50939D01*
X77400Y-51278D01*
X77739Y-50939D01*
X77739Y-50982D01*
X77421Y-51300D01*
X77760Y-51639D01*
X77851Y-51609D01*
X77902Y-51515D01*
X77935Y-51414D01*
X77947Y-51307D01*
X77947Y-51785D01*
X77801Y-51931D01*
X77748Y-51878D01*
X77660Y-51818D01*
X77617Y-51800D01*
X77696Y-51760D01*
X77709Y-51751D01*
X77739Y-51660D01*
X77400Y-51321D01*
X77060Y-51660D01*
X77090Y-51751D01*
X77180Y-51801D01*
X77146Y-51814D01*
X77057Y-51873D01*
X76980Y-51948D01*
X76920Y-52036D01*
X76900Y-52083D01*
X76883Y-52043D01*
X76824Y-51954D01*
X76748Y-51878D01*
X76660Y-51818D01*
X76616Y-51800D01*
X76646Y-51788D01*
X76736Y-51731D01*
X76814Y-51657D01*
X76875Y-51570D01*
X76899Y-51517D01*
X76939Y-51596D01*
X76948Y-51609D01*
X77039Y-51639D01*
X77378Y-51300D01*
X77039Y-50960D01*
X76948Y-50990D01*
X76898Y-51080D01*
X76883Y-51043D01*
X76824Y-50954D01*
X76748Y-50878D01*
X76660Y-50818D01*
X76561Y-50777D01*
X76457Y-50755D01*
X76350Y-50754D01*
X76245Y-50774D01*
X76146Y-50814D01*
X76057Y-50873D01*
X75980Y-50948D01*
X75920Y-51036D01*
X75900Y-51083D01*
X75883Y-51043D01*
X75824Y-50954D01*
X75748Y-50878D01*
X75660Y-50818D01*
X75561Y-50777D01*
X75457Y-50755D01*
X75350Y-50754D01*
X75245Y-50774D01*
X75146Y-50814D01*
X75057Y-50873D01*
X74980Y-50948D01*
X74920Y-51036D01*
X74878Y-51134D01*
X74856Y-51238D01*
X74854Y-51345D01*
X74873Y-51450D01*
X74913Y-51550D01*
X74971Y-51639D01*
X75045Y-51716D01*
X75100Y-51755D01*
X75044Y-51755D01*
X75004Y-51763D01*
X74966Y-51779D01*
X74931Y-51801D01*
X74902Y-51830D01*
X74879Y-51864D01*
X74863Y-51902D01*
X74855Y-51943D01*
X74855Y-51984D01*
X74855Y-52655D01*
X74863Y-52695D01*
X74879Y-52733D01*
X74901Y-52768D01*
X74930Y-52797D01*
X74964Y-52820D01*
X75002Y-52836D01*
X75043Y-52844D01*
X75084Y-52844D01*
X75571Y-52844D01*
X76081Y-53353D01*
X76099Y-53369D01*
X76118Y-53384D01*
X76119Y-53385D01*
X76120Y-53386D01*
X76141Y-53397D01*
X76162Y-53408D01*
X76163Y-53409D01*
X76165Y-53410D01*
X76188Y-53417D01*
X76210Y-53424D01*
X76212Y-53424D01*
X76213Y-53424D01*
X76237Y-53427D01*
X76261Y-53429D01*
X76264Y-53429D01*
X76264Y-53429D01*
X76264Y-53429D01*
X76265Y-53430D01*
X77745Y-53430D01*
X77768Y-53427D01*
X77792Y-53425D01*
X77794Y-53425D01*
X77795Y-53425D01*
X77818Y-53418D01*
X77841Y-53411D01*
X77842Y-53410D01*
X77844Y-53410D01*
X77865Y-53399D01*
X77886Y-53388D01*
X77887Y-53387D01*
X77888Y-53386D01*
X77907Y-53371D01*
X77926Y-53356D01*
X77928Y-53354D01*
X77928Y-53354D01*
X77928Y-53354D01*
X77928Y-53353D01*
X78502Y-52779D01*
X78518Y-52761D01*
X78533Y-52742D01*
X78534Y-52741D01*
X78534Y-52740D01*
X78546Y-52719D01*
X78557Y-52698D01*
X78558Y-52697D01*
X78558Y-52695D01*
X78565Y-52673D01*
X78573Y-52650D01*
X78573Y-52648D01*
X78573Y-52647D01*
X78576Y-52623D01*
X78578Y-52599D01*
X78578Y-52597D01*
X78578Y-52596D01*
X78578Y-52596D01*
X78578Y-52596D01*
X78578Y-52478D01*
X82492Y-48565D01*
X82965Y-48565D01*
X82988Y-48562D01*
X83012Y-48560D01*
X83014Y-48560D01*
X83015Y-48560D01*
X83038Y-48553D01*
X83039Y-48552D01*
X77366Y-54226D01*
X77350Y-54244D01*
X77335Y-54263D01*
X77334Y-54264D01*
X77333Y-54265D01*
X77322Y-54286D01*
X77311Y-54307D01*
X77310Y-54308D01*
X77309Y-54310D01*
X77302Y-54333D01*
X77295Y-54355D01*
X77295Y-54357D01*
X77295Y-54358D01*
X77292Y-54382D01*
X77290Y-54406D01*
X77290Y-54409D01*
X77290Y-54409D01*
X77290Y-54409D01*
X77290Y-54410D01*
X77290Y-55000D01*
X76800Y-55000D01*
X76480Y-55000D01*
X74729Y-55000D01*
X74710Y-54981D01*
X74652Y-54941D01*
X74586Y-54914D01*
X74517Y-54900D01*
X74447Y-54899D01*
X74377Y-54912D01*
X74312Y-54939D01*
X74253Y-54978D01*
X74244Y-54986D01*
X74222Y-54971D01*
X74156Y-54944D01*
X74087Y-54930D01*
X74017Y-54929D01*
X73947Y-54942D01*
X73882Y-54969D01*
X73823Y-55008D01*
X73775Y-55054D01*
X73772Y-55051D01*
X73706Y-55024D01*
X73637Y-55010D01*
X73567Y-55009D01*
X73497Y-55022D01*
X73432Y-55049D01*
X73373Y-55088D01*
X73346Y-55114D01*
X73342Y-55111D01*
X73276Y-55084D01*
X73207Y-55070D01*
X73137Y-55069D01*
X73067Y-55082D01*
X73002Y-55109D01*
X72943Y-55148D01*
X72932Y-55158D01*
X72892Y-55131D01*
X72887Y-55129D01*
X73563Y-54453D01*
X73579Y-54435D01*
X73594Y-54416D01*
X73595Y-54415D01*
X73596Y-54414D01*
X73607Y-54393D01*
X73618Y-54372D01*
X73619Y-54371D01*
X73620Y-54369D01*
X73627Y-54346D01*
X73634Y-54324D01*
X73634Y-54322D01*
X73634Y-54321D01*
X73637Y-54297D01*
X73639Y-54273D01*
X73639Y-54270D01*
X73639Y-54270D01*
X73639Y-54270D01*
X73640Y-54270D01*
X73640Y-51990D01*
X73637Y-51966D01*
X73635Y-51942D01*
X73635Y-51940D01*
X73635Y-51939D01*
X73628Y-51916D01*
X73621Y-51893D01*
X73620Y-51892D01*
X73620Y-51890D01*
X73609Y-51869D01*
X73598Y-51848D01*
X73597Y-51847D01*
X73596Y-51846D01*
X73581Y-51827D01*
X73566Y-51808D01*
X73564Y-51806D01*
X73564Y-51806D01*
X73564Y-51806D01*
X73563Y-51806D01*
X73158Y-51401D01*
X73168Y-51379D01*
X73192Y-51272D01*
X73194Y-51145D01*
X73172Y-51037D01*
X73130Y-50934D01*
X73069Y-50842D01*
X72991Y-50764D01*
X72899Y-50702D01*
X72797Y-50659D01*
X72689Y-50637D01*
X72578Y-50636D01*
X72469Y-50656D01*
X72367Y-50698D01*
X72274Y-50759D01*
X72195Y-50836D01*
X72133Y-50927D01*
X72089Y-51029D01*
X72066Y-51137D01*
X72064Y-51248D01*
X72084Y-51357D01*
X72125Y-51460D01*
X72153Y-51502D01*
X72078Y-51502D01*
X71969Y-51522D01*
X71867Y-51564D01*
X71774Y-51625D01*
X71695Y-51702D01*
X71633Y-51793D01*
X71589Y-51895D01*
X71566Y-52003D01*
X71564Y-52114D01*
X71584Y-52223D01*
X71625Y-52326D01*
X71653Y-52368D01*
X71578Y-52368D01*
X71469Y-52389D01*
X71367Y-52430D01*
X71274Y-52491D01*
X71195Y-52568D01*
X71133Y-52659D01*
X71089Y-52761D01*
X71066Y-52869D01*
X71064Y-52980D01*
X71084Y-53089D01*
X71101Y-53130D01*
X71087Y-53122D01*
X71048Y-53109D01*
X71007Y-53104D01*
X70966Y-53106D01*
X70926Y-53117D01*
X70889Y-53135D01*
X70856Y-53160D01*
X70829Y-53190D01*
X70808Y-53226D01*
X70453Y-53841D01*
X70440Y-53880D01*
X70435Y-53921D01*
X70437Y-53962D01*
X70448Y-54002D01*
X70466Y-54039D01*
X70491Y-54072D01*
X70521Y-54099D01*
X70557Y-54120D01*
X71172Y-54475D01*
X71211Y-54488D01*
X71252Y-54493D01*
X71293Y-54491D01*
X71333Y-54480D01*
X71370Y-54462D01*
X71403Y-54437D01*
X71430Y-54407D01*
X71451Y-54371D01*
X71806Y-53756D01*
X71819Y-53717D01*
X71824Y-53676D01*
X71822Y-53635D01*
X71811Y-53595D01*
X71793Y-53558D01*
X71768Y-53525D01*
X71738Y-53498D01*
X71722Y-53489D01*
X71782Y-53479D01*
X71885Y-53439D01*
X71979Y-53379D01*
X72059Y-53303D01*
X72123Y-53213D01*
X72132Y-53193D01*
X72325Y-53193D01*
X72670Y-53537D01*
X72670Y-54002D01*
X71786Y-54886D01*
X71770Y-54904D01*
X71755Y-54923D01*
X71754Y-54924D01*
X71753Y-54925D01*
X71742Y-54946D01*
X71731Y-54967D01*
X71730Y-54968D01*
X71729Y-54970D01*
X71722Y-54993D01*
X71715Y-55015D01*
X71715Y-55017D01*
X71715Y-55018D01*
X71712Y-55042D01*
X71710Y-55066D01*
X71710Y-55069D01*
X71710Y-55069D01*
X71710Y-55069D01*
X71710Y-55070D01*
X71710Y-55880D01*
X71712Y-55903D01*
X71714Y-55927D01*
X71714Y-55929D01*
X71714Y-55930D01*
X71721Y-55953D01*
X71728Y-55976D01*
X71729Y-55977D01*
X71729Y-55979D01*
X71740Y-56000D01*
X71751Y-56021D01*
X71752Y-56022D01*
X71753Y-56023D01*
X71768Y-56042D01*
X71783Y-56061D01*
X71785Y-56063D01*
X71785Y-56063D01*
X71785Y-56063D01*
X71786Y-56063D01*
X72642Y-56920D01*
X72370Y-56920D01*
X72346Y-56922D01*
X72322Y-56924D01*
X72320Y-56924D01*
X72319Y-56924D01*
X72296Y-56931D01*
X72273Y-56938D01*
X72272Y-56939D01*
X72270Y-56939D01*
X72249Y-56950D01*
X72228Y-56961D01*
X72227Y-56962D01*
X72226Y-56963D01*
X72207Y-56978D01*
X72188Y-56993D01*
X72186Y-56995D01*
X72186Y-56995D01*
X72186Y-56995D01*
X72186Y-56996D01*
X70479Y-58702D01*
X70439Y-58641D01*
X70361Y-58563D01*
X70269Y-58501D01*
X70265Y-58499D01*
X70349Y-58446D01*
X70429Y-58370D01*
X70493Y-58280D01*
X70538Y-58178D01*
X70562Y-58071D01*
X70564Y-57944D01*
X70542Y-57836D01*
X70500Y-57733D01*
X70439Y-57641D01*
X70361Y-57563D01*
X70269Y-57501D01*
X70167Y-57458D01*
X70059Y-57436D01*
X69948Y-57435D01*
X69839Y-57456D01*
X69737Y-57497D01*
X69644Y-57558D01*
X69565Y-57635D01*
X69503Y-57726D01*
X69459Y-57828D01*
X69436Y-57936D01*
X69434Y-58047D01*
X69454Y-58156D01*
X69495Y-58259D01*
X69555Y-58352D01*
X69632Y-58431D01*
X69723Y-58495D01*
X69733Y-58499D01*
X69644Y-58558D01*
X69565Y-58635D01*
X69503Y-58726D01*
X69459Y-58828D01*
X69436Y-58936D01*
X69434Y-59047D01*
X69454Y-59156D01*
X69495Y-59259D01*
X69555Y-59352D01*
X69632Y-59431D01*
X69723Y-59495D01*
X69733Y-59499D01*
X69644Y-59558D01*
X69565Y-59635D01*
X69503Y-59726D01*
X69459Y-59828D01*
X69436Y-59936D01*
X69434Y-60047D01*
X69454Y-60156D01*
X69495Y-60259D01*
X69555Y-60352D01*
X69632Y-60431D01*
X69637Y-60435D01*
X69625Y-60435D01*
X69584Y-60443D01*
X69546Y-60459D01*
X69512Y-60482D01*
X69483Y-60511D01*
X69460Y-60545D01*
X69444Y-60583D01*
X69435Y-60623D01*
X69435Y-60664D01*
X69435Y-61374D01*
X69443Y-61415D01*
X69459Y-61453D01*
X69482Y-61487D01*
X69511Y-61516D01*
X69545Y-61539D01*
X69583Y-61555D01*
X69623Y-61564D01*
X69664Y-61564D01*
X69730Y-61564D01*
X69730Y-63152D01*
X69603Y-62770D01*
X69240Y-59902D01*
X69235Y-59509D01*
X69517Y-56632D01*
X70350Y-53873D01*
X71702Y-51329D01*
X73523Y-49096D01*
X75744Y-47260D01*
X78278Y-45889D01*
X81031Y-45037D01*
X83896Y-44736D01*
X86766Y-44997D01*
X89530Y-45811D01*
X92084Y-47146D01*
X94329Y-48951D01*
X96181Y-51158D01*
X97569Y-53683D01*
X98441Y-56430D01*
X98762Y-59293D01*
M02*
