G04 (created by PCBNEW (2013-07-07 BZR 4022)-stable) date 10/7/2013 10:29:13 PM*
%MOIN*%
G04 Gerber Fmt 3.4, Leading zero omitted, Abs format*
%FSLAX34Y34*%
G01*
G70*
G90*
G04 APERTURE LIST*
%ADD10C,0.006*%
%ADD11C,0.0708661*%
%ADD12R,0.0708661X0.0708661*%
%ADD13C,0.102362*%
%ADD14R,0.0669291X0.0669291*%
%ADD15C,0.0669291*%
%ADD16C,0.03*%
%ADD17C,0.01*%
%ADD18C,0.012*%
G04 APERTURE END LIST*
G54D10*
G54D11*
X19220Y8514D03*
X21779Y8514D03*
X19220Y10285D03*
X21779Y10285D03*
G54D10*
G36*
X23428Y4234D02*
X23783Y3620D01*
X23169Y3265D01*
X22815Y3879D01*
X23428Y4234D01*
X23428Y4234D01*
G37*
G54D11*
X22433Y3250D03*
X21566Y2750D03*
X20700Y2250D03*
G54D10*
G36*
X6571Y25885D02*
X6216Y26499D01*
X6830Y26854D01*
X7184Y26240D01*
X6571Y25885D01*
X6571Y25885D01*
G37*
G54D11*
X7566Y26870D03*
X8433Y27370D03*
X9299Y27870D03*
G54D10*
G36*
X2259Y20216D02*
X1645Y20571D01*
X2000Y21184D01*
X2614Y20830D01*
X2259Y20216D01*
X2259Y20216D01*
G37*
G54D11*
X2630Y21566D03*
X3130Y22433D03*
X3630Y23299D03*
G54D12*
X1000Y13500D03*
G54D11*
X1000Y14500D03*
X1000Y15500D03*
X1000Y16500D03*
G54D10*
G36*
X4114Y6571D02*
X3500Y6216D01*
X3145Y6830D01*
X3759Y7184D01*
X4114Y6571D01*
X4114Y6571D01*
G37*
G54D11*
X3130Y7566D03*
X2630Y8433D03*
X2130Y9299D03*
G54D10*
G36*
X9783Y2259D02*
X9428Y1645D01*
X8815Y2000D01*
X9169Y2614D01*
X9783Y2259D01*
X9783Y2259D01*
G37*
G54D11*
X8433Y2630D03*
X7566Y3130D03*
X6700Y3630D03*
G54D12*
X16500Y1000D03*
G54D11*
X15500Y1000D03*
X14500Y1000D03*
X13500Y1000D03*
G54D10*
G36*
X27740Y9783D02*
X28354Y9428D01*
X27999Y8815D01*
X27385Y9169D01*
X27740Y9783D01*
X27740Y9783D01*
G37*
G54D11*
X27370Y8433D03*
X26870Y7566D03*
X26370Y6700D03*
G54D12*
X29000Y16500D03*
G54D11*
X29000Y15500D03*
X29000Y14500D03*
X29000Y13500D03*
G54D10*
G36*
X25885Y23428D02*
X26499Y23783D01*
X26854Y23169D01*
X26240Y22815D01*
X25885Y23428D01*
X25885Y23428D01*
G37*
G54D11*
X26870Y22433D03*
X27370Y21566D03*
X27870Y20700D03*
G54D10*
G36*
X20216Y27740D02*
X20571Y28354D01*
X21184Y27999D01*
X20830Y27385D01*
X20216Y27740D01*
X20216Y27740D01*
G37*
G54D11*
X21566Y27370D03*
X22433Y26870D03*
X23299Y26370D03*
G54D12*
X13500Y29000D03*
G54D11*
X14500Y29000D03*
X15500Y29000D03*
X16500Y29000D03*
G54D13*
X17181Y6500D03*
X14818Y6500D03*
X16000Y4649D03*
G54D14*
X6400Y22200D03*
G54D15*
X6400Y23200D03*
X7400Y22200D03*
X7400Y23200D03*
X8400Y22200D03*
X8400Y23200D03*
G54D11*
X17920Y23014D03*
X20479Y23014D03*
X17920Y24785D03*
X20479Y24785D03*
X17920Y20014D03*
X20479Y20014D03*
X17920Y21785D03*
X20479Y21785D03*
G54D12*
X3700Y13500D03*
G54D11*
X3700Y14500D03*
X3700Y15500D03*
X3700Y16500D03*
G54D16*
X24620Y20190D03*
X23720Y21060D03*
X16600Y26000D03*
X14010Y27020D03*
X13685Y16690D03*
X5990Y17690D03*
X9200Y17030D03*
X14165Y26395D03*
X15600Y14820D03*
X17080Y14540D03*
X7460Y24280D03*
X13780Y27410D03*
X17035Y25805D03*
X14740Y23225D03*
X13250Y19470D03*
X12800Y17330D03*
X13755Y26575D03*
X17840Y2160D03*
X7700Y12695D03*
X7790Y6880D03*
X24850Y5150D03*
X5880Y24650D03*
X25060Y13900D03*
X26340Y18330D03*
X1890Y18430D03*
X18130Y27600D03*
X23860Y24070D03*
X17620Y17030D03*
X16440Y17250D03*
X10910Y12410D03*
X12760Y16920D03*
X14480Y17040D03*
X7670Y19760D03*
X8730Y20970D03*
X10165Y24265D03*
X8320Y11750D03*
X7675Y11755D03*
X8310Y10960D03*
X7660Y10945D03*
X16440Y22210D03*
X7640Y14290D03*
X8340Y15020D03*
X7640Y15020D03*
X8200Y15530D03*
X7660Y15780D03*
X8200Y19750D03*
X8380Y17780D03*
X7650Y17770D03*
X10680Y18450D03*
X5050Y19210D03*
X4600Y19130D03*
X9880Y17780D03*
X5670Y10110D03*
X8760Y17130D03*
X5990Y10390D03*
X5680Y11950D03*
X22780Y21030D03*
X10680Y19650D03*
X11360Y11580D03*
X5310Y10520D03*
X11510Y11990D03*
X4990Y10830D03*
X6240Y12505D03*
X24100Y5930D03*
X5890Y12300D03*
X24850Y6280D03*
X11950Y12070D03*
X4990Y11240D03*
X4170Y19070D03*
X11420Y5850D03*
X11160Y5450D03*
X10950Y5050D03*
X22900Y20610D03*
X11020Y19250D03*
X13900Y2310D03*
X14560Y1970D03*
X23220Y21000D03*
X11310Y18920D03*
X12790Y16005D03*
X12870Y15590D03*
X23290Y17470D03*
X15975Y13820D03*
X21845Y20160D03*
X10470Y18810D03*
X10220Y18450D03*
X5340Y17920D03*
X22980Y17780D03*
X13135Y13945D03*
X4220Y7590D03*
X5580Y15050D03*
X10160Y15550D03*
X14230Y19770D03*
X3720Y19050D03*
X13735Y19955D03*
X10730Y15470D03*
X11230Y15480D03*
X13510Y20320D03*
X10450Y14540D03*
X10750Y14230D03*
X9140Y13730D03*
X4570Y16130D03*
X5290Y14240D03*
X5290Y14720D03*
X3890Y7860D03*
X5480Y19240D03*
X14680Y15630D03*
X14390Y13380D03*
X12140Y13010D03*
X12480Y14120D03*
G54D17*
X23720Y21060D02*
X21300Y23480D01*
X21300Y23480D02*
X21300Y25065D01*
X21300Y25065D02*
X20200Y26165D01*
X20200Y26165D02*
X16765Y26165D01*
X16765Y26165D02*
X16600Y26000D01*
X14090Y16690D02*
X14810Y16690D01*
X16020Y17900D02*
X17110Y17900D01*
X14810Y16690D02*
X16020Y17900D01*
X13685Y16690D02*
X14090Y16690D01*
X13620Y15370D02*
X13620Y14940D01*
X12800Y11170D02*
X13684Y10285D01*
X12800Y14120D02*
X12800Y11170D01*
X13620Y14940D02*
X12800Y14120D01*
X14010Y27020D02*
X13620Y27020D01*
X17110Y17900D02*
X22065Y17900D01*
X22065Y17900D02*
X24355Y20190D01*
X24355Y20190D02*
X24620Y20190D01*
X13620Y27020D02*
X8800Y22200D01*
X8800Y22200D02*
X8400Y22200D01*
X19220Y10285D02*
X13684Y10285D01*
X13620Y16625D02*
X13685Y16690D01*
X13620Y15370D02*
X13620Y16625D01*
X9200Y17030D02*
X9200Y16980D01*
X6930Y16800D02*
X6810Y16920D01*
X9020Y16800D02*
X6930Y16800D01*
X9200Y16980D02*
X9020Y16800D01*
X6810Y16920D02*
X6040Y17690D01*
X6040Y17690D02*
X5990Y17690D01*
X16800Y14820D02*
X15600Y14820D01*
X17080Y14540D02*
X16800Y14820D01*
X6400Y22200D02*
X6400Y22195D01*
X13965Y26195D02*
X14165Y26395D01*
X13385Y26195D02*
X13965Y26195D01*
X9318Y22128D02*
X13385Y26195D01*
X9318Y21903D02*
X9318Y22128D01*
X8745Y21330D02*
X9318Y21903D01*
X7265Y21330D02*
X8745Y21330D01*
X6400Y22195D02*
X7265Y21330D01*
X9600Y24600D02*
X7780Y24600D01*
X7780Y24600D02*
X7460Y24280D01*
X10855Y24600D02*
X9600Y24600D01*
X13505Y27250D02*
X10855Y24600D01*
X13620Y27250D02*
X13505Y27250D01*
X13780Y27410D02*
X13620Y27250D01*
X16860Y25630D02*
X17035Y25805D01*
X15980Y25630D02*
X16860Y25630D01*
X14495Y24145D02*
X15980Y25630D01*
X14495Y23470D02*
X14495Y24145D01*
X14740Y23225D02*
X14495Y23470D01*
X13090Y19470D02*
X13250Y19470D01*
X12940Y19320D02*
X13090Y19470D01*
X12940Y17470D02*
X12940Y19320D01*
X12800Y17330D02*
X12940Y17470D01*
X7400Y22200D02*
X7400Y22130D01*
X13475Y26575D02*
X13755Y26575D01*
X9105Y22205D02*
X13475Y26575D01*
X9105Y22015D02*
X9105Y22205D01*
X8640Y21550D02*
X9105Y22015D01*
X7980Y21550D02*
X8640Y21550D01*
X7400Y22130D02*
X7980Y21550D01*
G54D18*
X17840Y2160D02*
X18990Y2160D01*
X11470Y6880D02*
X12410Y5940D01*
X12410Y5940D02*
X12410Y4690D01*
X12410Y4690D02*
X13820Y3280D01*
X13820Y3280D02*
X14220Y3280D01*
X14220Y3280D02*
X14740Y2760D01*
X14740Y2760D02*
X17240Y2760D01*
X17240Y2760D02*
X17840Y2160D01*
X7700Y12695D02*
X7065Y12695D01*
X6320Y6880D02*
X7790Y6880D01*
X3430Y9770D02*
X6320Y6880D01*
X3430Y11320D02*
X3430Y9770D01*
X5060Y12950D02*
X3430Y11320D01*
X6810Y12950D02*
X5060Y12950D01*
X7065Y12695D02*
X6810Y12950D01*
X7790Y6880D02*
X11470Y6880D01*
X24570Y4870D02*
X24850Y5150D01*
X21700Y4870D02*
X24570Y4870D01*
X18990Y2160D02*
X21700Y4870D01*
X13030Y16920D02*
X12760Y16920D01*
X13210Y17100D02*
X13030Y16920D01*
X14420Y17100D02*
X13210Y17100D01*
X14480Y17040D02*
X14420Y17100D01*
X5510Y23920D02*
X5510Y24280D01*
X5510Y24280D02*
X5880Y24650D01*
X25060Y13900D02*
X25060Y17050D01*
X24500Y13340D02*
X25060Y13900D01*
X23670Y13340D02*
X24500Y13340D01*
X25060Y17050D02*
X26340Y18330D01*
X8730Y20970D02*
X6100Y20970D01*
X8400Y23650D02*
X8400Y23200D01*
X8130Y23920D02*
X8400Y23650D01*
X5510Y23920D02*
X8130Y23920D01*
X5360Y23770D02*
X5510Y23920D01*
X5360Y21710D02*
X5360Y23770D01*
X6100Y20970D02*
X5360Y21710D01*
X17620Y17030D02*
X21260Y17030D01*
X23670Y10404D02*
X21779Y8514D01*
X23670Y17780D02*
X23670Y13340D01*
X23670Y13340D02*
X23670Y10404D01*
X23200Y18250D02*
X23670Y17780D01*
X22890Y18250D02*
X23200Y18250D01*
X22220Y17580D02*
X22890Y18250D01*
X21810Y17580D02*
X22220Y17580D01*
X21260Y17030D02*
X21810Y17580D01*
X16660Y17030D02*
X17620Y17030D01*
X16440Y17250D02*
X16660Y17030D01*
X14818Y6500D02*
X14540Y6500D01*
X11040Y12540D02*
X10910Y12410D01*
X12190Y12540D02*
X11040Y12540D01*
X12430Y12300D02*
X12190Y12540D01*
X12430Y8610D02*
X12430Y12300D01*
X14540Y6500D02*
X12430Y8610D01*
X7670Y19910D02*
X7670Y19760D01*
X8730Y20970D02*
X7670Y19910D01*
X10165Y24265D02*
X9100Y23200D01*
X9100Y23200D02*
X8400Y23200D01*
X16864Y21785D02*
X17920Y21785D01*
X16440Y22210D02*
X16864Y21785D01*
X20479Y21785D02*
X20184Y21785D01*
X19120Y23426D02*
X20479Y24785D01*
X19120Y22850D02*
X19120Y23426D01*
X20184Y21785D02*
X19120Y22850D01*
G54D17*
X11310Y18570D02*
X11480Y18570D01*
X17430Y18570D02*
X17630Y18570D01*
X14320Y21680D02*
X17430Y18570D01*
X13090Y21680D02*
X14320Y21680D01*
X11640Y20230D02*
X13090Y21680D01*
X11640Y18730D02*
X11640Y20230D01*
X11480Y18570D02*
X11640Y18730D01*
X26870Y22433D02*
X25613Y22433D01*
X21750Y18570D02*
X17630Y18570D01*
X25613Y22433D02*
X21750Y18570D01*
X10800Y18570D02*
X10680Y18450D01*
X11310Y18570D02*
X10800Y18570D01*
X8210Y19020D02*
X8650Y19020D01*
X8760Y20000D02*
X8770Y20010D01*
X8760Y19130D02*
X8760Y20000D01*
X8650Y19020D02*
X8760Y19130D01*
X7480Y19020D02*
X8210Y19020D01*
X5050Y19210D02*
X5340Y18920D01*
X5340Y18920D02*
X5680Y18920D01*
X5680Y18920D02*
X5780Y19020D01*
X5780Y19020D02*
X7480Y19020D01*
X8770Y20010D02*
X15500Y26740D01*
X15500Y26740D02*
X15500Y29000D01*
X15730Y26610D02*
X15730Y28070D01*
X16500Y28840D02*
X16500Y29000D01*
X15730Y28070D02*
X16500Y28840D01*
X8970Y19850D02*
X8970Y18860D01*
X15730Y26610D02*
X8970Y19850D01*
X8150Y18810D02*
X8919Y18810D01*
X8919Y18810D02*
X8970Y18860D01*
X7580Y18810D02*
X8150Y18810D01*
X5030Y18700D02*
X4600Y19130D01*
X5780Y18700D02*
X5030Y18700D01*
X5890Y18810D02*
X5780Y18700D01*
X7580Y18810D02*
X5890Y18810D01*
X10450Y13185D02*
X11085Y13185D01*
X13090Y15010D02*
X13385Y15305D01*
X12910Y15010D02*
X13090Y15010D01*
X11085Y13185D02*
X12910Y15010D01*
X9180Y11810D02*
X9180Y12080D01*
X9180Y12080D02*
X10285Y13185D01*
X13385Y16165D02*
X13385Y15305D01*
X10300Y15130D02*
X11440Y15130D01*
X12950Y16600D02*
X13385Y16165D01*
X12320Y16600D02*
X12950Y16600D01*
X11875Y16155D02*
X12320Y16600D01*
X11875Y15565D02*
X11875Y16155D01*
X11440Y15130D02*
X11875Y15565D01*
X10300Y15130D02*
X9760Y15130D01*
X9760Y15130D02*
X9560Y15330D01*
X9560Y15330D02*
X9560Y15920D01*
X9560Y15920D02*
X9740Y16100D01*
X9740Y16100D02*
X9740Y17640D01*
X9740Y17640D02*
X9880Y17780D01*
X10450Y13185D02*
X10285Y13185D01*
X5710Y10070D02*
X5670Y10110D01*
X9180Y10770D02*
X9180Y11810D01*
X8780Y10370D02*
X9180Y10770D01*
X6420Y10370D02*
X8780Y10370D01*
X6120Y10070D02*
X6420Y10370D01*
X5820Y10070D02*
X6120Y10070D01*
X5820Y10070D02*
X5710Y10070D01*
X13175Y15670D02*
X13175Y15455D01*
X11010Y13410D02*
X10780Y13410D01*
X12850Y15250D02*
X11010Y13410D01*
X12970Y15250D02*
X12850Y15250D01*
X13175Y15455D02*
X12970Y15250D01*
X8970Y11785D02*
X8970Y12210D01*
X8970Y12210D02*
X10170Y13410D01*
X13175Y15720D02*
X13175Y15670D01*
X11545Y14910D02*
X12160Y15525D01*
X12160Y15525D02*
X12160Y16120D01*
X12160Y16120D02*
X12385Y16345D01*
X12385Y16345D02*
X12900Y16345D01*
X12900Y16345D02*
X13175Y16070D01*
X13175Y16070D02*
X13175Y15720D01*
X10130Y14910D02*
X11545Y14910D01*
X10780Y13410D02*
X10170Y13410D01*
X8760Y17130D02*
X8810Y17130D01*
X9670Y14910D02*
X10130Y14910D01*
X9330Y15250D02*
X9670Y14910D01*
X9330Y16010D02*
X9330Y15250D01*
X9520Y16200D02*
X9330Y16010D01*
X9520Y17190D02*
X9520Y16200D01*
X9360Y17350D02*
X9520Y17190D01*
X9030Y17350D02*
X9360Y17350D01*
X8810Y17130D02*
X9030Y17350D01*
X6190Y10590D02*
X5990Y10390D01*
X8690Y10590D02*
X6190Y10590D01*
X8970Y10870D02*
X8690Y10590D01*
X8970Y11785D02*
X8970Y10870D01*
X13690Y5400D02*
X13690Y5200D01*
X22180Y6700D02*
X22940Y6700D01*
X19290Y3810D02*
X22180Y6700D01*
X15080Y3810D02*
X19290Y3810D01*
X13690Y5200D02*
X15080Y3810D01*
X22940Y6700D02*
X26370Y6700D01*
X13690Y6330D02*
X13690Y5400D01*
X10990Y9030D02*
X13690Y6330D01*
X5300Y9030D02*
X10990Y9030D01*
X4430Y9900D02*
X5300Y9030D01*
X4430Y11170D02*
X4430Y9900D01*
X4840Y11580D02*
X4430Y11170D01*
X5310Y11580D02*
X4840Y11580D01*
X5680Y11950D02*
X5310Y11580D01*
X17980Y19220D02*
X17730Y19220D01*
X10680Y20230D02*
X10680Y19650D01*
X12810Y22360D02*
X10680Y20230D01*
X14590Y22360D02*
X12810Y22360D01*
X17730Y19220D02*
X14590Y22360D01*
X22580Y20830D02*
X22780Y21030D01*
X22580Y20320D02*
X22580Y20830D01*
X21480Y19220D02*
X22580Y20320D01*
X17980Y19220D02*
X21480Y19220D01*
X6210Y9830D02*
X6520Y10140D01*
X6520Y10140D02*
X9920Y10140D01*
X9920Y10140D02*
X11360Y11580D01*
X6140Y9760D02*
X6210Y9830D01*
X5570Y9760D02*
X6140Y9760D01*
X5320Y10010D02*
X5570Y9760D01*
X5320Y10510D02*
X5320Y10010D01*
X5310Y10520D02*
X5320Y10510D01*
X11690Y11810D02*
X11690Y11650D01*
X11510Y11990D02*
X11690Y11810D01*
X6200Y9550D02*
X6280Y9550D01*
X11690Y11650D02*
X11690Y11450D01*
X11690Y11450D02*
X10160Y9920D01*
X10160Y9920D02*
X6650Y9920D01*
X6280Y9550D02*
X6650Y9920D01*
X4990Y10830D02*
X4950Y10790D01*
X4950Y10790D02*
X4950Y10080D01*
X4950Y10080D02*
X5480Y9550D01*
X5480Y9550D02*
X6200Y9550D01*
X13270Y5460D02*
X13270Y4980D01*
X22060Y5930D02*
X24100Y5930D01*
X19510Y3380D02*
X22060Y5930D01*
X14870Y3380D02*
X19510Y3380D01*
X13270Y4980D02*
X14870Y3380D01*
X6055Y12690D02*
X6240Y12505D01*
X5330Y12690D02*
X6055Y12690D01*
X3990Y11350D02*
X5330Y12690D01*
X3990Y9710D02*
X3990Y11350D01*
X5090Y8610D02*
X3990Y9710D01*
X10790Y8610D02*
X5090Y8610D01*
X13270Y6130D02*
X10790Y8610D01*
X13270Y5460D02*
X13270Y6130D01*
X24850Y6280D02*
X22110Y6280D01*
X14960Y3600D02*
X13480Y5080D01*
X19430Y3600D02*
X14960Y3600D01*
X22110Y6280D02*
X19430Y3600D01*
X13480Y6240D02*
X13480Y5080D01*
X10900Y8820D02*
X13480Y6240D01*
X5180Y8820D02*
X10900Y8820D01*
X4220Y9780D02*
X5180Y8820D01*
X4220Y11270D02*
X4220Y9780D01*
X4780Y11830D02*
X4220Y11270D01*
X4900Y11830D02*
X4780Y11830D01*
X5370Y12300D02*
X4900Y11830D01*
X5890Y12300D02*
X5370Y12300D01*
X6430Y9400D02*
X6730Y9700D01*
X6730Y9700D02*
X10250Y9700D01*
X10250Y9700D02*
X11950Y11400D01*
X11950Y11400D02*
X11950Y12070D01*
X6360Y9330D02*
X6430Y9400D01*
X5390Y9330D02*
X6360Y9330D01*
X4660Y10060D02*
X5390Y9330D01*
X4660Y10980D02*
X4660Y10060D01*
X4870Y11190D02*
X4660Y10980D01*
X4940Y11190D02*
X4870Y11190D01*
X4990Y11240D02*
X4940Y11190D01*
X8420Y18590D02*
X9020Y18590D01*
X9180Y18750D02*
X9180Y19740D01*
X9020Y18590D02*
X9180Y18750D01*
X7770Y18590D02*
X8420Y18590D01*
X21566Y27370D02*
X21566Y27316D01*
X21566Y27316D02*
X21160Y26910D01*
X21160Y26910D02*
X16350Y26910D01*
X16350Y26910D02*
X9180Y19740D01*
X4440Y18800D02*
X4170Y19070D01*
X4630Y18800D02*
X4440Y18800D01*
X4940Y18490D02*
X4630Y18800D01*
X5870Y18490D02*
X4940Y18490D01*
X5970Y18590D02*
X5870Y18490D01*
X7770Y18590D02*
X5970Y18590D01*
X10300Y5380D02*
X9480Y5380D01*
X10740Y5820D02*
X10300Y5380D01*
X11390Y5820D02*
X10740Y5820D01*
X11420Y5850D02*
X11390Y5820D01*
X6700Y3630D02*
X6820Y3630D01*
X6820Y3630D02*
X7030Y3840D01*
X7030Y3840D02*
X7940Y3840D01*
X7940Y3840D02*
X9480Y5380D01*
X9530Y5080D02*
X10340Y5080D01*
X10710Y5450D02*
X11160Y5450D01*
X10340Y5080D02*
X10710Y5450D01*
X7580Y3130D02*
X7566Y3130D01*
X9530Y5080D02*
X7580Y3130D01*
X10650Y4750D02*
X9680Y4750D01*
X10950Y5050D02*
X10650Y4750D01*
X8433Y3503D02*
X8433Y2630D01*
X9680Y4750D02*
X8433Y3503D01*
X11020Y19250D02*
X11020Y20230D01*
X17620Y19010D02*
X17810Y19010D01*
X14510Y22120D02*
X17620Y19010D01*
X12910Y22120D02*
X14510Y22120D01*
X11020Y20230D02*
X12910Y22120D01*
X21580Y19010D02*
X17810Y19010D01*
X22840Y20270D02*
X21580Y19010D01*
X22840Y20550D02*
X22840Y20270D01*
X22900Y20610D02*
X22840Y20550D01*
X13500Y1000D02*
X13500Y1910D01*
X13500Y1910D02*
X13900Y2310D01*
X14500Y1910D02*
X14500Y1000D01*
X14560Y1970D02*
X14500Y1910D01*
X18050Y18790D02*
X17520Y18790D01*
X11330Y18940D02*
X11310Y18920D01*
X11330Y20240D02*
X11330Y18940D01*
X12990Y21900D02*
X11330Y20240D01*
X14410Y21900D02*
X12990Y21900D01*
X17520Y18790D02*
X14410Y21900D01*
X23220Y20350D02*
X23220Y21000D01*
X21660Y18790D02*
X23220Y20350D01*
X18050Y18790D02*
X21660Y18790D01*
X12790Y16005D02*
X12625Y16005D01*
X3785Y13415D02*
X3700Y13500D01*
X9290Y13415D02*
X3785Y13415D01*
X9780Y13905D02*
X9290Y13415D01*
X10865Y13905D02*
X9780Y13905D01*
X12400Y15440D02*
X10865Y13905D01*
X12400Y15780D02*
X12400Y15440D01*
X12625Y16005D02*
X12400Y15780D01*
X3700Y14500D02*
X3250Y14500D01*
X12865Y15590D02*
X12870Y15590D01*
X10965Y13690D02*
X12865Y15590D01*
X9875Y13690D02*
X10965Y13690D01*
X9375Y13190D02*
X9875Y13690D01*
X4530Y13190D02*
X9375Y13190D01*
X4160Y12820D02*
X4530Y13190D01*
X3080Y12820D02*
X4160Y12820D01*
X2950Y12950D02*
X3080Y12820D01*
X2950Y14200D02*
X2950Y12950D01*
X3250Y14500D02*
X2950Y14200D01*
X22005Y17105D02*
X22925Y17105D01*
X22925Y17105D02*
X23290Y17470D01*
X22005Y17105D02*
X18895Y13995D01*
X16150Y13995D02*
X15975Y13820D01*
X18895Y13995D02*
X16150Y13995D01*
X17920Y23014D02*
X18165Y23014D01*
X21215Y20790D02*
X21845Y20160D01*
X20390Y20790D02*
X21215Y20790D01*
X18165Y23014D02*
X20390Y20790D01*
X17650Y18139D02*
X17250Y18139D01*
X12080Y18490D02*
X11729Y18139D01*
X12080Y20060D02*
X12080Y18490D01*
X13270Y21250D02*
X12080Y20060D01*
X14140Y21250D02*
X13270Y21250D01*
X17250Y18139D02*
X14140Y21250D01*
X27870Y20700D02*
X24550Y20700D01*
X10060Y18810D02*
X10470Y18810D01*
X9890Y18640D02*
X10060Y18810D01*
X9890Y18280D02*
X9890Y18640D01*
X10300Y17870D02*
X9890Y18280D01*
X10930Y17870D02*
X10300Y17870D01*
X11199Y18139D02*
X10930Y17870D01*
X21989Y18139D02*
X17650Y18139D01*
X11729Y18139D02*
X11199Y18139D01*
X24550Y20700D02*
X21989Y18139D01*
X11280Y18340D02*
X11560Y18340D01*
X17350Y18340D02*
X17620Y18340D01*
X14230Y21460D02*
X17350Y18340D01*
X13180Y21460D02*
X14230Y21460D01*
X11860Y20140D02*
X13180Y21460D01*
X11860Y18640D02*
X11860Y20140D01*
X11560Y18340D02*
X11860Y18640D01*
X27370Y21566D02*
X25106Y21566D01*
X21880Y18340D02*
X17620Y18340D01*
X25106Y21566D02*
X21880Y18340D01*
X10570Y18100D02*
X10220Y18450D01*
X10840Y18100D02*
X10570Y18100D01*
X11080Y18340D02*
X10840Y18100D01*
X11280Y18340D02*
X11080Y18340D01*
X16520Y26460D02*
X16502Y26460D01*
X8120Y18170D02*
X6210Y18170D01*
X6210Y18170D02*
X6110Y18070D01*
X6110Y18070D02*
X5490Y18070D01*
X5490Y18070D02*
X5340Y17920D01*
X21830Y26460D02*
X16520Y26460D01*
X22060Y26230D02*
X21830Y26460D01*
X22690Y26230D02*
X22060Y26230D01*
X22830Y26370D02*
X22690Y26230D01*
X22830Y26370D02*
X23299Y26370D01*
X9190Y18170D02*
X9601Y18581D01*
X9601Y18581D02*
X9601Y19541D01*
X8120Y18170D02*
X9190Y18170D01*
X9601Y19558D02*
X9601Y19541D01*
X16502Y26460D02*
X9601Y19558D01*
X21912Y17317D02*
X22517Y17317D01*
X22517Y17317D02*
X22980Y17780D01*
X13135Y13945D02*
X13135Y13275D01*
X14300Y12750D02*
X15765Y14215D01*
X13660Y12750D02*
X14300Y12750D01*
X13135Y13275D02*
X13660Y12750D01*
X18810Y14215D02*
X21912Y17317D01*
X15765Y14215D02*
X18810Y14215D01*
X2130Y9299D02*
X3040Y9299D01*
X4220Y8120D02*
X4220Y7590D01*
X3040Y9299D02*
X4220Y8120D01*
X1000Y14620D02*
X1000Y14500D01*
X3480Y17100D02*
X1000Y14620D01*
X4080Y17100D02*
X3480Y17100D01*
X5690Y15490D02*
X4080Y17100D01*
X5690Y15160D02*
X5690Y15490D01*
X5580Y15050D02*
X5690Y15160D01*
X10330Y15550D02*
X10160Y15550D01*
X10720Y15940D02*
X10330Y15550D01*
X10720Y17320D02*
X10720Y15940D01*
X11320Y17920D02*
X10720Y17320D01*
X11810Y17920D02*
X11320Y17920D01*
X12290Y18400D02*
X11810Y17920D01*
X12290Y19960D02*
X12290Y18400D01*
X13370Y21040D02*
X12290Y19960D01*
X14050Y21040D02*
X13370Y21040D01*
X14590Y20500D02*
X14050Y21040D01*
X14590Y20130D02*
X14590Y20500D01*
X14230Y19770D02*
X14590Y20130D01*
X8630Y18380D02*
X9100Y18380D01*
X9390Y18670D02*
X9390Y19630D01*
X9100Y18380D02*
X9390Y18670D01*
X7860Y18380D02*
X8630Y18380D01*
X22243Y26680D02*
X22433Y26870D01*
X16440Y26680D02*
X22243Y26680D01*
X9390Y19630D02*
X16440Y26680D01*
X6060Y18380D02*
X7860Y18380D01*
X5960Y18280D02*
X6060Y18380D01*
X4490Y18280D02*
X5960Y18280D01*
X3720Y19050D02*
X4490Y18280D01*
X13870Y20090D02*
X14010Y20090D01*
X13735Y19955D02*
X13870Y20090D01*
X14240Y20090D02*
X14010Y20090D01*
X14360Y20210D02*
X14240Y20090D01*
X14360Y20410D02*
X14360Y20210D01*
X13940Y20830D02*
X14360Y20410D01*
X13490Y20830D02*
X13940Y20830D01*
X12510Y19850D02*
X13490Y20830D01*
X12510Y18300D02*
X12510Y19850D01*
X11910Y17700D02*
X12510Y18300D01*
X11410Y17700D02*
X11910Y17700D01*
X10930Y17220D02*
X11410Y17700D01*
X10930Y15670D02*
X10930Y17220D01*
X10730Y15470D02*
X10930Y15670D01*
X11160Y15550D02*
X11230Y15480D01*
X11160Y17160D02*
X11160Y15550D01*
X11490Y17490D02*
X11160Y17160D01*
X12010Y17490D02*
X11490Y17490D01*
X12730Y18210D02*
X12010Y17490D01*
X12730Y19540D02*
X12730Y18210D01*
X13510Y20320D02*
X12730Y19540D01*
X3630Y23299D02*
X3630Y23260D01*
X10290Y14700D02*
X10450Y14540D01*
X9590Y14700D02*
X10290Y14700D01*
X9120Y15170D02*
X9590Y14700D01*
X9120Y15740D02*
X9120Y15170D01*
X8290Y16570D02*
X9120Y15740D01*
X6830Y16570D02*
X8290Y16570D01*
X6036Y17363D02*
X6830Y16570D01*
X5376Y17363D02*
X6036Y17363D01*
X4700Y18040D02*
X5376Y17363D01*
X4220Y18040D02*
X4700Y18040D01*
X3390Y18870D02*
X4220Y18040D01*
X3390Y19240D02*
X3390Y18870D01*
X4380Y20230D02*
X3390Y19240D01*
X4380Y22510D02*
X4380Y20230D01*
X3630Y23260D02*
X4380Y22510D01*
X4140Y21423D02*
X3130Y22433D01*
X4140Y20300D02*
X4140Y21423D01*
X3180Y19340D02*
X4140Y20300D01*
X3180Y18710D02*
X3180Y19340D01*
X4070Y17820D02*
X3180Y18710D01*
X4590Y17820D02*
X4070Y17820D01*
X5270Y17140D02*
X4590Y17820D01*
X5950Y17140D02*
X5270Y17140D01*
X6730Y16360D02*
X5950Y17140D01*
X8180Y16360D02*
X6730Y16360D01*
X8900Y15640D02*
X8180Y16360D01*
X8900Y15070D02*
X8900Y15640D01*
X9770Y14200D02*
X8900Y15070D01*
X10720Y14200D02*
X9770Y14200D01*
X10750Y14230D02*
X10720Y14200D01*
X3930Y20390D02*
X3930Y21070D01*
X9140Y13730D02*
X9170Y13760D01*
X9170Y13760D02*
X9170Y14490D01*
X9170Y14490D02*
X8670Y14990D01*
X8670Y14990D02*
X8670Y15570D01*
X8670Y15570D02*
X8090Y16150D01*
X8090Y16150D02*
X6630Y16150D01*
X6630Y16150D02*
X5850Y16930D01*
X5850Y16930D02*
X5180Y16930D01*
X5180Y16930D02*
X4500Y17610D01*
X4500Y17610D02*
X3980Y17610D01*
X3980Y17610D02*
X2970Y18620D01*
X2970Y18620D02*
X2970Y19430D01*
X2970Y19430D02*
X3930Y20390D01*
X3433Y21566D02*
X2630Y21566D01*
X3930Y21070D02*
X3433Y21566D01*
X4910Y15790D02*
X4910Y15665D01*
X4570Y16130D02*
X4910Y15790D01*
X4910Y14620D02*
X5290Y14240D01*
X4910Y15665D02*
X4910Y14620D01*
X1000Y15500D02*
X1550Y15500D01*
X5720Y14720D02*
X5290Y14720D01*
X5940Y14940D02*
X5720Y14720D01*
X5940Y15530D02*
X5940Y14940D01*
X4150Y17320D02*
X5940Y15530D01*
X3370Y17320D02*
X4150Y17320D01*
X1550Y15500D02*
X3370Y17320D01*
X2630Y8433D02*
X3316Y8433D01*
X3316Y8433D02*
X3890Y7860D01*
X14500Y29000D02*
X14500Y28770D01*
X15230Y26770D02*
X14500Y26040D01*
X15230Y28040D02*
X15230Y26770D01*
X14500Y28770D02*
X15230Y28040D01*
X7800Y19240D02*
X8460Y19240D01*
X8550Y19330D02*
X8550Y20090D01*
X8460Y19240D02*
X8550Y19330D01*
X7480Y19240D02*
X7800Y19240D01*
X14500Y26040D02*
X8550Y20090D01*
X7480Y19240D02*
X5480Y19240D01*
G54D18*
X14680Y13670D02*
X14680Y15630D01*
X14390Y13380D02*
X14680Y13670D01*
X12140Y13780D02*
X12140Y13010D01*
X12480Y14120D02*
X12140Y13780D01*
X20080Y2580D02*
X20090Y2580D01*
X23109Y3940D02*
X23299Y3750D01*
X21570Y3940D02*
X23109Y3940D01*
X20850Y3220D02*
X21570Y3940D01*
X20730Y3220D02*
X20850Y3220D01*
X20090Y2580D02*
X20730Y3220D01*
X16500Y1000D02*
X16500Y1130D01*
X12270Y1190D02*
X11790Y1190D01*
X13790Y2710D02*
X12270Y1190D01*
X14000Y2710D02*
X13790Y2710D01*
X14350Y2360D02*
X14000Y2710D01*
X15270Y2360D02*
X14350Y2360D01*
X16500Y1130D02*
X15270Y2360D01*
X3630Y6700D02*
X3940Y6700D01*
X2350Y9960D02*
X2050Y10260D01*
X2740Y9960D02*
X2350Y9960D01*
X4560Y8140D02*
X2740Y9960D01*
X4560Y7320D02*
X4560Y8140D01*
X3940Y6700D02*
X4560Y7320D01*
X3700Y15500D02*
X2310Y15500D01*
X1805Y14305D02*
X1000Y13500D01*
X1805Y14995D02*
X1805Y14305D01*
X2310Y15500D02*
X1805Y14995D01*
X6700Y26370D02*
X6940Y26370D01*
X11640Y29000D02*
X13500Y29000D01*
X8720Y26080D02*
X11640Y29000D01*
X7230Y26080D02*
X8720Y26080D01*
X6940Y26370D02*
X7230Y26080D01*
X1000Y13500D02*
X1000Y11310D01*
X1000Y11310D02*
X2050Y10260D01*
X16500Y1000D02*
X19080Y1000D01*
X20080Y2000D02*
X20080Y2580D01*
X19080Y1000D02*
X20080Y2000D01*
X9299Y2130D02*
X9560Y2130D01*
X10500Y1190D02*
X11790Y1190D01*
X9560Y2130D02*
X10500Y1190D01*
X27870Y9299D02*
X27870Y16130D01*
X27870Y16130D02*
X28240Y16500D01*
X28240Y16500D02*
X29000Y16500D01*
G54D10*
G36*
X8910Y14008D02*
X8862Y13962D01*
X8823Y13904D01*
X8795Y13839D01*
X8780Y13770D01*
X8779Y13699D01*
X8784Y13675D01*
X4264Y13675D01*
X4264Y13874D01*
X4256Y13915D01*
X4240Y13953D01*
X4217Y13987D01*
X4188Y14016D01*
X4154Y14039D01*
X4116Y14055D01*
X4076Y14064D01*
X4060Y14064D01*
X4129Y14129D01*
X4193Y14219D01*
X4238Y14321D01*
X4262Y14428D01*
X4264Y14555D01*
X4242Y14663D01*
X4200Y14766D01*
X4139Y14858D01*
X4061Y14936D01*
X3969Y14998D01*
X3965Y15000D01*
X4049Y15053D01*
X4129Y15129D01*
X4193Y15219D01*
X4238Y15321D01*
X4262Y15428D01*
X4264Y15555D01*
X4242Y15663D01*
X4200Y15766D01*
X4139Y15858D01*
X4061Y15936D01*
X3969Y15998D01*
X3964Y16001D01*
X4006Y16022D01*
X4021Y16032D01*
X4053Y16125D01*
X3700Y16478D01*
X3346Y16125D01*
X3378Y16032D01*
X3435Y16001D01*
X3344Y15941D01*
X3265Y15864D01*
X3203Y15773D01*
X3201Y15770D01*
X2517Y15770D01*
X3143Y16395D01*
X3172Y16292D01*
X3222Y16193D01*
X3232Y16178D01*
X3325Y16146D01*
X3678Y16500D01*
X3673Y16505D01*
X3694Y16526D01*
X3700Y16521D01*
X3705Y16526D01*
X3726Y16505D01*
X3721Y16500D01*
X4074Y16146D01*
X4167Y16178D01*
X4220Y16275D01*
X4254Y16381D01*
X4266Y16491D01*
X4262Y16550D01*
X4377Y16434D01*
X4343Y16411D01*
X4292Y16362D01*
X4253Y16304D01*
X4225Y16239D01*
X4210Y16170D01*
X4209Y16099D01*
X4222Y16030D01*
X4248Y15964D01*
X4286Y15905D01*
X4335Y15854D01*
X4393Y15814D01*
X4458Y15785D01*
X4527Y15770D01*
X4562Y15770D01*
X4650Y15682D01*
X4650Y15665D01*
X4650Y14620D01*
X4652Y14596D01*
X4654Y14572D01*
X4654Y14570D01*
X4654Y14569D01*
X4661Y14546D01*
X4668Y14523D01*
X4669Y14522D01*
X4669Y14520D01*
X4680Y14499D01*
X4691Y14478D01*
X4692Y14477D01*
X4693Y14476D01*
X4708Y14457D01*
X4723Y14438D01*
X4725Y14436D01*
X4725Y14436D01*
X4725Y14436D01*
X4726Y14436D01*
X4929Y14232D01*
X4929Y14209D01*
X4942Y14140D01*
X4968Y14074D01*
X5006Y14015D01*
X5055Y13964D01*
X5113Y13924D01*
X5178Y13895D01*
X5247Y13880D01*
X5317Y13879D01*
X5387Y13891D01*
X5453Y13917D01*
X5512Y13954D01*
X5563Y14003D01*
X5604Y14061D01*
X5633Y14125D01*
X5648Y14194D01*
X5650Y14275D01*
X5636Y14344D01*
X5609Y14409D01*
X5576Y14460D01*
X5720Y14460D01*
X5743Y14462D01*
X5767Y14464D01*
X5769Y14464D01*
X5770Y14464D01*
X5793Y14471D01*
X5816Y14478D01*
X5817Y14479D01*
X5819Y14479D01*
X5840Y14490D01*
X5861Y14501D01*
X5862Y14502D01*
X5863Y14503D01*
X5882Y14518D01*
X5901Y14533D01*
X5903Y14535D01*
X5903Y14535D01*
X5903Y14535D01*
X5903Y14536D01*
X6123Y14756D01*
X6139Y14774D01*
X6154Y14793D01*
X6155Y14794D01*
X6156Y14795D01*
X6167Y14816D01*
X6178Y14837D01*
X6179Y14838D01*
X6180Y14840D01*
X6187Y14863D01*
X6194Y14885D01*
X6194Y14887D01*
X6194Y14888D01*
X6197Y14912D01*
X6199Y14936D01*
X6199Y14939D01*
X6199Y14939D01*
X6199Y14939D01*
X6200Y14940D01*
X6200Y15530D01*
X6197Y15553D01*
X6195Y15577D01*
X6195Y15579D01*
X6195Y15580D01*
X6188Y15603D01*
X6181Y15626D01*
X6180Y15627D01*
X6180Y15629D01*
X6169Y15650D01*
X6158Y15671D01*
X6157Y15672D01*
X6156Y15673D01*
X6141Y15692D01*
X6126Y15711D01*
X6124Y15713D01*
X6124Y15713D01*
X6124Y15713D01*
X6123Y15713D01*
X5166Y16671D01*
X5176Y16670D01*
X5179Y16670D01*
X5179Y16670D01*
X5179Y16670D01*
X5180Y16670D01*
X5742Y16670D01*
X6446Y15966D01*
X6464Y15950D01*
X6483Y15935D01*
X6484Y15934D01*
X6485Y15933D01*
X6506Y15922D01*
X6527Y15911D01*
X6528Y15910D01*
X6530Y15909D01*
X6553Y15902D01*
X6575Y15895D01*
X6577Y15895D01*
X6578Y15895D01*
X6602Y15892D01*
X6626Y15890D01*
X6629Y15890D01*
X6629Y15890D01*
X6629Y15890D01*
X6630Y15890D01*
X7982Y15890D01*
X8410Y15462D01*
X8410Y14990D01*
X8412Y14966D01*
X8414Y14942D01*
X8414Y14940D01*
X8414Y14939D01*
X8421Y14916D01*
X8428Y14893D01*
X8429Y14892D01*
X8429Y14890D01*
X8440Y14869D01*
X8451Y14848D01*
X8452Y14847D01*
X8453Y14846D01*
X8468Y14827D01*
X8483Y14808D01*
X8485Y14806D01*
X8485Y14806D01*
X8485Y14806D01*
X8486Y14806D01*
X8910Y14382D01*
X8910Y14008D01*
X8910Y14008D01*
G37*
G54D18*
X8910Y14008D02*
X8862Y13962D01*
X8823Y13904D01*
X8795Y13839D01*
X8780Y13770D01*
X8779Y13699D01*
X8784Y13675D01*
X4264Y13675D01*
X4264Y13874D01*
X4256Y13915D01*
X4240Y13953D01*
X4217Y13987D01*
X4188Y14016D01*
X4154Y14039D01*
X4116Y14055D01*
X4076Y14064D01*
X4060Y14064D01*
X4129Y14129D01*
X4193Y14219D01*
X4238Y14321D01*
X4262Y14428D01*
X4264Y14555D01*
X4242Y14663D01*
X4200Y14766D01*
X4139Y14858D01*
X4061Y14936D01*
X3969Y14998D01*
X3965Y15000D01*
X4049Y15053D01*
X4129Y15129D01*
X4193Y15219D01*
X4238Y15321D01*
X4262Y15428D01*
X4264Y15555D01*
X4242Y15663D01*
X4200Y15766D01*
X4139Y15858D01*
X4061Y15936D01*
X3969Y15998D01*
X3964Y16001D01*
X4006Y16022D01*
X4021Y16032D01*
X4053Y16125D01*
X3700Y16478D01*
X3346Y16125D01*
X3378Y16032D01*
X3435Y16001D01*
X3344Y15941D01*
X3265Y15864D01*
X3203Y15773D01*
X3201Y15770D01*
X2517Y15770D01*
X3143Y16395D01*
X3172Y16292D01*
X3222Y16193D01*
X3232Y16178D01*
X3325Y16146D01*
X3678Y16500D01*
X3673Y16505D01*
X3694Y16526D01*
X3700Y16521D01*
X3705Y16526D01*
X3726Y16505D01*
X3721Y16500D01*
X4074Y16146D01*
X4167Y16178D01*
X4220Y16275D01*
X4254Y16381D01*
X4266Y16491D01*
X4262Y16550D01*
X4377Y16434D01*
X4343Y16411D01*
X4292Y16362D01*
X4253Y16304D01*
X4225Y16239D01*
X4210Y16170D01*
X4209Y16099D01*
X4222Y16030D01*
X4248Y15964D01*
X4286Y15905D01*
X4335Y15854D01*
X4393Y15814D01*
X4458Y15785D01*
X4527Y15770D01*
X4562Y15770D01*
X4650Y15682D01*
X4650Y15665D01*
X4650Y14620D01*
X4652Y14596D01*
X4654Y14572D01*
X4654Y14570D01*
X4654Y14569D01*
X4661Y14546D01*
X4668Y14523D01*
X4669Y14522D01*
X4669Y14520D01*
X4680Y14499D01*
X4691Y14478D01*
X4692Y14477D01*
X4693Y14476D01*
X4708Y14457D01*
X4723Y14438D01*
X4725Y14436D01*
X4725Y14436D01*
X4725Y14436D01*
X4726Y14436D01*
X4929Y14232D01*
X4929Y14209D01*
X4942Y14140D01*
X4968Y14074D01*
X5006Y14015D01*
X5055Y13964D01*
X5113Y13924D01*
X5178Y13895D01*
X5247Y13880D01*
X5317Y13879D01*
X5387Y13891D01*
X5453Y13917D01*
X5512Y13954D01*
X5563Y14003D01*
X5604Y14061D01*
X5633Y14125D01*
X5648Y14194D01*
X5650Y14275D01*
X5636Y14344D01*
X5609Y14409D01*
X5576Y14460D01*
X5720Y14460D01*
X5743Y14462D01*
X5767Y14464D01*
X5769Y14464D01*
X5770Y14464D01*
X5793Y14471D01*
X5816Y14478D01*
X5817Y14479D01*
X5819Y14479D01*
X5840Y14490D01*
X5861Y14501D01*
X5862Y14502D01*
X5863Y14503D01*
X5882Y14518D01*
X5901Y14533D01*
X5903Y14535D01*
X5903Y14535D01*
X5903Y14535D01*
X5903Y14536D01*
X6123Y14756D01*
X6139Y14774D01*
X6154Y14793D01*
X6155Y14794D01*
X6156Y14795D01*
X6167Y14816D01*
X6178Y14837D01*
X6179Y14838D01*
X6180Y14840D01*
X6187Y14863D01*
X6194Y14885D01*
X6194Y14887D01*
X6194Y14888D01*
X6197Y14912D01*
X6199Y14936D01*
X6199Y14939D01*
X6199Y14939D01*
X6199Y14939D01*
X6200Y14940D01*
X6200Y15530D01*
X6197Y15553D01*
X6195Y15577D01*
X6195Y15579D01*
X6195Y15580D01*
X6188Y15603D01*
X6181Y15626D01*
X6180Y15627D01*
X6180Y15629D01*
X6169Y15650D01*
X6158Y15671D01*
X6157Y15672D01*
X6156Y15673D01*
X6141Y15692D01*
X6126Y15711D01*
X6124Y15713D01*
X6124Y15713D01*
X6124Y15713D01*
X6123Y15713D01*
X5166Y16671D01*
X5176Y16670D01*
X5179Y16670D01*
X5179Y16670D01*
X5179Y16670D01*
X5180Y16670D01*
X5742Y16670D01*
X6446Y15966D01*
X6464Y15950D01*
X6483Y15935D01*
X6484Y15934D01*
X6485Y15933D01*
X6506Y15922D01*
X6527Y15911D01*
X6528Y15910D01*
X6530Y15909D01*
X6553Y15902D01*
X6575Y15895D01*
X6577Y15895D01*
X6578Y15895D01*
X6602Y15892D01*
X6626Y15890D01*
X6629Y15890D01*
X6629Y15890D01*
X6629Y15890D01*
X6630Y15890D01*
X7982Y15890D01*
X8410Y15462D01*
X8410Y14990D01*
X8412Y14966D01*
X8414Y14942D01*
X8414Y14940D01*
X8414Y14939D01*
X8421Y14916D01*
X8428Y14893D01*
X8429Y14892D01*
X8429Y14890D01*
X8440Y14869D01*
X8451Y14848D01*
X8452Y14847D01*
X8453Y14846D01*
X8468Y14827D01*
X8483Y14808D01*
X8485Y14806D01*
X8485Y14806D01*
X8485Y14806D01*
X8486Y14806D01*
X8910Y14382D01*
X8910Y14008D01*
G54D10*
G36*
X9322Y12930D02*
X8786Y12393D01*
X8770Y12375D01*
X8755Y12356D01*
X8754Y12355D01*
X8753Y12354D01*
X8742Y12333D01*
X8731Y12312D01*
X8730Y12311D01*
X8729Y12309D01*
X8722Y12286D01*
X8715Y12264D01*
X8715Y12262D01*
X8715Y12261D01*
X8712Y12237D01*
X8710Y12213D01*
X8710Y12210D01*
X8710Y12210D01*
X8710Y12210D01*
X8710Y12210D01*
X8710Y11785D01*
X8710Y10977D01*
X8582Y10850D01*
X6190Y10850D01*
X6166Y10847D01*
X6142Y10845D01*
X6140Y10845D01*
X6139Y10845D01*
X6116Y10838D01*
X6093Y10831D01*
X6092Y10830D01*
X6090Y10830D01*
X6069Y10819D01*
X6048Y10808D01*
X6047Y10807D01*
X6046Y10806D01*
X6027Y10791D01*
X6008Y10776D01*
X6006Y10774D01*
X6006Y10774D01*
X6006Y10774D01*
X6006Y10773D01*
X5982Y10750D01*
X5957Y10750D01*
X5887Y10737D01*
X5822Y10710D01*
X5763Y10671D01*
X5712Y10622D01*
X5673Y10564D01*
X5669Y10556D01*
X5656Y10624D01*
X5629Y10689D01*
X5590Y10748D01*
X5540Y10798D01*
X5482Y10838D01*
X5416Y10865D01*
X5347Y10879D01*
X5347Y10879D01*
X5336Y10934D01*
X5309Y10999D01*
X5285Y11035D01*
X5304Y11061D01*
X5333Y11125D01*
X5348Y11194D01*
X5350Y11275D01*
X5340Y11322D01*
X5357Y11324D01*
X5359Y11324D01*
X5360Y11324D01*
X5383Y11331D01*
X5406Y11338D01*
X5407Y11339D01*
X5409Y11339D01*
X5430Y11350D01*
X5451Y11361D01*
X5452Y11362D01*
X5453Y11363D01*
X5472Y11378D01*
X5491Y11393D01*
X5493Y11395D01*
X5493Y11395D01*
X5493Y11395D01*
X5493Y11396D01*
X5687Y11589D01*
X5707Y11589D01*
X5777Y11601D01*
X5843Y11627D01*
X5902Y11664D01*
X5953Y11713D01*
X5994Y11771D01*
X6023Y11835D01*
X6038Y11904D01*
X6039Y11971D01*
X6053Y11977D01*
X6112Y12014D01*
X6163Y12063D01*
X6204Y12121D01*
X6215Y12145D01*
X6267Y12144D01*
X6337Y12156D01*
X6403Y12182D01*
X6462Y12219D01*
X6513Y12268D01*
X6554Y12326D01*
X6583Y12390D01*
X6598Y12459D01*
X6600Y12540D01*
X6586Y12609D01*
X6559Y12674D01*
X6520Y12733D01*
X6470Y12783D01*
X6412Y12823D01*
X6346Y12850D01*
X6277Y12864D01*
X6247Y12864D01*
X6238Y12873D01*
X6220Y12889D01*
X6201Y12904D01*
X6200Y12905D01*
X6199Y12906D01*
X6178Y12917D01*
X6157Y12928D01*
X6156Y12929D01*
X6154Y12930D01*
X9322Y12930D01*
X9322Y12930D01*
G37*
G54D18*
X9322Y12930D02*
X8786Y12393D01*
X8770Y12375D01*
X8755Y12356D01*
X8754Y12355D01*
X8753Y12354D01*
X8742Y12333D01*
X8731Y12312D01*
X8730Y12311D01*
X8729Y12309D01*
X8722Y12286D01*
X8715Y12264D01*
X8715Y12262D01*
X8715Y12261D01*
X8712Y12237D01*
X8710Y12213D01*
X8710Y12210D01*
X8710Y12210D01*
X8710Y12210D01*
X8710Y12210D01*
X8710Y11785D01*
X8710Y10977D01*
X8582Y10850D01*
X6190Y10850D01*
X6166Y10847D01*
X6142Y10845D01*
X6140Y10845D01*
X6139Y10845D01*
X6116Y10838D01*
X6093Y10831D01*
X6092Y10830D01*
X6090Y10830D01*
X6069Y10819D01*
X6048Y10808D01*
X6047Y10807D01*
X6046Y10806D01*
X6027Y10791D01*
X6008Y10776D01*
X6006Y10774D01*
X6006Y10774D01*
X6006Y10774D01*
X6006Y10773D01*
X5982Y10750D01*
X5957Y10750D01*
X5887Y10737D01*
X5822Y10710D01*
X5763Y10671D01*
X5712Y10622D01*
X5673Y10564D01*
X5669Y10556D01*
X5656Y10624D01*
X5629Y10689D01*
X5590Y10748D01*
X5540Y10798D01*
X5482Y10838D01*
X5416Y10865D01*
X5347Y10879D01*
X5347Y10879D01*
X5336Y10934D01*
X5309Y10999D01*
X5285Y11035D01*
X5304Y11061D01*
X5333Y11125D01*
X5348Y11194D01*
X5350Y11275D01*
X5340Y11322D01*
X5357Y11324D01*
X5359Y11324D01*
X5360Y11324D01*
X5383Y11331D01*
X5406Y11338D01*
X5407Y11339D01*
X5409Y11339D01*
X5430Y11350D01*
X5451Y11361D01*
X5452Y11362D01*
X5453Y11363D01*
X5472Y11378D01*
X5491Y11393D01*
X5493Y11395D01*
X5493Y11395D01*
X5493Y11395D01*
X5493Y11396D01*
X5687Y11589D01*
X5707Y11589D01*
X5777Y11601D01*
X5843Y11627D01*
X5902Y11664D01*
X5953Y11713D01*
X5994Y11771D01*
X6023Y11835D01*
X6038Y11904D01*
X6039Y11971D01*
X6053Y11977D01*
X6112Y12014D01*
X6163Y12063D01*
X6204Y12121D01*
X6215Y12145D01*
X6267Y12144D01*
X6337Y12156D01*
X6403Y12182D01*
X6462Y12219D01*
X6513Y12268D01*
X6554Y12326D01*
X6583Y12390D01*
X6598Y12459D01*
X6600Y12540D01*
X6586Y12609D01*
X6559Y12674D01*
X6520Y12733D01*
X6470Y12783D01*
X6412Y12823D01*
X6346Y12850D01*
X6277Y12864D01*
X6247Y12864D01*
X6238Y12873D01*
X6220Y12889D01*
X6201Y12904D01*
X6200Y12905D01*
X6199Y12906D01*
X6178Y12917D01*
X6157Y12928D01*
X6156Y12929D01*
X6154Y12930D01*
X9322Y12930D01*
G54D10*
G36*
X9705Y18096D02*
X9653Y18061D01*
X9602Y18012D01*
X9563Y17954D01*
X9535Y17889D01*
X9520Y17820D01*
X9519Y17777D01*
X9512Y17763D01*
X9501Y17742D01*
X9500Y17741D01*
X9499Y17739D01*
X9492Y17716D01*
X9485Y17694D01*
X9485Y17692D01*
X9485Y17691D01*
X9482Y17667D01*
X9480Y17643D01*
X9480Y17640D01*
X9480Y17640D01*
X9480Y17640D01*
X9480Y17640D01*
X9480Y17579D01*
X9462Y17588D01*
X9461Y17589D01*
X9459Y17590D01*
X9436Y17597D01*
X9414Y17604D01*
X9412Y17604D01*
X9411Y17604D01*
X9387Y17607D01*
X9363Y17609D01*
X9360Y17609D01*
X9360Y17609D01*
X9360Y17609D01*
X9360Y17610D01*
X9030Y17610D01*
X9006Y17607D01*
X8982Y17605D01*
X8980Y17605D01*
X8979Y17605D01*
X8956Y17598D01*
X8933Y17591D01*
X8932Y17590D01*
X8930Y17590D01*
X8909Y17579D01*
X8888Y17568D01*
X8887Y17567D01*
X8886Y17566D01*
X8867Y17551D01*
X8848Y17536D01*
X8846Y17534D01*
X8846Y17534D01*
X8846Y17534D01*
X8846Y17533D01*
X8801Y17489D01*
X8797Y17489D01*
X8727Y17490D01*
X8657Y17477D01*
X8592Y17450D01*
X8533Y17411D01*
X8482Y17362D01*
X8443Y17304D01*
X8415Y17239D01*
X8400Y17170D01*
X8399Y17099D01*
X8406Y17060D01*
X7037Y17060D01*
X6993Y17103D01*
X6993Y17103D01*
X6993Y17103D01*
X6344Y17753D01*
X6336Y17794D01*
X6309Y17859D01*
X6292Y17884D01*
X6293Y17885D01*
X6293Y17885D01*
X6293Y17885D01*
X6293Y17886D01*
X6317Y17910D01*
X8120Y17910D01*
X9190Y17910D01*
X9213Y17912D01*
X9237Y17914D01*
X9239Y17914D01*
X9240Y17914D01*
X9263Y17921D01*
X9286Y17928D01*
X9287Y17929D01*
X9289Y17929D01*
X9310Y17940D01*
X9331Y17951D01*
X9332Y17952D01*
X9333Y17953D01*
X9352Y17968D01*
X9371Y17983D01*
X9373Y17985D01*
X9373Y17985D01*
X9373Y17985D01*
X9373Y17986D01*
X9633Y18245D01*
X9634Y18232D01*
X9634Y18230D01*
X9634Y18229D01*
X9641Y18206D01*
X9648Y18183D01*
X9649Y18182D01*
X9649Y18180D01*
X9660Y18159D01*
X9671Y18138D01*
X9672Y18137D01*
X9673Y18136D01*
X9688Y18117D01*
X9703Y18098D01*
X9705Y18096D01*
X9705Y18096D01*
X9705Y18096D01*
X9705Y18096D01*
X9705Y18096D01*
G37*
G54D18*
X9705Y18096D02*
X9653Y18061D01*
X9602Y18012D01*
X9563Y17954D01*
X9535Y17889D01*
X9520Y17820D01*
X9519Y17777D01*
X9512Y17763D01*
X9501Y17742D01*
X9500Y17741D01*
X9499Y17739D01*
X9492Y17716D01*
X9485Y17694D01*
X9485Y17692D01*
X9485Y17691D01*
X9482Y17667D01*
X9480Y17643D01*
X9480Y17640D01*
X9480Y17640D01*
X9480Y17640D01*
X9480Y17640D01*
X9480Y17579D01*
X9462Y17588D01*
X9461Y17589D01*
X9459Y17590D01*
X9436Y17597D01*
X9414Y17604D01*
X9412Y17604D01*
X9411Y17604D01*
X9387Y17607D01*
X9363Y17609D01*
X9360Y17609D01*
X9360Y17609D01*
X9360Y17609D01*
X9360Y17610D01*
X9030Y17610D01*
X9006Y17607D01*
X8982Y17605D01*
X8980Y17605D01*
X8979Y17605D01*
X8956Y17598D01*
X8933Y17591D01*
X8932Y17590D01*
X8930Y17590D01*
X8909Y17579D01*
X8888Y17568D01*
X8887Y17567D01*
X8886Y17566D01*
X8867Y17551D01*
X8848Y17536D01*
X8846Y17534D01*
X8846Y17534D01*
X8846Y17534D01*
X8846Y17533D01*
X8801Y17489D01*
X8797Y17489D01*
X8727Y17490D01*
X8657Y17477D01*
X8592Y17450D01*
X8533Y17411D01*
X8482Y17362D01*
X8443Y17304D01*
X8415Y17239D01*
X8400Y17170D01*
X8399Y17099D01*
X8406Y17060D01*
X7037Y17060D01*
X6993Y17103D01*
X6993Y17103D01*
X6993Y17103D01*
X6344Y17753D01*
X6336Y17794D01*
X6309Y17859D01*
X6292Y17884D01*
X6293Y17885D01*
X6293Y17885D01*
X6293Y17885D01*
X6293Y17886D01*
X6317Y17910D01*
X8120Y17910D01*
X9190Y17910D01*
X9213Y17912D01*
X9237Y17914D01*
X9239Y17914D01*
X9240Y17914D01*
X9263Y17921D01*
X9286Y17928D01*
X9287Y17929D01*
X9289Y17929D01*
X9310Y17940D01*
X9331Y17951D01*
X9332Y17952D01*
X9333Y17953D01*
X9352Y17968D01*
X9371Y17983D01*
X9373Y17985D01*
X9373Y17985D01*
X9373Y17985D01*
X9373Y17986D01*
X9633Y18245D01*
X9634Y18232D01*
X9634Y18230D01*
X9634Y18229D01*
X9641Y18206D01*
X9648Y18183D01*
X9649Y18182D01*
X9649Y18180D01*
X9660Y18159D01*
X9671Y18138D01*
X9672Y18137D01*
X9673Y18136D01*
X9688Y18117D01*
X9703Y18098D01*
X9705Y18096D01*
X9705Y18096D01*
X9705Y18096D01*
X9705Y18096D01*
G54D10*
G36*
X16862Y18160D02*
X16020Y18160D01*
X15996Y18157D01*
X15972Y18155D01*
X15970Y18155D01*
X15969Y18155D01*
X15946Y18148D01*
X15923Y18141D01*
X15922Y18140D01*
X15920Y18140D01*
X15899Y18129D01*
X15878Y18118D01*
X15877Y18117D01*
X15876Y18116D01*
X15857Y18101D01*
X15838Y18086D01*
X15836Y18084D01*
X15836Y18084D01*
X15836Y18084D01*
X15836Y18083D01*
X14702Y16950D01*
X14090Y16950D01*
X13934Y16950D01*
X13915Y16968D01*
X13857Y17008D01*
X13791Y17035D01*
X13722Y17049D01*
X13652Y17050D01*
X13582Y17037D01*
X13517Y17010D01*
X13458Y16971D01*
X13407Y16922D01*
X13368Y16864D01*
X13340Y16799D01*
X13325Y16730D01*
X13324Y16659D01*
X13337Y16590D01*
X13343Y16573D01*
X13133Y16783D01*
X13115Y16799D01*
X13096Y16814D01*
X13095Y16815D01*
X13094Y16816D01*
X13073Y16827D01*
X13052Y16838D01*
X13051Y16839D01*
X13049Y16840D01*
X13026Y16847D01*
X13004Y16854D01*
X13002Y16854D01*
X13001Y16854D01*
X12977Y16857D01*
X12953Y16859D01*
X12950Y16859D01*
X12950Y16859D01*
X12950Y16859D01*
X12950Y16860D01*
X12320Y16860D01*
X12296Y16857D01*
X12272Y16855D01*
X12270Y16855D01*
X12269Y16855D01*
X12246Y16848D01*
X12223Y16841D01*
X12222Y16840D01*
X12220Y16840D01*
X12199Y16829D01*
X12178Y16818D01*
X12177Y16817D01*
X12176Y16816D01*
X12157Y16801D01*
X12138Y16786D01*
X12136Y16784D01*
X12136Y16784D01*
X12136Y16784D01*
X12136Y16783D01*
X11691Y16338D01*
X11675Y16320D01*
X11660Y16301D01*
X11659Y16300D01*
X11658Y16299D01*
X11647Y16278D01*
X11636Y16257D01*
X11635Y16256D01*
X11634Y16254D01*
X11627Y16231D01*
X11620Y16209D01*
X11620Y16207D01*
X11620Y16206D01*
X11617Y16182D01*
X11615Y16158D01*
X11615Y16155D01*
X11615Y16155D01*
X11615Y16155D01*
X11615Y16155D01*
X11615Y15672D01*
X11561Y15619D01*
X11549Y15649D01*
X11510Y15708D01*
X11460Y15758D01*
X11420Y15786D01*
X11420Y17052D01*
X11597Y17230D01*
X12010Y17230D01*
X12033Y17232D01*
X12057Y17234D01*
X12059Y17234D01*
X12060Y17234D01*
X12083Y17241D01*
X12106Y17248D01*
X12107Y17249D01*
X12109Y17249D01*
X12130Y17260D01*
X12151Y17271D01*
X12152Y17272D01*
X12153Y17273D01*
X12172Y17288D01*
X12191Y17303D01*
X12193Y17305D01*
X12193Y17305D01*
X12193Y17305D01*
X12193Y17306D01*
X12680Y17792D01*
X12680Y17669D01*
X12632Y17650D01*
X12573Y17611D01*
X12522Y17562D01*
X12483Y17504D01*
X12455Y17439D01*
X12440Y17370D01*
X12439Y17299D01*
X12452Y17230D01*
X12478Y17164D01*
X12516Y17105D01*
X12565Y17054D01*
X12623Y17014D01*
X12688Y16985D01*
X12757Y16970D01*
X12827Y16969D01*
X12897Y16981D01*
X12963Y17007D01*
X13022Y17044D01*
X13073Y17093D01*
X13114Y17151D01*
X13143Y17215D01*
X13158Y17284D01*
X13159Y17331D01*
X13167Y17346D01*
X13178Y17367D01*
X13179Y17368D01*
X13180Y17370D01*
X13187Y17393D01*
X13194Y17415D01*
X13194Y17417D01*
X13194Y17418D01*
X13197Y17442D01*
X13199Y17466D01*
X13199Y17469D01*
X13199Y17469D01*
X13199Y17469D01*
X13200Y17470D01*
X13200Y19112D01*
X13207Y19110D01*
X13277Y19109D01*
X13347Y19121D01*
X13413Y19147D01*
X13472Y19184D01*
X13523Y19233D01*
X13564Y19291D01*
X13593Y19355D01*
X13608Y19424D01*
X13610Y19505D01*
X13596Y19574D01*
X13572Y19633D01*
X13623Y19610D01*
X13692Y19595D01*
X13762Y19594D01*
X13832Y19606D01*
X13897Y19631D01*
X13908Y19604D01*
X13946Y19545D01*
X13995Y19494D01*
X14053Y19454D01*
X14118Y19425D01*
X14187Y19410D01*
X14257Y19409D01*
X14327Y19421D01*
X14393Y19447D01*
X14452Y19484D01*
X14503Y19533D01*
X14544Y19591D01*
X14573Y19655D01*
X14588Y19724D01*
X14589Y19761D01*
X14773Y19946D01*
X14789Y19964D01*
X14804Y19983D01*
X14805Y19984D01*
X14806Y19985D01*
X14817Y20006D01*
X14828Y20027D01*
X14829Y20028D01*
X14830Y20030D01*
X14837Y20053D01*
X14844Y20075D01*
X14844Y20077D01*
X14844Y20078D01*
X14847Y20102D01*
X14849Y20126D01*
X14849Y20129D01*
X14849Y20129D01*
X14849Y20129D01*
X14850Y20130D01*
X14850Y20172D01*
X16862Y18160D01*
X16862Y18160D01*
G37*
G54D18*
X16862Y18160D02*
X16020Y18160D01*
X15996Y18157D01*
X15972Y18155D01*
X15970Y18155D01*
X15969Y18155D01*
X15946Y18148D01*
X15923Y18141D01*
X15922Y18140D01*
X15920Y18140D01*
X15899Y18129D01*
X15878Y18118D01*
X15877Y18117D01*
X15876Y18116D01*
X15857Y18101D01*
X15838Y18086D01*
X15836Y18084D01*
X15836Y18084D01*
X15836Y18084D01*
X15836Y18083D01*
X14702Y16950D01*
X14090Y16950D01*
X13934Y16950D01*
X13915Y16968D01*
X13857Y17008D01*
X13791Y17035D01*
X13722Y17049D01*
X13652Y17050D01*
X13582Y17037D01*
X13517Y17010D01*
X13458Y16971D01*
X13407Y16922D01*
X13368Y16864D01*
X13340Y16799D01*
X13325Y16730D01*
X13324Y16659D01*
X13337Y16590D01*
X13343Y16573D01*
X13133Y16783D01*
X13115Y16799D01*
X13096Y16814D01*
X13095Y16815D01*
X13094Y16816D01*
X13073Y16827D01*
X13052Y16838D01*
X13051Y16839D01*
X13049Y16840D01*
X13026Y16847D01*
X13004Y16854D01*
X13002Y16854D01*
X13001Y16854D01*
X12977Y16857D01*
X12953Y16859D01*
X12950Y16859D01*
X12950Y16859D01*
X12950Y16859D01*
X12950Y16860D01*
X12320Y16860D01*
X12296Y16857D01*
X12272Y16855D01*
X12270Y16855D01*
X12269Y16855D01*
X12246Y16848D01*
X12223Y16841D01*
X12222Y16840D01*
X12220Y16840D01*
X12199Y16829D01*
X12178Y16818D01*
X12177Y16817D01*
X12176Y16816D01*
X12157Y16801D01*
X12138Y16786D01*
X12136Y16784D01*
X12136Y16784D01*
X12136Y16784D01*
X12136Y16783D01*
X11691Y16338D01*
X11675Y16320D01*
X11660Y16301D01*
X11659Y16300D01*
X11658Y16299D01*
X11647Y16278D01*
X11636Y16257D01*
X11635Y16256D01*
X11634Y16254D01*
X11627Y16231D01*
X11620Y16209D01*
X11620Y16207D01*
X11620Y16206D01*
X11617Y16182D01*
X11615Y16158D01*
X11615Y16155D01*
X11615Y16155D01*
X11615Y16155D01*
X11615Y16155D01*
X11615Y15672D01*
X11561Y15619D01*
X11549Y15649D01*
X11510Y15708D01*
X11460Y15758D01*
X11420Y15786D01*
X11420Y17052D01*
X11597Y17230D01*
X12010Y17230D01*
X12033Y17232D01*
X12057Y17234D01*
X12059Y17234D01*
X12060Y17234D01*
X12083Y17241D01*
X12106Y17248D01*
X12107Y17249D01*
X12109Y17249D01*
X12130Y17260D01*
X12151Y17271D01*
X12152Y17272D01*
X12153Y17273D01*
X12172Y17288D01*
X12191Y17303D01*
X12193Y17305D01*
X12193Y17305D01*
X12193Y17305D01*
X12193Y17306D01*
X12680Y17792D01*
X12680Y17669D01*
X12632Y17650D01*
X12573Y17611D01*
X12522Y17562D01*
X12483Y17504D01*
X12455Y17439D01*
X12440Y17370D01*
X12439Y17299D01*
X12452Y17230D01*
X12478Y17164D01*
X12516Y17105D01*
X12565Y17054D01*
X12623Y17014D01*
X12688Y16985D01*
X12757Y16970D01*
X12827Y16969D01*
X12897Y16981D01*
X12963Y17007D01*
X13022Y17044D01*
X13073Y17093D01*
X13114Y17151D01*
X13143Y17215D01*
X13158Y17284D01*
X13159Y17331D01*
X13167Y17346D01*
X13178Y17367D01*
X13179Y17368D01*
X13180Y17370D01*
X13187Y17393D01*
X13194Y17415D01*
X13194Y17417D01*
X13194Y17418D01*
X13197Y17442D01*
X13199Y17466D01*
X13199Y17469D01*
X13199Y17469D01*
X13199Y17469D01*
X13200Y17470D01*
X13200Y19112D01*
X13207Y19110D01*
X13277Y19109D01*
X13347Y19121D01*
X13413Y19147D01*
X13472Y19184D01*
X13523Y19233D01*
X13564Y19291D01*
X13593Y19355D01*
X13608Y19424D01*
X13610Y19505D01*
X13596Y19574D01*
X13572Y19633D01*
X13623Y19610D01*
X13692Y19595D01*
X13762Y19594D01*
X13832Y19606D01*
X13897Y19631D01*
X13908Y19604D01*
X13946Y19545D01*
X13995Y19494D01*
X14053Y19454D01*
X14118Y19425D01*
X14187Y19410D01*
X14257Y19409D01*
X14327Y19421D01*
X14393Y19447D01*
X14452Y19484D01*
X14503Y19533D01*
X14544Y19591D01*
X14573Y19655D01*
X14588Y19724D01*
X14589Y19761D01*
X14773Y19946D01*
X14789Y19964D01*
X14804Y19983D01*
X14805Y19984D01*
X14806Y19985D01*
X14817Y20006D01*
X14828Y20027D01*
X14829Y20028D01*
X14830Y20030D01*
X14837Y20053D01*
X14844Y20075D01*
X14844Y20077D01*
X14844Y20078D01*
X14847Y20102D01*
X14849Y20126D01*
X14849Y20129D01*
X14849Y20129D01*
X14849Y20129D01*
X14850Y20130D01*
X14850Y20172D01*
X16862Y18160D01*
G54D10*
G36*
X23080Y21331D02*
X23052Y21320D01*
X23019Y21299D01*
X23010Y21308D01*
X22952Y21348D01*
X22886Y21375D01*
X22817Y21389D01*
X22747Y21390D01*
X22677Y21377D01*
X22612Y21350D01*
X22553Y21311D01*
X22502Y21262D01*
X22463Y21204D01*
X22435Y21139D01*
X22420Y21070D01*
X22420Y21037D01*
X22396Y21013D01*
X22380Y20995D01*
X22365Y20976D01*
X22364Y20975D01*
X22363Y20974D01*
X22352Y20953D01*
X22341Y20932D01*
X22340Y20931D01*
X22339Y20929D01*
X22332Y20906D01*
X22325Y20884D01*
X22325Y20882D01*
X22325Y20881D01*
X22322Y20857D01*
X22320Y20833D01*
X22320Y20830D01*
X22320Y20830D01*
X22320Y20830D01*
X22320Y20830D01*
X22320Y20427D01*
X22181Y20288D01*
X22164Y20329D01*
X22125Y20388D01*
X22075Y20438D01*
X22017Y20478D01*
X21951Y20505D01*
X21882Y20519D01*
X21852Y20519D01*
X21398Y20973D01*
X21380Y20989D01*
X21361Y21004D01*
X21360Y21005D01*
X21359Y21006D01*
X21338Y21017D01*
X21317Y21028D01*
X21316Y21029D01*
X21314Y21030D01*
X21291Y21037D01*
X21269Y21044D01*
X21267Y21044D01*
X21266Y21044D01*
X21242Y21047D01*
X21218Y21049D01*
X21215Y21049D01*
X21215Y21049D01*
X21215Y21049D01*
X21215Y21050D01*
X21046Y21050D01*
X21046Y21777D01*
X21043Y21809D01*
X21043Y23069D01*
X21022Y23178D01*
X20980Y23280D01*
X20918Y23372D01*
X20840Y23451D01*
X20832Y23456D01*
X20832Y24411D01*
X20479Y24764D01*
X20458Y24743D01*
X20458Y24785D01*
X20105Y25138D01*
X20012Y25106D01*
X19958Y25009D01*
X19925Y24904D01*
X19912Y24794D01*
X19921Y24684D01*
X19951Y24577D01*
X20002Y24479D01*
X20012Y24464D01*
X20105Y24432D01*
X20458Y24785D01*
X20458Y24743D01*
X20126Y24411D01*
X20158Y24318D01*
X20255Y24264D01*
X20360Y24231D01*
X20470Y24218D01*
X20581Y24227D01*
X20687Y24258D01*
X20786Y24308D01*
X20800Y24318D01*
X20832Y24411D01*
X20832Y23456D01*
X20749Y23512D01*
X20647Y23555D01*
X20538Y23578D01*
X20428Y23578D01*
X20319Y23558D01*
X20216Y23516D01*
X20124Y23456D01*
X20045Y23378D01*
X19982Y23287D01*
X19939Y23185D01*
X19916Y23077D01*
X19914Y22966D01*
X19934Y22857D01*
X19975Y22754D01*
X20035Y22661D01*
X20112Y22582D01*
X20202Y22519D01*
X20304Y22474D01*
X20412Y22451D01*
X20523Y22448D01*
X20632Y22468D01*
X20735Y22508D01*
X20828Y22567D01*
X20908Y22643D01*
X20972Y22734D01*
X21017Y22835D01*
X21042Y22943D01*
X21043Y23069D01*
X21043Y21809D01*
X21037Y21887D01*
X21007Y21993D01*
X20956Y22092D01*
X20946Y22106D01*
X20853Y22138D01*
X20832Y22117D01*
X20832Y22160D01*
X20800Y22253D01*
X20703Y22306D01*
X20598Y22340D01*
X20488Y22352D01*
X20377Y22343D01*
X20271Y22313D01*
X20173Y22262D01*
X20158Y22253D01*
X20126Y22160D01*
X20479Y21807D01*
X20832Y22160D01*
X20832Y22117D01*
X20500Y21785D01*
X20853Y21432D01*
X20946Y21464D01*
X21000Y21561D01*
X21034Y21667D01*
X21046Y21777D01*
X21046Y21050D01*
X20497Y21050D01*
X20295Y21252D01*
X20360Y21231D01*
X20470Y21218D01*
X20581Y21227D01*
X20687Y21258D01*
X20786Y21308D01*
X20800Y21318D01*
X20832Y21411D01*
X20479Y21764D01*
X20473Y21759D01*
X20452Y21780D01*
X20458Y21785D01*
X20105Y22138D01*
X20012Y22106D01*
X19958Y22009D01*
X19925Y21904D01*
X19912Y21794D01*
X19921Y21684D01*
X19944Y21602D01*
X18487Y23060D01*
X18487Y24777D01*
X18478Y24887D01*
X18448Y24993D01*
X18397Y25092D01*
X18387Y25106D01*
X18294Y25138D01*
X18273Y25117D01*
X18273Y25160D01*
X18241Y25253D01*
X18144Y25306D01*
X18039Y25340D01*
X17929Y25352D01*
X17818Y25343D01*
X17712Y25313D01*
X17613Y25262D01*
X17599Y25253D01*
X17567Y25160D01*
X17920Y24807D01*
X18273Y25160D01*
X18273Y25117D01*
X17941Y24785D01*
X18294Y24432D01*
X18387Y24464D01*
X18441Y24561D01*
X18474Y24667D01*
X18487Y24777D01*
X18487Y23060D01*
X18484Y23062D01*
X18484Y23069D01*
X18463Y23178D01*
X18421Y23280D01*
X18359Y23372D01*
X18281Y23451D01*
X18273Y23456D01*
X18273Y24411D01*
X17920Y24764D01*
X17899Y24743D01*
X17899Y24785D01*
X17546Y25138D01*
X17453Y25106D01*
X17399Y25009D01*
X17365Y24904D01*
X17353Y24794D01*
X17362Y24684D01*
X17392Y24577D01*
X17443Y24479D01*
X17453Y24464D01*
X17546Y24432D01*
X17899Y24785D01*
X17899Y24743D01*
X17567Y24411D01*
X17599Y24318D01*
X17696Y24264D01*
X17801Y24231D01*
X17911Y24218D01*
X18022Y24227D01*
X18128Y24258D01*
X18226Y24308D01*
X18241Y24318D01*
X18273Y24411D01*
X18273Y23456D01*
X18190Y23512D01*
X18088Y23555D01*
X17979Y23578D01*
X17869Y23578D01*
X17760Y23558D01*
X17657Y23516D01*
X17565Y23456D01*
X17486Y23378D01*
X17423Y23287D01*
X17379Y23185D01*
X17356Y23077D01*
X17355Y22966D01*
X17375Y22857D01*
X17416Y22754D01*
X17476Y22661D01*
X17552Y22582D01*
X17643Y22519D01*
X17745Y22474D01*
X17853Y22451D01*
X17963Y22448D01*
X18072Y22468D01*
X18176Y22508D01*
X18254Y22557D01*
X20206Y20606D01*
X20224Y20590D01*
X20243Y20575D01*
X20244Y20574D01*
X20245Y20573D01*
X20266Y20562D01*
X20287Y20551D01*
X20288Y20550D01*
X20290Y20549D01*
X20295Y20548D01*
X20216Y20516D01*
X20124Y20456D01*
X20045Y20378D01*
X19982Y20287D01*
X19939Y20185D01*
X19916Y20077D01*
X19914Y19966D01*
X19934Y19857D01*
X19975Y19754D01*
X20035Y19661D01*
X20112Y19582D01*
X20202Y19519D01*
X20292Y19480D01*
X18487Y19480D01*
X18487Y21777D01*
X18478Y21887D01*
X18448Y21993D01*
X18397Y22092D01*
X18387Y22106D01*
X18294Y22138D01*
X18273Y22117D01*
X18273Y22160D01*
X18241Y22253D01*
X18144Y22306D01*
X18039Y22340D01*
X17929Y22352D01*
X17818Y22343D01*
X17712Y22313D01*
X17613Y22262D01*
X17599Y22253D01*
X17567Y22160D01*
X17920Y21807D01*
X18273Y22160D01*
X18273Y22117D01*
X17941Y21785D01*
X18294Y21432D01*
X18387Y21464D01*
X18441Y21561D01*
X18474Y21667D01*
X18487Y21777D01*
X18487Y19480D01*
X18103Y19480D01*
X18176Y19508D01*
X18269Y19567D01*
X18349Y19643D01*
X18413Y19734D01*
X18458Y19835D01*
X18483Y19943D01*
X18484Y20069D01*
X18463Y20178D01*
X18421Y20280D01*
X18359Y20372D01*
X18281Y20451D01*
X18273Y20456D01*
X18273Y21411D01*
X17920Y21764D01*
X17899Y21743D01*
X17899Y21785D01*
X17546Y22138D01*
X17453Y22106D01*
X17399Y22009D01*
X17365Y21904D01*
X17353Y21794D01*
X17362Y21684D01*
X17392Y21577D01*
X17443Y21479D01*
X17453Y21464D01*
X17546Y21432D01*
X17899Y21785D01*
X17899Y21743D01*
X17567Y21411D01*
X17599Y21318D01*
X17696Y21264D01*
X17801Y21231D01*
X17911Y21218D01*
X18022Y21227D01*
X18128Y21258D01*
X18226Y21308D01*
X18241Y21318D01*
X18273Y21411D01*
X18273Y20456D01*
X18190Y20512D01*
X18088Y20555D01*
X17979Y20578D01*
X17869Y20578D01*
X17760Y20558D01*
X17657Y20516D01*
X17565Y20456D01*
X17486Y20378D01*
X17423Y20287D01*
X17379Y20185D01*
X17356Y20077D01*
X17355Y19966D01*
X17356Y19961D01*
X14773Y22543D01*
X14755Y22559D01*
X14736Y22574D01*
X14735Y22575D01*
X14734Y22576D01*
X14713Y22587D01*
X14692Y22598D01*
X14691Y22599D01*
X14689Y22600D01*
X14666Y22607D01*
X14644Y22614D01*
X14642Y22614D01*
X14641Y22614D01*
X14617Y22617D01*
X14593Y22619D01*
X14590Y22619D01*
X14590Y22619D01*
X14590Y22619D01*
X14590Y22620D01*
X13030Y22620D01*
X14235Y23824D01*
X14235Y23470D01*
X14237Y23446D01*
X14239Y23422D01*
X14239Y23420D01*
X14239Y23419D01*
X14246Y23396D01*
X14253Y23373D01*
X14254Y23372D01*
X14254Y23370D01*
X14265Y23349D01*
X14276Y23328D01*
X14277Y23327D01*
X14278Y23326D01*
X14293Y23307D01*
X14308Y23288D01*
X14310Y23286D01*
X14310Y23286D01*
X14310Y23286D01*
X14311Y23286D01*
X14379Y23217D01*
X14379Y23194D01*
X14392Y23125D01*
X14418Y23059D01*
X14456Y23000D01*
X14505Y22949D01*
X14563Y22909D01*
X14628Y22880D01*
X14697Y22865D01*
X14767Y22864D01*
X14837Y22876D01*
X14903Y22902D01*
X14962Y22939D01*
X15013Y22988D01*
X15054Y23046D01*
X15083Y23110D01*
X15098Y23179D01*
X15100Y23260D01*
X15086Y23329D01*
X15059Y23394D01*
X15020Y23453D01*
X14970Y23503D01*
X14912Y23543D01*
X14846Y23570D01*
X14777Y23584D01*
X14755Y23584D01*
X14755Y24037D01*
X16087Y25370D01*
X16860Y25370D01*
X16883Y25372D01*
X16907Y25374D01*
X16909Y25374D01*
X16910Y25374D01*
X16933Y25381D01*
X16956Y25388D01*
X16957Y25389D01*
X16959Y25389D01*
X16980Y25400D01*
X17001Y25411D01*
X17002Y25412D01*
X17003Y25413D01*
X17022Y25428D01*
X17041Y25443D01*
X17042Y25444D01*
X17062Y25444D01*
X17132Y25456D01*
X17198Y25482D01*
X17257Y25519D01*
X17308Y25568D01*
X17349Y25626D01*
X17378Y25690D01*
X17393Y25759D01*
X17395Y25840D01*
X17382Y25905D01*
X20092Y25905D01*
X20684Y25312D01*
X20598Y25340D01*
X20488Y25352D01*
X20377Y25343D01*
X20271Y25313D01*
X20173Y25262D01*
X20158Y25253D01*
X20126Y25160D01*
X20479Y24807D01*
X20485Y24812D01*
X20506Y24791D01*
X20500Y24785D01*
X20853Y24432D01*
X20946Y24464D01*
X21000Y24561D01*
X21034Y24667D01*
X21040Y24719D01*
X21040Y23480D01*
X21042Y23456D01*
X21044Y23432D01*
X21044Y23430D01*
X21044Y23429D01*
X21051Y23406D01*
X21058Y23383D01*
X21059Y23382D01*
X21059Y23380D01*
X21070Y23359D01*
X21081Y23338D01*
X21082Y23337D01*
X21083Y23336D01*
X21098Y23317D01*
X21113Y23298D01*
X21115Y23296D01*
X21115Y23296D01*
X21115Y23296D01*
X21116Y23296D01*
X23080Y21331D01*
X23080Y21331D01*
G37*
G54D18*
X23080Y21331D02*
X23052Y21320D01*
X23019Y21299D01*
X23010Y21308D01*
X22952Y21348D01*
X22886Y21375D01*
X22817Y21389D01*
X22747Y21390D01*
X22677Y21377D01*
X22612Y21350D01*
X22553Y21311D01*
X22502Y21262D01*
X22463Y21204D01*
X22435Y21139D01*
X22420Y21070D01*
X22420Y21037D01*
X22396Y21013D01*
X22380Y20995D01*
X22365Y20976D01*
X22364Y20975D01*
X22363Y20974D01*
X22352Y20953D01*
X22341Y20932D01*
X22340Y20931D01*
X22339Y20929D01*
X22332Y20906D01*
X22325Y20884D01*
X22325Y20882D01*
X22325Y20881D01*
X22322Y20857D01*
X22320Y20833D01*
X22320Y20830D01*
X22320Y20830D01*
X22320Y20830D01*
X22320Y20830D01*
X22320Y20427D01*
X22181Y20288D01*
X22164Y20329D01*
X22125Y20388D01*
X22075Y20438D01*
X22017Y20478D01*
X21951Y20505D01*
X21882Y20519D01*
X21852Y20519D01*
X21398Y20973D01*
X21380Y20989D01*
X21361Y21004D01*
X21360Y21005D01*
X21359Y21006D01*
X21338Y21017D01*
X21317Y21028D01*
X21316Y21029D01*
X21314Y21030D01*
X21291Y21037D01*
X21269Y21044D01*
X21267Y21044D01*
X21266Y21044D01*
X21242Y21047D01*
X21218Y21049D01*
X21215Y21049D01*
X21215Y21049D01*
X21215Y21049D01*
X21215Y21050D01*
X21046Y21050D01*
X21046Y21777D01*
X21043Y21809D01*
X21043Y23069D01*
X21022Y23178D01*
X20980Y23280D01*
X20918Y23372D01*
X20840Y23451D01*
X20832Y23456D01*
X20832Y24411D01*
X20479Y24764D01*
X20458Y24743D01*
X20458Y24785D01*
X20105Y25138D01*
X20012Y25106D01*
X19958Y25009D01*
X19925Y24904D01*
X19912Y24794D01*
X19921Y24684D01*
X19951Y24577D01*
X20002Y24479D01*
X20012Y24464D01*
X20105Y24432D01*
X20458Y24785D01*
X20458Y24743D01*
X20126Y24411D01*
X20158Y24318D01*
X20255Y24264D01*
X20360Y24231D01*
X20470Y24218D01*
X20581Y24227D01*
X20687Y24258D01*
X20786Y24308D01*
X20800Y24318D01*
X20832Y24411D01*
X20832Y23456D01*
X20749Y23512D01*
X20647Y23555D01*
X20538Y23578D01*
X20428Y23578D01*
X20319Y23558D01*
X20216Y23516D01*
X20124Y23456D01*
X20045Y23378D01*
X19982Y23287D01*
X19939Y23185D01*
X19916Y23077D01*
X19914Y22966D01*
X19934Y22857D01*
X19975Y22754D01*
X20035Y22661D01*
X20112Y22582D01*
X20202Y22519D01*
X20304Y22474D01*
X20412Y22451D01*
X20523Y22448D01*
X20632Y22468D01*
X20735Y22508D01*
X20828Y22567D01*
X20908Y22643D01*
X20972Y22734D01*
X21017Y22835D01*
X21042Y22943D01*
X21043Y23069D01*
X21043Y21809D01*
X21037Y21887D01*
X21007Y21993D01*
X20956Y22092D01*
X20946Y22106D01*
X20853Y22138D01*
X20832Y22117D01*
X20832Y22160D01*
X20800Y22253D01*
X20703Y22306D01*
X20598Y22340D01*
X20488Y22352D01*
X20377Y22343D01*
X20271Y22313D01*
X20173Y22262D01*
X20158Y22253D01*
X20126Y22160D01*
X20479Y21807D01*
X20832Y22160D01*
X20832Y22117D01*
X20500Y21785D01*
X20853Y21432D01*
X20946Y21464D01*
X21000Y21561D01*
X21034Y21667D01*
X21046Y21777D01*
X21046Y21050D01*
X20497Y21050D01*
X20295Y21252D01*
X20360Y21231D01*
X20470Y21218D01*
X20581Y21227D01*
X20687Y21258D01*
X20786Y21308D01*
X20800Y21318D01*
X20832Y21411D01*
X20479Y21764D01*
X20473Y21759D01*
X20452Y21780D01*
X20458Y21785D01*
X20105Y22138D01*
X20012Y22106D01*
X19958Y22009D01*
X19925Y21904D01*
X19912Y21794D01*
X19921Y21684D01*
X19944Y21602D01*
X18487Y23060D01*
X18487Y24777D01*
X18478Y24887D01*
X18448Y24993D01*
X18397Y25092D01*
X18387Y25106D01*
X18294Y25138D01*
X18273Y25117D01*
X18273Y25160D01*
X18241Y25253D01*
X18144Y25306D01*
X18039Y25340D01*
X17929Y25352D01*
X17818Y25343D01*
X17712Y25313D01*
X17613Y25262D01*
X17599Y25253D01*
X17567Y25160D01*
X17920Y24807D01*
X18273Y25160D01*
X18273Y25117D01*
X17941Y24785D01*
X18294Y24432D01*
X18387Y24464D01*
X18441Y24561D01*
X18474Y24667D01*
X18487Y24777D01*
X18487Y23060D01*
X18484Y23062D01*
X18484Y23069D01*
X18463Y23178D01*
X18421Y23280D01*
X18359Y23372D01*
X18281Y23451D01*
X18273Y23456D01*
X18273Y24411D01*
X17920Y24764D01*
X17899Y24743D01*
X17899Y24785D01*
X17546Y25138D01*
X17453Y25106D01*
X17399Y25009D01*
X17365Y24904D01*
X17353Y24794D01*
X17362Y24684D01*
X17392Y24577D01*
X17443Y24479D01*
X17453Y24464D01*
X17546Y24432D01*
X17899Y24785D01*
X17899Y24743D01*
X17567Y24411D01*
X17599Y24318D01*
X17696Y24264D01*
X17801Y24231D01*
X17911Y24218D01*
X18022Y24227D01*
X18128Y24258D01*
X18226Y24308D01*
X18241Y24318D01*
X18273Y24411D01*
X18273Y23456D01*
X18190Y23512D01*
X18088Y23555D01*
X17979Y23578D01*
X17869Y23578D01*
X17760Y23558D01*
X17657Y23516D01*
X17565Y23456D01*
X17486Y23378D01*
X17423Y23287D01*
X17379Y23185D01*
X17356Y23077D01*
X17355Y22966D01*
X17375Y22857D01*
X17416Y22754D01*
X17476Y22661D01*
X17552Y22582D01*
X17643Y22519D01*
X17745Y22474D01*
X17853Y22451D01*
X17963Y22448D01*
X18072Y22468D01*
X18176Y22508D01*
X18254Y22557D01*
X20206Y20606D01*
X20224Y20590D01*
X20243Y20575D01*
X20244Y20574D01*
X20245Y20573D01*
X20266Y20562D01*
X20287Y20551D01*
X20288Y20550D01*
X20290Y20549D01*
X20295Y20548D01*
X20216Y20516D01*
X20124Y20456D01*
X20045Y20378D01*
X19982Y20287D01*
X19939Y20185D01*
X19916Y20077D01*
X19914Y19966D01*
X19934Y19857D01*
X19975Y19754D01*
X20035Y19661D01*
X20112Y19582D01*
X20202Y19519D01*
X20292Y19480D01*
X18487Y19480D01*
X18487Y21777D01*
X18478Y21887D01*
X18448Y21993D01*
X18397Y22092D01*
X18387Y22106D01*
X18294Y22138D01*
X18273Y22117D01*
X18273Y22160D01*
X18241Y22253D01*
X18144Y22306D01*
X18039Y22340D01*
X17929Y22352D01*
X17818Y22343D01*
X17712Y22313D01*
X17613Y22262D01*
X17599Y22253D01*
X17567Y22160D01*
X17920Y21807D01*
X18273Y22160D01*
X18273Y22117D01*
X17941Y21785D01*
X18294Y21432D01*
X18387Y21464D01*
X18441Y21561D01*
X18474Y21667D01*
X18487Y21777D01*
X18487Y19480D01*
X18103Y19480D01*
X18176Y19508D01*
X18269Y19567D01*
X18349Y19643D01*
X18413Y19734D01*
X18458Y19835D01*
X18483Y19943D01*
X18484Y20069D01*
X18463Y20178D01*
X18421Y20280D01*
X18359Y20372D01*
X18281Y20451D01*
X18273Y20456D01*
X18273Y21411D01*
X17920Y21764D01*
X17899Y21743D01*
X17899Y21785D01*
X17546Y22138D01*
X17453Y22106D01*
X17399Y22009D01*
X17365Y21904D01*
X17353Y21794D01*
X17362Y21684D01*
X17392Y21577D01*
X17443Y21479D01*
X17453Y21464D01*
X17546Y21432D01*
X17899Y21785D01*
X17899Y21743D01*
X17567Y21411D01*
X17599Y21318D01*
X17696Y21264D01*
X17801Y21231D01*
X17911Y21218D01*
X18022Y21227D01*
X18128Y21258D01*
X18226Y21308D01*
X18241Y21318D01*
X18273Y21411D01*
X18273Y20456D01*
X18190Y20512D01*
X18088Y20555D01*
X17979Y20578D01*
X17869Y20578D01*
X17760Y20558D01*
X17657Y20516D01*
X17565Y20456D01*
X17486Y20378D01*
X17423Y20287D01*
X17379Y20185D01*
X17356Y20077D01*
X17355Y19966D01*
X17356Y19961D01*
X14773Y22543D01*
X14755Y22559D01*
X14736Y22574D01*
X14735Y22575D01*
X14734Y22576D01*
X14713Y22587D01*
X14692Y22598D01*
X14691Y22599D01*
X14689Y22600D01*
X14666Y22607D01*
X14644Y22614D01*
X14642Y22614D01*
X14641Y22614D01*
X14617Y22617D01*
X14593Y22619D01*
X14590Y22619D01*
X14590Y22619D01*
X14590Y22619D01*
X14590Y22620D01*
X13030Y22620D01*
X14235Y23824D01*
X14235Y23470D01*
X14237Y23446D01*
X14239Y23422D01*
X14239Y23420D01*
X14239Y23419D01*
X14246Y23396D01*
X14253Y23373D01*
X14254Y23372D01*
X14254Y23370D01*
X14265Y23349D01*
X14276Y23328D01*
X14277Y23327D01*
X14278Y23326D01*
X14293Y23307D01*
X14308Y23288D01*
X14310Y23286D01*
X14310Y23286D01*
X14310Y23286D01*
X14311Y23286D01*
X14379Y23217D01*
X14379Y23194D01*
X14392Y23125D01*
X14418Y23059D01*
X14456Y23000D01*
X14505Y22949D01*
X14563Y22909D01*
X14628Y22880D01*
X14697Y22865D01*
X14767Y22864D01*
X14837Y22876D01*
X14903Y22902D01*
X14962Y22939D01*
X15013Y22988D01*
X15054Y23046D01*
X15083Y23110D01*
X15098Y23179D01*
X15100Y23260D01*
X15086Y23329D01*
X15059Y23394D01*
X15020Y23453D01*
X14970Y23503D01*
X14912Y23543D01*
X14846Y23570D01*
X14777Y23584D01*
X14755Y23584D01*
X14755Y24037D01*
X16087Y25370D01*
X16860Y25370D01*
X16883Y25372D01*
X16907Y25374D01*
X16909Y25374D01*
X16910Y25374D01*
X16933Y25381D01*
X16956Y25388D01*
X16957Y25389D01*
X16959Y25389D01*
X16980Y25400D01*
X17001Y25411D01*
X17002Y25412D01*
X17003Y25413D01*
X17022Y25428D01*
X17041Y25443D01*
X17042Y25444D01*
X17062Y25444D01*
X17132Y25456D01*
X17198Y25482D01*
X17257Y25519D01*
X17308Y25568D01*
X17349Y25626D01*
X17378Y25690D01*
X17393Y25759D01*
X17395Y25840D01*
X17382Y25905D01*
X20092Y25905D01*
X20684Y25312D01*
X20598Y25340D01*
X20488Y25352D01*
X20377Y25343D01*
X20271Y25313D01*
X20173Y25262D01*
X20158Y25253D01*
X20126Y25160D01*
X20479Y24807D01*
X20485Y24812D01*
X20506Y24791D01*
X20500Y24785D01*
X20853Y24432D01*
X20946Y24464D01*
X21000Y24561D01*
X21034Y24667D01*
X21040Y24719D01*
X21040Y23480D01*
X21042Y23456D01*
X21044Y23432D01*
X21044Y23430D01*
X21044Y23429D01*
X21051Y23406D01*
X21058Y23383D01*
X21059Y23382D01*
X21059Y23380D01*
X21070Y23359D01*
X21081Y23338D01*
X21082Y23337D01*
X21083Y23336D01*
X21098Y23317D01*
X21113Y23298D01*
X21115Y23296D01*
X21115Y23296D01*
X21115Y23296D01*
X21116Y23296D01*
X23080Y21331D01*
G54D10*
G36*
X29762Y15206D02*
X29521Y12334D01*
X28727Y9565D01*
X27410Y7002D01*
X25620Y4744D01*
X23425Y2876D01*
X20910Y1470D01*
X19462Y1000D01*
X20270Y1809D01*
X20286Y1828D01*
X20302Y1847D01*
X20303Y1848D01*
X20303Y1848D01*
X20333Y1818D01*
X20424Y1755D01*
X20525Y1710D01*
X20633Y1686D01*
X20744Y1684D01*
X20853Y1703D01*
X20956Y1743D01*
X21050Y1803D01*
X21130Y1879D01*
X21194Y1969D01*
X21239Y2071D01*
X21263Y2178D01*
X21264Y2272D01*
X21290Y2255D01*
X21391Y2210D01*
X21499Y2186D01*
X21610Y2184D01*
X21719Y2203D01*
X21822Y2243D01*
X21916Y2303D01*
X21996Y2379D01*
X22060Y2469D01*
X22105Y2571D01*
X22129Y2678D01*
X22130Y2772D01*
X22156Y2755D01*
X22257Y2710D01*
X22365Y2686D01*
X22476Y2684D01*
X22585Y2703D01*
X22688Y2743D01*
X22782Y2803D01*
X22862Y2879D01*
X22926Y2969D01*
X22971Y3071D01*
X22990Y3155D01*
X22997Y3143D01*
X23024Y3112D01*
X23057Y3087D01*
X23094Y3068D01*
X23134Y3057D01*
X23175Y3055D01*
X23216Y3060D01*
X23255Y3073D01*
X23290Y3093D01*
X23905Y3448D01*
X23936Y3475D01*
X23962Y3508D01*
X23980Y3545D01*
X23991Y3585D01*
X23993Y3626D01*
X23988Y3667D01*
X23975Y3706D01*
X23955Y3741D01*
X23600Y4356D01*
X23573Y4387D01*
X23540Y4412D01*
X23503Y4431D01*
X23463Y4442D01*
X23422Y4444D01*
X23381Y4439D01*
X23342Y4426D01*
X23307Y4406D01*
X22966Y4210D01*
X21570Y4210D01*
X21545Y4207D01*
X21520Y4205D01*
X21518Y4204D01*
X21517Y4204D01*
X21493Y4197D01*
X21469Y4190D01*
X21468Y4190D01*
X21467Y4189D01*
X21445Y4177D01*
X21422Y4166D01*
X21421Y4165D01*
X21420Y4164D01*
X21401Y4149D01*
X21381Y4133D01*
X21379Y4131D01*
X21379Y4131D01*
X21379Y4131D01*
X21379Y4130D01*
X20738Y3490D01*
X20730Y3490D01*
X20705Y3487D01*
X20680Y3485D01*
X20678Y3484D01*
X20677Y3484D01*
X20653Y3477D01*
X20629Y3470D01*
X20628Y3470D01*
X20627Y3469D01*
X20605Y3457D01*
X20582Y3446D01*
X20581Y3445D01*
X20580Y3444D01*
X20561Y3429D01*
X20541Y3413D01*
X20539Y3411D01*
X20539Y3411D01*
X20539Y3411D01*
X20539Y3410D01*
X19936Y2808D01*
X19932Y2805D01*
X19931Y2805D01*
X19930Y2804D01*
X19910Y2788D01*
X19891Y2772D01*
X19890Y2772D01*
X19889Y2771D01*
X19873Y2751D01*
X19857Y2732D01*
X19856Y2731D01*
X19856Y2730D01*
X19844Y2708D01*
X19831Y2686D01*
X19831Y2685D01*
X19831Y2684D01*
X19823Y2660D01*
X19815Y2636D01*
X19815Y2635D01*
X19815Y2634D01*
X19812Y2609D01*
X19810Y2583D01*
X19810Y2581D01*
X19810Y2581D01*
X19810Y2581D01*
X19810Y2580D01*
X19810Y2111D01*
X18968Y1270D01*
X17064Y1270D01*
X17064Y1374D01*
X17056Y1415D01*
X17040Y1453D01*
X17017Y1487D01*
X16988Y1516D01*
X16954Y1539D01*
X16916Y1555D01*
X16876Y1564D01*
X16835Y1564D01*
X16447Y1564D01*
X15460Y2550D01*
X15441Y2566D01*
X15422Y2582D01*
X15421Y2583D01*
X15420Y2584D01*
X15398Y2596D01*
X15376Y2608D01*
X15375Y2608D01*
X15373Y2609D01*
X15349Y2616D01*
X15326Y2624D01*
X15324Y2624D01*
X15323Y2624D01*
X15298Y2627D01*
X15273Y2629D01*
X15270Y2629D01*
X15270Y2629D01*
X15270Y2629D01*
X15270Y2630D01*
X14461Y2630D01*
X14190Y2900D01*
X14171Y2916D01*
X14152Y2932D01*
X14151Y2933D01*
X14150Y2934D01*
X14128Y2946D01*
X14106Y2958D01*
X14105Y2958D01*
X14103Y2959D01*
X14079Y2966D01*
X14056Y2974D01*
X14054Y2974D01*
X14053Y2974D01*
X14028Y2977D01*
X14003Y2979D01*
X14000Y2979D01*
X14000Y2979D01*
X14000Y2979D01*
X14000Y2980D01*
X13790Y2980D01*
X13765Y2977D01*
X13740Y2975D01*
X13738Y2974D01*
X13737Y2974D01*
X13713Y2967D01*
X13689Y2960D01*
X13688Y2960D01*
X13687Y2959D01*
X13665Y2947D01*
X13642Y2936D01*
X13641Y2935D01*
X13640Y2934D01*
X13621Y2919D01*
X13601Y2903D01*
X13599Y2901D01*
X13599Y2901D01*
X13599Y2901D01*
X13599Y2900D01*
X12158Y1460D01*
X11790Y1460D01*
X10611Y1460D01*
X9947Y2124D01*
X9975Y2172D01*
X9988Y2211D01*
X9993Y2252D01*
X9991Y2293D01*
X9980Y2333D01*
X9962Y2370D01*
X9937Y2403D01*
X9907Y2430D01*
X9871Y2451D01*
X9256Y2806D01*
X9217Y2819D01*
X9176Y2824D01*
X9135Y2822D01*
X9095Y2811D01*
X9058Y2793D01*
X9025Y2768D01*
X8998Y2738D01*
X8989Y2723D01*
X8975Y2793D01*
X8933Y2896D01*
X8872Y2988D01*
X8794Y3066D01*
X8702Y3128D01*
X8693Y3132D01*
X8693Y3395D01*
X9787Y4490D01*
X10650Y4490D01*
X10673Y4492D01*
X10697Y4494D01*
X10699Y4494D01*
X10700Y4494D01*
X10723Y4501D01*
X10746Y4508D01*
X10747Y4509D01*
X10749Y4509D01*
X10770Y4520D01*
X10791Y4531D01*
X10792Y4532D01*
X10793Y4533D01*
X10812Y4548D01*
X10831Y4563D01*
X10833Y4565D01*
X10833Y4565D01*
X10833Y4565D01*
X10833Y4566D01*
X10957Y4689D01*
X10977Y4689D01*
X11047Y4701D01*
X11113Y4727D01*
X11172Y4764D01*
X11223Y4813D01*
X11264Y4871D01*
X11293Y4935D01*
X11308Y5004D01*
X11310Y5085D01*
X11303Y5119D01*
X11323Y5127D01*
X11382Y5164D01*
X11433Y5213D01*
X11474Y5271D01*
X11503Y5335D01*
X11518Y5404D01*
X11520Y5485D01*
X11516Y5501D01*
X11517Y5501D01*
X11583Y5527D01*
X11642Y5564D01*
X11693Y5613D01*
X11734Y5671D01*
X11763Y5735D01*
X11778Y5804D01*
X11780Y5885D01*
X11766Y5954D01*
X11739Y6019D01*
X11700Y6078D01*
X11650Y6128D01*
X11592Y6168D01*
X11526Y6195D01*
X11457Y6209D01*
X11387Y6210D01*
X11317Y6197D01*
X11252Y6170D01*
X11193Y6131D01*
X11142Y6082D01*
X11141Y6080D01*
X10740Y6080D01*
X10716Y6077D01*
X10692Y6075D01*
X10690Y6075D01*
X10689Y6075D01*
X10666Y6068D01*
X10643Y6061D01*
X10642Y6060D01*
X10640Y6060D01*
X10619Y6049D01*
X10598Y6038D01*
X10597Y6037D01*
X10596Y6036D01*
X10577Y6021D01*
X10558Y6006D01*
X10556Y6004D01*
X10556Y6004D01*
X10556Y6004D01*
X10556Y6003D01*
X10192Y5640D01*
X9480Y5640D01*
X9456Y5637D01*
X9432Y5635D01*
X9430Y5635D01*
X9429Y5635D01*
X9406Y5628D01*
X9383Y5621D01*
X9382Y5620D01*
X9380Y5620D01*
X9359Y5609D01*
X9338Y5598D01*
X9337Y5597D01*
X9336Y5596D01*
X9317Y5581D01*
X9298Y5566D01*
X9296Y5564D01*
X9296Y5564D01*
X9296Y5564D01*
X9296Y5563D01*
X7832Y4100D01*
X7030Y4100D01*
X7015Y4098D01*
X6970Y4128D01*
X6868Y4171D01*
X6760Y4193D01*
X6649Y4194D01*
X6540Y4173D01*
X6438Y4132D01*
X6345Y4071D01*
X6266Y3994D01*
X6204Y3903D01*
X6160Y3801D01*
X6137Y3693D01*
X6135Y3582D01*
X6155Y3473D01*
X6196Y3370D01*
X6256Y3277D01*
X6333Y3198D01*
X6424Y3135D01*
X6525Y3090D01*
X6633Y3066D01*
X6744Y3064D01*
X6853Y3083D01*
X6956Y3123D01*
X7002Y3153D01*
X7001Y3082D01*
X7021Y2973D01*
X7062Y2870D01*
X7122Y2777D01*
X7199Y2698D01*
X7290Y2635D01*
X7391Y2590D01*
X7499Y2566D01*
X7610Y2564D01*
X7719Y2583D01*
X7822Y2623D01*
X7868Y2653D01*
X7867Y2582D01*
X7887Y2473D01*
X7928Y2370D01*
X7988Y2277D01*
X8065Y2198D01*
X8156Y2135D01*
X8257Y2090D01*
X8365Y2066D01*
X8476Y2064D01*
X8585Y2083D01*
X8630Y2101D01*
X8622Y2087D01*
X8609Y2048D01*
X8604Y2007D01*
X8606Y1966D01*
X8617Y1926D01*
X8635Y1889D01*
X8660Y1856D01*
X8690Y1829D01*
X8726Y1808D01*
X9341Y1453D01*
X9380Y1440D01*
X9421Y1435D01*
X9462Y1437D01*
X9502Y1448D01*
X9539Y1466D01*
X9572Y1491D01*
X9599Y1521D01*
X9620Y1557D01*
X9668Y1640D01*
X10232Y1075D01*
X9661Y1235D01*
X7089Y2534D01*
X4818Y4308D01*
X2935Y6489D01*
X1512Y8994D01*
X804Y11124D01*
X806Y11121D01*
X808Y11119D01*
X808Y11119D01*
X808Y11119D01*
X809Y11119D01*
X1859Y10069D01*
X1859Y10069D01*
X2066Y9861D01*
X1969Y9843D01*
X1867Y9801D01*
X1774Y9740D01*
X1695Y9663D01*
X1633Y9572D01*
X1589Y9470D01*
X1566Y9362D01*
X1564Y9251D01*
X1584Y9142D01*
X1625Y9039D01*
X1685Y8946D01*
X1762Y8867D01*
X1853Y8804D01*
X1954Y8759D01*
X2062Y8735D01*
X2152Y8734D01*
X2133Y8706D01*
X2089Y8604D01*
X2066Y8496D01*
X2064Y8385D01*
X2084Y8276D01*
X2125Y8173D01*
X2185Y8080D01*
X2262Y8001D01*
X2353Y7938D01*
X2454Y7893D01*
X2562Y7869D01*
X2652Y7868D01*
X2633Y7840D01*
X2589Y7738D01*
X2566Y7630D01*
X2564Y7519D01*
X2584Y7410D01*
X2625Y7307D01*
X2685Y7214D01*
X2762Y7135D01*
X2853Y7071D01*
X2954Y7027D01*
X3036Y7009D01*
X3023Y7002D01*
X2992Y6975D01*
X2967Y6942D01*
X2948Y6905D01*
X2937Y6865D01*
X2935Y6824D01*
X2940Y6783D01*
X2953Y6744D01*
X2973Y6709D01*
X3328Y6094D01*
X3355Y6063D01*
X3388Y6037D01*
X3425Y6019D01*
X3465Y6008D01*
X3506Y6006D01*
X3547Y6011D01*
X3586Y6024D01*
X3621Y6044D01*
X4236Y6399D01*
X4267Y6426D01*
X4292Y6459D01*
X4311Y6496D01*
X4322Y6536D01*
X4324Y6577D01*
X4319Y6618D01*
X4306Y6657D01*
X4296Y6674D01*
X4750Y7129D01*
X4766Y7148D01*
X4782Y7167D01*
X4783Y7168D01*
X4784Y7169D01*
X4796Y7191D01*
X4808Y7213D01*
X4808Y7214D01*
X4809Y7216D01*
X4816Y7240D01*
X4824Y7263D01*
X4824Y7265D01*
X4824Y7266D01*
X4827Y7291D01*
X4829Y7316D01*
X4829Y7319D01*
X4829Y7319D01*
X4829Y7319D01*
X4830Y7320D01*
X4830Y8140D01*
X4827Y8164D01*
X4825Y8189D01*
X4824Y8191D01*
X4824Y8192D01*
X4817Y8216D01*
X4810Y8240D01*
X4810Y8241D01*
X4809Y8242D01*
X4797Y8264D01*
X4786Y8287D01*
X4785Y8288D01*
X4784Y8289D01*
X4769Y8308D01*
X4753Y8328D01*
X4751Y8330D01*
X4751Y8330D01*
X4751Y8330D01*
X4750Y8330D01*
X2930Y10150D01*
X2911Y10166D01*
X2892Y10182D01*
X2891Y10183D01*
X2890Y10184D01*
X2868Y10196D01*
X2846Y10208D01*
X2845Y10208D01*
X2843Y10209D01*
X2819Y10216D01*
X2796Y10224D01*
X2794Y10224D01*
X2793Y10224D01*
X2768Y10227D01*
X2743Y10229D01*
X2740Y10229D01*
X2740Y10229D01*
X2740Y10229D01*
X2740Y10230D01*
X2461Y10230D01*
X2240Y10450D01*
X2240Y10450D01*
X1270Y11421D01*
X1270Y12935D01*
X1374Y12935D01*
X1415Y12943D01*
X1453Y12959D01*
X1487Y12982D01*
X1516Y13011D01*
X1539Y13045D01*
X1555Y13083D01*
X1564Y13123D01*
X1564Y13164D01*
X1564Y13682D01*
X1995Y14114D01*
X2011Y14133D01*
X2027Y14152D01*
X2028Y14153D01*
X2029Y14154D01*
X2041Y14176D01*
X2053Y14198D01*
X2053Y14199D01*
X2054Y14201D01*
X2061Y14225D01*
X2069Y14248D01*
X2069Y14250D01*
X2069Y14251D01*
X2072Y14276D01*
X2074Y14301D01*
X2074Y14304D01*
X2074Y14304D01*
X2074Y14304D01*
X2075Y14305D01*
X2075Y14883D01*
X2421Y15230D01*
X3202Y15230D01*
X3255Y15147D01*
X3332Y15068D01*
X3423Y15005D01*
X3433Y15000D01*
X3344Y14941D01*
X3265Y14864D01*
X3203Y14773D01*
X3194Y14753D01*
X3176Y14748D01*
X3153Y14741D01*
X3152Y14740D01*
X3150Y14740D01*
X3129Y14729D01*
X3108Y14718D01*
X3107Y14717D01*
X3106Y14716D01*
X3087Y14701D01*
X3068Y14686D01*
X3066Y14684D01*
X3066Y14684D01*
X3066Y14684D01*
X3066Y14683D01*
X2766Y14383D01*
X2750Y14365D01*
X2735Y14346D01*
X2734Y14345D01*
X2733Y14344D01*
X2722Y14323D01*
X2711Y14302D01*
X2710Y14301D01*
X2709Y14299D01*
X2702Y14276D01*
X2695Y14254D01*
X2695Y14252D01*
X2695Y14251D01*
X2692Y14227D01*
X2690Y14203D01*
X2690Y14200D01*
X2690Y14200D01*
X2690Y14200D01*
X2690Y14200D01*
X2690Y12950D01*
X2692Y12926D01*
X2694Y12902D01*
X2694Y12900D01*
X2694Y12899D01*
X2701Y12876D01*
X2708Y12853D01*
X2709Y12852D01*
X2709Y12850D01*
X2720Y12829D01*
X2731Y12808D01*
X2732Y12807D01*
X2733Y12806D01*
X2748Y12787D01*
X2763Y12768D01*
X2765Y12766D01*
X2765Y12766D01*
X2765Y12766D01*
X2766Y12766D01*
X2896Y12636D01*
X2914Y12620D01*
X2933Y12605D01*
X2934Y12604D01*
X2935Y12603D01*
X2956Y12592D01*
X2977Y12581D01*
X2978Y12580D01*
X2980Y12579D01*
X3003Y12572D01*
X3025Y12565D01*
X3027Y12565D01*
X3028Y12565D01*
X3052Y12562D01*
X3076Y12560D01*
X3079Y12560D01*
X3079Y12560D01*
X3079Y12560D01*
X3080Y12560D01*
X4160Y12560D01*
X4183Y12562D01*
X4207Y12564D01*
X4209Y12564D01*
X4210Y12564D01*
X4233Y12571D01*
X4256Y12578D01*
X4257Y12579D01*
X4259Y12579D01*
X4280Y12590D01*
X4301Y12601D01*
X4302Y12602D01*
X4303Y12603D01*
X4322Y12618D01*
X4341Y12633D01*
X4343Y12635D01*
X4343Y12635D01*
X4343Y12635D01*
X4343Y12636D01*
X4637Y12930D01*
X5230Y12930D01*
X5209Y12919D01*
X5188Y12908D01*
X5187Y12907D01*
X5186Y12906D01*
X5167Y12891D01*
X5148Y12876D01*
X5146Y12874D01*
X5146Y12874D01*
X5146Y12874D01*
X5146Y12873D01*
X3806Y11533D01*
X3790Y11515D01*
X3775Y11496D01*
X3774Y11495D01*
X3773Y11494D01*
X3762Y11473D01*
X3751Y11452D01*
X3750Y11451D01*
X3749Y11449D01*
X3742Y11426D01*
X3735Y11404D01*
X3735Y11402D01*
X3735Y11401D01*
X3732Y11377D01*
X3730Y11353D01*
X3730Y11350D01*
X3730Y11350D01*
X3730Y11350D01*
X3730Y11350D01*
X3730Y9710D01*
X3732Y9686D01*
X3734Y9662D01*
X3734Y9660D01*
X3734Y9659D01*
X3741Y9636D01*
X3748Y9613D01*
X3749Y9612D01*
X3749Y9610D01*
X3760Y9589D01*
X3771Y9568D01*
X3772Y9567D01*
X3773Y9566D01*
X3788Y9547D01*
X3803Y9528D01*
X3805Y9526D01*
X3805Y9526D01*
X3805Y9526D01*
X3806Y9526D01*
X4906Y8426D01*
X4924Y8410D01*
X4943Y8395D01*
X4944Y8394D01*
X4945Y8393D01*
X4966Y8382D01*
X4987Y8371D01*
X4988Y8370D01*
X4990Y8369D01*
X5013Y8362D01*
X5035Y8355D01*
X5037Y8355D01*
X5038Y8355D01*
X5062Y8352D01*
X5086Y8350D01*
X5089Y8350D01*
X5089Y8350D01*
X5089Y8350D01*
X5090Y8350D01*
X10682Y8350D01*
X13010Y6022D01*
X13010Y5460D01*
X13010Y4980D01*
X13012Y4956D01*
X13014Y4932D01*
X13014Y4930D01*
X13014Y4929D01*
X13021Y4906D01*
X13028Y4883D01*
X13029Y4882D01*
X13029Y4880D01*
X13040Y4859D01*
X13051Y4838D01*
X13052Y4837D01*
X13053Y4836D01*
X13068Y4817D01*
X13083Y4798D01*
X13085Y4796D01*
X13085Y4796D01*
X13085Y4796D01*
X13086Y4796D01*
X14686Y3196D01*
X14704Y3180D01*
X14723Y3165D01*
X14724Y3164D01*
X14725Y3163D01*
X14746Y3152D01*
X14767Y3141D01*
X14768Y3140D01*
X14770Y3139D01*
X14793Y3132D01*
X14815Y3125D01*
X14817Y3125D01*
X14818Y3125D01*
X14842Y3122D01*
X14866Y3120D01*
X14869Y3120D01*
X14869Y3120D01*
X14869Y3120D01*
X14870Y3120D01*
X19510Y3120D01*
X19533Y3122D01*
X19557Y3124D01*
X19559Y3124D01*
X19560Y3124D01*
X19583Y3131D01*
X19606Y3138D01*
X19607Y3139D01*
X19609Y3139D01*
X19630Y3150D01*
X19651Y3161D01*
X19652Y3162D01*
X19653Y3163D01*
X19672Y3178D01*
X19691Y3193D01*
X19693Y3195D01*
X19693Y3195D01*
X19693Y3195D01*
X19693Y3196D01*
X22167Y5670D01*
X23850Y5670D01*
X23865Y5654D01*
X23923Y5614D01*
X23988Y5585D01*
X24057Y5570D01*
X24127Y5569D01*
X24197Y5581D01*
X24263Y5607D01*
X24322Y5644D01*
X24373Y5693D01*
X24414Y5751D01*
X24443Y5815D01*
X24458Y5884D01*
X24460Y5965D01*
X24449Y6020D01*
X24600Y6020D01*
X24615Y6004D01*
X24673Y5964D01*
X24738Y5935D01*
X24807Y5920D01*
X24877Y5919D01*
X24947Y5931D01*
X25013Y5957D01*
X25072Y5994D01*
X25123Y6043D01*
X25164Y6101D01*
X25193Y6165D01*
X25208Y6234D01*
X25210Y6315D01*
X25196Y6384D01*
X25173Y6440D01*
X25866Y6440D01*
X25925Y6348D01*
X26002Y6269D01*
X26093Y6205D01*
X26194Y6161D01*
X26302Y6137D01*
X26413Y6135D01*
X26522Y6154D01*
X26625Y6194D01*
X26719Y6254D01*
X26799Y6330D01*
X26863Y6420D01*
X26908Y6521D01*
X26932Y6629D01*
X26934Y6756D01*
X26912Y6864D01*
X26870Y6967D01*
X26846Y7002D01*
X26913Y7001D01*
X27022Y7020D01*
X27125Y7060D01*
X27219Y7120D01*
X27299Y7196D01*
X27363Y7286D01*
X27408Y7387D01*
X27432Y7495D01*
X27434Y7622D01*
X27412Y7730D01*
X27370Y7833D01*
X27346Y7869D01*
X27413Y7867D01*
X27522Y7886D01*
X27625Y7926D01*
X27719Y7986D01*
X27799Y8062D01*
X27863Y8152D01*
X27908Y8254D01*
X27932Y8361D01*
X27934Y8488D01*
X27912Y8596D01*
X27898Y8630D01*
X27912Y8622D01*
X27951Y8609D01*
X27992Y8604D01*
X28033Y8606D01*
X28073Y8617D01*
X28110Y8635D01*
X28143Y8660D01*
X28170Y8690D01*
X28191Y8726D01*
X28546Y9341D01*
X28559Y9380D01*
X28564Y9421D01*
X28562Y9462D01*
X28551Y9502D01*
X28533Y9539D01*
X28508Y9572D01*
X28478Y9599D01*
X28442Y9620D01*
X28140Y9794D01*
X28140Y16018D01*
X28351Y16230D01*
X28435Y16230D01*
X28435Y16125D01*
X28443Y16084D01*
X28459Y16046D01*
X28482Y16012D01*
X28511Y15983D01*
X28545Y15960D01*
X28583Y15944D01*
X28623Y15935D01*
X28638Y15935D01*
X28565Y15864D01*
X28503Y15773D01*
X28459Y15671D01*
X28436Y15563D01*
X28434Y15452D01*
X28454Y15343D01*
X28495Y15240D01*
X28555Y15147D01*
X28632Y15068D01*
X28723Y15005D01*
X28733Y15000D01*
X28644Y14941D01*
X28565Y14864D01*
X28503Y14773D01*
X28459Y14671D01*
X28436Y14563D01*
X28434Y14452D01*
X28454Y14343D01*
X28495Y14240D01*
X28555Y14147D01*
X28632Y14068D01*
X28723Y14005D01*
X28733Y14000D01*
X28644Y13941D01*
X28565Y13864D01*
X28503Y13773D01*
X28459Y13671D01*
X28436Y13563D01*
X28434Y13452D01*
X28454Y13343D01*
X28495Y13240D01*
X28555Y13147D01*
X28632Y13068D01*
X28723Y13005D01*
X28824Y12960D01*
X28932Y12936D01*
X29043Y12934D01*
X29152Y12953D01*
X29255Y12993D01*
X29349Y13053D01*
X29429Y13129D01*
X29493Y13219D01*
X29538Y13321D01*
X29562Y13428D01*
X29564Y13555D01*
X29542Y13663D01*
X29500Y13766D01*
X29439Y13858D01*
X29361Y13936D01*
X29269Y13998D01*
X29265Y14000D01*
X29349Y14053D01*
X29429Y14129D01*
X29493Y14219D01*
X29538Y14321D01*
X29562Y14428D01*
X29564Y14555D01*
X29542Y14663D01*
X29500Y14766D01*
X29439Y14858D01*
X29361Y14936D01*
X29269Y14998D01*
X29265Y15000D01*
X29349Y15053D01*
X29429Y15129D01*
X29493Y15219D01*
X29538Y15321D01*
X29562Y15428D01*
X29564Y15555D01*
X29542Y15663D01*
X29500Y15766D01*
X29439Y15858D01*
X29362Y15935D01*
X29374Y15935D01*
X29415Y15943D01*
X29453Y15959D01*
X29487Y15982D01*
X29516Y16011D01*
X29539Y16045D01*
X29555Y16083D01*
X29564Y16123D01*
X29564Y16164D01*
X29564Y16874D01*
X29556Y16915D01*
X29540Y16953D01*
X29517Y16987D01*
X29488Y17016D01*
X29454Y17039D01*
X29416Y17055D01*
X29376Y17064D01*
X29335Y17064D01*
X28625Y17064D01*
X28584Y17056D01*
X28546Y17040D01*
X28512Y17017D01*
X28483Y16988D01*
X28460Y16954D01*
X28444Y16916D01*
X28435Y16876D01*
X28435Y16835D01*
X28435Y16770D01*
X28240Y16770D01*
X28215Y16767D01*
X28190Y16765D01*
X28188Y16764D01*
X28187Y16764D01*
X28163Y16757D01*
X28139Y16750D01*
X28138Y16750D01*
X28137Y16749D01*
X28115Y16737D01*
X28092Y16726D01*
X28091Y16725D01*
X28090Y16724D01*
X28071Y16709D01*
X28051Y16693D01*
X28049Y16691D01*
X28049Y16691D01*
X28049Y16691D01*
X28049Y16690D01*
X27679Y16320D01*
X27663Y16301D01*
X27647Y16282D01*
X27646Y16281D01*
X27645Y16280D01*
X27633Y16258D01*
X27621Y16236D01*
X27621Y16235D01*
X27620Y16233D01*
X27613Y16209D01*
X27605Y16186D01*
X27605Y16184D01*
X27605Y16183D01*
X27602Y16158D01*
X27600Y16133D01*
X27600Y16130D01*
X27600Y16130D01*
X27600Y16130D01*
X27600Y16130D01*
X27600Y9940D01*
X27596Y9937D01*
X27569Y9907D01*
X27548Y9871D01*
X27193Y9256D01*
X27180Y9217D01*
X27175Y9176D01*
X27177Y9135D01*
X27188Y9095D01*
X27206Y9058D01*
X27231Y9025D01*
X27261Y8998D01*
X27276Y8989D01*
X27209Y8977D01*
X27107Y8935D01*
X27014Y8874D01*
X26935Y8797D01*
X26873Y8706D01*
X26829Y8604D01*
X26806Y8496D01*
X26804Y8385D01*
X26824Y8276D01*
X26865Y8173D01*
X26893Y8131D01*
X26818Y8131D01*
X26709Y8110D01*
X26607Y8069D01*
X26514Y8008D01*
X26435Y7931D01*
X26373Y7840D01*
X26329Y7738D01*
X26306Y7630D01*
X26304Y7519D01*
X26324Y7410D01*
X26365Y7307D01*
X26393Y7265D01*
X26318Y7265D01*
X26209Y7244D01*
X26107Y7203D01*
X26014Y7142D01*
X25935Y7065D01*
X25873Y6974D01*
X25867Y6960D01*
X22940Y6960D01*
X22346Y6960D01*
X22346Y8505D01*
X22343Y8537D01*
X22343Y10341D01*
X22322Y10449D01*
X22280Y10552D01*
X22218Y10644D01*
X22140Y10722D01*
X22049Y10784D01*
X21947Y10827D01*
X21838Y10849D01*
X21728Y10850D01*
X21619Y10829D01*
X21516Y10788D01*
X21424Y10727D01*
X21345Y10650D01*
X21282Y10559D01*
X21239Y10457D01*
X21216Y10349D01*
X21214Y10238D01*
X21234Y10129D01*
X21275Y10026D01*
X21335Y9933D01*
X21412Y9853D01*
X21502Y9790D01*
X21604Y9746D01*
X21712Y9722D01*
X21823Y9720D01*
X21932Y9739D01*
X22035Y9779D01*
X22128Y9838D01*
X22208Y9915D01*
X22272Y10005D01*
X22317Y10106D01*
X22342Y10214D01*
X22343Y10341D01*
X22343Y8537D01*
X22337Y8615D01*
X22307Y8722D01*
X22256Y8820D01*
X22246Y8835D01*
X22153Y8867D01*
X22132Y8846D01*
X22132Y8888D01*
X22100Y8981D01*
X22003Y9035D01*
X21898Y9068D01*
X21788Y9081D01*
X21677Y9072D01*
X21571Y9041D01*
X21473Y8991D01*
X21458Y8981D01*
X21426Y8888D01*
X21779Y8535D01*
X22132Y8888D01*
X22132Y8846D01*
X21800Y8514D01*
X22153Y8161D01*
X22246Y8193D01*
X22300Y8290D01*
X22334Y8395D01*
X22346Y8505D01*
X22346Y6960D01*
X22180Y6960D01*
X22157Y6958D01*
X22133Y6956D01*
X22132Y6956D01*
X22132Y8139D01*
X21779Y8492D01*
X21758Y8471D01*
X21758Y8514D01*
X21405Y8867D01*
X21312Y8835D01*
X21258Y8738D01*
X21225Y8632D01*
X21212Y8522D01*
X21221Y8412D01*
X21251Y8306D01*
X21302Y8207D01*
X21312Y8193D01*
X21405Y8161D01*
X21758Y8514D01*
X21758Y8471D01*
X21426Y8139D01*
X21458Y8046D01*
X21555Y7993D01*
X21660Y7959D01*
X21770Y7947D01*
X21881Y7956D01*
X21987Y7986D01*
X22086Y8037D01*
X22100Y8046D01*
X22132Y8139D01*
X22132Y6956D01*
X22131Y6956D01*
X22130Y6956D01*
X22107Y6949D01*
X22084Y6942D01*
X22083Y6941D01*
X22081Y6941D01*
X22060Y6930D01*
X22039Y6919D01*
X22038Y6918D01*
X22037Y6917D01*
X22018Y6902D01*
X21999Y6887D01*
X21997Y6885D01*
X21997Y6885D01*
X21997Y6885D01*
X21997Y6884D01*
X19787Y4675D01*
X19787Y8505D01*
X19778Y8615D01*
X19748Y8722D01*
X19697Y8820D01*
X19687Y8835D01*
X19594Y8867D01*
X19573Y8846D01*
X19573Y8888D01*
X19541Y8981D01*
X19444Y9035D01*
X19339Y9068D01*
X19229Y9081D01*
X19118Y9072D01*
X19012Y9041D01*
X18913Y8991D01*
X18899Y8981D01*
X18867Y8888D01*
X19220Y8535D01*
X19573Y8888D01*
X19573Y8846D01*
X19241Y8514D01*
X19594Y8161D01*
X19687Y8193D01*
X19741Y8290D01*
X19774Y8395D01*
X19787Y8505D01*
X19787Y4675D01*
X19573Y4461D01*
X19573Y8139D01*
X19220Y8492D01*
X19199Y8471D01*
X19199Y8514D01*
X18846Y8867D01*
X18753Y8835D01*
X18699Y8738D01*
X18665Y8632D01*
X18653Y8522D01*
X18662Y8412D01*
X18692Y8306D01*
X18743Y8207D01*
X18753Y8193D01*
X18846Y8161D01*
X19199Y8514D01*
X19199Y8471D01*
X18867Y8139D01*
X18899Y8046D01*
X18996Y7993D01*
X19101Y7959D01*
X19211Y7947D01*
X19322Y7956D01*
X19428Y7986D01*
X19526Y8037D01*
X19541Y8046D01*
X19573Y8139D01*
X19573Y4461D01*
X19182Y4070D01*
X17902Y4070D01*
X17902Y6570D01*
X17875Y6709D01*
X17821Y6840D01*
X17743Y6958D01*
X17643Y7058D01*
X17526Y7138D01*
X17395Y7192D01*
X17256Y7221D01*
X17115Y7222D01*
X16976Y7195D01*
X16845Y7142D01*
X16726Y7065D01*
X16625Y6966D01*
X16545Y6849D01*
X16489Y6719D01*
X16460Y6580D01*
X16458Y6439D01*
X16483Y6300D01*
X16536Y6168D01*
X16612Y6049D01*
X16711Y5947D01*
X16827Y5866D01*
X16956Y5810D01*
X17095Y5779D01*
X17236Y5776D01*
X17376Y5801D01*
X17508Y5852D01*
X17627Y5928D01*
X17730Y6026D01*
X17811Y6141D01*
X17869Y6271D01*
X17900Y6409D01*
X17902Y6570D01*
X17902Y4070D01*
X16725Y4070D01*
X16725Y4634D01*
X16714Y4775D01*
X16676Y4911D01*
X16612Y5038D01*
X16595Y5063D01*
X16486Y5114D01*
X16465Y5093D01*
X16465Y5135D01*
X16414Y5245D01*
X16290Y5314D01*
X16155Y5357D01*
X16015Y5374D01*
X15874Y5363D01*
X15737Y5325D01*
X15611Y5262D01*
X15585Y5245D01*
X15544Y5155D01*
X15544Y6484D01*
X15533Y6625D01*
X15495Y6762D01*
X15431Y6888D01*
X15414Y6914D01*
X15305Y6965D01*
X15283Y6943D01*
X15283Y6986D01*
X15232Y7095D01*
X15109Y7164D01*
X14974Y7208D01*
X14834Y7225D01*
X14693Y7214D01*
X14556Y7176D01*
X14430Y7112D01*
X14404Y7095D01*
X14353Y6986D01*
X14818Y6521D01*
X15283Y6986D01*
X15283Y6943D01*
X14840Y6500D01*
X15305Y6034D01*
X15414Y6085D01*
X15483Y6209D01*
X15527Y6344D01*
X15544Y6484D01*
X15544Y5155D01*
X15534Y5135D01*
X16000Y4670D01*
X16465Y5135D01*
X16465Y5093D01*
X16021Y4649D01*
X16486Y4184D01*
X16595Y4235D01*
X16664Y4359D01*
X16708Y4493D01*
X16725Y4634D01*
X16725Y4070D01*
X16421Y4070D01*
X16465Y4163D01*
X16000Y4628D01*
X15978Y4607D01*
X15978Y4649D01*
X15513Y5114D01*
X15404Y5063D01*
X15335Y4940D01*
X15291Y4805D01*
X15283Y4740D01*
X15283Y6013D01*
X14818Y6478D01*
X14797Y6457D01*
X14797Y6500D01*
X14332Y6965D01*
X14223Y6914D01*
X14154Y6790D01*
X14110Y6655D01*
X14093Y6515D01*
X14104Y6374D01*
X14142Y6237D01*
X14206Y6111D01*
X14223Y6085D01*
X14332Y6034D01*
X14797Y6500D01*
X14797Y6457D01*
X14353Y6013D01*
X14404Y5904D01*
X14528Y5835D01*
X14662Y5791D01*
X14803Y5774D01*
X14944Y5785D01*
X15081Y5823D01*
X15207Y5887D01*
X15232Y5904D01*
X15283Y6013D01*
X15283Y4740D01*
X15274Y4664D01*
X15285Y4523D01*
X15323Y4387D01*
X15387Y4261D01*
X15404Y4235D01*
X15513Y4184D01*
X15978Y4649D01*
X15978Y4607D01*
X15534Y4163D01*
X15578Y4070D01*
X15187Y4070D01*
X13950Y5307D01*
X13950Y5400D01*
X13950Y6330D01*
X13947Y6353D01*
X13945Y6377D01*
X13945Y6379D01*
X13945Y6380D01*
X13938Y6403D01*
X13931Y6426D01*
X13930Y6427D01*
X13930Y6429D01*
X13919Y6450D01*
X13908Y6471D01*
X13907Y6472D01*
X13906Y6473D01*
X13891Y6492D01*
X13876Y6511D01*
X13874Y6513D01*
X13874Y6513D01*
X13874Y6513D01*
X13873Y6513D01*
X11173Y9213D01*
X11155Y9229D01*
X11136Y9244D01*
X11135Y9245D01*
X11134Y9246D01*
X11113Y9257D01*
X11092Y9268D01*
X11091Y9269D01*
X11089Y9270D01*
X11066Y9277D01*
X11044Y9284D01*
X11042Y9284D01*
X11041Y9284D01*
X11017Y9287D01*
X10993Y9289D01*
X10990Y9289D01*
X10990Y9289D01*
X10990Y9289D01*
X10990Y9290D01*
X6687Y9290D01*
X6837Y9440D01*
X10250Y9440D01*
X10273Y9442D01*
X10297Y9444D01*
X10299Y9444D01*
X10300Y9444D01*
X10323Y9451D01*
X10346Y9458D01*
X10347Y9459D01*
X10349Y9459D01*
X10370Y9470D01*
X10391Y9481D01*
X10392Y9482D01*
X10393Y9483D01*
X10412Y9498D01*
X10431Y9513D01*
X10433Y9515D01*
X10433Y9515D01*
X10433Y9515D01*
X10433Y9516D01*
X12133Y11216D01*
X12149Y11234D01*
X12164Y11253D01*
X12165Y11254D01*
X12166Y11255D01*
X12177Y11276D01*
X12188Y11297D01*
X12189Y11298D01*
X12190Y11300D01*
X12197Y11323D01*
X12204Y11345D01*
X12204Y11347D01*
X12204Y11348D01*
X12207Y11372D01*
X12209Y11396D01*
X12209Y11399D01*
X12209Y11399D01*
X12209Y11399D01*
X12210Y11400D01*
X12210Y11820D01*
X12223Y11833D01*
X12264Y11891D01*
X12293Y11955D01*
X12308Y12024D01*
X12310Y12105D01*
X12296Y12174D01*
X12269Y12239D01*
X12230Y12298D01*
X12180Y12348D01*
X12122Y12388D01*
X12056Y12415D01*
X11987Y12429D01*
X11917Y12430D01*
X11847Y12417D01*
X11782Y12390D01*
X11723Y12351D01*
X11679Y12309D01*
X11616Y12335D01*
X11547Y12349D01*
X11477Y12350D01*
X11407Y12337D01*
X11342Y12310D01*
X11283Y12271D01*
X11232Y12222D01*
X11193Y12164D01*
X11165Y12099D01*
X11150Y12030D01*
X11149Y11959D01*
X11162Y11890D01*
X11165Y11882D01*
X11133Y11861D01*
X11082Y11812D01*
X11043Y11754D01*
X11015Y11689D01*
X11000Y11620D01*
X11000Y11587D01*
X9812Y10400D01*
X9177Y10400D01*
X9363Y10586D01*
X9379Y10604D01*
X9394Y10623D01*
X9395Y10624D01*
X9396Y10625D01*
X9407Y10646D01*
X9418Y10667D01*
X9419Y10668D01*
X9420Y10670D01*
X9427Y10693D01*
X9434Y10715D01*
X9434Y10717D01*
X9434Y10718D01*
X9437Y10742D01*
X9439Y10766D01*
X9439Y10769D01*
X9439Y10769D01*
X9439Y10769D01*
X9440Y10770D01*
X9440Y11810D01*
X9440Y11972D01*
X10392Y12925D01*
X10450Y12925D01*
X11085Y12925D01*
X11108Y12927D01*
X11132Y12929D01*
X11134Y12929D01*
X11135Y12929D01*
X11158Y12936D01*
X11181Y12943D01*
X11182Y12944D01*
X11184Y12944D01*
X11205Y12955D01*
X11226Y12966D01*
X11227Y12967D01*
X11228Y12968D01*
X11247Y12983D01*
X11266Y12998D01*
X11268Y13000D01*
X11268Y13000D01*
X11268Y13000D01*
X11268Y13001D01*
X11870Y13602D01*
X11870Y13249D01*
X11862Y13242D01*
X11823Y13184D01*
X11795Y13119D01*
X11780Y13050D01*
X11779Y12979D01*
X11792Y12910D01*
X11818Y12844D01*
X11856Y12785D01*
X11905Y12734D01*
X11963Y12694D01*
X12028Y12665D01*
X12097Y12650D01*
X12167Y12649D01*
X12237Y12661D01*
X12303Y12687D01*
X12362Y12724D01*
X12413Y12773D01*
X12454Y12831D01*
X12483Y12895D01*
X12498Y12964D01*
X12500Y13045D01*
X12486Y13114D01*
X12459Y13179D01*
X12420Y13238D01*
X12410Y13249D01*
X12410Y13668D01*
X12501Y13759D01*
X12507Y13759D01*
X12540Y13765D01*
X12540Y11170D01*
X12542Y11146D01*
X12544Y11122D01*
X12544Y11120D01*
X12544Y11119D01*
X12551Y11096D01*
X12558Y11073D01*
X12559Y11072D01*
X12559Y11070D01*
X12570Y11049D01*
X12581Y11028D01*
X12582Y11027D01*
X12583Y11026D01*
X12598Y11007D01*
X12613Y10988D01*
X12615Y10986D01*
X12615Y10986D01*
X12615Y10986D01*
X12616Y10986D01*
X13500Y10101D01*
X13518Y10086D01*
X13537Y10071D01*
X13538Y10070D01*
X13539Y10069D01*
X13560Y10058D01*
X13581Y10046D01*
X13583Y10046D01*
X13584Y10045D01*
X13607Y10038D01*
X13630Y10031D01*
X13631Y10031D01*
X13632Y10030D01*
X13656Y10028D01*
X13680Y10025D01*
X13683Y10025D01*
X13683Y10025D01*
X13683Y10025D01*
X13684Y10025D01*
X18716Y10025D01*
X18776Y9933D01*
X18852Y9853D01*
X18943Y9790D01*
X19045Y9746D01*
X19153Y9722D01*
X19263Y9720D01*
X19372Y9739D01*
X19476Y9779D01*
X19569Y9838D01*
X19649Y9915D01*
X19713Y10005D01*
X19758Y10106D01*
X19783Y10214D01*
X19784Y10341D01*
X19763Y10449D01*
X19721Y10552D01*
X19659Y10644D01*
X19581Y10722D01*
X19490Y10784D01*
X19388Y10827D01*
X19279Y10849D01*
X19169Y10850D01*
X19060Y10829D01*
X18957Y10788D01*
X18865Y10727D01*
X18786Y10650D01*
X18723Y10559D01*
X18717Y10545D01*
X13791Y10545D01*
X13060Y11277D01*
X13060Y12982D01*
X13476Y12566D01*
X13494Y12550D01*
X13513Y12535D01*
X13514Y12534D01*
X13515Y12533D01*
X13536Y12522D01*
X13557Y12511D01*
X13558Y12510D01*
X13560Y12509D01*
X13583Y12502D01*
X13605Y12495D01*
X13607Y12495D01*
X13608Y12495D01*
X13632Y12492D01*
X13656Y12490D01*
X13659Y12490D01*
X13659Y12490D01*
X13659Y12490D01*
X13660Y12490D01*
X14300Y12490D01*
X14323Y12492D01*
X14347Y12494D01*
X14349Y12494D01*
X14350Y12494D01*
X14373Y12501D01*
X14396Y12508D01*
X14397Y12509D01*
X14399Y12509D01*
X14420Y12520D01*
X14441Y12531D01*
X14442Y12532D01*
X14443Y12533D01*
X14462Y12548D01*
X14481Y12563D01*
X14483Y12565D01*
X14483Y12565D01*
X14483Y12565D01*
X14483Y12566D01*
X15630Y13712D01*
X15653Y13654D01*
X15691Y13595D01*
X15740Y13544D01*
X15798Y13504D01*
X15863Y13475D01*
X15932Y13460D01*
X16002Y13459D01*
X16072Y13471D01*
X16138Y13497D01*
X16197Y13534D01*
X16248Y13583D01*
X16289Y13641D01*
X16318Y13705D01*
X16324Y13735D01*
X18895Y13735D01*
X18918Y13737D01*
X18942Y13739D01*
X18944Y13739D01*
X18945Y13739D01*
X18968Y13746D01*
X18991Y13753D01*
X18992Y13754D01*
X18994Y13754D01*
X19015Y13765D01*
X19036Y13776D01*
X19037Y13777D01*
X19038Y13778D01*
X19057Y13793D01*
X19076Y13808D01*
X19078Y13810D01*
X19078Y13810D01*
X19078Y13810D01*
X19078Y13811D01*
X22112Y16845D01*
X22925Y16845D01*
X22948Y16847D01*
X22972Y16849D01*
X22974Y16849D01*
X22975Y16849D01*
X22998Y16856D01*
X23021Y16863D01*
X23022Y16864D01*
X23024Y16864D01*
X23045Y16875D01*
X23066Y16886D01*
X23067Y16887D01*
X23068Y16888D01*
X23087Y16903D01*
X23106Y16918D01*
X23108Y16920D01*
X23108Y16920D01*
X23108Y16920D01*
X23108Y16921D01*
X23297Y17109D01*
X23317Y17109D01*
X23387Y17121D01*
X23453Y17147D01*
X23512Y17184D01*
X23563Y17233D01*
X23604Y17291D01*
X23633Y17355D01*
X23648Y17424D01*
X23650Y17505D01*
X23636Y17574D01*
X23609Y17639D01*
X23570Y17698D01*
X23520Y17748D01*
X23462Y17788D01*
X23396Y17815D01*
X23337Y17827D01*
X23326Y17884D01*
X23299Y17949D01*
X23260Y18008D01*
X23210Y18058D01*
X23152Y18098D01*
X23086Y18125D01*
X23017Y18139D01*
X22947Y18140D01*
X22877Y18127D01*
X22812Y18100D01*
X22753Y18061D01*
X22702Y18012D01*
X22663Y17954D01*
X22635Y17889D01*
X22620Y17820D01*
X22620Y17787D01*
X22409Y17577D01*
X21912Y17577D01*
X21888Y17575D01*
X21864Y17573D01*
X21863Y17572D01*
X21861Y17572D01*
X21838Y17565D01*
X21815Y17558D01*
X21814Y17558D01*
X21813Y17557D01*
X21792Y17546D01*
X21770Y17535D01*
X21769Y17534D01*
X21768Y17534D01*
X21750Y17518D01*
X21731Y17503D01*
X21729Y17502D01*
X21729Y17501D01*
X21729Y17501D01*
X21728Y17501D01*
X18702Y14475D01*
X17434Y14475D01*
X17438Y14494D01*
X17440Y14575D01*
X17426Y14644D01*
X17399Y14709D01*
X17360Y14768D01*
X17310Y14818D01*
X17252Y14858D01*
X17186Y14885D01*
X17117Y14899D01*
X17087Y14899D01*
X16983Y15003D01*
X16965Y15019D01*
X16946Y15034D01*
X16945Y15035D01*
X16944Y15036D01*
X16923Y15047D01*
X16902Y15058D01*
X16901Y15059D01*
X16899Y15060D01*
X16876Y15067D01*
X16854Y15074D01*
X16852Y15074D01*
X16851Y15074D01*
X16827Y15077D01*
X16803Y15079D01*
X16800Y15079D01*
X16800Y15079D01*
X16800Y15079D01*
X16800Y15080D01*
X15849Y15080D01*
X15830Y15098D01*
X15772Y15138D01*
X15706Y15165D01*
X15637Y15179D01*
X15567Y15180D01*
X15497Y15167D01*
X15432Y15140D01*
X15373Y15101D01*
X15322Y15052D01*
X15283Y14994D01*
X15255Y14929D01*
X15240Y14860D01*
X15239Y14789D01*
X15252Y14720D01*
X15278Y14654D01*
X15316Y14595D01*
X15365Y14544D01*
X15423Y14504D01*
X15488Y14475D01*
X15557Y14460D01*
X15627Y14459D01*
X15697Y14471D01*
X15763Y14497D01*
X15822Y14534D01*
X15849Y14560D01*
X16692Y14560D01*
X16719Y14532D01*
X16719Y14509D01*
X16725Y14475D01*
X15765Y14475D01*
X15741Y14472D01*
X15717Y14470D01*
X15715Y14470D01*
X15714Y14470D01*
X15691Y14463D01*
X15668Y14456D01*
X15667Y14455D01*
X15665Y14455D01*
X15644Y14444D01*
X15623Y14433D01*
X15622Y14432D01*
X15621Y14431D01*
X15602Y14416D01*
X15583Y14401D01*
X15581Y14399D01*
X15581Y14399D01*
X15581Y14399D01*
X15581Y14398D01*
X14950Y13767D01*
X14950Y15389D01*
X14953Y15393D01*
X14994Y15451D01*
X15023Y15515D01*
X15038Y15584D01*
X15040Y15665D01*
X15026Y15734D01*
X14999Y15799D01*
X14960Y15858D01*
X14910Y15908D01*
X14852Y15948D01*
X14786Y15975D01*
X14717Y15989D01*
X14647Y15990D01*
X14577Y15977D01*
X14512Y15950D01*
X14453Y15911D01*
X14402Y15862D01*
X14363Y15804D01*
X14335Y15739D01*
X14320Y15670D01*
X14319Y15599D01*
X14332Y15530D01*
X14358Y15464D01*
X14396Y15405D01*
X14410Y15391D01*
X14410Y13781D01*
X14368Y13740D01*
X14357Y13740D01*
X14287Y13727D01*
X14222Y13700D01*
X14163Y13661D01*
X14112Y13612D01*
X14073Y13554D01*
X14045Y13489D01*
X14030Y13420D01*
X14029Y13349D01*
X14042Y13280D01*
X14068Y13214D01*
X14106Y13155D01*
X14155Y13104D01*
X14213Y13064D01*
X14236Y13054D01*
X14192Y13010D01*
X13767Y13010D01*
X13395Y13382D01*
X13395Y13695D01*
X13408Y13708D01*
X13449Y13766D01*
X13478Y13830D01*
X13493Y13899D01*
X13495Y13980D01*
X13481Y14049D01*
X13454Y14114D01*
X13415Y14173D01*
X13365Y14223D01*
X13309Y14261D01*
X13803Y14756D01*
X13819Y14774D01*
X13834Y14793D01*
X13835Y14794D01*
X13836Y14795D01*
X13847Y14816D01*
X13858Y14837D01*
X13859Y14838D01*
X13860Y14840D01*
X13867Y14863D01*
X13874Y14885D01*
X13874Y14887D01*
X13874Y14888D01*
X13877Y14912D01*
X13879Y14936D01*
X13879Y14939D01*
X13879Y14939D01*
X13879Y14939D01*
X13880Y14940D01*
X13880Y15370D01*
X13880Y16387D01*
X13907Y16404D01*
X13934Y16430D01*
X14090Y16430D01*
X14810Y16430D01*
X14833Y16432D01*
X14857Y16434D01*
X14859Y16434D01*
X14860Y16434D01*
X14883Y16441D01*
X14906Y16448D01*
X14907Y16449D01*
X14909Y16449D01*
X14930Y16460D01*
X14951Y16471D01*
X14952Y16472D01*
X14953Y16473D01*
X14972Y16488D01*
X14991Y16503D01*
X14993Y16505D01*
X14993Y16505D01*
X14993Y16505D01*
X14993Y16506D01*
X16127Y17640D01*
X17110Y17640D01*
X22065Y17640D01*
X22088Y17642D01*
X22112Y17644D01*
X22114Y17644D01*
X22115Y17644D01*
X22138Y17651D01*
X22161Y17658D01*
X22162Y17659D01*
X22164Y17659D01*
X22185Y17670D01*
X22206Y17681D01*
X22207Y17682D01*
X22208Y17683D01*
X22227Y17698D01*
X22246Y17713D01*
X22248Y17715D01*
X22248Y17715D01*
X22248Y17715D01*
X22248Y17716D01*
X24421Y19889D01*
X24443Y19874D01*
X24508Y19845D01*
X24577Y19830D01*
X24647Y19829D01*
X24717Y19841D01*
X24783Y19867D01*
X24842Y19904D01*
X24893Y19953D01*
X24934Y20011D01*
X24963Y20075D01*
X24978Y20144D01*
X24980Y20225D01*
X24966Y20294D01*
X24939Y20359D01*
X24900Y20418D01*
X24878Y20440D01*
X27366Y20440D01*
X27425Y20348D01*
X27502Y20269D01*
X27593Y20205D01*
X27694Y20161D01*
X27802Y20137D01*
X27913Y20135D01*
X28022Y20154D01*
X28125Y20194D01*
X28219Y20254D01*
X28299Y20330D01*
X28363Y20420D01*
X28408Y20521D01*
X28432Y20629D01*
X28434Y20756D01*
X28412Y20864D01*
X28370Y20967D01*
X28309Y21059D01*
X28231Y21137D01*
X28139Y21199D01*
X28037Y21242D01*
X27929Y21264D01*
X27847Y21265D01*
X27863Y21286D01*
X27908Y21387D01*
X27932Y21495D01*
X27934Y21622D01*
X27912Y21730D01*
X27870Y21833D01*
X27809Y21925D01*
X27731Y22003D01*
X27639Y22065D01*
X27537Y22108D01*
X27429Y22130D01*
X27347Y22131D01*
X27363Y22152D01*
X27408Y22254D01*
X27432Y22361D01*
X27434Y22488D01*
X27412Y22596D01*
X27370Y22699D01*
X27309Y22791D01*
X27231Y22869D01*
X27139Y22931D01*
X27037Y22974D01*
X26963Y22989D01*
X26976Y22997D01*
X27007Y23024D01*
X27032Y23057D01*
X27051Y23094D01*
X27062Y23134D01*
X27064Y23175D01*
X27059Y23216D01*
X27046Y23255D01*
X27026Y23290D01*
X26671Y23905D01*
X26644Y23936D01*
X26611Y23962D01*
X26574Y23980D01*
X26534Y23991D01*
X26493Y23993D01*
X26452Y23988D01*
X26413Y23975D01*
X26378Y23955D01*
X25763Y23600D01*
X25732Y23573D01*
X25707Y23540D01*
X25688Y23503D01*
X25677Y23463D01*
X25675Y23422D01*
X25680Y23381D01*
X25693Y23342D01*
X25713Y23307D01*
X26068Y22693D01*
X25613Y22693D01*
X25589Y22690D01*
X25565Y22688D01*
X25563Y22688D01*
X25562Y22688D01*
X25539Y22681D01*
X25516Y22674D01*
X25515Y22673D01*
X25513Y22673D01*
X25492Y22662D01*
X25471Y22651D01*
X25470Y22650D01*
X25469Y22649D01*
X25450Y22634D01*
X25431Y22619D01*
X25429Y22617D01*
X25429Y22617D01*
X25429Y22617D01*
X25429Y22616D01*
X24040Y21227D01*
X24039Y21229D01*
X24000Y21288D01*
X23950Y21338D01*
X23892Y21378D01*
X23826Y21405D01*
X23757Y21419D01*
X23727Y21419D01*
X21560Y23587D01*
X21560Y25065D01*
X21557Y25088D01*
X21555Y25112D01*
X21555Y25114D01*
X21555Y25115D01*
X21548Y25138D01*
X21541Y25161D01*
X21540Y25162D01*
X21540Y25164D01*
X21529Y25185D01*
X21518Y25206D01*
X21517Y25207D01*
X21516Y25208D01*
X21501Y25227D01*
X21486Y25246D01*
X21484Y25248D01*
X21484Y25248D01*
X21484Y25248D01*
X21483Y25248D01*
X20532Y26200D01*
X21722Y26200D01*
X21876Y26046D01*
X21894Y26030D01*
X21913Y26015D01*
X21914Y26014D01*
X21915Y26013D01*
X21936Y26002D01*
X21957Y25991D01*
X21958Y25990D01*
X21960Y25989D01*
X21983Y25982D01*
X22005Y25975D01*
X22007Y25975D01*
X22008Y25975D01*
X22032Y25972D01*
X22056Y25970D01*
X22059Y25970D01*
X22059Y25970D01*
X22059Y25970D01*
X22060Y25970D01*
X22690Y25970D01*
X22713Y25972D01*
X22737Y25974D01*
X22739Y25974D01*
X22740Y25974D01*
X22763Y25981D01*
X22786Y25988D01*
X22787Y25989D01*
X22789Y25989D01*
X22810Y26000D01*
X22831Y26011D01*
X22832Y26012D01*
X22833Y26013D01*
X22849Y26026D01*
X22854Y26017D01*
X22931Y25938D01*
X23022Y25875D01*
X23123Y25830D01*
X23231Y25806D01*
X23342Y25804D01*
X23451Y25823D01*
X23554Y25863D01*
X23648Y25923D01*
X23728Y25999D01*
X23792Y26089D01*
X23837Y26191D01*
X23861Y26298D01*
X23863Y26425D01*
X23841Y26533D01*
X23799Y26636D01*
X23738Y26728D01*
X23660Y26806D01*
X23568Y26868D01*
X23466Y26911D01*
X23358Y26933D01*
X23247Y26934D01*
X23138Y26913D01*
X23036Y26872D01*
X22996Y26846D01*
X22997Y26925D01*
X22975Y27033D01*
X22933Y27136D01*
X22872Y27228D01*
X22794Y27306D01*
X22702Y27368D01*
X22600Y27411D01*
X22492Y27433D01*
X22381Y27434D01*
X22272Y27413D01*
X22170Y27372D01*
X22130Y27346D01*
X22131Y27425D01*
X22109Y27533D01*
X22067Y27636D01*
X22006Y27728D01*
X21928Y27806D01*
X21836Y27868D01*
X21734Y27911D01*
X21626Y27933D01*
X21515Y27934D01*
X21406Y27913D01*
X21369Y27898D01*
X21377Y27912D01*
X21390Y27951D01*
X21395Y27992D01*
X21393Y28033D01*
X21382Y28073D01*
X21364Y28110D01*
X21339Y28143D01*
X21309Y28170D01*
X21273Y28191D01*
X20658Y28546D01*
X20619Y28559D01*
X20578Y28564D01*
X20537Y28562D01*
X20497Y28551D01*
X20460Y28533D01*
X20427Y28508D01*
X20400Y28478D01*
X20379Y28442D01*
X20024Y27827D01*
X20011Y27788D01*
X20006Y27747D01*
X20008Y27706D01*
X20019Y27666D01*
X20037Y27629D01*
X20062Y27596D01*
X20092Y27569D01*
X20128Y27548D01*
X20743Y27193D01*
X20782Y27180D01*
X20823Y27175D01*
X20864Y27177D01*
X20904Y27188D01*
X20941Y27206D01*
X20974Y27231D01*
X21001Y27261D01*
X21010Y27277D01*
X21021Y27213D01*
X21039Y27170D01*
X16350Y27170D01*
X16326Y27167D01*
X16302Y27165D01*
X16300Y27165D01*
X16299Y27165D01*
X16276Y27158D01*
X16253Y27151D01*
X16252Y27150D01*
X16250Y27150D01*
X16229Y27139D01*
X16208Y27128D01*
X16207Y27127D01*
X16206Y27126D01*
X16187Y27111D01*
X16168Y27096D01*
X16166Y27094D01*
X16166Y27094D01*
X16166Y27094D01*
X16166Y27093D01*
X15990Y26917D01*
X15990Y27962D01*
X16463Y28436D01*
X16543Y28434D01*
X16652Y28453D01*
X16755Y28493D01*
X16849Y28553D01*
X16929Y28629D01*
X16993Y28719D01*
X17038Y28821D01*
X17062Y28928D01*
X17064Y29055D01*
X17042Y29163D01*
X17000Y29266D01*
X16939Y29358D01*
X16861Y29436D01*
X16769Y29498D01*
X16667Y29541D01*
X16559Y29563D01*
X16448Y29564D01*
X16339Y29543D01*
X16237Y29502D01*
X16144Y29441D01*
X16065Y29364D01*
X16003Y29273D01*
X16000Y29266D01*
X15939Y29358D01*
X15861Y29436D01*
X15769Y29498D01*
X15667Y29541D01*
X15559Y29563D01*
X15448Y29564D01*
X15339Y29543D01*
X15237Y29502D01*
X15144Y29441D01*
X15065Y29364D01*
X15003Y29273D01*
X15000Y29266D01*
X14939Y29358D01*
X14861Y29436D01*
X14769Y29498D01*
X14667Y29541D01*
X14559Y29563D01*
X14448Y29564D01*
X14339Y29543D01*
X14237Y29502D01*
X14144Y29441D01*
X14065Y29364D01*
X14064Y29362D01*
X14064Y29374D01*
X14056Y29415D01*
X14040Y29453D01*
X14017Y29487D01*
X13988Y29516D01*
X13954Y29539D01*
X13916Y29555D01*
X13876Y29564D01*
X13835Y29564D01*
X13125Y29564D01*
X13084Y29556D01*
X13046Y29540D01*
X13012Y29517D01*
X12983Y29488D01*
X12960Y29454D01*
X12944Y29416D01*
X12935Y29376D01*
X12935Y29335D01*
X12935Y29270D01*
X11640Y29270D01*
X11615Y29267D01*
X11590Y29265D01*
X11588Y29264D01*
X11587Y29264D01*
X11563Y29257D01*
X11539Y29250D01*
X11538Y29250D01*
X11537Y29249D01*
X11515Y29237D01*
X11492Y29226D01*
X11491Y29225D01*
X11490Y29224D01*
X11471Y29209D01*
X11451Y29193D01*
X11449Y29191D01*
X11449Y29191D01*
X11449Y29191D01*
X11449Y29190D01*
X8608Y26350D01*
X7786Y26350D01*
X7822Y26363D01*
X7916Y26423D01*
X7996Y26499D01*
X8060Y26589D01*
X8105Y26691D01*
X8129Y26798D01*
X8130Y26892D01*
X8156Y26875D01*
X8257Y26830D01*
X8365Y26806D01*
X8476Y26804D01*
X8585Y26823D01*
X8688Y26863D01*
X8782Y26923D01*
X8862Y26999D01*
X8926Y27089D01*
X8971Y27191D01*
X8995Y27298D01*
X8996Y27392D01*
X9022Y27375D01*
X9123Y27330D01*
X9231Y27306D01*
X9342Y27304D01*
X9451Y27323D01*
X9554Y27363D01*
X9648Y27423D01*
X9728Y27499D01*
X9792Y27589D01*
X9837Y27691D01*
X9861Y27798D01*
X9863Y27925D01*
X9841Y28033D01*
X9799Y28136D01*
X9738Y28228D01*
X9660Y28306D01*
X9568Y28368D01*
X9466Y28411D01*
X9358Y28433D01*
X9247Y28434D01*
X9138Y28413D01*
X9036Y28372D01*
X8943Y28311D01*
X8864Y28234D01*
X8802Y28143D01*
X8758Y28041D01*
X8735Y27933D01*
X8734Y27847D01*
X8702Y27868D01*
X8600Y27911D01*
X8492Y27933D01*
X8381Y27934D01*
X8272Y27913D01*
X8170Y27872D01*
X8077Y27811D01*
X7998Y27734D01*
X7936Y27643D01*
X7892Y27541D01*
X7869Y27433D01*
X7868Y27347D01*
X7836Y27368D01*
X7734Y27411D01*
X7626Y27433D01*
X7515Y27434D01*
X7406Y27413D01*
X7304Y27372D01*
X7211Y27311D01*
X7132Y27234D01*
X7070Y27143D01*
X7026Y27041D01*
X7009Y26963D01*
X7002Y26976D01*
X6975Y27007D01*
X6942Y27032D01*
X6905Y27051D01*
X6865Y27062D01*
X6824Y27064D01*
X6783Y27059D01*
X6744Y27046D01*
X6709Y27026D01*
X6094Y26671D01*
X6063Y26644D01*
X6037Y26611D01*
X6019Y26574D01*
X6008Y26534D01*
X6006Y26493D01*
X6011Y26452D01*
X6024Y26413D01*
X6044Y26378D01*
X6399Y25763D01*
X6426Y25732D01*
X6459Y25707D01*
X6496Y25688D01*
X6536Y25677D01*
X6577Y25675D01*
X6618Y25680D01*
X6657Y25693D01*
X6692Y25713D01*
X7023Y25904D01*
X7039Y25889D01*
X7058Y25873D01*
X7077Y25857D01*
X7078Y25856D01*
X7079Y25855D01*
X7101Y25843D01*
X7123Y25831D01*
X7124Y25831D01*
X7126Y25830D01*
X7150Y25823D01*
X7173Y25815D01*
X7175Y25815D01*
X7176Y25815D01*
X7201Y25812D01*
X7226Y25810D01*
X7229Y25810D01*
X7229Y25810D01*
X7229Y25810D01*
X7230Y25810D01*
X8720Y25810D01*
X8744Y25812D01*
X8769Y25814D01*
X8771Y25815D01*
X8772Y25815D01*
X8796Y25822D01*
X8820Y25829D01*
X8821Y25829D01*
X8822Y25830D01*
X8844Y25842D01*
X8867Y25853D01*
X8868Y25854D01*
X8869Y25855D01*
X8888Y25870D01*
X8908Y25886D01*
X8910Y25888D01*
X8910Y25888D01*
X8910Y25888D01*
X8910Y25889D01*
X11751Y28730D01*
X12935Y28730D01*
X12935Y28625D01*
X12943Y28584D01*
X12959Y28546D01*
X12982Y28512D01*
X13011Y28483D01*
X13045Y28460D01*
X13083Y28444D01*
X13123Y28435D01*
X13164Y28435D01*
X13874Y28435D01*
X13915Y28443D01*
X13953Y28459D01*
X13987Y28482D01*
X14016Y28511D01*
X14039Y28545D01*
X14055Y28583D01*
X14064Y28623D01*
X14064Y28638D01*
X14132Y28568D01*
X14223Y28505D01*
X14324Y28460D01*
X14432Y28436D01*
X14466Y28436D01*
X14970Y27932D01*
X14970Y26877D01*
X14524Y26432D01*
X14511Y26499D01*
X14484Y26564D01*
X14445Y26623D01*
X14395Y26673D01*
X14337Y26713D01*
X14271Y26740D01*
X14244Y26746D01*
X14283Y26783D01*
X14324Y26841D01*
X14353Y26905D01*
X14368Y26974D01*
X14370Y27055D01*
X14356Y27124D01*
X14329Y27189D01*
X14290Y27248D01*
X14240Y27298D01*
X14182Y27338D01*
X14137Y27357D01*
X14138Y27364D01*
X14140Y27445D01*
X14126Y27514D01*
X14099Y27579D01*
X14060Y27638D01*
X14010Y27688D01*
X13952Y27728D01*
X13886Y27755D01*
X13817Y27769D01*
X13747Y27770D01*
X13677Y27757D01*
X13612Y27730D01*
X13553Y27691D01*
X13502Y27642D01*
X13463Y27584D01*
X13435Y27519D01*
X13430Y27497D01*
X13408Y27491D01*
X13407Y27490D01*
X13405Y27490D01*
X13384Y27479D01*
X13363Y27468D01*
X13362Y27467D01*
X13361Y27466D01*
X13342Y27451D01*
X13323Y27436D01*
X13321Y27434D01*
X13321Y27434D01*
X13321Y27434D01*
X13321Y27433D01*
X10747Y24860D01*
X9600Y24860D01*
X7780Y24860D01*
X7756Y24857D01*
X7732Y24855D01*
X7730Y24855D01*
X7729Y24855D01*
X7706Y24848D01*
X7683Y24841D01*
X7682Y24840D01*
X7680Y24840D01*
X7659Y24829D01*
X7638Y24818D01*
X7637Y24817D01*
X7636Y24816D01*
X7617Y24801D01*
X7598Y24786D01*
X7596Y24784D01*
X7596Y24784D01*
X7596Y24784D01*
X7596Y24783D01*
X7452Y24640D01*
X7427Y24640D01*
X7357Y24627D01*
X7292Y24600D01*
X7233Y24561D01*
X7182Y24512D01*
X7143Y24454D01*
X7115Y24389D01*
X7100Y24320D01*
X7099Y24249D01*
X7112Y24180D01*
X7138Y24114D01*
X7176Y24055D01*
X7225Y24004D01*
X7283Y23964D01*
X7348Y23935D01*
X7417Y23920D01*
X7487Y23919D01*
X7557Y23931D01*
X7623Y23957D01*
X7682Y23994D01*
X7733Y24043D01*
X7774Y24101D01*
X7803Y24165D01*
X7818Y24234D01*
X7819Y24271D01*
X7887Y24340D01*
X9600Y24340D01*
X10572Y24340D01*
X8947Y22714D01*
X8947Y23192D01*
X8938Y23298D01*
X8908Y23401D01*
X8860Y23496D01*
X8851Y23509D01*
X8760Y23539D01*
X8739Y23517D01*
X8739Y23560D01*
X8709Y23651D01*
X8615Y23702D01*
X8514Y23735D01*
X8407Y23747D01*
X8301Y23738D01*
X8198Y23708D01*
X8103Y23660D01*
X8090Y23651D01*
X8060Y23560D01*
X8400Y23221D01*
X8739Y23560D01*
X8739Y23517D01*
X8421Y23200D01*
X8760Y22860D01*
X8851Y22890D01*
X8902Y22984D01*
X8935Y23085D01*
X8947Y23192D01*
X8947Y22714D01*
X8801Y22568D01*
X8748Y22621D01*
X8660Y22681D01*
X8617Y22699D01*
X8696Y22739D01*
X8709Y22748D01*
X8739Y22839D01*
X8400Y23178D01*
X8060Y22839D01*
X8090Y22748D01*
X8180Y22698D01*
X8146Y22685D01*
X8057Y22626D01*
X7980Y22551D01*
X7920Y22463D01*
X7900Y22416D01*
X7883Y22456D01*
X7824Y22545D01*
X7748Y22621D01*
X7660Y22681D01*
X7616Y22699D01*
X7646Y22711D01*
X7736Y22768D01*
X7814Y22842D01*
X7875Y22929D01*
X7899Y22982D01*
X7939Y22903D01*
X7948Y22890D01*
X8039Y22860D01*
X8378Y23200D01*
X8039Y23539D01*
X7948Y23509D01*
X7898Y23419D01*
X7883Y23456D01*
X7824Y23545D01*
X7748Y23621D01*
X7660Y23681D01*
X7561Y23722D01*
X7457Y23744D01*
X7350Y23745D01*
X7245Y23725D01*
X7146Y23685D01*
X7057Y23626D01*
X6980Y23551D01*
X6920Y23463D01*
X6900Y23416D01*
X6883Y23456D01*
X6824Y23545D01*
X6748Y23621D01*
X6660Y23681D01*
X6561Y23722D01*
X6457Y23744D01*
X6350Y23745D01*
X6245Y23725D01*
X6146Y23685D01*
X6057Y23626D01*
X5980Y23551D01*
X5920Y23463D01*
X5878Y23365D01*
X5856Y23261D01*
X5854Y23154D01*
X5873Y23049D01*
X5913Y22949D01*
X5971Y22860D01*
X6045Y22783D01*
X6100Y22744D01*
X6044Y22744D01*
X6004Y22736D01*
X5966Y22720D01*
X5931Y22698D01*
X5902Y22669D01*
X5879Y22635D01*
X5863Y22597D01*
X5855Y22556D01*
X5855Y22515D01*
X5855Y21844D01*
X5863Y21804D01*
X5879Y21766D01*
X5901Y21731D01*
X5930Y21702D01*
X5964Y21679D01*
X6002Y21663D01*
X6043Y21655D01*
X6084Y21655D01*
X6571Y21655D01*
X7081Y21146D01*
X7099Y21130D01*
X7118Y21115D01*
X7119Y21114D01*
X7120Y21113D01*
X7141Y21102D01*
X7162Y21091D01*
X7163Y21090D01*
X7165Y21089D01*
X7188Y21082D01*
X7210Y21075D01*
X7212Y21075D01*
X7213Y21075D01*
X7237Y21072D01*
X7261Y21070D01*
X7264Y21070D01*
X7264Y21070D01*
X7264Y21070D01*
X7265Y21070D01*
X8745Y21070D01*
X8768Y21072D01*
X8792Y21074D01*
X8794Y21074D01*
X8795Y21074D01*
X8818Y21081D01*
X8841Y21088D01*
X8842Y21089D01*
X8844Y21089D01*
X8865Y21100D01*
X8886Y21111D01*
X8887Y21112D01*
X8888Y21113D01*
X8907Y21128D01*
X8926Y21143D01*
X8928Y21145D01*
X8928Y21145D01*
X8928Y21145D01*
X8928Y21146D01*
X9502Y21720D01*
X9518Y21738D01*
X9533Y21757D01*
X9534Y21758D01*
X9534Y21759D01*
X9546Y21780D01*
X9557Y21801D01*
X9558Y21802D01*
X9558Y21804D01*
X9565Y21826D01*
X9573Y21849D01*
X9573Y21851D01*
X9573Y21852D01*
X9576Y21876D01*
X9578Y21900D01*
X9578Y21902D01*
X9578Y21903D01*
X9578Y21903D01*
X9578Y21903D01*
X9578Y22021D01*
X13492Y25935D01*
X13965Y25935D01*
X13988Y25937D01*
X14012Y25939D01*
X14014Y25939D01*
X14015Y25939D01*
X14038Y25946D01*
X14039Y25947D01*
X8366Y20273D01*
X8350Y20255D01*
X8335Y20236D01*
X8334Y20235D01*
X8333Y20234D01*
X8322Y20213D01*
X8311Y20192D01*
X8310Y20191D01*
X8309Y20189D01*
X8302Y20166D01*
X8295Y20144D01*
X8295Y20142D01*
X8295Y20141D01*
X8292Y20117D01*
X8290Y20093D01*
X8290Y20090D01*
X8290Y20090D01*
X8290Y20090D01*
X8290Y20090D01*
X8290Y19500D01*
X7800Y19500D01*
X7480Y19500D01*
X5729Y19500D01*
X5710Y19518D01*
X5652Y19558D01*
X5586Y19585D01*
X5517Y19599D01*
X5447Y19600D01*
X5377Y19587D01*
X5312Y19560D01*
X5253Y19521D01*
X5244Y19513D01*
X5222Y19528D01*
X5156Y19555D01*
X5087Y19569D01*
X5017Y19570D01*
X4947Y19557D01*
X4882Y19530D01*
X4823Y19491D01*
X4775Y19445D01*
X4772Y19448D01*
X4706Y19475D01*
X4637Y19489D01*
X4567Y19490D01*
X4497Y19477D01*
X4432Y19450D01*
X4373Y19411D01*
X4346Y19385D01*
X4342Y19388D01*
X4276Y19415D01*
X4207Y19429D01*
X4137Y19430D01*
X4067Y19417D01*
X4002Y19390D01*
X3943Y19351D01*
X3932Y19341D01*
X3892Y19368D01*
X3887Y19370D01*
X4563Y20046D01*
X4579Y20064D01*
X4594Y20083D01*
X4595Y20084D01*
X4596Y20085D01*
X4607Y20106D01*
X4618Y20127D01*
X4619Y20128D01*
X4620Y20130D01*
X4627Y20153D01*
X4634Y20175D01*
X4634Y20177D01*
X4634Y20178D01*
X4637Y20202D01*
X4639Y20226D01*
X4639Y20229D01*
X4639Y20229D01*
X4639Y20229D01*
X4640Y20230D01*
X4640Y22510D01*
X4637Y22533D01*
X4635Y22557D01*
X4635Y22559D01*
X4635Y22560D01*
X4628Y22583D01*
X4621Y22606D01*
X4620Y22607D01*
X4620Y22609D01*
X4609Y22630D01*
X4598Y22651D01*
X4597Y22652D01*
X4596Y22653D01*
X4581Y22672D01*
X4566Y22691D01*
X4564Y22693D01*
X4564Y22693D01*
X4564Y22693D01*
X4563Y22693D01*
X4158Y23098D01*
X4168Y23120D01*
X4192Y23227D01*
X4194Y23354D01*
X4172Y23462D01*
X4130Y23565D01*
X4069Y23657D01*
X3991Y23735D01*
X3899Y23797D01*
X3797Y23840D01*
X3689Y23862D01*
X3578Y23863D01*
X3469Y23843D01*
X3367Y23801D01*
X3274Y23740D01*
X3195Y23663D01*
X3133Y23572D01*
X3089Y23470D01*
X3066Y23362D01*
X3064Y23251D01*
X3084Y23142D01*
X3125Y23039D01*
X3153Y22997D01*
X3078Y22997D01*
X2969Y22977D01*
X2867Y22935D01*
X2774Y22874D01*
X2695Y22797D01*
X2633Y22706D01*
X2589Y22604D01*
X2566Y22496D01*
X2564Y22385D01*
X2584Y22276D01*
X2625Y22173D01*
X2653Y22131D01*
X2578Y22131D01*
X2469Y22110D01*
X2367Y22069D01*
X2274Y22008D01*
X2195Y21931D01*
X2133Y21840D01*
X2089Y21738D01*
X2066Y21630D01*
X2064Y21519D01*
X2084Y21410D01*
X2101Y21369D01*
X2087Y21377D01*
X2048Y21390D01*
X2007Y21395D01*
X1966Y21393D01*
X1926Y21382D01*
X1889Y21364D01*
X1856Y21339D01*
X1829Y21309D01*
X1808Y21273D01*
X1453Y20658D01*
X1440Y20619D01*
X1435Y20578D01*
X1437Y20537D01*
X1448Y20497D01*
X1466Y20460D01*
X1491Y20427D01*
X1521Y20400D01*
X1557Y20379D01*
X2172Y20024D01*
X2211Y20011D01*
X2252Y20006D01*
X2293Y20008D01*
X2333Y20019D01*
X2370Y20037D01*
X2403Y20062D01*
X2430Y20092D01*
X2451Y20128D01*
X2806Y20743D01*
X2819Y20782D01*
X2824Y20823D01*
X2822Y20864D01*
X2811Y20904D01*
X2793Y20941D01*
X2768Y20974D01*
X2738Y21001D01*
X2722Y21010D01*
X2782Y21020D01*
X2885Y21060D01*
X2979Y21120D01*
X3059Y21196D01*
X3123Y21286D01*
X3132Y21306D01*
X3325Y21306D01*
X3670Y20962D01*
X3670Y20497D01*
X2786Y19613D01*
X2770Y19595D01*
X2755Y19576D01*
X2754Y19575D01*
X2753Y19574D01*
X2742Y19553D01*
X2731Y19532D01*
X2730Y19531D01*
X2729Y19529D01*
X2722Y19506D01*
X2715Y19484D01*
X2715Y19482D01*
X2715Y19481D01*
X2712Y19457D01*
X2710Y19433D01*
X2710Y19430D01*
X2710Y19430D01*
X2710Y19430D01*
X2710Y19430D01*
X2710Y18620D01*
X2712Y18596D01*
X2714Y18572D01*
X2714Y18570D01*
X2714Y18569D01*
X2721Y18546D01*
X2728Y18523D01*
X2729Y18522D01*
X2729Y18520D01*
X2740Y18499D01*
X2751Y18478D01*
X2752Y18477D01*
X2753Y18476D01*
X2768Y18457D01*
X2783Y18438D01*
X2785Y18436D01*
X2785Y18436D01*
X2785Y18436D01*
X2786Y18436D01*
X3642Y17580D01*
X3370Y17580D01*
X3346Y17577D01*
X3322Y17575D01*
X3320Y17575D01*
X3319Y17575D01*
X3296Y17568D01*
X3273Y17561D01*
X3272Y17560D01*
X3270Y17560D01*
X3249Y17549D01*
X3228Y17538D01*
X3227Y17537D01*
X3226Y17536D01*
X3207Y17521D01*
X3188Y17506D01*
X3186Y17504D01*
X3186Y17504D01*
X3186Y17504D01*
X3186Y17503D01*
X1479Y15797D01*
X1439Y15858D01*
X1361Y15936D01*
X1269Y15998D01*
X1265Y16000D01*
X1349Y16053D01*
X1429Y16129D01*
X1493Y16219D01*
X1538Y16321D01*
X1562Y16428D01*
X1564Y16555D01*
X1542Y16663D01*
X1500Y16766D01*
X1439Y16858D01*
X1361Y16936D01*
X1269Y16998D01*
X1167Y17041D01*
X1059Y17063D01*
X948Y17064D01*
X839Y17043D01*
X737Y17002D01*
X644Y16941D01*
X565Y16864D01*
X503Y16773D01*
X459Y16671D01*
X436Y16563D01*
X434Y16452D01*
X454Y16343D01*
X495Y16240D01*
X555Y16147D01*
X632Y16068D01*
X723Y16005D01*
X733Y16000D01*
X644Y15941D01*
X565Y15864D01*
X503Y15773D01*
X459Y15671D01*
X436Y15563D01*
X434Y15452D01*
X454Y15343D01*
X495Y15240D01*
X555Y15147D01*
X632Y15068D01*
X723Y15005D01*
X733Y15000D01*
X644Y14941D01*
X565Y14864D01*
X503Y14773D01*
X459Y14671D01*
X436Y14563D01*
X434Y14452D01*
X454Y14343D01*
X495Y14240D01*
X555Y14147D01*
X632Y14068D01*
X637Y14064D01*
X625Y14064D01*
X584Y14056D01*
X546Y14040D01*
X512Y14017D01*
X483Y13988D01*
X460Y13954D01*
X444Y13916D01*
X435Y13876D01*
X435Y13835D01*
X435Y13125D01*
X443Y13084D01*
X459Y13046D01*
X482Y13012D01*
X511Y12983D01*
X545Y12960D01*
X583Y12944D01*
X623Y12935D01*
X664Y12935D01*
X730Y12935D01*
X730Y11347D01*
X603Y11729D01*
X240Y14597D01*
X235Y14990D01*
X517Y17867D01*
X1350Y20626D01*
X2702Y23170D01*
X4523Y25403D01*
X6744Y27239D01*
X9278Y28610D01*
X12031Y29462D01*
X14896Y29763D01*
X17766Y29502D01*
X20530Y28688D01*
X23084Y27353D01*
X25329Y25548D01*
X27181Y23341D01*
X28569Y20816D01*
X29441Y18069D01*
X29762Y15206D01*
X29762Y15206D01*
G37*
G54D18*
X29762Y15206D02*
X29521Y12334D01*
X28727Y9565D01*
X27410Y7002D01*
X25620Y4744D01*
X23425Y2876D01*
X20910Y1470D01*
X19462Y1000D01*
X20270Y1809D01*
X20286Y1828D01*
X20302Y1847D01*
X20303Y1848D01*
X20303Y1848D01*
X20333Y1818D01*
X20424Y1755D01*
X20525Y1710D01*
X20633Y1686D01*
X20744Y1684D01*
X20853Y1703D01*
X20956Y1743D01*
X21050Y1803D01*
X21130Y1879D01*
X21194Y1969D01*
X21239Y2071D01*
X21263Y2178D01*
X21264Y2272D01*
X21290Y2255D01*
X21391Y2210D01*
X21499Y2186D01*
X21610Y2184D01*
X21719Y2203D01*
X21822Y2243D01*
X21916Y2303D01*
X21996Y2379D01*
X22060Y2469D01*
X22105Y2571D01*
X22129Y2678D01*
X22130Y2772D01*
X22156Y2755D01*
X22257Y2710D01*
X22365Y2686D01*
X22476Y2684D01*
X22585Y2703D01*
X22688Y2743D01*
X22782Y2803D01*
X22862Y2879D01*
X22926Y2969D01*
X22971Y3071D01*
X22990Y3155D01*
X22997Y3143D01*
X23024Y3112D01*
X23057Y3087D01*
X23094Y3068D01*
X23134Y3057D01*
X23175Y3055D01*
X23216Y3060D01*
X23255Y3073D01*
X23290Y3093D01*
X23905Y3448D01*
X23936Y3475D01*
X23962Y3508D01*
X23980Y3545D01*
X23991Y3585D01*
X23993Y3626D01*
X23988Y3667D01*
X23975Y3706D01*
X23955Y3741D01*
X23600Y4356D01*
X23573Y4387D01*
X23540Y4412D01*
X23503Y4431D01*
X23463Y4442D01*
X23422Y4444D01*
X23381Y4439D01*
X23342Y4426D01*
X23307Y4406D01*
X22966Y4210D01*
X21570Y4210D01*
X21545Y4207D01*
X21520Y4205D01*
X21518Y4204D01*
X21517Y4204D01*
X21493Y4197D01*
X21469Y4190D01*
X21468Y4190D01*
X21467Y4189D01*
X21445Y4177D01*
X21422Y4166D01*
X21421Y4165D01*
X21420Y4164D01*
X21401Y4149D01*
X21381Y4133D01*
X21379Y4131D01*
X21379Y4131D01*
X21379Y4131D01*
X21379Y4130D01*
X20738Y3490D01*
X20730Y3490D01*
X20705Y3487D01*
X20680Y3485D01*
X20678Y3484D01*
X20677Y3484D01*
X20653Y3477D01*
X20629Y3470D01*
X20628Y3470D01*
X20627Y3469D01*
X20605Y3457D01*
X20582Y3446D01*
X20581Y3445D01*
X20580Y3444D01*
X20561Y3429D01*
X20541Y3413D01*
X20539Y3411D01*
X20539Y3411D01*
X20539Y3411D01*
X20539Y3410D01*
X19936Y2808D01*
X19932Y2805D01*
X19931Y2805D01*
X19930Y2804D01*
X19910Y2788D01*
X19891Y2772D01*
X19890Y2772D01*
X19889Y2771D01*
X19873Y2751D01*
X19857Y2732D01*
X19856Y2731D01*
X19856Y2730D01*
X19844Y2708D01*
X19831Y2686D01*
X19831Y2685D01*
X19831Y2684D01*
X19823Y2660D01*
X19815Y2636D01*
X19815Y2635D01*
X19815Y2634D01*
X19812Y2609D01*
X19810Y2583D01*
X19810Y2581D01*
X19810Y2581D01*
X19810Y2581D01*
X19810Y2580D01*
X19810Y2111D01*
X18968Y1270D01*
X17064Y1270D01*
X17064Y1374D01*
X17056Y1415D01*
X17040Y1453D01*
X17017Y1487D01*
X16988Y1516D01*
X16954Y1539D01*
X16916Y1555D01*
X16876Y1564D01*
X16835Y1564D01*
X16447Y1564D01*
X15460Y2550D01*
X15441Y2566D01*
X15422Y2582D01*
X15421Y2583D01*
X15420Y2584D01*
X15398Y2596D01*
X15376Y2608D01*
X15375Y2608D01*
X15373Y2609D01*
X15349Y2616D01*
X15326Y2624D01*
X15324Y2624D01*
X15323Y2624D01*
X15298Y2627D01*
X15273Y2629D01*
X15270Y2629D01*
X15270Y2629D01*
X15270Y2629D01*
X15270Y2630D01*
X14461Y2630D01*
X14190Y2900D01*
X14171Y2916D01*
X14152Y2932D01*
X14151Y2933D01*
X14150Y2934D01*
X14128Y2946D01*
X14106Y2958D01*
X14105Y2958D01*
X14103Y2959D01*
X14079Y2966D01*
X14056Y2974D01*
X14054Y2974D01*
X14053Y2974D01*
X14028Y2977D01*
X14003Y2979D01*
X14000Y2979D01*
X14000Y2979D01*
X14000Y2979D01*
X14000Y2980D01*
X13790Y2980D01*
X13765Y2977D01*
X13740Y2975D01*
X13738Y2974D01*
X13737Y2974D01*
X13713Y2967D01*
X13689Y2960D01*
X13688Y2960D01*
X13687Y2959D01*
X13665Y2947D01*
X13642Y2936D01*
X13641Y2935D01*
X13640Y2934D01*
X13621Y2919D01*
X13601Y2903D01*
X13599Y2901D01*
X13599Y2901D01*
X13599Y2901D01*
X13599Y2900D01*
X12158Y1460D01*
X11790Y1460D01*
X10611Y1460D01*
X9947Y2124D01*
X9975Y2172D01*
X9988Y2211D01*
X9993Y2252D01*
X9991Y2293D01*
X9980Y2333D01*
X9962Y2370D01*
X9937Y2403D01*
X9907Y2430D01*
X9871Y2451D01*
X9256Y2806D01*
X9217Y2819D01*
X9176Y2824D01*
X9135Y2822D01*
X9095Y2811D01*
X9058Y2793D01*
X9025Y2768D01*
X8998Y2738D01*
X8989Y2723D01*
X8975Y2793D01*
X8933Y2896D01*
X8872Y2988D01*
X8794Y3066D01*
X8702Y3128D01*
X8693Y3132D01*
X8693Y3395D01*
X9787Y4490D01*
X10650Y4490D01*
X10673Y4492D01*
X10697Y4494D01*
X10699Y4494D01*
X10700Y4494D01*
X10723Y4501D01*
X10746Y4508D01*
X10747Y4509D01*
X10749Y4509D01*
X10770Y4520D01*
X10791Y4531D01*
X10792Y4532D01*
X10793Y4533D01*
X10812Y4548D01*
X10831Y4563D01*
X10833Y4565D01*
X10833Y4565D01*
X10833Y4565D01*
X10833Y4566D01*
X10957Y4689D01*
X10977Y4689D01*
X11047Y4701D01*
X11113Y4727D01*
X11172Y4764D01*
X11223Y4813D01*
X11264Y4871D01*
X11293Y4935D01*
X11308Y5004D01*
X11310Y5085D01*
X11303Y5119D01*
X11323Y5127D01*
X11382Y5164D01*
X11433Y5213D01*
X11474Y5271D01*
X11503Y5335D01*
X11518Y5404D01*
X11520Y5485D01*
X11516Y5501D01*
X11517Y5501D01*
X11583Y5527D01*
X11642Y5564D01*
X11693Y5613D01*
X11734Y5671D01*
X11763Y5735D01*
X11778Y5804D01*
X11780Y5885D01*
X11766Y5954D01*
X11739Y6019D01*
X11700Y6078D01*
X11650Y6128D01*
X11592Y6168D01*
X11526Y6195D01*
X11457Y6209D01*
X11387Y6210D01*
X11317Y6197D01*
X11252Y6170D01*
X11193Y6131D01*
X11142Y6082D01*
X11141Y6080D01*
X10740Y6080D01*
X10716Y6077D01*
X10692Y6075D01*
X10690Y6075D01*
X10689Y6075D01*
X10666Y6068D01*
X10643Y6061D01*
X10642Y6060D01*
X10640Y6060D01*
X10619Y6049D01*
X10598Y6038D01*
X10597Y6037D01*
X10596Y6036D01*
X10577Y6021D01*
X10558Y6006D01*
X10556Y6004D01*
X10556Y6004D01*
X10556Y6004D01*
X10556Y6003D01*
X10192Y5640D01*
X9480Y5640D01*
X9456Y5637D01*
X9432Y5635D01*
X9430Y5635D01*
X9429Y5635D01*
X9406Y5628D01*
X9383Y5621D01*
X9382Y5620D01*
X9380Y5620D01*
X9359Y5609D01*
X9338Y5598D01*
X9337Y5597D01*
X9336Y5596D01*
X9317Y5581D01*
X9298Y5566D01*
X9296Y5564D01*
X9296Y5564D01*
X9296Y5564D01*
X9296Y5563D01*
X7832Y4100D01*
X7030Y4100D01*
X7015Y4098D01*
X6970Y4128D01*
X6868Y4171D01*
X6760Y4193D01*
X6649Y4194D01*
X6540Y4173D01*
X6438Y4132D01*
X6345Y4071D01*
X6266Y3994D01*
X6204Y3903D01*
X6160Y3801D01*
X6137Y3693D01*
X6135Y3582D01*
X6155Y3473D01*
X6196Y3370D01*
X6256Y3277D01*
X6333Y3198D01*
X6424Y3135D01*
X6525Y3090D01*
X6633Y3066D01*
X6744Y3064D01*
X6853Y3083D01*
X6956Y3123D01*
X7002Y3153D01*
X7001Y3082D01*
X7021Y2973D01*
X7062Y2870D01*
X7122Y2777D01*
X7199Y2698D01*
X7290Y2635D01*
X7391Y2590D01*
X7499Y2566D01*
X7610Y2564D01*
X7719Y2583D01*
X7822Y2623D01*
X7868Y2653D01*
X7867Y2582D01*
X7887Y2473D01*
X7928Y2370D01*
X7988Y2277D01*
X8065Y2198D01*
X8156Y2135D01*
X8257Y2090D01*
X8365Y2066D01*
X8476Y2064D01*
X8585Y2083D01*
X8630Y2101D01*
X8622Y2087D01*
X8609Y2048D01*
X8604Y2007D01*
X8606Y1966D01*
X8617Y1926D01*
X8635Y1889D01*
X8660Y1856D01*
X8690Y1829D01*
X8726Y1808D01*
X9341Y1453D01*
X9380Y1440D01*
X9421Y1435D01*
X9462Y1437D01*
X9502Y1448D01*
X9539Y1466D01*
X9572Y1491D01*
X9599Y1521D01*
X9620Y1557D01*
X9668Y1640D01*
X10232Y1075D01*
X9661Y1235D01*
X7089Y2534D01*
X4818Y4308D01*
X2935Y6489D01*
X1512Y8994D01*
X804Y11124D01*
X806Y11121D01*
X808Y11119D01*
X808Y11119D01*
X808Y11119D01*
X809Y11119D01*
X1859Y10069D01*
X1859Y10069D01*
X2066Y9861D01*
X1969Y9843D01*
X1867Y9801D01*
X1774Y9740D01*
X1695Y9663D01*
X1633Y9572D01*
X1589Y9470D01*
X1566Y9362D01*
X1564Y9251D01*
X1584Y9142D01*
X1625Y9039D01*
X1685Y8946D01*
X1762Y8867D01*
X1853Y8804D01*
X1954Y8759D01*
X2062Y8735D01*
X2152Y8734D01*
X2133Y8706D01*
X2089Y8604D01*
X2066Y8496D01*
X2064Y8385D01*
X2084Y8276D01*
X2125Y8173D01*
X2185Y8080D01*
X2262Y8001D01*
X2353Y7938D01*
X2454Y7893D01*
X2562Y7869D01*
X2652Y7868D01*
X2633Y7840D01*
X2589Y7738D01*
X2566Y7630D01*
X2564Y7519D01*
X2584Y7410D01*
X2625Y7307D01*
X2685Y7214D01*
X2762Y7135D01*
X2853Y7071D01*
X2954Y7027D01*
X3036Y7009D01*
X3023Y7002D01*
X2992Y6975D01*
X2967Y6942D01*
X2948Y6905D01*
X2937Y6865D01*
X2935Y6824D01*
X2940Y6783D01*
X2953Y6744D01*
X2973Y6709D01*
X3328Y6094D01*
X3355Y6063D01*
X3388Y6037D01*
X3425Y6019D01*
X3465Y6008D01*
X3506Y6006D01*
X3547Y6011D01*
X3586Y6024D01*
X3621Y6044D01*
X4236Y6399D01*
X4267Y6426D01*
X4292Y6459D01*
X4311Y6496D01*
X4322Y6536D01*
X4324Y6577D01*
X4319Y6618D01*
X4306Y6657D01*
X4296Y6674D01*
X4750Y7129D01*
X4766Y7148D01*
X4782Y7167D01*
X4783Y7168D01*
X4784Y7169D01*
X4796Y7191D01*
X4808Y7213D01*
X4808Y7214D01*
X4809Y7216D01*
X4816Y7240D01*
X4824Y7263D01*
X4824Y7265D01*
X4824Y7266D01*
X4827Y7291D01*
X4829Y7316D01*
X4829Y7319D01*
X4829Y7319D01*
X4829Y7319D01*
X4830Y7320D01*
X4830Y8140D01*
X4827Y8164D01*
X4825Y8189D01*
X4824Y8191D01*
X4824Y8192D01*
X4817Y8216D01*
X4810Y8240D01*
X4810Y8241D01*
X4809Y8242D01*
X4797Y8264D01*
X4786Y8287D01*
X4785Y8288D01*
X4784Y8289D01*
X4769Y8308D01*
X4753Y8328D01*
X4751Y8330D01*
X4751Y8330D01*
X4751Y8330D01*
X4750Y8330D01*
X2930Y10150D01*
X2911Y10166D01*
X2892Y10182D01*
X2891Y10183D01*
X2890Y10184D01*
X2868Y10196D01*
X2846Y10208D01*
X2845Y10208D01*
X2843Y10209D01*
X2819Y10216D01*
X2796Y10224D01*
X2794Y10224D01*
X2793Y10224D01*
X2768Y10227D01*
X2743Y10229D01*
X2740Y10229D01*
X2740Y10229D01*
X2740Y10229D01*
X2740Y10230D01*
X2461Y10230D01*
X2240Y10450D01*
X2240Y10450D01*
X1270Y11421D01*
X1270Y12935D01*
X1374Y12935D01*
X1415Y12943D01*
X1453Y12959D01*
X1487Y12982D01*
X1516Y13011D01*
X1539Y13045D01*
X1555Y13083D01*
X1564Y13123D01*
X1564Y13164D01*
X1564Y13682D01*
X1995Y14114D01*
X2011Y14133D01*
X2027Y14152D01*
X2028Y14153D01*
X2029Y14154D01*
X2041Y14176D01*
X2053Y14198D01*
X2053Y14199D01*
X2054Y14201D01*
X2061Y14225D01*
X2069Y14248D01*
X2069Y14250D01*
X2069Y14251D01*
X2072Y14276D01*
X2074Y14301D01*
X2074Y14304D01*
X2074Y14304D01*
X2074Y14304D01*
X2075Y14305D01*
X2075Y14883D01*
X2421Y15230D01*
X3202Y15230D01*
X3255Y15147D01*
X3332Y15068D01*
X3423Y15005D01*
X3433Y15000D01*
X3344Y14941D01*
X3265Y14864D01*
X3203Y14773D01*
X3194Y14753D01*
X3176Y14748D01*
X3153Y14741D01*
X3152Y14740D01*
X3150Y14740D01*
X3129Y14729D01*
X3108Y14718D01*
X3107Y14717D01*
X3106Y14716D01*
X3087Y14701D01*
X3068Y14686D01*
X3066Y14684D01*
X3066Y14684D01*
X3066Y14684D01*
X3066Y14683D01*
X2766Y14383D01*
X2750Y14365D01*
X2735Y14346D01*
X2734Y14345D01*
X2733Y14344D01*
X2722Y14323D01*
X2711Y14302D01*
X2710Y14301D01*
X2709Y14299D01*
X2702Y14276D01*
X2695Y14254D01*
X2695Y14252D01*
X2695Y14251D01*
X2692Y14227D01*
X2690Y14203D01*
X2690Y14200D01*
X2690Y14200D01*
X2690Y14200D01*
X2690Y14200D01*
X2690Y12950D01*
X2692Y12926D01*
X2694Y12902D01*
X2694Y12900D01*
X2694Y12899D01*
X2701Y12876D01*
X2708Y12853D01*
X2709Y12852D01*
X2709Y12850D01*
X2720Y12829D01*
X2731Y12808D01*
X2732Y12807D01*
X2733Y12806D01*
X2748Y12787D01*
X2763Y12768D01*
X2765Y12766D01*
X2765Y12766D01*
X2765Y12766D01*
X2766Y12766D01*
X2896Y12636D01*
X2914Y12620D01*
X2933Y12605D01*
X2934Y12604D01*
X2935Y12603D01*
X2956Y12592D01*
X2977Y12581D01*
X2978Y12580D01*
X2980Y12579D01*
X3003Y12572D01*
X3025Y12565D01*
X3027Y12565D01*
X3028Y12565D01*
X3052Y12562D01*
X3076Y12560D01*
X3079Y12560D01*
X3079Y12560D01*
X3079Y12560D01*
X3080Y12560D01*
X4160Y12560D01*
X4183Y12562D01*
X4207Y12564D01*
X4209Y12564D01*
X4210Y12564D01*
X4233Y12571D01*
X4256Y12578D01*
X4257Y12579D01*
X4259Y12579D01*
X4280Y12590D01*
X4301Y12601D01*
X4302Y12602D01*
X4303Y12603D01*
X4322Y12618D01*
X4341Y12633D01*
X4343Y12635D01*
X4343Y12635D01*
X4343Y12635D01*
X4343Y12636D01*
X4637Y12930D01*
X5230Y12930D01*
X5209Y12919D01*
X5188Y12908D01*
X5187Y12907D01*
X5186Y12906D01*
X5167Y12891D01*
X5148Y12876D01*
X5146Y12874D01*
X5146Y12874D01*
X5146Y12874D01*
X5146Y12873D01*
X3806Y11533D01*
X3790Y11515D01*
X3775Y11496D01*
X3774Y11495D01*
X3773Y11494D01*
X3762Y11473D01*
X3751Y11452D01*
X3750Y11451D01*
X3749Y11449D01*
X3742Y11426D01*
X3735Y11404D01*
X3735Y11402D01*
X3735Y11401D01*
X3732Y11377D01*
X3730Y11353D01*
X3730Y11350D01*
X3730Y11350D01*
X3730Y11350D01*
X3730Y11350D01*
X3730Y9710D01*
X3732Y9686D01*
X3734Y9662D01*
X3734Y9660D01*
X3734Y9659D01*
X3741Y9636D01*
X3748Y9613D01*
X3749Y9612D01*
X3749Y9610D01*
X3760Y9589D01*
X3771Y9568D01*
X3772Y9567D01*
X3773Y9566D01*
X3788Y9547D01*
X3803Y9528D01*
X3805Y9526D01*
X3805Y9526D01*
X3805Y9526D01*
X3806Y9526D01*
X4906Y8426D01*
X4924Y8410D01*
X4943Y8395D01*
X4944Y8394D01*
X4945Y8393D01*
X4966Y8382D01*
X4987Y8371D01*
X4988Y8370D01*
X4990Y8369D01*
X5013Y8362D01*
X5035Y8355D01*
X5037Y8355D01*
X5038Y8355D01*
X5062Y8352D01*
X5086Y8350D01*
X5089Y8350D01*
X5089Y8350D01*
X5089Y8350D01*
X5090Y8350D01*
X10682Y8350D01*
X13010Y6022D01*
X13010Y5460D01*
X13010Y4980D01*
X13012Y4956D01*
X13014Y4932D01*
X13014Y4930D01*
X13014Y4929D01*
X13021Y4906D01*
X13028Y4883D01*
X13029Y4882D01*
X13029Y4880D01*
X13040Y4859D01*
X13051Y4838D01*
X13052Y4837D01*
X13053Y4836D01*
X13068Y4817D01*
X13083Y4798D01*
X13085Y4796D01*
X13085Y4796D01*
X13085Y4796D01*
X13086Y4796D01*
X14686Y3196D01*
X14704Y3180D01*
X14723Y3165D01*
X14724Y3164D01*
X14725Y3163D01*
X14746Y3152D01*
X14767Y3141D01*
X14768Y3140D01*
X14770Y3139D01*
X14793Y3132D01*
X14815Y3125D01*
X14817Y3125D01*
X14818Y3125D01*
X14842Y3122D01*
X14866Y3120D01*
X14869Y3120D01*
X14869Y3120D01*
X14869Y3120D01*
X14870Y3120D01*
X19510Y3120D01*
X19533Y3122D01*
X19557Y3124D01*
X19559Y3124D01*
X19560Y3124D01*
X19583Y3131D01*
X19606Y3138D01*
X19607Y3139D01*
X19609Y3139D01*
X19630Y3150D01*
X19651Y3161D01*
X19652Y3162D01*
X19653Y3163D01*
X19672Y3178D01*
X19691Y3193D01*
X19693Y3195D01*
X19693Y3195D01*
X19693Y3195D01*
X19693Y3196D01*
X22167Y5670D01*
X23850Y5670D01*
X23865Y5654D01*
X23923Y5614D01*
X23988Y5585D01*
X24057Y5570D01*
X24127Y5569D01*
X24197Y5581D01*
X24263Y5607D01*
X24322Y5644D01*
X24373Y5693D01*
X24414Y5751D01*
X24443Y5815D01*
X24458Y5884D01*
X24460Y5965D01*
X24449Y6020D01*
X24600Y6020D01*
X24615Y6004D01*
X24673Y5964D01*
X24738Y5935D01*
X24807Y5920D01*
X24877Y5919D01*
X24947Y5931D01*
X25013Y5957D01*
X25072Y5994D01*
X25123Y6043D01*
X25164Y6101D01*
X25193Y6165D01*
X25208Y6234D01*
X25210Y6315D01*
X25196Y6384D01*
X25173Y6440D01*
X25866Y6440D01*
X25925Y6348D01*
X26002Y6269D01*
X26093Y6205D01*
X26194Y6161D01*
X26302Y6137D01*
X26413Y6135D01*
X26522Y6154D01*
X26625Y6194D01*
X26719Y6254D01*
X26799Y6330D01*
X26863Y6420D01*
X26908Y6521D01*
X26932Y6629D01*
X26934Y6756D01*
X26912Y6864D01*
X26870Y6967D01*
X26846Y7002D01*
X26913Y7001D01*
X27022Y7020D01*
X27125Y7060D01*
X27219Y7120D01*
X27299Y7196D01*
X27363Y7286D01*
X27408Y7387D01*
X27432Y7495D01*
X27434Y7622D01*
X27412Y7730D01*
X27370Y7833D01*
X27346Y7869D01*
X27413Y7867D01*
X27522Y7886D01*
X27625Y7926D01*
X27719Y7986D01*
X27799Y8062D01*
X27863Y8152D01*
X27908Y8254D01*
X27932Y8361D01*
X27934Y8488D01*
X27912Y8596D01*
X27898Y8630D01*
X27912Y8622D01*
X27951Y8609D01*
X27992Y8604D01*
X28033Y8606D01*
X28073Y8617D01*
X28110Y8635D01*
X28143Y8660D01*
X28170Y8690D01*
X28191Y8726D01*
X28546Y9341D01*
X28559Y9380D01*
X28564Y9421D01*
X28562Y9462D01*
X28551Y9502D01*
X28533Y9539D01*
X28508Y9572D01*
X28478Y9599D01*
X28442Y9620D01*
X28140Y9794D01*
X28140Y16018D01*
X28351Y16230D01*
X28435Y16230D01*
X28435Y16125D01*
X28443Y16084D01*
X28459Y16046D01*
X28482Y16012D01*
X28511Y15983D01*
X28545Y15960D01*
X28583Y15944D01*
X28623Y15935D01*
X28638Y15935D01*
X28565Y15864D01*
X28503Y15773D01*
X28459Y15671D01*
X28436Y15563D01*
X28434Y15452D01*
X28454Y15343D01*
X28495Y15240D01*
X28555Y15147D01*
X28632Y15068D01*
X28723Y15005D01*
X28733Y15000D01*
X28644Y14941D01*
X28565Y14864D01*
X28503Y14773D01*
X28459Y14671D01*
X28436Y14563D01*
X28434Y14452D01*
X28454Y14343D01*
X28495Y14240D01*
X28555Y14147D01*
X28632Y14068D01*
X28723Y14005D01*
X28733Y14000D01*
X28644Y13941D01*
X28565Y13864D01*
X28503Y13773D01*
X28459Y13671D01*
X28436Y13563D01*
X28434Y13452D01*
X28454Y13343D01*
X28495Y13240D01*
X28555Y13147D01*
X28632Y13068D01*
X28723Y13005D01*
X28824Y12960D01*
X28932Y12936D01*
X29043Y12934D01*
X29152Y12953D01*
X29255Y12993D01*
X29349Y13053D01*
X29429Y13129D01*
X29493Y13219D01*
X29538Y13321D01*
X29562Y13428D01*
X29564Y13555D01*
X29542Y13663D01*
X29500Y13766D01*
X29439Y13858D01*
X29361Y13936D01*
X29269Y13998D01*
X29265Y14000D01*
X29349Y14053D01*
X29429Y14129D01*
X29493Y14219D01*
X29538Y14321D01*
X29562Y14428D01*
X29564Y14555D01*
X29542Y14663D01*
X29500Y14766D01*
X29439Y14858D01*
X29361Y14936D01*
X29269Y14998D01*
X29265Y15000D01*
X29349Y15053D01*
X29429Y15129D01*
X29493Y15219D01*
X29538Y15321D01*
X29562Y15428D01*
X29564Y15555D01*
X29542Y15663D01*
X29500Y15766D01*
X29439Y15858D01*
X29362Y15935D01*
X29374Y15935D01*
X29415Y15943D01*
X29453Y15959D01*
X29487Y15982D01*
X29516Y16011D01*
X29539Y16045D01*
X29555Y16083D01*
X29564Y16123D01*
X29564Y16164D01*
X29564Y16874D01*
X29556Y16915D01*
X29540Y16953D01*
X29517Y16987D01*
X29488Y17016D01*
X29454Y17039D01*
X29416Y17055D01*
X29376Y17064D01*
X29335Y17064D01*
X28625Y17064D01*
X28584Y17056D01*
X28546Y17040D01*
X28512Y17017D01*
X28483Y16988D01*
X28460Y16954D01*
X28444Y16916D01*
X28435Y16876D01*
X28435Y16835D01*
X28435Y16770D01*
X28240Y16770D01*
X28215Y16767D01*
X28190Y16765D01*
X28188Y16764D01*
X28187Y16764D01*
X28163Y16757D01*
X28139Y16750D01*
X28138Y16750D01*
X28137Y16749D01*
X28115Y16737D01*
X28092Y16726D01*
X28091Y16725D01*
X28090Y16724D01*
X28071Y16709D01*
X28051Y16693D01*
X28049Y16691D01*
X28049Y16691D01*
X28049Y16691D01*
X28049Y16690D01*
X27679Y16320D01*
X27663Y16301D01*
X27647Y16282D01*
X27646Y16281D01*
X27645Y16280D01*
X27633Y16258D01*
X27621Y16236D01*
X27621Y16235D01*
X27620Y16233D01*
X27613Y16209D01*
X27605Y16186D01*
X27605Y16184D01*
X27605Y16183D01*
X27602Y16158D01*
X27600Y16133D01*
X27600Y16130D01*
X27600Y16130D01*
X27600Y16130D01*
X27600Y16130D01*
X27600Y9940D01*
X27596Y9937D01*
X27569Y9907D01*
X27548Y9871D01*
X27193Y9256D01*
X27180Y9217D01*
X27175Y9176D01*
X27177Y9135D01*
X27188Y9095D01*
X27206Y9058D01*
X27231Y9025D01*
X27261Y8998D01*
X27276Y8989D01*
X27209Y8977D01*
X27107Y8935D01*
X27014Y8874D01*
X26935Y8797D01*
X26873Y8706D01*
X26829Y8604D01*
X26806Y8496D01*
X26804Y8385D01*
X26824Y8276D01*
X26865Y8173D01*
X26893Y8131D01*
X26818Y8131D01*
X26709Y8110D01*
X26607Y8069D01*
X26514Y8008D01*
X26435Y7931D01*
X26373Y7840D01*
X26329Y7738D01*
X26306Y7630D01*
X26304Y7519D01*
X26324Y7410D01*
X26365Y7307D01*
X26393Y7265D01*
X26318Y7265D01*
X26209Y7244D01*
X26107Y7203D01*
X26014Y7142D01*
X25935Y7065D01*
X25873Y6974D01*
X25867Y6960D01*
X22940Y6960D01*
X22346Y6960D01*
X22346Y8505D01*
X22343Y8537D01*
X22343Y10341D01*
X22322Y10449D01*
X22280Y10552D01*
X22218Y10644D01*
X22140Y10722D01*
X22049Y10784D01*
X21947Y10827D01*
X21838Y10849D01*
X21728Y10850D01*
X21619Y10829D01*
X21516Y10788D01*
X21424Y10727D01*
X21345Y10650D01*
X21282Y10559D01*
X21239Y10457D01*
X21216Y10349D01*
X21214Y10238D01*
X21234Y10129D01*
X21275Y10026D01*
X21335Y9933D01*
X21412Y9853D01*
X21502Y9790D01*
X21604Y9746D01*
X21712Y9722D01*
X21823Y9720D01*
X21932Y9739D01*
X22035Y9779D01*
X22128Y9838D01*
X22208Y9915D01*
X22272Y10005D01*
X22317Y10106D01*
X22342Y10214D01*
X22343Y10341D01*
X22343Y8537D01*
X22337Y8615D01*
X22307Y8722D01*
X22256Y8820D01*
X22246Y8835D01*
X22153Y8867D01*
X22132Y8846D01*
X22132Y8888D01*
X22100Y8981D01*
X22003Y9035D01*
X21898Y9068D01*
X21788Y9081D01*
X21677Y9072D01*
X21571Y9041D01*
X21473Y8991D01*
X21458Y8981D01*
X21426Y8888D01*
X21779Y8535D01*
X22132Y8888D01*
X22132Y8846D01*
X21800Y8514D01*
X22153Y8161D01*
X22246Y8193D01*
X22300Y8290D01*
X22334Y8395D01*
X22346Y8505D01*
X22346Y6960D01*
X22180Y6960D01*
X22157Y6958D01*
X22133Y6956D01*
X22132Y6956D01*
X22132Y8139D01*
X21779Y8492D01*
X21758Y8471D01*
X21758Y8514D01*
X21405Y8867D01*
X21312Y8835D01*
X21258Y8738D01*
X21225Y8632D01*
X21212Y8522D01*
X21221Y8412D01*
X21251Y8306D01*
X21302Y8207D01*
X21312Y8193D01*
X21405Y8161D01*
X21758Y8514D01*
X21758Y8471D01*
X21426Y8139D01*
X21458Y8046D01*
X21555Y7993D01*
X21660Y7959D01*
X21770Y7947D01*
X21881Y7956D01*
X21987Y7986D01*
X22086Y8037D01*
X22100Y8046D01*
X22132Y8139D01*
X22132Y6956D01*
X22131Y6956D01*
X22130Y6956D01*
X22107Y6949D01*
X22084Y6942D01*
X22083Y6941D01*
X22081Y6941D01*
X22060Y6930D01*
X22039Y6919D01*
X22038Y6918D01*
X22037Y6917D01*
X22018Y6902D01*
X21999Y6887D01*
X21997Y6885D01*
X21997Y6885D01*
X21997Y6885D01*
X21997Y6884D01*
X19787Y4675D01*
X19787Y8505D01*
X19778Y8615D01*
X19748Y8722D01*
X19697Y8820D01*
X19687Y8835D01*
X19594Y8867D01*
X19573Y8846D01*
X19573Y8888D01*
X19541Y8981D01*
X19444Y9035D01*
X19339Y9068D01*
X19229Y9081D01*
X19118Y9072D01*
X19012Y9041D01*
X18913Y8991D01*
X18899Y8981D01*
X18867Y8888D01*
X19220Y8535D01*
X19573Y8888D01*
X19573Y8846D01*
X19241Y8514D01*
X19594Y8161D01*
X19687Y8193D01*
X19741Y8290D01*
X19774Y8395D01*
X19787Y8505D01*
X19787Y4675D01*
X19573Y4461D01*
X19573Y8139D01*
X19220Y8492D01*
X19199Y8471D01*
X19199Y8514D01*
X18846Y8867D01*
X18753Y8835D01*
X18699Y8738D01*
X18665Y8632D01*
X18653Y8522D01*
X18662Y8412D01*
X18692Y8306D01*
X18743Y8207D01*
X18753Y8193D01*
X18846Y8161D01*
X19199Y8514D01*
X19199Y8471D01*
X18867Y8139D01*
X18899Y8046D01*
X18996Y7993D01*
X19101Y7959D01*
X19211Y7947D01*
X19322Y7956D01*
X19428Y7986D01*
X19526Y8037D01*
X19541Y8046D01*
X19573Y8139D01*
X19573Y4461D01*
X19182Y4070D01*
X17902Y4070D01*
X17902Y6570D01*
X17875Y6709D01*
X17821Y6840D01*
X17743Y6958D01*
X17643Y7058D01*
X17526Y7138D01*
X17395Y7192D01*
X17256Y7221D01*
X17115Y7222D01*
X16976Y7195D01*
X16845Y7142D01*
X16726Y7065D01*
X16625Y6966D01*
X16545Y6849D01*
X16489Y6719D01*
X16460Y6580D01*
X16458Y6439D01*
X16483Y6300D01*
X16536Y6168D01*
X16612Y6049D01*
X16711Y5947D01*
X16827Y5866D01*
X16956Y5810D01*
X17095Y5779D01*
X17236Y5776D01*
X17376Y5801D01*
X17508Y5852D01*
X17627Y5928D01*
X17730Y6026D01*
X17811Y6141D01*
X17869Y6271D01*
X17900Y6409D01*
X17902Y6570D01*
X17902Y4070D01*
X16725Y4070D01*
X16725Y4634D01*
X16714Y4775D01*
X16676Y4911D01*
X16612Y5038D01*
X16595Y5063D01*
X16486Y5114D01*
X16465Y5093D01*
X16465Y5135D01*
X16414Y5245D01*
X16290Y5314D01*
X16155Y5357D01*
X16015Y5374D01*
X15874Y5363D01*
X15737Y5325D01*
X15611Y5262D01*
X15585Y5245D01*
X15544Y5155D01*
X15544Y6484D01*
X15533Y6625D01*
X15495Y6762D01*
X15431Y6888D01*
X15414Y6914D01*
X15305Y6965D01*
X15283Y6943D01*
X15283Y6986D01*
X15232Y7095D01*
X15109Y7164D01*
X14974Y7208D01*
X14834Y7225D01*
X14693Y7214D01*
X14556Y7176D01*
X14430Y7112D01*
X14404Y7095D01*
X14353Y6986D01*
X14818Y6521D01*
X15283Y6986D01*
X15283Y6943D01*
X14840Y6500D01*
X15305Y6034D01*
X15414Y6085D01*
X15483Y6209D01*
X15527Y6344D01*
X15544Y6484D01*
X15544Y5155D01*
X15534Y5135D01*
X16000Y4670D01*
X16465Y5135D01*
X16465Y5093D01*
X16021Y4649D01*
X16486Y4184D01*
X16595Y4235D01*
X16664Y4359D01*
X16708Y4493D01*
X16725Y4634D01*
X16725Y4070D01*
X16421Y4070D01*
X16465Y4163D01*
X16000Y4628D01*
X15978Y4607D01*
X15978Y4649D01*
X15513Y5114D01*
X15404Y5063D01*
X15335Y4940D01*
X15291Y4805D01*
X15283Y4740D01*
X15283Y6013D01*
X14818Y6478D01*
X14797Y6457D01*
X14797Y6500D01*
X14332Y6965D01*
X14223Y6914D01*
X14154Y6790D01*
X14110Y6655D01*
X14093Y6515D01*
X14104Y6374D01*
X14142Y6237D01*
X14206Y6111D01*
X14223Y6085D01*
X14332Y6034D01*
X14797Y6500D01*
X14797Y6457D01*
X14353Y6013D01*
X14404Y5904D01*
X14528Y5835D01*
X14662Y5791D01*
X14803Y5774D01*
X14944Y5785D01*
X15081Y5823D01*
X15207Y5887D01*
X15232Y5904D01*
X15283Y6013D01*
X15283Y4740D01*
X15274Y4664D01*
X15285Y4523D01*
X15323Y4387D01*
X15387Y4261D01*
X15404Y4235D01*
X15513Y4184D01*
X15978Y4649D01*
X15978Y4607D01*
X15534Y4163D01*
X15578Y4070D01*
X15187Y4070D01*
X13950Y5307D01*
X13950Y5400D01*
X13950Y6330D01*
X13947Y6353D01*
X13945Y6377D01*
X13945Y6379D01*
X13945Y6380D01*
X13938Y6403D01*
X13931Y6426D01*
X13930Y6427D01*
X13930Y6429D01*
X13919Y6450D01*
X13908Y6471D01*
X13907Y6472D01*
X13906Y6473D01*
X13891Y6492D01*
X13876Y6511D01*
X13874Y6513D01*
X13874Y6513D01*
X13874Y6513D01*
X13873Y6513D01*
X11173Y9213D01*
X11155Y9229D01*
X11136Y9244D01*
X11135Y9245D01*
X11134Y9246D01*
X11113Y9257D01*
X11092Y9268D01*
X11091Y9269D01*
X11089Y9270D01*
X11066Y9277D01*
X11044Y9284D01*
X11042Y9284D01*
X11041Y9284D01*
X11017Y9287D01*
X10993Y9289D01*
X10990Y9289D01*
X10990Y9289D01*
X10990Y9289D01*
X10990Y9290D01*
X6687Y9290D01*
X6837Y9440D01*
X10250Y9440D01*
X10273Y9442D01*
X10297Y9444D01*
X10299Y9444D01*
X10300Y9444D01*
X10323Y9451D01*
X10346Y9458D01*
X10347Y9459D01*
X10349Y9459D01*
X10370Y9470D01*
X10391Y9481D01*
X10392Y9482D01*
X10393Y9483D01*
X10412Y9498D01*
X10431Y9513D01*
X10433Y9515D01*
X10433Y9515D01*
X10433Y9515D01*
X10433Y9516D01*
X12133Y11216D01*
X12149Y11234D01*
X12164Y11253D01*
X12165Y11254D01*
X12166Y11255D01*
X12177Y11276D01*
X12188Y11297D01*
X12189Y11298D01*
X12190Y11300D01*
X12197Y11323D01*
X12204Y11345D01*
X12204Y11347D01*
X12204Y11348D01*
X12207Y11372D01*
X12209Y11396D01*
X12209Y11399D01*
X12209Y11399D01*
X12209Y11399D01*
X12210Y11400D01*
X12210Y11820D01*
X12223Y11833D01*
X12264Y11891D01*
X12293Y11955D01*
X12308Y12024D01*
X12310Y12105D01*
X12296Y12174D01*
X12269Y12239D01*
X12230Y12298D01*
X12180Y12348D01*
X12122Y12388D01*
X12056Y12415D01*
X11987Y12429D01*
X11917Y12430D01*
X11847Y12417D01*
X11782Y12390D01*
X11723Y12351D01*
X11679Y12309D01*
X11616Y12335D01*
X11547Y12349D01*
X11477Y12350D01*
X11407Y12337D01*
X11342Y12310D01*
X11283Y12271D01*
X11232Y12222D01*
X11193Y12164D01*
X11165Y12099D01*
X11150Y12030D01*
X11149Y11959D01*
X11162Y11890D01*
X11165Y11882D01*
X11133Y11861D01*
X11082Y11812D01*
X11043Y11754D01*
X11015Y11689D01*
X11000Y11620D01*
X11000Y11587D01*
X9812Y10400D01*
X9177Y10400D01*
X9363Y10586D01*
X9379Y10604D01*
X9394Y10623D01*
X9395Y10624D01*
X9396Y10625D01*
X9407Y10646D01*
X9418Y10667D01*
X9419Y10668D01*
X9420Y10670D01*
X9427Y10693D01*
X9434Y10715D01*
X9434Y10717D01*
X9434Y10718D01*
X9437Y10742D01*
X9439Y10766D01*
X9439Y10769D01*
X9439Y10769D01*
X9439Y10769D01*
X9440Y10770D01*
X9440Y11810D01*
X9440Y11972D01*
X10392Y12925D01*
X10450Y12925D01*
X11085Y12925D01*
X11108Y12927D01*
X11132Y12929D01*
X11134Y12929D01*
X11135Y12929D01*
X11158Y12936D01*
X11181Y12943D01*
X11182Y12944D01*
X11184Y12944D01*
X11205Y12955D01*
X11226Y12966D01*
X11227Y12967D01*
X11228Y12968D01*
X11247Y12983D01*
X11266Y12998D01*
X11268Y13000D01*
X11268Y13000D01*
X11268Y13000D01*
X11268Y13001D01*
X11870Y13602D01*
X11870Y13249D01*
X11862Y13242D01*
X11823Y13184D01*
X11795Y13119D01*
X11780Y13050D01*
X11779Y12979D01*
X11792Y12910D01*
X11818Y12844D01*
X11856Y12785D01*
X11905Y12734D01*
X11963Y12694D01*
X12028Y12665D01*
X12097Y12650D01*
X12167Y12649D01*
X12237Y12661D01*
X12303Y12687D01*
X12362Y12724D01*
X12413Y12773D01*
X12454Y12831D01*
X12483Y12895D01*
X12498Y12964D01*
X12500Y13045D01*
X12486Y13114D01*
X12459Y13179D01*
X12420Y13238D01*
X12410Y13249D01*
X12410Y13668D01*
X12501Y13759D01*
X12507Y13759D01*
X12540Y13765D01*
X12540Y11170D01*
X12542Y11146D01*
X12544Y11122D01*
X12544Y11120D01*
X12544Y11119D01*
X12551Y11096D01*
X12558Y11073D01*
X12559Y11072D01*
X12559Y11070D01*
X12570Y11049D01*
X12581Y11028D01*
X12582Y11027D01*
X12583Y11026D01*
X12598Y11007D01*
X12613Y10988D01*
X12615Y10986D01*
X12615Y10986D01*
X12615Y10986D01*
X12616Y10986D01*
X13500Y10101D01*
X13518Y10086D01*
X13537Y10071D01*
X13538Y10070D01*
X13539Y10069D01*
X13560Y10058D01*
X13581Y10046D01*
X13583Y10046D01*
X13584Y10045D01*
X13607Y10038D01*
X13630Y10031D01*
X13631Y10031D01*
X13632Y10030D01*
X13656Y10028D01*
X13680Y10025D01*
X13683Y10025D01*
X13683Y10025D01*
X13683Y10025D01*
X13684Y10025D01*
X18716Y10025D01*
X18776Y9933D01*
X18852Y9853D01*
X18943Y9790D01*
X19045Y9746D01*
X19153Y9722D01*
X19263Y9720D01*
X19372Y9739D01*
X19476Y9779D01*
X19569Y9838D01*
X19649Y9915D01*
X19713Y10005D01*
X19758Y10106D01*
X19783Y10214D01*
X19784Y10341D01*
X19763Y10449D01*
X19721Y10552D01*
X19659Y10644D01*
X19581Y10722D01*
X19490Y10784D01*
X19388Y10827D01*
X19279Y10849D01*
X19169Y10850D01*
X19060Y10829D01*
X18957Y10788D01*
X18865Y10727D01*
X18786Y10650D01*
X18723Y10559D01*
X18717Y10545D01*
X13791Y10545D01*
X13060Y11277D01*
X13060Y12982D01*
X13476Y12566D01*
X13494Y12550D01*
X13513Y12535D01*
X13514Y12534D01*
X13515Y12533D01*
X13536Y12522D01*
X13557Y12511D01*
X13558Y12510D01*
X13560Y12509D01*
X13583Y12502D01*
X13605Y12495D01*
X13607Y12495D01*
X13608Y12495D01*
X13632Y12492D01*
X13656Y12490D01*
X13659Y12490D01*
X13659Y12490D01*
X13659Y12490D01*
X13660Y12490D01*
X14300Y12490D01*
X14323Y12492D01*
X14347Y12494D01*
X14349Y12494D01*
X14350Y12494D01*
X14373Y12501D01*
X14396Y12508D01*
X14397Y12509D01*
X14399Y12509D01*
X14420Y12520D01*
X14441Y12531D01*
X14442Y12532D01*
X14443Y12533D01*
X14462Y12548D01*
X14481Y12563D01*
X14483Y12565D01*
X14483Y12565D01*
X14483Y12565D01*
X14483Y12566D01*
X15630Y13712D01*
X15653Y13654D01*
X15691Y13595D01*
X15740Y13544D01*
X15798Y13504D01*
X15863Y13475D01*
X15932Y13460D01*
X16002Y13459D01*
X16072Y13471D01*
X16138Y13497D01*
X16197Y13534D01*
X16248Y13583D01*
X16289Y13641D01*
X16318Y13705D01*
X16324Y13735D01*
X18895Y13735D01*
X18918Y13737D01*
X18942Y13739D01*
X18944Y13739D01*
X18945Y13739D01*
X18968Y13746D01*
X18991Y13753D01*
X18992Y13754D01*
X18994Y13754D01*
X19015Y13765D01*
X19036Y13776D01*
X19037Y13777D01*
X19038Y13778D01*
X19057Y13793D01*
X19076Y13808D01*
X19078Y13810D01*
X19078Y13810D01*
X19078Y13810D01*
X19078Y13811D01*
X22112Y16845D01*
X22925Y16845D01*
X22948Y16847D01*
X22972Y16849D01*
X22974Y16849D01*
X22975Y16849D01*
X22998Y16856D01*
X23021Y16863D01*
X23022Y16864D01*
X23024Y16864D01*
X23045Y16875D01*
X23066Y16886D01*
X23067Y16887D01*
X23068Y16888D01*
X23087Y16903D01*
X23106Y16918D01*
X23108Y16920D01*
X23108Y16920D01*
X23108Y16920D01*
X23108Y16921D01*
X23297Y17109D01*
X23317Y17109D01*
X23387Y17121D01*
X23453Y17147D01*
X23512Y17184D01*
X23563Y17233D01*
X23604Y17291D01*
X23633Y17355D01*
X23648Y17424D01*
X23650Y17505D01*
X23636Y17574D01*
X23609Y17639D01*
X23570Y17698D01*
X23520Y17748D01*
X23462Y17788D01*
X23396Y17815D01*
X23337Y17827D01*
X23326Y17884D01*
X23299Y17949D01*
X23260Y18008D01*
X23210Y18058D01*
X23152Y18098D01*
X23086Y18125D01*
X23017Y18139D01*
X22947Y18140D01*
X22877Y18127D01*
X22812Y18100D01*
X22753Y18061D01*
X22702Y18012D01*
X22663Y17954D01*
X22635Y17889D01*
X22620Y17820D01*
X22620Y17787D01*
X22409Y17577D01*
X21912Y17577D01*
X21888Y17575D01*
X21864Y17573D01*
X21863Y17572D01*
X21861Y17572D01*
X21838Y17565D01*
X21815Y17558D01*
X21814Y17558D01*
X21813Y17557D01*
X21792Y17546D01*
X21770Y17535D01*
X21769Y17534D01*
X21768Y17534D01*
X21750Y17518D01*
X21731Y17503D01*
X21729Y17502D01*
X21729Y17501D01*
X21729Y17501D01*
X21728Y17501D01*
X18702Y14475D01*
X17434Y14475D01*
X17438Y14494D01*
X17440Y14575D01*
X17426Y14644D01*
X17399Y14709D01*
X17360Y14768D01*
X17310Y14818D01*
X17252Y14858D01*
X17186Y14885D01*
X17117Y14899D01*
X17087Y14899D01*
X16983Y15003D01*
X16965Y15019D01*
X16946Y15034D01*
X16945Y15035D01*
X16944Y15036D01*
X16923Y15047D01*
X16902Y15058D01*
X16901Y15059D01*
X16899Y15060D01*
X16876Y15067D01*
X16854Y15074D01*
X16852Y15074D01*
X16851Y15074D01*
X16827Y15077D01*
X16803Y15079D01*
X16800Y15079D01*
X16800Y15079D01*
X16800Y15079D01*
X16800Y15080D01*
X15849Y15080D01*
X15830Y15098D01*
X15772Y15138D01*
X15706Y15165D01*
X15637Y15179D01*
X15567Y15180D01*
X15497Y15167D01*
X15432Y15140D01*
X15373Y15101D01*
X15322Y15052D01*
X15283Y14994D01*
X15255Y14929D01*
X15240Y14860D01*
X15239Y14789D01*
X15252Y14720D01*
X15278Y14654D01*
X15316Y14595D01*
X15365Y14544D01*
X15423Y14504D01*
X15488Y14475D01*
X15557Y14460D01*
X15627Y14459D01*
X15697Y14471D01*
X15763Y14497D01*
X15822Y14534D01*
X15849Y14560D01*
X16692Y14560D01*
X16719Y14532D01*
X16719Y14509D01*
X16725Y14475D01*
X15765Y14475D01*
X15741Y14472D01*
X15717Y14470D01*
X15715Y14470D01*
X15714Y14470D01*
X15691Y14463D01*
X15668Y14456D01*
X15667Y14455D01*
X15665Y14455D01*
X15644Y14444D01*
X15623Y14433D01*
X15622Y14432D01*
X15621Y14431D01*
X15602Y14416D01*
X15583Y14401D01*
X15581Y14399D01*
X15581Y14399D01*
X15581Y14399D01*
X15581Y14398D01*
X14950Y13767D01*
X14950Y15389D01*
X14953Y15393D01*
X14994Y15451D01*
X15023Y15515D01*
X15038Y15584D01*
X15040Y15665D01*
X15026Y15734D01*
X14999Y15799D01*
X14960Y15858D01*
X14910Y15908D01*
X14852Y15948D01*
X14786Y15975D01*
X14717Y15989D01*
X14647Y15990D01*
X14577Y15977D01*
X14512Y15950D01*
X14453Y15911D01*
X14402Y15862D01*
X14363Y15804D01*
X14335Y15739D01*
X14320Y15670D01*
X14319Y15599D01*
X14332Y15530D01*
X14358Y15464D01*
X14396Y15405D01*
X14410Y15391D01*
X14410Y13781D01*
X14368Y13740D01*
X14357Y13740D01*
X14287Y13727D01*
X14222Y13700D01*
X14163Y13661D01*
X14112Y13612D01*
X14073Y13554D01*
X14045Y13489D01*
X14030Y13420D01*
X14029Y13349D01*
X14042Y13280D01*
X14068Y13214D01*
X14106Y13155D01*
X14155Y13104D01*
X14213Y13064D01*
X14236Y13054D01*
X14192Y13010D01*
X13767Y13010D01*
X13395Y13382D01*
X13395Y13695D01*
X13408Y13708D01*
X13449Y13766D01*
X13478Y13830D01*
X13493Y13899D01*
X13495Y13980D01*
X13481Y14049D01*
X13454Y14114D01*
X13415Y14173D01*
X13365Y14223D01*
X13309Y14261D01*
X13803Y14756D01*
X13819Y14774D01*
X13834Y14793D01*
X13835Y14794D01*
X13836Y14795D01*
X13847Y14816D01*
X13858Y14837D01*
X13859Y14838D01*
X13860Y14840D01*
X13867Y14863D01*
X13874Y14885D01*
X13874Y14887D01*
X13874Y14888D01*
X13877Y14912D01*
X13879Y14936D01*
X13879Y14939D01*
X13879Y14939D01*
X13879Y14939D01*
X13880Y14940D01*
X13880Y15370D01*
X13880Y16387D01*
X13907Y16404D01*
X13934Y16430D01*
X14090Y16430D01*
X14810Y16430D01*
X14833Y16432D01*
X14857Y16434D01*
X14859Y16434D01*
X14860Y16434D01*
X14883Y16441D01*
X14906Y16448D01*
X14907Y16449D01*
X14909Y16449D01*
X14930Y16460D01*
X14951Y16471D01*
X14952Y16472D01*
X14953Y16473D01*
X14972Y16488D01*
X14991Y16503D01*
X14993Y16505D01*
X14993Y16505D01*
X14993Y16505D01*
X14993Y16506D01*
X16127Y17640D01*
X17110Y17640D01*
X22065Y17640D01*
X22088Y17642D01*
X22112Y17644D01*
X22114Y17644D01*
X22115Y17644D01*
X22138Y17651D01*
X22161Y17658D01*
X22162Y17659D01*
X22164Y17659D01*
X22185Y17670D01*
X22206Y17681D01*
X22207Y17682D01*
X22208Y17683D01*
X22227Y17698D01*
X22246Y17713D01*
X22248Y17715D01*
X22248Y17715D01*
X22248Y17715D01*
X22248Y17716D01*
X24421Y19889D01*
X24443Y19874D01*
X24508Y19845D01*
X24577Y19830D01*
X24647Y19829D01*
X24717Y19841D01*
X24783Y19867D01*
X24842Y19904D01*
X24893Y19953D01*
X24934Y20011D01*
X24963Y20075D01*
X24978Y20144D01*
X24980Y20225D01*
X24966Y20294D01*
X24939Y20359D01*
X24900Y20418D01*
X24878Y20440D01*
X27366Y20440D01*
X27425Y20348D01*
X27502Y20269D01*
X27593Y20205D01*
X27694Y20161D01*
X27802Y20137D01*
X27913Y20135D01*
X28022Y20154D01*
X28125Y20194D01*
X28219Y20254D01*
X28299Y20330D01*
X28363Y20420D01*
X28408Y20521D01*
X28432Y20629D01*
X28434Y20756D01*
X28412Y20864D01*
X28370Y20967D01*
X28309Y21059D01*
X28231Y21137D01*
X28139Y21199D01*
X28037Y21242D01*
X27929Y21264D01*
X27847Y21265D01*
X27863Y21286D01*
X27908Y21387D01*
X27932Y21495D01*
X27934Y21622D01*
X27912Y21730D01*
X27870Y21833D01*
X27809Y21925D01*
X27731Y22003D01*
X27639Y22065D01*
X27537Y22108D01*
X27429Y22130D01*
X27347Y22131D01*
X27363Y22152D01*
X27408Y22254D01*
X27432Y22361D01*
X27434Y22488D01*
X27412Y22596D01*
X27370Y22699D01*
X27309Y22791D01*
X27231Y22869D01*
X27139Y22931D01*
X27037Y22974D01*
X26963Y22989D01*
X26976Y22997D01*
X27007Y23024D01*
X27032Y23057D01*
X27051Y23094D01*
X27062Y23134D01*
X27064Y23175D01*
X27059Y23216D01*
X27046Y23255D01*
X27026Y23290D01*
X26671Y23905D01*
X26644Y23936D01*
X26611Y23962D01*
X26574Y23980D01*
X26534Y23991D01*
X26493Y23993D01*
X26452Y23988D01*
X26413Y23975D01*
X26378Y23955D01*
X25763Y23600D01*
X25732Y23573D01*
X25707Y23540D01*
X25688Y23503D01*
X25677Y23463D01*
X25675Y23422D01*
X25680Y23381D01*
X25693Y23342D01*
X25713Y23307D01*
X26068Y22693D01*
X25613Y22693D01*
X25589Y22690D01*
X25565Y22688D01*
X25563Y22688D01*
X25562Y22688D01*
X25539Y22681D01*
X25516Y22674D01*
X25515Y22673D01*
X25513Y22673D01*
X25492Y22662D01*
X25471Y22651D01*
X25470Y22650D01*
X25469Y22649D01*
X25450Y22634D01*
X25431Y22619D01*
X25429Y22617D01*
X25429Y22617D01*
X25429Y22617D01*
X25429Y22616D01*
X24040Y21227D01*
X24039Y21229D01*
X24000Y21288D01*
X23950Y21338D01*
X23892Y21378D01*
X23826Y21405D01*
X23757Y21419D01*
X23727Y21419D01*
X21560Y23587D01*
X21560Y25065D01*
X21557Y25088D01*
X21555Y25112D01*
X21555Y25114D01*
X21555Y25115D01*
X21548Y25138D01*
X21541Y25161D01*
X21540Y25162D01*
X21540Y25164D01*
X21529Y25185D01*
X21518Y25206D01*
X21517Y25207D01*
X21516Y25208D01*
X21501Y25227D01*
X21486Y25246D01*
X21484Y25248D01*
X21484Y25248D01*
X21484Y25248D01*
X21483Y25248D01*
X20532Y26200D01*
X21722Y26200D01*
X21876Y26046D01*
X21894Y26030D01*
X21913Y26015D01*
X21914Y26014D01*
X21915Y26013D01*
X21936Y26002D01*
X21957Y25991D01*
X21958Y25990D01*
X21960Y25989D01*
X21983Y25982D01*
X22005Y25975D01*
X22007Y25975D01*
X22008Y25975D01*
X22032Y25972D01*
X22056Y25970D01*
X22059Y25970D01*
X22059Y25970D01*
X22059Y25970D01*
X22060Y25970D01*
X22690Y25970D01*
X22713Y25972D01*
X22737Y25974D01*
X22739Y25974D01*
X22740Y25974D01*
X22763Y25981D01*
X22786Y25988D01*
X22787Y25989D01*
X22789Y25989D01*
X22810Y26000D01*
X22831Y26011D01*
X22832Y26012D01*
X22833Y26013D01*
X22849Y26026D01*
X22854Y26017D01*
X22931Y25938D01*
X23022Y25875D01*
X23123Y25830D01*
X23231Y25806D01*
X23342Y25804D01*
X23451Y25823D01*
X23554Y25863D01*
X23648Y25923D01*
X23728Y25999D01*
X23792Y26089D01*
X23837Y26191D01*
X23861Y26298D01*
X23863Y26425D01*
X23841Y26533D01*
X23799Y26636D01*
X23738Y26728D01*
X23660Y26806D01*
X23568Y26868D01*
X23466Y26911D01*
X23358Y26933D01*
X23247Y26934D01*
X23138Y26913D01*
X23036Y26872D01*
X22996Y26846D01*
X22997Y26925D01*
X22975Y27033D01*
X22933Y27136D01*
X22872Y27228D01*
X22794Y27306D01*
X22702Y27368D01*
X22600Y27411D01*
X22492Y27433D01*
X22381Y27434D01*
X22272Y27413D01*
X22170Y27372D01*
X22130Y27346D01*
X22131Y27425D01*
X22109Y27533D01*
X22067Y27636D01*
X22006Y27728D01*
X21928Y27806D01*
X21836Y27868D01*
X21734Y27911D01*
X21626Y27933D01*
X21515Y27934D01*
X21406Y27913D01*
X21369Y27898D01*
X21377Y27912D01*
X21390Y27951D01*
X21395Y27992D01*
X21393Y28033D01*
X21382Y28073D01*
X21364Y28110D01*
X21339Y28143D01*
X21309Y28170D01*
X21273Y28191D01*
X20658Y28546D01*
X20619Y28559D01*
X20578Y28564D01*
X20537Y28562D01*
X20497Y28551D01*
X20460Y28533D01*
X20427Y28508D01*
X20400Y28478D01*
X20379Y28442D01*
X20024Y27827D01*
X20011Y27788D01*
X20006Y27747D01*
X20008Y27706D01*
X20019Y27666D01*
X20037Y27629D01*
X20062Y27596D01*
X20092Y27569D01*
X20128Y27548D01*
X20743Y27193D01*
X20782Y27180D01*
X20823Y27175D01*
X20864Y27177D01*
X20904Y27188D01*
X20941Y27206D01*
X20974Y27231D01*
X21001Y27261D01*
X21010Y27277D01*
X21021Y27213D01*
X21039Y27170D01*
X16350Y27170D01*
X16326Y27167D01*
X16302Y27165D01*
X16300Y27165D01*
X16299Y27165D01*
X16276Y27158D01*
X16253Y27151D01*
X16252Y27150D01*
X16250Y27150D01*
X16229Y27139D01*
X16208Y27128D01*
X16207Y27127D01*
X16206Y27126D01*
X16187Y27111D01*
X16168Y27096D01*
X16166Y27094D01*
X16166Y27094D01*
X16166Y27094D01*
X16166Y27093D01*
X15990Y26917D01*
X15990Y27962D01*
X16463Y28436D01*
X16543Y28434D01*
X16652Y28453D01*
X16755Y28493D01*
X16849Y28553D01*
X16929Y28629D01*
X16993Y28719D01*
X17038Y28821D01*
X17062Y28928D01*
X17064Y29055D01*
X17042Y29163D01*
X17000Y29266D01*
X16939Y29358D01*
X16861Y29436D01*
X16769Y29498D01*
X16667Y29541D01*
X16559Y29563D01*
X16448Y29564D01*
X16339Y29543D01*
X16237Y29502D01*
X16144Y29441D01*
X16065Y29364D01*
X16003Y29273D01*
X16000Y29266D01*
X15939Y29358D01*
X15861Y29436D01*
X15769Y29498D01*
X15667Y29541D01*
X15559Y29563D01*
X15448Y29564D01*
X15339Y29543D01*
X15237Y29502D01*
X15144Y29441D01*
X15065Y29364D01*
X15003Y29273D01*
X15000Y29266D01*
X14939Y29358D01*
X14861Y29436D01*
X14769Y29498D01*
X14667Y29541D01*
X14559Y29563D01*
X14448Y29564D01*
X14339Y29543D01*
X14237Y29502D01*
X14144Y29441D01*
X14065Y29364D01*
X14064Y29362D01*
X14064Y29374D01*
X14056Y29415D01*
X14040Y29453D01*
X14017Y29487D01*
X13988Y29516D01*
X13954Y29539D01*
X13916Y29555D01*
X13876Y29564D01*
X13835Y29564D01*
X13125Y29564D01*
X13084Y29556D01*
X13046Y29540D01*
X13012Y29517D01*
X12983Y29488D01*
X12960Y29454D01*
X12944Y29416D01*
X12935Y29376D01*
X12935Y29335D01*
X12935Y29270D01*
X11640Y29270D01*
X11615Y29267D01*
X11590Y29265D01*
X11588Y29264D01*
X11587Y29264D01*
X11563Y29257D01*
X11539Y29250D01*
X11538Y29250D01*
X11537Y29249D01*
X11515Y29237D01*
X11492Y29226D01*
X11491Y29225D01*
X11490Y29224D01*
X11471Y29209D01*
X11451Y29193D01*
X11449Y29191D01*
X11449Y29191D01*
X11449Y29191D01*
X11449Y29190D01*
X8608Y26350D01*
X7786Y26350D01*
X7822Y26363D01*
X7916Y26423D01*
X7996Y26499D01*
X8060Y26589D01*
X8105Y26691D01*
X8129Y26798D01*
X8130Y26892D01*
X8156Y26875D01*
X8257Y26830D01*
X8365Y26806D01*
X8476Y26804D01*
X8585Y26823D01*
X8688Y26863D01*
X8782Y26923D01*
X8862Y26999D01*
X8926Y27089D01*
X8971Y27191D01*
X8995Y27298D01*
X8996Y27392D01*
X9022Y27375D01*
X9123Y27330D01*
X9231Y27306D01*
X9342Y27304D01*
X9451Y27323D01*
X9554Y27363D01*
X9648Y27423D01*
X9728Y27499D01*
X9792Y27589D01*
X9837Y27691D01*
X9861Y27798D01*
X9863Y27925D01*
X9841Y28033D01*
X9799Y28136D01*
X9738Y28228D01*
X9660Y28306D01*
X9568Y28368D01*
X9466Y28411D01*
X9358Y28433D01*
X9247Y28434D01*
X9138Y28413D01*
X9036Y28372D01*
X8943Y28311D01*
X8864Y28234D01*
X8802Y28143D01*
X8758Y28041D01*
X8735Y27933D01*
X8734Y27847D01*
X8702Y27868D01*
X8600Y27911D01*
X8492Y27933D01*
X8381Y27934D01*
X8272Y27913D01*
X8170Y27872D01*
X8077Y27811D01*
X7998Y27734D01*
X7936Y27643D01*
X7892Y27541D01*
X7869Y27433D01*
X7868Y27347D01*
X7836Y27368D01*
X7734Y27411D01*
X7626Y27433D01*
X7515Y27434D01*
X7406Y27413D01*
X7304Y27372D01*
X7211Y27311D01*
X7132Y27234D01*
X7070Y27143D01*
X7026Y27041D01*
X7009Y26963D01*
X7002Y26976D01*
X6975Y27007D01*
X6942Y27032D01*
X6905Y27051D01*
X6865Y27062D01*
X6824Y27064D01*
X6783Y27059D01*
X6744Y27046D01*
X6709Y27026D01*
X6094Y26671D01*
X6063Y26644D01*
X6037Y26611D01*
X6019Y26574D01*
X6008Y26534D01*
X6006Y26493D01*
X6011Y26452D01*
X6024Y26413D01*
X6044Y26378D01*
X6399Y25763D01*
X6426Y25732D01*
X6459Y25707D01*
X6496Y25688D01*
X6536Y25677D01*
X6577Y25675D01*
X6618Y25680D01*
X6657Y25693D01*
X6692Y25713D01*
X7023Y25904D01*
X7039Y25889D01*
X7058Y25873D01*
X7077Y25857D01*
X7078Y25856D01*
X7079Y25855D01*
X7101Y25843D01*
X7123Y25831D01*
X7124Y25831D01*
X7126Y25830D01*
X7150Y25823D01*
X7173Y25815D01*
X7175Y25815D01*
X7176Y25815D01*
X7201Y25812D01*
X7226Y25810D01*
X7229Y25810D01*
X7229Y25810D01*
X7229Y25810D01*
X7230Y25810D01*
X8720Y25810D01*
X8744Y25812D01*
X8769Y25814D01*
X8771Y25815D01*
X8772Y25815D01*
X8796Y25822D01*
X8820Y25829D01*
X8821Y25829D01*
X8822Y25830D01*
X8844Y25842D01*
X8867Y25853D01*
X8868Y25854D01*
X8869Y25855D01*
X8888Y25870D01*
X8908Y25886D01*
X8910Y25888D01*
X8910Y25888D01*
X8910Y25888D01*
X8910Y25889D01*
X11751Y28730D01*
X12935Y28730D01*
X12935Y28625D01*
X12943Y28584D01*
X12959Y28546D01*
X12982Y28512D01*
X13011Y28483D01*
X13045Y28460D01*
X13083Y28444D01*
X13123Y28435D01*
X13164Y28435D01*
X13874Y28435D01*
X13915Y28443D01*
X13953Y28459D01*
X13987Y28482D01*
X14016Y28511D01*
X14039Y28545D01*
X14055Y28583D01*
X14064Y28623D01*
X14064Y28638D01*
X14132Y28568D01*
X14223Y28505D01*
X14324Y28460D01*
X14432Y28436D01*
X14466Y28436D01*
X14970Y27932D01*
X14970Y26877D01*
X14524Y26432D01*
X14511Y26499D01*
X14484Y26564D01*
X14445Y26623D01*
X14395Y26673D01*
X14337Y26713D01*
X14271Y26740D01*
X14244Y26746D01*
X14283Y26783D01*
X14324Y26841D01*
X14353Y26905D01*
X14368Y26974D01*
X14370Y27055D01*
X14356Y27124D01*
X14329Y27189D01*
X14290Y27248D01*
X14240Y27298D01*
X14182Y27338D01*
X14137Y27357D01*
X14138Y27364D01*
X14140Y27445D01*
X14126Y27514D01*
X14099Y27579D01*
X14060Y27638D01*
X14010Y27688D01*
X13952Y27728D01*
X13886Y27755D01*
X13817Y27769D01*
X13747Y27770D01*
X13677Y27757D01*
X13612Y27730D01*
X13553Y27691D01*
X13502Y27642D01*
X13463Y27584D01*
X13435Y27519D01*
X13430Y27497D01*
X13408Y27491D01*
X13407Y27490D01*
X13405Y27490D01*
X13384Y27479D01*
X13363Y27468D01*
X13362Y27467D01*
X13361Y27466D01*
X13342Y27451D01*
X13323Y27436D01*
X13321Y27434D01*
X13321Y27434D01*
X13321Y27434D01*
X13321Y27433D01*
X10747Y24860D01*
X9600Y24860D01*
X7780Y24860D01*
X7756Y24857D01*
X7732Y24855D01*
X7730Y24855D01*
X7729Y24855D01*
X7706Y24848D01*
X7683Y24841D01*
X7682Y24840D01*
X7680Y24840D01*
X7659Y24829D01*
X7638Y24818D01*
X7637Y24817D01*
X7636Y24816D01*
X7617Y24801D01*
X7598Y24786D01*
X7596Y24784D01*
X7596Y24784D01*
X7596Y24784D01*
X7596Y24783D01*
X7452Y24640D01*
X7427Y24640D01*
X7357Y24627D01*
X7292Y24600D01*
X7233Y24561D01*
X7182Y24512D01*
X7143Y24454D01*
X7115Y24389D01*
X7100Y24320D01*
X7099Y24249D01*
X7112Y24180D01*
X7138Y24114D01*
X7176Y24055D01*
X7225Y24004D01*
X7283Y23964D01*
X7348Y23935D01*
X7417Y23920D01*
X7487Y23919D01*
X7557Y23931D01*
X7623Y23957D01*
X7682Y23994D01*
X7733Y24043D01*
X7774Y24101D01*
X7803Y24165D01*
X7818Y24234D01*
X7819Y24271D01*
X7887Y24340D01*
X9600Y24340D01*
X10572Y24340D01*
X8947Y22714D01*
X8947Y23192D01*
X8938Y23298D01*
X8908Y23401D01*
X8860Y23496D01*
X8851Y23509D01*
X8760Y23539D01*
X8739Y23517D01*
X8739Y23560D01*
X8709Y23651D01*
X8615Y23702D01*
X8514Y23735D01*
X8407Y23747D01*
X8301Y23738D01*
X8198Y23708D01*
X8103Y23660D01*
X8090Y23651D01*
X8060Y23560D01*
X8400Y23221D01*
X8739Y23560D01*
X8739Y23517D01*
X8421Y23200D01*
X8760Y22860D01*
X8851Y22890D01*
X8902Y22984D01*
X8935Y23085D01*
X8947Y23192D01*
X8947Y22714D01*
X8801Y22568D01*
X8748Y22621D01*
X8660Y22681D01*
X8617Y22699D01*
X8696Y22739D01*
X8709Y22748D01*
X8739Y22839D01*
X8400Y23178D01*
X8060Y22839D01*
X8090Y22748D01*
X8180Y22698D01*
X8146Y22685D01*
X8057Y22626D01*
X7980Y22551D01*
X7920Y22463D01*
X7900Y22416D01*
X7883Y22456D01*
X7824Y22545D01*
X7748Y22621D01*
X7660Y22681D01*
X7616Y22699D01*
X7646Y22711D01*
X7736Y22768D01*
X7814Y22842D01*
X7875Y22929D01*
X7899Y22982D01*
X7939Y22903D01*
X7948Y22890D01*
X8039Y22860D01*
X8378Y23200D01*
X8039Y23539D01*
X7948Y23509D01*
X7898Y23419D01*
X7883Y23456D01*
X7824Y23545D01*
X7748Y23621D01*
X7660Y23681D01*
X7561Y23722D01*
X7457Y23744D01*
X7350Y23745D01*
X7245Y23725D01*
X7146Y23685D01*
X7057Y23626D01*
X6980Y23551D01*
X6920Y23463D01*
X6900Y23416D01*
X6883Y23456D01*
X6824Y23545D01*
X6748Y23621D01*
X6660Y23681D01*
X6561Y23722D01*
X6457Y23744D01*
X6350Y23745D01*
X6245Y23725D01*
X6146Y23685D01*
X6057Y23626D01*
X5980Y23551D01*
X5920Y23463D01*
X5878Y23365D01*
X5856Y23261D01*
X5854Y23154D01*
X5873Y23049D01*
X5913Y22949D01*
X5971Y22860D01*
X6045Y22783D01*
X6100Y22744D01*
X6044Y22744D01*
X6004Y22736D01*
X5966Y22720D01*
X5931Y22698D01*
X5902Y22669D01*
X5879Y22635D01*
X5863Y22597D01*
X5855Y22556D01*
X5855Y22515D01*
X5855Y21844D01*
X5863Y21804D01*
X5879Y21766D01*
X5901Y21731D01*
X5930Y21702D01*
X5964Y21679D01*
X6002Y21663D01*
X6043Y21655D01*
X6084Y21655D01*
X6571Y21655D01*
X7081Y21146D01*
X7099Y21130D01*
X7118Y21115D01*
X7119Y21114D01*
X7120Y21113D01*
X7141Y21102D01*
X7162Y21091D01*
X7163Y21090D01*
X7165Y21089D01*
X7188Y21082D01*
X7210Y21075D01*
X7212Y21075D01*
X7213Y21075D01*
X7237Y21072D01*
X7261Y21070D01*
X7264Y21070D01*
X7264Y21070D01*
X7264Y21070D01*
X7265Y21070D01*
X8745Y21070D01*
X8768Y21072D01*
X8792Y21074D01*
X8794Y21074D01*
X8795Y21074D01*
X8818Y21081D01*
X8841Y21088D01*
X8842Y21089D01*
X8844Y21089D01*
X8865Y21100D01*
X8886Y21111D01*
X8887Y21112D01*
X8888Y21113D01*
X8907Y21128D01*
X8926Y21143D01*
X8928Y21145D01*
X8928Y21145D01*
X8928Y21145D01*
X8928Y21146D01*
X9502Y21720D01*
X9518Y21738D01*
X9533Y21757D01*
X9534Y21758D01*
X9534Y21759D01*
X9546Y21780D01*
X9557Y21801D01*
X9558Y21802D01*
X9558Y21804D01*
X9565Y21826D01*
X9573Y21849D01*
X9573Y21851D01*
X9573Y21852D01*
X9576Y21876D01*
X9578Y21900D01*
X9578Y21902D01*
X9578Y21903D01*
X9578Y21903D01*
X9578Y21903D01*
X9578Y22021D01*
X13492Y25935D01*
X13965Y25935D01*
X13988Y25937D01*
X14012Y25939D01*
X14014Y25939D01*
X14015Y25939D01*
X14038Y25946D01*
X14039Y25947D01*
X8366Y20273D01*
X8350Y20255D01*
X8335Y20236D01*
X8334Y20235D01*
X8333Y20234D01*
X8322Y20213D01*
X8311Y20192D01*
X8310Y20191D01*
X8309Y20189D01*
X8302Y20166D01*
X8295Y20144D01*
X8295Y20142D01*
X8295Y20141D01*
X8292Y20117D01*
X8290Y20093D01*
X8290Y20090D01*
X8290Y20090D01*
X8290Y20090D01*
X8290Y20090D01*
X8290Y19500D01*
X7800Y19500D01*
X7480Y19500D01*
X5729Y19500D01*
X5710Y19518D01*
X5652Y19558D01*
X5586Y19585D01*
X5517Y19599D01*
X5447Y19600D01*
X5377Y19587D01*
X5312Y19560D01*
X5253Y19521D01*
X5244Y19513D01*
X5222Y19528D01*
X5156Y19555D01*
X5087Y19569D01*
X5017Y19570D01*
X4947Y19557D01*
X4882Y19530D01*
X4823Y19491D01*
X4775Y19445D01*
X4772Y19448D01*
X4706Y19475D01*
X4637Y19489D01*
X4567Y19490D01*
X4497Y19477D01*
X4432Y19450D01*
X4373Y19411D01*
X4346Y19385D01*
X4342Y19388D01*
X4276Y19415D01*
X4207Y19429D01*
X4137Y19430D01*
X4067Y19417D01*
X4002Y19390D01*
X3943Y19351D01*
X3932Y19341D01*
X3892Y19368D01*
X3887Y19370D01*
X4563Y20046D01*
X4579Y20064D01*
X4594Y20083D01*
X4595Y20084D01*
X4596Y20085D01*
X4607Y20106D01*
X4618Y20127D01*
X4619Y20128D01*
X4620Y20130D01*
X4627Y20153D01*
X4634Y20175D01*
X4634Y20177D01*
X4634Y20178D01*
X4637Y20202D01*
X4639Y20226D01*
X4639Y20229D01*
X4639Y20229D01*
X4639Y20229D01*
X4640Y20230D01*
X4640Y22510D01*
X4637Y22533D01*
X4635Y22557D01*
X4635Y22559D01*
X4635Y22560D01*
X4628Y22583D01*
X4621Y22606D01*
X4620Y22607D01*
X4620Y22609D01*
X4609Y22630D01*
X4598Y22651D01*
X4597Y22652D01*
X4596Y22653D01*
X4581Y22672D01*
X4566Y22691D01*
X4564Y22693D01*
X4564Y22693D01*
X4564Y22693D01*
X4563Y22693D01*
X4158Y23098D01*
X4168Y23120D01*
X4192Y23227D01*
X4194Y23354D01*
X4172Y23462D01*
X4130Y23565D01*
X4069Y23657D01*
X3991Y23735D01*
X3899Y23797D01*
X3797Y23840D01*
X3689Y23862D01*
X3578Y23863D01*
X3469Y23843D01*
X3367Y23801D01*
X3274Y23740D01*
X3195Y23663D01*
X3133Y23572D01*
X3089Y23470D01*
X3066Y23362D01*
X3064Y23251D01*
X3084Y23142D01*
X3125Y23039D01*
X3153Y22997D01*
X3078Y22997D01*
X2969Y22977D01*
X2867Y22935D01*
X2774Y22874D01*
X2695Y22797D01*
X2633Y22706D01*
X2589Y22604D01*
X2566Y22496D01*
X2564Y22385D01*
X2584Y22276D01*
X2625Y22173D01*
X2653Y22131D01*
X2578Y22131D01*
X2469Y22110D01*
X2367Y22069D01*
X2274Y22008D01*
X2195Y21931D01*
X2133Y21840D01*
X2089Y21738D01*
X2066Y21630D01*
X2064Y21519D01*
X2084Y21410D01*
X2101Y21369D01*
X2087Y21377D01*
X2048Y21390D01*
X2007Y21395D01*
X1966Y21393D01*
X1926Y21382D01*
X1889Y21364D01*
X1856Y21339D01*
X1829Y21309D01*
X1808Y21273D01*
X1453Y20658D01*
X1440Y20619D01*
X1435Y20578D01*
X1437Y20537D01*
X1448Y20497D01*
X1466Y20460D01*
X1491Y20427D01*
X1521Y20400D01*
X1557Y20379D01*
X2172Y20024D01*
X2211Y20011D01*
X2252Y20006D01*
X2293Y20008D01*
X2333Y20019D01*
X2370Y20037D01*
X2403Y20062D01*
X2430Y20092D01*
X2451Y20128D01*
X2806Y20743D01*
X2819Y20782D01*
X2824Y20823D01*
X2822Y20864D01*
X2811Y20904D01*
X2793Y20941D01*
X2768Y20974D01*
X2738Y21001D01*
X2722Y21010D01*
X2782Y21020D01*
X2885Y21060D01*
X2979Y21120D01*
X3059Y21196D01*
X3123Y21286D01*
X3132Y21306D01*
X3325Y21306D01*
X3670Y20962D01*
X3670Y20497D01*
X2786Y19613D01*
X2770Y19595D01*
X2755Y19576D01*
X2754Y19575D01*
X2753Y19574D01*
X2742Y19553D01*
X2731Y19532D01*
X2730Y19531D01*
X2729Y19529D01*
X2722Y19506D01*
X2715Y19484D01*
X2715Y19482D01*
X2715Y19481D01*
X2712Y19457D01*
X2710Y19433D01*
X2710Y19430D01*
X2710Y19430D01*
X2710Y19430D01*
X2710Y19430D01*
X2710Y18620D01*
X2712Y18596D01*
X2714Y18572D01*
X2714Y18570D01*
X2714Y18569D01*
X2721Y18546D01*
X2728Y18523D01*
X2729Y18522D01*
X2729Y18520D01*
X2740Y18499D01*
X2751Y18478D01*
X2752Y18477D01*
X2753Y18476D01*
X2768Y18457D01*
X2783Y18438D01*
X2785Y18436D01*
X2785Y18436D01*
X2785Y18436D01*
X2786Y18436D01*
X3642Y17580D01*
X3370Y17580D01*
X3346Y17577D01*
X3322Y17575D01*
X3320Y17575D01*
X3319Y17575D01*
X3296Y17568D01*
X3273Y17561D01*
X3272Y17560D01*
X3270Y17560D01*
X3249Y17549D01*
X3228Y17538D01*
X3227Y17537D01*
X3226Y17536D01*
X3207Y17521D01*
X3188Y17506D01*
X3186Y17504D01*
X3186Y17504D01*
X3186Y17504D01*
X3186Y17503D01*
X1479Y15797D01*
X1439Y15858D01*
X1361Y15936D01*
X1269Y15998D01*
X1265Y16000D01*
X1349Y16053D01*
X1429Y16129D01*
X1493Y16219D01*
X1538Y16321D01*
X1562Y16428D01*
X1564Y16555D01*
X1542Y16663D01*
X1500Y16766D01*
X1439Y16858D01*
X1361Y16936D01*
X1269Y16998D01*
X1167Y17041D01*
X1059Y17063D01*
X948Y17064D01*
X839Y17043D01*
X737Y17002D01*
X644Y16941D01*
X565Y16864D01*
X503Y16773D01*
X459Y16671D01*
X436Y16563D01*
X434Y16452D01*
X454Y16343D01*
X495Y16240D01*
X555Y16147D01*
X632Y16068D01*
X723Y16005D01*
X733Y16000D01*
X644Y15941D01*
X565Y15864D01*
X503Y15773D01*
X459Y15671D01*
X436Y15563D01*
X434Y15452D01*
X454Y15343D01*
X495Y15240D01*
X555Y15147D01*
X632Y15068D01*
X723Y15005D01*
X733Y15000D01*
X644Y14941D01*
X565Y14864D01*
X503Y14773D01*
X459Y14671D01*
X436Y14563D01*
X434Y14452D01*
X454Y14343D01*
X495Y14240D01*
X555Y14147D01*
X632Y14068D01*
X637Y14064D01*
X625Y14064D01*
X584Y14056D01*
X546Y14040D01*
X512Y14017D01*
X483Y13988D01*
X460Y13954D01*
X444Y13916D01*
X435Y13876D01*
X435Y13835D01*
X435Y13125D01*
X443Y13084D01*
X459Y13046D01*
X482Y13012D01*
X511Y12983D01*
X545Y12960D01*
X583Y12944D01*
X623Y12935D01*
X664Y12935D01*
X730Y12935D01*
X730Y11347D01*
X603Y11729D01*
X240Y14597D01*
X235Y14990D01*
X517Y17867D01*
X1350Y20626D01*
X2702Y23170D01*
X4523Y25403D01*
X6744Y27239D01*
X9278Y28610D01*
X12031Y29462D01*
X14896Y29763D01*
X17766Y29502D01*
X20530Y28688D01*
X23084Y27353D01*
X25329Y25548D01*
X27181Y23341D01*
X28569Y20816D01*
X29441Y18069D01*
X29762Y15206D01*
M02*
