G04 (created by PCBNEW (2013-07-07 BZR 4022)-stable) date 10/7/2013 10:29:13 PM*
%MOIN*%
G04 Gerber Fmt 3.4, Leading zero omitted, Abs format*
%FSLAX34Y34*%
G01*
G70*
G90*
G04 APERTURE LIST*
%ADD10C,0.006*%
%ADD11R,0.0671X0.0277*%
%ADD12R,0.0277X0.0671*%
%ADD13C,0.0788661*%
%ADD14R,0.0946142X0.0552441*%
%ADD15R,0.0946142X0.145795*%
%ADD16R,0.0859528X0.0288661*%
%ADD17R,0.0788661X0.0788661*%
%ADD18C,0.409575*%
%ADD19R,0.208787X0.106425*%
%ADD20C,0.110362*%
%ADD21R,0.0749291X0.0749291*%
%ADD22C,0.0749291*%
%ADD23R,0.0709921X0.114299*%
%ADD24R,0.0631181X0.0729606*%
%ADD25R,0.0355591X0.0355591*%
%ADD26R,0.0685039X0.0173228*%
%ADD27R,0.109134X0.135906*%
G04 APERTURE END LIST*
G54D10*
G54D11*
X12096Y17602D03*
X12096Y17287D03*
X12096Y16972D03*
X12096Y16657D03*
X12096Y16343D03*
X12096Y16028D03*
X12096Y15713D03*
X12096Y15398D03*
G54D12*
X12648Y14846D03*
X12963Y14846D03*
X13278Y14846D03*
X13593Y14846D03*
X13907Y14846D03*
X14222Y14846D03*
X14537Y14846D03*
X14852Y14846D03*
G54D11*
X15404Y15398D03*
X15404Y15713D03*
X15404Y16028D03*
X15404Y16343D03*
X15404Y16657D03*
X15404Y16972D03*
X15404Y17287D03*
X15404Y17602D03*
G54D12*
X14852Y18154D03*
X14537Y18154D03*
X14222Y18154D03*
X13907Y18154D03*
X13593Y18154D03*
X13278Y18154D03*
X12963Y18154D03*
X12648Y18154D03*
G54D13*
X19220Y8514D03*
X21779Y8514D03*
X19220Y10285D03*
X21779Y10285D03*
G54D14*
X13479Y13305D03*
X13479Y12400D03*
X13479Y11494D03*
G54D15*
X15920Y12400D03*
G54D16*
X11905Y24750D03*
X11905Y24250D03*
X11905Y23750D03*
X11905Y23250D03*
X11905Y22750D03*
X11905Y22250D03*
X11905Y21750D03*
X11905Y21250D03*
X11905Y20750D03*
X11905Y20250D03*
X15594Y20250D03*
X15594Y20750D03*
X15594Y21250D03*
X15594Y21750D03*
X15594Y22250D03*
X15594Y22750D03*
X15594Y23250D03*
X15594Y23750D03*
X15594Y24250D03*
X15594Y24750D03*
G54D10*
G36*
X23443Y4288D02*
X23837Y3605D01*
X23154Y3211D01*
X22760Y3894D01*
X23443Y4288D01*
X23443Y4288D01*
G37*
G54D13*
X22433Y3250D03*
X21566Y2750D03*
X20700Y2250D03*
G54D10*
G36*
X6556Y25831D02*
X6162Y26514D01*
X6845Y26908D01*
X7239Y26225D01*
X6556Y25831D01*
X6556Y25831D01*
G37*
G54D13*
X7566Y26870D03*
X8433Y27370D03*
X9299Y27870D03*
G54D10*
G36*
X2274Y20162D02*
X1591Y20556D01*
X1985Y21239D01*
X2668Y20845D01*
X2274Y20162D01*
X2274Y20162D01*
G37*
G54D13*
X2630Y21566D03*
X3130Y22433D03*
X3630Y23299D03*
G54D17*
X1000Y13500D03*
G54D13*
X1000Y14500D03*
X1000Y15500D03*
X1000Y16500D03*
G54D10*
G36*
X4168Y6556D02*
X3485Y6162D01*
X3091Y6845D01*
X3774Y7239D01*
X4168Y6556D01*
X4168Y6556D01*
G37*
G54D13*
X3130Y7566D03*
X2630Y8433D03*
X2130Y9299D03*
G54D10*
G36*
X9837Y2274D02*
X9443Y1591D01*
X8760Y1985D01*
X9154Y2668D01*
X9837Y2274D01*
X9837Y2274D01*
G37*
G54D13*
X8433Y2630D03*
X7566Y3130D03*
X6700Y3630D03*
G54D17*
X16500Y1000D03*
G54D13*
X15500Y1000D03*
X14500Y1000D03*
X13500Y1000D03*
G54D10*
G36*
X27725Y9837D02*
X28408Y9443D01*
X28014Y8760D01*
X27331Y9154D01*
X27725Y9837D01*
X27725Y9837D01*
G37*
G54D13*
X27370Y8433D03*
X26870Y7566D03*
X26370Y6700D03*
G54D17*
X29000Y16500D03*
G54D13*
X29000Y15500D03*
X29000Y14500D03*
X29000Y13500D03*
G54D10*
G36*
X25831Y23443D02*
X26514Y23837D01*
X26908Y23154D01*
X26225Y22760D01*
X25831Y23443D01*
X25831Y23443D01*
G37*
G54D13*
X26870Y22433D03*
X27370Y21566D03*
X27870Y20700D03*
G54D10*
G36*
X20162Y27725D02*
X20556Y28408D01*
X21239Y28014D01*
X20845Y27331D01*
X20162Y27725D01*
X20162Y27725D01*
G37*
G54D13*
X21566Y27370D03*
X22433Y26870D03*
X23299Y26370D03*
G54D17*
X13500Y29000D03*
G54D13*
X14500Y29000D03*
X15500Y29000D03*
X16500Y29000D03*
G54D18*
X19750Y15000D03*
G54D19*
X19750Y18011D03*
X19750Y11988D03*
G54D20*
X17181Y6500D03*
X14818Y6500D03*
X16000Y4649D03*
G54D21*
X6400Y22200D03*
G54D22*
X6400Y23200D03*
X7400Y22200D03*
X7400Y23200D03*
X8400Y22200D03*
X8400Y23200D03*
G54D23*
X15090Y9750D03*
X13909Y9750D03*
G54D24*
X19250Y6350D03*
X19250Y5149D03*
G54D25*
X17164Y9390D03*
X17715Y9390D03*
X11175Y16900D03*
X10624Y16900D03*
X5700Y16975D03*
X5700Y16424D03*
X9900Y13475D03*
X9900Y12924D03*
X9900Y16775D03*
X9900Y16224D03*
X11175Y16200D03*
X10624Y16200D03*
X5750Y13275D03*
X5750Y12724D03*
X10700Y13475D03*
X10700Y12924D03*
X10000Y20475D03*
X10000Y19924D03*
X10800Y23175D03*
X10800Y22624D03*
X5700Y20475D03*
X5700Y19924D03*
X17164Y10160D03*
X17715Y10160D03*
X16500Y16024D03*
X16500Y16575D03*
X10800Y24375D03*
X10800Y23824D03*
X10100Y22624D03*
X10100Y23175D03*
X11500Y12924D03*
X11500Y13475D03*
G54D13*
X17920Y23014D03*
X20479Y23014D03*
X17920Y24785D03*
X20479Y24785D03*
X17920Y20014D03*
X20479Y20014D03*
X17920Y21785D03*
X20479Y21785D03*
G54D17*
X3700Y13500D03*
G54D13*
X3700Y14500D03*
X3700Y15500D03*
X3700Y16500D03*
G54D25*
X21824Y21900D03*
X22375Y21900D03*
X21824Y22700D03*
X22375Y22700D03*
G54D26*
X9102Y12645D03*
X9102Y12901D03*
X9102Y12389D03*
X9102Y12133D03*
X9102Y11877D03*
X9102Y11622D03*
X9102Y11366D03*
X9102Y11110D03*
X6897Y10598D03*
X6897Y10854D03*
X6897Y11110D03*
X6897Y11366D03*
X6897Y12901D03*
X6897Y12645D03*
X6897Y12389D03*
X6897Y12133D03*
X6897Y11877D03*
X6897Y11622D03*
G54D27*
X8000Y11750D03*
G54D26*
X9102Y10854D03*
X9102Y10598D03*
X9102Y19645D03*
X9102Y19901D03*
X9102Y19389D03*
X9102Y19133D03*
X9102Y18877D03*
X9102Y18622D03*
X9102Y18366D03*
X9102Y18110D03*
X6897Y17598D03*
X6897Y17854D03*
X6897Y18110D03*
X6897Y18366D03*
X6897Y19901D03*
X6897Y19645D03*
X6897Y19389D03*
X6897Y19133D03*
X6897Y18877D03*
X6897Y18622D03*
G54D27*
X8000Y18750D03*
G54D26*
X9102Y17854D03*
X9102Y17598D03*
X9102Y16145D03*
X9102Y16401D03*
X9102Y15889D03*
X9102Y15633D03*
X9102Y15377D03*
X9102Y15122D03*
X9102Y14866D03*
X9102Y14610D03*
X6897Y14098D03*
X6897Y14354D03*
X6897Y14610D03*
X6897Y14866D03*
X6897Y16401D03*
X6897Y16145D03*
X6897Y15889D03*
X6897Y15633D03*
X6897Y15377D03*
X6897Y15122D03*
G54D27*
X8000Y15250D03*
G54D26*
X9102Y14354D03*
X9102Y14098D03*
M02*
