G04 (created by PCBNEW (2013-07-07 BZR 4022)-stable) date 10/7/2013 10:29:13 PM*
%MOIN*%
G04 Gerber Fmt 3.4, Leading zero omitted, Abs format*
%FSLAX34Y34*%
G01*
G70*
G90*
G04 APERTURE LIST*
%ADD10C,0.006*%
%ADD11C,0.0788661*%
%ADD12R,0.0788661X0.0788661*%
%ADD13C,0.110362*%
%ADD14R,0.0749291X0.0749291*%
%ADD15C,0.0749291*%
G04 APERTURE END LIST*
G54D10*
G54D11*
X19220Y8514D03*
X21779Y8514D03*
X19220Y10285D03*
X21779Y10285D03*
G54D10*
G36*
X23443Y4288D02*
X23837Y3605D01*
X23154Y3211D01*
X22760Y3894D01*
X23443Y4288D01*
X23443Y4288D01*
G37*
G54D11*
X22433Y3250D03*
X21566Y2750D03*
X20700Y2250D03*
G54D10*
G36*
X6556Y25831D02*
X6162Y26514D01*
X6845Y26908D01*
X7239Y26225D01*
X6556Y25831D01*
X6556Y25831D01*
G37*
G54D11*
X7566Y26870D03*
X8433Y27370D03*
X9299Y27870D03*
G54D10*
G36*
X2274Y20162D02*
X1591Y20556D01*
X1985Y21239D01*
X2668Y20845D01*
X2274Y20162D01*
X2274Y20162D01*
G37*
G54D11*
X2630Y21566D03*
X3130Y22433D03*
X3630Y23299D03*
G54D12*
X1000Y13500D03*
G54D11*
X1000Y14500D03*
X1000Y15500D03*
X1000Y16500D03*
G54D10*
G36*
X4168Y6556D02*
X3485Y6162D01*
X3091Y6845D01*
X3774Y7239D01*
X4168Y6556D01*
X4168Y6556D01*
G37*
G54D11*
X3130Y7566D03*
X2630Y8433D03*
X2130Y9299D03*
G54D10*
G36*
X9837Y2274D02*
X9443Y1591D01*
X8760Y1985D01*
X9154Y2668D01*
X9837Y2274D01*
X9837Y2274D01*
G37*
G54D11*
X8433Y2630D03*
X7566Y3130D03*
X6700Y3630D03*
G54D12*
X16500Y1000D03*
G54D11*
X15500Y1000D03*
X14500Y1000D03*
X13500Y1000D03*
G54D10*
G36*
X27725Y9837D02*
X28408Y9443D01*
X28014Y8760D01*
X27331Y9154D01*
X27725Y9837D01*
X27725Y9837D01*
G37*
G54D11*
X27370Y8433D03*
X26870Y7566D03*
X26370Y6700D03*
G54D12*
X29000Y16500D03*
G54D11*
X29000Y15500D03*
X29000Y14500D03*
X29000Y13500D03*
G54D10*
G36*
X25831Y23443D02*
X26514Y23837D01*
X26908Y23154D01*
X26225Y22760D01*
X25831Y23443D01*
X25831Y23443D01*
G37*
G54D11*
X26870Y22433D03*
X27370Y21566D03*
X27870Y20700D03*
G54D10*
G36*
X20162Y27725D02*
X20556Y28408D01*
X21239Y28014D01*
X20845Y27331D01*
X20162Y27725D01*
X20162Y27725D01*
G37*
G54D11*
X21566Y27370D03*
X22433Y26870D03*
X23299Y26370D03*
G54D12*
X13500Y29000D03*
G54D11*
X14500Y29000D03*
X15500Y29000D03*
X16500Y29000D03*
G54D13*
X17181Y6500D03*
X14818Y6500D03*
X16000Y4649D03*
G54D14*
X6400Y22200D03*
G54D15*
X6400Y23200D03*
X7400Y22200D03*
X7400Y23200D03*
X8400Y22200D03*
X8400Y23200D03*
G54D11*
X17920Y23014D03*
X20479Y23014D03*
X17920Y24785D03*
X20479Y24785D03*
X17920Y20014D03*
X20479Y20014D03*
X17920Y21785D03*
X20479Y21785D03*
G54D12*
X3700Y13500D03*
G54D11*
X3700Y14500D03*
X3700Y15500D03*
X3700Y16500D03*
M02*
