G04 (created by PCBNEW (2013-07-07 BZR 4022)-stable) date 9/25/2013 7:54:20 PM*
%MOIN*%
G04 Gerber Fmt 3.4, Leading zero omitted, Abs format*
%FSLAX34Y34*%
G01*
G70*
G90*
G04 APERTURE LIST*
%ADD10C,0.006*%
%ADD11C,0.0708661*%
%ADD12R,0.0708661X0.0708661*%
%ADD13C,0.102362*%
%ADD14R,0.0669291X0.0669291*%
%ADD15C,0.0669291*%
G04 APERTURE END LIST*
G54D10*
G54D11*
X88220Y-65985D03*
X90779Y-65985D03*
X88220Y-64214D03*
X90779Y-64214D03*
G54D10*
G36*
X92428Y-70265D02*
X92783Y-70879D01*
X92169Y-71234D01*
X91815Y-70620D01*
X92428Y-70265D01*
X92428Y-70265D01*
G37*
G54D11*
X91433Y-71250D03*
X90566Y-71750D03*
X89700Y-72250D03*
G54D10*
G36*
X75571Y-48614D02*
X75216Y-48000D01*
X75830Y-47645D01*
X76184Y-48259D01*
X75571Y-48614D01*
X75571Y-48614D01*
G37*
G54D11*
X76566Y-47630D03*
X77433Y-47130D03*
X78299Y-46630D03*
G54D10*
G36*
X71259Y-54283D02*
X70645Y-53928D01*
X71000Y-53315D01*
X71614Y-53669D01*
X71259Y-54283D01*
X71259Y-54283D01*
G37*
G54D11*
X71630Y-52933D03*
X72130Y-52066D03*
X72630Y-51200D03*
G54D12*
X70000Y-61000D03*
G54D11*
X70000Y-60000D03*
X70000Y-59000D03*
X70000Y-58000D03*
G54D10*
G36*
X73114Y-67928D02*
X72500Y-68283D01*
X72145Y-67669D01*
X72759Y-67315D01*
X73114Y-67928D01*
X73114Y-67928D01*
G37*
G54D11*
X72130Y-66933D03*
X71630Y-66066D03*
X71130Y-65200D03*
G54D10*
G36*
X78783Y-72240D02*
X78428Y-72854D01*
X77815Y-72499D01*
X78169Y-71885D01*
X78783Y-72240D01*
X78783Y-72240D01*
G37*
G54D11*
X77433Y-71870D03*
X76566Y-71370D03*
X75700Y-70870D03*
G54D12*
X85500Y-73500D03*
G54D11*
X84500Y-73500D03*
X83500Y-73500D03*
X82500Y-73500D03*
G54D10*
G36*
X96740Y-64716D02*
X97354Y-65071D01*
X96999Y-65684D01*
X96385Y-65330D01*
X96740Y-64716D01*
X96740Y-64716D01*
G37*
G54D11*
X96370Y-66066D03*
X95870Y-66933D03*
X95370Y-67799D03*
G54D12*
X98000Y-58000D03*
G54D11*
X98000Y-59000D03*
X98000Y-60000D03*
X98000Y-61000D03*
G54D10*
G36*
X94885Y-51071D02*
X95499Y-50716D01*
X95854Y-51330D01*
X95240Y-51684D01*
X94885Y-51071D01*
X94885Y-51071D01*
G37*
G54D11*
X95870Y-52066D03*
X96370Y-52933D03*
X96870Y-53799D03*
G54D10*
G36*
X89216Y-46759D02*
X89571Y-46145D01*
X90184Y-46500D01*
X89830Y-47114D01*
X89216Y-46759D01*
X89216Y-46759D01*
G37*
G54D11*
X90566Y-47130D03*
X91433Y-47630D03*
X92299Y-48130D03*
G54D12*
X82500Y-45500D03*
G54D11*
X83500Y-45500D03*
X84500Y-45500D03*
X85500Y-45500D03*
G54D13*
X86181Y-68000D03*
X83818Y-68000D03*
X85000Y-69850D03*
G54D14*
X75400Y-52300D03*
G54D15*
X75400Y-51300D03*
X76400Y-52300D03*
X76400Y-51300D03*
X77400Y-52300D03*
X77400Y-51300D03*
G54D11*
X86920Y-51485D03*
X89479Y-51485D03*
X86920Y-49714D03*
X89479Y-49714D03*
X86920Y-54485D03*
X89479Y-54485D03*
X86920Y-52714D03*
X89479Y-52714D03*
G54D12*
X72700Y-61000D03*
G54D11*
X72700Y-60000D03*
X72700Y-59000D03*
X72700Y-58000D03*
M02*
