G04 (created by PCBNEW (2013-07-07 BZR 4022)-stable) date 11/9/2013 6:32:22 PM*
%MOIN*%
G04 Gerber Fmt 3.4, Leading zero omitted, Abs format*
%FSLAX34Y34*%
G01*
G70*
G90*
G04 APERTURE LIST*
%ADD10C,0.006*%
%ADD11C,0.008*%
%ADD12R,0.20285X0.12411*%
%ADD13C,0.0689921*%
%ADD14C,0.104425*%
G04 APERTURE END LIST*
G54D10*
G54D11*
X32250Y-18250D02*
G75*
G03X32250Y-18250I-2500J0D01*
G74*
G01*
X28962Y-17659D02*
X30537Y-17659D01*
X29356Y-18053D02*
X28962Y-18053D01*
X28962Y-18446D02*
X29356Y-18446D01*
X29356Y-18446D02*
X29159Y-18053D01*
X29159Y-18053D02*
X28962Y-18446D01*
X29159Y-18643D02*
X29159Y-17856D01*
X30734Y-18250D02*
G75*
G03X30734Y-18250I-984J0D01*
G74*
G01*
X31357Y-15650D02*
G75*
G03X31850Y-16142I492J0D01*
G74*
G01*
X32342Y-15650D02*
G75*
G03X31850Y-15157I-492J0D01*
G74*
G01*
X31259Y-15650D02*
G75*
G03X31850Y-16240I590J0D01*
G74*
G01*
X31161Y-15650D02*
G75*
G03X31850Y-16338I688J0D01*
G74*
G01*
X32440Y-15650D02*
G75*
G03X31850Y-15059I-590J0D01*
G74*
G01*
X32538Y-15650D02*
G75*
G03X31850Y-14961I-688J0D01*
G74*
G01*
X31850Y-15650D02*
X31850Y-16437D01*
X31850Y-15650D02*
X31062Y-15650D01*
X31850Y-14862D02*
X31850Y-15650D01*
X31850Y-15650D02*
X32637Y-15650D01*
X32637Y-15650D02*
G75*
G03X32637Y-15650I-787J0D01*
G74*
G01*
X27157Y-20850D02*
G75*
G03X27650Y-21342I492J0D01*
G74*
G01*
X28142Y-20850D02*
G75*
G03X27650Y-20357I-492J0D01*
G74*
G01*
X27059Y-20850D02*
G75*
G03X27650Y-21440I590J0D01*
G74*
G01*
X26961Y-20850D02*
G75*
G03X27650Y-21538I688J0D01*
G74*
G01*
X28240Y-20850D02*
G75*
G03X27650Y-20259I-590J0D01*
G74*
G01*
X28338Y-20850D02*
G75*
G03X27650Y-20161I-688J0D01*
G74*
G01*
X27650Y-20850D02*
X27650Y-21637D01*
X27650Y-20850D02*
X26862Y-20850D01*
X27650Y-20062D02*
X27650Y-20850D01*
X27650Y-20850D02*
X28437Y-20850D01*
X28437Y-20850D02*
G75*
G03X28437Y-20850I-787J0D01*
G74*
G01*
G54D10*
X31500Y-21371D02*
X31500Y-21071D01*
X31614Y-21071D01*
X31642Y-21085D01*
X31657Y-21100D01*
X31671Y-21128D01*
X31671Y-21171D01*
X31657Y-21200D01*
X31642Y-21214D01*
X31614Y-21228D01*
X31500Y-21228D01*
X31785Y-21285D02*
X31928Y-21285D01*
X31757Y-21371D02*
X31857Y-21071D01*
X31957Y-21371D01*
X32057Y-21371D02*
X32057Y-21071D01*
X32128Y-21071D01*
X32171Y-21085D01*
X32200Y-21114D01*
X32214Y-21142D01*
X32228Y-21200D01*
X32228Y-21242D01*
X32214Y-21300D01*
X32200Y-21328D01*
X32171Y-21357D01*
X32128Y-21371D01*
X32057Y-21371D01*
X32500Y-21071D02*
X32357Y-21071D01*
X32342Y-21214D01*
X32357Y-21200D01*
X32385Y-21185D01*
X32457Y-21185D01*
X32485Y-21200D01*
X32500Y-21214D01*
X32514Y-21242D01*
X32514Y-21314D01*
X32500Y-21342D01*
X32485Y-21357D01*
X32457Y-21371D01*
X32385Y-21371D01*
X32357Y-21357D01*
X32342Y-21342D01*
X31492Y-20571D02*
X31592Y-20871D01*
X31692Y-20571D01*
X31935Y-20871D02*
X31792Y-20871D01*
X31792Y-20571D01*
X32035Y-20714D02*
X32135Y-20714D01*
X32178Y-20871D02*
X32035Y-20871D01*
X32035Y-20571D01*
X32178Y-20571D01*
X32307Y-20871D02*
X32307Y-20571D01*
X32378Y-20571D01*
X32421Y-20585D01*
X32450Y-20614D01*
X32464Y-20642D01*
X32478Y-20700D01*
X32478Y-20742D01*
X32464Y-20800D01*
X32450Y-20828D01*
X32421Y-20857D01*
X32378Y-20871D01*
X32307Y-20871D01*
X31249Y-18585D02*
X31249Y-18728D01*
X30949Y-18728D01*
X31092Y-18485D02*
X31092Y-18385D01*
X31249Y-18342D02*
X31249Y-18485D01*
X30949Y-18485D01*
X30949Y-18342D01*
X31249Y-18214D02*
X30949Y-18214D01*
X30949Y-18142D01*
X30963Y-18100D01*
X30992Y-18071D01*
X31020Y-18057D01*
X31077Y-18042D01*
X31120Y-18042D01*
X31177Y-18057D01*
X31206Y-18071D01*
X31235Y-18100D01*
X31249Y-18142D01*
X31249Y-18214D01*
X31249Y-17757D02*
X31249Y-17928D01*
X31249Y-17842D02*
X30949Y-17842D01*
X30992Y-17871D01*
X31020Y-17900D01*
X31035Y-17928D01*
X27250Y-15621D02*
X27250Y-15321D01*
X27364Y-15321D01*
X27392Y-15335D01*
X27407Y-15350D01*
X27421Y-15378D01*
X27421Y-15421D01*
X27407Y-15450D01*
X27392Y-15464D01*
X27364Y-15478D01*
X27250Y-15478D01*
X27535Y-15535D02*
X27678Y-15535D01*
X27507Y-15621D02*
X27607Y-15321D01*
X27707Y-15621D01*
X27807Y-15621D02*
X27807Y-15321D01*
X27878Y-15321D01*
X27921Y-15335D01*
X27950Y-15364D01*
X27964Y-15392D01*
X27978Y-15450D01*
X27978Y-15492D01*
X27964Y-15550D01*
X27950Y-15578D01*
X27921Y-15607D01*
X27878Y-15621D01*
X27807Y-15621D01*
X28235Y-15321D02*
X28178Y-15321D01*
X28150Y-15335D01*
X28135Y-15350D01*
X28107Y-15392D01*
X28092Y-15450D01*
X28092Y-15564D01*
X28107Y-15592D01*
X28121Y-15607D01*
X28150Y-15621D01*
X28207Y-15621D01*
X28235Y-15607D01*
X28250Y-15592D01*
X28264Y-15564D01*
X28264Y-15492D01*
X28250Y-15464D01*
X28235Y-15450D01*
X28207Y-15435D01*
X28150Y-15435D01*
X28121Y-15450D01*
X28107Y-15464D01*
X28092Y-15492D01*
X27450Y-15821D02*
X27507Y-15821D01*
X27535Y-15835D01*
X27564Y-15864D01*
X27578Y-15921D01*
X27578Y-16021D01*
X27564Y-16078D01*
X27535Y-16107D01*
X27507Y-16121D01*
X27450Y-16121D01*
X27421Y-16107D01*
X27392Y-16078D01*
X27378Y-16021D01*
X27378Y-15921D01*
X27392Y-15864D01*
X27421Y-15835D01*
X27450Y-15821D01*
X27707Y-15821D02*
X27707Y-16064D01*
X27721Y-16092D01*
X27735Y-16107D01*
X27764Y-16121D01*
X27821Y-16121D01*
X27850Y-16107D01*
X27864Y-16092D01*
X27878Y-16064D01*
X27878Y-15821D01*
X27978Y-15821D02*
X28150Y-15821D01*
X28064Y-16121D02*
X28064Y-15821D01*
X32007Y-16821D02*
X32007Y-16521D01*
X32107Y-16735D01*
X32207Y-16521D01*
X32207Y-16821D01*
X32335Y-16550D02*
X32350Y-16535D01*
X32378Y-16521D01*
X32450Y-16521D01*
X32478Y-16535D01*
X32492Y-16550D01*
X32507Y-16578D01*
X32507Y-16607D01*
X32492Y-16650D01*
X32321Y-16821D01*
X32507Y-16821D01*
X26957Y-19971D02*
X26957Y-19671D01*
X27057Y-19885D01*
X27157Y-19671D01*
X27157Y-19971D01*
X27285Y-19700D02*
X27300Y-19685D01*
X27328Y-19671D01*
X27400Y-19671D01*
X27428Y-19685D01*
X27442Y-19700D01*
X27457Y-19728D01*
X27457Y-19757D01*
X27442Y-19800D01*
X27271Y-19971D01*
X27457Y-19971D01*
%LPC*%
G54D12*
X29750Y-20750D03*
G54D13*
X29750Y-18750D03*
X29750Y-17750D03*
G54D12*
X29750Y-15750D03*
G54D14*
X31850Y-15650D03*
X27650Y-20850D03*
M02*
