G04 (created by PCBNEW (2013-07-07 BZR 4022)-stable) date 11/9/2013 6:32:21 PM*
%MOIN*%
G04 Gerber Fmt 3.4, Leading zero omitted, Abs format*
%FSLAX34Y34*%
G01*
G70*
G90*
G04 APERTURE LIST*
%ADD10C,0.006*%
%ADD11C,0.0629921*%
%ADD12C,0.0984252*%
%ADD13C,0.025*%
G04 APERTURE END LIST*
G54D10*
G54D11*
X29750Y-18750D03*
X29750Y-17750D03*
G54D12*
X31850Y-15650D03*
X27650Y-20850D03*
G54D10*
G36*
X32350Y-21350D02*
X30440Y-21350D01*
X30440Y-18613D01*
X30335Y-18359D01*
X30225Y-18249D01*
X30334Y-18141D01*
X30439Y-17887D01*
X30440Y-17613D01*
X30335Y-17359D01*
X30141Y-17165D01*
X29887Y-17060D01*
X29613Y-17059D01*
X29359Y-17164D01*
X29165Y-17358D01*
X29060Y-17612D01*
X29059Y-17886D01*
X29164Y-18140D01*
X29274Y-18250D01*
X29165Y-18358D01*
X29060Y-18612D01*
X29059Y-18886D01*
X29164Y-19140D01*
X29358Y-19334D01*
X29612Y-19439D01*
X29886Y-19440D01*
X30140Y-19335D01*
X30334Y-19141D01*
X30439Y-18887D01*
X30440Y-18613D01*
X30440Y-21350D01*
X28433Y-21350D01*
X28564Y-21043D01*
X28569Y-20679D01*
X28433Y-20340D01*
X28420Y-20320D01*
X28324Y-20298D01*
X28201Y-20175D01*
X28179Y-20079D01*
X27843Y-19935D01*
X27479Y-19930D01*
X27150Y-20062D01*
X27150Y-15150D01*
X31066Y-15150D01*
X30935Y-15456D01*
X30930Y-15820D01*
X31066Y-16159D01*
X31079Y-16179D01*
X31175Y-16201D01*
X31298Y-16324D01*
X31320Y-16420D01*
X31656Y-16564D01*
X32020Y-16569D01*
X32350Y-16437D01*
X32350Y-21350D01*
X32350Y-21350D01*
G37*
G54D13*
X32350Y-21350D02*
X30440Y-21350D01*
X30440Y-18613D01*
X30335Y-18359D01*
X30225Y-18249D01*
X30334Y-18141D01*
X30439Y-17887D01*
X30440Y-17613D01*
X30335Y-17359D01*
X30141Y-17165D01*
X29887Y-17060D01*
X29613Y-17059D01*
X29359Y-17164D01*
X29165Y-17358D01*
X29060Y-17612D01*
X29059Y-17886D01*
X29164Y-18140D01*
X29274Y-18250D01*
X29165Y-18358D01*
X29060Y-18612D01*
X29059Y-18886D01*
X29164Y-19140D01*
X29358Y-19334D01*
X29612Y-19439D01*
X29886Y-19440D01*
X30140Y-19335D01*
X30334Y-19141D01*
X30439Y-18887D01*
X30440Y-18613D01*
X30440Y-21350D01*
X28433Y-21350D01*
X28564Y-21043D01*
X28569Y-20679D01*
X28433Y-20340D01*
X28420Y-20320D01*
X28324Y-20298D01*
X28201Y-20175D01*
X28179Y-20079D01*
X27843Y-19935D01*
X27479Y-19930D01*
X27150Y-20062D01*
X27150Y-15150D01*
X31066Y-15150D01*
X30935Y-15456D01*
X30930Y-15820D01*
X31066Y-16159D01*
X31079Y-16179D01*
X31175Y-16201D01*
X31298Y-16324D01*
X31320Y-16420D01*
X31656Y-16564D01*
X32020Y-16569D01*
X32350Y-16437D01*
X32350Y-21350D01*
M02*
