G04 (created by PCBNEW (2013-07-07 BZR 4022)-stable) date 11/9/2013 6:32:22 PM*
%MOIN*%
G04 Gerber Fmt 3.4, Leading zero omitted, Abs format*
%FSLAX34Y34*%
G01*
G70*
G90*
G04 APERTURE LIST*
%ADD10C,0.006*%
%ADD11R,0.19685X0.11811*%
%ADD12C,0.0629921*%
%ADD13C,0.0984252*%
%ADD14C,0.02*%
%ADD15C,0.025*%
G04 APERTURE END LIST*
G54D10*
G54D11*
X29750Y-20750D03*
G54D12*
X29750Y-18750D03*
X29750Y-17750D03*
G54D11*
X29750Y-15750D03*
G54D13*
X31850Y-15650D03*
X27650Y-20850D03*
G54D14*
X29750Y-20750D02*
X29750Y-19000D01*
X29750Y-20750D02*
X29750Y-19000D01*
X29750Y-18000D02*
X29750Y-15750D01*
G54D10*
G36*
X29275Y-19784D02*
X28691Y-19784D01*
X28553Y-19841D01*
X28448Y-19946D01*
X28390Y-20084D01*
X28390Y-20233D01*
X28390Y-20313D01*
X28324Y-20298D01*
X28201Y-20175D01*
X28179Y-20079D01*
X27843Y-19935D01*
X27479Y-19930D01*
X27150Y-20062D01*
X27150Y-15150D01*
X28390Y-15150D01*
X28390Y-15233D01*
X28390Y-16414D01*
X28447Y-16552D01*
X28553Y-16658D01*
X28690Y-16715D01*
X28840Y-16715D01*
X29275Y-16715D01*
X29275Y-17249D01*
X29165Y-17358D01*
X29060Y-17612D01*
X29059Y-17886D01*
X29164Y-18140D01*
X29274Y-18250D01*
X29165Y-18358D01*
X29060Y-18612D01*
X29059Y-18886D01*
X29164Y-19140D01*
X29275Y-19250D01*
X29275Y-19784D01*
X29275Y-19784D01*
G37*
G54D15*
X29275Y-19784D02*
X28691Y-19784D01*
X28553Y-19841D01*
X28448Y-19946D01*
X28390Y-20084D01*
X28390Y-20233D01*
X28390Y-20313D01*
X28324Y-20298D01*
X28201Y-20175D01*
X28179Y-20079D01*
X27843Y-19935D01*
X27479Y-19930D01*
X27150Y-20062D01*
X27150Y-15150D01*
X28390Y-15150D01*
X28390Y-15233D01*
X28390Y-16414D01*
X28447Y-16552D01*
X28553Y-16658D01*
X28690Y-16715D01*
X28840Y-16715D01*
X29275Y-16715D01*
X29275Y-17249D01*
X29165Y-17358D01*
X29060Y-17612D01*
X29059Y-17886D01*
X29164Y-18140D01*
X29274Y-18250D01*
X29165Y-18358D01*
X29060Y-18612D01*
X29059Y-18886D01*
X29164Y-19140D01*
X29275Y-19250D01*
X29275Y-19784D01*
G54D10*
G36*
X32350Y-21350D02*
X31109Y-21350D01*
X31109Y-21266D01*
X31109Y-20085D01*
X31052Y-19947D01*
X30946Y-19841D01*
X30809Y-19784D01*
X30659Y-19784D01*
X30225Y-19784D01*
X30225Y-19250D01*
X30334Y-19141D01*
X30439Y-18887D01*
X30440Y-18613D01*
X30335Y-18359D01*
X30225Y-18249D01*
X30334Y-18141D01*
X30439Y-17887D01*
X30440Y-17613D01*
X30335Y-17359D01*
X30225Y-17249D01*
X30225Y-16715D01*
X30808Y-16715D01*
X30946Y-16658D01*
X31051Y-16553D01*
X31109Y-16415D01*
X31109Y-16266D01*
X31109Y-16186D01*
X31175Y-16201D01*
X31298Y-16324D01*
X31320Y-16420D01*
X31656Y-16564D01*
X32020Y-16569D01*
X32350Y-16437D01*
X32350Y-21350D01*
X32350Y-21350D01*
G37*
G54D15*
X32350Y-21350D02*
X31109Y-21350D01*
X31109Y-21266D01*
X31109Y-20085D01*
X31052Y-19947D01*
X30946Y-19841D01*
X30809Y-19784D01*
X30659Y-19784D01*
X30225Y-19784D01*
X30225Y-19250D01*
X30334Y-19141D01*
X30439Y-18887D01*
X30440Y-18613D01*
X30335Y-18359D01*
X30225Y-18249D01*
X30334Y-18141D01*
X30439Y-17887D01*
X30440Y-17613D01*
X30335Y-17359D01*
X30225Y-17249D01*
X30225Y-16715D01*
X30808Y-16715D01*
X30946Y-16658D01*
X31051Y-16553D01*
X31109Y-16415D01*
X31109Y-16266D01*
X31109Y-16186D01*
X31175Y-16201D01*
X31298Y-16324D01*
X31320Y-16420D01*
X31656Y-16564D01*
X32020Y-16569D01*
X32350Y-16437D01*
X32350Y-21350D01*
M02*
