%FSLAX34Y34*%
G04 Gerber Fmt 3.4, Leading zero omitted, Abs format*
G04 (created by PCBNEW (2014-04-22 BZR 4817)-product) date Mon 08 Sep 2014 03:11:33 PM CDT*
%MOIN*%
G01*
G70*
G90*
G04 APERTURE LIST*
%ADD10C,0.005000*%
%ADD11R,0.084740X0.124110*%
%ADD12C,0.147732*%
%ADD13C,0.080803*%
G04 APERTURE END LIST*
G54D10*
G54D11*
X154100Y-31000D03*
X155100Y-31000D03*
X156100Y-31000D03*
X157100Y-31000D03*
G54D12*
X155600Y-58500D03*
X155600Y-47500D03*
X155600Y-36500D03*
G54D11*
X145900Y-31000D03*
X146900Y-31000D03*
X147900Y-31000D03*
X148900Y-31000D03*
G54D12*
X147400Y-58500D03*
X147400Y-47500D03*
X147400Y-36500D03*
G54D11*
X141800Y-31000D03*
X142800Y-31000D03*
X143800Y-31000D03*
X144800Y-31000D03*
G54D12*
X143300Y-58500D03*
X143300Y-47500D03*
X143300Y-36500D03*
X126900Y-36500D03*
X126900Y-47500D03*
X126900Y-58500D03*
G54D11*
X128400Y-31000D03*
X127400Y-31000D03*
X126400Y-31000D03*
X125400Y-31000D03*
X129500Y-31000D03*
X130500Y-31000D03*
X131500Y-31000D03*
X132500Y-31000D03*
G54D12*
X131000Y-58500D03*
X131000Y-47500D03*
X131000Y-36500D03*
X139200Y-36500D03*
X139200Y-47500D03*
X139200Y-58500D03*
G54D11*
X140700Y-31000D03*
X139700Y-31000D03*
X138700Y-31000D03*
X137700Y-31000D03*
X133600Y-31000D03*
X134600Y-31000D03*
X135600Y-31000D03*
X136600Y-31000D03*
G54D12*
X135100Y-58500D03*
X135100Y-47500D03*
X135100Y-36500D03*
X118700Y-36500D03*
X118700Y-47500D03*
X118700Y-58500D03*
G54D11*
X120200Y-31000D03*
X119200Y-31000D03*
X118200Y-31000D03*
X117200Y-31000D03*
X121300Y-31000D03*
X122300Y-31000D03*
X123300Y-31000D03*
X124300Y-31000D03*
G54D12*
X122800Y-58500D03*
X122800Y-47500D03*
X122800Y-36500D03*
X114600Y-36500D03*
X114600Y-47500D03*
X114600Y-58500D03*
G54D11*
X116100Y-31000D03*
X115100Y-31000D03*
X114100Y-31000D03*
X113100Y-31000D03*
G54D12*
X151500Y-36500D03*
X151500Y-47500D03*
X151500Y-58500D03*
G54D11*
X153000Y-31000D03*
X152000Y-31000D03*
X151000Y-31000D03*
X150000Y-31000D03*
X109000Y-31000D03*
X110000Y-31000D03*
X111000Y-31000D03*
X112000Y-31000D03*
G54D12*
X110500Y-58500D03*
X110500Y-47500D03*
X110500Y-36500D03*
G54D13*
X110000Y-42000D03*
X111000Y-42000D03*
X110000Y-53000D03*
X111000Y-53000D03*
X110000Y-64000D03*
X111000Y-64000D03*
X151000Y-64000D03*
X152000Y-64000D03*
X151000Y-53000D03*
X152000Y-53000D03*
X151000Y-42000D03*
X152000Y-42000D03*
X114100Y-64000D03*
X115100Y-64000D03*
X114100Y-53000D03*
X115100Y-53000D03*
X114100Y-42000D03*
X115100Y-42000D03*
X122300Y-42000D03*
X123300Y-42000D03*
X122300Y-53000D03*
X123300Y-53000D03*
X122300Y-64000D03*
X123300Y-64000D03*
X118200Y-64000D03*
X119200Y-64000D03*
X118200Y-53000D03*
X119200Y-53000D03*
X118200Y-42000D03*
X119200Y-42000D03*
X134600Y-42000D03*
X135600Y-42000D03*
X134600Y-53000D03*
X135600Y-53000D03*
X134600Y-64000D03*
X135600Y-64000D03*
X138700Y-64000D03*
X139700Y-64000D03*
X138700Y-53000D03*
X139700Y-53000D03*
X138700Y-42000D03*
X139700Y-42000D03*
X130500Y-42000D03*
X131500Y-42000D03*
X130500Y-53000D03*
X131500Y-53000D03*
X130500Y-64000D03*
X131500Y-64000D03*
X126400Y-64000D03*
X127400Y-64000D03*
X126400Y-53000D03*
X127400Y-53000D03*
X126400Y-42000D03*
X127400Y-42000D03*
X142800Y-42000D03*
X143800Y-42000D03*
X142800Y-53000D03*
X143800Y-53000D03*
X142800Y-64000D03*
X143800Y-64000D03*
X146900Y-42000D03*
X147900Y-42000D03*
X146900Y-53000D03*
X147900Y-53000D03*
X146900Y-64000D03*
X147900Y-64000D03*
X155100Y-42000D03*
X156100Y-42000D03*
X155100Y-53000D03*
X156100Y-53000D03*
X155100Y-64000D03*
X156100Y-64000D03*
M02*
