M48
;DRILL file {kicad (2014-04-22 BZR 4817)-product} date Mon 08 Sep 2014 03:11:25 PM CDT
;FORMAT={2:4/ absolute / inch / keep zeros}
FMAT,2
INCH,TZ
T1C0.043
T2C0.142
%
G90
G05
M72
T1
X110000Y-042000
X110000Y-053000
X110000Y-064000
X111000Y-042000
X111000Y-053000
X111000Y-064000
X114100Y-042000
X114100Y-053000
X114100Y-064000
X115100Y-042000
X115100Y-053000
X115100Y-064000
X118200Y-042000
X118200Y-053000
X118200Y-064000
X119200Y-042000
X119200Y-053000
X119200Y-064000
X122300Y-042000
X122300Y-053000
X122300Y-064000
X123300Y-042000
X123300Y-053000
X123300Y-064000
X126400Y-042000
X126400Y-053000
X126400Y-064000
X127400Y-042000
X127400Y-053000
X127400Y-064000
X130500Y-042000
X130500Y-053000
X130500Y-064000
X131500Y-042000
X131500Y-053000
X131500Y-064000
X134600Y-042000
X134600Y-053000
X134600Y-064000
X135600Y-042000
X135600Y-053000
X135600Y-064000
X138700Y-042000
X138700Y-053000
X138700Y-064000
X139700Y-042000
X139700Y-053000
X139700Y-064000
X142800Y-042000
X142800Y-053000
X142800Y-064000
X143800Y-042000
X143800Y-053000
X143800Y-064000
X146900Y-042000
X146900Y-053000
X146900Y-064000
X147900Y-042000
X147900Y-053000
X147900Y-064000
X151000Y-042000
X151000Y-053000
X151000Y-064000
X152000Y-042000
X152000Y-053000
X152000Y-064000
X155100Y-042000
X155100Y-053000
X155100Y-064000
X156100Y-042000
X156100Y-053000
X156100Y-064000
T2
X110500Y-036500
X110500Y-047500
X110500Y-058500
X114600Y-036500
X114600Y-047500
X114600Y-058500
X118700Y-036500
X118700Y-047500
X118700Y-058500
X122800Y-036500
X122800Y-047500
X122800Y-058500
X126900Y-036500
X126900Y-047500
X126900Y-058500
X131000Y-036500
X131000Y-047500
X131000Y-058500
X135100Y-036500
X135100Y-047500
X135100Y-058500
X139200Y-036500
X139200Y-047500
X139200Y-058500
X143300Y-036500
X143300Y-047500
X143300Y-058500
X147400Y-036500
X147400Y-047500
X147400Y-058500
X151500Y-036500
X151500Y-047500
X151500Y-058500
X155600Y-036500
X155600Y-047500
X155600Y-058500
T0
M30
