%FSLAX34Y34*%
G04 Gerber Fmt 3.4, Leading zero omitted, Abs format*
G04 (created by PCBNEW (2014-04-22 BZR 4817)-product) date Mon 08 Sep 2014 03:11:33 PM CDT*
%MOIN*%
G01*
G70*
G90*
G04 APERTURE LIST*
%ADD10C,0.005000*%
%ADD11C,0.141732*%
%ADD12C,0.074803*%
%ADD13C,0.020000*%
G04 APERTURE END LIST*
G54D10*
G54D11*
X155600Y-58500D03*
X155600Y-47500D03*
X155600Y-36500D03*
X147400Y-58500D03*
X147400Y-47500D03*
X147400Y-36500D03*
X143300Y-58500D03*
X143300Y-47500D03*
X143300Y-36500D03*
X126900Y-36500D03*
X126900Y-47500D03*
X126900Y-58500D03*
X131000Y-58500D03*
X131000Y-47500D03*
X131000Y-36500D03*
X139200Y-36500D03*
X139200Y-47500D03*
X139200Y-58500D03*
X135100Y-58500D03*
X135100Y-47500D03*
X135100Y-36500D03*
X118700Y-36500D03*
X118700Y-47500D03*
X118700Y-58500D03*
X122800Y-58500D03*
X122800Y-47500D03*
X122800Y-36500D03*
X114600Y-36500D03*
X114600Y-47500D03*
X114600Y-58500D03*
X151500Y-36500D03*
X151500Y-47500D03*
X151500Y-58500D03*
X110500Y-58500D03*
X110500Y-47500D03*
X110500Y-36500D03*
G54D12*
X110000Y-42000D03*
X111000Y-42000D03*
X110000Y-53000D03*
X111000Y-53000D03*
X110000Y-64000D03*
X111000Y-64000D03*
X151000Y-64000D03*
X152000Y-64000D03*
X151000Y-53000D03*
X152000Y-53000D03*
X151000Y-42000D03*
X152000Y-42000D03*
X114100Y-64000D03*
X115100Y-64000D03*
X114100Y-53000D03*
X115100Y-53000D03*
X114100Y-42000D03*
X115100Y-42000D03*
X122300Y-42000D03*
X123300Y-42000D03*
X122300Y-53000D03*
X123300Y-53000D03*
X122300Y-64000D03*
X123300Y-64000D03*
X118200Y-64000D03*
X119200Y-64000D03*
X118200Y-53000D03*
X119200Y-53000D03*
X118200Y-42000D03*
X119200Y-42000D03*
X134600Y-42000D03*
X135600Y-42000D03*
X134600Y-53000D03*
X135600Y-53000D03*
X134600Y-64000D03*
X135600Y-64000D03*
X138700Y-64000D03*
X139700Y-64000D03*
X138700Y-53000D03*
X139700Y-53000D03*
X138700Y-42000D03*
X139700Y-42000D03*
X130500Y-42000D03*
X131500Y-42000D03*
X130500Y-53000D03*
X131500Y-53000D03*
X130500Y-64000D03*
X131500Y-64000D03*
X126400Y-64000D03*
X127400Y-64000D03*
X126400Y-53000D03*
X127400Y-53000D03*
X126400Y-42000D03*
X127400Y-42000D03*
X142800Y-42000D03*
X143800Y-42000D03*
X142800Y-53000D03*
X143800Y-53000D03*
X142800Y-64000D03*
X143800Y-64000D03*
X146900Y-42000D03*
X147900Y-42000D03*
X146900Y-53000D03*
X147900Y-53000D03*
X146900Y-64000D03*
X147900Y-64000D03*
X155100Y-42000D03*
X156100Y-42000D03*
X155100Y-53000D03*
X156100Y-53000D03*
X155100Y-64000D03*
X156100Y-64000D03*
G54D10*
G36*
X112225Y-65675D02*
X111674Y-65675D01*
X111674Y-63866D01*
X111674Y-52866D01*
X111674Y-41866D01*
X111609Y-41710D01*
X111609Y-36715D01*
X111607Y-36273D01*
X111442Y-35876D01*
X111263Y-35807D01*
X111248Y-35822D01*
X111177Y-35751D01*
X111192Y-35736D01*
X111123Y-35557D01*
X110715Y-35390D01*
X110273Y-35392D01*
X109876Y-35557D01*
X109807Y-35736D01*
X109822Y-35751D01*
X109751Y-35822D01*
X109736Y-35807D01*
X109557Y-35876D01*
X109390Y-36284D01*
X109392Y-36726D01*
X109557Y-37123D01*
X109736Y-37192D01*
X109751Y-37177D01*
X109822Y-37248D01*
X109807Y-37263D01*
X109876Y-37442D01*
X110284Y-37609D01*
X110726Y-37607D01*
X111123Y-37442D01*
X111192Y-37263D01*
X111177Y-37248D01*
X111248Y-37177D01*
X111263Y-37192D01*
X111442Y-37123D01*
X111609Y-36715D01*
X111609Y-41710D01*
X111571Y-41618D01*
X111382Y-41428D01*
X111134Y-41326D01*
X110866Y-41325D01*
X110618Y-41428D01*
X110499Y-41546D01*
X110382Y-41428D01*
X110134Y-41326D01*
X109866Y-41325D01*
X109618Y-41428D01*
X109428Y-41617D01*
X109326Y-41865D01*
X109325Y-42133D01*
X109428Y-42381D01*
X109617Y-42571D01*
X109865Y-42673D01*
X110133Y-42674D01*
X110381Y-42571D01*
X110500Y-42453D01*
X110617Y-42571D01*
X110865Y-42673D01*
X111133Y-42674D01*
X111381Y-42571D01*
X111571Y-42382D01*
X111673Y-42134D01*
X111674Y-41866D01*
X111674Y-52866D01*
X111609Y-52710D01*
X111609Y-47715D01*
X111607Y-47273D01*
X111442Y-46876D01*
X111263Y-46807D01*
X111248Y-46822D01*
X111177Y-46751D01*
X111192Y-46736D01*
X111123Y-46557D01*
X110715Y-46390D01*
X110273Y-46392D01*
X109876Y-46557D01*
X109807Y-46736D01*
X109822Y-46751D01*
X109751Y-46822D01*
X109736Y-46807D01*
X109557Y-46876D01*
X109390Y-47284D01*
X109392Y-47726D01*
X109557Y-48123D01*
X109736Y-48192D01*
X109751Y-48177D01*
X109822Y-48248D01*
X109807Y-48263D01*
X109876Y-48442D01*
X110284Y-48609D01*
X110726Y-48607D01*
X111123Y-48442D01*
X111192Y-48263D01*
X111177Y-48248D01*
X111248Y-48177D01*
X111263Y-48192D01*
X111442Y-48123D01*
X111609Y-47715D01*
X111609Y-52710D01*
X111571Y-52618D01*
X111382Y-52428D01*
X111134Y-52326D01*
X110866Y-52325D01*
X110618Y-52428D01*
X110499Y-52546D01*
X110382Y-52428D01*
X110134Y-52326D01*
X109866Y-52325D01*
X109618Y-52428D01*
X109428Y-52617D01*
X109326Y-52865D01*
X109325Y-53133D01*
X109428Y-53381D01*
X109617Y-53571D01*
X109865Y-53673D01*
X110133Y-53674D01*
X110381Y-53571D01*
X110500Y-53453D01*
X110617Y-53571D01*
X110865Y-53673D01*
X111133Y-53674D01*
X111381Y-53571D01*
X111571Y-53382D01*
X111673Y-53134D01*
X111674Y-52866D01*
X111674Y-63866D01*
X111609Y-63710D01*
X111609Y-58715D01*
X111607Y-58273D01*
X111442Y-57876D01*
X111263Y-57807D01*
X111248Y-57822D01*
X111177Y-57751D01*
X111192Y-57736D01*
X111123Y-57557D01*
X110715Y-57390D01*
X110273Y-57392D01*
X109876Y-57557D01*
X109807Y-57736D01*
X109822Y-57751D01*
X109751Y-57822D01*
X109736Y-57807D01*
X109557Y-57876D01*
X109390Y-58284D01*
X109392Y-58726D01*
X109557Y-59123D01*
X109736Y-59192D01*
X109751Y-59177D01*
X109822Y-59248D01*
X109807Y-59263D01*
X109876Y-59442D01*
X110284Y-59609D01*
X110726Y-59607D01*
X111123Y-59442D01*
X111192Y-59263D01*
X111177Y-59248D01*
X111248Y-59177D01*
X111263Y-59192D01*
X111442Y-59123D01*
X111609Y-58715D01*
X111609Y-63710D01*
X111571Y-63618D01*
X111382Y-63428D01*
X111134Y-63326D01*
X110866Y-63325D01*
X110618Y-63428D01*
X110499Y-63546D01*
X110382Y-63428D01*
X110134Y-63326D01*
X109866Y-63325D01*
X109618Y-63428D01*
X109428Y-63617D01*
X109326Y-63865D01*
X109325Y-64133D01*
X109428Y-64381D01*
X109617Y-64571D01*
X109865Y-64673D01*
X110133Y-64674D01*
X110381Y-64571D01*
X110500Y-64453D01*
X110617Y-64571D01*
X110865Y-64673D01*
X111133Y-64674D01*
X111381Y-64571D01*
X111571Y-64382D01*
X111673Y-64134D01*
X111674Y-63866D01*
X111674Y-65675D01*
X108775Y-65675D01*
X108775Y-30575D01*
X112225Y-30575D01*
X112225Y-65675D01*
X112225Y-65675D01*
G37*
G54D13*
X112225Y-65675D02*
X111674Y-65675D01*
X111674Y-63866D01*
X111674Y-52866D01*
X111674Y-41866D01*
X111609Y-41710D01*
X111609Y-36715D01*
X111607Y-36273D01*
X111442Y-35876D01*
X111263Y-35807D01*
X111248Y-35822D01*
X111177Y-35751D01*
X111192Y-35736D01*
X111123Y-35557D01*
X110715Y-35390D01*
X110273Y-35392D01*
X109876Y-35557D01*
X109807Y-35736D01*
X109822Y-35751D01*
X109751Y-35822D01*
X109736Y-35807D01*
X109557Y-35876D01*
X109390Y-36284D01*
X109392Y-36726D01*
X109557Y-37123D01*
X109736Y-37192D01*
X109751Y-37177D01*
X109822Y-37248D01*
X109807Y-37263D01*
X109876Y-37442D01*
X110284Y-37609D01*
X110726Y-37607D01*
X111123Y-37442D01*
X111192Y-37263D01*
X111177Y-37248D01*
X111248Y-37177D01*
X111263Y-37192D01*
X111442Y-37123D01*
X111609Y-36715D01*
X111609Y-41710D01*
X111571Y-41618D01*
X111382Y-41428D01*
X111134Y-41326D01*
X110866Y-41325D01*
X110618Y-41428D01*
X110499Y-41546D01*
X110382Y-41428D01*
X110134Y-41326D01*
X109866Y-41325D01*
X109618Y-41428D01*
X109428Y-41617D01*
X109326Y-41865D01*
X109325Y-42133D01*
X109428Y-42381D01*
X109617Y-42571D01*
X109865Y-42673D01*
X110133Y-42674D01*
X110381Y-42571D01*
X110500Y-42453D01*
X110617Y-42571D01*
X110865Y-42673D01*
X111133Y-42674D01*
X111381Y-42571D01*
X111571Y-42382D01*
X111673Y-42134D01*
X111674Y-41866D01*
X111674Y-52866D01*
X111609Y-52710D01*
X111609Y-47715D01*
X111607Y-47273D01*
X111442Y-46876D01*
X111263Y-46807D01*
X111248Y-46822D01*
X111177Y-46751D01*
X111192Y-46736D01*
X111123Y-46557D01*
X110715Y-46390D01*
X110273Y-46392D01*
X109876Y-46557D01*
X109807Y-46736D01*
X109822Y-46751D01*
X109751Y-46822D01*
X109736Y-46807D01*
X109557Y-46876D01*
X109390Y-47284D01*
X109392Y-47726D01*
X109557Y-48123D01*
X109736Y-48192D01*
X109751Y-48177D01*
X109822Y-48248D01*
X109807Y-48263D01*
X109876Y-48442D01*
X110284Y-48609D01*
X110726Y-48607D01*
X111123Y-48442D01*
X111192Y-48263D01*
X111177Y-48248D01*
X111248Y-48177D01*
X111263Y-48192D01*
X111442Y-48123D01*
X111609Y-47715D01*
X111609Y-52710D01*
X111571Y-52618D01*
X111382Y-52428D01*
X111134Y-52326D01*
X110866Y-52325D01*
X110618Y-52428D01*
X110499Y-52546D01*
X110382Y-52428D01*
X110134Y-52326D01*
X109866Y-52325D01*
X109618Y-52428D01*
X109428Y-52617D01*
X109326Y-52865D01*
X109325Y-53133D01*
X109428Y-53381D01*
X109617Y-53571D01*
X109865Y-53673D01*
X110133Y-53674D01*
X110381Y-53571D01*
X110500Y-53453D01*
X110617Y-53571D01*
X110865Y-53673D01*
X111133Y-53674D01*
X111381Y-53571D01*
X111571Y-53382D01*
X111673Y-53134D01*
X111674Y-52866D01*
X111674Y-63866D01*
X111609Y-63710D01*
X111609Y-58715D01*
X111607Y-58273D01*
X111442Y-57876D01*
X111263Y-57807D01*
X111248Y-57822D01*
X111177Y-57751D01*
X111192Y-57736D01*
X111123Y-57557D01*
X110715Y-57390D01*
X110273Y-57392D01*
X109876Y-57557D01*
X109807Y-57736D01*
X109822Y-57751D01*
X109751Y-57822D01*
X109736Y-57807D01*
X109557Y-57876D01*
X109390Y-58284D01*
X109392Y-58726D01*
X109557Y-59123D01*
X109736Y-59192D01*
X109751Y-59177D01*
X109822Y-59248D01*
X109807Y-59263D01*
X109876Y-59442D01*
X110284Y-59609D01*
X110726Y-59607D01*
X111123Y-59442D01*
X111192Y-59263D01*
X111177Y-59248D01*
X111248Y-59177D01*
X111263Y-59192D01*
X111442Y-59123D01*
X111609Y-58715D01*
X111609Y-63710D01*
X111571Y-63618D01*
X111382Y-63428D01*
X111134Y-63326D01*
X110866Y-63325D01*
X110618Y-63428D01*
X110499Y-63546D01*
X110382Y-63428D01*
X110134Y-63326D01*
X109866Y-63325D01*
X109618Y-63428D01*
X109428Y-63617D01*
X109326Y-63865D01*
X109325Y-64133D01*
X109428Y-64381D01*
X109617Y-64571D01*
X109865Y-64673D01*
X110133Y-64674D01*
X110381Y-64571D01*
X110500Y-64453D01*
X110617Y-64571D01*
X110865Y-64673D01*
X111133Y-64674D01*
X111381Y-64571D01*
X111571Y-64382D01*
X111673Y-64134D01*
X111674Y-63866D01*
X111674Y-65675D01*
X108775Y-65675D01*
X108775Y-30575D01*
X112225Y-30575D01*
X112225Y-65675D01*
G54D10*
G36*
X153225Y-65675D02*
X152674Y-65675D01*
X152674Y-63866D01*
X152674Y-52866D01*
X152674Y-41866D01*
X152609Y-41710D01*
X152609Y-36715D01*
X152607Y-36273D01*
X152442Y-35876D01*
X152263Y-35807D01*
X152248Y-35822D01*
X152177Y-35751D01*
X152192Y-35736D01*
X152123Y-35557D01*
X151715Y-35390D01*
X151273Y-35392D01*
X150876Y-35557D01*
X150807Y-35736D01*
X150822Y-35751D01*
X150751Y-35822D01*
X150736Y-35807D01*
X150557Y-35876D01*
X150390Y-36284D01*
X150392Y-36726D01*
X150557Y-37123D01*
X150736Y-37192D01*
X150751Y-37177D01*
X150822Y-37248D01*
X150807Y-37263D01*
X150876Y-37442D01*
X151284Y-37609D01*
X151726Y-37607D01*
X152123Y-37442D01*
X152192Y-37263D01*
X152177Y-37248D01*
X152248Y-37177D01*
X152263Y-37192D01*
X152442Y-37123D01*
X152609Y-36715D01*
X152609Y-41710D01*
X152571Y-41618D01*
X152382Y-41428D01*
X152134Y-41326D01*
X151866Y-41325D01*
X151618Y-41428D01*
X151499Y-41546D01*
X151382Y-41428D01*
X151134Y-41326D01*
X150866Y-41325D01*
X150618Y-41428D01*
X150428Y-41617D01*
X150326Y-41865D01*
X150325Y-42133D01*
X150428Y-42381D01*
X150617Y-42571D01*
X150865Y-42673D01*
X151133Y-42674D01*
X151381Y-42571D01*
X151500Y-42453D01*
X151617Y-42571D01*
X151865Y-42673D01*
X152133Y-42674D01*
X152381Y-42571D01*
X152571Y-42382D01*
X152673Y-42134D01*
X152674Y-41866D01*
X152674Y-52866D01*
X152609Y-52710D01*
X152609Y-47715D01*
X152607Y-47273D01*
X152442Y-46876D01*
X152263Y-46807D01*
X152248Y-46822D01*
X152177Y-46751D01*
X152192Y-46736D01*
X152123Y-46557D01*
X151715Y-46390D01*
X151273Y-46392D01*
X150876Y-46557D01*
X150807Y-46736D01*
X150822Y-46751D01*
X150751Y-46822D01*
X150736Y-46807D01*
X150557Y-46876D01*
X150390Y-47284D01*
X150392Y-47726D01*
X150557Y-48123D01*
X150736Y-48192D01*
X150751Y-48177D01*
X150822Y-48248D01*
X150807Y-48263D01*
X150876Y-48442D01*
X151284Y-48609D01*
X151726Y-48607D01*
X152123Y-48442D01*
X152192Y-48263D01*
X152177Y-48248D01*
X152248Y-48177D01*
X152263Y-48192D01*
X152442Y-48123D01*
X152609Y-47715D01*
X152609Y-52710D01*
X152571Y-52618D01*
X152382Y-52428D01*
X152134Y-52326D01*
X151866Y-52325D01*
X151618Y-52428D01*
X151499Y-52546D01*
X151382Y-52428D01*
X151134Y-52326D01*
X150866Y-52325D01*
X150618Y-52428D01*
X150428Y-52617D01*
X150326Y-52865D01*
X150325Y-53133D01*
X150428Y-53381D01*
X150617Y-53571D01*
X150865Y-53673D01*
X151133Y-53674D01*
X151381Y-53571D01*
X151500Y-53453D01*
X151617Y-53571D01*
X151865Y-53673D01*
X152133Y-53674D01*
X152381Y-53571D01*
X152571Y-53382D01*
X152673Y-53134D01*
X152674Y-52866D01*
X152674Y-63866D01*
X152609Y-63710D01*
X152609Y-58715D01*
X152607Y-58273D01*
X152442Y-57876D01*
X152263Y-57807D01*
X152248Y-57822D01*
X152177Y-57751D01*
X152192Y-57736D01*
X152123Y-57557D01*
X151715Y-57390D01*
X151273Y-57392D01*
X150876Y-57557D01*
X150807Y-57736D01*
X150822Y-57751D01*
X150751Y-57822D01*
X150736Y-57807D01*
X150557Y-57876D01*
X150390Y-58284D01*
X150392Y-58726D01*
X150557Y-59123D01*
X150736Y-59192D01*
X150751Y-59177D01*
X150822Y-59248D01*
X150807Y-59263D01*
X150876Y-59442D01*
X151284Y-59609D01*
X151726Y-59607D01*
X152123Y-59442D01*
X152192Y-59263D01*
X152177Y-59248D01*
X152248Y-59177D01*
X152263Y-59192D01*
X152442Y-59123D01*
X152609Y-58715D01*
X152609Y-63710D01*
X152571Y-63618D01*
X152382Y-63428D01*
X152134Y-63326D01*
X151866Y-63325D01*
X151618Y-63428D01*
X151499Y-63546D01*
X151382Y-63428D01*
X151134Y-63326D01*
X150866Y-63325D01*
X150618Y-63428D01*
X150428Y-63617D01*
X150326Y-63865D01*
X150325Y-64133D01*
X150428Y-64381D01*
X150617Y-64571D01*
X150865Y-64673D01*
X151133Y-64674D01*
X151381Y-64571D01*
X151500Y-64453D01*
X151617Y-64571D01*
X151865Y-64673D01*
X152133Y-64674D01*
X152381Y-64571D01*
X152571Y-64382D01*
X152673Y-64134D01*
X152674Y-63866D01*
X152674Y-65675D01*
X149775Y-65675D01*
X149775Y-30575D01*
X153225Y-30575D01*
X153225Y-65675D01*
X153225Y-65675D01*
G37*
G54D13*
X153225Y-65675D02*
X152674Y-65675D01*
X152674Y-63866D01*
X152674Y-52866D01*
X152674Y-41866D01*
X152609Y-41710D01*
X152609Y-36715D01*
X152607Y-36273D01*
X152442Y-35876D01*
X152263Y-35807D01*
X152248Y-35822D01*
X152177Y-35751D01*
X152192Y-35736D01*
X152123Y-35557D01*
X151715Y-35390D01*
X151273Y-35392D01*
X150876Y-35557D01*
X150807Y-35736D01*
X150822Y-35751D01*
X150751Y-35822D01*
X150736Y-35807D01*
X150557Y-35876D01*
X150390Y-36284D01*
X150392Y-36726D01*
X150557Y-37123D01*
X150736Y-37192D01*
X150751Y-37177D01*
X150822Y-37248D01*
X150807Y-37263D01*
X150876Y-37442D01*
X151284Y-37609D01*
X151726Y-37607D01*
X152123Y-37442D01*
X152192Y-37263D01*
X152177Y-37248D01*
X152248Y-37177D01*
X152263Y-37192D01*
X152442Y-37123D01*
X152609Y-36715D01*
X152609Y-41710D01*
X152571Y-41618D01*
X152382Y-41428D01*
X152134Y-41326D01*
X151866Y-41325D01*
X151618Y-41428D01*
X151499Y-41546D01*
X151382Y-41428D01*
X151134Y-41326D01*
X150866Y-41325D01*
X150618Y-41428D01*
X150428Y-41617D01*
X150326Y-41865D01*
X150325Y-42133D01*
X150428Y-42381D01*
X150617Y-42571D01*
X150865Y-42673D01*
X151133Y-42674D01*
X151381Y-42571D01*
X151500Y-42453D01*
X151617Y-42571D01*
X151865Y-42673D01*
X152133Y-42674D01*
X152381Y-42571D01*
X152571Y-42382D01*
X152673Y-42134D01*
X152674Y-41866D01*
X152674Y-52866D01*
X152609Y-52710D01*
X152609Y-47715D01*
X152607Y-47273D01*
X152442Y-46876D01*
X152263Y-46807D01*
X152248Y-46822D01*
X152177Y-46751D01*
X152192Y-46736D01*
X152123Y-46557D01*
X151715Y-46390D01*
X151273Y-46392D01*
X150876Y-46557D01*
X150807Y-46736D01*
X150822Y-46751D01*
X150751Y-46822D01*
X150736Y-46807D01*
X150557Y-46876D01*
X150390Y-47284D01*
X150392Y-47726D01*
X150557Y-48123D01*
X150736Y-48192D01*
X150751Y-48177D01*
X150822Y-48248D01*
X150807Y-48263D01*
X150876Y-48442D01*
X151284Y-48609D01*
X151726Y-48607D01*
X152123Y-48442D01*
X152192Y-48263D01*
X152177Y-48248D01*
X152248Y-48177D01*
X152263Y-48192D01*
X152442Y-48123D01*
X152609Y-47715D01*
X152609Y-52710D01*
X152571Y-52618D01*
X152382Y-52428D01*
X152134Y-52326D01*
X151866Y-52325D01*
X151618Y-52428D01*
X151499Y-52546D01*
X151382Y-52428D01*
X151134Y-52326D01*
X150866Y-52325D01*
X150618Y-52428D01*
X150428Y-52617D01*
X150326Y-52865D01*
X150325Y-53133D01*
X150428Y-53381D01*
X150617Y-53571D01*
X150865Y-53673D01*
X151133Y-53674D01*
X151381Y-53571D01*
X151500Y-53453D01*
X151617Y-53571D01*
X151865Y-53673D01*
X152133Y-53674D01*
X152381Y-53571D01*
X152571Y-53382D01*
X152673Y-53134D01*
X152674Y-52866D01*
X152674Y-63866D01*
X152609Y-63710D01*
X152609Y-58715D01*
X152607Y-58273D01*
X152442Y-57876D01*
X152263Y-57807D01*
X152248Y-57822D01*
X152177Y-57751D01*
X152192Y-57736D01*
X152123Y-57557D01*
X151715Y-57390D01*
X151273Y-57392D01*
X150876Y-57557D01*
X150807Y-57736D01*
X150822Y-57751D01*
X150751Y-57822D01*
X150736Y-57807D01*
X150557Y-57876D01*
X150390Y-58284D01*
X150392Y-58726D01*
X150557Y-59123D01*
X150736Y-59192D01*
X150751Y-59177D01*
X150822Y-59248D01*
X150807Y-59263D01*
X150876Y-59442D01*
X151284Y-59609D01*
X151726Y-59607D01*
X152123Y-59442D01*
X152192Y-59263D01*
X152177Y-59248D01*
X152248Y-59177D01*
X152263Y-59192D01*
X152442Y-59123D01*
X152609Y-58715D01*
X152609Y-63710D01*
X152571Y-63618D01*
X152382Y-63428D01*
X152134Y-63326D01*
X151866Y-63325D01*
X151618Y-63428D01*
X151499Y-63546D01*
X151382Y-63428D01*
X151134Y-63326D01*
X150866Y-63325D01*
X150618Y-63428D01*
X150428Y-63617D01*
X150326Y-63865D01*
X150325Y-64133D01*
X150428Y-64381D01*
X150617Y-64571D01*
X150865Y-64673D01*
X151133Y-64674D01*
X151381Y-64571D01*
X151500Y-64453D01*
X151617Y-64571D01*
X151865Y-64673D01*
X152133Y-64674D01*
X152381Y-64571D01*
X152571Y-64382D01*
X152673Y-64134D01*
X152674Y-63866D01*
X152674Y-65675D01*
X149775Y-65675D01*
X149775Y-30575D01*
X153225Y-30575D01*
X153225Y-65675D01*
G54D10*
G36*
X116325Y-65675D02*
X115774Y-65675D01*
X115774Y-63866D01*
X115774Y-52866D01*
X115774Y-41866D01*
X115709Y-41710D01*
X115709Y-36715D01*
X115707Y-36273D01*
X115542Y-35876D01*
X115363Y-35807D01*
X115348Y-35822D01*
X115277Y-35751D01*
X115292Y-35736D01*
X115223Y-35557D01*
X114815Y-35390D01*
X114373Y-35392D01*
X113976Y-35557D01*
X113907Y-35736D01*
X113922Y-35751D01*
X113851Y-35822D01*
X113836Y-35807D01*
X113657Y-35876D01*
X113490Y-36284D01*
X113492Y-36726D01*
X113657Y-37123D01*
X113836Y-37192D01*
X113851Y-37177D01*
X113922Y-37248D01*
X113907Y-37263D01*
X113976Y-37442D01*
X114384Y-37609D01*
X114826Y-37607D01*
X115223Y-37442D01*
X115292Y-37263D01*
X115277Y-37248D01*
X115348Y-37177D01*
X115363Y-37192D01*
X115542Y-37123D01*
X115709Y-36715D01*
X115709Y-41710D01*
X115671Y-41618D01*
X115482Y-41428D01*
X115234Y-41326D01*
X114966Y-41325D01*
X114718Y-41428D01*
X114599Y-41546D01*
X114482Y-41428D01*
X114234Y-41326D01*
X113966Y-41325D01*
X113718Y-41428D01*
X113528Y-41617D01*
X113426Y-41865D01*
X113425Y-42133D01*
X113528Y-42381D01*
X113717Y-42571D01*
X113965Y-42673D01*
X114233Y-42674D01*
X114481Y-42571D01*
X114600Y-42453D01*
X114717Y-42571D01*
X114965Y-42673D01*
X115233Y-42674D01*
X115481Y-42571D01*
X115671Y-42382D01*
X115773Y-42134D01*
X115774Y-41866D01*
X115774Y-52866D01*
X115709Y-52710D01*
X115709Y-47715D01*
X115707Y-47273D01*
X115542Y-46876D01*
X115363Y-46807D01*
X115348Y-46822D01*
X115277Y-46751D01*
X115292Y-46736D01*
X115223Y-46557D01*
X114815Y-46390D01*
X114373Y-46392D01*
X113976Y-46557D01*
X113907Y-46736D01*
X113922Y-46751D01*
X113851Y-46822D01*
X113836Y-46807D01*
X113657Y-46876D01*
X113490Y-47284D01*
X113492Y-47726D01*
X113657Y-48123D01*
X113836Y-48192D01*
X113851Y-48177D01*
X113922Y-48248D01*
X113907Y-48263D01*
X113976Y-48442D01*
X114384Y-48609D01*
X114826Y-48607D01*
X115223Y-48442D01*
X115292Y-48263D01*
X115277Y-48248D01*
X115348Y-48177D01*
X115363Y-48192D01*
X115542Y-48123D01*
X115709Y-47715D01*
X115709Y-52710D01*
X115671Y-52618D01*
X115482Y-52428D01*
X115234Y-52326D01*
X114966Y-52325D01*
X114718Y-52428D01*
X114599Y-52546D01*
X114482Y-52428D01*
X114234Y-52326D01*
X113966Y-52325D01*
X113718Y-52428D01*
X113528Y-52617D01*
X113426Y-52865D01*
X113425Y-53133D01*
X113528Y-53381D01*
X113717Y-53571D01*
X113965Y-53673D01*
X114233Y-53674D01*
X114481Y-53571D01*
X114600Y-53453D01*
X114717Y-53571D01*
X114965Y-53673D01*
X115233Y-53674D01*
X115481Y-53571D01*
X115671Y-53382D01*
X115773Y-53134D01*
X115774Y-52866D01*
X115774Y-63866D01*
X115709Y-63710D01*
X115709Y-58715D01*
X115707Y-58273D01*
X115542Y-57876D01*
X115363Y-57807D01*
X115348Y-57822D01*
X115277Y-57751D01*
X115292Y-57736D01*
X115223Y-57557D01*
X114815Y-57390D01*
X114373Y-57392D01*
X113976Y-57557D01*
X113907Y-57736D01*
X113922Y-57751D01*
X113851Y-57822D01*
X113836Y-57807D01*
X113657Y-57876D01*
X113490Y-58284D01*
X113492Y-58726D01*
X113657Y-59123D01*
X113836Y-59192D01*
X113851Y-59177D01*
X113922Y-59248D01*
X113907Y-59263D01*
X113976Y-59442D01*
X114384Y-59609D01*
X114826Y-59607D01*
X115223Y-59442D01*
X115292Y-59263D01*
X115277Y-59248D01*
X115348Y-59177D01*
X115363Y-59192D01*
X115542Y-59123D01*
X115709Y-58715D01*
X115709Y-63710D01*
X115671Y-63618D01*
X115482Y-63428D01*
X115234Y-63326D01*
X114966Y-63325D01*
X114718Y-63428D01*
X114599Y-63546D01*
X114482Y-63428D01*
X114234Y-63326D01*
X113966Y-63325D01*
X113718Y-63428D01*
X113528Y-63617D01*
X113426Y-63865D01*
X113425Y-64133D01*
X113528Y-64381D01*
X113717Y-64571D01*
X113965Y-64673D01*
X114233Y-64674D01*
X114481Y-64571D01*
X114600Y-64453D01*
X114717Y-64571D01*
X114965Y-64673D01*
X115233Y-64674D01*
X115481Y-64571D01*
X115671Y-64382D01*
X115773Y-64134D01*
X115774Y-63866D01*
X115774Y-65675D01*
X112875Y-65675D01*
X112875Y-30575D01*
X116325Y-30575D01*
X116325Y-65675D01*
X116325Y-65675D01*
G37*
G54D13*
X116325Y-65675D02*
X115774Y-65675D01*
X115774Y-63866D01*
X115774Y-52866D01*
X115774Y-41866D01*
X115709Y-41710D01*
X115709Y-36715D01*
X115707Y-36273D01*
X115542Y-35876D01*
X115363Y-35807D01*
X115348Y-35822D01*
X115277Y-35751D01*
X115292Y-35736D01*
X115223Y-35557D01*
X114815Y-35390D01*
X114373Y-35392D01*
X113976Y-35557D01*
X113907Y-35736D01*
X113922Y-35751D01*
X113851Y-35822D01*
X113836Y-35807D01*
X113657Y-35876D01*
X113490Y-36284D01*
X113492Y-36726D01*
X113657Y-37123D01*
X113836Y-37192D01*
X113851Y-37177D01*
X113922Y-37248D01*
X113907Y-37263D01*
X113976Y-37442D01*
X114384Y-37609D01*
X114826Y-37607D01*
X115223Y-37442D01*
X115292Y-37263D01*
X115277Y-37248D01*
X115348Y-37177D01*
X115363Y-37192D01*
X115542Y-37123D01*
X115709Y-36715D01*
X115709Y-41710D01*
X115671Y-41618D01*
X115482Y-41428D01*
X115234Y-41326D01*
X114966Y-41325D01*
X114718Y-41428D01*
X114599Y-41546D01*
X114482Y-41428D01*
X114234Y-41326D01*
X113966Y-41325D01*
X113718Y-41428D01*
X113528Y-41617D01*
X113426Y-41865D01*
X113425Y-42133D01*
X113528Y-42381D01*
X113717Y-42571D01*
X113965Y-42673D01*
X114233Y-42674D01*
X114481Y-42571D01*
X114600Y-42453D01*
X114717Y-42571D01*
X114965Y-42673D01*
X115233Y-42674D01*
X115481Y-42571D01*
X115671Y-42382D01*
X115773Y-42134D01*
X115774Y-41866D01*
X115774Y-52866D01*
X115709Y-52710D01*
X115709Y-47715D01*
X115707Y-47273D01*
X115542Y-46876D01*
X115363Y-46807D01*
X115348Y-46822D01*
X115277Y-46751D01*
X115292Y-46736D01*
X115223Y-46557D01*
X114815Y-46390D01*
X114373Y-46392D01*
X113976Y-46557D01*
X113907Y-46736D01*
X113922Y-46751D01*
X113851Y-46822D01*
X113836Y-46807D01*
X113657Y-46876D01*
X113490Y-47284D01*
X113492Y-47726D01*
X113657Y-48123D01*
X113836Y-48192D01*
X113851Y-48177D01*
X113922Y-48248D01*
X113907Y-48263D01*
X113976Y-48442D01*
X114384Y-48609D01*
X114826Y-48607D01*
X115223Y-48442D01*
X115292Y-48263D01*
X115277Y-48248D01*
X115348Y-48177D01*
X115363Y-48192D01*
X115542Y-48123D01*
X115709Y-47715D01*
X115709Y-52710D01*
X115671Y-52618D01*
X115482Y-52428D01*
X115234Y-52326D01*
X114966Y-52325D01*
X114718Y-52428D01*
X114599Y-52546D01*
X114482Y-52428D01*
X114234Y-52326D01*
X113966Y-52325D01*
X113718Y-52428D01*
X113528Y-52617D01*
X113426Y-52865D01*
X113425Y-53133D01*
X113528Y-53381D01*
X113717Y-53571D01*
X113965Y-53673D01*
X114233Y-53674D01*
X114481Y-53571D01*
X114600Y-53453D01*
X114717Y-53571D01*
X114965Y-53673D01*
X115233Y-53674D01*
X115481Y-53571D01*
X115671Y-53382D01*
X115773Y-53134D01*
X115774Y-52866D01*
X115774Y-63866D01*
X115709Y-63710D01*
X115709Y-58715D01*
X115707Y-58273D01*
X115542Y-57876D01*
X115363Y-57807D01*
X115348Y-57822D01*
X115277Y-57751D01*
X115292Y-57736D01*
X115223Y-57557D01*
X114815Y-57390D01*
X114373Y-57392D01*
X113976Y-57557D01*
X113907Y-57736D01*
X113922Y-57751D01*
X113851Y-57822D01*
X113836Y-57807D01*
X113657Y-57876D01*
X113490Y-58284D01*
X113492Y-58726D01*
X113657Y-59123D01*
X113836Y-59192D01*
X113851Y-59177D01*
X113922Y-59248D01*
X113907Y-59263D01*
X113976Y-59442D01*
X114384Y-59609D01*
X114826Y-59607D01*
X115223Y-59442D01*
X115292Y-59263D01*
X115277Y-59248D01*
X115348Y-59177D01*
X115363Y-59192D01*
X115542Y-59123D01*
X115709Y-58715D01*
X115709Y-63710D01*
X115671Y-63618D01*
X115482Y-63428D01*
X115234Y-63326D01*
X114966Y-63325D01*
X114718Y-63428D01*
X114599Y-63546D01*
X114482Y-63428D01*
X114234Y-63326D01*
X113966Y-63325D01*
X113718Y-63428D01*
X113528Y-63617D01*
X113426Y-63865D01*
X113425Y-64133D01*
X113528Y-64381D01*
X113717Y-64571D01*
X113965Y-64673D01*
X114233Y-64674D01*
X114481Y-64571D01*
X114600Y-64453D01*
X114717Y-64571D01*
X114965Y-64673D01*
X115233Y-64674D01*
X115481Y-64571D01*
X115671Y-64382D01*
X115773Y-64134D01*
X115774Y-63866D01*
X115774Y-65675D01*
X112875Y-65675D01*
X112875Y-30575D01*
X116325Y-30575D01*
X116325Y-65675D01*
G54D10*
G36*
X120425Y-65675D02*
X119874Y-65675D01*
X119874Y-63866D01*
X119874Y-52866D01*
X119874Y-41866D01*
X119809Y-41710D01*
X119809Y-36715D01*
X119807Y-36273D01*
X119642Y-35876D01*
X119463Y-35807D01*
X119448Y-35822D01*
X119377Y-35751D01*
X119392Y-35736D01*
X119323Y-35557D01*
X118915Y-35390D01*
X118473Y-35392D01*
X118076Y-35557D01*
X118007Y-35736D01*
X118022Y-35751D01*
X117951Y-35822D01*
X117936Y-35807D01*
X117757Y-35876D01*
X117590Y-36284D01*
X117592Y-36726D01*
X117757Y-37123D01*
X117936Y-37192D01*
X117951Y-37177D01*
X118022Y-37248D01*
X118007Y-37263D01*
X118076Y-37442D01*
X118484Y-37609D01*
X118926Y-37607D01*
X119323Y-37442D01*
X119392Y-37263D01*
X119377Y-37248D01*
X119448Y-37177D01*
X119463Y-37192D01*
X119642Y-37123D01*
X119809Y-36715D01*
X119809Y-41710D01*
X119771Y-41618D01*
X119582Y-41428D01*
X119334Y-41326D01*
X119066Y-41325D01*
X118818Y-41428D01*
X118699Y-41546D01*
X118582Y-41428D01*
X118334Y-41326D01*
X118066Y-41325D01*
X117818Y-41428D01*
X117628Y-41617D01*
X117526Y-41865D01*
X117525Y-42133D01*
X117628Y-42381D01*
X117817Y-42571D01*
X118065Y-42673D01*
X118333Y-42674D01*
X118581Y-42571D01*
X118700Y-42453D01*
X118817Y-42571D01*
X119065Y-42673D01*
X119333Y-42674D01*
X119581Y-42571D01*
X119771Y-42382D01*
X119873Y-42134D01*
X119874Y-41866D01*
X119874Y-52866D01*
X119809Y-52710D01*
X119809Y-47715D01*
X119807Y-47273D01*
X119642Y-46876D01*
X119463Y-46807D01*
X119448Y-46822D01*
X119377Y-46751D01*
X119392Y-46736D01*
X119323Y-46557D01*
X118915Y-46390D01*
X118473Y-46392D01*
X118076Y-46557D01*
X118007Y-46736D01*
X118022Y-46751D01*
X117951Y-46822D01*
X117936Y-46807D01*
X117757Y-46876D01*
X117590Y-47284D01*
X117592Y-47726D01*
X117757Y-48123D01*
X117936Y-48192D01*
X117951Y-48177D01*
X118022Y-48248D01*
X118007Y-48263D01*
X118076Y-48442D01*
X118484Y-48609D01*
X118926Y-48607D01*
X119323Y-48442D01*
X119392Y-48263D01*
X119377Y-48248D01*
X119448Y-48177D01*
X119463Y-48192D01*
X119642Y-48123D01*
X119809Y-47715D01*
X119809Y-52710D01*
X119771Y-52618D01*
X119582Y-52428D01*
X119334Y-52326D01*
X119066Y-52325D01*
X118818Y-52428D01*
X118699Y-52546D01*
X118582Y-52428D01*
X118334Y-52326D01*
X118066Y-52325D01*
X117818Y-52428D01*
X117628Y-52617D01*
X117526Y-52865D01*
X117525Y-53133D01*
X117628Y-53381D01*
X117817Y-53571D01*
X118065Y-53673D01*
X118333Y-53674D01*
X118581Y-53571D01*
X118700Y-53453D01*
X118817Y-53571D01*
X119065Y-53673D01*
X119333Y-53674D01*
X119581Y-53571D01*
X119771Y-53382D01*
X119873Y-53134D01*
X119874Y-52866D01*
X119874Y-63866D01*
X119809Y-63710D01*
X119809Y-58715D01*
X119807Y-58273D01*
X119642Y-57876D01*
X119463Y-57807D01*
X119448Y-57822D01*
X119377Y-57751D01*
X119392Y-57736D01*
X119323Y-57557D01*
X118915Y-57390D01*
X118473Y-57392D01*
X118076Y-57557D01*
X118007Y-57736D01*
X118022Y-57751D01*
X117951Y-57822D01*
X117936Y-57807D01*
X117757Y-57876D01*
X117590Y-58284D01*
X117592Y-58726D01*
X117757Y-59123D01*
X117936Y-59192D01*
X117951Y-59177D01*
X118022Y-59248D01*
X118007Y-59263D01*
X118076Y-59442D01*
X118484Y-59609D01*
X118926Y-59607D01*
X119323Y-59442D01*
X119392Y-59263D01*
X119377Y-59248D01*
X119448Y-59177D01*
X119463Y-59192D01*
X119642Y-59123D01*
X119809Y-58715D01*
X119809Y-63710D01*
X119771Y-63618D01*
X119582Y-63428D01*
X119334Y-63326D01*
X119066Y-63325D01*
X118818Y-63428D01*
X118699Y-63546D01*
X118582Y-63428D01*
X118334Y-63326D01*
X118066Y-63325D01*
X117818Y-63428D01*
X117628Y-63617D01*
X117526Y-63865D01*
X117525Y-64133D01*
X117628Y-64381D01*
X117817Y-64571D01*
X118065Y-64673D01*
X118333Y-64674D01*
X118581Y-64571D01*
X118700Y-64453D01*
X118817Y-64571D01*
X119065Y-64673D01*
X119333Y-64674D01*
X119581Y-64571D01*
X119771Y-64382D01*
X119873Y-64134D01*
X119874Y-63866D01*
X119874Y-65675D01*
X116975Y-65675D01*
X116975Y-30575D01*
X120425Y-30575D01*
X120425Y-65675D01*
X120425Y-65675D01*
G37*
G54D13*
X120425Y-65675D02*
X119874Y-65675D01*
X119874Y-63866D01*
X119874Y-52866D01*
X119874Y-41866D01*
X119809Y-41710D01*
X119809Y-36715D01*
X119807Y-36273D01*
X119642Y-35876D01*
X119463Y-35807D01*
X119448Y-35822D01*
X119377Y-35751D01*
X119392Y-35736D01*
X119323Y-35557D01*
X118915Y-35390D01*
X118473Y-35392D01*
X118076Y-35557D01*
X118007Y-35736D01*
X118022Y-35751D01*
X117951Y-35822D01*
X117936Y-35807D01*
X117757Y-35876D01*
X117590Y-36284D01*
X117592Y-36726D01*
X117757Y-37123D01*
X117936Y-37192D01*
X117951Y-37177D01*
X118022Y-37248D01*
X118007Y-37263D01*
X118076Y-37442D01*
X118484Y-37609D01*
X118926Y-37607D01*
X119323Y-37442D01*
X119392Y-37263D01*
X119377Y-37248D01*
X119448Y-37177D01*
X119463Y-37192D01*
X119642Y-37123D01*
X119809Y-36715D01*
X119809Y-41710D01*
X119771Y-41618D01*
X119582Y-41428D01*
X119334Y-41326D01*
X119066Y-41325D01*
X118818Y-41428D01*
X118699Y-41546D01*
X118582Y-41428D01*
X118334Y-41326D01*
X118066Y-41325D01*
X117818Y-41428D01*
X117628Y-41617D01*
X117526Y-41865D01*
X117525Y-42133D01*
X117628Y-42381D01*
X117817Y-42571D01*
X118065Y-42673D01*
X118333Y-42674D01*
X118581Y-42571D01*
X118700Y-42453D01*
X118817Y-42571D01*
X119065Y-42673D01*
X119333Y-42674D01*
X119581Y-42571D01*
X119771Y-42382D01*
X119873Y-42134D01*
X119874Y-41866D01*
X119874Y-52866D01*
X119809Y-52710D01*
X119809Y-47715D01*
X119807Y-47273D01*
X119642Y-46876D01*
X119463Y-46807D01*
X119448Y-46822D01*
X119377Y-46751D01*
X119392Y-46736D01*
X119323Y-46557D01*
X118915Y-46390D01*
X118473Y-46392D01*
X118076Y-46557D01*
X118007Y-46736D01*
X118022Y-46751D01*
X117951Y-46822D01*
X117936Y-46807D01*
X117757Y-46876D01*
X117590Y-47284D01*
X117592Y-47726D01*
X117757Y-48123D01*
X117936Y-48192D01*
X117951Y-48177D01*
X118022Y-48248D01*
X118007Y-48263D01*
X118076Y-48442D01*
X118484Y-48609D01*
X118926Y-48607D01*
X119323Y-48442D01*
X119392Y-48263D01*
X119377Y-48248D01*
X119448Y-48177D01*
X119463Y-48192D01*
X119642Y-48123D01*
X119809Y-47715D01*
X119809Y-52710D01*
X119771Y-52618D01*
X119582Y-52428D01*
X119334Y-52326D01*
X119066Y-52325D01*
X118818Y-52428D01*
X118699Y-52546D01*
X118582Y-52428D01*
X118334Y-52326D01*
X118066Y-52325D01*
X117818Y-52428D01*
X117628Y-52617D01*
X117526Y-52865D01*
X117525Y-53133D01*
X117628Y-53381D01*
X117817Y-53571D01*
X118065Y-53673D01*
X118333Y-53674D01*
X118581Y-53571D01*
X118700Y-53453D01*
X118817Y-53571D01*
X119065Y-53673D01*
X119333Y-53674D01*
X119581Y-53571D01*
X119771Y-53382D01*
X119873Y-53134D01*
X119874Y-52866D01*
X119874Y-63866D01*
X119809Y-63710D01*
X119809Y-58715D01*
X119807Y-58273D01*
X119642Y-57876D01*
X119463Y-57807D01*
X119448Y-57822D01*
X119377Y-57751D01*
X119392Y-57736D01*
X119323Y-57557D01*
X118915Y-57390D01*
X118473Y-57392D01*
X118076Y-57557D01*
X118007Y-57736D01*
X118022Y-57751D01*
X117951Y-57822D01*
X117936Y-57807D01*
X117757Y-57876D01*
X117590Y-58284D01*
X117592Y-58726D01*
X117757Y-59123D01*
X117936Y-59192D01*
X117951Y-59177D01*
X118022Y-59248D01*
X118007Y-59263D01*
X118076Y-59442D01*
X118484Y-59609D01*
X118926Y-59607D01*
X119323Y-59442D01*
X119392Y-59263D01*
X119377Y-59248D01*
X119448Y-59177D01*
X119463Y-59192D01*
X119642Y-59123D01*
X119809Y-58715D01*
X119809Y-63710D01*
X119771Y-63618D01*
X119582Y-63428D01*
X119334Y-63326D01*
X119066Y-63325D01*
X118818Y-63428D01*
X118699Y-63546D01*
X118582Y-63428D01*
X118334Y-63326D01*
X118066Y-63325D01*
X117818Y-63428D01*
X117628Y-63617D01*
X117526Y-63865D01*
X117525Y-64133D01*
X117628Y-64381D01*
X117817Y-64571D01*
X118065Y-64673D01*
X118333Y-64674D01*
X118581Y-64571D01*
X118700Y-64453D01*
X118817Y-64571D01*
X119065Y-64673D01*
X119333Y-64674D01*
X119581Y-64571D01*
X119771Y-64382D01*
X119873Y-64134D01*
X119874Y-63866D01*
X119874Y-65675D01*
X116975Y-65675D01*
X116975Y-30575D01*
X120425Y-30575D01*
X120425Y-65675D01*
G54D10*
G36*
X124525Y-65675D02*
X123974Y-65675D01*
X123974Y-63866D01*
X123974Y-52866D01*
X123974Y-41866D01*
X123909Y-41710D01*
X123909Y-36715D01*
X123907Y-36273D01*
X123742Y-35876D01*
X123563Y-35807D01*
X123548Y-35822D01*
X123477Y-35751D01*
X123492Y-35736D01*
X123423Y-35557D01*
X123015Y-35390D01*
X122573Y-35392D01*
X122176Y-35557D01*
X122107Y-35736D01*
X122122Y-35751D01*
X122051Y-35822D01*
X122036Y-35807D01*
X121857Y-35876D01*
X121690Y-36284D01*
X121692Y-36726D01*
X121857Y-37123D01*
X122036Y-37192D01*
X122051Y-37177D01*
X122122Y-37248D01*
X122107Y-37263D01*
X122176Y-37442D01*
X122584Y-37609D01*
X123026Y-37607D01*
X123423Y-37442D01*
X123492Y-37263D01*
X123477Y-37248D01*
X123548Y-37177D01*
X123563Y-37192D01*
X123742Y-37123D01*
X123909Y-36715D01*
X123909Y-41710D01*
X123871Y-41618D01*
X123682Y-41428D01*
X123434Y-41326D01*
X123166Y-41325D01*
X122918Y-41428D01*
X122799Y-41546D01*
X122682Y-41428D01*
X122434Y-41326D01*
X122166Y-41325D01*
X121918Y-41428D01*
X121728Y-41617D01*
X121626Y-41865D01*
X121625Y-42133D01*
X121728Y-42381D01*
X121917Y-42571D01*
X122165Y-42673D01*
X122433Y-42674D01*
X122681Y-42571D01*
X122800Y-42453D01*
X122917Y-42571D01*
X123165Y-42673D01*
X123433Y-42674D01*
X123681Y-42571D01*
X123871Y-42382D01*
X123973Y-42134D01*
X123974Y-41866D01*
X123974Y-52866D01*
X123909Y-52710D01*
X123909Y-47715D01*
X123907Y-47273D01*
X123742Y-46876D01*
X123563Y-46807D01*
X123548Y-46822D01*
X123477Y-46751D01*
X123492Y-46736D01*
X123423Y-46557D01*
X123015Y-46390D01*
X122573Y-46392D01*
X122176Y-46557D01*
X122107Y-46736D01*
X122122Y-46751D01*
X122051Y-46822D01*
X122036Y-46807D01*
X121857Y-46876D01*
X121690Y-47284D01*
X121692Y-47726D01*
X121857Y-48123D01*
X122036Y-48192D01*
X122051Y-48177D01*
X122122Y-48248D01*
X122107Y-48263D01*
X122176Y-48442D01*
X122584Y-48609D01*
X123026Y-48607D01*
X123423Y-48442D01*
X123492Y-48263D01*
X123477Y-48248D01*
X123548Y-48177D01*
X123563Y-48192D01*
X123742Y-48123D01*
X123909Y-47715D01*
X123909Y-52710D01*
X123871Y-52618D01*
X123682Y-52428D01*
X123434Y-52326D01*
X123166Y-52325D01*
X122918Y-52428D01*
X122799Y-52546D01*
X122682Y-52428D01*
X122434Y-52326D01*
X122166Y-52325D01*
X121918Y-52428D01*
X121728Y-52617D01*
X121626Y-52865D01*
X121625Y-53133D01*
X121728Y-53381D01*
X121917Y-53571D01*
X122165Y-53673D01*
X122433Y-53674D01*
X122681Y-53571D01*
X122800Y-53453D01*
X122917Y-53571D01*
X123165Y-53673D01*
X123433Y-53674D01*
X123681Y-53571D01*
X123871Y-53382D01*
X123973Y-53134D01*
X123974Y-52866D01*
X123974Y-63866D01*
X123909Y-63710D01*
X123909Y-58715D01*
X123907Y-58273D01*
X123742Y-57876D01*
X123563Y-57807D01*
X123548Y-57822D01*
X123477Y-57751D01*
X123492Y-57736D01*
X123423Y-57557D01*
X123015Y-57390D01*
X122573Y-57392D01*
X122176Y-57557D01*
X122107Y-57736D01*
X122122Y-57751D01*
X122051Y-57822D01*
X122036Y-57807D01*
X121857Y-57876D01*
X121690Y-58284D01*
X121692Y-58726D01*
X121857Y-59123D01*
X122036Y-59192D01*
X122051Y-59177D01*
X122122Y-59248D01*
X122107Y-59263D01*
X122176Y-59442D01*
X122584Y-59609D01*
X123026Y-59607D01*
X123423Y-59442D01*
X123492Y-59263D01*
X123477Y-59248D01*
X123548Y-59177D01*
X123563Y-59192D01*
X123742Y-59123D01*
X123909Y-58715D01*
X123909Y-63710D01*
X123871Y-63618D01*
X123682Y-63428D01*
X123434Y-63326D01*
X123166Y-63325D01*
X122918Y-63428D01*
X122799Y-63546D01*
X122682Y-63428D01*
X122434Y-63326D01*
X122166Y-63325D01*
X121918Y-63428D01*
X121728Y-63617D01*
X121626Y-63865D01*
X121625Y-64133D01*
X121728Y-64381D01*
X121917Y-64571D01*
X122165Y-64673D01*
X122433Y-64674D01*
X122681Y-64571D01*
X122800Y-64453D01*
X122917Y-64571D01*
X123165Y-64673D01*
X123433Y-64674D01*
X123681Y-64571D01*
X123871Y-64382D01*
X123973Y-64134D01*
X123974Y-63866D01*
X123974Y-65675D01*
X121075Y-65675D01*
X121075Y-30575D01*
X124525Y-30575D01*
X124525Y-65675D01*
X124525Y-65675D01*
G37*
G54D13*
X124525Y-65675D02*
X123974Y-65675D01*
X123974Y-63866D01*
X123974Y-52866D01*
X123974Y-41866D01*
X123909Y-41710D01*
X123909Y-36715D01*
X123907Y-36273D01*
X123742Y-35876D01*
X123563Y-35807D01*
X123548Y-35822D01*
X123477Y-35751D01*
X123492Y-35736D01*
X123423Y-35557D01*
X123015Y-35390D01*
X122573Y-35392D01*
X122176Y-35557D01*
X122107Y-35736D01*
X122122Y-35751D01*
X122051Y-35822D01*
X122036Y-35807D01*
X121857Y-35876D01*
X121690Y-36284D01*
X121692Y-36726D01*
X121857Y-37123D01*
X122036Y-37192D01*
X122051Y-37177D01*
X122122Y-37248D01*
X122107Y-37263D01*
X122176Y-37442D01*
X122584Y-37609D01*
X123026Y-37607D01*
X123423Y-37442D01*
X123492Y-37263D01*
X123477Y-37248D01*
X123548Y-37177D01*
X123563Y-37192D01*
X123742Y-37123D01*
X123909Y-36715D01*
X123909Y-41710D01*
X123871Y-41618D01*
X123682Y-41428D01*
X123434Y-41326D01*
X123166Y-41325D01*
X122918Y-41428D01*
X122799Y-41546D01*
X122682Y-41428D01*
X122434Y-41326D01*
X122166Y-41325D01*
X121918Y-41428D01*
X121728Y-41617D01*
X121626Y-41865D01*
X121625Y-42133D01*
X121728Y-42381D01*
X121917Y-42571D01*
X122165Y-42673D01*
X122433Y-42674D01*
X122681Y-42571D01*
X122800Y-42453D01*
X122917Y-42571D01*
X123165Y-42673D01*
X123433Y-42674D01*
X123681Y-42571D01*
X123871Y-42382D01*
X123973Y-42134D01*
X123974Y-41866D01*
X123974Y-52866D01*
X123909Y-52710D01*
X123909Y-47715D01*
X123907Y-47273D01*
X123742Y-46876D01*
X123563Y-46807D01*
X123548Y-46822D01*
X123477Y-46751D01*
X123492Y-46736D01*
X123423Y-46557D01*
X123015Y-46390D01*
X122573Y-46392D01*
X122176Y-46557D01*
X122107Y-46736D01*
X122122Y-46751D01*
X122051Y-46822D01*
X122036Y-46807D01*
X121857Y-46876D01*
X121690Y-47284D01*
X121692Y-47726D01*
X121857Y-48123D01*
X122036Y-48192D01*
X122051Y-48177D01*
X122122Y-48248D01*
X122107Y-48263D01*
X122176Y-48442D01*
X122584Y-48609D01*
X123026Y-48607D01*
X123423Y-48442D01*
X123492Y-48263D01*
X123477Y-48248D01*
X123548Y-48177D01*
X123563Y-48192D01*
X123742Y-48123D01*
X123909Y-47715D01*
X123909Y-52710D01*
X123871Y-52618D01*
X123682Y-52428D01*
X123434Y-52326D01*
X123166Y-52325D01*
X122918Y-52428D01*
X122799Y-52546D01*
X122682Y-52428D01*
X122434Y-52326D01*
X122166Y-52325D01*
X121918Y-52428D01*
X121728Y-52617D01*
X121626Y-52865D01*
X121625Y-53133D01*
X121728Y-53381D01*
X121917Y-53571D01*
X122165Y-53673D01*
X122433Y-53674D01*
X122681Y-53571D01*
X122800Y-53453D01*
X122917Y-53571D01*
X123165Y-53673D01*
X123433Y-53674D01*
X123681Y-53571D01*
X123871Y-53382D01*
X123973Y-53134D01*
X123974Y-52866D01*
X123974Y-63866D01*
X123909Y-63710D01*
X123909Y-58715D01*
X123907Y-58273D01*
X123742Y-57876D01*
X123563Y-57807D01*
X123548Y-57822D01*
X123477Y-57751D01*
X123492Y-57736D01*
X123423Y-57557D01*
X123015Y-57390D01*
X122573Y-57392D01*
X122176Y-57557D01*
X122107Y-57736D01*
X122122Y-57751D01*
X122051Y-57822D01*
X122036Y-57807D01*
X121857Y-57876D01*
X121690Y-58284D01*
X121692Y-58726D01*
X121857Y-59123D01*
X122036Y-59192D01*
X122051Y-59177D01*
X122122Y-59248D01*
X122107Y-59263D01*
X122176Y-59442D01*
X122584Y-59609D01*
X123026Y-59607D01*
X123423Y-59442D01*
X123492Y-59263D01*
X123477Y-59248D01*
X123548Y-59177D01*
X123563Y-59192D01*
X123742Y-59123D01*
X123909Y-58715D01*
X123909Y-63710D01*
X123871Y-63618D01*
X123682Y-63428D01*
X123434Y-63326D01*
X123166Y-63325D01*
X122918Y-63428D01*
X122799Y-63546D01*
X122682Y-63428D01*
X122434Y-63326D01*
X122166Y-63325D01*
X121918Y-63428D01*
X121728Y-63617D01*
X121626Y-63865D01*
X121625Y-64133D01*
X121728Y-64381D01*
X121917Y-64571D01*
X122165Y-64673D01*
X122433Y-64674D01*
X122681Y-64571D01*
X122800Y-64453D01*
X122917Y-64571D01*
X123165Y-64673D01*
X123433Y-64674D01*
X123681Y-64571D01*
X123871Y-64382D01*
X123973Y-64134D01*
X123974Y-63866D01*
X123974Y-65675D01*
X121075Y-65675D01*
X121075Y-30575D01*
X124525Y-30575D01*
X124525Y-65675D01*
G54D10*
G36*
X128625Y-65675D02*
X128074Y-65675D01*
X128074Y-63866D01*
X128074Y-52866D01*
X128074Y-41866D01*
X128009Y-41710D01*
X128009Y-36715D01*
X128007Y-36273D01*
X127842Y-35876D01*
X127663Y-35807D01*
X127648Y-35822D01*
X127577Y-35751D01*
X127592Y-35736D01*
X127523Y-35557D01*
X127115Y-35390D01*
X126673Y-35392D01*
X126276Y-35557D01*
X126207Y-35736D01*
X126222Y-35751D01*
X126151Y-35822D01*
X126136Y-35807D01*
X125957Y-35876D01*
X125790Y-36284D01*
X125792Y-36726D01*
X125957Y-37123D01*
X126136Y-37192D01*
X126151Y-37177D01*
X126222Y-37248D01*
X126207Y-37263D01*
X126276Y-37442D01*
X126684Y-37609D01*
X127126Y-37607D01*
X127523Y-37442D01*
X127592Y-37263D01*
X127577Y-37248D01*
X127648Y-37177D01*
X127663Y-37192D01*
X127842Y-37123D01*
X128009Y-36715D01*
X128009Y-41710D01*
X127971Y-41618D01*
X127782Y-41428D01*
X127534Y-41326D01*
X127266Y-41325D01*
X127018Y-41428D01*
X126899Y-41546D01*
X126782Y-41428D01*
X126534Y-41326D01*
X126266Y-41325D01*
X126018Y-41428D01*
X125828Y-41617D01*
X125726Y-41865D01*
X125725Y-42133D01*
X125828Y-42381D01*
X126017Y-42571D01*
X126265Y-42673D01*
X126533Y-42674D01*
X126781Y-42571D01*
X126900Y-42453D01*
X127017Y-42571D01*
X127265Y-42673D01*
X127533Y-42674D01*
X127781Y-42571D01*
X127971Y-42382D01*
X128073Y-42134D01*
X128074Y-41866D01*
X128074Y-52866D01*
X128009Y-52710D01*
X128009Y-47715D01*
X128007Y-47273D01*
X127842Y-46876D01*
X127663Y-46807D01*
X127648Y-46822D01*
X127577Y-46751D01*
X127592Y-46736D01*
X127523Y-46557D01*
X127115Y-46390D01*
X126673Y-46392D01*
X126276Y-46557D01*
X126207Y-46736D01*
X126222Y-46751D01*
X126151Y-46822D01*
X126136Y-46807D01*
X125957Y-46876D01*
X125790Y-47284D01*
X125792Y-47726D01*
X125957Y-48123D01*
X126136Y-48192D01*
X126151Y-48177D01*
X126222Y-48248D01*
X126207Y-48263D01*
X126276Y-48442D01*
X126684Y-48609D01*
X127126Y-48607D01*
X127523Y-48442D01*
X127592Y-48263D01*
X127577Y-48248D01*
X127648Y-48177D01*
X127663Y-48192D01*
X127842Y-48123D01*
X128009Y-47715D01*
X128009Y-52710D01*
X127971Y-52618D01*
X127782Y-52428D01*
X127534Y-52326D01*
X127266Y-52325D01*
X127018Y-52428D01*
X126899Y-52546D01*
X126782Y-52428D01*
X126534Y-52326D01*
X126266Y-52325D01*
X126018Y-52428D01*
X125828Y-52617D01*
X125726Y-52865D01*
X125725Y-53133D01*
X125828Y-53381D01*
X126017Y-53571D01*
X126265Y-53673D01*
X126533Y-53674D01*
X126781Y-53571D01*
X126900Y-53453D01*
X127017Y-53571D01*
X127265Y-53673D01*
X127533Y-53674D01*
X127781Y-53571D01*
X127971Y-53382D01*
X128073Y-53134D01*
X128074Y-52866D01*
X128074Y-63866D01*
X128009Y-63710D01*
X128009Y-58715D01*
X128007Y-58273D01*
X127842Y-57876D01*
X127663Y-57807D01*
X127648Y-57822D01*
X127577Y-57751D01*
X127592Y-57736D01*
X127523Y-57557D01*
X127115Y-57390D01*
X126673Y-57392D01*
X126276Y-57557D01*
X126207Y-57736D01*
X126222Y-57751D01*
X126151Y-57822D01*
X126136Y-57807D01*
X125957Y-57876D01*
X125790Y-58284D01*
X125792Y-58726D01*
X125957Y-59123D01*
X126136Y-59192D01*
X126151Y-59177D01*
X126222Y-59248D01*
X126207Y-59263D01*
X126276Y-59442D01*
X126684Y-59609D01*
X127126Y-59607D01*
X127523Y-59442D01*
X127592Y-59263D01*
X127577Y-59248D01*
X127648Y-59177D01*
X127663Y-59192D01*
X127842Y-59123D01*
X128009Y-58715D01*
X128009Y-63710D01*
X127971Y-63618D01*
X127782Y-63428D01*
X127534Y-63326D01*
X127266Y-63325D01*
X127018Y-63428D01*
X126899Y-63546D01*
X126782Y-63428D01*
X126534Y-63326D01*
X126266Y-63325D01*
X126018Y-63428D01*
X125828Y-63617D01*
X125726Y-63865D01*
X125725Y-64133D01*
X125828Y-64381D01*
X126017Y-64571D01*
X126265Y-64673D01*
X126533Y-64674D01*
X126781Y-64571D01*
X126900Y-64453D01*
X127017Y-64571D01*
X127265Y-64673D01*
X127533Y-64674D01*
X127781Y-64571D01*
X127971Y-64382D01*
X128073Y-64134D01*
X128074Y-63866D01*
X128074Y-65675D01*
X125175Y-65675D01*
X125175Y-30575D01*
X128625Y-30575D01*
X128625Y-65675D01*
X128625Y-65675D01*
G37*
G54D13*
X128625Y-65675D02*
X128074Y-65675D01*
X128074Y-63866D01*
X128074Y-52866D01*
X128074Y-41866D01*
X128009Y-41710D01*
X128009Y-36715D01*
X128007Y-36273D01*
X127842Y-35876D01*
X127663Y-35807D01*
X127648Y-35822D01*
X127577Y-35751D01*
X127592Y-35736D01*
X127523Y-35557D01*
X127115Y-35390D01*
X126673Y-35392D01*
X126276Y-35557D01*
X126207Y-35736D01*
X126222Y-35751D01*
X126151Y-35822D01*
X126136Y-35807D01*
X125957Y-35876D01*
X125790Y-36284D01*
X125792Y-36726D01*
X125957Y-37123D01*
X126136Y-37192D01*
X126151Y-37177D01*
X126222Y-37248D01*
X126207Y-37263D01*
X126276Y-37442D01*
X126684Y-37609D01*
X127126Y-37607D01*
X127523Y-37442D01*
X127592Y-37263D01*
X127577Y-37248D01*
X127648Y-37177D01*
X127663Y-37192D01*
X127842Y-37123D01*
X128009Y-36715D01*
X128009Y-41710D01*
X127971Y-41618D01*
X127782Y-41428D01*
X127534Y-41326D01*
X127266Y-41325D01*
X127018Y-41428D01*
X126899Y-41546D01*
X126782Y-41428D01*
X126534Y-41326D01*
X126266Y-41325D01*
X126018Y-41428D01*
X125828Y-41617D01*
X125726Y-41865D01*
X125725Y-42133D01*
X125828Y-42381D01*
X126017Y-42571D01*
X126265Y-42673D01*
X126533Y-42674D01*
X126781Y-42571D01*
X126900Y-42453D01*
X127017Y-42571D01*
X127265Y-42673D01*
X127533Y-42674D01*
X127781Y-42571D01*
X127971Y-42382D01*
X128073Y-42134D01*
X128074Y-41866D01*
X128074Y-52866D01*
X128009Y-52710D01*
X128009Y-47715D01*
X128007Y-47273D01*
X127842Y-46876D01*
X127663Y-46807D01*
X127648Y-46822D01*
X127577Y-46751D01*
X127592Y-46736D01*
X127523Y-46557D01*
X127115Y-46390D01*
X126673Y-46392D01*
X126276Y-46557D01*
X126207Y-46736D01*
X126222Y-46751D01*
X126151Y-46822D01*
X126136Y-46807D01*
X125957Y-46876D01*
X125790Y-47284D01*
X125792Y-47726D01*
X125957Y-48123D01*
X126136Y-48192D01*
X126151Y-48177D01*
X126222Y-48248D01*
X126207Y-48263D01*
X126276Y-48442D01*
X126684Y-48609D01*
X127126Y-48607D01*
X127523Y-48442D01*
X127592Y-48263D01*
X127577Y-48248D01*
X127648Y-48177D01*
X127663Y-48192D01*
X127842Y-48123D01*
X128009Y-47715D01*
X128009Y-52710D01*
X127971Y-52618D01*
X127782Y-52428D01*
X127534Y-52326D01*
X127266Y-52325D01*
X127018Y-52428D01*
X126899Y-52546D01*
X126782Y-52428D01*
X126534Y-52326D01*
X126266Y-52325D01*
X126018Y-52428D01*
X125828Y-52617D01*
X125726Y-52865D01*
X125725Y-53133D01*
X125828Y-53381D01*
X126017Y-53571D01*
X126265Y-53673D01*
X126533Y-53674D01*
X126781Y-53571D01*
X126900Y-53453D01*
X127017Y-53571D01*
X127265Y-53673D01*
X127533Y-53674D01*
X127781Y-53571D01*
X127971Y-53382D01*
X128073Y-53134D01*
X128074Y-52866D01*
X128074Y-63866D01*
X128009Y-63710D01*
X128009Y-58715D01*
X128007Y-58273D01*
X127842Y-57876D01*
X127663Y-57807D01*
X127648Y-57822D01*
X127577Y-57751D01*
X127592Y-57736D01*
X127523Y-57557D01*
X127115Y-57390D01*
X126673Y-57392D01*
X126276Y-57557D01*
X126207Y-57736D01*
X126222Y-57751D01*
X126151Y-57822D01*
X126136Y-57807D01*
X125957Y-57876D01*
X125790Y-58284D01*
X125792Y-58726D01*
X125957Y-59123D01*
X126136Y-59192D01*
X126151Y-59177D01*
X126222Y-59248D01*
X126207Y-59263D01*
X126276Y-59442D01*
X126684Y-59609D01*
X127126Y-59607D01*
X127523Y-59442D01*
X127592Y-59263D01*
X127577Y-59248D01*
X127648Y-59177D01*
X127663Y-59192D01*
X127842Y-59123D01*
X128009Y-58715D01*
X128009Y-63710D01*
X127971Y-63618D01*
X127782Y-63428D01*
X127534Y-63326D01*
X127266Y-63325D01*
X127018Y-63428D01*
X126899Y-63546D01*
X126782Y-63428D01*
X126534Y-63326D01*
X126266Y-63325D01*
X126018Y-63428D01*
X125828Y-63617D01*
X125726Y-63865D01*
X125725Y-64133D01*
X125828Y-64381D01*
X126017Y-64571D01*
X126265Y-64673D01*
X126533Y-64674D01*
X126781Y-64571D01*
X126900Y-64453D01*
X127017Y-64571D01*
X127265Y-64673D01*
X127533Y-64674D01*
X127781Y-64571D01*
X127971Y-64382D01*
X128073Y-64134D01*
X128074Y-63866D01*
X128074Y-65675D01*
X125175Y-65675D01*
X125175Y-30575D01*
X128625Y-30575D01*
X128625Y-65675D01*
G54D10*
G36*
X132725Y-65675D02*
X132174Y-65675D01*
X132174Y-63866D01*
X132174Y-52866D01*
X132174Y-41866D01*
X132109Y-41710D01*
X132109Y-36715D01*
X132107Y-36273D01*
X131942Y-35876D01*
X131763Y-35807D01*
X131748Y-35822D01*
X131677Y-35751D01*
X131692Y-35736D01*
X131623Y-35557D01*
X131215Y-35390D01*
X130773Y-35392D01*
X130376Y-35557D01*
X130307Y-35736D01*
X130322Y-35751D01*
X130251Y-35822D01*
X130236Y-35807D01*
X130057Y-35876D01*
X129890Y-36284D01*
X129892Y-36726D01*
X130057Y-37123D01*
X130236Y-37192D01*
X130251Y-37177D01*
X130322Y-37248D01*
X130307Y-37263D01*
X130376Y-37442D01*
X130784Y-37609D01*
X131226Y-37607D01*
X131623Y-37442D01*
X131692Y-37263D01*
X131677Y-37248D01*
X131748Y-37177D01*
X131763Y-37192D01*
X131942Y-37123D01*
X132109Y-36715D01*
X132109Y-41710D01*
X132071Y-41618D01*
X131882Y-41428D01*
X131634Y-41326D01*
X131366Y-41325D01*
X131118Y-41428D01*
X130999Y-41546D01*
X130882Y-41428D01*
X130634Y-41326D01*
X130366Y-41325D01*
X130118Y-41428D01*
X129928Y-41617D01*
X129826Y-41865D01*
X129825Y-42133D01*
X129928Y-42381D01*
X130117Y-42571D01*
X130365Y-42673D01*
X130633Y-42674D01*
X130881Y-42571D01*
X131000Y-42453D01*
X131117Y-42571D01*
X131365Y-42673D01*
X131633Y-42674D01*
X131881Y-42571D01*
X132071Y-42382D01*
X132173Y-42134D01*
X132174Y-41866D01*
X132174Y-52866D01*
X132109Y-52710D01*
X132109Y-47715D01*
X132107Y-47273D01*
X131942Y-46876D01*
X131763Y-46807D01*
X131748Y-46822D01*
X131677Y-46751D01*
X131692Y-46736D01*
X131623Y-46557D01*
X131215Y-46390D01*
X130773Y-46392D01*
X130376Y-46557D01*
X130307Y-46736D01*
X130322Y-46751D01*
X130251Y-46822D01*
X130236Y-46807D01*
X130057Y-46876D01*
X129890Y-47284D01*
X129892Y-47726D01*
X130057Y-48123D01*
X130236Y-48192D01*
X130251Y-48177D01*
X130322Y-48248D01*
X130307Y-48263D01*
X130376Y-48442D01*
X130784Y-48609D01*
X131226Y-48607D01*
X131623Y-48442D01*
X131692Y-48263D01*
X131677Y-48248D01*
X131748Y-48177D01*
X131763Y-48192D01*
X131942Y-48123D01*
X132109Y-47715D01*
X132109Y-52710D01*
X132071Y-52618D01*
X131882Y-52428D01*
X131634Y-52326D01*
X131366Y-52325D01*
X131118Y-52428D01*
X130999Y-52546D01*
X130882Y-52428D01*
X130634Y-52326D01*
X130366Y-52325D01*
X130118Y-52428D01*
X129928Y-52617D01*
X129826Y-52865D01*
X129825Y-53133D01*
X129928Y-53381D01*
X130117Y-53571D01*
X130365Y-53673D01*
X130633Y-53674D01*
X130881Y-53571D01*
X131000Y-53453D01*
X131117Y-53571D01*
X131365Y-53673D01*
X131633Y-53674D01*
X131881Y-53571D01*
X132071Y-53382D01*
X132173Y-53134D01*
X132174Y-52866D01*
X132174Y-63866D01*
X132109Y-63710D01*
X132109Y-58715D01*
X132107Y-58273D01*
X131942Y-57876D01*
X131763Y-57807D01*
X131748Y-57822D01*
X131677Y-57751D01*
X131692Y-57736D01*
X131623Y-57557D01*
X131215Y-57390D01*
X130773Y-57392D01*
X130376Y-57557D01*
X130307Y-57736D01*
X130322Y-57751D01*
X130251Y-57822D01*
X130236Y-57807D01*
X130057Y-57876D01*
X129890Y-58284D01*
X129892Y-58726D01*
X130057Y-59123D01*
X130236Y-59192D01*
X130251Y-59177D01*
X130322Y-59248D01*
X130307Y-59263D01*
X130376Y-59442D01*
X130784Y-59609D01*
X131226Y-59607D01*
X131623Y-59442D01*
X131692Y-59263D01*
X131677Y-59248D01*
X131748Y-59177D01*
X131763Y-59192D01*
X131942Y-59123D01*
X132109Y-58715D01*
X132109Y-63710D01*
X132071Y-63618D01*
X131882Y-63428D01*
X131634Y-63326D01*
X131366Y-63325D01*
X131118Y-63428D01*
X130999Y-63546D01*
X130882Y-63428D01*
X130634Y-63326D01*
X130366Y-63325D01*
X130118Y-63428D01*
X129928Y-63617D01*
X129826Y-63865D01*
X129825Y-64133D01*
X129928Y-64381D01*
X130117Y-64571D01*
X130365Y-64673D01*
X130633Y-64674D01*
X130881Y-64571D01*
X131000Y-64453D01*
X131117Y-64571D01*
X131365Y-64673D01*
X131633Y-64674D01*
X131881Y-64571D01*
X132071Y-64382D01*
X132173Y-64134D01*
X132174Y-63866D01*
X132174Y-65675D01*
X129275Y-65675D01*
X129275Y-30575D01*
X132725Y-30575D01*
X132725Y-65675D01*
X132725Y-65675D01*
G37*
G54D13*
X132725Y-65675D02*
X132174Y-65675D01*
X132174Y-63866D01*
X132174Y-52866D01*
X132174Y-41866D01*
X132109Y-41710D01*
X132109Y-36715D01*
X132107Y-36273D01*
X131942Y-35876D01*
X131763Y-35807D01*
X131748Y-35822D01*
X131677Y-35751D01*
X131692Y-35736D01*
X131623Y-35557D01*
X131215Y-35390D01*
X130773Y-35392D01*
X130376Y-35557D01*
X130307Y-35736D01*
X130322Y-35751D01*
X130251Y-35822D01*
X130236Y-35807D01*
X130057Y-35876D01*
X129890Y-36284D01*
X129892Y-36726D01*
X130057Y-37123D01*
X130236Y-37192D01*
X130251Y-37177D01*
X130322Y-37248D01*
X130307Y-37263D01*
X130376Y-37442D01*
X130784Y-37609D01*
X131226Y-37607D01*
X131623Y-37442D01*
X131692Y-37263D01*
X131677Y-37248D01*
X131748Y-37177D01*
X131763Y-37192D01*
X131942Y-37123D01*
X132109Y-36715D01*
X132109Y-41710D01*
X132071Y-41618D01*
X131882Y-41428D01*
X131634Y-41326D01*
X131366Y-41325D01*
X131118Y-41428D01*
X130999Y-41546D01*
X130882Y-41428D01*
X130634Y-41326D01*
X130366Y-41325D01*
X130118Y-41428D01*
X129928Y-41617D01*
X129826Y-41865D01*
X129825Y-42133D01*
X129928Y-42381D01*
X130117Y-42571D01*
X130365Y-42673D01*
X130633Y-42674D01*
X130881Y-42571D01*
X131000Y-42453D01*
X131117Y-42571D01*
X131365Y-42673D01*
X131633Y-42674D01*
X131881Y-42571D01*
X132071Y-42382D01*
X132173Y-42134D01*
X132174Y-41866D01*
X132174Y-52866D01*
X132109Y-52710D01*
X132109Y-47715D01*
X132107Y-47273D01*
X131942Y-46876D01*
X131763Y-46807D01*
X131748Y-46822D01*
X131677Y-46751D01*
X131692Y-46736D01*
X131623Y-46557D01*
X131215Y-46390D01*
X130773Y-46392D01*
X130376Y-46557D01*
X130307Y-46736D01*
X130322Y-46751D01*
X130251Y-46822D01*
X130236Y-46807D01*
X130057Y-46876D01*
X129890Y-47284D01*
X129892Y-47726D01*
X130057Y-48123D01*
X130236Y-48192D01*
X130251Y-48177D01*
X130322Y-48248D01*
X130307Y-48263D01*
X130376Y-48442D01*
X130784Y-48609D01*
X131226Y-48607D01*
X131623Y-48442D01*
X131692Y-48263D01*
X131677Y-48248D01*
X131748Y-48177D01*
X131763Y-48192D01*
X131942Y-48123D01*
X132109Y-47715D01*
X132109Y-52710D01*
X132071Y-52618D01*
X131882Y-52428D01*
X131634Y-52326D01*
X131366Y-52325D01*
X131118Y-52428D01*
X130999Y-52546D01*
X130882Y-52428D01*
X130634Y-52326D01*
X130366Y-52325D01*
X130118Y-52428D01*
X129928Y-52617D01*
X129826Y-52865D01*
X129825Y-53133D01*
X129928Y-53381D01*
X130117Y-53571D01*
X130365Y-53673D01*
X130633Y-53674D01*
X130881Y-53571D01*
X131000Y-53453D01*
X131117Y-53571D01*
X131365Y-53673D01*
X131633Y-53674D01*
X131881Y-53571D01*
X132071Y-53382D01*
X132173Y-53134D01*
X132174Y-52866D01*
X132174Y-63866D01*
X132109Y-63710D01*
X132109Y-58715D01*
X132107Y-58273D01*
X131942Y-57876D01*
X131763Y-57807D01*
X131748Y-57822D01*
X131677Y-57751D01*
X131692Y-57736D01*
X131623Y-57557D01*
X131215Y-57390D01*
X130773Y-57392D01*
X130376Y-57557D01*
X130307Y-57736D01*
X130322Y-57751D01*
X130251Y-57822D01*
X130236Y-57807D01*
X130057Y-57876D01*
X129890Y-58284D01*
X129892Y-58726D01*
X130057Y-59123D01*
X130236Y-59192D01*
X130251Y-59177D01*
X130322Y-59248D01*
X130307Y-59263D01*
X130376Y-59442D01*
X130784Y-59609D01*
X131226Y-59607D01*
X131623Y-59442D01*
X131692Y-59263D01*
X131677Y-59248D01*
X131748Y-59177D01*
X131763Y-59192D01*
X131942Y-59123D01*
X132109Y-58715D01*
X132109Y-63710D01*
X132071Y-63618D01*
X131882Y-63428D01*
X131634Y-63326D01*
X131366Y-63325D01*
X131118Y-63428D01*
X130999Y-63546D01*
X130882Y-63428D01*
X130634Y-63326D01*
X130366Y-63325D01*
X130118Y-63428D01*
X129928Y-63617D01*
X129826Y-63865D01*
X129825Y-64133D01*
X129928Y-64381D01*
X130117Y-64571D01*
X130365Y-64673D01*
X130633Y-64674D01*
X130881Y-64571D01*
X131000Y-64453D01*
X131117Y-64571D01*
X131365Y-64673D01*
X131633Y-64674D01*
X131881Y-64571D01*
X132071Y-64382D01*
X132173Y-64134D01*
X132174Y-63866D01*
X132174Y-65675D01*
X129275Y-65675D01*
X129275Y-30575D01*
X132725Y-30575D01*
X132725Y-65675D01*
G54D10*
G36*
X136825Y-65675D02*
X136274Y-65675D01*
X136274Y-63866D01*
X136274Y-52866D01*
X136274Y-41866D01*
X136209Y-41710D01*
X136209Y-36715D01*
X136207Y-36273D01*
X136042Y-35876D01*
X135863Y-35807D01*
X135848Y-35822D01*
X135777Y-35751D01*
X135792Y-35736D01*
X135723Y-35557D01*
X135315Y-35390D01*
X134873Y-35392D01*
X134476Y-35557D01*
X134407Y-35736D01*
X134422Y-35751D01*
X134351Y-35822D01*
X134336Y-35807D01*
X134157Y-35876D01*
X133990Y-36284D01*
X133992Y-36726D01*
X134157Y-37123D01*
X134336Y-37192D01*
X134351Y-37177D01*
X134422Y-37248D01*
X134407Y-37263D01*
X134476Y-37442D01*
X134884Y-37609D01*
X135326Y-37607D01*
X135723Y-37442D01*
X135792Y-37263D01*
X135777Y-37248D01*
X135848Y-37177D01*
X135863Y-37192D01*
X136042Y-37123D01*
X136209Y-36715D01*
X136209Y-41710D01*
X136171Y-41618D01*
X135982Y-41428D01*
X135734Y-41326D01*
X135466Y-41325D01*
X135218Y-41428D01*
X135099Y-41546D01*
X134982Y-41428D01*
X134734Y-41326D01*
X134466Y-41325D01*
X134218Y-41428D01*
X134028Y-41617D01*
X133926Y-41865D01*
X133925Y-42133D01*
X134028Y-42381D01*
X134217Y-42571D01*
X134465Y-42673D01*
X134733Y-42674D01*
X134981Y-42571D01*
X135100Y-42453D01*
X135217Y-42571D01*
X135465Y-42673D01*
X135733Y-42674D01*
X135981Y-42571D01*
X136171Y-42382D01*
X136273Y-42134D01*
X136274Y-41866D01*
X136274Y-52866D01*
X136209Y-52710D01*
X136209Y-47715D01*
X136207Y-47273D01*
X136042Y-46876D01*
X135863Y-46807D01*
X135848Y-46822D01*
X135777Y-46751D01*
X135792Y-46736D01*
X135723Y-46557D01*
X135315Y-46390D01*
X134873Y-46392D01*
X134476Y-46557D01*
X134407Y-46736D01*
X134422Y-46751D01*
X134351Y-46822D01*
X134336Y-46807D01*
X134157Y-46876D01*
X133990Y-47284D01*
X133992Y-47726D01*
X134157Y-48123D01*
X134336Y-48192D01*
X134351Y-48177D01*
X134422Y-48248D01*
X134407Y-48263D01*
X134476Y-48442D01*
X134884Y-48609D01*
X135326Y-48607D01*
X135723Y-48442D01*
X135792Y-48263D01*
X135777Y-48248D01*
X135848Y-48177D01*
X135863Y-48192D01*
X136042Y-48123D01*
X136209Y-47715D01*
X136209Y-52710D01*
X136171Y-52618D01*
X135982Y-52428D01*
X135734Y-52326D01*
X135466Y-52325D01*
X135218Y-52428D01*
X135099Y-52546D01*
X134982Y-52428D01*
X134734Y-52326D01*
X134466Y-52325D01*
X134218Y-52428D01*
X134028Y-52617D01*
X133926Y-52865D01*
X133925Y-53133D01*
X134028Y-53381D01*
X134217Y-53571D01*
X134465Y-53673D01*
X134733Y-53674D01*
X134981Y-53571D01*
X135100Y-53453D01*
X135217Y-53571D01*
X135465Y-53673D01*
X135733Y-53674D01*
X135981Y-53571D01*
X136171Y-53382D01*
X136273Y-53134D01*
X136274Y-52866D01*
X136274Y-63866D01*
X136209Y-63710D01*
X136209Y-58715D01*
X136207Y-58273D01*
X136042Y-57876D01*
X135863Y-57807D01*
X135848Y-57822D01*
X135777Y-57751D01*
X135792Y-57736D01*
X135723Y-57557D01*
X135315Y-57390D01*
X134873Y-57392D01*
X134476Y-57557D01*
X134407Y-57736D01*
X134422Y-57751D01*
X134351Y-57822D01*
X134336Y-57807D01*
X134157Y-57876D01*
X133990Y-58284D01*
X133992Y-58726D01*
X134157Y-59123D01*
X134336Y-59192D01*
X134351Y-59177D01*
X134422Y-59248D01*
X134407Y-59263D01*
X134476Y-59442D01*
X134884Y-59609D01*
X135326Y-59607D01*
X135723Y-59442D01*
X135792Y-59263D01*
X135777Y-59248D01*
X135848Y-59177D01*
X135863Y-59192D01*
X136042Y-59123D01*
X136209Y-58715D01*
X136209Y-63710D01*
X136171Y-63618D01*
X135982Y-63428D01*
X135734Y-63326D01*
X135466Y-63325D01*
X135218Y-63428D01*
X135099Y-63546D01*
X134982Y-63428D01*
X134734Y-63326D01*
X134466Y-63325D01*
X134218Y-63428D01*
X134028Y-63617D01*
X133926Y-63865D01*
X133925Y-64133D01*
X134028Y-64381D01*
X134217Y-64571D01*
X134465Y-64673D01*
X134733Y-64674D01*
X134981Y-64571D01*
X135100Y-64453D01*
X135217Y-64571D01*
X135465Y-64673D01*
X135733Y-64674D01*
X135981Y-64571D01*
X136171Y-64382D01*
X136273Y-64134D01*
X136274Y-63866D01*
X136274Y-65675D01*
X133375Y-65675D01*
X133375Y-30575D01*
X136825Y-30575D01*
X136825Y-65675D01*
X136825Y-65675D01*
G37*
G54D13*
X136825Y-65675D02*
X136274Y-65675D01*
X136274Y-63866D01*
X136274Y-52866D01*
X136274Y-41866D01*
X136209Y-41710D01*
X136209Y-36715D01*
X136207Y-36273D01*
X136042Y-35876D01*
X135863Y-35807D01*
X135848Y-35822D01*
X135777Y-35751D01*
X135792Y-35736D01*
X135723Y-35557D01*
X135315Y-35390D01*
X134873Y-35392D01*
X134476Y-35557D01*
X134407Y-35736D01*
X134422Y-35751D01*
X134351Y-35822D01*
X134336Y-35807D01*
X134157Y-35876D01*
X133990Y-36284D01*
X133992Y-36726D01*
X134157Y-37123D01*
X134336Y-37192D01*
X134351Y-37177D01*
X134422Y-37248D01*
X134407Y-37263D01*
X134476Y-37442D01*
X134884Y-37609D01*
X135326Y-37607D01*
X135723Y-37442D01*
X135792Y-37263D01*
X135777Y-37248D01*
X135848Y-37177D01*
X135863Y-37192D01*
X136042Y-37123D01*
X136209Y-36715D01*
X136209Y-41710D01*
X136171Y-41618D01*
X135982Y-41428D01*
X135734Y-41326D01*
X135466Y-41325D01*
X135218Y-41428D01*
X135099Y-41546D01*
X134982Y-41428D01*
X134734Y-41326D01*
X134466Y-41325D01*
X134218Y-41428D01*
X134028Y-41617D01*
X133926Y-41865D01*
X133925Y-42133D01*
X134028Y-42381D01*
X134217Y-42571D01*
X134465Y-42673D01*
X134733Y-42674D01*
X134981Y-42571D01*
X135100Y-42453D01*
X135217Y-42571D01*
X135465Y-42673D01*
X135733Y-42674D01*
X135981Y-42571D01*
X136171Y-42382D01*
X136273Y-42134D01*
X136274Y-41866D01*
X136274Y-52866D01*
X136209Y-52710D01*
X136209Y-47715D01*
X136207Y-47273D01*
X136042Y-46876D01*
X135863Y-46807D01*
X135848Y-46822D01*
X135777Y-46751D01*
X135792Y-46736D01*
X135723Y-46557D01*
X135315Y-46390D01*
X134873Y-46392D01*
X134476Y-46557D01*
X134407Y-46736D01*
X134422Y-46751D01*
X134351Y-46822D01*
X134336Y-46807D01*
X134157Y-46876D01*
X133990Y-47284D01*
X133992Y-47726D01*
X134157Y-48123D01*
X134336Y-48192D01*
X134351Y-48177D01*
X134422Y-48248D01*
X134407Y-48263D01*
X134476Y-48442D01*
X134884Y-48609D01*
X135326Y-48607D01*
X135723Y-48442D01*
X135792Y-48263D01*
X135777Y-48248D01*
X135848Y-48177D01*
X135863Y-48192D01*
X136042Y-48123D01*
X136209Y-47715D01*
X136209Y-52710D01*
X136171Y-52618D01*
X135982Y-52428D01*
X135734Y-52326D01*
X135466Y-52325D01*
X135218Y-52428D01*
X135099Y-52546D01*
X134982Y-52428D01*
X134734Y-52326D01*
X134466Y-52325D01*
X134218Y-52428D01*
X134028Y-52617D01*
X133926Y-52865D01*
X133925Y-53133D01*
X134028Y-53381D01*
X134217Y-53571D01*
X134465Y-53673D01*
X134733Y-53674D01*
X134981Y-53571D01*
X135100Y-53453D01*
X135217Y-53571D01*
X135465Y-53673D01*
X135733Y-53674D01*
X135981Y-53571D01*
X136171Y-53382D01*
X136273Y-53134D01*
X136274Y-52866D01*
X136274Y-63866D01*
X136209Y-63710D01*
X136209Y-58715D01*
X136207Y-58273D01*
X136042Y-57876D01*
X135863Y-57807D01*
X135848Y-57822D01*
X135777Y-57751D01*
X135792Y-57736D01*
X135723Y-57557D01*
X135315Y-57390D01*
X134873Y-57392D01*
X134476Y-57557D01*
X134407Y-57736D01*
X134422Y-57751D01*
X134351Y-57822D01*
X134336Y-57807D01*
X134157Y-57876D01*
X133990Y-58284D01*
X133992Y-58726D01*
X134157Y-59123D01*
X134336Y-59192D01*
X134351Y-59177D01*
X134422Y-59248D01*
X134407Y-59263D01*
X134476Y-59442D01*
X134884Y-59609D01*
X135326Y-59607D01*
X135723Y-59442D01*
X135792Y-59263D01*
X135777Y-59248D01*
X135848Y-59177D01*
X135863Y-59192D01*
X136042Y-59123D01*
X136209Y-58715D01*
X136209Y-63710D01*
X136171Y-63618D01*
X135982Y-63428D01*
X135734Y-63326D01*
X135466Y-63325D01*
X135218Y-63428D01*
X135099Y-63546D01*
X134982Y-63428D01*
X134734Y-63326D01*
X134466Y-63325D01*
X134218Y-63428D01*
X134028Y-63617D01*
X133926Y-63865D01*
X133925Y-64133D01*
X134028Y-64381D01*
X134217Y-64571D01*
X134465Y-64673D01*
X134733Y-64674D01*
X134981Y-64571D01*
X135100Y-64453D01*
X135217Y-64571D01*
X135465Y-64673D01*
X135733Y-64674D01*
X135981Y-64571D01*
X136171Y-64382D01*
X136273Y-64134D01*
X136274Y-63866D01*
X136274Y-65675D01*
X133375Y-65675D01*
X133375Y-30575D01*
X136825Y-30575D01*
X136825Y-65675D01*
G54D10*
G36*
X140925Y-65675D02*
X140374Y-65675D01*
X140374Y-63866D01*
X140374Y-52866D01*
X140374Y-41866D01*
X140309Y-41710D01*
X140309Y-36715D01*
X140307Y-36273D01*
X140142Y-35876D01*
X139963Y-35807D01*
X139948Y-35822D01*
X139877Y-35751D01*
X139892Y-35736D01*
X139823Y-35557D01*
X139415Y-35390D01*
X138973Y-35392D01*
X138576Y-35557D01*
X138507Y-35736D01*
X138522Y-35751D01*
X138451Y-35822D01*
X138436Y-35807D01*
X138257Y-35876D01*
X138090Y-36284D01*
X138092Y-36726D01*
X138257Y-37123D01*
X138436Y-37192D01*
X138451Y-37177D01*
X138522Y-37248D01*
X138507Y-37263D01*
X138576Y-37442D01*
X138984Y-37609D01*
X139426Y-37607D01*
X139823Y-37442D01*
X139892Y-37263D01*
X139877Y-37248D01*
X139948Y-37177D01*
X139963Y-37192D01*
X140142Y-37123D01*
X140309Y-36715D01*
X140309Y-41710D01*
X140271Y-41618D01*
X140082Y-41428D01*
X139834Y-41326D01*
X139566Y-41325D01*
X139318Y-41428D01*
X139199Y-41546D01*
X139082Y-41428D01*
X138834Y-41326D01*
X138566Y-41325D01*
X138318Y-41428D01*
X138128Y-41617D01*
X138026Y-41865D01*
X138025Y-42133D01*
X138128Y-42381D01*
X138317Y-42571D01*
X138565Y-42673D01*
X138833Y-42674D01*
X139081Y-42571D01*
X139200Y-42453D01*
X139317Y-42571D01*
X139565Y-42673D01*
X139833Y-42674D01*
X140081Y-42571D01*
X140271Y-42382D01*
X140373Y-42134D01*
X140374Y-41866D01*
X140374Y-52866D01*
X140309Y-52710D01*
X140309Y-47715D01*
X140307Y-47273D01*
X140142Y-46876D01*
X139963Y-46807D01*
X139948Y-46822D01*
X139877Y-46751D01*
X139892Y-46736D01*
X139823Y-46557D01*
X139415Y-46390D01*
X138973Y-46392D01*
X138576Y-46557D01*
X138507Y-46736D01*
X138522Y-46751D01*
X138451Y-46822D01*
X138436Y-46807D01*
X138257Y-46876D01*
X138090Y-47284D01*
X138092Y-47726D01*
X138257Y-48123D01*
X138436Y-48192D01*
X138451Y-48177D01*
X138522Y-48248D01*
X138507Y-48263D01*
X138576Y-48442D01*
X138984Y-48609D01*
X139426Y-48607D01*
X139823Y-48442D01*
X139892Y-48263D01*
X139877Y-48248D01*
X139948Y-48177D01*
X139963Y-48192D01*
X140142Y-48123D01*
X140309Y-47715D01*
X140309Y-52710D01*
X140271Y-52618D01*
X140082Y-52428D01*
X139834Y-52326D01*
X139566Y-52325D01*
X139318Y-52428D01*
X139199Y-52546D01*
X139082Y-52428D01*
X138834Y-52326D01*
X138566Y-52325D01*
X138318Y-52428D01*
X138128Y-52617D01*
X138026Y-52865D01*
X138025Y-53133D01*
X138128Y-53381D01*
X138317Y-53571D01*
X138565Y-53673D01*
X138833Y-53674D01*
X139081Y-53571D01*
X139200Y-53453D01*
X139317Y-53571D01*
X139565Y-53673D01*
X139833Y-53674D01*
X140081Y-53571D01*
X140271Y-53382D01*
X140373Y-53134D01*
X140374Y-52866D01*
X140374Y-63866D01*
X140309Y-63710D01*
X140309Y-58715D01*
X140307Y-58273D01*
X140142Y-57876D01*
X139963Y-57807D01*
X139948Y-57822D01*
X139877Y-57751D01*
X139892Y-57736D01*
X139823Y-57557D01*
X139415Y-57390D01*
X138973Y-57392D01*
X138576Y-57557D01*
X138507Y-57736D01*
X138522Y-57751D01*
X138451Y-57822D01*
X138436Y-57807D01*
X138257Y-57876D01*
X138090Y-58284D01*
X138092Y-58726D01*
X138257Y-59123D01*
X138436Y-59192D01*
X138451Y-59177D01*
X138522Y-59248D01*
X138507Y-59263D01*
X138576Y-59442D01*
X138984Y-59609D01*
X139426Y-59607D01*
X139823Y-59442D01*
X139892Y-59263D01*
X139877Y-59248D01*
X139948Y-59177D01*
X139963Y-59192D01*
X140142Y-59123D01*
X140309Y-58715D01*
X140309Y-63710D01*
X140271Y-63618D01*
X140082Y-63428D01*
X139834Y-63326D01*
X139566Y-63325D01*
X139318Y-63428D01*
X139199Y-63546D01*
X139082Y-63428D01*
X138834Y-63326D01*
X138566Y-63325D01*
X138318Y-63428D01*
X138128Y-63617D01*
X138026Y-63865D01*
X138025Y-64133D01*
X138128Y-64381D01*
X138317Y-64571D01*
X138565Y-64673D01*
X138833Y-64674D01*
X139081Y-64571D01*
X139200Y-64453D01*
X139317Y-64571D01*
X139565Y-64673D01*
X139833Y-64674D01*
X140081Y-64571D01*
X140271Y-64382D01*
X140373Y-64134D01*
X140374Y-63866D01*
X140374Y-65675D01*
X137475Y-65675D01*
X137475Y-30575D01*
X140925Y-30575D01*
X140925Y-65675D01*
X140925Y-65675D01*
G37*
G54D13*
X140925Y-65675D02*
X140374Y-65675D01*
X140374Y-63866D01*
X140374Y-52866D01*
X140374Y-41866D01*
X140309Y-41710D01*
X140309Y-36715D01*
X140307Y-36273D01*
X140142Y-35876D01*
X139963Y-35807D01*
X139948Y-35822D01*
X139877Y-35751D01*
X139892Y-35736D01*
X139823Y-35557D01*
X139415Y-35390D01*
X138973Y-35392D01*
X138576Y-35557D01*
X138507Y-35736D01*
X138522Y-35751D01*
X138451Y-35822D01*
X138436Y-35807D01*
X138257Y-35876D01*
X138090Y-36284D01*
X138092Y-36726D01*
X138257Y-37123D01*
X138436Y-37192D01*
X138451Y-37177D01*
X138522Y-37248D01*
X138507Y-37263D01*
X138576Y-37442D01*
X138984Y-37609D01*
X139426Y-37607D01*
X139823Y-37442D01*
X139892Y-37263D01*
X139877Y-37248D01*
X139948Y-37177D01*
X139963Y-37192D01*
X140142Y-37123D01*
X140309Y-36715D01*
X140309Y-41710D01*
X140271Y-41618D01*
X140082Y-41428D01*
X139834Y-41326D01*
X139566Y-41325D01*
X139318Y-41428D01*
X139199Y-41546D01*
X139082Y-41428D01*
X138834Y-41326D01*
X138566Y-41325D01*
X138318Y-41428D01*
X138128Y-41617D01*
X138026Y-41865D01*
X138025Y-42133D01*
X138128Y-42381D01*
X138317Y-42571D01*
X138565Y-42673D01*
X138833Y-42674D01*
X139081Y-42571D01*
X139200Y-42453D01*
X139317Y-42571D01*
X139565Y-42673D01*
X139833Y-42674D01*
X140081Y-42571D01*
X140271Y-42382D01*
X140373Y-42134D01*
X140374Y-41866D01*
X140374Y-52866D01*
X140309Y-52710D01*
X140309Y-47715D01*
X140307Y-47273D01*
X140142Y-46876D01*
X139963Y-46807D01*
X139948Y-46822D01*
X139877Y-46751D01*
X139892Y-46736D01*
X139823Y-46557D01*
X139415Y-46390D01*
X138973Y-46392D01*
X138576Y-46557D01*
X138507Y-46736D01*
X138522Y-46751D01*
X138451Y-46822D01*
X138436Y-46807D01*
X138257Y-46876D01*
X138090Y-47284D01*
X138092Y-47726D01*
X138257Y-48123D01*
X138436Y-48192D01*
X138451Y-48177D01*
X138522Y-48248D01*
X138507Y-48263D01*
X138576Y-48442D01*
X138984Y-48609D01*
X139426Y-48607D01*
X139823Y-48442D01*
X139892Y-48263D01*
X139877Y-48248D01*
X139948Y-48177D01*
X139963Y-48192D01*
X140142Y-48123D01*
X140309Y-47715D01*
X140309Y-52710D01*
X140271Y-52618D01*
X140082Y-52428D01*
X139834Y-52326D01*
X139566Y-52325D01*
X139318Y-52428D01*
X139199Y-52546D01*
X139082Y-52428D01*
X138834Y-52326D01*
X138566Y-52325D01*
X138318Y-52428D01*
X138128Y-52617D01*
X138026Y-52865D01*
X138025Y-53133D01*
X138128Y-53381D01*
X138317Y-53571D01*
X138565Y-53673D01*
X138833Y-53674D01*
X139081Y-53571D01*
X139200Y-53453D01*
X139317Y-53571D01*
X139565Y-53673D01*
X139833Y-53674D01*
X140081Y-53571D01*
X140271Y-53382D01*
X140373Y-53134D01*
X140374Y-52866D01*
X140374Y-63866D01*
X140309Y-63710D01*
X140309Y-58715D01*
X140307Y-58273D01*
X140142Y-57876D01*
X139963Y-57807D01*
X139948Y-57822D01*
X139877Y-57751D01*
X139892Y-57736D01*
X139823Y-57557D01*
X139415Y-57390D01*
X138973Y-57392D01*
X138576Y-57557D01*
X138507Y-57736D01*
X138522Y-57751D01*
X138451Y-57822D01*
X138436Y-57807D01*
X138257Y-57876D01*
X138090Y-58284D01*
X138092Y-58726D01*
X138257Y-59123D01*
X138436Y-59192D01*
X138451Y-59177D01*
X138522Y-59248D01*
X138507Y-59263D01*
X138576Y-59442D01*
X138984Y-59609D01*
X139426Y-59607D01*
X139823Y-59442D01*
X139892Y-59263D01*
X139877Y-59248D01*
X139948Y-59177D01*
X139963Y-59192D01*
X140142Y-59123D01*
X140309Y-58715D01*
X140309Y-63710D01*
X140271Y-63618D01*
X140082Y-63428D01*
X139834Y-63326D01*
X139566Y-63325D01*
X139318Y-63428D01*
X139199Y-63546D01*
X139082Y-63428D01*
X138834Y-63326D01*
X138566Y-63325D01*
X138318Y-63428D01*
X138128Y-63617D01*
X138026Y-63865D01*
X138025Y-64133D01*
X138128Y-64381D01*
X138317Y-64571D01*
X138565Y-64673D01*
X138833Y-64674D01*
X139081Y-64571D01*
X139200Y-64453D01*
X139317Y-64571D01*
X139565Y-64673D01*
X139833Y-64674D01*
X140081Y-64571D01*
X140271Y-64382D01*
X140373Y-64134D01*
X140374Y-63866D01*
X140374Y-65675D01*
X137475Y-65675D01*
X137475Y-30575D01*
X140925Y-30575D01*
X140925Y-65675D01*
G54D10*
G36*
X145025Y-65675D02*
X144474Y-65675D01*
X144474Y-63866D01*
X144474Y-52866D01*
X144474Y-41866D01*
X144409Y-41710D01*
X144409Y-36715D01*
X144407Y-36273D01*
X144242Y-35876D01*
X144063Y-35807D01*
X144048Y-35822D01*
X143977Y-35751D01*
X143992Y-35736D01*
X143923Y-35557D01*
X143515Y-35390D01*
X143073Y-35392D01*
X142676Y-35557D01*
X142607Y-35736D01*
X142622Y-35751D01*
X142551Y-35822D01*
X142536Y-35807D01*
X142357Y-35876D01*
X142190Y-36284D01*
X142192Y-36726D01*
X142357Y-37123D01*
X142536Y-37192D01*
X142551Y-37177D01*
X142622Y-37248D01*
X142607Y-37263D01*
X142676Y-37442D01*
X143084Y-37609D01*
X143526Y-37607D01*
X143923Y-37442D01*
X143992Y-37263D01*
X143977Y-37248D01*
X144048Y-37177D01*
X144063Y-37192D01*
X144242Y-37123D01*
X144409Y-36715D01*
X144409Y-41710D01*
X144371Y-41618D01*
X144182Y-41428D01*
X143934Y-41326D01*
X143666Y-41325D01*
X143418Y-41428D01*
X143299Y-41546D01*
X143182Y-41428D01*
X142934Y-41326D01*
X142666Y-41325D01*
X142418Y-41428D01*
X142228Y-41617D01*
X142126Y-41865D01*
X142125Y-42133D01*
X142228Y-42381D01*
X142417Y-42571D01*
X142665Y-42673D01*
X142933Y-42674D01*
X143181Y-42571D01*
X143300Y-42453D01*
X143417Y-42571D01*
X143665Y-42673D01*
X143933Y-42674D01*
X144181Y-42571D01*
X144371Y-42382D01*
X144473Y-42134D01*
X144474Y-41866D01*
X144474Y-52866D01*
X144409Y-52710D01*
X144409Y-47715D01*
X144407Y-47273D01*
X144242Y-46876D01*
X144063Y-46807D01*
X144048Y-46822D01*
X143977Y-46751D01*
X143992Y-46736D01*
X143923Y-46557D01*
X143515Y-46390D01*
X143073Y-46392D01*
X142676Y-46557D01*
X142607Y-46736D01*
X142622Y-46751D01*
X142551Y-46822D01*
X142536Y-46807D01*
X142357Y-46876D01*
X142190Y-47284D01*
X142192Y-47726D01*
X142357Y-48123D01*
X142536Y-48192D01*
X142551Y-48177D01*
X142622Y-48248D01*
X142607Y-48263D01*
X142676Y-48442D01*
X143084Y-48609D01*
X143526Y-48607D01*
X143923Y-48442D01*
X143992Y-48263D01*
X143977Y-48248D01*
X144048Y-48177D01*
X144063Y-48192D01*
X144242Y-48123D01*
X144409Y-47715D01*
X144409Y-52710D01*
X144371Y-52618D01*
X144182Y-52428D01*
X143934Y-52326D01*
X143666Y-52325D01*
X143418Y-52428D01*
X143299Y-52546D01*
X143182Y-52428D01*
X142934Y-52326D01*
X142666Y-52325D01*
X142418Y-52428D01*
X142228Y-52617D01*
X142126Y-52865D01*
X142125Y-53133D01*
X142228Y-53381D01*
X142417Y-53571D01*
X142665Y-53673D01*
X142933Y-53674D01*
X143181Y-53571D01*
X143300Y-53453D01*
X143417Y-53571D01*
X143665Y-53673D01*
X143933Y-53674D01*
X144181Y-53571D01*
X144371Y-53382D01*
X144473Y-53134D01*
X144474Y-52866D01*
X144474Y-63866D01*
X144409Y-63710D01*
X144409Y-58715D01*
X144407Y-58273D01*
X144242Y-57876D01*
X144063Y-57807D01*
X144048Y-57822D01*
X143977Y-57751D01*
X143992Y-57736D01*
X143923Y-57557D01*
X143515Y-57390D01*
X143073Y-57392D01*
X142676Y-57557D01*
X142607Y-57736D01*
X142622Y-57751D01*
X142551Y-57822D01*
X142536Y-57807D01*
X142357Y-57876D01*
X142190Y-58284D01*
X142192Y-58726D01*
X142357Y-59123D01*
X142536Y-59192D01*
X142551Y-59177D01*
X142622Y-59248D01*
X142607Y-59263D01*
X142676Y-59442D01*
X143084Y-59609D01*
X143526Y-59607D01*
X143923Y-59442D01*
X143992Y-59263D01*
X143977Y-59248D01*
X144048Y-59177D01*
X144063Y-59192D01*
X144242Y-59123D01*
X144409Y-58715D01*
X144409Y-63710D01*
X144371Y-63618D01*
X144182Y-63428D01*
X143934Y-63326D01*
X143666Y-63325D01*
X143418Y-63428D01*
X143299Y-63546D01*
X143182Y-63428D01*
X142934Y-63326D01*
X142666Y-63325D01*
X142418Y-63428D01*
X142228Y-63617D01*
X142126Y-63865D01*
X142125Y-64133D01*
X142228Y-64381D01*
X142417Y-64571D01*
X142665Y-64673D01*
X142933Y-64674D01*
X143181Y-64571D01*
X143300Y-64453D01*
X143417Y-64571D01*
X143665Y-64673D01*
X143933Y-64674D01*
X144181Y-64571D01*
X144371Y-64382D01*
X144473Y-64134D01*
X144474Y-63866D01*
X144474Y-65675D01*
X141575Y-65675D01*
X141575Y-30575D01*
X145025Y-30575D01*
X145025Y-65675D01*
X145025Y-65675D01*
G37*
G54D13*
X145025Y-65675D02*
X144474Y-65675D01*
X144474Y-63866D01*
X144474Y-52866D01*
X144474Y-41866D01*
X144409Y-41710D01*
X144409Y-36715D01*
X144407Y-36273D01*
X144242Y-35876D01*
X144063Y-35807D01*
X144048Y-35822D01*
X143977Y-35751D01*
X143992Y-35736D01*
X143923Y-35557D01*
X143515Y-35390D01*
X143073Y-35392D01*
X142676Y-35557D01*
X142607Y-35736D01*
X142622Y-35751D01*
X142551Y-35822D01*
X142536Y-35807D01*
X142357Y-35876D01*
X142190Y-36284D01*
X142192Y-36726D01*
X142357Y-37123D01*
X142536Y-37192D01*
X142551Y-37177D01*
X142622Y-37248D01*
X142607Y-37263D01*
X142676Y-37442D01*
X143084Y-37609D01*
X143526Y-37607D01*
X143923Y-37442D01*
X143992Y-37263D01*
X143977Y-37248D01*
X144048Y-37177D01*
X144063Y-37192D01*
X144242Y-37123D01*
X144409Y-36715D01*
X144409Y-41710D01*
X144371Y-41618D01*
X144182Y-41428D01*
X143934Y-41326D01*
X143666Y-41325D01*
X143418Y-41428D01*
X143299Y-41546D01*
X143182Y-41428D01*
X142934Y-41326D01*
X142666Y-41325D01*
X142418Y-41428D01*
X142228Y-41617D01*
X142126Y-41865D01*
X142125Y-42133D01*
X142228Y-42381D01*
X142417Y-42571D01*
X142665Y-42673D01*
X142933Y-42674D01*
X143181Y-42571D01*
X143300Y-42453D01*
X143417Y-42571D01*
X143665Y-42673D01*
X143933Y-42674D01*
X144181Y-42571D01*
X144371Y-42382D01*
X144473Y-42134D01*
X144474Y-41866D01*
X144474Y-52866D01*
X144409Y-52710D01*
X144409Y-47715D01*
X144407Y-47273D01*
X144242Y-46876D01*
X144063Y-46807D01*
X144048Y-46822D01*
X143977Y-46751D01*
X143992Y-46736D01*
X143923Y-46557D01*
X143515Y-46390D01*
X143073Y-46392D01*
X142676Y-46557D01*
X142607Y-46736D01*
X142622Y-46751D01*
X142551Y-46822D01*
X142536Y-46807D01*
X142357Y-46876D01*
X142190Y-47284D01*
X142192Y-47726D01*
X142357Y-48123D01*
X142536Y-48192D01*
X142551Y-48177D01*
X142622Y-48248D01*
X142607Y-48263D01*
X142676Y-48442D01*
X143084Y-48609D01*
X143526Y-48607D01*
X143923Y-48442D01*
X143992Y-48263D01*
X143977Y-48248D01*
X144048Y-48177D01*
X144063Y-48192D01*
X144242Y-48123D01*
X144409Y-47715D01*
X144409Y-52710D01*
X144371Y-52618D01*
X144182Y-52428D01*
X143934Y-52326D01*
X143666Y-52325D01*
X143418Y-52428D01*
X143299Y-52546D01*
X143182Y-52428D01*
X142934Y-52326D01*
X142666Y-52325D01*
X142418Y-52428D01*
X142228Y-52617D01*
X142126Y-52865D01*
X142125Y-53133D01*
X142228Y-53381D01*
X142417Y-53571D01*
X142665Y-53673D01*
X142933Y-53674D01*
X143181Y-53571D01*
X143300Y-53453D01*
X143417Y-53571D01*
X143665Y-53673D01*
X143933Y-53674D01*
X144181Y-53571D01*
X144371Y-53382D01*
X144473Y-53134D01*
X144474Y-52866D01*
X144474Y-63866D01*
X144409Y-63710D01*
X144409Y-58715D01*
X144407Y-58273D01*
X144242Y-57876D01*
X144063Y-57807D01*
X144048Y-57822D01*
X143977Y-57751D01*
X143992Y-57736D01*
X143923Y-57557D01*
X143515Y-57390D01*
X143073Y-57392D01*
X142676Y-57557D01*
X142607Y-57736D01*
X142622Y-57751D01*
X142551Y-57822D01*
X142536Y-57807D01*
X142357Y-57876D01*
X142190Y-58284D01*
X142192Y-58726D01*
X142357Y-59123D01*
X142536Y-59192D01*
X142551Y-59177D01*
X142622Y-59248D01*
X142607Y-59263D01*
X142676Y-59442D01*
X143084Y-59609D01*
X143526Y-59607D01*
X143923Y-59442D01*
X143992Y-59263D01*
X143977Y-59248D01*
X144048Y-59177D01*
X144063Y-59192D01*
X144242Y-59123D01*
X144409Y-58715D01*
X144409Y-63710D01*
X144371Y-63618D01*
X144182Y-63428D01*
X143934Y-63326D01*
X143666Y-63325D01*
X143418Y-63428D01*
X143299Y-63546D01*
X143182Y-63428D01*
X142934Y-63326D01*
X142666Y-63325D01*
X142418Y-63428D01*
X142228Y-63617D01*
X142126Y-63865D01*
X142125Y-64133D01*
X142228Y-64381D01*
X142417Y-64571D01*
X142665Y-64673D01*
X142933Y-64674D01*
X143181Y-64571D01*
X143300Y-64453D01*
X143417Y-64571D01*
X143665Y-64673D01*
X143933Y-64674D01*
X144181Y-64571D01*
X144371Y-64382D01*
X144473Y-64134D01*
X144474Y-63866D01*
X144474Y-65675D01*
X141575Y-65675D01*
X141575Y-30575D01*
X145025Y-30575D01*
X145025Y-65675D01*
G54D10*
G36*
X149125Y-65675D02*
X148574Y-65675D01*
X148574Y-63866D01*
X148574Y-52866D01*
X148574Y-41866D01*
X148509Y-41710D01*
X148509Y-36715D01*
X148507Y-36273D01*
X148342Y-35876D01*
X148163Y-35807D01*
X148148Y-35822D01*
X148077Y-35751D01*
X148092Y-35736D01*
X148023Y-35557D01*
X147615Y-35390D01*
X147173Y-35392D01*
X146776Y-35557D01*
X146707Y-35736D01*
X146722Y-35751D01*
X146651Y-35822D01*
X146636Y-35807D01*
X146457Y-35876D01*
X146290Y-36284D01*
X146292Y-36726D01*
X146457Y-37123D01*
X146636Y-37192D01*
X146651Y-37177D01*
X146722Y-37248D01*
X146707Y-37263D01*
X146776Y-37442D01*
X147184Y-37609D01*
X147626Y-37607D01*
X148023Y-37442D01*
X148092Y-37263D01*
X148077Y-37248D01*
X148148Y-37177D01*
X148163Y-37192D01*
X148342Y-37123D01*
X148509Y-36715D01*
X148509Y-41710D01*
X148471Y-41618D01*
X148282Y-41428D01*
X148034Y-41326D01*
X147766Y-41325D01*
X147518Y-41428D01*
X147399Y-41546D01*
X147282Y-41428D01*
X147034Y-41326D01*
X146766Y-41325D01*
X146518Y-41428D01*
X146328Y-41617D01*
X146226Y-41865D01*
X146225Y-42133D01*
X146328Y-42381D01*
X146517Y-42571D01*
X146765Y-42673D01*
X147033Y-42674D01*
X147281Y-42571D01*
X147400Y-42453D01*
X147517Y-42571D01*
X147765Y-42673D01*
X148033Y-42674D01*
X148281Y-42571D01*
X148471Y-42382D01*
X148573Y-42134D01*
X148574Y-41866D01*
X148574Y-52866D01*
X148509Y-52710D01*
X148509Y-47715D01*
X148507Y-47273D01*
X148342Y-46876D01*
X148163Y-46807D01*
X148148Y-46822D01*
X148077Y-46751D01*
X148092Y-46736D01*
X148023Y-46557D01*
X147615Y-46390D01*
X147173Y-46392D01*
X146776Y-46557D01*
X146707Y-46736D01*
X146722Y-46751D01*
X146651Y-46822D01*
X146636Y-46807D01*
X146457Y-46876D01*
X146290Y-47284D01*
X146292Y-47726D01*
X146457Y-48123D01*
X146636Y-48192D01*
X146651Y-48177D01*
X146722Y-48248D01*
X146707Y-48263D01*
X146776Y-48442D01*
X147184Y-48609D01*
X147626Y-48607D01*
X148023Y-48442D01*
X148092Y-48263D01*
X148077Y-48248D01*
X148148Y-48177D01*
X148163Y-48192D01*
X148342Y-48123D01*
X148509Y-47715D01*
X148509Y-52710D01*
X148471Y-52618D01*
X148282Y-52428D01*
X148034Y-52326D01*
X147766Y-52325D01*
X147518Y-52428D01*
X147399Y-52546D01*
X147282Y-52428D01*
X147034Y-52326D01*
X146766Y-52325D01*
X146518Y-52428D01*
X146328Y-52617D01*
X146226Y-52865D01*
X146225Y-53133D01*
X146328Y-53381D01*
X146517Y-53571D01*
X146765Y-53673D01*
X147033Y-53674D01*
X147281Y-53571D01*
X147400Y-53453D01*
X147517Y-53571D01*
X147765Y-53673D01*
X148033Y-53674D01*
X148281Y-53571D01*
X148471Y-53382D01*
X148573Y-53134D01*
X148574Y-52866D01*
X148574Y-63866D01*
X148509Y-63710D01*
X148509Y-58715D01*
X148507Y-58273D01*
X148342Y-57876D01*
X148163Y-57807D01*
X148148Y-57822D01*
X148077Y-57751D01*
X148092Y-57736D01*
X148023Y-57557D01*
X147615Y-57390D01*
X147173Y-57392D01*
X146776Y-57557D01*
X146707Y-57736D01*
X146722Y-57751D01*
X146651Y-57822D01*
X146636Y-57807D01*
X146457Y-57876D01*
X146290Y-58284D01*
X146292Y-58726D01*
X146457Y-59123D01*
X146636Y-59192D01*
X146651Y-59177D01*
X146722Y-59248D01*
X146707Y-59263D01*
X146776Y-59442D01*
X147184Y-59609D01*
X147626Y-59607D01*
X148023Y-59442D01*
X148092Y-59263D01*
X148077Y-59248D01*
X148148Y-59177D01*
X148163Y-59192D01*
X148342Y-59123D01*
X148509Y-58715D01*
X148509Y-63710D01*
X148471Y-63618D01*
X148282Y-63428D01*
X148034Y-63326D01*
X147766Y-63325D01*
X147518Y-63428D01*
X147399Y-63546D01*
X147282Y-63428D01*
X147034Y-63326D01*
X146766Y-63325D01*
X146518Y-63428D01*
X146328Y-63617D01*
X146226Y-63865D01*
X146225Y-64133D01*
X146328Y-64381D01*
X146517Y-64571D01*
X146765Y-64673D01*
X147033Y-64674D01*
X147281Y-64571D01*
X147400Y-64453D01*
X147517Y-64571D01*
X147765Y-64673D01*
X148033Y-64674D01*
X148281Y-64571D01*
X148471Y-64382D01*
X148573Y-64134D01*
X148574Y-63866D01*
X148574Y-65675D01*
X145675Y-65675D01*
X145675Y-30575D01*
X149125Y-30575D01*
X149125Y-65675D01*
X149125Y-65675D01*
G37*
G54D13*
X149125Y-65675D02*
X148574Y-65675D01*
X148574Y-63866D01*
X148574Y-52866D01*
X148574Y-41866D01*
X148509Y-41710D01*
X148509Y-36715D01*
X148507Y-36273D01*
X148342Y-35876D01*
X148163Y-35807D01*
X148148Y-35822D01*
X148077Y-35751D01*
X148092Y-35736D01*
X148023Y-35557D01*
X147615Y-35390D01*
X147173Y-35392D01*
X146776Y-35557D01*
X146707Y-35736D01*
X146722Y-35751D01*
X146651Y-35822D01*
X146636Y-35807D01*
X146457Y-35876D01*
X146290Y-36284D01*
X146292Y-36726D01*
X146457Y-37123D01*
X146636Y-37192D01*
X146651Y-37177D01*
X146722Y-37248D01*
X146707Y-37263D01*
X146776Y-37442D01*
X147184Y-37609D01*
X147626Y-37607D01*
X148023Y-37442D01*
X148092Y-37263D01*
X148077Y-37248D01*
X148148Y-37177D01*
X148163Y-37192D01*
X148342Y-37123D01*
X148509Y-36715D01*
X148509Y-41710D01*
X148471Y-41618D01*
X148282Y-41428D01*
X148034Y-41326D01*
X147766Y-41325D01*
X147518Y-41428D01*
X147399Y-41546D01*
X147282Y-41428D01*
X147034Y-41326D01*
X146766Y-41325D01*
X146518Y-41428D01*
X146328Y-41617D01*
X146226Y-41865D01*
X146225Y-42133D01*
X146328Y-42381D01*
X146517Y-42571D01*
X146765Y-42673D01*
X147033Y-42674D01*
X147281Y-42571D01*
X147400Y-42453D01*
X147517Y-42571D01*
X147765Y-42673D01*
X148033Y-42674D01*
X148281Y-42571D01*
X148471Y-42382D01*
X148573Y-42134D01*
X148574Y-41866D01*
X148574Y-52866D01*
X148509Y-52710D01*
X148509Y-47715D01*
X148507Y-47273D01*
X148342Y-46876D01*
X148163Y-46807D01*
X148148Y-46822D01*
X148077Y-46751D01*
X148092Y-46736D01*
X148023Y-46557D01*
X147615Y-46390D01*
X147173Y-46392D01*
X146776Y-46557D01*
X146707Y-46736D01*
X146722Y-46751D01*
X146651Y-46822D01*
X146636Y-46807D01*
X146457Y-46876D01*
X146290Y-47284D01*
X146292Y-47726D01*
X146457Y-48123D01*
X146636Y-48192D01*
X146651Y-48177D01*
X146722Y-48248D01*
X146707Y-48263D01*
X146776Y-48442D01*
X147184Y-48609D01*
X147626Y-48607D01*
X148023Y-48442D01*
X148092Y-48263D01*
X148077Y-48248D01*
X148148Y-48177D01*
X148163Y-48192D01*
X148342Y-48123D01*
X148509Y-47715D01*
X148509Y-52710D01*
X148471Y-52618D01*
X148282Y-52428D01*
X148034Y-52326D01*
X147766Y-52325D01*
X147518Y-52428D01*
X147399Y-52546D01*
X147282Y-52428D01*
X147034Y-52326D01*
X146766Y-52325D01*
X146518Y-52428D01*
X146328Y-52617D01*
X146226Y-52865D01*
X146225Y-53133D01*
X146328Y-53381D01*
X146517Y-53571D01*
X146765Y-53673D01*
X147033Y-53674D01*
X147281Y-53571D01*
X147400Y-53453D01*
X147517Y-53571D01*
X147765Y-53673D01*
X148033Y-53674D01*
X148281Y-53571D01*
X148471Y-53382D01*
X148573Y-53134D01*
X148574Y-52866D01*
X148574Y-63866D01*
X148509Y-63710D01*
X148509Y-58715D01*
X148507Y-58273D01*
X148342Y-57876D01*
X148163Y-57807D01*
X148148Y-57822D01*
X148077Y-57751D01*
X148092Y-57736D01*
X148023Y-57557D01*
X147615Y-57390D01*
X147173Y-57392D01*
X146776Y-57557D01*
X146707Y-57736D01*
X146722Y-57751D01*
X146651Y-57822D01*
X146636Y-57807D01*
X146457Y-57876D01*
X146290Y-58284D01*
X146292Y-58726D01*
X146457Y-59123D01*
X146636Y-59192D01*
X146651Y-59177D01*
X146722Y-59248D01*
X146707Y-59263D01*
X146776Y-59442D01*
X147184Y-59609D01*
X147626Y-59607D01*
X148023Y-59442D01*
X148092Y-59263D01*
X148077Y-59248D01*
X148148Y-59177D01*
X148163Y-59192D01*
X148342Y-59123D01*
X148509Y-58715D01*
X148509Y-63710D01*
X148471Y-63618D01*
X148282Y-63428D01*
X148034Y-63326D01*
X147766Y-63325D01*
X147518Y-63428D01*
X147399Y-63546D01*
X147282Y-63428D01*
X147034Y-63326D01*
X146766Y-63325D01*
X146518Y-63428D01*
X146328Y-63617D01*
X146226Y-63865D01*
X146225Y-64133D01*
X146328Y-64381D01*
X146517Y-64571D01*
X146765Y-64673D01*
X147033Y-64674D01*
X147281Y-64571D01*
X147400Y-64453D01*
X147517Y-64571D01*
X147765Y-64673D01*
X148033Y-64674D01*
X148281Y-64571D01*
X148471Y-64382D01*
X148573Y-64134D01*
X148574Y-63866D01*
X148574Y-65675D01*
X145675Y-65675D01*
X145675Y-30575D01*
X149125Y-30575D01*
X149125Y-65675D01*
G54D10*
G36*
X157325Y-65675D02*
X156774Y-65675D01*
X156774Y-63866D01*
X156774Y-52866D01*
X156774Y-41866D01*
X156709Y-41710D01*
X156709Y-36715D01*
X156707Y-36273D01*
X156542Y-35876D01*
X156363Y-35807D01*
X156348Y-35822D01*
X156277Y-35751D01*
X156292Y-35736D01*
X156223Y-35557D01*
X155815Y-35390D01*
X155373Y-35392D01*
X154976Y-35557D01*
X154907Y-35736D01*
X154922Y-35751D01*
X154851Y-35822D01*
X154836Y-35807D01*
X154657Y-35876D01*
X154490Y-36284D01*
X154492Y-36726D01*
X154657Y-37123D01*
X154836Y-37192D01*
X154851Y-37177D01*
X154922Y-37248D01*
X154907Y-37263D01*
X154976Y-37442D01*
X155384Y-37609D01*
X155826Y-37607D01*
X156223Y-37442D01*
X156292Y-37263D01*
X156277Y-37248D01*
X156348Y-37177D01*
X156363Y-37192D01*
X156542Y-37123D01*
X156709Y-36715D01*
X156709Y-41710D01*
X156671Y-41618D01*
X156482Y-41428D01*
X156234Y-41326D01*
X155966Y-41325D01*
X155718Y-41428D01*
X155599Y-41546D01*
X155482Y-41428D01*
X155234Y-41326D01*
X154966Y-41325D01*
X154718Y-41428D01*
X154528Y-41617D01*
X154426Y-41865D01*
X154425Y-42133D01*
X154528Y-42381D01*
X154717Y-42571D01*
X154965Y-42673D01*
X155233Y-42674D01*
X155481Y-42571D01*
X155600Y-42453D01*
X155717Y-42571D01*
X155965Y-42673D01*
X156233Y-42674D01*
X156481Y-42571D01*
X156671Y-42382D01*
X156773Y-42134D01*
X156774Y-41866D01*
X156774Y-52866D01*
X156709Y-52710D01*
X156709Y-47715D01*
X156707Y-47273D01*
X156542Y-46876D01*
X156363Y-46807D01*
X156348Y-46822D01*
X156277Y-46751D01*
X156292Y-46736D01*
X156223Y-46557D01*
X155815Y-46390D01*
X155373Y-46392D01*
X154976Y-46557D01*
X154907Y-46736D01*
X154922Y-46751D01*
X154851Y-46822D01*
X154836Y-46807D01*
X154657Y-46876D01*
X154490Y-47284D01*
X154492Y-47726D01*
X154657Y-48123D01*
X154836Y-48192D01*
X154851Y-48177D01*
X154922Y-48248D01*
X154907Y-48263D01*
X154976Y-48442D01*
X155384Y-48609D01*
X155826Y-48607D01*
X156223Y-48442D01*
X156292Y-48263D01*
X156277Y-48248D01*
X156348Y-48177D01*
X156363Y-48192D01*
X156542Y-48123D01*
X156709Y-47715D01*
X156709Y-52710D01*
X156671Y-52618D01*
X156482Y-52428D01*
X156234Y-52326D01*
X155966Y-52325D01*
X155718Y-52428D01*
X155599Y-52546D01*
X155482Y-52428D01*
X155234Y-52326D01*
X154966Y-52325D01*
X154718Y-52428D01*
X154528Y-52617D01*
X154426Y-52865D01*
X154425Y-53133D01*
X154528Y-53381D01*
X154717Y-53571D01*
X154965Y-53673D01*
X155233Y-53674D01*
X155481Y-53571D01*
X155600Y-53453D01*
X155717Y-53571D01*
X155965Y-53673D01*
X156233Y-53674D01*
X156481Y-53571D01*
X156671Y-53382D01*
X156773Y-53134D01*
X156774Y-52866D01*
X156774Y-63866D01*
X156709Y-63710D01*
X156709Y-58715D01*
X156707Y-58273D01*
X156542Y-57876D01*
X156363Y-57807D01*
X156348Y-57822D01*
X156277Y-57751D01*
X156292Y-57736D01*
X156223Y-57557D01*
X155815Y-57390D01*
X155373Y-57392D01*
X154976Y-57557D01*
X154907Y-57736D01*
X154922Y-57751D01*
X154851Y-57822D01*
X154836Y-57807D01*
X154657Y-57876D01*
X154490Y-58284D01*
X154492Y-58726D01*
X154657Y-59123D01*
X154836Y-59192D01*
X154851Y-59177D01*
X154922Y-59248D01*
X154907Y-59263D01*
X154976Y-59442D01*
X155384Y-59609D01*
X155826Y-59607D01*
X156223Y-59442D01*
X156292Y-59263D01*
X156277Y-59248D01*
X156348Y-59177D01*
X156363Y-59192D01*
X156542Y-59123D01*
X156709Y-58715D01*
X156709Y-63710D01*
X156671Y-63618D01*
X156482Y-63428D01*
X156234Y-63326D01*
X155966Y-63325D01*
X155718Y-63428D01*
X155599Y-63546D01*
X155482Y-63428D01*
X155234Y-63326D01*
X154966Y-63325D01*
X154718Y-63428D01*
X154528Y-63617D01*
X154426Y-63865D01*
X154425Y-64133D01*
X154528Y-64381D01*
X154717Y-64571D01*
X154965Y-64673D01*
X155233Y-64674D01*
X155481Y-64571D01*
X155600Y-64453D01*
X155717Y-64571D01*
X155965Y-64673D01*
X156233Y-64674D01*
X156481Y-64571D01*
X156671Y-64382D01*
X156773Y-64134D01*
X156774Y-63866D01*
X156774Y-65675D01*
X153875Y-65675D01*
X153875Y-30575D01*
X157325Y-30575D01*
X157325Y-65675D01*
X157325Y-65675D01*
G37*
G54D13*
X157325Y-65675D02*
X156774Y-65675D01*
X156774Y-63866D01*
X156774Y-52866D01*
X156774Y-41866D01*
X156709Y-41710D01*
X156709Y-36715D01*
X156707Y-36273D01*
X156542Y-35876D01*
X156363Y-35807D01*
X156348Y-35822D01*
X156277Y-35751D01*
X156292Y-35736D01*
X156223Y-35557D01*
X155815Y-35390D01*
X155373Y-35392D01*
X154976Y-35557D01*
X154907Y-35736D01*
X154922Y-35751D01*
X154851Y-35822D01*
X154836Y-35807D01*
X154657Y-35876D01*
X154490Y-36284D01*
X154492Y-36726D01*
X154657Y-37123D01*
X154836Y-37192D01*
X154851Y-37177D01*
X154922Y-37248D01*
X154907Y-37263D01*
X154976Y-37442D01*
X155384Y-37609D01*
X155826Y-37607D01*
X156223Y-37442D01*
X156292Y-37263D01*
X156277Y-37248D01*
X156348Y-37177D01*
X156363Y-37192D01*
X156542Y-37123D01*
X156709Y-36715D01*
X156709Y-41710D01*
X156671Y-41618D01*
X156482Y-41428D01*
X156234Y-41326D01*
X155966Y-41325D01*
X155718Y-41428D01*
X155599Y-41546D01*
X155482Y-41428D01*
X155234Y-41326D01*
X154966Y-41325D01*
X154718Y-41428D01*
X154528Y-41617D01*
X154426Y-41865D01*
X154425Y-42133D01*
X154528Y-42381D01*
X154717Y-42571D01*
X154965Y-42673D01*
X155233Y-42674D01*
X155481Y-42571D01*
X155600Y-42453D01*
X155717Y-42571D01*
X155965Y-42673D01*
X156233Y-42674D01*
X156481Y-42571D01*
X156671Y-42382D01*
X156773Y-42134D01*
X156774Y-41866D01*
X156774Y-52866D01*
X156709Y-52710D01*
X156709Y-47715D01*
X156707Y-47273D01*
X156542Y-46876D01*
X156363Y-46807D01*
X156348Y-46822D01*
X156277Y-46751D01*
X156292Y-46736D01*
X156223Y-46557D01*
X155815Y-46390D01*
X155373Y-46392D01*
X154976Y-46557D01*
X154907Y-46736D01*
X154922Y-46751D01*
X154851Y-46822D01*
X154836Y-46807D01*
X154657Y-46876D01*
X154490Y-47284D01*
X154492Y-47726D01*
X154657Y-48123D01*
X154836Y-48192D01*
X154851Y-48177D01*
X154922Y-48248D01*
X154907Y-48263D01*
X154976Y-48442D01*
X155384Y-48609D01*
X155826Y-48607D01*
X156223Y-48442D01*
X156292Y-48263D01*
X156277Y-48248D01*
X156348Y-48177D01*
X156363Y-48192D01*
X156542Y-48123D01*
X156709Y-47715D01*
X156709Y-52710D01*
X156671Y-52618D01*
X156482Y-52428D01*
X156234Y-52326D01*
X155966Y-52325D01*
X155718Y-52428D01*
X155599Y-52546D01*
X155482Y-52428D01*
X155234Y-52326D01*
X154966Y-52325D01*
X154718Y-52428D01*
X154528Y-52617D01*
X154426Y-52865D01*
X154425Y-53133D01*
X154528Y-53381D01*
X154717Y-53571D01*
X154965Y-53673D01*
X155233Y-53674D01*
X155481Y-53571D01*
X155600Y-53453D01*
X155717Y-53571D01*
X155965Y-53673D01*
X156233Y-53674D01*
X156481Y-53571D01*
X156671Y-53382D01*
X156773Y-53134D01*
X156774Y-52866D01*
X156774Y-63866D01*
X156709Y-63710D01*
X156709Y-58715D01*
X156707Y-58273D01*
X156542Y-57876D01*
X156363Y-57807D01*
X156348Y-57822D01*
X156277Y-57751D01*
X156292Y-57736D01*
X156223Y-57557D01*
X155815Y-57390D01*
X155373Y-57392D01*
X154976Y-57557D01*
X154907Y-57736D01*
X154922Y-57751D01*
X154851Y-57822D01*
X154836Y-57807D01*
X154657Y-57876D01*
X154490Y-58284D01*
X154492Y-58726D01*
X154657Y-59123D01*
X154836Y-59192D01*
X154851Y-59177D01*
X154922Y-59248D01*
X154907Y-59263D01*
X154976Y-59442D01*
X155384Y-59609D01*
X155826Y-59607D01*
X156223Y-59442D01*
X156292Y-59263D01*
X156277Y-59248D01*
X156348Y-59177D01*
X156363Y-59192D01*
X156542Y-59123D01*
X156709Y-58715D01*
X156709Y-63710D01*
X156671Y-63618D01*
X156482Y-63428D01*
X156234Y-63326D01*
X155966Y-63325D01*
X155718Y-63428D01*
X155599Y-63546D01*
X155482Y-63428D01*
X155234Y-63326D01*
X154966Y-63325D01*
X154718Y-63428D01*
X154528Y-63617D01*
X154426Y-63865D01*
X154425Y-64133D01*
X154528Y-64381D01*
X154717Y-64571D01*
X154965Y-64673D01*
X155233Y-64674D01*
X155481Y-64571D01*
X155600Y-64453D01*
X155717Y-64571D01*
X155965Y-64673D01*
X156233Y-64674D01*
X156481Y-64571D01*
X156671Y-64382D01*
X156773Y-64134D01*
X156774Y-63866D01*
X156774Y-65675D01*
X153875Y-65675D01*
X153875Y-30575D01*
X157325Y-30575D01*
X157325Y-65675D01*
M02*
