%FSLAX34Y34*%
G04 Gerber Fmt 3.4, Leading zero omitted, Abs format*
G04 (created by PCBNEW (2014-04-22 BZR 4817)-product) date Mon 08 Sep 2014 03:11:33 PM CDT*
%MOIN*%
G01*
G70*
G90*
G04 APERTURE LIST*
%ADD10C,0.005000*%
%ADD11C,0.010000*%
%ADD12C,0.024000*%
G04 APERTURE END LIST*
G54D10*
G54D11*
X131235Y-26671D02*
X131235Y-27071D01*
X131092Y-26442D02*
X130950Y-26871D01*
X131321Y-26871D01*
X131550Y-27014D02*
X131578Y-27042D01*
X131550Y-27071D01*
X131521Y-27042D01*
X131550Y-27014D01*
X131550Y-27071D01*
X131864Y-27071D02*
X131978Y-27071D01*
X132035Y-27042D01*
X132064Y-27014D01*
X132121Y-26928D01*
X132150Y-26814D01*
X132150Y-26585D01*
X132121Y-26528D01*
X132092Y-26500D01*
X132035Y-26471D01*
X131921Y-26471D01*
X131864Y-26500D01*
X131835Y-26528D01*
X131807Y-26585D01*
X131807Y-26728D01*
X131835Y-26785D01*
X131864Y-26814D01*
X131921Y-26842D01*
X132035Y-26842D01*
X132092Y-26814D01*
X132121Y-26785D01*
X132150Y-26728D01*
X132378Y-26528D02*
X132407Y-26500D01*
X132464Y-26471D01*
X132607Y-26471D01*
X132664Y-26500D01*
X132692Y-26528D01*
X132721Y-26585D01*
X132721Y-26642D01*
X132692Y-26728D01*
X132350Y-27071D01*
X132721Y-27071D01*
X133092Y-26471D02*
X133150Y-26471D01*
X133207Y-26500D01*
X133235Y-26528D01*
X133264Y-26585D01*
X133292Y-26700D01*
X133292Y-26842D01*
X133264Y-26957D01*
X133235Y-27014D01*
X133207Y-27042D01*
X133150Y-27071D01*
X133092Y-27071D01*
X133035Y-27042D01*
X133007Y-27014D01*
X132978Y-26957D01*
X132950Y-26842D01*
X132950Y-26700D01*
X132978Y-26585D01*
X133007Y-26528D01*
X133035Y-26500D01*
X133092Y-26471D01*
X133664Y-26471D02*
X133721Y-26471D01*
X133778Y-26500D01*
X133807Y-26528D01*
X133835Y-26585D01*
X133864Y-26700D01*
X133864Y-26842D01*
X133835Y-26957D01*
X133807Y-27014D01*
X133778Y-27042D01*
X133721Y-27071D01*
X133664Y-27071D01*
X133607Y-27042D01*
X133578Y-27014D01*
X133550Y-26957D01*
X133521Y-26842D01*
X133521Y-26700D01*
X133550Y-26585D01*
X133578Y-26528D01*
X133607Y-26500D01*
X133664Y-26471D01*
X134578Y-27071D02*
X134578Y-26671D01*
X134578Y-26471D02*
X134550Y-26500D01*
X134578Y-26528D01*
X134607Y-26500D01*
X134578Y-26471D01*
X134578Y-26528D01*
X134864Y-26671D02*
X134864Y-27071D01*
X134864Y-26728D02*
X134892Y-26700D01*
X134950Y-26671D01*
X135035Y-26671D01*
X135092Y-26700D01*
X135121Y-26757D01*
X135121Y-27071D01*
X108450Y-27300D02*
X157650Y-27300D01*
X108450Y-29800D02*
X108450Y-26300D01*
X157650Y-29800D02*
X157650Y-26300D01*
X157650Y-27300D02*
X157206Y-27530D01*
X157650Y-27300D02*
X157206Y-27069D01*
X108450Y-27300D02*
X108893Y-27530D01*
X108450Y-27300D02*
X108893Y-27069D01*
X153792Y-68600D02*
X153821Y-68542D01*
X153821Y-68428D01*
X153792Y-68371D01*
X153735Y-68342D01*
X153707Y-68342D01*
X153650Y-68371D01*
X153621Y-68428D01*
X153621Y-68514D01*
X153592Y-68571D01*
X153535Y-68600D01*
X153507Y-68600D01*
X153450Y-68571D01*
X153421Y-68514D01*
X153421Y-68428D01*
X153450Y-68371D01*
X153792Y-67828D02*
X153821Y-67885D01*
X153821Y-68000D01*
X153792Y-68057D01*
X153764Y-68085D01*
X153707Y-68114D01*
X153535Y-68114D01*
X153478Y-68085D01*
X153450Y-68057D01*
X153421Y-68000D01*
X153421Y-67885D01*
X153450Y-67828D01*
X153821Y-67485D02*
X153792Y-67542D01*
X153764Y-67571D01*
X153707Y-67600D01*
X153535Y-67600D01*
X153478Y-67571D01*
X153450Y-67542D01*
X153421Y-67485D01*
X153421Y-67400D01*
X153450Y-67342D01*
X153478Y-67314D01*
X153535Y-67285D01*
X153707Y-67285D01*
X153764Y-67314D01*
X153792Y-67342D01*
X153821Y-67400D01*
X153821Y-67485D01*
X153821Y-67028D02*
X153421Y-67028D01*
X153535Y-67028D02*
X153478Y-67000D01*
X153450Y-66971D01*
X153421Y-66914D01*
X153421Y-66857D01*
X153792Y-66428D02*
X153821Y-66485D01*
X153821Y-66600D01*
X153792Y-66657D01*
X153735Y-66685D01*
X153507Y-66685D01*
X153450Y-66657D01*
X153421Y-66600D01*
X153421Y-66485D01*
X153450Y-66428D01*
X153507Y-66400D01*
X153564Y-66400D01*
X153621Y-66685D01*
G54D12*
X126685Y-24542D02*
X126685Y-23914D01*
X126628Y-23800D01*
X126514Y-23742D01*
X126285Y-23742D01*
X126171Y-23800D01*
X126685Y-24485D02*
X126571Y-24542D01*
X126285Y-24542D01*
X126171Y-24485D01*
X126114Y-24371D01*
X126114Y-24257D01*
X126171Y-24142D01*
X126285Y-24085D01*
X126571Y-24085D01*
X126685Y-24028D01*
X127257Y-24542D02*
X127257Y-23742D01*
X127257Y-23971D02*
X127314Y-23857D01*
X127371Y-23800D01*
X127485Y-23742D01*
X127600Y-23742D01*
X128000Y-24542D02*
X128000Y-23742D01*
X128000Y-23857D02*
X128057Y-23800D01*
X128171Y-23742D01*
X128342Y-23742D01*
X128457Y-23800D01*
X128514Y-23914D01*
X128514Y-24542D01*
X128514Y-23914D02*
X128571Y-23800D01*
X128685Y-23742D01*
X128857Y-23742D01*
X128971Y-23800D01*
X129028Y-23914D01*
X129028Y-24542D01*
X129542Y-24485D02*
X129657Y-24542D01*
X129885Y-24542D01*
X130000Y-24485D01*
X130057Y-24371D01*
X130057Y-24314D01*
X130000Y-24200D01*
X129885Y-24142D01*
X129714Y-24142D01*
X129600Y-24085D01*
X129542Y-23971D01*
X129542Y-23914D01*
X129600Y-23800D01*
X129714Y-23742D01*
X129885Y-23742D01*
X130000Y-23800D01*
X131485Y-23742D02*
X131485Y-24942D01*
X131485Y-23800D02*
X131600Y-23742D01*
X131828Y-23742D01*
X131942Y-23800D01*
X132000Y-23857D01*
X132057Y-23971D01*
X132057Y-24314D01*
X132000Y-24428D01*
X131942Y-24485D01*
X131828Y-24542D01*
X131600Y-24542D01*
X131485Y-24485D01*
X133085Y-24542D02*
X133085Y-23914D01*
X133028Y-23800D01*
X132914Y-23742D01*
X132685Y-23742D01*
X132571Y-23800D01*
X133085Y-24485D02*
X132971Y-24542D01*
X132685Y-24542D01*
X132571Y-24485D01*
X132514Y-24371D01*
X132514Y-24257D01*
X132571Y-24142D01*
X132685Y-24085D01*
X132971Y-24085D01*
X133085Y-24028D01*
X133657Y-23742D02*
X133657Y-24542D01*
X133657Y-23857D02*
X133714Y-23800D01*
X133828Y-23742D01*
X134000Y-23742D01*
X134114Y-23800D01*
X134171Y-23914D01*
X134171Y-24542D01*
X135200Y-24485D02*
X135085Y-24542D01*
X134857Y-24542D01*
X134742Y-24485D01*
X134685Y-24371D01*
X134685Y-23914D01*
X134742Y-23800D01*
X134857Y-23742D01*
X135085Y-23742D01*
X135200Y-23800D01*
X135257Y-23914D01*
X135257Y-24028D01*
X134685Y-24142D01*
X135942Y-24542D02*
X135828Y-24485D01*
X135771Y-24371D01*
X135771Y-23342D01*
G54D11*
X149692Y-68600D02*
X149721Y-68542D01*
X149721Y-68428D01*
X149692Y-68371D01*
X149635Y-68342D01*
X149607Y-68342D01*
X149550Y-68371D01*
X149521Y-68428D01*
X149521Y-68514D01*
X149492Y-68571D01*
X149435Y-68600D01*
X149407Y-68600D01*
X149350Y-68571D01*
X149321Y-68514D01*
X149321Y-68428D01*
X149350Y-68371D01*
X149692Y-67828D02*
X149721Y-67885D01*
X149721Y-68000D01*
X149692Y-68057D01*
X149664Y-68085D01*
X149607Y-68114D01*
X149435Y-68114D01*
X149378Y-68085D01*
X149350Y-68057D01*
X149321Y-68000D01*
X149321Y-67885D01*
X149350Y-67828D01*
X149721Y-67485D02*
X149692Y-67542D01*
X149664Y-67571D01*
X149607Y-67600D01*
X149435Y-67600D01*
X149378Y-67571D01*
X149350Y-67542D01*
X149321Y-67485D01*
X149321Y-67400D01*
X149350Y-67342D01*
X149378Y-67314D01*
X149435Y-67285D01*
X149607Y-67285D01*
X149664Y-67314D01*
X149692Y-67342D01*
X149721Y-67400D01*
X149721Y-67485D01*
X149721Y-67028D02*
X149321Y-67028D01*
X149435Y-67028D02*
X149378Y-67000D01*
X149350Y-66971D01*
X149321Y-66914D01*
X149321Y-66857D01*
X149692Y-66428D02*
X149721Y-66485D01*
X149721Y-66600D01*
X149692Y-66657D01*
X149635Y-66685D01*
X149407Y-66685D01*
X149350Y-66657D01*
X149321Y-66600D01*
X149321Y-66485D01*
X149350Y-66428D01*
X149407Y-66400D01*
X149464Y-66400D01*
X149521Y-66685D01*
X145592Y-68600D02*
X145621Y-68542D01*
X145621Y-68428D01*
X145592Y-68371D01*
X145535Y-68342D01*
X145507Y-68342D01*
X145450Y-68371D01*
X145421Y-68428D01*
X145421Y-68514D01*
X145392Y-68571D01*
X145335Y-68600D01*
X145307Y-68600D01*
X145250Y-68571D01*
X145221Y-68514D01*
X145221Y-68428D01*
X145250Y-68371D01*
X145592Y-67828D02*
X145621Y-67885D01*
X145621Y-68000D01*
X145592Y-68057D01*
X145564Y-68085D01*
X145507Y-68114D01*
X145335Y-68114D01*
X145278Y-68085D01*
X145250Y-68057D01*
X145221Y-68000D01*
X145221Y-67885D01*
X145250Y-67828D01*
X145621Y-67485D02*
X145592Y-67542D01*
X145564Y-67571D01*
X145507Y-67600D01*
X145335Y-67600D01*
X145278Y-67571D01*
X145250Y-67542D01*
X145221Y-67485D01*
X145221Y-67400D01*
X145250Y-67342D01*
X145278Y-67314D01*
X145335Y-67285D01*
X145507Y-67285D01*
X145564Y-67314D01*
X145592Y-67342D01*
X145621Y-67400D01*
X145621Y-67485D01*
X145621Y-67028D02*
X145221Y-67028D01*
X145335Y-67028D02*
X145278Y-67000D01*
X145250Y-66971D01*
X145221Y-66914D01*
X145221Y-66857D01*
X145592Y-66428D02*
X145621Y-66485D01*
X145621Y-66600D01*
X145592Y-66657D01*
X145535Y-66685D01*
X145307Y-66685D01*
X145250Y-66657D01*
X145221Y-66600D01*
X145221Y-66485D01*
X145250Y-66428D01*
X145307Y-66400D01*
X145364Y-66400D01*
X145421Y-66685D01*
X141492Y-68600D02*
X141521Y-68542D01*
X141521Y-68428D01*
X141492Y-68371D01*
X141435Y-68342D01*
X141407Y-68342D01*
X141350Y-68371D01*
X141321Y-68428D01*
X141321Y-68514D01*
X141292Y-68571D01*
X141235Y-68600D01*
X141207Y-68600D01*
X141150Y-68571D01*
X141121Y-68514D01*
X141121Y-68428D01*
X141150Y-68371D01*
X141492Y-67828D02*
X141521Y-67885D01*
X141521Y-68000D01*
X141492Y-68057D01*
X141464Y-68085D01*
X141407Y-68114D01*
X141235Y-68114D01*
X141178Y-68085D01*
X141150Y-68057D01*
X141121Y-68000D01*
X141121Y-67885D01*
X141150Y-67828D01*
X141521Y-67485D02*
X141492Y-67542D01*
X141464Y-67571D01*
X141407Y-67600D01*
X141235Y-67600D01*
X141178Y-67571D01*
X141150Y-67542D01*
X141121Y-67485D01*
X141121Y-67400D01*
X141150Y-67342D01*
X141178Y-67314D01*
X141235Y-67285D01*
X141407Y-67285D01*
X141464Y-67314D01*
X141492Y-67342D01*
X141521Y-67400D01*
X141521Y-67485D01*
X141521Y-67028D02*
X141121Y-67028D01*
X141235Y-67028D02*
X141178Y-67000D01*
X141150Y-66971D01*
X141121Y-66914D01*
X141121Y-66857D01*
X141492Y-66428D02*
X141521Y-66485D01*
X141521Y-66600D01*
X141492Y-66657D01*
X141435Y-66685D01*
X141207Y-66685D01*
X141150Y-66657D01*
X141121Y-66600D01*
X141121Y-66485D01*
X141150Y-66428D01*
X141207Y-66400D01*
X141264Y-66400D01*
X141321Y-66685D01*
X137392Y-68600D02*
X137421Y-68542D01*
X137421Y-68428D01*
X137392Y-68371D01*
X137335Y-68342D01*
X137307Y-68342D01*
X137250Y-68371D01*
X137221Y-68428D01*
X137221Y-68514D01*
X137192Y-68571D01*
X137135Y-68600D01*
X137107Y-68600D01*
X137050Y-68571D01*
X137021Y-68514D01*
X137021Y-68428D01*
X137050Y-68371D01*
X137392Y-67828D02*
X137421Y-67885D01*
X137421Y-68000D01*
X137392Y-68057D01*
X137364Y-68085D01*
X137307Y-68114D01*
X137135Y-68114D01*
X137078Y-68085D01*
X137050Y-68057D01*
X137021Y-68000D01*
X137021Y-67885D01*
X137050Y-67828D01*
X137421Y-67485D02*
X137392Y-67542D01*
X137364Y-67571D01*
X137307Y-67600D01*
X137135Y-67600D01*
X137078Y-67571D01*
X137050Y-67542D01*
X137021Y-67485D01*
X137021Y-67400D01*
X137050Y-67342D01*
X137078Y-67314D01*
X137135Y-67285D01*
X137307Y-67285D01*
X137364Y-67314D01*
X137392Y-67342D01*
X137421Y-67400D01*
X137421Y-67485D01*
X137421Y-67028D02*
X137021Y-67028D01*
X137135Y-67028D02*
X137078Y-67000D01*
X137050Y-66971D01*
X137021Y-66914D01*
X137021Y-66857D01*
X137392Y-66428D02*
X137421Y-66485D01*
X137421Y-66600D01*
X137392Y-66657D01*
X137335Y-66685D01*
X137107Y-66685D01*
X137050Y-66657D01*
X137021Y-66600D01*
X137021Y-66485D01*
X137050Y-66428D01*
X137107Y-66400D01*
X137164Y-66400D01*
X137221Y-66685D01*
X133292Y-68600D02*
X133321Y-68542D01*
X133321Y-68428D01*
X133292Y-68371D01*
X133235Y-68342D01*
X133207Y-68342D01*
X133150Y-68371D01*
X133121Y-68428D01*
X133121Y-68514D01*
X133092Y-68571D01*
X133035Y-68600D01*
X133007Y-68600D01*
X132950Y-68571D01*
X132921Y-68514D01*
X132921Y-68428D01*
X132950Y-68371D01*
X133292Y-67828D02*
X133321Y-67885D01*
X133321Y-68000D01*
X133292Y-68057D01*
X133264Y-68085D01*
X133207Y-68114D01*
X133035Y-68114D01*
X132978Y-68085D01*
X132950Y-68057D01*
X132921Y-68000D01*
X132921Y-67885D01*
X132950Y-67828D01*
X133321Y-67485D02*
X133292Y-67542D01*
X133264Y-67571D01*
X133207Y-67600D01*
X133035Y-67600D01*
X132978Y-67571D01*
X132950Y-67542D01*
X132921Y-67485D01*
X132921Y-67400D01*
X132950Y-67342D01*
X132978Y-67314D01*
X133035Y-67285D01*
X133207Y-67285D01*
X133264Y-67314D01*
X133292Y-67342D01*
X133321Y-67400D01*
X133321Y-67485D01*
X133321Y-67028D02*
X132921Y-67028D01*
X133035Y-67028D02*
X132978Y-67000D01*
X132950Y-66971D01*
X132921Y-66914D01*
X132921Y-66857D01*
X133292Y-66428D02*
X133321Y-66485D01*
X133321Y-66600D01*
X133292Y-66657D01*
X133235Y-66685D01*
X133007Y-66685D01*
X132950Y-66657D01*
X132921Y-66600D01*
X132921Y-66485D01*
X132950Y-66428D01*
X133007Y-66400D01*
X133064Y-66400D01*
X133121Y-66685D01*
X129192Y-68600D02*
X129221Y-68542D01*
X129221Y-68428D01*
X129192Y-68371D01*
X129135Y-68342D01*
X129107Y-68342D01*
X129050Y-68371D01*
X129021Y-68428D01*
X129021Y-68514D01*
X128992Y-68571D01*
X128935Y-68600D01*
X128907Y-68600D01*
X128850Y-68571D01*
X128821Y-68514D01*
X128821Y-68428D01*
X128850Y-68371D01*
X129192Y-67828D02*
X129221Y-67885D01*
X129221Y-68000D01*
X129192Y-68057D01*
X129164Y-68085D01*
X129107Y-68114D01*
X128935Y-68114D01*
X128878Y-68085D01*
X128850Y-68057D01*
X128821Y-68000D01*
X128821Y-67885D01*
X128850Y-67828D01*
X129221Y-67485D02*
X129192Y-67542D01*
X129164Y-67571D01*
X129107Y-67600D01*
X128935Y-67600D01*
X128878Y-67571D01*
X128850Y-67542D01*
X128821Y-67485D01*
X128821Y-67400D01*
X128850Y-67342D01*
X128878Y-67314D01*
X128935Y-67285D01*
X129107Y-67285D01*
X129164Y-67314D01*
X129192Y-67342D01*
X129221Y-67400D01*
X129221Y-67485D01*
X129221Y-67028D02*
X128821Y-67028D01*
X128935Y-67028D02*
X128878Y-67000D01*
X128850Y-66971D01*
X128821Y-66914D01*
X128821Y-66857D01*
X129192Y-66428D02*
X129221Y-66485D01*
X129221Y-66600D01*
X129192Y-66657D01*
X129135Y-66685D01*
X128907Y-66685D01*
X128850Y-66657D01*
X128821Y-66600D01*
X128821Y-66485D01*
X128850Y-66428D01*
X128907Y-66400D01*
X128964Y-66400D01*
X129021Y-66685D01*
X125092Y-68600D02*
X125121Y-68542D01*
X125121Y-68428D01*
X125092Y-68371D01*
X125035Y-68342D01*
X125007Y-68342D01*
X124950Y-68371D01*
X124921Y-68428D01*
X124921Y-68514D01*
X124892Y-68571D01*
X124835Y-68600D01*
X124807Y-68600D01*
X124750Y-68571D01*
X124721Y-68514D01*
X124721Y-68428D01*
X124750Y-68371D01*
X125092Y-67828D02*
X125121Y-67885D01*
X125121Y-68000D01*
X125092Y-68057D01*
X125064Y-68085D01*
X125007Y-68114D01*
X124835Y-68114D01*
X124778Y-68085D01*
X124750Y-68057D01*
X124721Y-68000D01*
X124721Y-67885D01*
X124750Y-67828D01*
X125121Y-67485D02*
X125092Y-67542D01*
X125064Y-67571D01*
X125007Y-67600D01*
X124835Y-67600D01*
X124778Y-67571D01*
X124750Y-67542D01*
X124721Y-67485D01*
X124721Y-67400D01*
X124750Y-67342D01*
X124778Y-67314D01*
X124835Y-67285D01*
X125007Y-67285D01*
X125064Y-67314D01*
X125092Y-67342D01*
X125121Y-67400D01*
X125121Y-67485D01*
X125121Y-67028D02*
X124721Y-67028D01*
X124835Y-67028D02*
X124778Y-67000D01*
X124750Y-66971D01*
X124721Y-66914D01*
X124721Y-66857D01*
X125092Y-66428D02*
X125121Y-66485D01*
X125121Y-66600D01*
X125092Y-66657D01*
X125035Y-66685D01*
X124807Y-66685D01*
X124750Y-66657D01*
X124721Y-66600D01*
X124721Y-66485D01*
X124750Y-66428D01*
X124807Y-66400D01*
X124864Y-66400D01*
X124921Y-66685D01*
X120992Y-68600D02*
X121021Y-68542D01*
X121021Y-68428D01*
X120992Y-68371D01*
X120935Y-68342D01*
X120907Y-68342D01*
X120850Y-68371D01*
X120821Y-68428D01*
X120821Y-68514D01*
X120792Y-68571D01*
X120735Y-68600D01*
X120707Y-68600D01*
X120650Y-68571D01*
X120621Y-68514D01*
X120621Y-68428D01*
X120650Y-68371D01*
X120992Y-67828D02*
X121021Y-67885D01*
X121021Y-68000D01*
X120992Y-68057D01*
X120964Y-68085D01*
X120907Y-68114D01*
X120735Y-68114D01*
X120678Y-68085D01*
X120650Y-68057D01*
X120621Y-68000D01*
X120621Y-67885D01*
X120650Y-67828D01*
X121021Y-67485D02*
X120992Y-67542D01*
X120964Y-67571D01*
X120907Y-67600D01*
X120735Y-67600D01*
X120678Y-67571D01*
X120650Y-67542D01*
X120621Y-67485D01*
X120621Y-67400D01*
X120650Y-67342D01*
X120678Y-67314D01*
X120735Y-67285D01*
X120907Y-67285D01*
X120964Y-67314D01*
X120992Y-67342D01*
X121021Y-67400D01*
X121021Y-67485D01*
X121021Y-67028D02*
X120621Y-67028D01*
X120735Y-67028D02*
X120678Y-67000D01*
X120650Y-66971D01*
X120621Y-66914D01*
X120621Y-66857D01*
X120992Y-66428D02*
X121021Y-66485D01*
X121021Y-66600D01*
X120992Y-66657D01*
X120935Y-66685D01*
X120707Y-66685D01*
X120650Y-66657D01*
X120621Y-66600D01*
X120621Y-66485D01*
X120650Y-66428D01*
X120707Y-66400D01*
X120764Y-66400D01*
X120821Y-66685D01*
X116892Y-68600D02*
X116921Y-68542D01*
X116921Y-68428D01*
X116892Y-68371D01*
X116835Y-68342D01*
X116807Y-68342D01*
X116750Y-68371D01*
X116721Y-68428D01*
X116721Y-68514D01*
X116692Y-68571D01*
X116635Y-68600D01*
X116607Y-68600D01*
X116550Y-68571D01*
X116521Y-68514D01*
X116521Y-68428D01*
X116550Y-68371D01*
X116892Y-67828D02*
X116921Y-67885D01*
X116921Y-68000D01*
X116892Y-68057D01*
X116864Y-68085D01*
X116807Y-68114D01*
X116635Y-68114D01*
X116578Y-68085D01*
X116550Y-68057D01*
X116521Y-68000D01*
X116521Y-67885D01*
X116550Y-67828D01*
X116921Y-67485D02*
X116892Y-67542D01*
X116864Y-67571D01*
X116807Y-67600D01*
X116635Y-67600D01*
X116578Y-67571D01*
X116550Y-67542D01*
X116521Y-67485D01*
X116521Y-67400D01*
X116550Y-67342D01*
X116578Y-67314D01*
X116635Y-67285D01*
X116807Y-67285D01*
X116864Y-67314D01*
X116892Y-67342D01*
X116921Y-67400D01*
X116921Y-67485D01*
X116921Y-67028D02*
X116521Y-67028D01*
X116635Y-67028D02*
X116578Y-67000D01*
X116550Y-66971D01*
X116521Y-66914D01*
X116521Y-66857D01*
X116892Y-66428D02*
X116921Y-66485D01*
X116921Y-66600D01*
X116892Y-66657D01*
X116835Y-66685D01*
X116607Y-66685D01*
X116550Y-66657D01*
X116521Y-66600D01*
X116521Y-66485D01*
X116550Y-66428D01*
X116607Y-66400D01*
X116664Y-66400D01*
X116721Y-66685D01*
X112792Y-68600D02*
X112821Y-68542D01*
X112821Y-68428D01*
X112792Y-68371D01*
X112735Y-68342D01*
X112707Y-68342D01*
X112650Y-68371D01*
X112621Y-68428D01*
X112621Y-68514D01*
X112592Y-68571D01*
X112535Y-68600D01*
X112507Y-68600D01*
X112450Y-68571D01*
X112421Y-68514D01*
X112421Y-68428D01*
X112450Y-68371D01*
X112792Y-67828D02*
X112821Y-67885D01*
X112821Y-68000D01*
X112792Y-68057D01*
X112764Y-68085D01*
X112707Y-68114D01*
X112535Y-68114D01*
X112478Y-68085D01*
X112450Y-68057D01*
X112421Y-68000D01*
X112421Y-67885D01*
X112450Y-67828D01*
X112821Y-67485D02*
X112792Y-67542D01*
X112764Y-67571D01*
X112707Y-67600D01*
X112535Y-67600D01*
X112478Y-67571D01*
X112450Y-67542D01*
X112421Y-67485D01*
X112421Y-67400D01*
X112450Y-67342D01*
X112478Y-67314D01*
X112535Y-67285D01*
X112707Y-67285D01*
X112764Y-67314D01*
X112792Y-67342D01*
X112821Y-67400D01*
X112821Y-67485D01*
X112821Y-67028D02*
X112421Y-67028D01*
X112535Y-67028D02*
X112478Y-67000D01*
X112450Y-66971D01*
X112421Y-66914D01*
X112421Y-66857D01*
X112792Y-66428D02*
X112821Y-66485D01*
X112821Y-66600D01*
X112792Y-66657D01*
X112735Y-66685D01*
X112507Y-66685D01*
X112450Y-66657D01*
X112421Y-66600D01*
X112421Y-66485D01*
X112450Y-66428D01*
X112507Y-66400D01*
X112564Y-66400D01*
X112621Y-66685D01*
X103921Y-50253D02*
X103921Y-49882D01*
X104150Y-50082D01*
X104150Y-49996D01*
X104178Y-49939D01*
X104207Y-49910D01*
X104264Y-49882D01*
X104407Y-49882D01*
X104464Y-49910D01*
X104492Y-49939D01*
X104521Y-49996D01*
X104521Y-50167D01*
X104492Y-50225D01*
X104464Y-50253D01*
X104464Y-49625D02*
X104492Y-49596D01*
X104521Y-49625D01*
X104492Y-49653D01*
X104464Y-49625D01*
X104521Y-49625D01*
X103921Y-49053D02*
X103921Y-49339D01*
X104207Y-49367D01*
X104178Y-49339D01*
X104150Y-49282D01*
X104150Y-49139D01*
X104178Y-49082D01*
X104207Y-49053D01*
X104264Y-49025D01*
X104407Y-49025D01*
X104464Y-49053D01*
X104492Y-49082D01*
X104521Y-49139D01*
X104521Y-49282D01*
X104492Y-49339D01*
X104464Y-49367D01*
X103921Y-48825D02*
X103921Y-48425D01*
X104521Y-48682D01*
X103921Y-47910D02*
X103921Y-48196D01*
X104207Y-48224D01*
X104178Y-48196D01*
X104150Y-48139D01*
X104150Y-47996D01*
X104178Y-47939D01*
X104207Y-47910D01*
X104264Y-47882D01*
X104407Y-47882D01*
X104464Y-47910D01*
X104492Y-47939D01*
X104521Y-47996D01*
X104521Y-48139D01*
X104492Y-48196D01*
X104464Y-48224D01*
X103921Y-47510D02*
X103921Y-47453D01*
X103950Y-47396D01*
X103978Y-47367D01*
X104035Y-47339D01*
X104150Y-47310D01*
X104292Y-47310D01*
X104407Y-47339D01*
X104464Y-47367D01*
X104492Y-47396D01*
X104521Y-47453D01*
X104521Y-47510D01*
X104492Y-47567D01*
X104464Y-47596D01*
X104407Y-47624D01*
X104292Y-47653D01*
X104150Y-47653D01*
X104035Y-47624D01*
X103978Y-47596D01*
X103950Y-47567D01*
X103921Y-47510D01*
X104521Y-46596D02*
X104121Y-46596D01*
X103921Y-46596D02*
X103950Y-46624D01*
X103978Y-46596D01*
X103950Y-46567D01*
X103921Y-46596D01*
X103978Y-46596D01*
X104121Y-46310D02*
X104521Y-46310D01*
X104178Y-46310D02*
X104150Y-46282D01*
X104121Y-46224D01*
X104121Y-46139D01*
X104150Y-46082D01*
X104207Y-46053D01*
X104521Y-46053D01*
X104750Y-66000D02*
X104750Y-30250D01*
X107750Y-66000D02*
X103750Y-66000D01*
X107750Y-30250D02*
X103750Y-30250D01*
X104750Y-30250D02*
X104980Y-30693D01*
X104750Y-30250D02*
X104519Y-30693D01*
X104750Y-66000D02*
X104980Y-65556D01*
X104750Y-66000D02*
X104519Y-65556D01*
X113042Y-28671D02*
X113100Y-28671D01*
X113157Y-28700D01*
X113185Y-28728D01*
X113214Y-28785D01*
X113242Y-28900D01*
X113242Y-29042D01*
X113214Y-29157D01*
X113185Y-29214D01*
X113157Y-29242D01*
X113100Y-29271D01*
X113042Y-29271D01*
X112985Y-29242D01*
X112957Y-29214D01*
X112928Y-29157D01*
X112900Y-29042D01*
X112900Y-28900D01*
X112928Y-28785D01*
X112957Y-28728D01*
X112985Y-28700D01*
X113042Y-28671D01*
X113500Y-29214D02*
X113528Y-29242D01*
X113500Y-29271D01*
X113471Y-29242D01*
X113500Y-29214D01*
X113500Y-29271D01*
X114042Y-28871D02*
X114042Y-29271D01*
X113900Y-28642D02*
X113757Y-29071D01*
X114128Y-29071D01*
X114671Y-29271D02*
X114328Y-29271D01*
X114500Y-29271D02*
X114500Y-28671D01*
X114442Y-28757D01*
X114385Y-28814D01*
X114328Y-28842D01*
X115042Y-28671D02*
X115100Y-28671D01*
X115157Y-28700D01*
X115185Y-28728D01*
X115214Y-28785D01*
X115242Y-28900D01*
X115242Y-29042D01*
X115214Y-29157D01*
X115185Y-29214D01*
X115157Y-29242D01*
X115100Y-29271D01*
X115042Y-29271D01*
X114985Y-29242D01*
X114957Y-29214D01*
X114928Y-29157D01*
X114900Y-29042D01*
X114900Y-28900D01*
X114928Y-28785D01*
X114957Y-28728D01*
X114985Y-28700D01*
X115042Y-28671D01*
X115614Y-28671D02*
X115671Y-28671D01*
X115728Y-28700D01*
X115757Y-28728D01*
X115785Y-28785D01*
X115814Y-28900D01*
X115814Y-29042D01*
X115785Y-29157D01*
X115757Y-29214D01*
X115728Y-29242D01*
X115671Y-29271D01*
X115614Y-29271D01*
X115557Y-29242D01*
X115528Y-29214D01*
X115500Y-29157D01*
X115471Y-29042D01*
X115471Y-28900D01*
X115500Y-28785D01*
X115528Y-28728D01*
X115557Y-28700D01*
X115614Y-28671D01*
X116528Y-29271D02*
X116528Y-28871D01*
X116528Y-28671D02*
X116500Y-28700D01*
X116528Y-28728D01*
X116557Y-28700D01*
X116528Y-28671D01*
X116528Y-28728D01*
X116814Y-28871D02*
X116814Y-29271D01*
X116814Y-28928D02*
X116842Y-28900D01*
X116900Y-28871D01*
X116985Y-28871D01*
X117042Y-28900D01*
X117071Y-28957D01*
X117071Y-29271D01*
X108450Y-28950D02*
X112550Y-28950D01*
X108450Y-29800D02*
X108450Y-27950D01*
X112550Y-29800D02*
X112550Y-27950D01*
X112550Y-28950D02*
X112106Y-29180D01*
X112550Y-28950D02*
X112106Y-28719D01*
X108450Y-28950D02*
X108893Y-29180D01*
X108450Y-28950D02*
X108893Y-28719D01*
M02*
