%FSLAX34Y34*%
G04 Gerber Fmt 3.4, Leading zero omitted, Abs format*
G04 (created by PCBNEW (2014-03-10 BZR 4741)-product) date 3/24/2014 1:58:16 PM*
%MOIN*%
G01*
G70*
G90*
G04 APERTURE LIST*
%ADD10C,0.006000*%
%ADD11C,0.062992*%
%ADD12R,0.078740X0.118110*%
%ADD13C,0.141732*%
%ADD14C,0.020000*%
G04 APERTURE END LIST*
G54D10*
G54D11*
X107050Y-63050D03*
X108050Y-63050D03*
X107050Y-52050D03*
X108050Y-52050D03*
X107050Y-41050D03*
X108050Y-41050D03*
G54D12*
X106050Y-30050D03*
X107050Y-30050D03*
X108050Y-30050D03*
X109050Y-30050D03*
G54D13*
X107550Y-57550D03*
X107550Y-46550D03*
X107550Y-35550D03*
G54D11*
X102950Y-63050D03*
X103950Y-63050D03*
X102950Y-52050D03*
X103950Y-52050D03*
X102950Y-41050D03*
X103950Y-41050D03*
G54D12*
X101950Y-30050D03*
X102950Y-30050D03*
X103950Y-30050D03*
X104950Y-30050D03*
G54D13*
X103450Y-57550D03*
X103450Y-46550D03*
X103450Y-35550D03*
X87050Y-35550D03*
X87050Y-46550D03*
X87050Y-57550D03*
G54D12*
X88550Y-30050D03*
X87550Y-30050D03*
X86550Y-30050D03*
X85550Y-30050D03*
G54D11*
X86550Y-41050D03*
X87550Y-41050D03*
X86550Y-52050D03*
X87550Y-52050D03*
X86550Y-63050D03*
X87550Y-63050D03*
X90650Y-63050D03*
X91650Y-63050D03*
X90650Y-52050D03*
X91650Y-52050D03*
X90650Y-41050D03*
X91650Y-41050D03*
G54D12*
X89650Y-30050D03*
X90650Y-30050D03*
X91650Y-30050D03*
X92650Y-30050D03*
G54D13*
X91150Y-57550D03*
X91150Y-46550D03*
X91150Y-35550D03*
X99350Y-35550D03*
X99350Y-46550D03*
X99350Y-57550D03*
G54D12*
X100850Y-30050D03*
X99850Y-30050D03*
X98850Y-30050D03*
X97850Y-30050D03*
G54D11*
X98850Y-41050D03*
X99850Y-41050D03*
X98850Y-52050D03*
X99850Y-52050D03*
X98850Y-63050D03*
X99850Y-63050D03*
X94750Y-63050D03*
X95750Y-63050D03*
X94750Y-52050D03*
X95750Y-52050D03*
X94750Y-41050D03*
X95750Y-41050D03*
G54D12*
X93750Y-30050D03*
X94750Y-30050D03*
X95750Y-30050D03*
X96750Y-30050D03*
G54D13*
X95250Y-57550D03*
X95250Y-46550D03*
X95250Y-35550D03*
X78850Y-35550D03*
X78850Y-46550D03*
X78850Y-57550D03*
G54D12*
X80350Y-30050D03*
X79350Y-30050D03*
X78350Y-30050D03*
X77350Y-30050D03*
G54D11*
X78350Y-41050D03*
X79350Y-41050D03*
X78350Y-52050D03*
X79350Y-52050D03*
X78350Y-63050D03*
X79350Y-63050D03*
X82450Y-63050D03*
X83450Y-63050D03*
X82450Y-52050D03*
X83450Y-52050D03*
X82450Y-41050D03*
X83450Y-41050D03*
G54D12*
X81450Y-30050D03*
X82450Y-30050D03*
X83450Y-30050D03*
X84450Y-30050D03*
G54D13*
X82950Y-57550D03*
X82950Y-46550D03*
X82950Y-35550D03*
X74750Y-35550D03*
X74750Y-46550D03*
X74750Y-57550D03*
G54D12*
X76250Y-30050D03*
X75250Y-30050D03*
X74250Y-30050D03*
X73250Y-30050D03*
G54D11*
X74250Y-41050D03*
X75250Y-41050D03*
X74250Y-52050D03*
X75250Y-52050D03*
X74250Y-63050D03*
X75250Y-63050D03*
G54D13*
X111650Y-35550D03*
X111650Y-46550D03*
X111650Y-57550D03*
G54D12*
X113150Y-30050D03*
X112150Y-30050D03*
X111150Y-30050D03*
X110150Y-30050D03*
G54D11*
X111150Y-41050D03*
X112150Y-41050D03*
X111150Y-52050D03*
X112150Y-52050D03*
X111150Y-63050D03*
X112150Y-63050D03*
X70150Y-63050D03*
X71150Y-63050D03*
X70150Y-52050D03*
X71150Y-52050D03*
X70150Y-41050D03*
X71150Y-41050D03*
G54D12*
X69150Y-30050D03*
X70150Y-30050D03*
X71150Y-30050D03*
X72150Y-30050D03*
G54D13*
X70650Y-57550D03*
X70650Y-46550D03*
X70650Y-35550D03*
G54D14*
X107050Y-30050D02*
X107050Y-30800D01*
X106300Y-36050D02*
X106300Y-35050D01*
X106300Y-35050D02*
X107050Y-34300D01*
X107050Y-31050D02*
X107300Y-31300D01*
X107300Y-31300D02*
X107300Y-34050D01*
X107300Y-34050D02*
X107050Y-34300D01*
X107050Y-30800D02*
X107050Y-31050D01*
X107300Y-37050D02*
X107300Y-39800D01*
X106300Y-36050D02*
X107300Y-37050D01*
X108050Y-40550D02*
X108050Y-41050D01*
X107300Y-39800D02*
X108050Y-40550D01*
X102950Y-30050D02*
X102950Y-30800D01*
X102200Y-36050D02*
X102200Y-35050D01*
X102200Y-35050D02*
X102950Y-34300D01*
X102950Y-31050D02*
X103200Y-31300D01*
X103200Y-31300D02*
X103200Y-34050D01*
X103200Y-34050D02*
X102950Y-34300D01*
X102950Y-30800D02*
X102950Y-31050D01*
X103200Y-37050D02*
X103200Y-39800D01*
X102200Y-36050D02*
X103200Y-37050D01*
X103950Y-40550D02*
X103950Y-41050D01*
X103200Y-39800D02*
X103950Y-40550D01*
X86800Y-39800D02*
X87550Y-40550D01*
X87550Y-40550D02*
X87550Y-41050D01*
X85800Y-36050D02*
X86800Y-37050D01*
X86800Y-37050D02*
X86800Y-39800D01*
X86550Y-30800D02*
X86550Y-31050D01*
X86800Y-34050D02*
X86550Y-34300D01*
X86800Y-31300D02*
X86800Y-34050D01*
X86550Y-31050D02*
X86800Y-31300D01*
X85800Y-35050D02*
X86550Y-34300D01*
X85800Y-36050D02*
X85800Y-35050D01*
X86550Y-30050D02*
X86550Y-30800D01*
X90650Y-30050D02*
X90650Y-30800D01*
X89900Y-36050D02*
X89900Y-35050D01*
X89900Y-35050D02*
X90650Y-34300D01*
X90650Y-31050D02*
X90900Y-31300D01*
X90900Y-31300D02*
X90900Y-34050D01*
X90900Y-34050D02*
X90650Y-34300D01*
X90650Y-30800D02*
X90650Y-31050D01*
X90900Y-37050D02*
X90900Y-39800D01*
X89900Y-36050D02*
X90900Y-37050D01*
X91650Y-40550D02*
X91650Y-41050D01*
X90900Y-39800D02*
X91650Y-40550D01*
X99100Y-39800D02*
X99850Y-40550D01*
X99850Y-40550D02*
X99850Y-41050D01*
X98100Y-36050D02*
X99100Y-37050D01*
X99100Y-37050D02*
X99100Y-39800D01*
X98850Y-30800D02*
X98850Y-31050D01*
X99100Y-34050D02*
X98850Y-34300D01*
X99100Y-31300D02*
X99100Y-34050D01*
X98850Y-31050D02*
X99100Y-31300D01*
X98100Y-35050D02*
X98850Y-34300D01*
X98100Y-36050D02*
X98100Y-35050D01*
X98850Y-30050D02*
X98850Y-30800D01*
X94750Y-30050D02*
X94750Y-30800D01*
X94000Y-36050D02*
X94000Y-35050D01*
X94000Y-35050D02*
X94750Y-34300D01*
X94750Y-31050D02*
X95000Y-31300D01*
X95000Y-31300D02*
X95000Y-34050D01*
X95000Y-34050D02*
X94750Y-34300D01*
X94750Y-30800D02*
X94750Y-31050D01*
X95000Y-37050D02*
X95000Y-39800D01*
X94000Y-36050D02*
X95000Y-37050D01*
X95750Y-40550D02*
X95750Y-41050D01*
X95000Y-39800D02*
X95750Y-40550D01*
X78600Y-39800D02*
X79350Y-40550D01*
X79350Y-40550D02*
X79350Y-41050D01*
X77600Y-36050D02*
X78600Y-37050D01*
X78600Y-37050D02*
X78600Y-39800D01*
X78350Y-30800D02*
X78350Y-31050D01*
X78600Y-34050D02*
X78350Y-34300D01*
X78600Y-31300D02*
X78600Y-34050D01*
X78350Y-31050D02*
X78600Y-31300D01*
X77600Y-35050D02*
X78350Y-34300D01*
X77600Y-36050D02*
X77600Y-35050D01*
X78350Y-30050D02*
X78350Y-30800D01*
X82450Y-30050D02*
X82450Y-30800D01*
X81700Y-36050D02*
X81700Y-35050D01*
X81700Y-35050D02*
X82450Y-34300D01*
X82450Y-31050D02*
X82700Y-31300D01*
X82700Y-31300D02*
X82700Y-34050D01*
X82700Y-34050D02*
X82450Y-34300D01*
X82450Y-30800D02*
X82450Y-31050D01*
X82700Y-37050D02*
X82700Y-39800D01*
X81700Y-36050D02*
X82700Y-37050D01*
X83450Y-40550D02*
X83450Y-41050D01*
X82700Y-39800D02*
X83450Y-40550D01*
X74500Y-39800D02*
X75250Y-40550D01*
X75250Y-40550D02*
X75250Y-41050D01*
X73500Y-36050D02*
X74500Y-37050D01*
X74500Y-37050D02*
X74500Y-39800D01*
X74250Y-30800D02*
X74250Y-31050D01*
X74500Y-34050D02*
X74250Y-34300D01*
X74500Y-31300D02*
X74500Y-34050D01*
X74250Y-31050D02*
X74500Y-31300D01*
X73500Y-35050D02*
X74250Y-34300D01*
X73500Y-36050D02*
X73500Y-35050D01*
X74250Y-30050D02*
X74250Y-30800D01*
X111400Y-39800D02*
X112150Y-40550D01*
X112150Y-40550D02*
X112150Y-41050D01*
X110400Y-36050D02*
X111400Y-37050D01*
X111400Y-37050D02*
X111400Y-39800D01*
X111150Y-30800D02*
X111150Y-31050D01*
X111400Y-34050D02*
X111150Y-34300D01*
X111400Y-31300D02*
X111400Y-34050D01*
X111150Y-31050D02*
X111400Y-31300D01*
X110400Y-35050D02*
X111150Y-34300D01*
X110400Y-36050D02*
X110400Y-35050D01*
X111150Y-30050D02*
X111150Y-30800D01*
X70150Y-30050D02*
X70150Y-30800D01*
X69400Y-36050D02*
X69400Y-35050D01*
X69400Y-35050D02*
X70150Y-34300D01*
X70150Y-31050D02*
X70400Y-31300D01*
X70400Y-31300D02*
X70400Y-34050D01*
X70400Y-34050D02*
X70150Y-34300D01*
X70150Y-30800D02*
X70150Y-31050D01*
X70400Y-37050D02*
X70400Y-39800D01*
X69400Y-36050D02*
X70400Y-37050D01*
X71150Y-40550D02*
X71150Y-41050D01*
X70400Y-39800D02*
X71150Y-40550D01*
X105800Y-36300D02*
X106050Y-36550D01*
X105800Y-35050D02*
X105800Y-34800D01*
X105800Y-34800D02*
X106050Y-34550D01*
X105800Y-36050D02*
X105800Y-35050D01*
X105800Y-36050D02*
X105800Y-36300D01*
X106050Y-30800D02*
X106800Y-31550D01*
X106800Y-31550D02*
X106800Y-33800D01*
X106800Y-33800D02*
X106050Y-34550D01*
X106050Y-30050D02*
X106050Y-30800D01*
X106800Y-37300D02*
X106800Y-40800D01*
X106800Y-40800D02*
X107050Y-41050D01*
X106050Y-36550D02*
X106800Y-37300D01*
X107050Y-41300D02*
X107300Y-41550D01*
X107300Y-41550D02*
X107300Y-45050D01*
X107300Y-45050D02*
X106300Y-46050D01*
X106300Y-46050D02*
X106300Y-47050D01*
X106300Y-47050D02*
X107300Y-48050D01*
X107300Y-48050D02*
X107300Y-51800D01*
X107300Y-51800D02*
X107050Y-52050D01*
X107050Y-41050D02*
X107050Y-41300D01*
X107300Y-52300D02*
X107300Y-56050D01*
X107300Y-56050D02*
X106300Y-57050D01*
X106300Y-57050D02*
X106300Y-58050D01*
X106300Y-58050D02*
X107300Y-59050D01*
X107300Y-59050D02*
X107300Y-62800D01*
X107300Y-62800D02*
X107050Y-63050D01*
X107050Y-52050D02*
X107300Y-52300D01*
X101700Y-36300D02*
X101950Y-36550D01*
X101700Y-35050D02*
X101700Y-34800D01*
X101700Y-34800D02*
X101950Y-34550D01*
X101700Y-36050D02*
X101700Y-35050D01*
X101700Y-36050D02*
X101700Y-36300D01*
X101950Y-30800D02*
X102700Y-31550D01*
X102700Y-31550D02*
X102700Y-33800D01*
X102700Y-33800D02*
X101950Y-34550D01*
X101950Y-30050D02*
X101950Y-30800D01*
X102700Y-37300D02*
X102700Y-40800D01*
X102700Y-40800D02*
X102950Y-41050D01*
X101950Y-36550D02*
X102700Y-37300D01*
X102950Y-41300D02*
X103200Y-41550D01*
X103200Y-41550D02*
X103200Y-45050D01*
X103200Y-45050D02*
X102200Y-46050D01*
X102200Y-46050D02*
X102200Y-47050D01*
X102200Y-47050D02*
X103200Y-48050D01*
X103200Y-48050D02*
X103200Y-51800D01*
X103200Y-51800D02*
X102950Y-52050D01*
X102950Y-41050D02*
X102950Y-41300D01*
X103200Y-52300D02*
X103200Y-56050D01*
X103200Y-56050D02*
X102200Y-57050D01*
X102200Y-57050D02*
X102200Y-58050D01*
X102200Y-58050D02*
X103200Y-59050D01*
X103200Y-59050D02*
X103200Y-62800D01*
X103200Y-62800D02*
X102950Y-63050D01*
X102950Y-52050D02*
X103200Y-52300D01*
X86550Y-52050D02*
X86800Y-52300D01*
X86800Y-62800D02*
X86550Y-63050D01*
X86800Y-59050D02*
X86800Y-62800D01*
X85800Y-58050D02*
X86800Y-59050D01*
X85800Y-57050D02*
X85800Y-58050D01*
X86800Y-56050D02*
X85800Y-57050D01*
X86800Y-52300D02*
X86800Y-56050D01*
X86550Y-41050D02*
X86550Y-41300D01*
X86800Y-51800D02*
X86550Y-52050D01*
X86800Y-48050D02*
X86800Y-51800D01*
X85800Y-47050D02*
X86800Y-48050D01*
X85800Y-46050D02*
X85800Y-47050D01*
X86800Y-45050D02*
X85800Y-46050D01*
X86800Y-41550D02*
X86800Y-45050D01*
X86550Y-41300D02*
X86800Y-41550D01*
X85550Y-36550D02*
X86300Y-37300D01*
X86300Y-40800D02*
X86550Y-41050D01*
X86300Y-37300D02*
X86300Y-40800D01*
X85550Y-30050D02*
X85550Y-30800D01*
X86300Y-33800D02*
X85550Y-34550D01*
X86300Y-31550D02*
X86300Y-33800D01*
X85550Y-30800D02*
X86300Y-31550D01*
X85300Y-36050D02*
X85300Y-36300D01*
X85300Y-36050D02*
X85300Y-35050D01*
X85300Y-34800D02*
X85550Y-34550D01*
X85300Y-35050D02*
X85300Y-34800D01*
X85300Y-36300D02*
X85550Y-36550D01*
X89400Y-36300D02*
X89650Y-36550D01*
X89400Y-35050D02*
X89400Y-34800D01*
X89400Y-34800D02*
X89650Y-34550D01*
X89400Y-36050D02*
X89400Y-35050D01*
X89400Y-36050D02*
X89400Y-36300D01*
X89650Y-30800D02*
X90400Y-31550D01*
X90400Y-31550D02*
X90400Y-33800D01*
X90400Y-33800D02*
X89650Y-34550D01*
X89650Y-30050D02*
X89650Y-30800D01*
X90400Y-37300D02*
X90400Y-40800D01*
X90400Y-40800D02*
X90650Y-41050D01*
X89650Y-36550D02*
X90400Y-37300D01*
X90650Y-41300D02*
X90900Y-41550D01*
X90900Y-41550D02*
X90900Y-45050D01*
X90900Y-45050D02*
X89900Y-46050D01*
X89900Y-46050D02*
X89900Y-47050D01*
X89900Y-47050D02*
X90900Y-48050D01*
X90900Y-48050D02*
X90900Y-51800D01*
X90900Y-51800D02*
X90650Y-52050D01*
X90650Y-41050D02*
X90650Y-41300D01*
X90900Y-52300D02*
X90900Y-56050D01*
X90900Y-56050D02*
X89900Y-57050D01*
X89900Y-57050D02*
X89900Y-58050D01*
X89900Y-58050D02*
X90900Y-59050D01*
X90900Y-59050D02*
X90900Y-62800D01*
X90900Y-62800D02*
X90650Y-63050D01*
X90650Y-52050D02*
X90900Y-52300D01*
X98850Y-52050D02*
X99100Y-52300D01*
X99100Y-62800D02*
X98850Y-63050D01*
X99100Y-59050D02*
X99100Y-62800D01*
X98100Y-58050D02*
X99100Y-59050D01*
X98100Y-57050D02*
X98100Y-58050D01*
X99100Y-56050D02*
X98100Y-57050D01*
X99100Y-52300D02*
X99100Y-56050D01*
X98850Y-41050D02*
X98850Y-41300D01*
X99100Y-51800D02*
X98850Y-52050D01*
X99100Y-48050D02*
X99100Y-51800D01*
X98100Y-47050D02*
X99100Y-48050D01*
X98100Y-46050D02*
X98100Y-47050D01*
X99100Y-45050D02*
X98100Y-46050D01*
X99100Y-41550D02*
X99100Y-45050D01*
X98850Y-41300D02*
X99100Y-41550D01*
X97850Y-36550D02*
X98600Y-37300D01*
X98600Y-40800D02*
X98850Y-41050D01*
X98600Y-37300D02*
X98600Y-40800D01*
X97850Y-30050D02*
X97850Y-30800D01*
X98600Y-33800D02*
X97850Y-34550D01*
X98600Y-31550D02*
X98600Y-33800D01*
X97850Y-30800D02*
X98600Y-31550D01*
X97600Y-36050D02*
X97600Y-36300D01*
X97600Y-36050D02*
X97600Y-35050D01*
X97600Y-34800D02*
X97850Y-34550D01*
X97600Y-35050D02*
X97600Y-34800D01*
X97600Y-36300D02*
X97850Y-36550D01*
X93500Y-36300D02*
X93750Y-36550D01*
X93500Y-35050D02*
X93500Y-34800D01*
X93500Y-34800D02*
X93750Y-34550D01*
X93500Y-36050D02*
X93500Y-35050D01*
X93500Y-36050D02*
X93500Y-36300D01*
X93750Y-30800D02*
X94500Y-31550D01*
X94500Y-31550D02*
X94500Y-33800D01*
X94500Y-33800D02*
X93750Y-34550D01*
X93750Y-30050D02*
X93750Y-30800D01*
X94500Y-37300D02*
X94500Y-40800D01*
X94500Y-40800D02*
X94750Y-41050D01*
X93750Y-36550D02*
X94500Y-37300D01*
X94750Y-41300D02*
X95000Y-41550D01*
X95000Y-41550D02*
X95000Y-45050D01*
X95000Y-45050D02*
X94000Y-46050D01*
X94000Y-46050D02*
X94000Y-47050D01*
X94000Y-47050D02*
X95000Y-48050D01*
X95000Y-48050D02*
X95000Y-51800D01*
X95000Y-51800D02*
X94750Y-52050D01*
X94750Y-41050D02*
X94750Y-41300D01*
X95000Y-52300D02*
X95000Y-56050D01*
X95000Y-56050D02*
X94000Y-57050D01*
X94000Y-57050D02*
X94000Y-58050D01*
X94000Y-58050D02*
X95000Y-59050D01*
X95000Y-59050D02*
X95000Y-62800D01*
X95000Y-62800D02*
X94750Y-63050D01*
X94750Y-52050D02*
X95000Y-52300D01*
X78350Y-52050D02*
X78600Y-52300D01*
X78600Y-62800D02*
X78350Y-63050D01*
X78600Y-59050D02*
X78600Y-62800D01*
X77600Y-58050D02*
X78600Y-59050D01*
X77600Y-57050D02*
X77600Y-58050D01*
X78600Y-56050D02*
X77600Y-57050D01*
X78600Y-52300D02*
X78600Y-56050D01*
X78350Y-41050D02*
X78350Y-41300D01*
X78600Y-51800D02*
X78350Y-52050D01*
X78600Y-48050D02*
X78600Y-51800D01*
X77600Y-47050D02*
X78600Y-48050D01*
X77600Y-46050D02*
X77600Y-47050D01*
X78600Y-45050D02*
X77600Y-46050D01*
X78600Y-41550D02*
X78600Y-45050D01*
X78350Y-41300D02*
X78600Y-41550D01*
X77350Y-36550D02*
X78100Y-37300D01*
X78100Y-40800D02*
X78350Y-41050D01*
X78100Y-37300D02*
X78100Y-40800D01*
X77350Y-30050D02*
X77350Y-30800D01*
X78100Y-33800D02*
X77350Y-34550D01*
X78100Y-31550D02*
X78100Y-33800D01*
X77350Y-30800D02*
X78100Y-31550D01*
X77100Y-36050D02*
X77100Y-36300D01*
X77100Y-36050D02*
X77100Y-35050D01*
X77100Y-34800D02*
X77350Y-34550D01*
X77100Y-35050D02*
X77100Y-34800D01*
X77100Y-36300D02*
X77350Y-36550D01*
X81200Y-36300D02*
X81450Y-36550D01*
X81200Y-35050D02*
X81200Y-34800D01*
X81200Y-34800D02*
X81450Y-34550D01*
X81200Y-36050D02*
X81200Y-35050D01*
X81200Y-36050D02*
X81200Y-36300D01*
X81450Y-30800D02*
X82200Y-31550D01*
X82200Y-31550D02*
X82200Y-33800D01*
X82200Y-33800D02*
X81450Y-34550D01*
X81450Y-30050D02*
X81450Y-30800D01*
X82200Y-37300D02*
X82200Y-40800D01*
X82200Y-40800D02*
X82450Y-41050D01*
X81450Y-36550D02*
X82200Y-37300D01*
X82450Y-41300D02*
X82700Y-41550D01*
X82700Y-41550D02*
X82700Y-45050D01*
X82700Y-45050D02*
X81700Y-46050D01*
X81700Y-46050D02*
X81700Y-47050D01*
X81700Y-47050D02*
X82700Y-48050D01*
X82700Y-48050D02*
X82700Y-51800D01*
X82700Y-51800D02*
X82450Y-52050D01*
X82450Y-41050D02*
X82450Y-41300D01*
X82700Y-52300D02*
X82700Y-56050D01*
X82700Y-56050D02*
X81700Y-57050D01*
X81700Y-57050D02*
X81700Y-58050D01*
X81700Y-58050D02*
X82700Y-59050D01*
X82700Y-59050D02*
X82700Y-62800D01*
X82700Y-62800D02*
X82450Y-63050D01*
X82450Y-52050D02*
X82700Y-52300D01*
X74250Y-52050D02*
X74500Y-52300D01*
X74500Y-62800D02*
X74250Y-63050D01*
X74500Y-59050D02*
X74500Y-62800D01*
X73500Y-58050D02*
X74500Y-59050D01*
X73500Y-57050D02*
X73500Y-58050D01*
X74500Y-56050D02*
X73500Y-57050D01*
X74500Y-52300D02*
X74500Y-56050D01*
X74250Y-41050D02*
X74250Y-41300D01*
X74500Y-51800D02*
X74250Y-52050D01*
X74500Y-48050D02*
X74500Y-51800D01*
X73500Y-47050D02*
X74500Y-48050D01*
X73500Y-46050D02*
X73500Y-47050D01*
X74500Y-45050D02*
X73500Y-46050D01*
X74500Y-41550D02*
X74500Y-45050D01*
X74250Y-41300D02*
X74500Y-41550D01*
X73250Y-36550D02*
X74000Y-37300D01*
X74000Y-40800D02*
X74250Y-41050D01*
X74000Y-37300D02*
X74000Y-40800D01*
X73250Y-30050D02*
X73250Y-30800D01*
X74000Y-33800D02*
X73250Y-34550D01*
X74000Y-31550D02*
X74000Y-33800D01*
X73250Y-30800D02*
X74000Y-31550D01*
X73000Y-36050D02*
X73000Y-36300D01*
X73000Y-36050D02*
X73000Y-35050D01*
X73000Y-34800D02*
X73250Y-34550D01*
X73000Y-35050D02*
X73000Y-34800D01*
X73000Y-36300D02*
X73250Y-36550D01*
X111150Y-52050D02*
X111400Y-52300D01*
X111400Y-62800D02*
X111150Y-63050D01*
X111400Y-59050D02*
X111400Y-62800D01*
X110400Y-58050D02*
X111400Y-59050D01*
X110400Y-57050D02*
X110400Y-58050D01*
X111400Y-56050D02*
X110400Y-57050D01*
X111400Y-52300D02*
X111400Y-56050D01*
X111150Y-41050D02*
X111150Y-41300D01*
X111400Y-51800D02*
X111150Y-52050D01*
X111400Y-48050D02*
X111400Y-51800D01*
X110400Y-47050D02*
X111400Y-48050D01*
X110400Y-46050D02*
X110400Y-47050D01*
X111400Y-45050D02*
X110400Y-46050D01*
X111400Y-41550D02*
X111400Y-45050D01*
X111150Y-41300D02*
X111400Y-41550D01*
X110150Y-36550D02*
X110900Y-37300D01*
X110900Y-40800D02*
X111150Y-41050D01*
X110900Y-37300D02*
X110900Y-40800D01*
X110150Y-30050D02*
X110150Y-30800D01*
X110900Y-33800D02*
X110150Y-34550D01*
X110900Y-31550D02*
X110900Y-33800D01*
X110150Y-30800D02*
X110900Y-31550D01*
X109900Y-36050D02*
X109900Y-36300D01*
X109900Y-36050D02*
X109900Y-35050D01*
X109900Y-34800D02*
X110150Y-34550D01*
X109900Y-35050D02*
X109900Y-34800D01*
X109900Y-36300D02*
X110150Y-36550D01*
X68900Y-36300D02*
X69150Y-36550D01*
X68900Y-35050D02*
X68900Y-34800D01*
X68900Y-34800D02*
X69150Y-34550D01*
X68900Y-36050D02*
X68900Y-35050D01*
X68900Y-36050D02*
X68900Y-36300D01*
X69150Y-30800D02*
X69900Y-31550D01*
X69900Y-31550D02*
X69900Y-33800D01*
X69900Y-33800D02*
X69150Y-34550D01*
X69150Y-30050D02*
X69150Y-30800D01*
X69900Y-37300D02*
X69900Y-40800D01*
X69900Y-40800D02*
X70150Y-41050D01*
X69150Y-36550D02*
X69900Y-37300D01*
X70150Y-41300D02*
X70400Y-41550D01*
X70400Y-41550D02*
X70400Y-45050D01*
X70400Y-45050D02*
X69400Y-46050D01*
X69400Y-46050D02*
X69400Y-47050D01*
X69400Y-47050D02*
X70400Y-48050D01*
X70400Y-48050D02*
X70400Y-51800D01*
X70400Y-51800D02*
X70150Y-52050D01*
X70150Y-41050D02*
X70150Y-41300D01*
X70400Y-52300D02*
X70400Y-56050D01*
X70400Y-56050D02*
X69400Y-57050D01*
X69400Y-57050D02*
X69400Y-58050D01*
X69400Y-58050D02*
X70400Y-59050D01*
X70400Y-59050D02*
X70400Y-62800D01*
X70400Y-62800D02*
X70150Y-63050D01*
X70150Y-52050D02*
X70400Y-52300D01*
X108050Y-31050D02*
X107800Y-31300D01*
X107800Y-31300D02*
X107800Y-34050D01*
X107800Y-34050D02*
X108050Y-34300D01*
X108050Y-30050D02*
X108050Y-31050D01*
X108050Y-34300D02*
X108800Y-35050D01*
X108800Y-35050D02*
X108800Y-36050D01*
X108800Y-46050D02*
X108800Y-47050D01*
X108050Y-45300D02*
X108800Y-46050D01*
X108800Y-40550D02*
X108800Y-41550D01*
X108050Y-39800D02*
X108800Y-40550D01*
X107800Y-37050D02*
X107800Y-39550D01*
X107800Y-39550D02*
X108050Y-39800D01*
X108800Y-36050D02*
X107800Y-37050D01*
X107800Y-42550D02*
X107800Y-45050D01*
X107800Y-45050D02*
X108050Y-45300D01*
X108800Y-41550D02*
X107800Y-42550D01*
X107800Y-48050D02*
X107800Y-51800D01*
X107800Y-51800D02*
X108050Y-52050D01*
X108800Y-47050D02*
X107800Y-48050D01*
X103950Y-31050D02*
X103700Y-31300D01*
X103700Y-31300D02*
X103700Y-34050D01*
X103700Y-34050D02*
X103950Y-34300D01*
X103950Y-30050D02*
X103950Y-31050D01*
X103950Y-34300D02*
X104700Y-35050D01*
X104700Y-35050D02*
X104700Y-36050D01*
X104700Y-46050D02*
X104700Y-47050D01*
X103950Y-45300D02*
X104700Y-46050D01*
X104700Y-40550D02*
X104700Y-41550D01*
X103950Y-39800D02*
X104700Y-40550D01*
X103700Y-37050D02*
X103700Y-39550D01*
X103700Y-39550D02*
X103950Y-39800D01*
X104700Y-36050D02*
X103700Y-37050D01*
X103700Y-42550D02*
X103700Y-45050D01*
X103700Y-45050D02*
X103950Y-45300D01*
X104700Y-41550D02*
X103700Y-42550D01*
X103700Y-48050D02*
X103700Y-51800D01*
X103700Y-51800D02*
X103950Y-52050D01*
X104700Y-47050D02*
X103700Y-48050D01*
X88300Y-47050D02*
X87300Y-48050D01*
X87300Y-51800D02*
X87550Y-52050D01*
X87300Y-48050D02*
X87300Y-51800D01*
X88300Y-41550D02*
X87300Y-42550D01*
X87300Y-45050D02*
X87550Y-45300D01*
X87300Y-42550D02*
X87300Y-45050D01*
X88300Y-36050D02*
X87300Y-37050D01*
X87300Y-39550D02*
X87550Y-39800D01*
X87300Y-37050D02*
X87300Y-39550D01*
X87550Y-39800D02*
X88300Y-40550D01*
X88300Y-40550D02*
X88300Y-41550D01*
X87550Y-45300D02*
X88300Y-46050D01*
X88300Y-46050D02*
X88300Y-47050D01*
X88300Y-35050D02*
X88300Y-36050D01*
X87550Y-34300D02*
X88300Y-35050D01*
X87550Y-30050D02*
X87550Y-31050D01*
X87300Y-34050D02*
X87550Y-34300D01*
X87300Y-31300D02*
X87300Y-34050D01*
X87550Y-31050D02*
X87300Y-31300D01*
X91650Y-31050D02*
X91400Y-31300D01*
X91400Y-31300D02*
X91400Y-34050D01*
X91400Y-34050D02*
X91650Y-34300D01*
X91650Y-30050D02*
X91650Y-31050D01*
X91650Y-34300D02*
X92400Y-35050D01*
X92400Y-35050D02*
X92400Y-36050D01*
X92400Y-46050D02*
X92400Y-47050D01*
X91650Y-45300D02*
X92400Y-46050D01*
X92400Y-40550D02*
X92400Y-41550D01*
X91650Y-39800D02*
X92400Y-40550D01*
X91400Y-37050D02*
X91400Y-39550D01*
X91400Y-39550D02*
X91650Y-39800D01*
X92400Y-36050D02*
X91400Y-37050D01*
X91400Y-42550D02*
X91400Y-45050D01*
X91400Y-45050D02*
X91650Y-45300D01*
X92400Y-41550D02*
X91400Y-42550D01*
X91400Y-48050D02*
X91400Y-51800D01*
X91400Y-51800D02*
X91650Y-52050D01*
X92400Y-47050D02*
X91400Y-48050D01*
X100600Y-47050D02*
X99600Y-48050D01*
X99600Y-51800D02*
X99850Y-52050D01*
X99600Y-48050D02*
X99600Y-51800D01*
X100600Y-41550D02*
X99600Y-42550D01*
X99600Y-45050D02*
X99850Y-45300D01*
X99600Y-42550D02*
X99600Y-45050D01*
X100600Y-36050D02*
X99600Y-37050D01*
X99600Y-39550D02*
X99850Y-39800D01*
X99600Y-37050D02*
X99600Y-39550D01*
X99850Y-39800D02*
X100600Y-40550D01*
X100600Y-40550D02*
X100600Y-41550D01*
X99850Y-45300D02*
X100600Y-46050D01*
X100600Y-46050D02*
X100600Y-47050D01*
X100600Y-35050D02*
X100600Y-36050D01*
X99850Y-34300D02*
X100600Y-35050D01*
X99850Y-30050D02*
X99850Y-31050D01*
X99600Y-34050D02*
X99850Y-34300D01*
X99600Y-31300D02*
X99600Y-34050D01*
X99850Y-31050D02*
X99600Y-31300D01*
X95750Y-31050D02*
X95500Y-31300D01*
X95500Y-31300D02*
X95500Y-34050D01*
X95500Y-34050D02*
X95750Y-34300D01*
X95750Y-30050D02*
X95750Y-31050D01*
X95750Y-34300D02*
X96500Y-35050D01*
X96500Y-35050D02*
X96500Y-36050D01*
X96500Y-46050D02*
X96500Y-47050D01*
X95750Y-45300D02*
X96500Y-46050D01*
X96500Y-40550D02*
X96500Y-41550D01*
X95750Y-39800D02*
X96500Y-40550D01*
X95500Y-37050D02*
X95500Y-39550D01*
X95500Y-39550D02*
X95750Y-39800D01*
X96500Y-36050D02*
X95500Y-37050D01*
X95500Y-42550D02*
X95500Y-45050D01*
X95500Y-45050D02*
X95750Y-45300D01*
X96500Y-41550D02*
X95500Y-42550D01*
X95500Y-48050D02*
X95500Y-51800D01*
X95500Y-51800D02*
X95750Y-52050D01*
X96500Y-47050D02*
X95500Y-48050D01*
X80100Y-47050D02*
X79100Y-48050D01*
X79100Y-51800D02*
X79350Y-52050D01*
X79100Y-48050D02*
X79100Y-51800D01*
X80100Y-41550D02*
X79100Y-42550D01*
X79100Y-45050D02*
X79350Y-45300D01*
X79100Y-42550D02*
X79100Y-45050D01*
X80100Y-36050D02*
X79100Y-37050D01*
X79100Y-39550D02*
X79350Y-39800D01*
X79100Y-37050D02*
X79100Y-39550D01*
X79350Y-39800D02*
X80100Y-40550D01*
X80100Y-40550D02*
X80100Y-41550D01*
X79350Y-45300D02*
X80100Y-46050D01*
X80100Y-46050D02*
X80100Y-47050D01*
X80100Y-35050D02*
X80100Y-36050D01*
X79350Y-34300D02*
X80100Y-35050D01*
X79350Y-30050D02*
X79350Y-31050D01*
X79100Y-34050D02*
X79350Y-34300D01*
X79100Y-31300D02*
X79100Y-34050D01*
X79350Y-31050D02*
X79100Y-31300D01*
X83450Y-31050D02*
X83200Y-31300D01*
X83200Y-31300D02*
X83200Y-34050D01*
X83200Y-34050D02*
X83450Y-34300D01*
X83450Y-30050D02*
X83450Y-31050D01*
X83450Y-34300D02*
X84200Y-35050D01*
X84200Y-35050D02*
X84200Y-36050D01*
X84200Y-46050D02*
X84200Y-47050D01*
X83450Y-45300D02*
X84200Y-46050D01*
X84200Y-40550D02*
X84200Y-41550D01*
X83450Y-39800D02*
X84200Y-40550D01*
X83200Y-37050D02*
X83200Y-39550D01*
X83200Y-39550D02*
X83450Y-39800D01*
X84200Y-36050D02*
X83200Y-37050D01*
X83200Y-42550D02*
X83200Y-45050D01*
X83200Y-45050D02*
X83450Y-45300D01*
X84200Y-41550D02*
X83200Y-42550D01*
X83200Y-48050D02*
X83200Y-51800D01*
X83200Y-51800D02*
X83450Y-52050D01*
X84200Y-47050D02*
X83200Y-48050D01*
X76000Y-47050D02*
X75000Y-48050D01*
X75000Y-51800D02*
X75250Y-52050D01*
X75000Y-48050D02*
X75000Y-51800D01*
X76000Y-41550D02*
X75000Y-42550D01*
X75000Y-45050D02*
X75250Y-45300D01*
X75000Y-42550D02*
X75000Y-45050D01*
X76000Y-36050D02*
X75000Y-37050D01*
X75000Y-39550D02*
X75250Y-39800D01*
X75000Y-37050D02*
X75000Y-39550D01*
X75250Y-39800D02*
X76000Y-40550D01*
X76000Y-40550D02*
X76000Y-41550D01*
X75250Y-45300D02*
X76000Y-46050D01*
X76000Y-46050D02*
X76000Y-47050D01*
X76000Y-35050D02*
X76000Y-36050D01*
X75250Y-34300D02*
X76000Y-35050D01*
X75250Y-30050D02*
X75250Y-31050D01*
X75000Y-34050D02*
X75250Y-34300D01*
X75000Y-31300D02*
X75000Y-34050D01*
X75250Y-31050D02*
X75000Y-31300D01*
X112900Y-47050D02*
X111900Y-48050D01*
X111900Y-51800D02*
X112150Y-52050D01*
X111900Y-48050D02*
X111900Y-51800D01*
X112900Y-41550D02*
X111900Y-42550D01*
X111900Y-45050D02*
X112150Y-45300D01*
X111900Y-42550D02*
X111900Y-45050D01*
X112900Y-36050D02*
X111900Y-37050D01*
X111900Y-39550D02*
X112150Y-39800D01*
X111900Y-37050D02*
X111900Y-39550D01*
X112150Y-39800D02*
X112900Y-40550D01*
X112900Y-40550D02*
X112900Y-41550D01*
X112150Y-45300D02*
X112900Y-46050D01*
X112900Y-46050D02*
X112900Y-47050D01*
X112900Y-35050D02*
X112900Y-36050D01*
X112150Y-34300D02*
X112900Y-35050D01*
X112150Y-30050D02*
X112150Y-31050D01*
X111900Y-34050D02*
X112150Y-34300D01*
X111900Y-31300D02*
X111900Y-34050D01*
X112150Y-31050D02*
X111900Y-31300D01*
X71150Y-31050D02*
X70900Y-31300D01*
X70900Y-31300D02*
X70900Y-34050D01*
X70900Y-34050D02*
X71150Y-34300D01*
X71150Y-30050D02*
X71150Y-31050D01*
X71150Y-34300D02*
X71900Y-35050D01*
X71900Y-35050D02*
X71900Y-36050D01*
X71900Y-46050D02*
X71900Y-47050D01*
X71150Y-45300D02*
X71900Y-46050D01*
X71900Y-40550D02*
X71900Y-41550D01*
X71150Y-39800D02*
X71900Y-40550D01*
X70900Y-37050D02*
X70900Y-39550D01*
X70900Y-39550D02*
X71150Y-39800D01*
X71900Y-36050D02*
X70900Y-37050D01*
X70900Y-42550D02*
X70900Y-45050D01*
X70900Y-45050D02*
X71150Y-45300D01*
X71900Y-41550D02*
X70900Y-42550D01*
X70900Y-48050D02*
X70900Y-51800D01*
X70900Y-51800D02*
X71150Y-52050D01*
X71900Y-47050D02*
X70900Y-48050D01*
X109050Y-34550D02*
X109300Y-34800D01*
X109300Y-34800D02*
X109300Y-36300D01*
X109300Y-47300D02*
X109050Y-47550D01*
X109300Y-45800D02*
X109300Y-47300D01*
X109050Y-45550D02*
X109300Y-45800D01*
X109300Y-41800D02*
X109050Y-42050D01*
X109300Y-40300D02*
X109300Y-41800D01*
X109050Y-40050D02*
X109300Y-40300D01*
X109050Y-30800D02*
X108300Y-31550D01*
X108300Y-31550D02*
X108300Y-33800D01*
X108300Y-33800D02*
X109050Y-34550D01*
X109050Y-30050D02*
X109050Y-30800D01*
X108300Y-37300D02*
X108300Y-39300D01*
X108300Y-39300D02*
X109050Y-40050D01*
X109300Y-36300D02*
X108300Y-37300D01*
X108300Y-42800D02*
X108300Y-44800D01*
X108300Y-44800D02*
X109050Y-45550D01*
X109050Y-42050D02*
X108300Y-42800D01*
X108300Y-48300D02*
X108300Y-51050D01*
X108300Y-51050D02*
X108800Y-51550D01*
X108800Y-51550D02*
X108800Y-52550D01*
X108800Y-52550D02*
X107800Y-53550D01*
X107800Y-53550D02*
X107800Y-56050D01*
X107800Y-56050D02*
X108800Y-57050D01*
X108800Y-57050D02*
X108800Y-58050D01*
X108800Y-58050D02*
X107800Y-59050D01*
X107800Y-59050D02*
X107800Y-62800D01*
X107800Y-62800D02*
X108050Y-63050D01*
X109050Y-47550D02*
X108300Y-48300D01*
X104950Y-34550D02*
X105200Y-34800D01*
X105200Y-34800D02*
X105200Y-36300D01*
X105200Y-47300D02*
X104950Y-47550D01*
X105200Y-45800D02*
X105200Y-47300D01*
X104950Y-45550D02*
X105200Y-45800D01*
X105200Y-41800D02*
X104950Y-42050D01*
X105200Y-40300D02*
X105200Y-41800D01*
X104950Y-40050D02*
X105200Y-40300D01*
X104950Y-30800D02*
X104200Y-31550D01*
X104200Y-31550D02*
X104200Y-33800D01*
X104200Y-33800D02*
X104950Y-34550D01*
X104950Y-30050D02*
X104950Y-30800D01*
X104200Y-37300D02*
X104200Y-39300D01*
X104200Y-39300D02*
X104950Y-40050D01*
X105200Y-36300D02*
X104200Y-37300D01*
X104200Y-42800D02*
X104200Y-44800D01*
X104200Y-44800D02*
X104950Y-45550D01*
X104950Y-42050D02*
X104200Y-42800D01*
X104200Y-48300D02*
X104200Y-51050D01*
X104200Y-51050D02*
X104700Y-51550D01*
X104700Y-51550D02*
X104700Y-52550D01*
X104700Y-52550D02*
X103700Y-53550D01*
X103700Y-53550D02*
X103700Y-56050D01*
X103700Y-56050D02*
X104700Y-57050D01*
X104700Y-57050D02*
X104700Y-58050D01*
X104700Y-58050D02*
X103700Y-59050D01*
X103700Y-59050D02*
X103700Y-62800D01*
X103700Y-62800D02*
X103950Y-63050D01*
X104950Y-47550D02*
X104200Y-48300D01*
X88550Y-47550D02*
X87800Y-48300D01*
X87300Y-62800D02*
X87550Y-63050D01*
X87300Y-59050D02*
X87300Y-62800D01*
X88300Y-58050D02*
X87300Y-59050D01*
X88300Y-57050D02*
X88300Y-58050D01*
X87300Y-56050D02*
X88300Y-57050D01*
X87300Y-53550D02*
X87300Y-56050D01*
X88300Y-52550D02*
X87300Y-53550D01*
X88300Y-51550D02*
X88300Y-52550D01*
X87800Y-51050D02*
X88300Y-51550D01*
X87800Y-48300D02*
X87800Y-51050D01*
X88550Y-42050D02*
X87800Y-42800D01*
X87800Y-44800D02*
X88550Y-45550D01*
X87800Y-42800D02*
X87800Y-44800D01*
X88800Y-36300D02*
X87800Y-37300D01*
X87800Y-39300D02*
X88550Y-40050D01*
X87800Y-37300D02*
X87800Y-39300D01*
X88550Y-30050D02*
X88550Y-30800D01*
X87800Y-33800D02*
X88550Y-34550D01*
X87800Y-31550D02*
X87800Y-33800D01*
X88550Y-30800D02*
X87800Y-31550D01*
X88550Y-40050D02*
X88800Y-40300D01*
X88800Y-40300D02*
X88800Y-41800D01*
X88800Y-41800D02*
X88550Y-42050D01*
X88550Y-45550D02*
X88800Y-45800D01*
X88800Y-45800D02*
X88800Y-47300D01*
X88800Y-47300D02*
X88550Y-47550D01*
X88800Y-34800D02*
X88800Y-36300D01*
X88550Y-34550D02*
X88800Y-34800D01*
X92650Y-34550D02*
X92900Y-34800D01*
X92900Y-34800D02*
X92900Y-36300D01*
X92900Y-47300D02*
X92650Y-47550D01*
X92900Y-45800D02*
X92900Y-47300D01*
X92650Y-45550D02*
X92900Y-45800D01*
X92900Y-41800D02*
X92650Y-42050D01*
X92900Y-40300D02*
X92900Y-41800D01*
X92650Y-40050D02*
X92900Y-40300D01*
X92650Y-30800D02*
X91900Y-31550D01*
X91900Y-31550D02*
X91900Y-33800D01*
X91900Y-33800D02*
X92650Y-34550D01*
X92650Y-30050D02*
X92650Y-30800D01*
X91900Y-37300D02*
X91900Y-39300D01*
X91900Y-39300D02*
X92650Y-40050D01*
X92900Y-36300D02*
X91900Y-37300D01*
X91900Y-42800D02*
X91900Y-44800D01*
X91900Y-44800D02*
X92650Y-45550D01*
X92650Y-42050D02*
X91900Y-42800D01*
X91900Y-48300D02*
X91900Y-51050D01*
X91900Y-51050D02*
X92400Y-51550D01*
X92400Y-51550D02*
X92400Y-52550D01*
X92400Y-52550D02*
X91400Y-53550D01*
X91400Y-53550D02*
X91400Y-56050D01*
X91400Y-56050D02*
X92400Y-57050D01*
X92400Y-57050D02*
X92400Y-58050D01*
X92400Y-58050D02*
X91400Y-59050D01*
X91400Y-59050D02*
X91400Y-62800D01*
X91400Y-62800D02*
X91650Y-63050D01*
X92650Y-47550D02*
X91900Y-48300D01*
X100850Y-47550D02*
X100100Y-48300D01*
X99600Y-62800D02*
X99850Y-63050D01*
X99600Y-59050D02*
X99600Y-62800D01*
X100600Y-58050D02*
X99600Y-59050D01*
X100600Y-57050D02*
X100600Y-58050D01*
X99600Y-56050D02*
X100600Y-57050D01*
X99600Y-53550D02*
X99600Y-56050D01*
X100600Y-52550D02*
X99600Y-53550D01*
X100600Y-51550D02*
X100600Y-52550D01*
X100100Y-51050D02*
X100600Y-51550D01*
X100100Y-48300D02*
X100100Y-51050D01*
X100850Y-42050D02*
X100100Y-42800D01*
X100100Y-44800D02*
X100850Y-45550D01*
X100100Y-42800D02*
X100100Y-44800D01*
X101100Y-36300D02*
X100100Y-37300D01*
X100100Y-39300D02*
X100850Y-40050D01*
X100100Y-37300D02*
X100100Y-39300D01*
X100850Y-30050D02*
X100850Y-30800D01*
X100100Y-33800D02*
X100850Y-34550D01*
X100100Y-31550D02*
X100100Y-33800D01*
X100850Y-30800D02*
X100100Y-31550D01*
X100850Y-40050D02*
X101100Y-40300D01*
X101100Y-40300D02*
X101100Y-41800D01*
X101100Y-41800D02*
X100850Y-42050D01*
X100850Y-45550D02*
X101100Y-45800D01*
X101100Y-45800D02*
X101100Y-47300D01*
X101100Y-47300D02*
X100850Y-47550D01*
X101100Y-34800D02*
X101100Y-36300D01*
X100850Y-34550D02*
X101100Y-34800D01*
X96750Y-34550D02*
X97000Y-34800D01*
X97000Y-34800D02*
X97000Y-36300D01*
X97000Y-47300D02*
X96750Y-47550D01*
X97000Y-45800D02*
X97000Y-47300D01*
X96750Y-45550D02*
X97000Y-45800D01*
X97000Y-41800D02*
X96750Y-42050D01*
X97000Y-40300D02*
X97000Y-41800D01*
X96750Y-40050D02*
X97000Y-40300D01*
X96750Y-30800D02*
X96000Y-31550D01*
X96000Y-31550D02*
X96000Y-33800D01*
X96000Y-33800D02*
X96750Y-34550D01*
X96750Y-30050D02*
X96750Y-30800D01*
X96000Y-37300D02*
X96000Y-39300D01*
X96000Y-39300D02*
X96750Y-40050D01*
X97000Y-36300D02*
X96000Y-37300D01*
X96000Y-42800D02*
X96000Y-44800D01*
X96000Y-44800D02*
X96750Y-45550D01*
X96750Y-42050D02*
X96000Y-42800D01*
X96000Y-48300D02*
X96000Y-51050D01*
X96000Y-51050D02*
X96500Y-51550D01*
X96500Y-51550D02*
X96500Y-52550D01*
X96500Y-52550D02*
X95500Y-53550D01*
X95500Y-53550D02*
X95500Y-56050D01*
X95500Y-56050D02*
X96500Y-57050D01*
X96500Y-57050D02*
X96500Y-58050D01*
X96500Y-58050D02*
X95500Y-59050D01*
X95500Y-59050D02*
X95500Y-62800D01*
X95500Y-62800D02*
X95750Y-63050D01*
X96750Y-47550D02*
X96000Y-48300D01*
X80350Y-47550D02*
X79600Y-48300D01*
X79100Y-62800D02*
X79350Y-63050D01*
X79100Y-59050D02*
X79100Y-62800D01*
X80100Y-58050D02*
X79100Y-59050D01*
X80100Y-57050D02*
X80100Y-58050D01*
X79100Y-56050D02*
X80100Y-57050D01*
X79100Y-53550D02*
X79100Y-56050D01*
X80100Y-52550D02*
X79100Y-53550D01*
X80100Y-51550D02*
X80100Y-52550D01*
X79600Y-51050D02*
X80100Y-51550D01*
X79600Y-48300D02*
X79600Y-51050D01*
X80350Y-42050D02*
X79600Y-42800D01*
X79600Y-44800D02*
X80350Y-45550D01*
X79600Y-42800D02*
X79600Y-44800D01*
X80600Y-36300D02*
X79600Y-37300D01*
X79600Y-39300D02*
X80350Y-40050D01*
X79600Y-37300D02*
X79600Y-39300D01*
X80350Y-30050D02*
X80350Y-30800D01*
X79600Y-33800D02*
X80350Y-34550D01*
X79600Y-31550D02*
X79600Y-33800D01*
X80350Y-30800D02*
X79600Y-31550D01*
X80350Y-40050D02*
X80600Y-40300D01*
X80600Y-40300D02*
X80600Y-41800D01*
X80600Y-41800D02*
X80350Y-42050D01*
X80350Y-45550D02*
X80600Y-45800D01*
X80600Y-45800D02*
X80600Y-47300D01*
X80600Y-47300D02*
X80350Y-47550D01*
X80600Y-34800D02*
X80600Y-36300D01*
X80350Y-34550D02*
X80600Y-34800D01*
X84450Y-34550D02*
X84700Y-34800D01*
X84700Y-34800D02*
X84700Y-36300D01*
X84700Y-47300D02*
X84450Y-47550D01*
X84700Y-45800D02*
X84700Y-47300D01*
X84450Y-45550D02*
X84700Y-45800D01*
X84700Y-41800D02*
X84450Y-42050D01*
X84700Y-40300D02*
X84700Y-41800D01*
X84450Y-40050D02*
X84700Y-40300D01*
X84450Y-30800D02*
X83700Y-31550D01*
X83700Y-31550D02*
X83700Y-33800D01*
X83700Y-33800D02*
X84450Y-34550D01*
X84450Y-30050D02*
X84450Y-30800D01*
X83700Y-37300D02*
X83700Y-39300D01*
X83700Y-39300D02*
X84450Y-40050D01*
X84700Y-36300D02*
X83700Y-37300D01*
X83700Y-42800D02*
X83700Y-44800D01*
X83700Y-44800D02*
X84450Y-45550D01*
X84450Y-42050D02*
X83700Y-42800D01*
X83700Y-48300D02*
X83700Y-51050D01*
X83700Y-51050D02*
X84200Y-51550D01*
X84200Y-51550D02*
X84200Y-52550D01*
X84200Y-52550D02*
X83200Y-53550D01*
X83200Y-53550D02*
X83200Y-56050D01*
X83200Y-56050D02*
X84200Y-57050D01*
X84200Y-57050D02*
X84200Y-58050D01*
X84200Y-58050D02*
X83200Y-59050D01*
X83200Y-59050D02*
X83200Y-62800D01*
X83200Y-62800D02*
X83450Y-63050D01*
X84450Y-47550D02*
X83700Y-48300D01*
X76250Y-47550D02*
X75500Y-48300D01*
X75000Y-62800D02*
X75250Y-63050D01*
X75000Y-59050D02*
X75000Y-62800D01*
X76000Y-58050D02*
X75000Y-59050D01*
X76000Y-57050D02*
X76000Y-58050D01*
X75000Y-56050D02*
X76000Y-57050D01*
X75000Y-53550D02*
X75000Y-56050D01*
X76000Y-52550D02*
X75000Y-53550D01*
X76000Y-51550D02*
X76000Y-52550D01*
X75500Y-51050D02*
X76000Y-51550D01*
X75500Y-48300D02*
X75500Y-51050D01*
X76250Y-42050D02*
X75500Y-42800D01*
X75500Y-44800D02*
X76250Y-45550D01*
X75500Y-42800D02*
X75500Y-44800D01*
X76500Y-36300D02*
X75500Y-37300D01*
X75500Y-39300D02*
X76250Y-40050D01*
X75500Y-37300D02*
X75500Y-39300D01*
X76250Y-30050D02*
X76250Y-30800D01*
X75500Y-33800D02*
X76250Y-34550D01*
X75500Y-31550D02*
X75500Y-33800D01*
X76250Y-30800D02*
X75500Y-31550D01*
X76250Y-40050D02*
X76500Y-40300D01*
X76500Y-40300D02*
X76500Y-41800D01*
X76500Y-41800D02*
X76250Y-42050D01*
X76250Y-45550D02*
X76500Y-45800D01*
X76500Y-45800D02*
X76500Y-47300D01*
X76500Y-47300D02*
X76250Y-47550D01*
X76500Y-34800D02*
X76500Y-36300D01*
X76250Y-34550D02*
X76500Y-34800D01*
X113150Y-47550D02*
X112400Y-48300D01*
X111900Y-62800D02*
X112150Y-63050D01*
X111900Y-59050D02*
X111900Y-62800D01*
X112900Y-58050D02*
X111900Y-59050D01*
X112900Y-57050D02*
X112900Y-58050D01*
X111900Y-56050D02*
X112900Y-57050D01*
X111900Y-53550D02*
X111900Y-56050D01*
X112900Y-52550D02*
X111900Y-53550D01*
X112900Y-51550D02*
X112900Y-52550D01*
X112400Y-51050D02*
X112900Y-51550D01*
X112400Y-48300D02*
X112400Y-51050D01*
X113150Y-42050D02*
X112400Y-42800D01*
X112400Y-44800D02*
X113150Y-45550D01*
X112400Y-42800D02*
X112400Y-44800D01*
X113400Y-36300D02*
X112400Y-37300D01*
X112400Y-39300D02*
X113150Y-40050D01*
X112400Y-37300D02*
X112400Y-39300D01*
X113150Y-30050D02*
X113150Y-30800D01*
X112400Y-33800D02*
X113150Y-34550D01*
X112400Y-31550D02*
X112400Y-33800D01*
X113150Y-30800D02*
X112400Y-31550D01*
X113150Y-40050D02*
X113400Y-40300D01*
X113400Y-40300D02*
X113400Y-41800D01*
X113400Y-41800D02*
X113150Y-42050D01*
X113150Y-45550D02*
X113400Y-45800D01*
X113400Y-45800D02*
X113400Y-47300D01*
X113400Y-47300D02*
X113150Y-47550D01*
X113400Y-34800D02*
X113400Y-36300D01*
X113150Y-34550D02*
X113400Y-34800D01*
X72150Y-34550D02*
X72400Y-34800D01*
X72400Y-34800D02*
X72400Y-36300D01*
X72400Y-47300D02*
X72150Y-47550D01*
X72400Y-45800D02*
X72400Y-47300D01*
X72150Y-45550D02*
X72400Y-45800D01*
X72400Y-41800D02*
X72150Y-42050D01*
X72400Y-40300D02*
X72400Y-41800D01*
X72150Y-40050D02*
X72400Y-40300D01*
X72150Y-30800D02*
X71400Y-31550D01*
X71400Y-31550D02*
X71400Y-33800D01*
X71400Y-33800D02*
X72150Y-34550D01*
X72150Y-30050D02*
X72150Y-30800D01*
X71400Y-37300D02*
X71400Y-39300D01*
X71400Y-39300D02*
X72150Y-40050D01*
X72400Y-36300D02*
X71400Y-37300D01*
X71400Y-42800D02*
X71400Y-44800D01*
X71400Y-44800D02*
X72150Y-45550D01*
X72150Y-42050D02*
X71400Y-42800D01*
X71400Y-48300D02*
X71400Y-51050D01*
X71400Y-51050D02*
X71900Y-51550D01*
X71900Y-51550D02*
X71900Y-52550D01*
X71900Y-52550D02*
X70900Y-53550D01*
X70900Y-53550D02*
X70900Y-56050D01*
X70900Y-56050D02*
X71900Y-57050D01*
X71900Y-57050D02*
X71900Y-58050D01*
X71900Y-58050D02*
X70900Y-59050D01*
X70900Y-59050D02*
X70900Y-62800D01*
X70900Y-62800D02*
X71150Y-63050D01*
X72150Y-47550D02*
X71400Y-48300D01*
G54D10*
G36*
X69500Y-33634D02*
X68925Y-34209D01*
X68925Y-31140D01*
X69500Y-31715D01*
X69500Y-33634D01*
X69500Y-33634D01*
G37*
G54D14*
X69500Y-33634D02*
X68925Y-34209D01*
X68925Y-31140D01*
X69500Y-31715D01*
X69500Y-33634D01*
G54D10*
G36*
X70682Y-40647D02*
X70649Y-40680D01*
X70498Y-40528D01*
X70300Y-40446D01*
X70300Y-40265D01*
X70682Y-40647D01*
X70682Y-40647D01*
G37*
G54D14*
X70682Y-40647D02*
X70649Y-40680D01*
X70498Y-40528D01*
X70300Y-40446D01*
X70300Y-40265D01*
X70682Y-40647D01*
G54D10*
G36*
X70694Y-30939D02*
X70650Y-30984D01*
X70605Y-30939D01*
X70650Y-30921D01*
X70694Y-30939D01*
X70694Y-30939D01*
G37*
G54D14*
X70694Y-30939D02*
X70650Y-30984D01*
X70605Y-30939D01*
X70650Y-30921D01*
X70694Y-30939D01*
G54D10*
G36*
X70725Y-34440D02*
X70573Y-34441D01*
X70650Y-34365D01*
X70725Y-34440D01*
X70725Y-34440D01*
G37*
G54D14*
X70725Y-34440D02*
X70573Y-34441D01*
X70650Y-34365D01*
X70725Y-34440D01*
G54D10*
G36*
X70725Y-45440D02*
X70573Y-45441D01*
X70650Y-45365D01*
X70725Y-45440D01*
X70725Y-45440D01*
G37*
G54D14*
X70725Y-45440D02*
X70573Y-45441D01*
X70650Y-45365D01*
X70725Y-45440D01*
G54D10*
G36*
X70725Y-56440D02*
X70573Y-56441D01*
X70650Y-56365D01*
X70725Y-56440D01*
X70725Y-56440D01*
G37*
G54D14*
X70725Y-56440D02*
X70573Y-56441D01*
X70650Y-56365D01*
X70725Y-56440D01*
G54D10*
G36*
X70726Y-36658D02*
X70650Y-36734D01*
X70574Y-36659D01*
X70726Y-36658D01*
X70726Y-36658D01*
G37*
G54D14*
X70726Y-36658D02*
X70650Y-36734D01*
X70574Y-36659D01*
X70726Y-36658D01*
G54D10*
G36*
X70726Y-47658D02*
X70650Y-47734D01*
X70574Y-47659D01*
X70726Y-47658D01*
X70726Y-47658D01*
G37*
G54D14*
X70726Y-47658D02*
X70650Y-47734D01*
X70574Y-47659D01*
X70726Y-47658D01*
G54D10*
G36*
X70726Y-58658D02*
X70650Y-58734D01*
X70574Y-58659D01*
X70726Y-58658D01*
X70726Y-58658D01*
G37*
G54D14*
X70726Y-58658D02*
X70650Y-58734D01*
X70574Y-58659D01*
X70726Y-58658D01*
G54D10*
G36*
X71219Y-41665D02*
X70800Y-42084D01*
X70800Y-41569D01*
X70801Y-41571D01*
X71027Y-41664D01*
X71219Y-41665D01*
X71219Y-41665D01*
G37*
G54D14*
X71219Y-41665D02*
X70800Y-42084D01*
X70800Y-41569D01*
X70801Y-41571D01*
X71027Y-41664D01*
X71219Y-41665D01*
G54D10*
G36*
X71219Y-52665D02*
X70800Y-53084D01*
X70800Y-52569D01*
X70801Y-52571D01*
X71027Y-52664D01*
X71219Y-52665D01*
X71219Y-52665D01*
G37*
G54D14*
X71219Y-52665D02*
X70800Y-53084D01*
X70800Y-52569D01*
X70801Y-52571D01*
X71027Y-52664D01*
X71219Y-52665D01*
G54D10*
G36*
X72375Y-34209D02*
X71800Y-33634D01*
X71800Y-31715D01*
X72375Y-31140D01*
X72375Y-34209D01*
X72375Y-34209D01*
G37*
G54D14*
X72375Y-34209D02*
X71800Y-33634D01*
X71800Y-31715D01*
X72375Y-31140D01*
X72375Y-34209D01*
G54D10*
G36*
X72375Y-39709D02*
X71800Y-39134D01*
X71800Y-37465D01*
X72375Y-36890D01*
X72375Y-39709D01*
X72375Y-39709D01*
G37*
G54D14*
X72375Y-39709D02*
X71800Y-39134D01*
X71800Y-37465D01*
X72375Y-36890D01*
X72375Y-39709D01*
G54D10*
G36*
X72375Y-45209D02*
X71800Y-44634D01*
X71800Y-42965D01*
X72375Y-42390D01*
X72375Y-45209D01*
X72375Y-45209D01*
G37*
G54D14*
X72375Y-45209D02*
X71800Y-44634D01*
X71800Y-42965D01*
X72375Y-42390D01*
X72375Y-45209D01*
G54D10*
G36*
X72375Y-64725D02*
X68925Y-64725D01*
X68925Y-36890D01*
X69500Y-37465D01*
X69500Y-40800D01*
X69525Y-40927D01*
X69530Y-40953D01*
X69535Y-40960D01*
X69534Y-41171D01*
X69628Y-41397D01*
X69801Y-41571D01*
X69893Y-41609D01*
X70000Y-41715D01*
X70000Y-44884D01*
X69117Y-45767D01*
X69030Y-45896D01*
X69025Y-45922D01*
X69000Y-46050D01*
X69000Y-47050D01*
X69025Y-47177D01*
X69030Y-47203D01*
X69117Y-47332D01*
X70000Y-48215D01*
X70000Y-51446D01*
X69802Y-51528D01*
X69628Y-51701D01*
X69535Y-51927D01*
X69534Y-52171D01*
X69628Y-52397D01*
X69801Y-52571D01*
X70000Y-52653D01*
X70000Y-55884D01*
X69117Y-56767D01*
X69030Y-56896D01*
X69025Y-56922D01*
X69000Y-57050D01*
X69000Y-58050D01*
X69025Y-58177D01*
X69030Y-58203D01*
X69117Y-58332D01*
X70000Y-59215D01*
X70000Y-62446D01*
X69802Y-62528D01*
X69628Y-62701D01*
X69535Y-62927D01*
X69534Y-63171D01*
X69628Y-63397D01*
X69801Y-63571D01*
X70027Y-63664D01*
X70271Y-63665D01*
X70497Y-63571D01*
X70650Y-63419D01*
X70801Y-63571D01*
X71027Y-63664D01*
X71271Y-63665D01*
X71497Y-63571D01*
X71671Y-63398D01*
X71764Y-63172D01*
X71765Y-62928D01*
X71671Y-62702D01*
X71498Y-62528D01*
X71300Y-62446D01*
X71300Y-59215D01*
X72182Y-58332D01*
X72182Y-58332D01*
X72240Y-58246D01*
X72269Y-58203D01*
X72269Y-58203D01*
X72299Y-58050D01*
X72300Y-58050D01*
X72300Y-57050D01*
X72269Y-56896D01*
X72269Y-56896D01*
X72240Y-56853D01*
X72182Y-56767D01*
X72182Y-56767D01*
X71300Y-55884D01*
X71300Y-53715D01*
X72182Y-52832D01*
X72182Y-52832D01*
X72240Y-52746D01*
X72269Y-52703D01*
X72269Y-52703D01*
X72299Y-52550D01*
X72300Y-52550D01*
X72300Y-51550D01*
X72269Y-51396D01*
X72269Y-51396D01*
X72240Y-51353D01*
X72182Y-51267D01*
X72182Y-51267D01*
X71800Y-50884D01*
X71800Y-48465D01*
X72375Y-47890D01*
X72375Y-64725D01*
X72375Y-64725D01*
G37*
G54D14*
X72375Y-64725D02*
X68925Y-64725D01*
X68925Y-36890D01*
X69500Y-37465D01*
X69500Y-40800D01*
X69525Y-40927D01*
X69530Y-40953D01*
X69535Y-40960D01*
X69534Y-41171D01*
X69628Y-41397D01*
X69801Y-41571D01*
X69893Y-41609D01*
X70000Y-41715D01*
X70000Y-44884D01*
X69117Y-45767D01*
X69030Y-45896D01*
X69025Y-45922D01*
X69000Y-46050D01*
X69000Y-47050D01*
X69025Y-47177D01*
X69030Y-47203D01*
X69117Y-47332D01*
X70000Y-48215D01*
X70000Y-51446D01*
X69802Y-51528D01*
X69628Y-51701D01*
X69535Y-51927D01*
X69534Y-52171D01*
X69628Y-52397D01*
X69801Y-52571D01*
X70000Y-52653D01*
X70000Y-55884D01*
X69117Y-56767D01*
X69030Y-56896D01*
X69025Y-56922D01*
X69000Y-57050D01*
X69000Y-58050D01*
X69025Y-58177D01*
X69030Y-58203D01*
X69117Y-58332D01*
X70000Y-59215D01*
X70000Y-62446D01*
X69802Y-62528D01*
X69628Y-62701D01*
X69535Y-62927D01*
X69534Y-63171D01*
X69628Y-63397D01*
X69801Y-63571D01*
X70027Y-63664D01*
X70271Y-63665D01*
X70497Y-63571D01*
X70650Y-63419D01*
X70801Y-63571D01*
X71027Y-63664D01*
X71271Y-63665D01*
X71497Y-63571D01*
X71671Y-63398D01*
X71764Y-63172D01*
X71765Y-62928D01*
X71671Y-62702D01*
X71498Y-62528D01*
X71300Y-62446D01*
X71300Y-59215D01*
X72182Y-58332D01*
X72182Y-58332D01*
X72240Y-58246D01*
X72269Y-58203D01*
X72269Y-58203D01*
X72299Y-58050D01*
X72300Y-58050D01*
X72300Y-57050D01*
X72269Y-56896D01*
X72269Y-56896D01*
X72240Y-56853D01*
X72182Y-56767D01*
X72182Y-56767D01*
X71300Y-55884D01*
X71300Y-53715D01*
X72182Y-52832D01*
X72182Y-52832D01*
X72240Y-52746D01*
X72269Y-52703D01*
X72269Y-52703D01*
X72299Y-52550D01*
X72300Y-52550D01*
X72300Y-51550D01*
X72269Y-51396D01*
X72269Y-51396D01*
X72240Y-51353D01*
X72182Y-51267D01*
X72182Y-51267D01*
X71800Y-50884D01*
X71800Y-48465D01*
X72375Y-47890D01*
X72375Y-64725D01*
G54D10*
G36*
X110500Y-33634D02*
X109925Y-34209D01*
X109925Y-31140D01*
X110500Y-31715D01*
X110500Y-33634D01*
X110500Y-33634D01*
G37*
G54D14*
X110500Y-33634D02*
X109925Y-34209D01*
X109925Y-31140D01*
X110500Y-31715D01*
X110500Y-33634D01*
G54D10*
G36*
X111682Y-40647D02*
X111649Y-40680D01*
X111498Y-40528D01*
X111300Y-40446D01*
X111300Y-40265D01*
X111682Y-40647D01*
X111682Y-40647D01*
G37*
G54D14*
X111682Y-40647D02*
X111649Y-40680D01*
X111498Y-40528D01*
X111300Y-40446D01*
X111300Y-40265D01*
X111682Y-40647D01*
G54D10*
G36*
X111694Y-30939D02*
X111650Y-30984D01*
X111605Y-30939D01*
X111650Y-30921D01*
X111694Y-30939D01*
X111694Y-30939D01*
G37*
G54D14*
X111694Y-30939D02*
X111650Y-30984D01*
X111605Y-30939D01*
X111650Y-30921D01*
X111694Y-30939D01*
G54D10*
G36*
X111725Y-34440D02*
X111573Y-34441D01*
X111650Y-34365D01*
X111725Y-34440D01*
X111725Y-34440D01*
G37*
G54D14*
X111725Y-34440D02*
X111573Y-34441D01*
X111650Y-34365D01*
X111725Y-34440D01*
G54D10*
G36*
X111725Y-45440D02*
X111573Y-45441D01*
X111650Y-45365D01*
X111725Y-45440D01*
X111725Y-45440D01*
G37*
G54D14*
X111725Y-45440D02*
X111573Y-45441D01*
X111650Y-45365D01*
X111725Y-45440D01*
G54D10*
G36*
X111725Y-56440D02*
X111573Y-56441D01*
X111650Y-56365D01*
X111725Y-56440D01*
X111725Y-56440D01*
G37*
G54D14*
X111725Y-56440D02*
X111573Y-56441D01*
X111650Y-56365D01*
X111725Y-56440D01*
G54D10*
G36*
X111726Y-36658D02*
X111650Y-36734D01*
X111574Y-36659D01*
X111726Y-36658D01*
X111726Y-36658D01*
G37*
G54D14*
X111726Y-36658D02*
X111650Y-36734D01*
X111574Y-36659D01*
X111726Y-36658D01*
G54D10*
G36*
X111726Y-47658D02*
X111650Y-47734D01*
X111574Y-47659D01*
X111726Y-47658D01*
X111726Y-47658D01*
G37*
G54D14*
X111726Y-47658D02*
X111650Y-47734D01*
X111574Y-47659D01*
X111726Y-47658D01*
G54D10*
G36*
X111726Y-58658D02*
X111650Y-58734D01*
X111574Y-58659D01*
X111726Y-58658D01*
X111726Y-58658D01*
G37*
G54D14*
X111726Y-58658D02*
X111650Y-58734D01*
X111574Y-58659D01*
X111726Y-58658D01*
G54D10*
G36*
X112219Y-41665D02*
X111800Y-42084D01*
X111800Y-41569D01*
X111801Y-41571D01*
X112027Y-41664D01*
X112219Y-41665D01*
X112219Y-41665D01*
G37*
G54D14*
X112219Y-41665D02*
X111800Y-42084D01*
X111800Y-41569D01*
X111801Y-41571D01*
X112027Y-41664D01*
X112219Y-41665D01*
G54D10*
G36*
X112219Y-52665D02*
X111800Y-53084D01*
X111800Y-52569D01*
X111801Y-52571D01*
X112027Y-52664D01*
X112219Y-52665D01*
X112219Y-52665D01*
G37*
G54D14*
X112219Y-52665D02*
X111800Y-53084D01*
X111800Y-52569D01*
X111801Y-52571D01*
X112027Y-52664D01*
X112219Y-52665D01*
G54D10*
G36*
X113375Y-34209D02*
X112800Y-33634D01*
X112800Y-31715D01*
X113375Y-31140D01*
X113375Y-34209D01*
X113375Y-34209D01*
G37*
G54D14*
X113375Y-34209D02*
X112800Y-33634D01*
X112800Y-31715D01*
X113375Y-31140D01*
X113375Y-34209D01*
G54D10*
G36*
X113375Y-39709D02*
X112800Y-39134D01*
X112800Y-37465D01*
X113375Y-36890D01*
X113375Y-39709D01*
X113375Y-39709D01*
G37*
G54D14*
X113375Y-39709D02*
X112800Y-39134D01*
X112800Y-37465D01*
X113375Y-36890D01*
X113375Y-39709D01*
G54D10*
G36*
X113375Y-45209D02*
X112800Y-44634D01*
X112800Y-42965D01*
X113375Y-42390D01*
X113375Y-45209D01*
X113375Y-45209D01*
G37*
G54D14*
X113375Y-45209D02*
X112800Y-44634D01*
X112800Y-42965D01*
X113375Y-42390D01*
X113375Y-45209D01*
G54D10*
G36*
X113375Y-64725D02*
X109925Y-64725D01*
X109925Y-36890D01*
X110500Y-37465D01*
X110500Y-40800D01*
X110525Y-40927D01*
X110530Y-40953D01*
X110535Y-40960D01*
X110534Y-41171D01*
X110628Y-41397D01*
X110801Y-41571D01*
X110893Y-41609D01*
X111000Y-41715D01*
X111000Y-44884D01*
X110117Y-45767D01*
X110030Y-45896D01*
X110025Y-45922D01*
X110000Y-46050D01*
X110000Y-47050D01*
X110025Y-47177D01*
X110030Y-47203D01*
X110117Y-47332D01*
X111000Y-48215D01*
X111000Y-51446D01*
X110802Y-51528D01*
X110628Y-51701D01*
X110535Y-51927D01*
X110534Y-52171D01*
X110628Y-52397D01*
X110801Y-52571D01*
X111000Y-52653D01*
X111000Y-55884D01*
X110117Y-56767D01*
X110030Y-56896D01*
X110025Y-56922D01*
X110000Y-57050D01*
X110000Y-58050D01*
X110025Y-58177D01*
X110030Y-58203D01*
X110117Y-58332D01*
X111000Y-59215D01*
X111000Y-62446D01*
X110802Y-62528D01*
X110628Y-62701D01*
X110535Y-62927D01*
X110534Y-63171D01*
X110628Y-63397D01*
X110801Y-63571D01*
X111027Y-63664D01*
X111271Y-63665D01*
X111497Y-63571D01*
X111650Y-63419D01*
X111801Y-63571D01*
X112027Y-63664D01*
X112271Y-63665D01*
X112497Y-63571D01*
X112671Y-63398D01*
X112764Y-63172D01*
X112765Y-62928D01*
X112671Y-62702D01*
X112498Y-62528D01*
X112300Y-62446D01*
X112300Y-59215D01*
X113182Y-58332D01*
X113182Y-58332D01*
X113240Y-58246D01*
X113269Y-58203D01*
X113269Y-58203D01*
X113299Y-58050D01*
X113300Y-58050D01*
X113300Y-57050D01*
X113269Y-56896D01*
X113269Y-56896D01*
X113240Y-56853D01*
X113182Y-56767D01*
X113182Y-56767D01*
X112300Y-55884D01*
X112300Y-53715D01*
X113182Y-52832D01*
X113182Y-52832D01*
X113240Y-52746D01*
X113269Y-52703D01*
X113269Y-52703D01*
X113299Y-52550D01*
X113300Y-52550D01*
X113300Y-51550D01*
X113269Y-51396D01*
X113269Y-51396D01*
X113240Y-51353D01*
X113182Y-51267D01*
X113182Y-51267D01*
X112800Y-50884D01*
X112800Y-48465D01*
X113375Y-47890D01*
X113375Y-64725D01*
X113375Y-64725D01*
G37*
G54D14*
X113375Y-64725D02*
X109925Y-64725D01*
X109925Y-36890D01*
X110500Y-37465D01*
X110500Y-40800D01*
X110525Y-40927D01*
X110530Y-40953D01*
X110535Y-40960D01*
X110534Y-41171D01*
X110628Y-41397D01*
X110801Y-41571D01*
X110893Y-41609D01*
X111000Y-41715D01*
X111000Y-44884D01*
X110117Y-45767D01*
X110030Y-45896D01*
X110025Y-45922D01*
X110000Y-46050D01*
X110000Y-47050D01*
X110025Y-47177D01*
X110030Y-47203D01*
X110117Y-47332D01*
X111000Y-48215D01*
X111000Y-51446D01*
X110802Y-51528D01*
X110628Y-51701D01*
X110535Y-51927D01*
X110534Y-52171D01*
X110628Y-52397D01*
X110801Y-52571D01*
X111000Y-52653D01*
X111000Y-55884D01*
X110117Y-56767D01*
X110030Y-56896D01*
X110025Y-56922D01*
X110000Y-57050D01*
X110000Y-58050D01*
X110025Y-58177D01*
X110030Y-58203D01*
X110117Y-58332D01*
X111000Y-59215D01*
X111000Y-62446D01*
X110802Y-62528D01*
X110628Y-62701D01*
X110535Y-62927D01*
X110534Y-63171D01*
X110628Y-63397D01*
X110801Y-63571D01*
X111027Y-63664D01*
X111271Y-63665D01*
X111497Y-63571D01*
X111650Y-63419D01*
X111801Y-63571D01*
X112027Y-63664D01*
X112271Y-63665D01*
X112497Y-63571D01*
X112671Y-63398D01*
X112764Y-63172D01*
X112765Y-62928D01*
X112671Y-62702D01*
X112498Y-62528D01*
X112300Y-62446D01*
X112300Y-59215D01*
X113182Y-58332D01*
X113182Y-58332D01*
X113240Y-58246D01*
X113269Y-58203D01*
X113269Y-58203D01*
X113299Y-58050D01*
X113300Y-58050D01*
X113300Y-57050D01*
X113269Y-56896D01*
X113269Y-56896D01*
X113240Y-56853D01*
X113182Y-56767D01*
X113182Y-56767D01*
X112300Y-55884D01*
X112300Y-53715D01*
X113182Y-52832D01*
X113182Y-52832D01*
X113240Y-52746D01*
X113269Y-52703D01*
X113269Y-52703D01*
X113299Y-52550D01*
X113300Y-52550D01*
X113300Y-51550D01*
X113269Y-51396D01*
X113269Y-51396D01*
X113240Y-51353D01*
X113182Y-51267D01*
X113182Y-51267D01*
X112800Y-50884D01*
X112800Y-48465D01*
X113375Y-47890D01*
X113375Y-64725D01*
G54D10*
G36*
X73600Y-33634D02*
X73025Y-34209D01*
X73025Y-31140D01*
X73600Y-31715D01*
X73600Y-33634D01*
X73600Y-33634D01*
G37*
G54D14*
X73600Y-33634D02*
X73025Y-34209D01*
X73025Y-31140D01*
X73600Y-31715D01*
X73600Y-33634D01*
G54D10*
G36*
X74782Y-40647D02*
X74749Y-40680D01*
X74598Y-40528D01*
X74400Y-40446D01*
X74400Y-40265D01*
X74782Y-40647D01*
X74782Y-40647D01*
G37*
G54D14*
X74782Y-40647D02*
X74749Y-40680D01*
X74598Y-40528D01*
X74400Y-40446D01*
X74400Y-40265D01*
X74782Y-40647D01*
G54D10*
G36*
X74794Y-30939D02*
X74750Y-30984D01*
X74705Y-30939D01*
X74750Y-30921D01*
X74794Y-30939D01*
X74794Y-30939D01*
G37*
G54D14*
X74794Y-30939D02*
X74750Y-30984D01*
X74705Y-30939D01*
X74750Y-30921D01*
X74794Y-30939D01*
G54D10*
G36*
X74825Y-34440D02*
X74673Y-34441D01*
X74750Y-34365D01*
X74825Y-34440D01*
X74825Y-34440D01*
G37*
G54D14*
X74825Y-34440D02*
X74673Y-34441D01*
X74750Y-34365D01*
X74825Y-34440D01*
G54D10*
G36*
X74825Y-45440D02*
X74673Y-45441D01*
X74750Y-45365D01*
X74825Y-45440D01*
X74825Y-45440D01*
G37*
G54D14*
X74825Y-45440D02*
X74673Y-45441D01*
X74750Y-45365D01*
X74825Y-45440D01*
G54D10*
G36*
X74825Y-56440D02*
X74673Y-56441D01*
X74750Y-56365D01*
X74825Y-56440D01*
X74825Y-56440D01*
G37*
G54D14*
X74825Y-56440D02*
X74673Y-56441D01*
X74750Y-56365D01*
X74825Y-56440D01*
G54D10*
G36*
X74826Y-36658D02*
X74750Y-36734D01*
X74674Y-36659D01*
X74826Y-36658D01*
X74826Y-36658D01*
G37*
G54D14*
X74826Y-36658D02*
X74750Y-36734D01*
X74674Y-36659D01*
X74826Y-36658D01*
G54D10*
G36*
X74826Y-47658D02*
X74750Y-47734D01*
X74674Y-47659D01*
X74826Y-47658D01*
X74826Y-47658D01*
G37*
G54D14*
X74826Y-47658D02*
X74750Y-47734D01*
X74674Y-47659D01*
X74826Y-47658D01*
G54D10*
G36*
X74826Y-58658D02*
X74750Y-58734D01*
X74674Y-58659D01*
X74826Y-58658D01*
X74826Y-58658D01*
G37*
G54D14*
X74826Y-58658D02*
X74750Y-58734D01*
X74674Y-58659D01*
X74826Y-58658D01*
G54D10*
G36*
X75319Y-41665D02*
X74900Y-42084D01*
X74900Y-41569D01*
X74901Y-41571D01*
X75127Y-41664D01*
X75319Y-41665D01*
X75319Y-41665D01*
G37*
G54D14*
X75319Y-41665D02*
X74900Y-42084D01*
X74900Y-41569D01*
X74901Y-41571D01*
X75127Y-41664D01*
X75319Y-41665D01*
G54D10*
G36*
X75319Y-52665D02*
X74900Y-53084D01*
X74900Y-52569D01*
X74901Y-52571D01*
X75127Y-52664D01*
X75319Y-52665D01*
X75319Y-52665D01*
G37*
G54D14*
X75319Y-52665D02*
X74900Y-53084D01*
X74900Y-52569D01*
X74901Y-52571D01*
X75127Y-52664D01*
X75319Y-52665D01*
G54D10*
G36*
X76475Y-34209D02*
X75900Y-33634D01*
X75900Y-31715D01*
X76475Y-31140D01*
X76475Y-34209D01*
X76475Y-34209D01*
G37*
G54D14*
X76475Y-34209D02*
X75900Y-33634D01*
X75900Y-31715D01*
X76475Y-31140D01*
X76475Y-34209D01*
G54D10*
G36*
X76475Y-39709D02*
X75900Y-39134D01*
X75900Y-37465D01*
X76475Y-36890D01*
X76475Y-39709D01*
X76475Y-39709D01*
G37*
G54D14*
X76475Y-39709D02*
X75900Y-39134D01*
X75900Y-37465D01*
X76475Y-36890D01*
X76475Y-39709D01*
G54D10*
G36*
X76475Y-45209D02*
X75900Y-44634D01*
X75900Y-42965D01*
X76475Y-42390D01*
X76475Y-45209D01*
X76475Y-45209D01*
G37*
G54D14*
X76475Y-45209D02*
X75900Y-44634D01*
X75900Y-42965D01*
X76475Y-42390D01*
X76475Y-45209D01*
G54D10*
G36*
X76475Y-64725D02*
X73025Y-64725D01*
X73025Y-36890D01*
X73600Y-37465D01*
X73600Y-40800D01*
X73625Y-40927D01*
X73630Y-40953D01*
X73635Y-40960D01*
X73634Y-41171D01*
X73728Y-41397D01*
X73901Y-41571D01*
X73993Y-41609D01*
X74100Y-41715D01*
X74100Y-44884D01*
X73217Y-45767D01*
X73130Y-45896D01*
X73125Y-45922D01*
X73100Y-46050D01*
X73100Y-47050D01*
X73125Y-47177D01*
X73130Y-47203D01*
X73217Y-47332D01*
X74100Y-48215D01*
X74100Y-51446D01*
X73902Y-51528D01*
X73728Y-51701D01*
X73635Y-51927D01*
X73634Y-52171D01*
X73728Y-52397D01*
X73901Y-52571D01*
X74100Y-52653D01*
X74100Y-55884D01*
X73217Y-56767D01*
X73130Y-56896D01*
X73125Y-56922D01*
X73100Y-57050D01*
X73100Y-58050D01*
X73125Y-58177D01*
X73130Y-58203D01*
X73217Y-58332D01*
X74100Y-59215D01*
X74100Y-62446D01*
X73902Y-62528D01*
X73728Y-62701D01*
X73635Y-62927D01*
X73634Y-63171D01*
X73728Y-63397D01*
X73901Y-63571D01*
X74127Y-63664D01*
X74371Y-63665D01*
X74597Y-63571D01*
X74750Y-63419D01*
X74901Y-63571D01*
X75127Y-63664D01*
X75371Y-63665D01*
X75597Y-63571D01*
X75771Y-63398D01*
X75864Y-63172D01*
X75865Y-62928D01*
X75771Y-62702D01*
X75598Y-62528D01*
X75400Y-62446D01*
X75400Y-59215D01*
X76282Y-58332D01*
X76282Y-58332D01*
X76340Y-58246D01*
X76369Y-58203D01*
X76369Y-58203D01*
X76399Y-58050D01*
X76400Y-58050D01*
X76400Y-57050D01*
X76369Y-56896D01*
X76369Y-56896D01*
X76340Y-56853D01*
X76282Y-56767D01*
X76282Y-56767D01*
X75400Y-55884D01*
X75400Y-53715D01*
X76282Y-52832D01*
X76282Y-52832D01*
X76340Y-52746D01*
X76369Y-52703D01*
X76369Y-52703D01*
X76399Y-52550D01*
X76400Y-52550D01*
X76400Y-51550D01*
X76369Y-51396D01*
X76369Y-51396D01*
X76340Y-51353D01*
X76282Y-51267D01*
X76282Y-51267D01*
X75900Y-50884D01*
X75900Y-48465D01*
X76475Y-47890D01*
X76475Y-64725D01*
X76475Y-64725D01*
G37*
G54D14*
X76475Y-64725D02*
X73025Y-64725D01*
X73025Y-36890D01*
X73600Y-37465D01*
X73600Y-40800D01*
X73625Y-40927D01*
X73630Y-40953D01*
X73635Y-40960D01*
X73634Y-41171D01*
X73728Y-41397D01*
X73901Y-41571D01*
X73993Y-41609D01*
X74100Y-41715D01*
X74100Y-44884D01*
X73217Y-45767D01*
X73130Y-45896D01*
X73125Y-45922D01*
X73100Y-46050D01*
X73100Y-47050D01*
X73125Y-47177D01*
X73130Y-47203D01*
X73217Y-47332D01*
X74100Y-48215D01*
X74100Y-51446D01*
X73902Y-51528D01*
X73728Y-51701D01*
X73635Y-51927D01*
X73634Y-52171D01*
X73728Y-52397D01*
X73901Y-52571D01*
X74100Y-52653D01*
X74100Y-55884D01*
X73217Y-56767D01*
X73130Y-56896D01*
X73125Y-56922D01*
X73100Y-57050D01*
X73100Y-58050D01*
X73125Y-58177D01*
X73130Y-58203D01*
X73217Y-58332D01*
X74100Y-59215D01*
X74100Y-62446D01*
X73902Y-62528D01*
X73728Y-62701D01*
X73635Y-62927D01*
X73634Y-63171D01*
X73728Y-63397D01*
X73901Y-63571D01*
X74127Y-63664D01*
X74371Y-63665D01*
X74597Y-63571D01*
X74750Y-63419D01*
X74901Y-63571D01*
X75127Y-63664D01*
X75371Y-63665D01*
X75597Y-63571D01*
X75771Y-63398D01*
X75864Y-63172D01*
X75865Y-62928D01*
X75771Y-62702D01*
X75598Y-62528D01*
X75400Y-62446D01*
X75400Y-59215D01*
X76282Y-58332D01*
X76282Y-58332D01*
X76340Y-58246D01*
X76369Y-58203D01*
X76369Y-58203D01*
X76399Y-58050D01*
X76400Y-58050D01*
X76400Y-57050D01*
X76369Y-56896D01*
X76369Y-56896D01*
X76340Y-56853D01*
X76282Y-56767D01*
X76282Y-56767D01*
X75400Y-55884D01*
X75400Y-53715D01*
X76282Y-52832D01*
X76282Y-52832D01*
X76340Y-52746D01*
X76369Y-52703D01*
X76369Y-52703D01*
X76399Y-52550D01*
X76400Y-52550D01*
X76400Y-51550D01*
X76369Y-51396D01*
X76369Y-51396D01*
X76340Y-51353D01*
X76282Y-51267D01*
X76282Y-51267D01*
X75900Y-50884D01*
X75900Y-48465D01*
X76475Y-47890D01*
X76475Y-64725D01*
G54D10*
G36*
X77700Y-33634D02*
X77125Y-34209D01*
X77125Y-31140D01*
X77700Y-31715D01*
X77700Y-33634D01*
X77700Y-33634D01*
G37*
G54D14*
X77700Y-33634D02*
X77125Y-34209D01*
X77125Y-31140D01*
X77700Y-31715D01*
X77700Y-33634D01*
G54D10*
G36*
X78882Y-40647D02*
X78849Y-40680D01*
X78698Y-40528D01*
X78500Y-40446D01*
X78500Y-40265D01*
X78882Y-40647D01*
X78882Y-40647D01*
G37*
G54D14*
X78882Y-40647D02*
X78849Y-40680D01*
X78698Y-40528D01*
X78500Y-40446D01*
X78500Y-40265D01*
X78882Y-40647D01*
G54D10*
G36*
X78894Y-30939D02*
X78850Y-30984D01*
X78805Y-30939D01*
X78850Y-30921D01*
X78894Y-30939D01*
X78894Y-30939D01*
G37*
G54D14*
X78894Y-30939D02*
X78850Y-30984D01*
X78805Y-30939D01*
X78850Y-30921D01*
X78894Y-30939D01*
G54D10*
G36*
X78925Y-34440D02*
X78773Y-34441D01*
X78850Y-34365D01*
X78925Y-34440D01*
X78925Y-34440D01*
G37*
G54D14*
X78925Y-34440D02*
X78773Y-34441D01*
X78850Y-34365D01*
X78925Y-34440D01*
G54D10*
G36*
X78925Y-45440D02*
X78773Y-45441D01*
X78850Y-45365D01*
X78925Y-45440D01*
X78925Y-45440D01*
G37*
G54D14*
X78925Y-45440D02*
X78773Y-45441D01*
X78850Y-45365D01*
X78925Y-45440D01*
G54D10*
G36*
X78925Y-56440D02*
X78773Y-56441D01*
X78850Y-56365D01*
X78925Y-56440D01*
X78925Y-56440D01*
G37*
G54D14*
X78925Y-56440D02*
X78773Y-56441D01*
X78850Y-56365D01*
X78925Y-56440D01*
G54D10*
G36*
X78926Y-36658D02*
X78850Y-36734D01*
X78774Y-36659D01*
X78926Y-36658D01*
X78926Y-36658D01*
G37*
G54D14*
X78926Y-36658D02*
X78850Y-36734D01*
X78774Y-36659D01*
X78926Y-36658D01*
G54D10*
G36*
X78926Y-47658D02*
X78850Y-47734D01*
X78774Y-47659D01*
X78926Y-47658D01*
X78926Y-47658D01*
G37*
G54D14*
X78926Y-47658D02*
X78850Y-47734D01*
X78774Y-47659D01*
X78926Y-47658D01*
G54D10*
G36*
X78926Y-58658D02*
X78850Y-58734D01*
X78774Y-58659D01*
X78926Y-58658D01*
X78926Y-58658D01*
G37*
G54D14*
X78926Y-58658D02*
X78850Y-58734D01*
X78774Y-58659D01*
X78926Y-58658D01*
G54D10*
G36*
X79419Y-41665D02*
X79000Y-42084D01*
X79000Y-41569D01*
X79001Y-41571D01*
X79227Y-41664D01*
X79419Y-41665D01*
X79419Y-41665D01*
G37*
G54D14*
X79419Y-41665D02*
X79000Y-42084D01*
X79000Y-41569D01*
X79001Y-41571D01*
X79227Y-41664D01*
X79419Y-41665D01*
G54D10*
G36*
X79419Y-52665D02*
X79000Y-53084D01*
X79000Y-52569D01*
X79001Y-52571D01*
X79227Y-52664D01*
X79419Y-52665D01*
X79419Y-52665D01*
G37*
G54D14*
X79419Y-52665D02*
X79000Y-53084D01*
X79000Y-52569D01*
X79001Y-52571D01*
X79227Y-52664D01*
X79419Y-52665D01*
G54D10*
G36*
X80575Y-34209D02*
X80000Y-33634D01*
X80000Y-31715D01*
X80575Y-31140D01*
X80575Y-34209D01*
X80575Y-34209D01*
G37*
G54D14*
X80575Y-34209D02*
X80000Y-33634D01*
X80000Y-31715D01*
X80575Y-31140D01*
X80575Y-34209D01*
G54D10*
G36*
X80575Y-39709D02*
X80000Y-39134D01*
X80000Y-37465D01*
X80575Y-36890D01*
X80575Y-39709D01*
X80575Y-39709D01*
G37*
G54D14*
X80575Y-39709D02*
X80000Y-39134D01*
X80000Y-37465D01*
X80575Y-36890D01*
X80575Y-39709D01*
G54D10*
G36*
X80575Y-45209D02*
X80000Y-44634D01*
X80000Y-42965D01*
X80575Y-42390D01*
X80575Y-45209D01*
X80575Y-45209D01*
G37*
G54D14*
X80575Y-45209D02*
X80000Y-44634D01*
X80000Y-42965D01*
X80575Y-42390D01*
X80575Y-45209D01*
G54D10*
G36*
X80575Y-64725D02*
X77125Y-64725D01*
X77125Y-36890D01*
X77700Y-37465D01*
X77700Y-40800D01*
X77725Y-40927D01*
X77730Y-40953D01*
X77735Y-40960D01*
X77734Y-41171D01*
X77828Y-41397D01*
X78001Y-41571D01*
X78093Y-41609D01*
X78200Y-41715D01*
X78200Y-44884D01*
X77317Y-45767D01*
X77230Y-45896D01*
X77225Y-45922D01*
X77200Y-46050D01*
X77200Y-47050D01*
X77225Y-47177D01*
X77230Y-47203D01*
X77317Y-47332D01*
X78200Y-48215D01*
X78200Y-51446D01*
X78002Y-51528D01*
X77828Y-51701D01*
X77735Y-51927D01*
X77734Y-52171D01*
X77828Y-52397D01*
X78001Y-52571D01*
X78200Y-52653D01*
X78200Y-55884D01*
X77317Y-56767D01*
X77230Y-56896D01*
X77225Y-56922D01*
X77200Y-57050D01*
X77200Y-58050D01*
X77225Y-58177D01*
X77230Y-58203D01*
X77317Y-58332D01*
X78200Y-59215D01*
X78200Y-62446D01*
X78002Y-62528D01*
X77828Y-62701D01*
X77735Y-62927D01*
X77734Y-63171D01*
X77828Y-63397D01*
X78001Y-63571D01*
X78227Y-63664D01*
X78471Y-63665D01*
X78697Y-63571D01*
X78850Y-63419D01*
X79001Y-63571D01*
X79227Y-63664D01*
X79471Y-63665D01*
X79697Y-63571D01*
X79871Y-63398D01*
X79964Y-63172D01*
X79965Y-62928D01*
X79871Y-62702D01*
X79698Y-62528D01*
X79500Y-62446D01*
X79500Y-59215D01*
X80382Y-58332D01*
X80382Y-58332D01*
X80440Y-58246D01*
X80469Y-58203D01*
X80469Y-58203D01*
X80499Y-58050D01*
X80500Y-58050D01*
X80500Y-57050D01*
X80469Y-56896D01*
X80469Y-56896D01*
X80440Y-56853D01*
X80382Y-56767D01*
X80382Y-56767D01*
X79500Y-55884D01*
X79500Y-53715D01*
X80382Y-52832D01*
X80382Y-52832D01*
X80440Y-52746D01*
X80469Y-52703D01*
X80469Y-52703D01*
X80499Y-52550D01*
X80500Y-52550D01*
X80500Y-51550D01*
X80469Y-51396D01*
X80469Y-51396D01*
X80440Y-51353D01*
X80382Y-51267D01*
X80382Y-51267D01*
X80000Y-50884D01*
X80000Y-48465D01*
X80575Y-47890D01*
X80575Y-64725D01*
X80575Y-64725D01*
G37*
G54D14*
X80575Y-64725D02*
X77125Y-64725D01*
X77125Y-36890D01*
X77700Y-37465D01*
X77700Y-40800D01*
X77725Y-40927D01*
X77730Y-40953D01*
X77735Y-40960D01*
X77734Y-41171D01*
X77828Y-41397D01*
X78001Y-41571D01*
X78093Y-41609D01*
X78200Y-41715D01*
X78200Y-44884D01*
X77317Y-45767D01*
X77230Y-45896D01*
X77225Y-45922D01*
X77200Y-46050D01*
X77200Y-47050D01*
X77225Y-47177D01*
X77230Y-47203D01*
X77317Y-47332D01*
X78200Y-48215D01*
X78200Y-51446D01*
X78002Y-51528D01*
X77828Y-51701D01*
X77735Y-51927D01*
X77734Y-52171D01*
X77828Y-52397D01*
X78001Y-52571D01*
X78200Y-52653D01*
X78200Y-55884D01*
X77317Y-56767D01*
X77230Y-56896D01*
X77225Y-56922D01*
X77200Y-57050D01*
X77200Y-58050D01*
X77225Y-58177D01*
X77230Y-58203D01*
X77317Y-58332D01*
X78200Y-59215D01*
X78200Y-62446D01*
X78002Y-62528D01*
X77828Y-62701D01*
X77735Y-62927D01*
X77734Y-63171D01*
X77828Y-63397D01*
X78001Y-63571D01*
X78227Y-63664D01*
X78471Y-63665D01*
X78697Y-63571D01*
X78850Y-63419D01*
X79001Y-63571D01*
X79227Y-63664D01*
X79471Y-63665D01*
X79697Y-63571D01*
X79871Y-63398D01*
X79964Y-63172D01*
X79965Y-62928D01*
X79871Y-62702D01*
X79698Y-62528D01*
X79500Y-62446D01*
X79500Y-59215D01*
X80382Y-58332D01*
X80382Y-58332D01*
X80440Y-58246D01*
X80469Y-58203D01*
X80469Y-58203D01*
X80499Y-58050D01*
X80500Y-58050D01*
X80500Y-57050D01*
X80469Y-56896D01*
X80469Y-56896D01*
X80440Y-56853D01*
X80382Y-56767D01*
X80382Y-56767D01*
X79500Y-55884D01*
X79500Y-53715D01*
X80382Y-52832D01*
X80382Y-52832D01*
X80440Y-52746D01*
X80469Y-52703D01*
X80469Y-52703D01*
X80499Y-52550D01*
X80500Y-52550D01*
X80500Y-51550D01*
X80469Y-51396D01*
X80469Y-51396D01*
X80440Y-51353D01*
X80382Y-51267D01*
X80382Y-51267D01*
X80000Y-50884D01*
X80000Y-48465D01*
X80575Y-47890D01*
X80575Y-64725D01*
G54D10*
G36*
X81800Y-33634D02*
X81225Y-34209D01*
X81225Y-31140D01*
X81800Y-31715D01*
X81800Y-33634D01*
X81800Y-33634D01*
G37*
G54D14*
X81800Y-33634D02*
X81225Y-34209D01*
X81225Y-31140D01*
X81800Y-31715D01*
X81800Y-33634D01*
G54D10*
G36*
X82982Y-40647D02*
X82949Y-40680D01*
X82798Y-40528D01*
X82600Y-40446D01*
X82600Y-40265D01*
X82982Y-40647D01*
X82982Y-40647D01*
G37*
G54D14*
X82982Y-40647D02*
X82949Y-40680D01*
X82798Y-40528D01*
X82600Y-40446D01*
X82600Y-40265D01*
X82982Y-40647D01*
G54D10*
G36*
X82994Y-30939D02*
X82950Y-30984D01*
X82905Y-30939D01*
X82950Y-30921D01*
X82994Y-30939D01*
X82994Y-30939D01*
G37*
G54D14*
X82994Y-30939D02*
X82950Y-30984D01*
X82905Y-30939D01*
X82950Y-30921D01*
X82994Y-30939D01*
G54D10*
G36*
X83025Y-34440D02*
X82873Y-34441D01*
X82950Y-34365D01*
X83025Y-34440D01*
X83025Y-34440D01*
G37*
G54D14*
X83025Y-34440D02*
X82873Y-34441D01*
X82950Y-34365D01*
X83025Y-34440D01*
G54D10*
G36*
X83025Y-45440D02*
X82873Y-45441D01*
X82950Y-45365D01*
X83025Y-45440D01*
X83025Y-45440D01*
G37*
G54D14*
X83025Y-45440D02*
X82873Y-45441D01*
X82950Y-45365D01*
X83025Y-45440D01*
G54D10*
G36*
X83025Y-56440D02*
X82873Y-56441D01*
X82950Y-56365D01*
X83025Y-56440D01*
X83025Y-56440D01*
G37*
G54D14*
X83025Y-56440D02*
X82873Y-56441D01*
X82950Y-56365D01*
X83025Y-56440D01*
G54D10*
G36*
X83026Y-36658D02*
X82950Y-36734D01*
X82874Y-36659D01*
X83026Y-36658D01*
X83026Y-36658D01*
G37*
G54D14*
X83026Y-36658D02*
X82950Y-36734D01*
X82874Y-36659D01*
X83026Y-36658D01*
G54D10*
G36*
X83026Y-47658D02*
X82950Y-47734D01*
X82874Y-47659D01*
X83026Y-47658D01*
X83026Y-47658D01*
G37*
G54D14*
X83026Y-47658D02*
X82950Y-47734D01*
X82874Y-47659D01*
X83026Y-47658D01*
G54D10*
G36*
X83026Y-58658D02*
X82950Y-58734D01*
X82874Y-58659D01*
X83026Y-58658D01*
X83026Y-58658D01*
G37*
G54D14*
X83026Y-58658D02*
X82950Y-58734D01*
X82874Y-58659D01*
X83026Y-58658D01*
G54D10*
G36*
X83519Y-41665D02*
X83100Y-42084D01*
X83100Y-41569D01*
X83101Y-41571D01*
X83327Y-41664D01*
X83519Y-41665D01*
X83519Y-41665D01*
G37*
G54D14*
X83519Y-41665D02*
X83100Y-42084D01*
X83100Y-41569D01*
X83101Y-41571D01*
X83327Y-41664D01*
X83519Y-41665D01*
G54D10*
G36*
X83519Y-52665D02*
X83100Y-53084D01*
X83100Y-52569D01*
X83101Y-52571D01*
X83327Y-52664D01*
X83519Y-52665D01*
X83519Y-52665D01*
G37*
G54D14*
X83519Y-52665D02*
X83100Y-53084D01*
X83100Y-52569D01*
X83101Y-52571D01*
X83327Y-52664D01*
X83519Y-52665D01*
G54D10*
G36*
X84675Y-34209D02*
X84100Y-33634D01*
X84100Y-31715D01*
X84675Y-31140D01*
X84675Y-34209D01*
X84675Y-34209D01*
G37*
G54D14*
X84675Y-34209D02*
X84100Y-33634D01*
X84100Y-31715D01*
X84675Y-31140D01*
X84675Y-34209D01*
G54D10*
G36*
X84675Y-39709D02*
X84100Y-39134D01*
X84100Y-37465D01*
X84675Y-36890D01*
X84675Y-39709D01*
X84675Y-39709D01*
G37*
G54D14*
X84675Y-39709D02*
X84100Y-39134D01*
X84100Y-37465D01*
X84675Y-36890D01*
X84675Y-39709D01*
G54D10*
G36*
X84675Y-45209D02*
X84100Y-44634D01*
X84100Y-42965D01*
X84675Y-42390D01*
X84675Y-45209D01*
X84675Y-45209D01*
G37*
G54D14*
X84675Y-45209D02*
X84100Y-44634D01*
X84100Y-42965D01*
X84675Y-42390D01*
X84675Y-45209D01*
G54D10*
G36*
X84675Y-64725D02*
X81225Y-64725D01*
X81225Y-36890D01*
X81800Y-37465D01*
X81800Y-40800D01*
X81825Y-40927D01*
X81830Y-40953D01*
X81835Y-40960D01*
X81834Y-41171D01*
X81928Y-41397D01*
X82101Y-41571D01*
X82193Y-41609D01*
X82300Y-41715D01*
X82300Y-44884D01*
X81417Y-45767D01*
X81330Y-45896D01*
X81325Y-45922D01*
X81300Y-46050D01*
X81300Y-47050D01*
X81325Y-47177D01*
X81330Y-47203D01*
X81417Y-47332D01*
X82300Y-48215D01*
X82300Y-51446D01*
X82102Y-51528D01*
X81928Y-51701D01*
X81835Y-51927D01*
X81834Y-52171D01*
X81928Y-52397D01*
X82101Y-52571D01*
X82300Y-52653D01*
X82300Y-55884D01*
X81417Y-56767D01*
X81330Y-56896D01*
X81325Y-56922D01*
X81300Y-57050D01*
X81300Y-58050D01*
X81325Y-58177D01*
X81330Y-58203D01*
X81417Y-58332D01*
X82300Y-59215D01*
X82300Y-62446D01*
X82102Y-62528D01*
X81928Y-62701D01*
X81835Y-62927D01*
X81834Y-63171D01*
X81928Y-63397D01*
X82101Y-63571D01*
X82327Y-63664D01*
X82571Y-63665D01*
X82797Y-63571D01*
X82950Y-63419D01*
X83101Y-63571D01*
X83327Y-63664D01*
X83571Y-63665D01*
X83797Y-63571D01*
X83971Y-63398D01*
X84064Y-63172D01*
X84065Y-62928D01*
X83971Y-62702D01*
X83798Y-62528D01*
X83600Y-62446D01*
X83600Y-59215D01*
X84482Y-58332D01*
X84482Y-58332D01*
X84540Y-58246D01*
X84569Y-58203D01*
X84569Y-58203D01*
X84599Y-58050D01*
X84600Y-58050D01*
X84600Y-57050D01*
X84569Y-56896D01*
X84569Y-56896D01*
X84540Y-56853D01*
X84482Y-56767D01*
X84482Y-56767D01*
X83600Y-55884D01*
X83600Y-53715D01*
X84482Y-52832D01*
X84482Y-52832D01*
X84540Y-52746D01*
X84569Y-52703D01*
X84569Y-52703D01*
X84599Y-52550D01*
X84600Y-52550D01*
X84600Y-51550D01*
X84569Y-51396D01*
X84569Y-51396D01*
X84540Y-51353D01*
X84482Y-51267D01*
X84482Y-51267D01*
X84100Y-50884D01*
X84100Y-48465D01*
X84675Y-47890D01*
X84675Y-64725D01*
X84675Y-64725D01*
G37*
G54D14*
X84675Y-64725D02*
X81225Y-64725D01*
X81225Y-36890D01*
X81800Y-37465D01*
X81800Y-40800D01*
X81825Y-40927D01*
X81830Y-40953D01*
X81835Y-40960D01*
X81834Y-41171D01*
X81928Y-41397D01*
X82101Y-41571D01*
X82193Y-41609D01*
X82300Y-41715D01*
X82300Y-44884D01*
X81417Y-45767D01*
X81330Y-45896D01*
X81325Y-45922D01*
X81300Y-46050D01*
X81300Y-47050D01*
X81325Y-47177D01*
X81330Y-47203D01*
X81417Y-47332D01*
X82300Y-48215D01*
X82300Y-51446D01*
X82102Y-51528D01*
X81928Y-51701D01*
X81835Y-51927D01*
X81834Y-52171D01*
X81928Y-52397D01*
X82101Y-52571D01*
X82300Y-52653D01*
X82300Y-55884D01*
X81417Y-56767D01*
X81330Y-56896D01*
X81325Y-56922D01*
X81300Y-57050D01*
X81300Y-58050D01*
X81325Y-58177D01*
X81330Y-58203D01*
X81417Y-58332D01*
X82300Y-59215D01*
X82300Y-62446D01*
X82102Y-62528D01*
X81928Y-62701D01*
X81835Y-62927D01*
X81834Y-63171D01*
X81928Y-63397D01*
X82101Y-63571D01*
X82327Y-63664D01*
X82571Y-63665D01*
X82797Y-63571D01*
X82950Y-63419D01*
X83101Y-63571D01*
X83327Y-63664D01*
X83571Y-63665D01*
X83797Y-63571D01*
X83971Y-63398D01*
X84064Y-63172D01*
X84065Y-62928D01*
X83971Y-62702D01*
X83798Y-62528D01*
X83600Y-62446D01*
X83600Y-59215D01*
X84482Y-58332D01*
X84482Y-58332D01*
X84540Y-58246D01*
X84569Y-58203D01*
X84569Y-58203D01*
X84599Y-58050D01*
X84600Y-58050D01*
X84600Y-57050D01*
X84569Y-56896D01*
X84569Y-56896D01*
X84540Y-56853D01*
X84482Y-56767D01*
X84482Y-56767D01*
X83600Y-55884D01*
X83600Y-53715D01*
X84482Y-52832D01*
X84482Y-52832D01*
X84540Y-52746D01*
X84569Y-52703D01*
X84569Y-52703D01*
X84599Y-52550D01*
X84600Y-52550D01*
X84600Y-51550D01*
X84569Y-51396D01*
X84569Y-51396D01*
X84540Y-51353D01*
X84482Y-51267D01*
X84482Y-51267D01*
X84100Y-50884D01*
X84100Y-48465D01*
X84675Y-47890D01*
X84675Y-64725D01*
G54D10*
G36*
X85900Y-33634D02*
X85325Y-34209D01*
X85325Y-31140D01*
X85900Y-31715D01*
X85900Y-33634D01*
X85900Y-33634D01*
G37*
G54D14*
X85900Y-33634D02*
X85325Y-34209D01*
X85325Y-31140D01*
X85900Y-31715D01*
X85900Y-33634D01*
G54D10*
G36*
X87082Y-40647D02*
X87049Y-40680D01*
X86898Y-40528D01*
X86700Y-40446D01*
X86700Y-40265D01*
X87082Y-40647D01*
X87082Y-40647D01*
G37*
G54D14*
X87082Y-40647D02*
X87049Y-40680D01*
X86898Y-40528D01*
X86700Y-40446D01*
X86700Y-40265D01*
X87082Y-40647D01*
G54D10*
G36*
X87094Y-30939D02*
X87050Y-30984D01*
X87005Y-30939D01*
X87050Y-30921D01*
X87094Y-30939D01*
X87094Y-30939D01*
G37*
G54D14*
X87094Y-30939D02*
X87050Y-30984D01*
X87005Y-30939D01*
X87050Y-30921D01*
X87094Y-30939D01*
G54D10*
G36*
X87125Y-34440D02*
X86973Y-34441D01*
X87050Y-34365D01*
X87125Y-34440D01*
X87125Y-34440D01*
G37*
G54D14*
X87125Y-34440D02*
X86973Y-34441D01*
X87050Y-34365D01*
X87125Y-34440D01*
G54D10*
G36*
X87125Y-45440D02*
X86973Y-45441D01*
X87050Y-45365D01*
X87125Y-45440D01*
X87125Y-45440D01*
G37*
G54D14*
X87125Y-45440D02*
X86973Y-45441D01*
X87050Y-45365D01*
X87125Y-45440D01*
G54D10*
G36*
X87125Y-56440D02*
X86973Y-56441D01*
X87050Y-56365D01*
X87125Y-56440D01*
X87125Y-56440D01*
G37*
G54D14*
X87125Y-56440D02*
X86973Y-56441D01*
X87050Y-56365D01*
X87125Y-56440D01*
G54D10*
G36*
X87126Y-36658D02*
X87050Y-36734D01*
X86974Y-36659D01*
X87126Y-36658D01*
X87126Y-36658D01*
G37*
G54D14*
X87126Y-36658D02*
X87050Y-36734D01*
X86974Y-36659D01*
X87126Y-36658D01*
G54D10*
G36*
X87126Y-47658D02*
X87050Y-47734D01*
X86974Y-47659D01*
X87126Y-47658D01*
X87126Y-47658D01*
G37*
G54D14*
X87126Y-47658D02*
X87050Y-47734D01*
X86974Y-47659D01*
X87126Y-47658D01*
G54D10*
G36*
X87126Y-58658D02*
X87050Y-58734D01*
X86974Y-58659D01*
X87126Y-58658D01*
X87126Y-58658D01*
G37*
G54D14*
X87126Y-58658D02*
X87050Y-58734D01*
X86974Y-58659D01*
X87126Y-58658D01*
G54D10*
G36*
X87619Y-41665D02*
X87200Y-42084D01*
X87200Y-41569D01*
X87201Y-41571D01*
X87427Y-41664D01*
X87619Y-41665D01*
X87619Y-41665D01*
G37*
G54D14*
X87619Y-41665D02*
X87200Y-42084D01*
X87200Y-41569D01*
X87201Y-41571D01*
X87427Y-41664D01*
X87619Y-41665D01*
G54D10*
G36*
X87619Y-52665D02*
X87200Y-53084D01*
X87200Y-52569D01*
X87201Y-52571D01*
X87427Y-52664D01*
X87619Y-52665D01*
X87619Y-52665D01*
G37*
G54D14*
X87619Y-52665D02*
X87200Y-53084D01*
X87200Y-52569D01*
X87201Y-52571D01*
X87427Y-52664D01*
X87619Y-52665D01*
G54D10*
G36*
X88775Y-34209D02*
X88200Y-33634D01*
X88200Y-31715D01*
X88775Y-31140D01*
X88775Y-34209D01*
X88775Y-34209D01*
G37*
G54D14*
X88775Y-34209D02*
X88200Y-33634D01*
X88200Y-31715D01*
X88775Y-31140D01*
X88775Y-34209D01*
G54D10*
G36*
X88775Y-39709D02*
X88200Y-39134D01*
X88200Y-37465D01*
X88775Y-36890D01*
X88775Y-39709D01*
X88775Y-39709D01*
G37*
G54D14*
X88775Y-39709D02*
X88200Y-39134D01*
X88200Y-37465D01*
X88775Y-36890D01*
X88775Y-39709D01*
G54D10*
G36*
X88775Y-45209D02*
X88200Y-44634D01*
X88200Y-42965D01*
X88775Y-42390D01*
X88775Y-45209D01*
X88775Y-45209D01*
G37*
G54D14*
X88775Y-45209D02*
X88200Y-44634D01*
X88200Y-42965D01*
X88775Y-42390D01*
X88775Y-45209D01*
G54D10*
G36*
X88775Y-64725D02*
X85325Y-64725D01*
X85325Y-36890D01*
X85900Y-37465D01*
X85900Y-40800D01*
X85925Y-40927D01*
X85930Y-40953D01*
X85935Y-40960D01*
X85934Y-41171D01*
X86028Y-41397D01*
X86201Y-41571D01*
X86293Y-41609D01*
X86400Y-41715D01*
X86400Y-44884D01*
X85517Y-45767D01*
X85430Y-45896D01*
X85425Y-45922D01*
X85400Y-46050D01*
X85400Y-47050D01*
X85425Y-47177D01*
X85430Y-47203D01*
X85517Y-47332D01*
X86400Y-48215D01*
X86400Y-51446D01*
X86202Y-51528D01*
X86028Y-51701D01*
X85935Y-51927D01*
X85934Y-52171D01*
X86028Y-52397D01*
X86201Y-52571D01*
X86400Y-52653D01*
X86400Y-55884D01*
X85517Y-56767D01*
X85430Y-56896D01*
X85425Y-56922D01*
X85400Y-57050D01*
X85400Y-58050D01*
X85425Y-58177D01*
X85430Y-58203D01*
X85517Y-58332D01*
X86400Y-59215D01*
X86400Y-62446D01*
X86202Y-62528D01*
X86028Y-62701D01*
X85935Y-62927D01*
X85934Y-63171D01*
X86028Y-63397D01*
X86201Y-63571D01*
X86427Y-63664D01*
X86671Y-63665D01*
X86897Y-63571D01*
X87050Y-63419D01*
X87201Y-63571D01*
X87427Y-63664D01*
X87671Y-63665D01*
X87897Y-63571D01*
X88071Y-63398D01*
X88164Y-63172D01*
X88165Y-62928D01*
X88071Y-62702D01*
X87898Y-62528D01*
X87700Y-62446D01*
X87700Y-59215D01*
X88582Y-58332D01*
X88582Y-58332D01*
X88640Y-58246D01*
X88669Y-58203D01*
X88669Y-58203D01*
X88699Y-58050D01*
X88700Y-58050D01*
X88700Y-57050D01*
X88669Y-56896D01*
X88669Y-56896D01*
X88640Y-56853D01*
X88582Y-56767D01*
X88582Y-56767D01*
X87700Y-55884D01*
X87700Y-53715D01*
X88582Y-52832D01*
X88582Y-52832D01*
X88640Y-52746D01*
X88669Y-52703D01*
X88669Y-52703D01*
X88699Y-52550D01*
X88700Y-52550D01*
X88700Y-51550D01*
X88669Y-51396D01*
X88669Y-51396D01*
X88640Y-51353D01*
X88582Y-51267D01*
X88582Y-51267D01*
X88200Y-50884D01*
X88200Y-48465D01*
X88775Y-47890D01*
X88775Y-64725D01*
X88775Y-64725D01*
G37*
G54D14*
X88775Y-64725D02*
X85325Y-64725D01*
X85325Y-36890D01*
X85900Y-37465D01*
X85900Y-40800D01*
X85925Y-40927D01*
X85930Y-40953D01*
X85935Y-40960D01*
X85934Y-41171D01*
X86028Y-41397D01*
X86201Y-41571D01*
X86293Y-41609D01*
X86400Y-41715D01*
X86400Y-44884D01*
X85517Y-45767D01*
X85430Y-45896D01*
X85425Y-45922D01*
X85400Y-46050D01*
X85400Y-47050D01*
X85425Y-47177D01*
X85430Y-47203D01*
X85517Y-47332D01*
X86400Y-48215D01*
X86400Y-51446D01*
X86202Y-51528D01*
X86028Y-51701D01*
X85935Y-51927D01*
X85934Y-52171D01*
X86028Y-52397D01*
X86201Y-52571D01*
X86400Y-52653D01*
X86400Y-55884D01*
X85517Y-56767D01*
X85430Y-56896D01*
X85425Y-56922D01*
X85400Y-57050D01*
X85400Y-58050D01*
X85425Y-58177D01*
X85430Y-58203D01*
X85517Y-58332D01*
X86400Y-59215D01*
X86400Y-62446D01*
X86202Y-62528D01*
X86028Y-62701D01*
X85935Y-62927D01*
X85934Y-63171D01*
X86028Y-63397D01*
X86201Y-63571D01*
X86427Y-63664D01*
X86671Y-63665D01*
X86897Y-63571D01*
X87050Y-63419D01*
X87201Y-63571D01*
X87427Y-63664D01*
X87671Y-63665D01*
X87897Y-63571D01*
X88071Y-63398D01*
X88164Y-63172D01*
X88165Y-62928D01*
X88071Y-62702D01*
X87898Y-62528D01*
X87700Y-62446D01*
X87700Y-59215D01*
X88582Y-58332D01*
X88582Y-58332D01*
X88640Y-58246D01*
X88669Y-58203D01*
X88669Y-58203D01*
X88699Y-58050D01*
X88700Y-58050D01*
X88700Y-57050D01*
X88669Y-56896D01*
X88669Y-56896D01*
X88640Y-56853D01*
X88582Y-56767D01*
X88582Y-56767D01*
X87700Y-55884D01*
X87700Y-53715D01*
X88582Y-52832D01*
X88582Y-52832D01*
X88640Y-52746D01*
X88669Y-52703D01*
X88669Y-52703D01*
X88699Y-52550D01*
X88700Y-52550D01*
X88700Y-51550D01*
X88669Y-51396D01*
X88669Y-51396D01*
X88640Y-51353D01*
X88582Y-51267D01*
X88582Y-51267D01*
X88200Y-50884D01*
X88200Y-48465D01*
X88775Y-47890D01*
X88775Y-64725D01*
G54D10*
G36*
X90000Y-33634D02*
X89425Y-34209D01*
X89425Y-31140D01*
X90000Y-31715D01*
X90000Y-33634D01*
X90000Y-33634D01*
G37*
G54D14*
X90000Y-33634D02*
X89425Y-34209D01*
X89425Y-31140D01*
X90000Y-31715D01*
X90000Y-33634D01*
G54D10*
G36*
X91182Y-40647D02*
X91149Y-40680D01*
X90998Y-40528D01*
X90800Y-40446D01*
X90800Y-40265D01*
X91182Y-40647D01*
X91182Y-40647D01*
G37*
G54D14*
X91182Y-40647D02*
X91149Y-40680D01*
X90998Y-40528D01*
X90800Y-40446D01*
X90800Y-40265D01*
X91182Y-40647D01*
G54D10*
G36*
X91194Y-30939D02*
X91150Y-30984D01*
X91105Y-30939D01*
X91150Y-30921D01*
X91194Y-30939D01*
X91194Y-30939D01*
G37*
G54D14*
X91194Y-30939D02*
X91150Y-30984D01*
X91105Y-30939D01*
X91150Y-30921D01*
X91194Y-30939D01*
G54D10*
G36*
X91225Y-34440D02*
X91073Y-34441D01*
X91150Y-34365D01*
X91225Y-34440D01*
X91225Y-34440D01*
G37*
G54D14*
X91225Y-34440D02*
X91073Y-34441D01*
X91150Y-34365D01*
X91225Y-34440D01*
G54D10*
G36*
X91225Y-45440D02*
X91073Y-45441D01*
X91150Y-45365D01*
X91225Y-45440D01*
X91225Y-45440D01*
G37*
G54D14*
X91225Y-45440D02*
X91073Y-45441D01*
X91150Y-45365D01*
X91225Y-45440D01*
G54D10*
G36*
X91225Y-56440D02*
X91073Y-56441D01*
X91150Y-56365D01*
X91225Y-56440D01*
X91225Y-56440D01*
G37*
G54D14*
X91225Y-56440D02*
X91073Y-56441D01*
X91150Y-56365D01*
X91225Y-56440D01*
G54D10*
G36*
X91226Y-36658D02*
X91150Y-36734D01*
X91074Y-36659D01*
X91226Y-36658D01*
X91226Y-36658D01*
G37*
G54D14*
X91226Y-36658D02*
X91150Y-36734D01*
X91074Y-36659D01*
X91226Y-36658D01*
G54D10*
G36*
X91226Y-47658D02*
X91150Y-47734D01*
X91074Y-47659D01*
X91226Y-47658D01*
X91226Y-47658D01*
G37*
G54D14*
X91226Y-47658D02*
X91150Y-47734D01*
X91074Y-47659D01*
X91226Y-47658D01*
G54D10*
G36*
X91226Y-58658D02*
X91150Y-58734D01*
X91074Y-58659D01*
X91226Y-58658D01*
X91226Y-58658D01*
G37*
G54D14*
X91226Y-58658D02*
X91150Y-58734D01*
X91074Y-58659D01*
X91226Y-58658D01*
G54D10*
G36*
X91719Y-41665D02*
X91300Y-42084D01*
X91300Y-41569D01*
X91301Y-41571D01*
X91527Y-41664D01*
X91719Y-41665D01*
X91719Y-41665D01*
G37*
G54D14*
X91719Y-41665D02*
X91300Y-42084D01*
X91300Y-41569D01*
X91301Y-41571D01*
X91527Y-41664D01*
X91719Y-41665D01*
G54D10*
G36*
X91719Y-52665D02*
X91300Y-53084D01*
X91300Y-52569D01*
X91301Y-52571D01*
X91527Y-52664D01*
X91719Y-52665D01*
X91719Y-52665D01*
G37*
G54D14*
X91719Y-52665D02*
X91300Y-53084D01*
X91300Y-52569D01*
X91301Y-52571D01*
X91527Y-52664D01*
X91719Y-52665D01*
G54D10*
G36*
X92875Y-34209D02*
X92300Y-33634D01*
X92300Y-31715D01*
X92875Y-31140D01*
X92875Y-34209D01*
X92875Y-34209D01*
G37*
G54D14*
X92875Y-34209D02*
X92300Y-33634D01*
X92300Y-31715D01*
X92875Y-31140D01*
X92875Y-34209D01*
G54D10*
G36*
X92875Y-39709D02*
X92300Y-39134D01*
X92300Y-37465D01*
X92875Y-36890D01*
X92875Y-39709D01*
X92875Y-39709D01*
G37*
G54D14*
X92875Y-39709D02*
X92300Y-39134D01*
X92300Y-37465D01*
X92875Y-36890D01*
X92875Y-39709D01*
G54D10*
G36*
X92875Y-45209D02*
X92300Y-44634D01*
X92300Y-42965D01*
X92875Y-42390D01*
X92875Y-45209D01*
X92875Y-45209D01*
G37*
G54D14*
X92875Y-45209D02*
X92300Y-44634D01*
X92300Y-42965D01*
X92875Y-42390D01*
X92875Y-45209D01*
G54D10*
G36*
X92875Y-64725D02*
X89425Y-64725D01*
X89425Y-36890D01*
X90000Y-37465D01*
X90000Y-40800D01*
X90025Y-40927D01*
X90030Y-40953D01*
X90035Y-40960D01*
X90034Y-41171D01*
X90128Y-41397D01*
X90301Y-41571D01*
X90393Y-41609D01*
X90500Y-41715D01*
X90500Y-44884D01*
X89617Y-45767D01*
X89530Y-45896D01*
X89525Y-45922D01*
X89500Y-46050D01*
X89500Y-47050D01*
X89525Y-47177D01*
X89530Y-47203D01*
X89617Y-47332D01*
X90500Y-48215D01*
X90500Y-51446D01*
X90302Y-51528D01*
X90128Y-51701D01*
X90035Y-51927D01*
X90034Y-52171D01*
X90128Y-52397D01*
X90301Y-52571D01*
X90500Y-52653D01*
X90500Y-55884D01*
X89617Y-56767D01*
X89530Y-56896D01*
X89525Y-56922D01*
X89500Y-57050D01*
X89500Y-58050D01*
X89525Y-58177D01*
X89530Y-58203D01*
X89617Y-58332D01*
X90500Y-59215D01*
X90500Y-62446D01*
X90302Y-62528D01*
X90128Y-62701D01*
X90035Y-62927D01*
X90034Y-63171D01*
X90128Y-63397D01*
X90301Y-63571D01*
X90527Y-63664D01*
X90771Y-63665D01*
X90997Y-63571D01*
X91150Y-63419D01*
X91301Y-63571D01*
X91527Y-63664D01*
X91771Y-63665D01*
X91997Y-63571D01*
X92171Y-63398D01*
X92264Y-63172D01*
X92265Y-62928D01*
X92171Y-62702D01*
X91998Y-62528D01*
X91800Y-62446D01*
X91800Y-59215D01*
X92682Y-58332D01*
X92682Y-58332D01*
X92740Y-58246D01*
X92769Y-58203D01*
X92769Y-58203D01*
X92799Y-58050D01*
X92800Y-58050D01*
X92800Y-57050D01*
X92769Y-56896D01*
X92769Y-56896D01*
X92740Y-56853D01*
X92682Y-56767D01*
X92682Y-56767D01*
X91800Y-55884D01*
X91800Y-53715D01*
X92682Y-52832D01*
X92682Y-52832D01*
X92740Y-52746D01*
X92769Y-52703D01*
X92769Y-52703D01*
X92799Y-52550D01*
X92800Y-52550D01*
X92800Y-51550D01*
X92769Y-51396D01*
X92769Y-51396D01*
X92740Y-51353D01*
X92682Y-51267D01*
X92682Y-51267D01*
X92300Y-50884D01*
X92300Y-48465D01*
X92875Y-47890D01*
X92875Y-64725D01*
X92875Y-64725D01*
G37*
G54D14*
X92875Y-64725D02*
X89425Y-64725D01*
X89425Y-36890D01*
X90000Y-37465D01*
X90000Y-40800D01*
X90025Y-40927D01*
X90030Y-40953D01*
X90035Y-40960D01*
X90034Y-41171D01*
X90128Y-41397D01*
X90301Y-41571D01*
X90393Y-41609D01*
X90500Y-41715D01*
X90500Y-44884D01*
X89617Y-45767D01*
X89530Y-45896D01*
X89525Y-45922D01*
X89500Y-46050D01*
X89500Y-47050D01*
X89525Y-47177D01*
X89530Y-47203D01*
X89617Y-47332D01*
X90500Y-48215D01*
X90500Y-51446D01*
X90302Y-51528D01*
X90128Y-51701D01*
X90035Y-51927D01*
X90034Y-52171D01*
X90128Y-52397D01*
X90301Y-52571D01*
X90500Y-52653D01*
X90500Y-55884D01*
X89617Y-56767D01*
X89530Y-56896D01*
X89525Y-56922D01*
X89500Y-57050D01*
X89500Y-58050D01*
X89525Y-58177D01*
X89530Y-58203D01*
X89617Y-58332D01*
X90500Y-59215D01*
X90500Y-62446D01*
X90302Y-62528D01*
X90128Y-62701D01*
X90035Y-62927D01*
X90034Y-63171D01*
X90128Y-63397D01*
X90301Y-63571D01*
X90527Y-63664D01*
X90771Y-63665D01*
X90997Y-63571D01*
X91150Y-63419D01*
X91301Y-63571D01*
X91527Y-63664D01*
X91771Y-63665D01*
X91997Y-63571D01*
X92171Y-63398D01*
X92264Y-63172D01*
X92265Y-62928D01*
X92171Y-62702D01*
X91998Y-62528D01*
X91800Y-62446D01*
X91800Y-59215D01*
X92682Y-58332D01*
X92682Y-58332D01*
X92740Y-58246D01*
X92769Y-58203D01*
X92769Y-58203D01*
X92799Y-58050D01*
X92800Y-58050D01*
X92800Y-57050D01*
X92769Y-56896D01*
X92769Y-56896D01*
X92740Y-56853D01*
X92682Y-56767D01*
X92682Y-56767D01*
X91800Y-55884D01*
X91800Y-53715D01*
X92682Y-52832D01*
X92682Y-52832D01*
X92740Y-52746D01*
X92769Y-52703D01*
X92769Y-52703D01*
X92799Y-52550D01*
X92800Y-52550D01*
X92800Y-51550D01*
X92769Y-51396D01*
X92769Y-51396D01*
X92740Y-51353D01*
X92682Y-51267D01*
X92682Y-51267D01*
X92300Y-50884D01*
X92300Y-48465D01*
X92875Y-47890D01*
X92875Y-64725D01*
G54D10*
G36*
X94100Y-33634D02*
X93525Y-34209D01*
X93525Y-31140D01*
X94100Y-31715D01*
X94100Y-33634D01*
X94100Y-33634D01*
G37*
G54D14*
X94100Y-33634D02*
X93525Y-34209D01*
X93525Y-31140D01*
X94100Y-31715D01*
X94100Y-33634D01*
G54D10*
G36*
X95282Y-40647D02*
X95249Y-40680D01*
X95098Y-40528D01*
X94900Y-40446D01*
X94900Y-40265D01*
X95282Y-40647D01*
X95282Y-40647D01*
G37*
G54D14*
X95282Y-40647D02*
X95249Y-40680D01*
X95098Y-40528D01*
X94900Y-40446D01*
X94900Y-40265D01*
X95282Y-40647D01*
G54D10*
G36*
X95294Y-30939D02*
X95250Y-30984D01*
X95205Y-30939D01*
X95250Y-30921D01*
X95294Y-30939D01*
X95294Y-30939D01*
G37*
G54D14*
X95294Y-30939D02*
X95250Y-30984D01*
X95205Y-30939D01*
X95250Y-30921D01*
X95294Y-30939D01*
G54D10*
G36*
X95325Y-34440D02*
X95173Y-34441D01*
X95250Y-34365D01*
X95325Y-34440D01*
X95325Y-34440D01*
G37*
G54D14*
X95325Y-34440D02*
X95173Y-34441D01*
X95250Y-34365D01*
X95325Y-34440D01*
G54D10*
G36*
X95325Y-45440D02*
X95173Y-45441D01*
X95250Y-45365D01*
X95325Y-45440D01*
X95325Y-45440D01*
G37*
G54D14*
X95325Y-45440D02*
X95173Y-45441D01*
X95250Y-45365D01*
X95325Y-45440D01*
G54D10*
G36*
X95325Y-56440D02*
X95173Y-56441D01*
X95250Y-56365D01*
X95325Y-56440D01*
X95325Y-56440D01*
G37*
G54D14*
X95325Y-56440D02*
X95173Y-56441D01*
X95250Y-56365D01*
X95325Y-56440D01*
G54D10*
G36*
X95326Y-36658D02*
X95250Y-36734D01*
X95174Y-36659D01*
X95326Y-36658D01*
X95326Y-36658D01*
G37*
G54D14*
X95326Y-36658D02*
X95250Y-36734D01*
X95174Y-36659D01*
X95326Y-36658D01*
G54D10*
G36*
X95326Y-47658D02*
X95250Y-47734D01*
X95174Y-47659D01*
X95326Y-47658D01*
X95326Y-47658D01*
G37*
G54D14*
X95326Y-47658D02*
X95250Y-47734D01*
X95174Y-47659D01*
X95326Y-47658D01*
G54D10*
G36*
X95326Y-58658D02*
X95250Y-58734D01*
X95174Y-58659D01*
X95326Y-58658D01*
X95326Y-58658D01*
G37*
G54D14*
X95326Y-58658D02*
X95250Y-58734D01*
X95174Y-58659D01*
X95326Y-58658D01*
G54D10*
G36*
X95819Y-41665D02*
X95400Y-42084D01*
X95400Y-41569D01*
X95401Y-41571D01*
X95627Y-41664D01*
X95819Y-41665D01*
X95819Y-41665D01*
G37*
G54D14*
X95819Y-41665D02*
X95400Y-42084D01*
X95400Y-41569D01*
X95401Y-41571D01*
X95627Y-41664D01*
X95819Y-41665D01*
G54D10*
G36*
X95819Y-52665D02*
X95400Y-53084D01*
X95400Y-52569D01*
X95401Y-52571D01*
X95627Y-52664D01*
X95819Y-52665D01*
X95819Y-52665D01*
G37*
G54D14*
X95819Y-52665D02*
X95400Y-53084D01*
X95400Y-52569D01*
X95401Y-52571D01*
X95627Y-52664D01*
X95819Y-52665D01*
G54D10*
G36*
X96975Y-34209D02*
X96400Y-33634D01*
X96400Y-31715D01*
X96975Y-31140D01*
X96975Y-34209D01*
X96975Y-34209D01*
G37*
G54D14*
X96975Y-34209D02*
X96400Y-33634D01*
X96400Y-31715D01*
X96975Y-31140D01*
X96975Y-34209D01*
G54D10*
G36*
X96975Y-39709D02*
X96400Y-39134D01*
X96400Y-37465D01*
X96975Y-36890D01*
X96975Y-39709D01*
X96975Y-39709D01*
G37*
G54D14*
X96975Y-39709D02*
X96400Y-39134D01*
X96400Y-37465D01*
X96975Y-36890D01*
X96975Y-39709D01*
G54D10*
G36*
X96975Y-45209D02*
X96400Y-44634D01*
X96400Y-42965D01*
X96975Y-42390D01*
X96975Y-45209D01*
X96975Y-45209D01*
G37*
G54D14*
X96975Y-45209D02*
X96400Y-44634D01*
X96400Y-42965D01*
X96975Y-42390D01*
X96975Y-45209D01*
G54D10*
G36*
X96975Y-64725D02*
X93525Y-64725D01*
X93525Y-36890D01*
X94100Y-37465D01*
X94100Y-40800D01*
X94125Y-40927D01*
X94130Y-40953D01*
X94135Y-40960D01*
X94134Y-41171D01*
X94228Y-41397D01*
X94401Y-41571D01*
X94493Y-41609D01*
X94600Y-41715D01*
X94600Y-44884D01*
X93717Y-45767D01*
X93630Y-45896D01*
X93625Y-45922D01*
X93600Y-46050D01*
X93600Y-47050D01*
X93625Y-47177D01*
X93630Y-47203D01*
X93717Y-47332D01*
X94600Y-48215D01*
X94600Y-51446D01*
X94402Y-51528D01*
X94228Y-51701D01*
X94135Y-51927D01*
X94134Y-52171D01*
X94228Y-52397D01*
X94401Y-52571D01*
X94600Y-52653D01*
X94600Y-55884D01*
X93717Y-56767D01*
X93630Y-56896D01*
X93625Y-56922D01*
X93600Y-57050D01*
X93600Y-58050D01*
X93625Y-58177D01*
X93630Y-58203D01*
X93717Y-58332D01*
X94600Y-59215D01*
X94600Y-62446D01*
X94402Y-62528D01*
X94228Y-62701D01*
X94135Y-62927D01*
X94134Y-63171D01*
X94228Y-63397D01*
X94401Y-63571D01*
X94627Y-63664D01*
X94871Y-63665D01*
X95097Y-63571D01*
X95250Y-63419D01*
X95401Y-63571D01*
X95627Y-63664D01*
X95871Y-63665D01*
X96097Y-63571D01*
X96271Y-63398D01*
X96364Y-63172D01*
X96365Y-62928D01*
X96271Y-62702D01*
X96098Y-62528D01*
X95900Y-62446D01*
X95900Y-59215D01*
X96782Y-58332D01*
X96782Y-58332D01*
X96840Y-58246D01*
X96869Y-58203D01*
X96869Y-58203D01*
X96899Y-58050D01*
X96900Y-58050D01*
X96900Y-57050D01*
X96869Y-56896D01*
X96869Y-56896D01*
X96840Y-56853D01*
X96782Y-56767D01*
X96782Y-56767D01*
X95900Y-55884D01*
X95900Y-53715D01*
X96782Y-52832D01*
X96782Y-52832D01*
X96840Y-52746D01*
X96869Y-52703D01*
X96869Y-52703D01*
X96899Y-52550D01*
X96900Y-52550D01*
X96900Y-51550D01*
X96869Y-51396D01*
X96869Y-51396D01*
X96840Y-51353D01*
X96782Y-51267D01*
X96782Y-51267D01*
X96400Y-50884D01*
X96400Y-48465D01*
X96975Y-47890D01*
X96975Y-64725D01*
X96975Y-64725D01*
G37*
G54D14*
X96975Y-64725D02*
X93525Y-64725D01*
X93525Y-36890D01*
X94100Y-37465D01*
X94100Y-40800D01*
X94125Y-40927D01*
X94130Y-40953D01*
X94135Y-40960D01*
X94134Y-41171D01*
X94228Y-41397D01*
X94401Y-41571D01*
X94493Y-41609D01*
X94600Y-41715D01*
X94600Y-44884D01*
X93717Y-45767D01*
X93630Y-45896D01*
X93625Y-45922D01*
X93600Y-46050D01*
X93600Y-47050D01*
X93625Y-47177D01*
X93630Y-47203D01*
X93717Y-47332D01*
X94600Y-48215D01*
X94600Y-51446D01*
X94402Y-51528D01*
X94228Y-51701D01*
X94135Y-51927D01*
X94134Y-52171D01*
X94228Y-52397D01*
X94401Y-52571D01*
X94600Y-52653D01*
X94600Y-55884D01*
X93717Y-56767D01*
X93630Y-56896D01*
X93625Y-56922D01*
X93600Y-57050D01*
X93600Y-58050D01*
X93625Y-58177D01*
X93630Y-58203D01*
X93717Y-58332D01*
X94600Y-59215D01*
X94600Y-62446D01*
X94402Y-62528D01*
X94228Y-62701D01*
X94135Y-62927D01*
X94134Y-63171D01*
X94228Y-63397D01*
X94401Y-63571D01*
X94627Y-63664D01*
X94871Y-63665D01*
X95097Y-63571D01*
X95250Y-63419D01*
X95401Y-63571D01*
X95627Y-63664D01*
X95871Y-63665D01*
X96097Y-63571D01*
X96271Y-63398D01*
X96364Y-63172D01*
X96365Y-62928D01*
X96271Y-62702D01*
X96098Y-62528D01*
X95900Y-62446D01*
X95900Y-59215D01*
X96782Y-58332D01*
X96782Y-58332D01*
X96840Y-58246D01*
X96869Y-58203D01*
X96869Y-58203D01*
X96899Y-58050D01*
X96900Y-58050D01*
X96900Y-57050D01*
X96869Y-56896D01*
X96869Y-56896D01*
X96840Y-56853D01*
X96782Y-56767D01*
X96782Y-56767D01*
X95900Y-55884D01*
X95900Y-53715D01*
X96782Y-52832D01*
X96782Y-52832D01*
X96840Y-52746D01*
X96869Y-52703D01*
X96869Y-52703D01*
X96899Y-52550D01*
X96900Y-52550D01*
X96900Y-51550D01*
X96869Y-51396D01*
X96869Y-51396D01*
X96840Y-51353D01*
X96782Y-51267D01*
X96782Y-51267D01*
X96400Y-50884D01*
X96400Y-48465D01*
X96975Y-47890D01*
X96975Y-64725D01*
G54D10*
G36*
X98200Y-33634D02*
X97625Y-34209D01*
X97625Y-31140D01*
X98200Y-31715D01*
X98200Y-33634D01*
X98200Y-33634D01*
G37*
G54D14*
X98200Y-33634D02*
X97625Y-34209D01*
X97625Y-31140D01*
X98200Y-31715D01*
X98200Y-33634D01*
G54D10*
G36*
X99382Y-40647D02*
X99349Y-40680D01*
X99198Y-40528D01*
X99000Y-40446D01*
X99000Y-40265D01*
X99382Y-40647D01*
X99382Y-40647D01*
G37*
G54D14*
X99382Y-40647D02*
X99349Y-40680D01*
X99198Y-40528D01*
X99000Y-40446D01*
X99000Y-40265D01*
X99382Y-40647D01*
G54D10*
G36*
X99394Y-30939D02*
X99350Y-30984D01*
X99305Y-30939D01*
X99350Y-30921D01*
X99394Y-30939D01*
X99394Y-30939D01*
G37*
G54D14*
X99394Y-30939D02*
X99350Y-30984D01*
X99305Y-30939D01*
X99350Y-30921D01*
X99394Y-30939D01*
G54D10*
G36*
X99425Y-34440D02*
X99273Y-34441D01*
X99350Y-34365D01*
X99425Y-34440D01*
X99425Y-34440D01*
G37*
G54D14*
X99425Y-34440D02*
X99273Y-34441D01*
X99350Y-34365D01*
X99425Y-34440D01*
G54D10*
G36*
X99425Y-45440D02*
X99273Y-45441D01*
X99350Y-45365D01*
X99425Y-45440D01*
X99425Y-45440D01*
G37*
G54D14*
X99425Y-45440D02*
X99273Y-45441D01*
X99350Y-45365D01*
X99425Y-45440D01*
G54D10*
G36*
X99425Y-56440D02*
X99273Y-56441D01*
X99350Y-56365D01*
X99425Y-56440D01*
X99425Y-56440D01*
G37*
G54D14*
X99425Y-56440D02*
X99273Y-56441D01*
X99350Y-56365D01*
X99425Y-56440D01*
G54D10*
G36*
X99426Y-36658D02*
X99350Y-36734D01*
X99274Y-36659D01*
X99426Y-36658D01*
X99426Y-36658D01*
G37*
G54D14*
X99426Y-36658D02*
X99350Y-36734D01*
X99274Y-36659D01*
X99426Y-36658D01*
G54D10*
G36*
X99426Y-47658D02*
X99350Y-47734D01*
X99274Y-47659D01*
X99426Y-47658D01*
X99426Y-47658D01*
G37*
G54D14*
X99426Y-47658D02*
X99350Y-47734D01*
X99274Y-47659D01*
X99426Y-47658D01*
G54D10*
G36*
X99426Y-58658D02*
X99350Y-58734D01*
X99274Y-58659D01*
X99426Y-58658D01*
X99426Y-58658D01*
G37*
G54D14*
X99426Y-58658D02*
X99350Y-58734D01*
X99274Y-58659D01*
X99426Y-58658D01*
G54D10*
G36*
X99919Y-41665D02*
X99500Y-42084D01*
X99500Y-41569D01*
X99501Y-41571D01*
X99727Y-41664D01*
X99919Y-41665D01*
X99919Y-41665D01*
G37*
G54D14*
X99919Y-41665D02*
X99500Y-42084D01*
X99500Y-41569D01*
X99501Y-41571D01*
X99727Y-41664D01*
X99919Y-41665D01*
G54D10*
G36*
X99919Y-52665D02*
X99500Y-53084D01*
X99500Y-52569D01*
X99501Y-52571D01*
X99727Y-52664D01*
X99919Y-52665D01*
X99919Y-52665D01*
G37*
G54D14*
X99919Y-52665D02*
X99500Y-53084D01*
X99500Y-52569D01*
X99501Y-52571D01*
X99727Y-52664D01*
X99919Y-52665D01*
G54D10*
G36*
X101075Y-34209D02*
X100500Y-33634D01*
X100500Y-31715D01*
X101075Y-31140D01*
X101075Y-34209D01*
X101075Y-34209D01*
G37*
G54D14*
X101075Y-34209D02*
X100500Y-33634D01*
X100500Y-31715D01*
X101075Y-31140D01*
X101075Y-34209D01*
G54D10*
G36*
X101075Y-39709D02*
X100500Y-39134D01*
X100500Y-37465D01*
X101075Y-36890D01*
X101075Y-39709D01*
X101075Y-39709D01*
G37*
G54D14*
X101075Y-39709D02*
X100500Y-39134D01*
X100500Y-37465D01*
X101075Y-36890D01*
X101075Y-39709D01*
G54D10*
G36*
X101075Y-45209D02*
X100500Y-44634D01*
X100500Y-42965D01*
X101075Y-42390D01*
X101075Y-45209D01*
X101075Y-45209D01*
G37*
G54D14*
X101075Y-45209D02*
X100500Y-44634D01*
X100500Y-42965D01*
X101075Y-42390D01*
X101075Y-45209D01*
G54D10*
G36*
X101075Y-64725D02*
X97625Y-64725D01*
X97625Y-36890D01*
X98200Y-37465D01*
X98200Y-40800D01*
X98225Y-40927D01*
X98230Y-40953D01*
X98235Y-40960D01*
X98234Y-41171D01*
X98328Y-41397D01*
X98501Y-41571D01*
X98593Y-41609D01*
X98700Y-41715D01*
X98700Y-44884D01*
X97817Y-45767D01*
X97730Y-45896D01*
X97725Y-45922D01*
X97700Y-46050D01*
X97700Y-47050D01*
X97725Y-47177D01*
X97730Y-47203D01*
X97817Y-47332D01*
X98700Y-48215D01*
X98700Y-51446D01*
X98502Y-51528D01*
X98328Y-51701D01*
X98235Y-51927D01*
X98234Y-52171D01*
X98328Y-52397D01*
X98501Y-52571D01*
X98700Y-52653D01*
X98700Y-55884D01*
X97817Y-56767D01*
X97730Y-56896D01*
X97725Y-56922D01*
X97700Y-57050D01*
X97700Y-58050D01*
X97725Y-58177D01*
X97730Y-58203D01*
X97817Y-58332D01*
X98700Y-59215D01*
X98700Y-62446D01*
X98502Y-62528D01*
X98328Y-62701D01*
X98235Y-62927D01*
X98234Y-63171D01*
X98328Y-63397D01*
X98501Y-63571D01*
X98727Y-63664D01*
X98971Y-63665D01*
X99197Y-63571D01*
X99350Y-63419D01*
X99501Y-63571D01*
X99727Y-63664D01*
X99971Y-63665D01*
X100197Y-63571D01*
X100371Y-63398D01*
X100464Y-63172D01*
X100465Y-62928D01*
X100371Y-62702D01*
X100198Y-62528D01*
X100000Y-62446D01*
X100000Y-59215D01*
X100882Y-58332D01*
X100882Y-58332D01*
X100940Y-58246D01*
X100969Y-58203D01*
X100969Y-58203D01*
X100999Y-58050D01*
X101000Y-58050D01*
X101000Y-57050D01*
X100969Y-56896D01*
X100969Y-56896D01*
X100940Y-56853D01*
X100882Y-56767D01*
X100882Y-56767D01*
X100000Y-55884D01*
X100000Y-53715D01*
X100882Y-52832D01*
X100882Y-52832D01*
X100940Y-52746D01*
X100969Y-52703D01*
X100969Y-52703D01*
X100999Y-52550D01*
X101000Y-52550D01*
X101000Y-51550D01*
X100969Y-51396D01*
X100969Y-51396D01*
X100940Y-51353D01*
X100882Y-51267D01*
X100882Y-51267D01*
X100500Y-50884D01*
X100500Y-48465D01*
X101075Y-47890D01*
X101075Y-64725D01*
X101075Y-64725D01*
G37*
G54D14*
X101075Y-64725D02*
X97625Y-64725D01*
X97625Y-36890D01*
X98200Y-37465D01*
X98200Y-40800D01*
X98225Y-40927D01*
X98230Y-40953D01*
X98235Y-40960D01*
X98234Y-41171D01*
X98328Y-41397D01*
X98501Y-41571D01*
X98593Y-41609D01*
X98700Y-41715D01*
X98700Y-44884D01*
X97817Y-45767D01*
X97730Y-45896D01*
X97725Y-45922D01*
X97700Y-46050D01*
X97700Y-47050D01*
X97725Y-47177D01*
X97730Y-47203D01*
X97817Y-47332D01*
X98700Y-48215D01*
X98700Y-51446D01*
X98502Y-51528D01*
X98328Y-51701D01*
X98235Y-51927D01*
X98234Y-52171D01*
X98328Y-52397D01*
X98501Y-52571D01*
X98700Y-52653D01*
X98700Y-55884D01*
X97817Y-56767D01*
X97730Y-56896D01*
X97725Y-56922D01*
X97700Y-57050D01*
X97700Y-58050D01*
X97725Y-58177D01*
X97730Y-58203D01*
X97817Y-58332D01*
X98700Y-59215D01*
X98700Y-62446D01*
X98502Y-62528D01*
X98328Y-62701D01*
X98235Y-62927D01*
X98234Y-63171D01*
X98328Y-63397D01*
X98501Y-63571D01*
X98727Y-63664D01*
X98971Y-63665D01*
X99197Y-63571D01*
X99350Y-63419D01*
X99501Y-63571D01*
X99727Y-63664D01*
X99971Y-63665D01*
X100197Y-63571D01*
X100371Y-63398D01*
X100464Y-63172D01*
X100465Y-62928D01*
X100371Y-62702D01*
X100198Y-62528D01*
X100000Y-62446D01*
X100000Y-59215D01*
X100882Y-58332D01*
X100882Y-58332D01*
X100940Y-58246D01*
X100969Y-58203D01*
X100969Y-58203D01*
X100999Y-58050D01*
X101000Y-58050D01*
X101000Y-57050D01*
X100969Y-56896D01*
X100969Y-56896D01*
X100940Y-56853D01*
X100882Y-56767D01*
X100882Y-56767D01*
X100000Y-55884D01*
X100000Y-53715D01*
X100882Y-52832D01*
X100882Y-52832D01*
X100940Y-52746D01*
X100969Y-52703D01*
X100969Y-52703D01*
X100999Y-52550D01*
X101000Y-52550D01*
X101000Y-51550D01*
X100969Y-51396D01*
X100969Y-51396D01*
X100940Y-51353D01*
X100882Y-51267D01*
X100882Y-51267D01*
X100500Y-50884D01*
X100500Y-48465D01*
X101075Y-47890D01*
X101075Y-64725D01*
G54D10*
G36*
X102300Y-33634D02*
X101725Y-34209D01*
X101725Y-31140D01*
X102300Y-31715D01*
X102300Y-33634D01*
X102300Y-33634D01*
G37*
G54D14*
X102300Y-33634D02*
X101725Y-34209D01*
X101725Y-31140D01*
X102300Y-31715D01*
X102300Y-33634D01*
G54D10*
G36*
X103482Y-40647D02*
X103449Y-40680D01*
X103298Y-40528D01*
X103100Y-40446D01*
X103100Y-40265D01*
X103482Y-40647D01*
X103482Y-40647D01*
G37*
G54D14*
X103482Y-40647D02*
X103449Y-40680D01*
X103298Y-40528D01*
X103100Y-40446D01*
X103100Y-40265D01*
X103482Y-40647D01*
G54D10*
G36*
X103494Y-30939D02*
X103450Y-30984D01*
X103405Y-30939D01*
X103450Y-30921D01*
X103494Y-30939D01*
X103494Y-30939D01*
G37*
G54D14*
X103494Y-30939D02*
X103450Y-30984D01*
X103405Y-30939D01*
X103450Y-30921D01*
X103494Y-30939D01*
G54D10*
G36*
X103525Y-34440D02*
X103373Y-34441D01*
X103450Y-34365D01*
X103525Y-34440D01*
X103525Y-34440D01*
G37*
G54D14*
X103525Y-34440D02*
X103373Y-34441D01*
X103450Y-34365D01*
X103525Y-34440D01*
G54D10*
G36*
X103525Y-45440D02*
X103373Y-45441D01*
X103450Y-45365D01*
X103525Y-45440D01*
X103525Y-45440D01*
G37*
G54D14*
X103525Y-45440D02*
X103373Y-45441D01*
X103450Y-45365D01*
X103525Y-45440D01*
G54D10*
G36*
X103525Y-56440D02*
X103373Y-56441D01*
X103450Y-56365D01*
X103525Y-56440D01*
X103525Y-56440D01*
G37*
G54D14*
X103525Y-56440D02*
X103373Y-56441D01*
X103450Y-56365D01*
X103525Y-56440D01*
G54D10*
G36*
X103526Y-36658D02*
X103450Y-36734D01*
X103374Y-36659D01*
X103526Y-36658D01*
X103526Y-36658D01*
G37*
G54D14*
X103526Y-36658D02*
X103450Y-36734D01*
X103374Y-36659D01*
X103526Y-36658D01*
G54D10*
G36*
X103526Y-47658D02*
X103450Y-47734D01*
X103374Y-47659D01*
X103526Y-47658D01*
X103526Y-47658D01*
G37*
G54D14*
X103526Y-47658D02*
X103450Y-47734D01*
X103374Y-47659D01*
X103526Y-47658D01*
G54D10*
G36*
X103526Y-58658D02*
X103450Y-58734D01*
X103374Y-58659D01*
X103526Y-58658D01*
X103526Y-58658D01*
G37*
G54D14*
X103526Y-58658D02*
X103450Y-58734D01*
X103374Y-58659D01*
X103526Y-58658D01*
G54D10*
G36*
X104019Y-41665D02*
X103600Y-42084D01*
X103600Y-41569D01*
X103601Y-41571D01*
X103827Y-41664D01*
X104019Y-41665D01*
X104019Y-41665D01*
G37*
G54D14*
X104019Y-41665D02*
X103600Y-42084D01*
X103600Y-41569D01*
X103601Y-41571D01*
X103827Y-41664D01*
X104019Y-41665D01*
G54D10*
G36*
X104019Y-52665D02*
X103600Y-53084D01*
X103600Y-52569D01*
X103601Y-52571D01*
X103827Y-52664D01*
X104019Y-52665D01*
X104019Y-52665D01*
G37*
G54D14*
X104019Y-52665D02*
X103600Y-53084D01*
X103600Y-52569D01*
X103601Y-52571D01*
X103827Y-52664D01*
X104019Y-52665D01*
G54D10*
G36*
X105175Y-34209D02*
X104600Y-33634D01*
X104600Y-31715D01*
X105175Y-31140D01*
X105175Y-34209D01*
X105175Y-34209D01*
G37*
G54D14*
X105175Y-34209D02*
X104600Y-33634D01*
X104600Y-31715D01*
X105175Y-31140D01*
X105175Y-34209D01*
G54D10*
G36*
X105175Y-39709D02*
X104600Y-39134D01*
X104600Y-37465D01*
X105175Y-36890D01*
X105175Y-39709D01*
X105175Y-39709D01*
G37*
G54D14*
X105175Y-39709D02*
X104600Y-39134D01*
X104600Y-37465D01*
X105175Y-36890D01*
X105175Y-39709D01*
G54D10*
G36*
X105175Y-45209D02*
X104600Y-44634D01*
X104600Y-42965D01*
X105175Y-42390D01*
X105175Y-45209D01*
X105175Y-45209D01*
G37*
G54D14*
X105175Y-45209D02*
X104600Y-44634D01*
X104600Y-42965D01*
X105175Y-42390D01*
X105175Y-45209D01*
G54D10*
G36*
X105175Y-64725D02*
X101725Y-64725D01*
X101725Y-36890D01*
X102300Y-37465D01*
X102300Y-40800D01*
X102325Y-40927D01*
X102330Y-40953D01*
X102335Y-40960D01*
X102334Y-41171D01*
X102428Y-41397D01*
X102601Y-41571D01*
X102693Y-41609D01*
X102800Y-41715D01*
X102800Y-44884D01*
X101917Y-45767D01*
X101830Y-45896D01*
X101825Y-45922D01*
X101800Y-46050D01*
X101800Y-47050D01*
X101825Y-47177D01*
X101830Y-47203D01*
X101917Y-47332D01*
X102800Y-48215D01*
X102800Y-51446D01*
X102602Y-51528D01*
X102428Y-51701D01*
X102335Y-51927D01*
X102334Y-52171D01*
X102428Y-52397D01*
X102601Y-52571D01*
X102800Y-52653D01*
X102800Y-55884D01*
X101917Y-56767D01*
X101830Y-56896D01*
X101825Y-56922D01*
X101800Y-57050D01*
X101800Y-58050D01*
X101825Y-58177D01*
X101830Y-58203D01*
X101917Y-58332D01*
X102800Y-59215D01*
X102800Y-62446D01*
X102602Y-62528D01*
X102428Y-62701D01*
X102335Y-62927D01*
X102334Y-63171D01*
X102428Y-63397D01*
X102601Y-63571D01*
X102827Y-63664D01*
X103071Y-63665D01*
X103297Y-63571D01*
X103450Y-63419D01*
X103601Y-63571D01*
X103827Y-63664D01*
X104071Y-63665D01*
X104297Y-63571D01*
X104471Y-63398D01*
X104564Y-63172D01*
X104565Y-62928D01*
X104471Y-62702D01*
X104298Y-62528D01*
X104100Y-62446D01*
X104100Y-59215D01*
X104982Y-58332D01*
X104982Y-58332D01*
X105040Y-58246D01*
X105069Y-58203D01*
X105069Y-58203D01*
X105099Y-58050D01*
X105100Y-58050D01*
X105100Y-57050D01*
X105069Y-56896D01*
X105069Y-56896D01*
X105040Y-56853D01*
X104982Y-56767D01*
X104982Y-56767D01*
X104100Y-55884D01*
X104100Y-53715D01*
X104982Y-52832D01*
X104982Y-52832D01*
X105040Y-52746D01*
X105069Y-52703D01*
X105069Y-52703D01*
X105099Y-52550D01*
X105100Y-52550D01*
X105100Y-51550D01*
X105069Y-51396D01*
X105069Y-51396D01*
X105040Y-51353D01*
X104982Y-51267D01*
X104982Y-51267D01*
X104600Y-50884D01*
X104600Y-48465D01*
X105175Y-47890D01*
X105175Y-64725D01*
X105175Y-64725D01*
G37*
G54D14*
X105175Y-64725D02*
X101725Y-64725D01*
X101725Y-36890D01*
X102300Y-37465D01*
X102300Y-40800D01*
X102325Y-40927D01*
X102330Y-40953D01*
X102335Y-40960D01*
X102334Y-41171D01*
X102428Y-41397D01*
X102601Y-41571D01*
X102693Y-41609D01*
X102800Y-41715D01*
X102800Y-44884D01*
X101917Y-45767D01*
X101830Y-45896D01*
X101825Y-45922D01*
X101800Y-46050D01*
X101800Y-47050D01*
X101825Y-47177D01*
X101830Y-47203D01*
X101917Y-47332D01*
X102800Y-48215D01*
X102800Y-51446D01*
X102602Y-51528D01*
X102428Y-51701D01*
X102335Y-51927D01*
X102334Y-52171D01*
X102428Y-52397D01*
X102601Y-52571D01*
X102800Y-52653D01*
X102800Y-55884D01*
X101917Y-56767D01*
X101830Y-56896D01*
X101825Y-56922D01*
X101800Y-57050D01*
X101800Y-58050D01*
X101825Y-58177D01*
X101830Y-58203D01*
X101917Y-58332D01*
X102800Y-59215D01*
X102800Y-62446D01*
X102602Y-62528D01*
X102428Y-62701D01*
X102335Y-62927D01*
X102334Y-63171D01*
X102428Y-63397D01*
X102601Y-63571D01*
X102827Y-63664D01*
X103071Y-63665D01*
X103297Y-63571D01*
X103450Y-63419D01*
X103601Y-63571D01*
X103827Y-63664D01*
X104071Y-63665D01*
X104297Y-63571D01*
X104471Y-63398D01*
X104564Y-63172D01*
X104565Y-62928D01*
X104471Y-62702D01*
X104298Y-62528D01*
X104100Y-62446D01*
X104100Y-59215D01*
X104982Y-58332D01*
X104982Y-58332D01*
X105040Y-58246D01*
X105069Y-58203D01*
X105069Y-58203D01*
X105099Y-58050D01*
X105100Y-58050D01*
X105100Y-57050D01*
X105069Y-56896D01*
X105069Y-56896D01*
X105040Y-56853D01*
X104982Y-56767D01*
X104982Y-56767D01*
X104100Y-55884D01*
X104100Y-53715D01*
X104982Y-52832D01*
X104982Y-52832D01*
X105040Y-52746D01*
X105069Y-52703D01*
X105069Y-52703D01*
X105099Y-52550D01*
X105100Y-52550D01*
X105100Y-51550D01*
X105069Y-51396D01*
X105069Y-51396D01*
X105040Y-51353D01*
X104982Y-51267D01*
X104982Y-51267D01*
X104600Y-50884D01*
X104600Y-48465D01*
X105175Y-47890D01*
X105175Y-64725D01*
G54D10*
G36*
X106400Y-33634D02*
X105825Y-34209D01*
X105825Y-31140D01*
X106400Y-31715D01*
X106400Y-33634D01*
X106400Y-33634D01*
G37*
G54D14*
X106400Y-33634D02*
X105825Y-34209D01*
X105825Y-31140D01*
X106400Y-31715D01*
X106400Y-33634D01*
G54D10*
G36*
X107582Y-40647D02*
X107549Y-40680D01*
X107398Y-40528D01*
X107200Y-40446D01*
X107200Y-40265D01*
X107582Y-40647D01*
X107582Y-40647D01*
G37*
G54D14*
X107582Y-40647D02*
X107549Y-40680D01*
X107398Y-40528D01*
X107200Y-40446D01*
X107200Y-40265D01*
X107582Y-40647D01*
G54D10*
G36*
X107594Y-30939D02*
X107550Y-30984D01*
X107505Y-30939D01*
X107550Y-30921D01*
X107594Y-30939D01*
X107594Y-30939D01*
G37*
G54D14*
X107594Y-30939D02*
X107550Y-30984D01*
X107505Y-30939D01*
X107550Y-30921D01*
X107594Y-30939D01*
G54D10*
G36*
X107625Y-34440D02*
X107473Y-34441D01*
X107550Y-34365D01*
X107625Y-34440D01*
X107625Y-34440D01*
G37*
G54D14*
X107625Y-34440D02*
X107473Y-34441D01*
X107550Y-34365D01*
X107625Y-34440D01*
G54D10*
G36*
X107625Y-45440D02*
X107473Y-45441D01*
X107550Y-45365D01*
X107625Y-45440D01*
X107625Y-45440D01*
G37*
G54D14*
X107625Y-45440D02*
X107473Y-45441D01*
X107550Y-45365D01*
X107625Y-45440D01*
G54D10*
G36*
X107625Y-56440D02*
X107473Y-56441D01*
X107550Y-56365D01*
X107625Y-56440D01*
X107625Y-56440D01*
G37*
G54D14*
X107625Y-56440D02*
X107473Y-56441D01*
X107550Y-56365D01*
X107625Y-56440D01*
G54D10*
G36*
X107626Y-36658D02*
X107550Y-36734D01*
X107474Y-36659D01*
X107626Y-36658D01*
X107626Y-36658D01*
G37*
G54D14*
X107626Y-36658D02*
X107550Y-36734D01*
X107474Y-36659D01*
X107626Y-36658D01*
G54D10*
G36*
X107626Y-47658D02*
X107550Y-47734D01*
X107474Y-47659D01*
X107626Y-47658D01*
X107626Y-47658D01*
G37*
G54D14*
X107626Y-47658D02*
X107550Y-47734D01*
X107474Y-47659D01*
X107626Y-47658D01*
G54D10*
G36*
X107626Y-58658D02*
X107550Y-58734D01*
X107474Y-58659D01*
X107626Y-58658D01*
X107626Y-58658D01*
G37*
G54D14*
X107626Y-58658D02*
X107550Y-58734D01*
X107474Y-58659D01*
X107626Y-58658D01*
G54D10*
G36*
X108119Y-41665D02*
X107700Y-42084D01*
X107700Y-41569D01*
X107701Y-41571D01*
X107927Y-41664D01*
X108119Y-41665D01*
X108119Y-41665D01*
G37*
G54D14*
X108119Y-41665D02*
X107700Y-42084D01*
X107700Y-41569D01*
X107701Y-41571D01*
X107927Y-41664D01*
X108119Y-41665D01*
G54D10*
G36*
X108119Y-52665D02*
X107700Y-53084D01*
X107700Y-52569D01*
X107701Y-52571D01*
X107927Y-52664D01*
X108119Y-52665D01*
X108119Y-52665D01*
G37*
G54D14*
X108119Y-52665D02*
X107700Y-53084D01*
X107700Y-52569D01*
X107701Y-52571D01*
X107927Y-52664D01*
X108119Y-52665D01*
G54D10*
G36*
X109275Y-34209D02*
X108700Y-33634D01*
X108700Y-31715D01*
X109275Y-31140D01*
X109275Y-34209D01*
X109275Y-34209D01*
G37*
G54D14*
X109275Y-34209D02*
X108700Y-33634D01*
X108700Y-31715D01*
X109275Y-31140D01*
X109275Y-34209D01*
G54D10*
G36*
X109275Y-39709D02*
X108700Y-39134D01*
X108700Y-37465D01*
X109275Y-36890D01*
X109275Y-39709D01*
X109275Y-39709D01*
G37*
G54D14*
X109275Y-39709D02*
X108700Y-39134D01*
X108700Y-37465D01*
X109275Y-36890D01*
X109275Y-39709D01*
G54D10*
G36*
X109275Y-45209D02*
X108700Y-44634D01*
X108700Y-42965D01*
X109275Y-42390D01*
X109275Y-45209D01*
X109275Y-45209D01*
G37*
G54D14*
X109275Y-45209D02*
X108700Y-44634D01*
X108700Y-42965D01*
X109275Y-42390D01*
X109275Y-45209D01*
G54D10*
G36*
X109275Y-64725D02*
X105825Y-64725D01*
X105825Y-36890D01*
X106400Y-37465D01*
X106400Y-40800D01*
X106425Y-40927D01*
X106430Y-40953D01*
X106435Y-40960D01*
X106434Y-41171D01*
X106528Y-41397D01*
X106701Y-41571D01*
X106793Y-41609D01*
X106900Y-41715D01*
X106900Y-44884D01*
X106017Y-45767D01*
X105930Y-45896D01*
X105925Y-45922D01*
X105900Y-46050D01*
X105900Y-47050D01*
X105925Y-47177D01*
X105930Y-47203D01*
X106017Y-47332D01*
X106900Y-48215D01*
X106900Y-51446D01*
X106702Y-51528D01*
X106528Y-51701D01*
X106435Y-51927D01*
X106434Y-52171D01*
X106528Y-52397D01*
X106701Y-52571D01*
X106900Y-52653D01*
X106900Y-55884D01*
X106017Y-56767D01*
X105930Y-56896D01*
X105925Y-56922D01*
X105900Y-57050D01*
X105900Y-58050D01*
X105925Y-58177D01*
X105930Y-58203D01*
X106017Y-58332D01*
X106900Y-59215D01*
X106900Y-62446D01*
X106702Y-62528D01*
X106528Y-62701D01*
X106435Y-62927D01*
X106434Y-63171D01*
X106528Y-63397D01*
X106701Y-63571D01*
X106927Y-63664D01*
X107171Y-63665D01*
X107397Y-63571D01*
X107550Y-63419D01*
X107701Y-63571D01*
X107927Y-63664D01*
X108171Y-63665D01*
X108397Y-63571D01*
X108571Y-63398D01*
X108664Y-63172D01*
X108665Y-62928D01*
X108571Y-62702D01*
X108398Y-62528D01*
X108200Y-62446D01*
X108200Y-59215D01*
X109082Y-58332D01*
X109082Y-58332D01*
X109140Y-58246D01*
X109169Y-58203D01*
X109169Y-58203D01*
X109199Y-58050D01*
X109200Y-58050D01*
X109200Y-57050D01*
X109169Y-56896D01*
X109169Y-56896D01*
X109140Y-56853D01*
X109082Y-56767D01*
X109082Y-56767D01*
X108200Y-55884D01*
X108200Y-53715D01*
X109082Y-52832D01*
X109082Y-52832D01*
X109140Y-52746D01*
X109169Y-52703D01*
X109169Y-52703D01*
X109199Y-52550D01*
X109200Y-52550D01*
X109200Y-51550D01*
X109169Y-51396D01*
X109169Y-51396D01*
X109140Y-51353D01*
X109082Y-51267D01*
X109082Y-51267D01*
X108700Y-50884D01*
X108700Y-48465D01*
X109275Y-47890D01*
X109275Y-64725D01*
X109275Y-64725D01*
G37*
G54D14*
X109275Y-64725D02*
X105825Y-64725D01*
X105825Y-36890D01*
X106400Y-37465D01*
X106400Y-40800D01*
X106425Y-40927D01*
X106430Y-40953D01*
X106435Y-40960D01*
X106434Y-41171D01*
X106528Y-41397D01*
X106701Y-41571D01*
X106793Y-41609D01*
X106900Y-41715D01*
X106900Y-44884D01*
X106017Y-45767D01*
X105930Y-45896D01*
X105925Y-45922D01*
X105900Y-46050D01*
X105900Y-47050D01*
X105925Y-47177D01*
X105930Y-47203D01*
X106017Y-47332D01*
X106900Y-48215D01*
X106900Y-51446D01*
X106702Y-51528D01*
X106528Y-51701D01*
X106435Y-51927D01*
X106434Y-52171D01*
X106528Y-52397D01*
X106701Y-52571D01*
X106900Y-52653D01*
X106900Y-55884D01*
X106017Y-56767D01*
X105930Y-56896D01*
X105925Y-56922D01*
X105900Y-57050D01*
X105900Y-58050D01*
X105925Y-58177D01*
X105930Y-58203D01*
X106017Y-58332D01*
X106900Y-59215D01*
X106900Y-62446D01*
X106702Y-62528D01*
X106528Y-62701D01*
X106435Y-62927D01*
X106434Y-63171D01*
X106528Y-63397D01*
X106701Y-63571D01*
X106927Y-63664D01*
X107171Y-63665D01*
X107397Y-63571D01*
X107550Y-63419D01*
X107701Y-63571D01*
X107927Y-63664D01*
X108171Y-63665D01*
X108397Y-63571D01*
X108571Y-63398D01*
X108664Y-63172D01*
X108665Y-62928D01*
X108571Y-62702D01*
X108398Y-62528D01*
X108200Y-62446D01*
X108200Y-59215D01*
X109082Y-58332D01*
X109082Y-58332D01*
X109140Y-58246D01*
X109169Y-58203D01*
X109169Y-58203D01*
X109199Y-58050D01*
X109200Y-58050D01*
X109200Y-57050D01*
X109169Y-56896D01*
X109169Y-56896D01*
X109140Y-56853D01*
X109082Y-56767D01*
X109082Y-56767D01*
X108200Y-55884D01*
X108200Y-53715D01*
X109082Y-52832D01*
X109082Y-52832D01*
X109140Y-52746D01*
X109169Y-52703D01*
X109169Y-52703D01*
X109199Y-52550D01*
X109200Y-52550D01*
X109200Y-51550D01*
X109169Y-51396D01*
X109169Y-51396D01*
X109140Y-51353D01*
X109082Y-51267D01*
X109082Y-51267D01*
X108700Y-50884D01*
X108700Y-48465D01*
X109275Y-47890D01*
X109275Y-64725D01*
M02*
