%FSLAX34Y34*%
G04 Gerber Fmt 3.4, Leading zero omitted, Abs format*
G04 (created by PCBNEW (2014-03-10 BZR 4741)-product) date 3/24/2014 1:58:16 PM*
%MOIN*%
G01*
G70*
G90*
G04 APERTURE LIST*
%ADD10C,0.006000*%
%ADD11C,0.008000*%
%ADD12C,0.015000*%
%ADD13C,0.068992*%
%ADD14R,0.084740X0.124110*%
%ADD15C,0.147732*%
G04 APERTURE END LIST*
G54D10*
G54D11*
X108140Y-62262D02*
X108140Y-63837D01*
X107746Y-62656D02*
X107746Y-62262D01*
X107353Y-62262D02*
X107353Y-62656D01*
X107353Y-62656D02*
X107746Y-62459D01*
X107746Y-62459D02*
X107353Y-62262D01*
X107156Y-62459D02*
X107943Y-62459D01*
X108534Y-63050D02*
G75*
G03X108534Y-63050I-984J0D01*
G74*
G01*
X108140Y-51262D02*
X108140Y-52837D01*
X107746Y-51656D02*
X107746Y-51262D01*
X107353Y-51262D02*
X107353Y-51656D01*
X107353Y-51656D02*
X107746Y-51459D01*
X107746Y-51459D02*
X107353Y-51262D01*
X107156Y-51459D02*
X107943Y-51459D01*
X108534Y-52050D02*
G75*
G03X108534Y-52050I-984J0D01*
G74*
G01*
X108140Y-40262D02*
X108140Y-41837D01*
X107746Y-40656D02*
X107746Y-40262D01*
X107353Y-40262D02*
X107353Y-40656D01*
X107353Y-40656D02*
X107746Y-40459D01*
X107746Y-40459D02*
X107353Y-40262D01*
X107156Y-40459D02*
X107943Y-40459D01*
X108534Y-41050D02*
G75*
G03X108534Y-41050I-984J0D01*
G74*
G01*
G54D12*
X106565Y-57550D02*
G75*
G03X107550Y-58534I984J0D01*
G74*
G01*
X106762Y-57550D02*
G75*
G03X107550Y-58337I787J0D01*
G74*
G01*
X106959Y-57550D02*
G75*
G03X107550Y-58140I590J0D01*
G74*
G01*
X107156Y-57550D02*
G75*
G03X107550Y-57943I393J0D01*
G74*
G01*
X107353Y-57550D02*
G75*
G03X107550Y-57746I196J0D01*
G74*
G01*
X108534Y-57550D02*
G75*
G03X107550Y-56565I-984J0D01*
G74*
G01*
X108337Y-57550D02*
G75*
G03X107550Y-56762I-787J0D01*
G74*
G01*
X108140Y-57550D02*
G75*
G03X107550Y-56959I-590J0D01*
G74*
G01*
X107943Y-57550D02*
G75*
G03X107550Y-57156I-393J0D01*
G74*
G01*
X107746Y-57550D02*
G75*
G03X107550Y-57353I-196J0D01*
G74*
G01*
X107550Y-57550D02*
X107550Y-58731D01*
X107550Y-57550D02*
X106368Y-57550D01*
X107550Y-57550D02*
X108731Y-57550D01*
X107550Y-57550D02*
X107550Y-56368D01*
X108731Y-57550D02*
G75*
G03X108731Y-57550I-1181J0D01*
G74*
G01*
X106565Y-46550D02*
G75*
G03X107550Y-47534I984J0D01*
G74*
G01*
X106762Y-46550D02*
G75*
G03X107550Y-47337I787J0D01*
G74*
G01*
X106959Y-46550D02*
G75*
G03X107550Y-47140I590J0D01*
G74*
G01*
X107156Y-46550D02*
G75*
G03X107550Y-46943I393J0D01*
G74*
G01*
X107353Y-46550D02*
G75*
G03X107550Y-46746I196J0D01*
G74*
G01*
X108534Y-46550D02*
G75*
G03X107550Y-45565I-984J0D01*
G74*
G01*
X108337Y-46550D02*
G75*
G03X107550Y-45762I-787J0D01*
G74*
G01*
X108140Y-46550D02*
G75*
G03X107550Y-45959I-590J0D01*
G74*
G01*
X107943Y-46550D02*
G75*
G03X107550Y-46156I-393J0D01*
G74*
G01*
X107746Y-46550D02*
G75*
G03X107550Y-46353I-196J0D01*
G74*
G01*
X107550Y-46550D02*
X107550Y-47731D01*
X107550Y-46550D02*
X106368Y-46550D01*
X107550Y-46550D02*
X108731Y-46550D01*
X107550Y-46550D02*
X107550Y-45368D01*
X108731Y-46550D02*
G75*
G03X108731Y-46550I-1181J0D01*
G74*
G01*
X106565Y-35550D02*
G75*
G03X107550Y-36534I984J0D01*
G74*
G01*
X106762Y-35550D02*
G75*
G03X107550Y-36337I787J0D01*
G74*
G01*
X106959Y-35550D02*
G75*
G03X107550Y-36140I590J0D01*
G74*
G01*
X107156Y-35550D02*
G75*
G03X107550Y-35943I393J0D01*
G74*
G01*
X107353Y-35550D02*
G75*
G03X107550Y-35746I196J0D01*
G74*
G01*
X108534Y-35550D02*
G75*
G03X107550Y-34565I-984J0D01*
G74*
G01*
X108337Y-35550D02*
G75*
G03X107550Y-34762I-787J0D01*
G74*
G01*
X108140Y-35550D02*
G75*
G03X107550Y-34959I-590J0D01*
G74*
G01*
X107943Y-35550D02*
G75*
G03X107550Y-35156I-393J0D01*
G74*
G01*
X107746Y-35550D02*
G75*
G03X107550Y-35353I-196J0D01*
G74*
G01*
X107550Y-35550D02*
X107550Y-36731D01*
X107550Y-35550D02*
X106368Y-35550D01*
X107550Y-35550D02*
X108731Y-35550D01*
X107550Y-35550D02*
X107550Y-34368D01*
X108731Y-35550D02*
G75*
G03X108731Y-35550I-1181J0D01*
G74*
G01*
G54D11*
X104040Y-62262D02*
X104040Y-63837D01*
X103646Y-62656D02*
X103646Y-62262D01*
X103253Y-62262D02*
X103253Y-62656D01*
X103253Y-62656D02*
X103646Y-62459D01*
X103646Y-62459D02*
X103253Y-62262D01*
X103056Y-62459D02*
X103843Y-62459D01*
X104434Y-63050D02*
G75*
G03X104434Y-63050I-984J0D01*
G74*
G01*
X104040Y-51262D02*
X104040Y-52837D01*
X103646Y-51656D02*
X103646Y-51262D01*
X103253Y-51262D02*
X103253Y-51656D01*
X103253Y-51656D02*
X103646Y-51459D01*
X103646Y-51459D02*
X103253Y-51262D01*
X103056Y-51459D02*
X103843Y-51459D01*
X104434Y-52050D02*
G75*
G03X104434Y-52050I-984J0D01*
G74*
G01*
X104040Y-40262D02*
X104040Y-41837D01*
X103646Y-40656D02*
X103646Y-40262D01*
X103253Y-40262D02*
X103253Y-40656D01*
X103253Y-40656D02*
X103646Y-40459D01*
X103646Y-40459D02*
X103253Y-40262D01*
X103056Y-40459D02*
X103843Y-40459D01*
X104434Y-41050D02*
G75*
G03X104434Y-41050I-984J0D01*
G74*
G01*
G54D12*
X102465Y-57550D02*
G75*
G03X103450Y-58534I984J0D01*
G74*
G01*
X102662Y-57550D02*
G75*
G03X103450Y-58337I787J0D01*
G74*
G01*
X102859Y-57550D02*
G75*
G03X103450Y-58140I590J0D01*
G74*
G01*
X103056Y-57550D02*
G75*
G03X103450Y-57943I393J0D01*
G74*
G01*
X103253Y-57550D02*
G75*
G03X103450Y-57746I196J0D01*
G74*
G01*
X104434Y-57550D02*
G75*
G03X103450Y-56565I-984J0D01*
G74*
G01*
X104237Y-57550D02*
G75*
G03X103450Y-56762I-787J0D01*
G74*
G01*
X104040Y-57550D02*
G75*
G03X103450Y-56959I-590J0D01*
G74*
G01*
X103843Y-57550D02*
G75*
G03X103450Y-57156I-393J0D01*
G74*
G01*
X103646Y-57550D02*
G75*
G03X103450Y-57353I-196J0D01*
G74*
G01*
X103450Y-57550D02*
X103450Y-58731D01*
X103450Y-57550D02*
X102268Y-57550D01*
X103450Y-57550D02*
X104631Y-57550D01*
X103450Y-57550D02*
X103450Y-56368D01*
X104631Y-57550D02*
G75*
G03X104631Y-57550I-1181J0D01*
G74*
G01*
X102465Y-46550D02*
G75*
G03X103450Y-47534I984J0D01*
G74*
G01*
X102662Y-46550D02*
G75*
G03X103450Y-47337I787J0D01*
G74*
G01*
X102859Y-46550D02*
G75*
G03X103450Y-47140I590J0D01*
G74*
G01*
X103056Y-46550D02*
G75*
G03X103450Y-46943I393J0D01*
G74*
G01*
X103253Y-46550D02*
G75*
G03X103450Y-46746I196J0D01*
G74*
G01*
X104434Y-46550D02*
G75*
G03X103450Y-45565I-984J0D01*
G74*
G01*
X104237Y-46550D02*
G75*
G03X103450Y-45762I-787J0D01*
G74*
G01*
X104040Y-46550D02*
G75*
G03X103450Y-45959I-590J0D01*
G74*
G01*
X103843Y-46550D02*
G75*
G03X103450Y-46156I-393J0D01*
G74*
G01*
X103646Y-46550D02*
G75*
G03X103450Y-46353I-196J0D01*
G74*
G01*
X103450Y-46550D02*
X103450Y-47731D01*
X103450Y-46550D02*
X102268Y-46550D01*
X103450Y-46550D02*
X104631Y-46550D01*
X103450Y-46550D02*
X103450Y-45368D01*
X104631Y-46550D02*
G75*
G03X104631Y-46550I-1181J0D01*
G74*
G01*
X102465Y-35550D02*
G75*
G03X103450Y-36534I984J0D01*
G74*
G01*
X102662Y-35550D02*
G75*
G03X103450Y-36337I787J0D01*
G74*
G01*
X102859Y-35550D02*
G75*
G03X103450Y-36140I590J0D01*
G74*
G01*
X103056Y-35550D02*
G75*
G03X103450Y-35943I393J0D01*
G74*
G01*
X103253Y-35550D02*
G75*
G03X103450Y-35746I196J0D01*
G74*
G01*
X104434Y-35550D02*
G75*
G03X103450Y-34565I-984J0D01*
G74*
G01*
X104237Y-35550D02*
G75*
G03X103450Y-34762I-787J0D01*
G74*
G01*
X104040Y-35550D02*
G75*
G03X103450Y-34959I-590J0D01*
G74*
G01*
X103843Y-35550D02*
G75*
G03X103450Y-35156I-393J0D01*
G74*
G01*
X103646Y-35550D02*
G75*
G03X103450Y-35353I-196J0D01*
G74*
G01*
X103450Y-35550D02*
X103450Y-36731D01*
X103450Y-35550D02*
X102268Y-35550D01*
X103450Y-35550D02*
X104631Y-35550D01*
X103450Y-35550D02*
X103450Y-34368D01*
X104631Y-35550D02*
G75*
G03X104631Y-35550I-1181J0D01*
G74*
G01*
X86065Y-35550D02*
G75*
G03X87050Y-36534I984J0D01*
G74*
G01*
X86262Y-35550D02*
G75*
G03X87050Y-36337I787J0D01*
G74*
G01*
X86459Y-35550D02*
G75*
G03X87050Y-36140I590J0D01*
G74*
G01*
X86656Y-35550D02*
G75*
G03X87050Y-35943I393J0D01*
G74*
G01*
X86853Y-35550D02*
G75*
G03X87050Y-35746I196J0D01*
G74*
G01*
X88034Y-35550D02*
G75*
G03X87050Y-34565I-984J0D01*
G74*
G01*
X87837Y-35550D02*
G75*
G03X87050Y-34762I-787J0D01*
G74*
G01*
X87640Y-35550D02*
G75*
G03X87050Y-34959I-590J0D01*
G74*
G01*
X87443Y-35550D02*
G75*
G03X87050Y-35156I-393J0D01*
G74*
G01*
X87246Y-35550D02*
G75*
G03X87050Y-35353I-196J0D01*
G74*
G01*
X87050Y-35550D02*
X87050Y-36731D01*
X87050Y-35550D02*
X85868Y-35550D01*
X87050Y-35550D02*
X88231Y-35550D01*
X87050Y-35550D02*
X87050Y-34368D01*
X88231Y-35550D02*
G75*
G03X88231Y-35550I-1181J0D01*
G74*
G01*
X86065Y-46550D02*
G75*
G03X87050Y-47534I984J0D01*
G74*
G01*
X86262Y-46550D02*
G75*
G03X87050Y-47337I787J0D01*
G74*
G01*
X86459Y-46550D02*
G75*
G03X87050Y-47140I590J0D01*
G74*
G01*
X86656Y-46550D02*
G75*
G03X87050Y-46943I393J0D01*
G74*
G01*
X86853Y-46550D02*
G75*
G03X87050Y-46746I196J0D01*
G74*
G01*
X88034Y-46550D02*
G75*
G03X87050Y-45565I-984J0D01*
G74*
G01*
X87837Y-46550D02*
G75*
G03X87050Y-45762I-787J0D01*
G74*
G01*
X87640Y-46550D02*
G75*
G03X87050Y-45959I-590J0D01*
G74*
G01*
X87443Y-46550D02*
G75*
G03X87050Y-46156I-393J0D01*
G74*
G01*
X87246Y-46550D02*
G75*
G03X87050Y-46353I-196J0D01*
G74*
G01*
X87050Y-46550D02*
X87050Y-47731D01*
X87050Y-46550D02*
X85868Y-46550D01*
X87050Y-46550D02*
X88231Y-46550D01*
X87050Y-46550D02*
X87050Y-45368D01*
X88231Y-46550D02*
G75*
G03X88231Y-46550I-1181J0D01*
G74*
G01*
X86065Y-57550D02*
G75*
G03X87050Y-58534I984J0D01*
G74*
G01*
X86262Y-57550D02*
G75*
G03X87050Y-58337I787J0D01*
G74*
G01*
X86459Y-57550D02*
G75*
G03X87050Y-58140I590J0D01*
G74*
G01*
X86656Y-57550D02*
G75*
G03X87050Y-57943I393J0D01*
G74*
G01*
X86853Y-57550D02*
G75*
G03X87050Y-57746I196J0D01*
G74*
G01*
X88034Y-57550D02*
G75*
G03X87050Y-56565I-984J0D01*
G74*
G01*
X87837Y-57550D02*
G75*
G03X87050Y-56762I-787J0D01*
G74*
G01*
X87640Y-57550D02*
G75*
G03X87050Y-56959I-590J0D01*
G74*
G01*
X87443Y-57550D02*
G75*
G03X87050Y-57156I-393J0D01*
G74*
G01*
X87246Y-57550D02*
G75*
G03X87050Y-57353I-196J0D01*
G74*
G01*
X87050Y-57550D02*
X87050Y-58731D01*
X87050Y-57550D02*
X85868Y-57550D01*
X87050Y-57550D02*
X88231Y-57550D01*
X87050Y-57550D02*
X87050Y-56368D01*
X88231Y-57550D02*
G75*
G03X88231Y-57550I-1181J0D01*
G74*
G01*
G54D11*
X87640Y-40262D02*
X87640Y-41837D01*
X87246Y-40656D02*
X87246Y-40262D01*
X86853Y-40262D02*
X86853Y-40656D01*
X86853Y-40656D02*
X87246Y-40459D01*
X87246Y-40459D02*
X86853Y-40262D01*
X86656Y-40459D02*
X87443Y-40459D01*
X88034Y-41050D02*
G75*
G03X88034Y-41050I-984J0D01*
G74*
G01*
X87640Y-51262D02*
X87640Y-52837D01*
X87246Y-51656D02*
X87246Y-51262D01*
X86853Y-51262D02*
X86853Y-51656D01*
X86853Y-51656D02*
X87246Y-51459D01*
X87246Y-51459D02*
X86853Y-51262D01*
X86656Y-51459D02*
X87443Y-51459D01*
X88034Y-52050D02*
G75*
G03X88034Y-52050I-984J0D01*
G74*
G01*
X87640Y-62262D02*
X87640Y-63837D01*
X87246Y-62656D02*
X87246Y-62262D01*
X86853Y-62262D02*
X86853Y-62656D01*
X86853Y-62656D02*
X87246Y-62459D01*
X87246Y-62459D02*
X86853Y-62262D01*
X86656Y-62459D02*
X87443Y-62459D01*
X88034Y-63050D02*
G75*
G03X88034Y-63050I-984J0D01*
G74*
G01*
X91740Y-62262D02*
X91740Y-63837D01*
X91346Y-62656D02*
X91346Y-62262D01*
X90953Y-62262D02*
X90953Y-62656D01*
X90953Y-62656D02*
X91346Y-62459D01*
X91346Y-62459D02*
X90953Y-62262D01*
X90756Y-62459D02*
X91543Y-62459D01*
X92134Y-63050D02*
G75*
G03X92134Y-63050I-984J0D01*
G74*
G01*
X91740Y-51262D02*
X91740Y-52837D01*
X91346Y-51656D02*
X91346Y-51262D01*
X90953Y-51262D02*
X90953Y-51656D01*
X90953Y-51656D02*
X91346Y-51459D01*
X91346Y-51459D02*
X90953Y-51262D01*
X90756Y-51459D02*
X91543Y-51459D01*
X92134Y-52050D02*
G75*
G03X92134Y-52050I-984J0D01*
G74*
G01*
X91740Y-40262D02*
X91740Y-41837D01*
X91346Y-40656D02*
X91346Y-40262D01*
X90953Y-40262D02*
X90953Y-40656D01*
X90953Y-40656D02*
X91346Y-40459D01*
X91346Y-40459D02*
X90953Y-40262D01*
X90756Y-40459D02*
X91543Y-40459D01*
X92134Y-41050D02*
G75*
G03X92134Y-41050I-984J0D01*
G74*
G01*
G54D12*
X90165Y-57550D02*
G75*
G03X91150Y-58534I984J0D01*
G74*
G01*
X90362Y-57550D02*
G75*
G03X91150Y-58337I787J0D01*
G74*
G01*
X90559Y-57550D02*
G75*
G03X91150Y-58140I590J0D01*
G74*
G01*
X90756Y-57550D02*
G75*
G03X91150Y-57943I393J0D01*
G74*
G01*
X90953Y-57550D02*
G75*
G03X91150Y-57746I196J0D01*
G74*
G01*
X92134Y-57550D02*
G75*
G03X91150Y-56565I-984J0D01*
G74*
G01*
X91937Y-57550D02*
G75*
G03X91150Y-56762I-787J0D01*
G74*
G01*
X91740Y-57550D02*
G75*
G03X91150Y-56959I-590J0D01*
G74*
G01*
X91543Y-57550D02*
G75*
G03X91150Y-57156I-393J0D01*
G74*
G01*
X91346Y-57550D02*
G75*
G03X91150Y-57353I-196J0D01*
G74*
G01*
X91150Y-57550D02*
X91150Y-58731D01*
X91150Y-57550D02*
X89968Y-57550D01*
X91150Y-57550D02*
X92331Y-57550D01*
X91150Y-57550D02*
X91150Y-56368D01*
X92331Y-57550D02*
G75*
G03X92331Y-57550I-1181J0D01*
G74*
G01*
X90165Y-46550D02*
G75*
G03X91150Y-47534I984J0D01*
G74*
G01*
X90362Y-46550D02*
G75*
G03X91150Y-47337I787J0D01*
G74*
G01*
X90559Y-46550D02*
G75*
G03X91150Y-47140I590J0D01*
G74*
G01*
X90756Y-46550D02*
G75*
G03X91150Y-46943I393J0D01*
G74*
G01*
X90953Y-46550D02*
G75*
G03X91150Y-46746I196J0D01*
G74*
G01*
X92134Y-46550D02*
G75*
G03X91150Y-45565I-984J0D01*
G74*
G01*
X91937Y-46550D02*
G75*
G03X91150Y-45762I-787J0D01*
G74*
G01*
X91740Y-46550D02*
G75*
G03X91150Y-45959I-590J0D01*
G74*
G01*
X91543Y-46550D02*
G75*
G03X91150Y-46156I-393J0D01*
G74*
G01*
X91346Y-46550D02*
G75*
G03X91150Y-46353I-196J0D01*
G74*
G01*
X91150Y-46550D02*
X91150Y-47731D01*
X91150Y-46550D02*
X89968Y-46550D01*
X91150Y-46550D02*
X92331Y-46550D01*
X91150Y-46550D02*
X91150Y-45368D01*
X92331Y-46550D02*
G75*
G03X92331Y-46550I-1181J0D01*
G74*
G01*
X90165Y-35550D02*
G75*
G03X91150Y-36534I984J0D01*
G74*
G01*
X90362Y-35550D02*
G75*
G03X91150Y-36337I787J0D01*
G74*
G01*
X90559Y-35550D02*
G75*
G03X91150Y-36140I590J0D01*
G74*
G01*
X90756Y-35550D02*
G75*
G03X91150Y-35943I393J0D01*
G74*
G01*
X90953Y-35550D02*
G75*
G03X91150Y-35746I196J0D01*
G74*
G01*
X92134Y-35550D02*
G75*
G03X91150Y-34565I-984J0D01*
G74*
G01*
X91937Y-35550D02*
G75*
G03X91150Y-34762I-787J0D01*
G74*
G01*
X91740Y-35550D02*
G75*
G03X91150Y-34959I-590J0D01*
G74*
G01*
X91543Y-35550D02*
G75*
G03X91150Y-35156I-393J0D01*
G74*
G01*
X91346Y-35550D02*
G75*
G03X91150Y-35353I-196J0D01*
G74*
G01*
X91150Y-35550D02*
X91150Y-36731D01*
X91150Y-35550D02*
X89968Y-35550D01*
X91150Y-35550D02*
X92331Y-35550D01*
X91150Y-35550D02*
X91150Y-34368D01*
X92331Y-35550D02*
G75*
G03X92331Y-35550I-1181J0D01*
G74*
G01*
X98365Y-35550D02*
G75*
G03X99350Y-36534I984J0D01*
G74*
G01*
X98562Y-35550D02*
G75*
G03X99350Y-36337I787J0D01*
G74*
G01*
X98759Y-35550D02*
G75*
G03X99350Y-36140I590J0D01*
G74*
G01*
X98956Y-35550D02*
G75*
G03X99350Y-35943I393J0D01*
G74*
G01*
X99153Y-35550D02*
G75*
G03X99350Y-35746I196J0D01*
G74*
G01*
X100334Y-35550D02*
G75*
G03X99350Y-34565I-984J0D01*
G74*
G01*
X100137Y-35550D02*
G75*
G03X99350Y-34762I-787J0D01*
G74*
G01*
X99940Y-35550D02*
G75*
G03X99350Y-34959I-590J0D01*
G74*
G01*
X99743Y-35550D02*
G75*
G03X99350Y-35156I-393J0D01*
G74*
G01*
X99546Y-35550D02*
G75*
G03X99350Y-35353I-196J0D01*
G74*
G01*
X99350Y-35550D02*
X99350Y-36731D01*
X99350Y-35550D02*
X98168Y-35550D01*
X99350Y-35550D02*
X100531Y-35550D01*
X99350Y-35550D02*
X99350Y-34368D01*
X100531Y-35550D02*
G75*
G03X100531Y-35550I-1181J0D01*
G74*
G01*
X98365Y-46550D02*
G75*
G03X99350Y-47534I984J0D01*
G74*
G01*
X98562Y-46550D02*
G75*
G03X99350Y-47337I787J0D01*
G74*
G01*
X98759Y-46550D02*
G75*
G03X99350Y-47140I590J0D01*
G74*
G01*
X98956Y-46550D02*
G75*
G03X99350Y-46943I393J0D01*
G74*
G01*
X99153Y-46550D02*
G75*
G03X99350Y-46746I196J0D01*
G74*
G01*
X100334Y-46550D02*
G75*
G03X99350Y-45565I-984J0D01*
G74*
G01*
X100137Y-46550D02*
G75*
G03X99350Y-45762I-787J0D01*
G74*
G01*
X99940Y-46550D02*
G75*
G03X99350Y-45959I-590J0D01*
G74*
G01*
X99743Y-46550D02*
G75*
G03X99350Y-46156I-393J0D01*
G74*
G01*
X99546Y-46550D02*
G75*
G03X99350Y-46353I-196J0D01*
G74*
G01*
X99350Y-46550D02*
X99350Y-47731D01*
X99350Y-46550D02*
X98168Y-46550D01*
X99350Y-46550D02*
X100531Y-46550D01*
X99350Y-46550D02*
X99350Y-45368D01*
X100531Y-46550D02*
G75*
G03X100531Y-46550I-1181J0D01*
G74*
G01*
X98365Y-57550D02*
G75*
G03X99350Y-58534I984J0D01*
G74*
G01*
X98562Y-57550D02*
G75*
G03X99350Y-58337I787J0D01*
G74*
G01*
X98759Y-57550D02*
G75*
G03X99350Y-58140I590J0D01*
G74*
G01*
X98956Y-57550D02*
G75*
G03X99350Y-57943I393J0D01*
G74*
G01*
X99153Y-57550D02*
G75*
G03X99350Y-57746I196J0D01*
G74*
G01*
X100334Y-57550D02*
G75*
G03X99350Y-56565I-984J0D01*
G74*
G01*
X100137Y-57550D02*
G75*
G03X99350Y-56762I-787J0D01*
G74*
G01*
X99940Y-57550D02*
G75*
G03X99350Y-56959I-590J0D01*
G74*
G01*
X99743Y-57550D02*
G75*
G03X99350Y-57156I-393J0D01*
G74*
G01*
X99546Y-57550D02*
G75*
G03X99350Y-57353I-196J0D01*
G74*
G01*
X99350Y-57550D02*
X99350Y-58731D01*
X99350Y-57550D02*
X98168Y-57550D01*
X99350Y-57550D02*
X100531Y-57550D01*
X99350Y-57550D02*
X99350Y-56368D01*
X100531Y-57550D02*
G75*
G03X100531Y-57550I-1181J0D01*
G74*
G01*
G54D11*
X99940Y-40262D02*
X99940Y-41837D01*
X99546Y-40656D02*
X99546Y-40262D01*
X99153Y-40262D02*
X99153Y-40656D01*
X99153Y-40656D02*
X99546Y-40459D01*
X99546Y-40459D02*
X99153Y-40262D01*
X98956Y-40459D02*
X99743Y-40459D01*
X100334Y-41050D02*
G75*
G03X100334Y-41050I-984J0D01*
G74*
G01*
X99940Y-51262D02*
X99940Y-52837D01*
X99546Y-51656D02*
X99546Y-51262D01*
X99153Y-51262D02*
X99153Y-51656D01*
X99153Y-51656D02*
X99546Y-51459D01*
X99546Y-51459D02*
X99153Y-51262D01*
X98956Y-51459D02*
X99743Y-51459D01*
X100334Y-52050D02*
G75*
G03X100334Y-52050I-984J0D01*
G74*
G01*
X99940Y-62262D02*
X99940Y-63837D01*
X99546Y-62656D02*
X99546Y-62262D01*
X99153Y-62262D02*
X99153Y-62656D01*
X99153Y-62656D02*
X99546Y-62459D01*
X99546Y-62459D02*
X99153Y-62262D01*
X98956Y-62459D02*
X99743Y-62459D01*
X100334Y-63050D02*
G75*
G03X100334Y-63050I-984J0D01*
G74*
G01*
X95840Y-62262D02*
X95840Y-63837D01*
X95446Y-62656D02*
X95446Y-62262D01*
X95053Y-62262D02*
X95053Y-62656D01*
X95053Y-62656D02*
X95446Y-62459D01*
X95446Y-62459D02*
X95053Y-62262D01*
X94856Y-62459D02*
X95643Y-62459D01*
X96234Y-63050D02*
G75*
G03X96234Y-63050I-984J0D01*
G74*
G01*
X95840Y-51262D02*
X95840Y-52837D01*
X95446Y-51656D02*
X95446Y-51262D01*
X95053Y-51262D02*
X95053Y-51656D01*
X95053Y-51656D02*
X95446Y-51459D01*
X95446Y-51459D02*
X95053Y-51262D01*
X94856Y-51459D02*
X95643Y-51459D01*
X96234Y-52050D02*
G75*
G03X96234Y-52050I-984J0D01*
G74*
G01*
X95840Y-40262D02*
X95840Y-41837D01*
X95446Y-40656D02*
X95446Y-40262D01*
X95053Y-40262D02*
X95053Y-40656D01*
X95053Y-40656D02*
X95446Y-40459D01*
X95446Y-40459D02*
X95053Y-40262D01*
X94856Y-40459D02*
X95643Y-40459D01*
X96234Y-41050D02*
G75*
G03X96234Y-41050I-984J0D01*
G74*
G01*
G54D12*
X94265Y-57550D02*
G75*
G03X95250Y-58534I984J0D01*
G74*
G01*
X94462Y-57550D02*
G75*
G03X95250Y-58337I787J0D01*
G74*
G01*
X94659Y-57550D02*
G75*
G03X95250Y-58140I590J0D01*
G74*
G01*
X94856Y-57550D02*
G75*
G03X95250Y-57943I393J0D01*
G74*
G01*
X95053Y-57550D02*
G75*
G03X95250Y-57746I196J0D01*
G74*
G01*
X96234Y-57550D02*
G75*
G03X95250Y-56565I-984J0D01*
G74*
G01*
X96037Y-57550D02*
G75*
G03X95250Y-56762I-787J0D01*
G74*
G01*
X95840Y-57550D02*
G75*
G03X95250Y-56959I-590J0D01*
G74*
G01*
X95643Y-57550D02*
G75*
G03X95250Y-57156I-393J0D01*
G74*
G01*
X95446Y-57550D02*
G75*
G03X95250Y-57353I-196J0D01*
G74*
G01*
X95250Y-57550D02*
X95250Y-58731D01*
X95250Y-57550D02*
X94068Y-57550D01*
X95250Y-57550D02*
X96431Y-57550D01*
X95250Y-57550D02*
X95250Y-56368D01*
X96431Y-57550D02*
G75*
G03X96431Y-57550I-1181J0D01*
G74*
G01*
X94265Y-46550D02*
G75*
G03X95250Y-47534I984J0D01*
G74*
G01*
X94462Y-46550D02*
G75*
G03X95250Y-47337I787J0D01*
G74*
G01*
X94659Y-46550D02*
G75*
G03X95250Y-47140I590J0D01*
G74*
G01*
X94856Y-46550D02*
G75*
G03X95250Y-46943I393J0D01*
G74*
G01*
X95053Y-46550D02*
G75*
G03X95250Y-46746I196J0D01*
G74*
G01*
X96234Y-46550D02*
G75*
G03X95250Y-45565I-984J0D01*
G74*
G01*
X96037Y-46550D02*
G75*
G03X95250Y-45762I-787J0D01*
G74*
G01*
X95840Y-46550D02*
G75*
G03X95250Y-45959I-590J0D01*
G74*
G01*
X95643Y-46550D02*
G75*
G03X95250Y-46156I-393J0D01*
G74*
G01*
X95446Y-46550D02*
G75*
G03X95250Y-46353I-196J0D01*
G74*
G01*
X95250Y-46550D02*
X95250Y-47731D01*
X95250Y-46550D02*
X94068Y-46550D01*
X95250Y-46550D02*
X96431Y-46550D01*
X95250Y-46550D02*
X95250Y-45368D01*
X96431Y-46550D02*
G75*
G03X96431Y-46550I-1181J0D01*
G74*
G01*
X94265Y-35550D02*
G75*
G03X95250Y-36534I984J0D01*
G74*
G01*
X94462Y-35550D02*
G75*
G03X95250Y-36337I787J0D01*
G74*
G01*
X94659Y-35550D02*
G75*
G03X95250Y-36140I590J0D01*
G74*
G01*
X94856Y-35550D02*
G75*
G03X95250Y-35943I393J0D01*
G74*
G01*
X95053Y-35550D02*
G75*
G03X95250Y-35746I196J0D01*
G74*
G01*
X96234Y-35550D02*
G75*
G03X95250Y-34565I-984J0D01*
G74*
G01*
X96037Y-35550D02*
G75*
G03X95250Y-34762I-787J0D01*
G74*
G01*
X95840Y-35550D02*
G75*
G03X95250Y-34959I-590J0D01*
G74*
G01*
X95643Y-35550D02*
G75*
G03X95250Y-35156I-393J0D01*
G74*
G01*
X95446Y-35550D02*
G75*
G03X95250Y-35353I-196J0D01*
G74*
G01*
X95250Y-35550D02*
X95250Y-36731D01*
X95250Y-35550D02*
X94068Y-35550D01*
X95250Y-35550D02*
X96431Y-35550D01*
X95250Y-35550D02*
X95250Y-34368D01*
X96431Y-35550D02*
G75*
G03X96431Y-35550I-1181J0D01*
G74*
G01*
X77865Y-35550D02*
G75*
G03X78850Y-36534I984J0D01*
G74*
G01*
X78062Y-35550D02*
G75*
G03X78850Y-36337I787J0D01*
G74*
G01*
X78259Y-35550D02*
G75*
G03X78850Y-36140I590J0D01*
G74*
G01*
X78456Y-35550D02*
G75*
G03X78850Y-35943I393J0D01*
G74*
G01*
X78653Y-35550D02*
G75*
G03X78850Y-35746I196J0D01*
G74*
G01*
X79834Y-35550D02*
G75*
G03X78850Y-34565I-984J0D01*
G74*
G01*
X79637Y-35550D02*
G75*
G03X78850Y-34762I-787J0D01*
G74*
G01*
X79440Y-35550D02*
G75*
G03X78850Y-34959I-590J0D01*
G74*
G01*
X79243Y-35550D02*
G75*
G03X78850Y-35156I-393J0D01*
G74*
G01*
X79046Y-35550D02*
G75*
G03X78850Y-35353I-196J0D01*
G74*
G01*
X78850Y-35550D02*
X78850Y-36731D01*
X78850Y-35550D02*
X77668Y-35550D01*
X78850Y-35550D02*
X80031Y-35550D01*
X78850Y-35550D02*
X78850Y-34368D01*
X80031Y-35550D02*
G75*
G03X80031Y-35550I-1181J0D01*
G74*
G01*
X77865Y-46550D02*
G75*
G03X78850Y-47534I984J0D01*
G74*
G01*
X78062Y-46550D02*
G75*
G03X78850Y-47337I787J0D01*
G74*
G01*
X78259Y-46550D02*
G75*
G03X78850Y-47140I590J0D01*
G74*
G01*
X78456Y-46550D02*
G75*
G03X78850Y-46943I393J0D01*
G74*
G01*
X78653Y-46550D02*
G75*
G03X78850Y-46746I196J0D01*
G74*
G01*
X79834Y-46550D02*
G75*
G03X78850Y-45565I-984J0D01*
G74*
G01*
X79637Y-46550D02*
G75*
G03X78850Y-45762I-787J0D01*
G74*
G01*
X79440Y-46550D02*
G75*
G03X78850Y-45959I-590J0D01*
G74*
G01*
X79243Y-46550D02*
G75*
G03X78850Y-46156I-393J0D01*
G74*
G01*
X79046Y-46550D02*
G75*
G03X78850Y-46353I-196J0D01*
G74*
G01*
X78850Y-46550D02*
X78850Y-47731D01*
X78850Y-46550D02*
X77668Y-46550D01*
X78850Y-46550D02*
X80031Y-46550D01*
X78850Y-46550D02*
X78850Y-45368D01*
X80031Y-46550D02*
G75*
G03X80031Y-46550I-1181J0D01*
G74*
G01*
X77865Y-57550D02*
G75*
G03X78850Y-58534I984J0D01*
G74*
G01*
X78062Y-57550D02*
G75*
G03X78850Y-58337I787J0D01*
G74*
G01*
X78259Y-57550D02*
G75*
G03X78850Y-58140I590J0D01*
G74*
G01*
X78456Y-57550D02*
G75*
G03X78850Y-57943I393J0D01*
G74*
G01*
X78653Y-57550D02*
G75*
G03X78850Y-57746I196J0D01*
G74*
G01*
X79834Y-57550D02*
G75*
G03X78850Y-56565I-984J0D01*
G74*
G01*
X79637Y-57550D02*
G75*
G03X78850Y-56762I-787J0D01*
G74*
G01*
X79440Y-57550D02*
G75*
G03X78850Y-56959I-590J0D01*
G74*
G01*
X79243Y-57550D02*
G75*
G03X78850Y-57156I-393J0D01*
G74*
G01*
X79046Y-57550D02*
G75*
G03X78850Y-57353I-196J0D01*
G74*
G01*
X78850Y-57550D02*
X78850Y-58731D01*
X78850Y-57550D02*
X77668Y-57550D01*
X78850Y-57550D02*
X80031Y-57550D01*
X78850Y-57550D02*
X78850Y-56368D01*
X80031Y-57550D02*
G75*
G03X80031Y-57550I-1181J0D01*
G74*
G01*
G54D11*
X79440Y-40262D02*
X79440Y-41837D01*
X79046Y-40656D02*
X79046Y-40262D01*
X78653Y-40262D02*
X78653Y-40656D01*
X78653Y-40656D02*
X79046Y-40459D01*
X79046Y-40459D02*
X78653Y-40262D01*
X78456Y-40459D02*
X79243Y-40459D01*
X79834Y-41050D02*
G75*
G03X79834Y-41050I-984J0D01*
G74*
G01*
X79440Y-51262D02*
X79440Y-52837D01*
X79046Y-51656D02*
X79046Y-51262D01*
X78653Y-51262D02*
X78653Y-51656D01*
X78653Y-51656D02*
X79046Y-51459D01*
X79046Y-51459D02*
X78653Y-51262D01*
X78456Y-51459D02*
X79243Y-51459D01*
X79834Y-52050D02*
G75*
G03X79834Y-52050I-984J0D01*
G74*
G01*
X79440Y-62262D02*
X79440Y-63837D01*
X79046Y-62656D02*
X79046Y-62262D01*
X78653Y-62262D02*
X78653Y-62656D01*
X78653Y-62656D02*
X79046Y-62459D01*
X79046Y-62459D02*
X78653Y-62262D01*
X78456Y-62459D02*
X79243Y-62459D01*
X79834Y-63050D02*
G75*
G03X79834Y-63050I-984J0D01*
G74*
G01*
X83540Y-62262D02*
X83540Y-63837D01*
X83146Y-62656D02*
X83146Y-62262D01*
X82753Y-62262D02*
X82753Y-62656D01*
X82753Y-62656D02*
X83146Y-62459D01*
X83146Y-62459D02*
X82753Y-62262D01*
X82556Y-62459D02*
X83343Y-62459D01*
X83934Y-63050D02*
G75*
G03X83934Y-63050I-984J0D01*
G74*
G01*
X83540Y-51262D02*
X83540Y-52837D01*
X83146Y-51656D02*
X83146Y-51262D01*
X82753Y-51262D02*
X82753Y-51656D01*
X82753Y-51656D02*
X83146Y-51459D01*
X83146Y-51459D02*
X82753Y-51262D01*
X82556Y-51459D02*
X83343Y-51459D01*
X83934Y-52050D02*
G75*
G03X83934Y-52050I-984J0D01*
G74*
G01*
X83540Y-40262D02*
X83540Y-41837D01*
X83146Y-40656D02*
X83146Y-40262D01*
X82753Y-40262D02*
X82753Y-40656D01*
X82753Y-40656D02*
X83146Y-40459D01*
X83146Y-40459D02*
X82753Y-40262D01*
X82556Y-40459D02*
X83343Y-40459D01*
X83934Y-41050D02*
G75*
G03X83934Y-41050I-984J0D01*
G74*
G01*
G54D12*
X81965Y-57550D02*
G75*
G03X82950Y-58534I984J0D01*
G74*
G01*
X82162Y-57550D02*
G75*
G03X82950Y-58337I787J0D01*
G74*
G01*
X82359Y-57550D02*
G75*
G03X82950Y-58140I590J0D01*
G74*
G01*
X82556Y-57550D02*
G75*
G03X82950Y-57943I393J0D01*
G74*
G01*
X82753Y-57550D02*
G75*
G03X82950Y-57746I196J0D01*
G74*
G01*
X83934Y-57550D02*
G75*
G03X82950Y-56565I-984J0D01*
G74*
G01*
X83737Y-57550D02*
G75*
G03X82950Y-56762I-787J0D01*
G74*
G01*
X83540Y-57550D02*
G75*
G03X82950Y-56959I-590J0D01*
G74*
G01*
X83343Y-57550D02*
G75*
G03X82950Y-57156I-393J0D01*
G74*
G01*
X83146Y-57550D02*
G75*
G03X82950Y-57353I-196J0D01*
G74*
G01*
X82950Y-57550D02*
X82950Y-58731D01*
X82950Y-57550D02*
X81768Y-57550D01*
X82950Y-57550D02*
X84131Y-57550D01*
X82950Y-57550D02*
X82950Y-56368D01*
X84131Y-57550D02*
G75*
G03X84131Y-57550I-1181J0D01*
G74*
G01*
X81965Y-46550D02*
G75*
G03X82950Y-47534I984J0D01*
G74*
G01*
X82162Y-46550D02*
G75*
G03X82950Y-47337I787J0D01*
G74*
G01*
X82359Y-46550D02*
G75*
G03X82950Y-47140I590J0D01*
G74*
G01*
X82556Y-46550D02*
G75*
G03X82950Y-46943I393J0D01*
G74*
G01*
X82753Y-46550D02*
G75*
G03X82950Y-46746I196J0D01*
G74*
G01*
X83934Y-46550D02*
G75*
G03X82950Y-45565I-984J0D01*
G74*
G01*
X83737Y-46550D02*
G75*
G03X82950Y-45762I-787J0D01*
G74*
G01*
X83540Y-46550D02*
G75*
G03X82950Y-45959I-590J0D01*
G74*
G01*
X83343Y-46550D02*
G75*
G03X82950Y-46156I-393J0D01*
G74*
G01*
X83146Y-46550D02*
G75*
G03X82950Y-46353I-196J0D01*
G74*
G01*
X82950Y-46550D02*
X82950Y-47731D01*
X82950Y-46550D02*
X81768Y-46550D01*
X82950Y-46550D02*
X84131Y-46550D01*
X82950Y-46550D02*
X82950Y-45368D01*
X84131Y-46550D02*
G75*
G03X84131Y-46550I-1181J0D01*
G74*
G01*
X81965Y-35550D02*
G75*
G03X82950Y-36534I984J0D01*
G74*
G01*
X82162Y-35550D02*
G75*
G03X82950Y-36337I787J0D01*
G74*
G01*
X82359Y-35550D02*
G75*
G03X82950Y-36140I590J0D01*
G74*
G01*
X82556Y-35550D02*
G75*
G03X82950Y-35943I393J0D01*
G74*
G01*
X82753Y-35550D02*
G75*
G03X82950Y-35746I196J0D01*
G74*
G01*
X83934Y-35550D02*
G75*
G03X82950Y-34565I-984J0D01*
G74*
G01*
X83737Y-35550D02*
G75*
G03X82950Y-34762I-787J0D01*
G74*
G01*
X83540Y-35550D02*
G75*
G03X82950Y-34959I-590J0D01*
G74*
G01*
X83343Y-35550D02*
G75*
G03X82950Y-35156I-393J0D01*
G74*
G01*
X83146Y-35550D02*
G75*
G03X82950Y-35353I-196J0D01*
G74*
G01*
X82950Y-35550D02*
X82950Y-36731D01*
X82950Y-35550D02*
X81768Y-35550D01*
X82950Y-35550D02*
X84131Y-35550D01*
X82950Y-35550D02*
X82950Y-34368D01*
X84131Y-35550D02*
G75*
G03X84131Y-35550I-1181J0D01*
G74*
G01*
X73765Y-35550D02*
G75*
G03X74750Y-36534I984J0D01*
G74*
G01*
X73962Y-35550D02*
G75*
G03X74750Y-36337I787J0D01*
G74*
G01*
X74159Y-35550D02*
G75*
G03X74750Y-36140I590J0D01*
G74*
G01*
X74356Y-35550D02*
G75*
G03X74750Y-35943I393J0D01*
G74*
G01*
X74553Y-35550D02*
G75*
G03X74750Y-35746I196J0D01*
G74*
G01*
X75734Y-35550D02*
G75*
G03X74750Y-34565I-984J0D01*
G74*
G01*
X75537Y-35550D02*
G75*
G03X74750Y-34762I-787J0D01*
G74*
G01*
X75340Y-35550D02*
G75*
G03X74750Y-34959I-590J0D01*
G74*
G01*
X75143Y-35550D02*
G75*
G03X74750Y-35156I-393J0D01*
G74*
G01*
X74946Y-35550D02*
G75*
G03X74750Y-35353I-196J0D01*
G74*
G01*
X74750Y-35550D02*
X74750Y-36731D01*
X74750Y-35550D02*
X73568Y-35550D01*
X74750Y-35550D02*
X75931Y-35550D01*
X74750Y-35550D02*
X74750Y-34368D01*
X75931Y-35550D02*
G75*
G03X75931Y-35550I-1181J0D01*
G74*
G01*
X73765Y-46550D02*
G75*
G03X74750Y-47534I984J0D01*
G74*
G01*
X73962Y-46550D02*
G75*
G03X74750Y-47337I787J0D01*
G74*
G01*
X74159Y-46550D02*
G75*
G03X74750Y-47140I590J0D01*
G74*
G01*
X74356Y-46550D02*
G75*
G03X74750Y-46943I393J0D01*
G74*
G01*
X74553Y-46550D02*
G75*
G03X74750Y-46746I196J0D01*
G74*
G01*
X75734Y-46550D02*
G75*
G03X74750Y-45565I-984J0D01*
G74*
G01*
X75537Y-46550D02*
G75*
G03X74750Y-45762I-787J0D01*
G74*
G01*
X75340Y-46550D02*
G75*
G03X74750Y-45959I-590J0D01*
G74*
G01*
X75143Y-46550D02*
G75*
G03X74750Y-46156I-393J0D01*
G74*
G01*
X74946Y-46550D02*
G75*
G03X74750Y-46353I-196J0D01*
G74*
G01*
X74750Y-46550D02*
X74750Y-47731D01*
X74750Y-46550D02*
X73568Y-46550D01*
X74750Y-46550D02*
X75931Y-46550D01*
X74750Y-46550D02*
X74750Y-45368D01*
X75931Y-46550D02*
G75*
G03X75931Y-46550I-1181J0D01*
G74*
G01*
X73765Y-57550D02*
G75*
G03X74750Y-58534I984J0D01*
G74*
G01*
X73962Y-57550D02*
G75*
G03X74750Y-58337I787J0D01*
G74*
G01*
X74159Y-57550D02*
G75*
G03X74750Y-58140I590J0D01*
G74*
G01*
X74356Y-57550D02*
G75*
G03X74750Y-57943I393J0D01*
G74*
G01*
X74553Y-57550D02*
G75*
G03X74750Y-57746I196J0D01*
G74*
G01*
X75734Y-57550D02*
G75*
G03X74750Y-56565I-984J0D01*
G74*
G01*
X75537Y-57550D02*
G75*
G03X74750Y-56762I-787J0D01*
G74*
G01*
X75340Y-57550D02*
G75*
G03X74750Y-56959I-590J0D01*
G74*
G01*
X75143Y-57550D02*
G75*
G03X74750Y-57156I-393J0D01*
G74*
G01*
X74946Y-57550D02*
G75*
G03X74750Y-57353I-196J0D01*
G74*
G01*
X74750Y-57550D02*
X74750Y-58731D01*
X74750Y-57550D02*
X73568Y-57550D01*
X74750Y-57550D02*
X75931Y-57550D01*
X74750Y-57550D02*
X74750Y-56368D01*
X75931Y-57550D02*
G75*
G03X75931Y-57550I-1181J0D01*
G74*
G01*
G54D11*
X75340Y-40262D02*
X75340Y-41837D01*
X74946Y-40656D02*
X74946Y-40262D01*
X74553Y-40262D02*
X74553Y-40656D01*
X74553Y-40656D02*
X74946Y-40459D01*
X74946Y-40459D02*
X74553Y-40262D01*
X74356Y-40459D02*
X75143Y-40459D01*
X75734Y-41050D02*
G75*
G03X75734Y-41050I-984J0D01*
G74*
G01*
X75340Y-51262D02*
X75340Y-52837D01*
X74946Y-51656D02*
X74946Y-51262D01*
X74553Y-51262D02*
X74553Y-51656D01*
X74553Y-51656D02*
X74946Y-51459D01*
X74946Y-51459D02*
X74553Y-51262D01*
X74356Y-51459D02*
X75143Y-51459D01*
X75734Y-52050D02*
G75*
G03X75734Y-52050I-984J0D01*
G74*
G01*
X75340Y-62262D02*
X75340Y-63837D01*
X74946Y-62656D02*
X74946Y-62262D01*
X74553Y-62262D02*
X74553Y-62656D01*
X74553Y-62656D02*
X74946Y-62459D01*
X74946Y-62459D02*
X74553Y-62262D01*
X74356Y-62459D02*
X75143Y-62459D01*
X75734Y-63050D02*
G75*
G03X75734Y-63050I-984J0D01*
G74*
G01*
G54D12*
X110665Y-35550D02*
G75*
G03X111650Y-36534I984J0D01*
G74*
G01*
X110862Y-35550D02*
G75*
G03X111650Y-36337I787J0D01*
G74*
G01*
X111059Y-35550D02*
G75*
G03X111650Y-36140I590J0D01*
G74*
G01*
X111256Y-35550D02*
G75*
G03X111650Y-35943I393J0D01*
G74*
G01*
X111453Y-35550D02*
G75*
G03X111650Y-35746I196J0D01*
G74*
G01*
X112634Y-35550D02*
G75*
G03X111650Y-34565I-984J0D01*
G74*
G01*
X112437Y-35550D02*
G75*
G03X111650Y-34762I-787J0D01*
G74*
G01*
X112240Y-35550D02*
G75*
G03X111650Y-34959I-590J0D01*
G74*
G01*
X112043Y-35550D02*
G75*
G03X111650Y-35156I-393J0D01*
G74*
G01*
X111846Y-35550D02*
G75*
G03X111650Y-35353I-196J0D01*
G74*
G01*
X111650Y-35550D02*
X111650Y-36731D01*
X111650Y-35550D02*
X110468Y-35550D01*
X111650Y-35550D02*
X112831Y-35550D01*
X111650Y-35550D02*
X111650Y-34368D01*
X112831Y-35550D02*
G75*
G03X112831Y-35550I-1181J0D01*
G74*
G01*
X110665Y-46550D02*
G75*
G03X111650Y-47534I984J0D01*
G74*
G01*
X110862Y-46550D02*
G75*
G03X111650Y-47337I787J0D01*
G74*
G01*
X111059Y-46550D02*
G75*
G03X111650Y-47140I590J0D01*
G74*
G01*
X111256Y-46550D02*
G75*
G03X111650Y-46943I393J0D01*
G74*
G01*
X111453Y-46550D02*
G75*
G03X111650Y-46746I196J0D01*
G74*
G01*
X112634Y-46550D02*
G75*
G03X111650Y-45565I-984J0D01*
G74*
G01*
X112437Y-46550D02*
G75*
G03X111650Y-45762I-787J0D01*
G74*
G01*
X112240Y-46550D02*
G75*
G03X111650Y-45959I-590J0D01*
G74*
G01*
X112043Y-46550D02*
G75*
G03X111650Y-46156I-393J0D01*
G74*
G01*
X111846Y-46550D02*
G75*
G03X111650Y-46353I-196J0D01*
G74*
G01*
X111650Y-46550D02*
X111650Y-47731D01*
X111650Y-46550D02*
X110468Y-46550D01*
X111650Y-46550D02*
X112831Y-46550D01*
X111650Y-46550D02*
X111650Y-45368D01*
X112831Y-46550D02*
G75*
G03X112831Y-46550I-1181J0D01*
G74*
G01*
X110665Y-57550D02*
G75*
G03X111650Y-58534I984J0D01*
G74*
G01*
X110862Y-57550D02*
G75*
G03X111650Y-58337I787J0D01*
G74*
G01*
X111059Y-57550D02*
G75*
G03X111650Y-58140I590J0D01*
G74*
G01*
X111256Y-57550D02*
G75*
G03X111650Y-57943I393J0D01*
G74*
G01*
X111453Y-57550D02*
G75*
G03X111650Y-57746I196J0D01*
G74*
G01*
X112634Y-57550D02*
G75*
G03X111650Y-56565I-984J0D01*
G74*
G01*
X112437Y-57550D02*
G75*
G03X111650Y-56762I-787J0D01*
G74*
G01*
X112240Y-57550D02*
G75*
G03X111650Y-56959I-590J0D01*
G74*
G01*
X112043Y-57550D02*
G75*
G03X111650Y-57156I-393J0D01*
G74*
G01*
X111846Y-57550D02*
G75*
G03X111650Y-57353I-196J0D01*
G74*
G01*
X111650Y-57550D02*
X111650Y-58731D01*
X111650Y-57550D02*
X110468Y-57550D01*
X111650Y-57550D02*
X112831Y-57550D01*
X111650Y-57550D02*
X111650Y-56368D01*
X112831Y-57550D02*
G75*
G03X112831Y-57550I-1181J0D01*
G74*
G01*
G54D11*
X112240Y-40262D02*
X112240Y-41837D01*
X111846Y-40656D02*
X111846Y-40262D01*
X111453Y-40262D02*
X111453Y-40656D01*
X111453Y-40656D02*
X111846Y-40459D01*
X111846Y-40459D02*
X111453Y-40262D01*
X111256Y-40459D02*
X112043Y-40459D01*
X112634Y-41050D02*
G75*
G03X112634Y-41050I-984J0D01*
G74*
G01*
X112240Y-51262D02*
X112240Y-52837D01*
X111846Y-51656D02*
X111846Y-51262D01*
X111453Y-51262D02*
X111453Y-51656D01*
X111453Y-51656D02*
X111846Y-51459D01*
X111846Y-51459D02*
X111453Y-51262D01*
X111256Y-51459D02*
X112043Y-51459D01*
X112634Y-52050D02*
G75*
G03X112634Y-52050I-984J0D01*
G74*
G01*
X112240Y-62262D02*
X112240Y-63837D01*
X111846Y-62656D02*
X111846Y-62262D01*
X111453Y-62262D02*
X111453Y-62656D01*
X111453Y-62656D02*
X111846Y-62459D01*
X111846Y-62459D02*
X111453Y-62262D01*
X111256Y-62459D02*
X112043Y-62459D01*
X112634Y-63050D02*
G75*
G03X112634Y-63050I-984J0D01*
G74*
G01*
X71240Y-62262D02*
X71240Y-63837D01*
X70846Y-62656D02*
X70846Y-62262D01*
X70453Y-62262D02*
X70453Y-62656D01*
X70453Y-62656D02*
X70846Y-62459D01*
X70846Y-62459D02*
X70453Y-62262D01*
X70256Y-62459D02*
X71043Y-62459D01*
X71634Y-63050D02*
G75*
G03X71634Y-63050I-984J0D01*
G74*
G01*
X71240Y-51262D02*
X71240Y-52837D01*
X70846Y-51656D02*
X70846Y-51262D01*
X70453Y-51262D02*
X70453Y-51656D01*
X70453Y-51656D02*
X70846Y-51459D01*
X70846Y-51459D02*
X70453Y-51262D01*
X70256Y-51459D02*
X71043Y-51459D01*
X71634Y-52050D02*
G75*
G03X71634Y-52050I-984J0D01*
G74*
G01*
X71240Y-40262D02*
X71240Y-41837D01*
X70846Y-40656D02*
X70846Y-40262D01*
X70453Y-40262D02*
X70453Y-40656D01*
X70453Y-40656D02*
X70846Y-40459D01*
X70846Y-40459D02*
X70453Y-40262D01*
X70256Y-40459D02*
X71043Y-40459D01*
X71634Y-41050D02*
G75*
G03X71634Y-41050I-984J0D01*
G74*
G01*
G54D12*
X69665Y-57550D02*
G75*
G03X70650Y-58534I984J0D01*
G74*
G01*
X69862Y-57550D02*
G75*
G03X70650Y-58337I787J0D01*
G74*
G01*
X70059Y-57550D02*
G75*
G03X70650Y-58140I590J0D01*
G74*
G01*
X70256Y-57550D02*
G75*
G03X70650Y-57943I393J0D01*
G74*
G01*
X70453Y-57550D02*
G75*
G03X70650Y-57746I196J0D01*
G74*
G01*
X71634Y-57550D02*
G75*
G03X70650Y-56565I-984J0D01*
G74*
G01*
X71437Y-57550D02*
G75*
G03X70650Y-56762I-787J0D01*
G74*
G01*
X71240Y-57550D02*
G75*
G03X70650Y-56959I-590J0D01*
G74*
G01*
X71043Y-57550D02*
G75*
G03X70650Y-57156I-393J0D01*
G74*
G01*
X70846Y-57550D02*
G75*
G03X70650Y-57353I-196J0D01*
G74*
G01*
X70650Y-57550D02*
X70650Y-58731D01*
X70650Y-57550D02*
X69468Y-57550D01*
X70650Y-57550D02*
X71831Y-57550D01*
X70650Y-57550D02*
X70650Y-56368D01*
X71831Y-57550D02*
G75*
G03X71831Y-57550I-1181J0D01*
G74*
G01*
X69665Y-46550D02*
G75*
G03X70650Y-47534I984J0D01*
G74*
G01*
X69862Y-46550D02*
G75*
G03X70650Y-47337I787J0D01*
G74*
G01*
X70059Y-46550D02*
G75*
G03X70650Y-47140I590J0D01*
G74*
G01*
X70256Y-46550D02*
G75*
G03X70650Y-46943I393J0D01*
G74*
G01*
X70453Y-46550D02*
G75*
G03X70650Y-46746I196J0D01*
G74*
G01*
X71634Y-46550D02*
G75*
G03X70650Y-45565I-984J0D01*
G74*
G01*
X71437Y-46550D02*
G75*
G03X70650Y-45762I-787J0D01*
G74*
G01*
X71240Y-46550D02*
G75*
G03X70650Y-45959I-590J0D01*
G74*
G01*
X71043Y-46550D02*
G75*
G03X70650Y-46156I-393J0D01*
G74*
G01*
X70846Y-46550D02*
G75*
G03X70650Y-46353I-196J0D01*
G74*
G01*
X70650Y-46550D02*
X70650Y-47731D01*
X70650Y-46550D02*
X69468Y-46550D01*
X70650Y-46550D02*
X71831Y-46550D01*
X70650Y-46550D02*
X70650Y-45368D01*
X71831Y-46550D02*
G75*
G03X71831Y-46550I-1181J0D01*
G74*
G01*
X69665Y-35550D02*
G75*
G03X70650Y-36534I984J0D01*
G74*
G01*
X69862Y-35550D02*
G75*
G03X70650Y-36337I787J0D01*
G74*
G01*
X70059Y-35550D02*
G75*
G03X70650Y-36140I590J0D01*
G74*
G01*
X70256Y-35550D02*
G75*
G03X70650Y-35943I393J0D01*
G74*
G01*
X70453Y-35550D02*
G75*
G03X70650Y-35746I196J0D01*
G74*
G01*
X71634Y-35550D02*
G75*
G03X70650Y-34565I-984J0D01*
G74*
G01*
X71437Y-35550D02*
G75*
G03X70650Y-34762I-787J0D01*
G74*
G01*
X71240Y-35550D02*
G75*
G03X70650Y-34959I-590J0D01*
G74*
G01*
X71043Y-35550D02*
G75*
G03X70650Y-35156I-393J0D01*
G74*
G01*
X70846Y-35550D02*
G75*
G03X70650Y-35353I-196J0D01*
G74*
G01*
X70650Y-35550D02*
X70650Y-36731D01*
X70650Y-35550D02*
X69468Y-35550D01*
X70650Y-35550D02*
X71831Y-35550D01*
X70650Y-35550D02*
X70650Y-34368D01*
X71831Y-35550D02*
G75*
G03X71831Y-35550I-1181J0D01*
G74*
G01*
G54D10*
X107035Y-64549D02*
X107078Y-64563D01*
X107150Y-64563D01*
X107178Y-64549D01*
X107192Y-64535D01*
X107207Y-64506D01*
X107207Y-64477D01*
X107192Y-64449D01*
X107178Y-64435D01*
X107150Y-64420D01*
X107092Y-64406D01*
X107064Y-64392D01*
X107050Y-64377D01*
X107035Y-64349D01*
X107035Y-64320D01*
X107050Y-64292D01*
X107064Y-64277D01*
X107092Y-64263D01*
X107164Y-64263D01*
X107207Y-64277D01*
X107335Y-64406D02*
X107435Y-64406D01*
X107478Y-64563D02*
X107335Y-64563D01*
X107335Y-64263D01*
X107478Y-64263D01*
X107778Y-64535D02*
X107764Y-64549D01*
X107721Y-64563D01*
X107692Y-64563D01*
X107650Y-64549D01*
X107621Y-64520D01*
X107607Y-64492D01*
X107592Y-64435D01*
X107592Y-64392D01*
X107607Y-64335D01*
X107621Y-64306D01*
X107650Y-64277D01*
X107692Y-64263D01*
X107721Y-64263D01*
X107764Y-64277D01*
X107778Y-64292D01*
X108064Y-64563D02*
X107892Y-64563D01*
X107978Y-64563D02*
X107978Y-64263D01*
X107950Y-64306D01*
X107921Y-64335D01*
X107892Y-64349D01*
X107078Y-53563D02*
X107078Y-53263D01*
X107178Y-53477D01*
X107278Y-53263D01*
X107278Y-53563D01*
X107421Y-53563D02*
X107421Y-53263D01*
X107564Y-53563D02*
X107564Y-53263D01*
X107735Y-53563D01*
X107735Y-53263D01*
X108035Y-53563D02*
X107864Y-53563D01*
X107950Y-53563D02*
X107950Y-53263D01*
X107921Y-53306D01*
X107892Y-53335D01*
X107864Y-53349D01*
X106857Y-42563D02*
X106857Y-42263D01*
X106857Y-42406D02*
X107028Y-42406D01*
X107028Y-42563D02*
X107028Y-42263D01*
X107228Y-42263D02*
X107285Y-42263D01*
X107314Y-42277D01*
X107342Y-42306D01*
X107357Y-42363D01*
X107357Y-42463D01*
X107342Y-42520D01*
X107314Y-42549D01*
X107285Y-42563D01*
X107228Y-42563D01*
X107200Y-42549D01*
X107171Y-42520D01*
X107157Y-42463D01*
X107157Y-42363D01*
X107171Y-42306D01*
X107200Y-42277D01*
X107228Y-42263D01*
X107485Y-42263D02*
X107485Y-42506D01*
X107500Y-42535D01*
X107514Y-42549D01*
X107542Y-42563D01*
X107600Y-42563D01*
X107628Y-42549D01*
X107642Y-42535D01*
X107657Y-42506D01*
X107657Y-42263D01*
X107971Y-42563D02*
X107871Y-42420D01*
X107800Y-42563D02*
X107800Y-42263D01*
X107914Y-42263D01*
X107942Y-42277D01*
X107957Y-42292D01*
X107971Y-42320D01*
X107971Y-42363D01*
X107957Y-42392D01*
X107942Y-42406D01*
X107914Y-42420D01*
X107800Y-42420D01*
X108257Y-42563D02*
X108085Y-42563D01*
X108171Y-42563D02*
X108171Y-42263D01*
X108142Y-42306D01*
X108114Y-42335D01*
X108085Y-42349D01*
X105935Y-31907D02*
X105935Y-32049D01*
X105635Y-32049D01*
X105935Y-31807D02*
X105635Y-31807D01*
X105935Y-31635D01*
X105635Y-31635D01*
X105935Y-31492D02*
X105635Y-31492D01*
X105635Y-31421D01*
X105650Y-31378D01*
X105678Y-31349D01*
X105707Y-31335D01*
X105764Y-31321D01*
X105807Y-31321D01*
X105864Y-31335D01*
X105892Y-31349D01*
X105921Y-31378D01*
X105935Y-31421D01*
X105935Y-31492D01*
X105935Y-31035D02*
X105935Y-31207D01*
X105935Y-31121D02*
X105635Y-31121D01*
X105678Y-31149D01*
X105707Y-31178D01*
X105721Y-31207D01*
X106135Y-32057D02*
X106435Y-31957D01*
X106135Y-31857D01*
X106435Y-31614D02*
X106435Y-31757D01*
X106135Y-31757D01*
X106278Y-31514D02*
X106278Y-31414D01*
X106435Y-31371D02*
X106435Y-31514D01*
X106135Y-31514D01*
X106135Y-31371D01*
X106435Y-31242D02*
X106135Y-31242D01*
X106135Y-31171D01*
X106150Y-31128D01*
X106178Y-31099D01*
X106207Y-31085D01*
X106264Y-31071D01*
X106307Y-31071D01*
X106364Y-31085D01*
X106392Y-31099D01*
X106421Y-31128D01*
X106435Y-31171D01*
X106435Y-31242D01*
X106935Y-31907D02*
X106935Y-32049D01*
X106635Y-32049D01*
X106935Y-31807D02*
X106635Y-31807D01*
X106935Y-31635D01*
X106635Y-31635D01*
X106935Y-31492D02*
X106635Y-31492D01*
X106635Y-31421D01*
X106650Y-31378D01*
X106678Y-31349D01*
X106707Y-31335D01*
X106764Y-31321D01*
X106807Y-31321D01*
X106864Y-31335D01*
X106892Y-31349D01*
X106921Y-31378D01*
X106935Y-31421D01*
X106935Y-31492D01*
X106664Y-31207D02*
X106650Y-31192D01*
X106635Y-31164D01*
X106635Y-31092D01*
X106650Y-31064D01*
X106664Y-31049D01*
X106692Y-31035D01*
X106721Y-31035D01*
X106764Y-31049D01*
X106935Y-31221D01*
X106935Y-31035D01*
X107435Y-32100D02*
X107135Y-32100D01*
X107278Y-32100D02*
X107278Y-31928D01*
X107435Y-31928D02*
X107135Y-31928D01*
X107135Y-31728D02*
X107135Y-31671D01*
X107150Y-31642D01*
X107178Y-31614D01*
X107235Y-31600D01*
X107335Y-31600D01*
X107392Y-31614D01*
X107421Y-31642D01*
X107435Y-31671D01*
X107435Y-31728D01*
X107421Y-31757D01*
X107392Y-31785D01*
X107335Y-31800D01*
X107235Y-31800D01*
X107178Y-31785D01*
X107150Y-31757D01*
X107135Y-31728D01*
X107135Y-31471D02*
X107378Y-31471D01*
X107407Y-31457D01*
X107421Y-31442D01*
X107435Y-31414D01*
X107435Y-31357D01*
X107421Y-31328D01*
X107407Y-31314D01*
X107378Y-31300D01*
X107135Y-31300D01*
X107435Y-30985D02*
X107292Y-31085D01*
X107435Y-31157D02*
X107135Y-31157D01*
X107135Y-31042D01*
X107150Y-31014D01*
X107164Y-31000D01*
X107192Y-30985D01*
X107235Y-30985D01*
X107264Y-31000D01*
X107278Y-31014D01*
X107292Y-31042D01*
X107292Y-31157D01*
X107935Y-31907D02*
X107935Y-32049D01*
X107635Y-32049D01*
X107935Y-31807D02*
X107635Y-31807D01*
X107935Y-31635D01*
X107635Y-31635D01*
X107935Y-31492D02*
X107635Y-31492D01*
X107635Y-31421D01*
X107650Y-31378D01*
X107678Y-31349D01*
X107707Y-31335D01*
X107764Y-31321D01*
X107807Y-31321D01*
X107864Y-31335D01*
X107892Y-31349D01*
X107921Y-31378D01*
X107935Y-31421D01*
X107935Y-31492D01*
X107635Y-31221D02*
X107635Y-31035D01*
X107750Y-31135D01*
X107750Y-31092D01*
X107764Y-31064D01*
X107778Y-31049D01*
X107807Y-31035D01*
X107878Y-31035D01*
X107907Y-31049D01*
X107921Y-31064D01*
X107935Y-31092D01*
X107935Y-31178D01*
X107921Y-31207D01*
X107907Y-31221D01*
X108435Y-31878D02*
X108135Y-31878D01*
X108350Y-31778D01*
X108135Y-31678D01*
X108435Y-31678D01*
X108435Y-31535D02*
X108135Y-31535D01*
X108435Y-31392D02*
X108135Y-31392D01*
X108435Y-31221D01*
X108135Y-31221D01*
X108935Y-31907D02*
X108935Y-32049D01*
X108635Y-32049D01*
X108935Y-31807D02*
X108635Y-31807D01*
X108935Y-31635D01*
X108635Y-31635D01*
X108935Y-31492D02*
X108635Y-31492D01*
X108635Y-31421D01*
X108650Y-31378D01*
X108678Y-31349D01*
X108707Y-31335D01*
X108764Y-31321D01*
X108807Y-31321D01*
X108864Y-31335D01*
X108892Y-31349D01*
X108921Y-31378D01*
X108935Y-31421D01*
X108935Y-31492D01*
X108735Y-31064D02*
X108935Y-31064D01*
X108621Y-31135D02*
X108835Y-31207D01*
X108835Y-31021D01*
X109421Y-31921D02*
X109435Y-31878D01*
X109435Y-31807D01*
X109421Y-31778D01*
X109407Y-31764D01*
X109378Y-31750D01*
X109350Y-31750D01*
X109321Y-31764D01*
X109307Y-31778D01*
X109292Y-31807D01*
X109278Y-31864D01*
X109264Y-31892D01*
X109250Y-31907D01*
X109221Y-31921D01*
X109192Y-31921D01*
X109164Y-31907D01*
X109150Y-31892D01*
X109135Y-31864D01*
X109135Y-31792D01*
X109150Y-31750D01*
X109278Y-31621D02*
X109278Y-31521D01*
X109435Y-31478D02*
X109435Y-31621D01*
X109135Y-31621D01*
X109135Y-31478D01*
X109407Y-31178D02*
X109421Y-31192D01*
X109435Y-31235D01*
X109435Y-31264D01*
X109421Y-31307D01*
X109392Y-31335D01*
X109364Y-31349D01*
X109307Y-31364D01*
X109264Y-31364D01*
X109207Y-31349D01*
X109178Y-31335D01*
X109150Y-31307D01*
X109135Y-31264D01*
X109135Y-31235D01*
X109150Y-31192D01*
X109164Y-31178D01*
X102935Y-64549D02*
X102978Y-64563D01*
X103050Y-64563D01*
X103078Y-64549D01*
X103092Y-64535D01*
X103107Y-64506D01*
X103107Y-64477D01*
X103092Y-64449D01*
X103078Y-64435D01*
X103050Y-64420D01*
X102992Y-64406D01*
X102964Y-64392D01*
X102950Y-64377D01*
X102935Y-64349D01*
X102935Y-64320D01*
X102950Y-64292D01*
X102964Y-64277D01*
X102992Y-64263D01*
X103064Y-64263D01*
X103107Y-64277D01*
X103235Y-64406D02*
X103335Y-64406D01*
X103378Y-64563D02*
X103235Y-64563D01*
X103235Y-64263D01*
X103378Y-64263D01*
X103678Y-64535D02*
X103664Y-64549D01*
X103621Y-64563D01*
X103592Y-64563D01*
X103550Y-64549D01*
X103521Y-64520D01*
X103507Y-64492D01*
X103492Y-64435D01*
X103492Y-64392D01*
X103507Y-64335D01*
X103521Y-64306D01*
X103550Y-64277D01*
X103592Y-64263D01*
X103621Y-64263D01*
X103664Y-64277D01*
X103678Y-64292D01*
X103964Y-64563D02*
X103792Y-64563D01*
X103878Y-64563D02*
X103878Y-64263D01*
X103850Y-64306D01*
X103821Y-64335D01*
X103792Y-64349D01*
X102978Y-53563D02*
X102978Y-53263D01*
X103078Y-53477D01*
X103178Y-53263D01*
X103178Y-53563D01*
X103321Y-53563D02*
X103321Y-53263D01*
X103464Y-53563D02*
X103464Y-53263D01*
X103635Y-53563D01*
X103635Y-53263D01*
X103935Y-53563D02*
X103764Y-53563D01*
X103850Y-53563D02*
X103850Y-53263D01*
X103821Y-53306D01*
X103792Y-53335D01*
X103764Y-53349D01*
X102757Y-42563D02*
X102757Y-42263D01*
X102757Y-42406D02*
X102928Y-42406D01*
X102928Y-42563D02*
X102928Y-42263D01*
X103128Y-42263D02*
X103185Y-42263D01*
X103214Y-42277D01*
X103242Y-42306D01*
X103257Y-42363D01*
X103257Y-42463D01*
X103242Y-42520D01*
X103214Y-42549D01*
X103185Y-42563D01*
X103128Y-42563D01*
X103100Y-42549D01*
X103071Y-42520D01*
X103057Y-42463D01*
X103057Y-42363D01*
X103071Y-42306D01*
X103100Y-42277D01*
X103128Y-42263D01*
X103385Y-42263D02*
X103385Y-42506D01*
X103400Y-42535D01*
X103414Y-42549D01*
X103442Y-42563D01*
X103500Y-42563D01*
X103528Y-42549D01*
X103542Y-42535D01*
X103557Y-42506D01*
X103557Y-42263D01*
X103871Y-42563D02*
X103771Y-42420D01*
X103700Y-42563D02*
X103700Y-42263D01*
X103814Y-42263D01*
X103842Y-42277D01*
X103857Y-42292D01*
X103871Y-42320D01*
X103871Y-42363D01*
X103857Y-42392D01*
X103842Y-42406D01*
X103814Y-42420D01*
X103700Y-42420D01*
X104157Y-42563D02*
X103985Y-42563D01*
X104071Y-42563D02*
X104071Y-42263D01*
X104042Y-42306D01*
X104014Y-42335D01*
X103985Y-42349D01*
X101835Y-31907D02*
X101835Y-32049D01*
X101535Y-32049D01*
X101835Y-31807D02*
X101535Y-31807D01*
X101835Y-31635D01*
X101535Y-31635D01*
X101835Y-31492D02*
X101535Y-31492D01*
X101535Y-31421D01*
X101550Y-31378D01*
X101578Y-31349D01*
X101607Y-31335D01*
X101664Y-31321D01*
X101707Y-31321D01*
X101764Y-31335D01*
X101792Y-31349D01*
X101821Y-31378D01*
X101835Y-31421D01*
X101835Y-31492D01*
X101835Y-31035D02*
X101835Y-31207D01*
X101835Y-31121D02*
X101535Y-31121D01*
X101578Y-31149D01*
X101607Y-31178D01*
X101621Y-31207D01*
X102035Y-32057D02*
X102335Y-31957D01*
X102035Y-31857D01*
X102335Y-31614D02*
X102335Y-31757D01*
X102035Y-31757D01*
X102178Y-31514D02*
X102178Y-31414D01*
X102335Y-31371D02*
X102335Y-31514D01*
X102035Y-31514D01*
X102035Y-31371D01*
X102335Y-31242D02*
X102035Y-31242D01*
X102035Y-31171D01*
X102050Y-31128D01*
X102078Y-31099D01*
X102107Y-31085D01*
X102164Y-31071D01*
X102207Y-31071D01*
X102264Y-31085D01*
X102292Y-31099D01*
X102321Y-31128D01*
X102335Y-31171D01*
X102335Y-31242D01*
X102835Y-31907D02*
X102835Y-32049D01*
X102535Y-32049D01*
X102835Y-31807D02*
X102535Y-31807D01*
X102835Y-31635D01*
X102535Y-31635D01*
X102835Y-31492D02*
X102535Y-31492D01*
X102535Y-31421D01*
X102550Y-31378D01*
X102578Y-31349D01*
X102607Y-31335D01*
X102664Y-31321D01*
X102707Y-31321D01*
X102764Y-31335D01*
X102792Y-31349D01*
X102821Y-31378D01*
X102835Y-31421D01*
X102835Y-31492D01*
X102564Y-31207D02*
X102550Y-31192D01*
X102535Y-31164D01*
X102535Y-31092D01*
X102550Y-31064D01*
X102564Y-31049D01*
X102592Y-31035D01*
X102621Y-31035D01*
X102664Y-31049D01*
X102835Y-31221D01*
X102835Y-31035D01*
X103335Y-32100D02*
X103035Y-32100D01*
X103178Y-32100D02*
X103178Y-31928D01*
X103335Y-31928D02*
X103035Y-31928D01*
X103035Y-31728D02*
X103035Y-31671D01*
X103050Y-31642D01*
X103078Y-31614D01*
X103135Y-31600D01*
X103235Y-31600D01*
X103292Y-31614D01*
X103321Y-31642D01*
X103335Y-31671D01*
X103335Y-31728D01*
X103321Y-31757D01*
X103292Y-31785D01*
X103235Y-31800D01*
X103135Y-31800D01*
X103078Y-31785D01*
X103050Y-31757D01*
X103035Y-31728D01*
X103035Y-31471D02*
X103278Y-31471D01*
X103307Y-31457D01*
X103321Y-31442D01*
X103335Y-31414D01*
X103335Y-31357D01*
X103321Y-31328D01*
X103307Y-31314D01*
X103278Y-31300D01*
X103035Y-31300D01*
X103335Y-30985D02*
X103192Y-31085D01*
X103335Y-31157D02*
X103035Y-31157D01*
X103035Y-31042D01*
X103050Y-31014D01*
X103064Y-31000D01*
X103092Y-30985D01*
X103135Y-30985D01*
X103164Y-31000D01*
X103178Y-31014D01*
X103192Y-31042D01*
X103192Y-31157D01*
X103835Y-31907D02*
X103835Y-32049D01*
X103535Y-32049D01*
X103835Y-31807D02*
X103535Y-31807D01*
X103835Y-31635D01*
X103535Y-31635D01*
X103835Y-31492D02*
X103535Y-31492D01*
X103535Y-31421D01*
X103550Y-31378D01*
X103578Y-31349D01*
X103607Y-31335D01*
X103664Y-31321D01*
X103707Y-31321D01*
X103764Y-31335D01*
X103792Y-31349D01*
X103821Y-31378D01*
X103835Y-31421D01*
X103835Y-31492D01*
X103535Y-31221D02*
X103535Y-31035D01*
X103650Y-31135D01*
X103650Y-31092D01*
X103664Y-31064D01*
X103678Y-31049D01*
X103707Y-31035D01*
X103778Y-31035D01*
X103807Y-31049D01*
X103821Y-31064D01*
X103835Y-31092D01*
X103835Y-31178D01*
X103821Y-31207D01*
X103807Y-31221D01*
X104335Y-31878D02*
X104035Y-31878D01*
X104250Y-31778D01*
X104035Y-31678D01*
X104335Y-31678D01*
X104335Y-31535D02*
X104035Y-31535D01*
X104335Y-31392D02*
X104035Y-31392D01*
X104335Y-31221D01*
X104035Y-31221D01*
X104835Y-31907D02*
X104835Y-32049D01*
X104535Y-32049D01*
X104835Y-31807D02*
X104535Y-31807D01*
X104835Y-31635D01*
X104535Y-31635D01*
X104835Y-31492D02*
X104535Y-31492D01*
X104535Y-31421D01*
X104550Y-31378D01*
X104578Y-31349D01*
X104607Y-31335D01*
X104664Y-31321D01*
X104707Y-31321D01*
X104764Y-31335D01*
X104792Y-31349D01*
X104821Y-31378D01*
X104835Y-31421D01*
X104835Y-31492D01*
X104635Y-31064D02*
X104835Y-31064D01*
X104521Y-31135D02*
X104735Y-31207D01*
X104735Y-31021D01*
X105321Y-31921D02*
X105335Y-31878D01*
X105335Y-31807D01*
X105321Y-31778D01*
X105307Y-31764D01*
X105278Y-31750D01*
X105250Y-31750D01*
X105221Y-31764D01*
X105207Y-31778D01*
X105192Y-31807D01*
X105178Y-31864D01*
X105164Y-31892D01*
X105150Y-31907D01*
X105121Y-31921D01*
X105092Y-31921D01*
X105064Y-31907D01*
X105050Y-31892D01*
X105035Y-31864D01*
X105035Y-31792D01*
X105050Y-31750D01*
X105178Y-31621D02*
X105178Y-31521D01*
X105335Y-31478D02*
X105335Y-31621D01*
X105035Y-31621D01*
X105035Y-31478D01*
X105307Y-31178D02*
X105321Y-31192D01*
X105335Y-31235D01*
X105335Y-31264D01*
X105321Y-31307D01*
X105292Y-31335D01*
X105264Y-31349D01*
X105207Y-31364D01*
X105164Y-31364D01*
X105107Y-31349D01*
X105078Y-31335D01*
X105050Y-31307D01*
X105035Y-31264D01*
X105035Y-31235D01*
X105050Y-31192D01*
X105064Y-31178D01*
X88435Y-31907D02*
X88435Y-32049D01*
X88135Y-32049D01*
X88435Y-31807D02*
X88135Y-31807D01*
X88435Y-31635D01*
X88135Y-31635D01*
X88435Y-31492D02*
X88135Y-31492D01*
X88135Y-31421D01*
X88150Y-31378D01*
X88178Y-31349D01*
X88207Y-31335D01*
X88264Y-31321D01*
X88307Y-31321D01*
X88364Y-31335D01*
X88392Y-31349D01*
X88421Y-31378D01*
X88435Y-31421D01*
X88435Y-31492D01*
X88235Y-31064D02*
X88435Y-31064D01*
X88121Y-31135D02*
X88335Y-31207D01*
X88335Y-31021D01*
X88921Y-31921D02*
X88935Y-31878D01*
X88935Y-31807D01*
X88921Y-31778D01*
X88907Y-31764D01*
X88878Y-31750D01*
X88850Y-31750D01*
X88821Y-31764D01*
X88807Y-31778D01*
X88792Y-31807D01*
X88778Y-31864D01*
X88764Y-31892D01*
X88750Y-31907D01*
X88721Y-31921D01*
X88692Y-31921D01*
X88664Y-31907D01*
X88650Y-31892D01*
X88635Y-31864D01*
X88635Y-31792D01*
X88650Y-31750D01*
X88778Y-31621D02*
X88778Y-31521D01*
X88935Y-31478D02*
X88935Y-31621D01*
X88635Y-31621D01*
X88635Y-31478D01*
X88907Y-31178D02*
X88921Y-31192D01*
X88935Y-31235D01*
X88935Y-31264D01*
X88921Y-31307D01*
X88892Y-31335D01*
X88864Y-31349D01*
X88807Y-31364D01*
X88764Y-31364D01*
X88707Y-31349D01*
X88678Y-31335D01*
X88650Y-31307D01*
X88635Y-31264D01*
X88635Y-31235D01*
X88650Y-31192D01*
X88664Y-31178D01*
X87435Y-31907D02*
X87435Y-32049D01*
X87135Y-32049D01*
X87435Y-31807D02*
X87135Y-31807D01*
X87435Y-31635D01*
X87135Y-31635D01*
X87435Y-31492D02*
X87135Y-31492D01*
X87135Y-31421D01*
X87150Y-31378D01*
X87178Y-31349D01*
X87207Y-31335D01*
X87264Y-31321D01*
X87307Y-31321D01*
X87364Y-31335D01*
X87392Y-31349D01*
X87421Y-31378D01*
X87435Y-31421D01*
X87435Y-31492D01*
X87135Y-31221D02*
X87135Y-31035D01*
X87250Y-31135D01*
X87250Y-31092D01*
X87264Y-31064D01*
X87278Y-31049D01*
X87307Y-31035D01*
X87378Y-31035D01*
X87407Y-31049D01*
X87421Y-31064D01*
X87435Y-31092D01*
X87435Y-31178D01*
X87421Y-31207D01*
X87407Y-31221D01*
X87935Y-31878D02*
X87635Y-31878D01*
X87850Y-31778D01*
X87635Y-31678D01*
X87935Y-31678D01*
X87935Y-31535D02*
X87635Y-31535D01*
X87935Y-31392D02*
X87635Y-31392D01*
X87935Y-31221D01*
X87635Y-31221D01*
X86435Y-31907D02*
X86435Y-32049D01*
X86135Y-32049D01*
X86435Y-31807D02*
X86135Y-31807D01*
X86435Y-31635D01*
X86135Y-31635D01*
X86435Y-31492D02*
X86135Y-31492D01*
X86135Y-31421D01*
X86150Y-31378D01*
X86178Y-31349D01*
X86207Y-31335D01*
X86264Y-31321D01*
X86307Y-31321D01*
X86364Y-31335D01*
X86392Y-31349D01*
X86421Y-31378D01*
X86435Y-31421D01*
X86435Y-31492D01*
X86164Y-31207D02*
X86150Y-31192D01*
X86135Y-31164D01*
X86135Y-31092D01*
X86150Y-31064D01*
X86164Y-31049D01*
X86192Y-31035D01*
X86221Y-31035D01*
X86264Y-31049D01*
X86435Y-31221D01*
X86435Y-31035D01*
X86935Y-32100D02*
X86635Y-32100D01*
X86778Y-32100D02*
X86778Y-31928D01*
X86935Y-31928D02*
X86635Y-31928D01*
X86635Y-31728D02*
X86635Y-31671D01*
X86650Y-31642D01*
X86678Y-31614D01*
X86735Y-31600D01*
X86835Y-31600D01*
X86892Y-31614D01*
X86921Y-31642D01*
X86935Y-31671D01*
X86935Y-31728D01*
X86921Y-31757D01*
X86892Y-31785D01*
X86835Y-31800D01*
X86735Y-31800D01*
X86678Y-31785D01*
X86650Y-31757D01*
X86635Y-31728D01*
X86635Y-31471D02*
X86878Y-31471D01*
X86907Y-31457D01*
X86921Y-31442D01*
X86935Y-31414D01*
X86935Y-31357D01*
X86921Y-31328D01*
X86907Y-31314D01*
X86878Y-31300D01*
X86635Y-31300D01*
X86935Y-30985D02*
X86792Y-31085D01*
X86935Y-31157D02*
X86635Y-31157D01*
X86635Y-31042D01*
X86650Y-31014D01*
X86664Y-31000D01*
X86692Y-30985D01*
X86735Y-30985D01*
X86764Y-31000D01*
X86778Y-31014D01*
X86792Y-31042D01*
X86792Y-31157D01*
X85435Y-31907D02*
X85435Y-32049D01*
X85135Y-32049D01*
X85435Y-31807D02*
X85135Y-31807D01*
X85435Y-31635D01*
X85135Y-31635D01*
X85435Y-31492D02*
X85135Y-31492D01*
X85135Y-31421D01*
X85150Y-31378D01*
X85178Y-31349D01*
X85207Y-31335D01*
X85264Y-31321D01*
X85307Y-31321D01*
X85364Y-31335D01*
X85392Y-31349D01*
X85421Y-31378D01*
X85435Y-31421D01*
X85435Y-31492D01*
X85435Y-31035D02*
X85435Y-31207D01*
X85435Y-31121D02*
X85135Y-31121D01*
X85178Y-31149D01*
X85207Y-31178D01*
X85221Y-31207D01*
X85635Y-32057D02*
X85935Y-31957D01*
X85635Y-31857D01*
X85935Y-31614D02*
X85935Y-31757D01*
X85635Y-31757D01*
X85778Y-31514D02*
X85778Y-31414D01*
X85935Y-31371D02*
X85935Y-31514D01*
X85635Y-31514D01*
X85635Y-31371D01*
X85935Y-31242D02*
X85635Y-31242D01*
X85635Y-31171D01*
X85650Y-31128D01*
X85678Y-31099D01*
X85707Y-31085D01*
X85764Y-31071D01*
X85807Y-31071D01*
X85864Y-31085D01*
X85892Y-31099D01*
X85921Y-31128D01*
X85935Y-31171D01*
X85935Y-31242D01*
X86357Y-42563D02*
X86357Y-42263D01*
X86357Y-42406D02*
X86528Y-42406D01*
X86528Y-42563D02*
X86528Y-42263D01*
X86728Y-42263D02*
X86785Y-42263D01*
X86814Y-42277D01*
X86842Y-42306D01*
X86857Y-42363D01*
X86857Y-42463D01*
X86842Y-42520D01*
X86814Y-42549D01*
X86785Y-42563D01*
X86728Y-42563D01*
X86700Y-42549D01*
X86671Y-42520D01*
X86657Y-42463D01*
X86657Y-42363D01*
X86671Y-42306D01*
X86700Y-42277D01*
X86728Y-42263D01*
X86985Y-42263D02*
X86985Y-42506D01*
X87000Y-42535D01*
X87014Y-42549D01*
X87042Y-42563D01*
X87100Y-42563D01*
X87128Y-42549D01*
X87142Y-42535D01*
X87157Y-42506D01*
X87157Y-42263D01*
X87471Y-42563D02*
X87371Y-42420D01*
X87300Y-42563D02*
X87300Y-42263D01*
X87414Y-42263D01*
X87442Y-42277D01*
X87457Y-42292D01*
X87471Y-42320D01*
X87471Y-42363D01*
X87457Y-42392D01*
X87442Y-42406D01*
X87414Y-42420D01*
X87300Y-42420D01*
X87757Y-42563D02*
X87585Y-42563D01*
X87671Y-42563D02*
X87671Y-42263D01*
X87642Y-42306D01*
X87614Y-42335D01*
X87585Y-42349D01*
X86578Y-53563D02*
X86578Y-53263D01*
X86678Y-53477D01*
X86778Y-53263D01*
X86778Y-53563D01*
X86921Y-53563D02*
X86921Y-53263D01*
X87064Y-53563D02*
X87064Y-53263D01*
X87235Y-53563D01*
X87235Y-53263D01*
X87535Y-53563D02*
X87364Y-53563D01*
X87450Y-53563D02*
X87450Y-53263D01*
X87421Y-53306D01*
X87392Y-53335D01*
X87364Y-53349D01*
X86535Y-64549D02*
X86578Y-64563D01*
X86650Y-64563D01*
X86678Y-64549D01*
X86692Y-64535D01*
X86707Y-64506D01*
X86707Y-64477D01*
X86692Y-64449D01*
X86678Y-64435D01*
X86650Y-64420D01*
X86592Y-64406D01*
X86564Y-64392D01*
X86550Y-64377D01*
X86535Y-64349D01*
X86535Y-64320D01*
X86550Y-64292D01*
X86564Y-64277D01*
X86592Y-64263D01*
X86664Y-64263D01*
X86707Y-64277D01*
X86835Y-64406D02*
X86935Y-64406D01*
X86978Y-64563D02*
X86835Y-64563D01*
X86835Y-64263D01*
X86978Y-64263D01*
X87278Y-64535D02*
X87264Y-64549D01*
X87221Y-64563D01*
X87192Y-64563D01*
X87150Y-64549D01*
X87121Y-64520D01*
X87107Y-64492D01*
X87092Y-64435D01*
X87092Y-64392D01*
X87107Y-64335D01*
X87121Y-64306D01*
X87150Y-64277D01*
X87192Y-64263D01*
X87221Y-64263D01*
X87264Y-64277D01*
X87278Y-64292D01*
X87564Y-64563D02*
X87392Y-64563D01*
X87478Y-64563D02*
X87478Y-64263D01*
X87450Y-64306D01*
X87421Y-64335D01*
X87392Y-64349D01*
X90635Y-64549D02*
X90678Y-64563D01*
X90750Y-64563D01*
X90778Y-64549D01*
X90792Y-64535D01*
X90807Y-64506D01*
X90807Y-64477D01*
X90792Y-64449D01*
X90778Y-64435D01*
X90750Y-64420D01*
X90692Y-64406D01*
X90664Y-64392D01*
X90650Y-64377D01*
X90635Y-64349D01*
X90635Y-64320D01*
X90650Y-64292D01*
X90664Y-64277D01*
X90692Y-64263D01*
X90764Y-64263D01*
X90807Y-64277D01*
X90935Y-64406D02*
X91035Y-64406D01*
X91078Y-64563D02*
X90935Y-64563D01*
X90935Y-64263D01*
X91078Y-64263D01*
X91378Y-64535D02*
X91364Y-64549D01*
X91321Y-64563D01*
X91292Y-64563D01*
X91250Y-64549D01*
X91221Y-64520D01*
X91207Y-64492D01*
X91192Y-64435D01*
X91192Y-64392D01*
X91207Y-64335D01*
X91221Y-64306D01*
X91250Y-64277D01*
X91292Y-64263D01*
X91321Y-64263D01*
X91364Y-64277D01*
X91378Y-64292D01*
X91664Y-64563D02*
X91492Y-64563D01*
X91578Y-64563D02*
X91578Y-64263D01*
X91550Y-64306D01*
X91521Y-64335D01*
X91492Y-64349D01*
X90678Y-53563D02*
X90678Y-53263D01*
X90778Y-53477D01*
X90878Y-53263D01*
X90878Y-53563D01*
X91021Y-53563D02*
X91021Y-53263D01*
X91164Y-53563D02*
X91164Y-53263D01*
X91335Y-53563D01*
X91335Y-53263D01*
X91635Y-53563D02*
X91464Y-53563D01*
X91550Y-53563D02*
X91550Y-53263D01*
X91521Y-53306D01*
X91492Y-53335D01*
X91464Y-53349D01*
X90457Y-42563D02*
X90457Y-42263D01*
X90457Y-42406D02*
X90628Y-42406D01*
X90628Y-42563D02*
X90628Y-42263D01*
X90828Y-42263D02*
X90885Y-42263D01*
X90914Y-42277D01*
X90942Y-42306D01*
X90957Y-42363D01*
X90957Y-42463D01*
X90942Y-42520D01*
X90914Y-42549D01*
X90885Y-42563D01*
X90828Y-42563D01*
X90800Y-42549D01*
X90771Y-42520D01*
X90757Y-42463D01*
X90757Y-42363D01*
X90771Y-42306D01*
X90800Y-42277D01*
X90828Y-42263D01*
X91085Y-42263D02*
X91085Y-42506D01*
X91100Y-42535D01*
X91114Y-42549D01*
X91142Y-42563D01*
X91200Y-42563D01*
X91228Y-42549D01*
X91242Y-42535D01*
X91257Y-42506D01*
X91257Y-42263D01*
X91571Y-42563D02*
X91471Y-42420D01*
X91400Y-42563D02*
X91400Y-42263D01*
X91514Y-42263D01*
X91542Y-42277D01*
X91557Y-42292D01*
X91571Y-42320D01*
X91571Y-42363D01*
X91557Y-42392D01*
X91542Y-42406D01*
X91514Y-42420D01*
X91400Y-42420D01*
X91857Y-42563D02*
X91685Y-42563D01*
X91771Y-42563D02*
X91771Y-42263D01*
X91742Y-42306D01*
X91714Y-42335D01*
X91685Y-42349D01*
X89535Y-31907D02*
X89535Y-32049D01*
X89235Y-32049D01*
X89535Y-31807D02*
X89235Y-31807D01*
X89535Y-31635D01*
X89235Y-31635D01*
X89535Y-31492D02*
X89235Y-31492D01*
X89235Y-31421D01*
X89250Y-31378D01*
X89278Y-31349D01*
X89307Y-31335D01*
X89364Y-31321D01*
X89407Y-31321D01*
X89464Y-31335D01*
X89492Y-31349D01*
X89521Y-31378D01*
X89535Y-31421D01*
X89535Y-31492D01*
X89535Y-31035D02*
X89535Y-31207D01*
X89535Y-31121D02*
X89235Y-31121D01*
X89278Y-31149D01*
X89307Y-31178D01*
X89321Y-31207D01*
X89735Y-32057D02*
X90035Y-31957D01*
X89735Y-31857D01*
X90035Y-31614D02*
X90035Y-31757D01*
X89735Y-31757D01*
X89878Y-31514D02*
X89878Y-31414D01*
X90035Y-31371D02*
X90035Y-31514D01*
X89735Y-31514D01*
X89735Y-31371D01*
X90035Y-31242D02*
X89735Y-31242D01*
X89735Y-31171D01*
X89750Y-31128D01*
X89778Y-31099D01*
X89807Y-31085D01*
X89864Y-31071D01*
X89907Y-31071D01*
X89964Y-31085D01*
X89992Y-31099D01*
X90021Y-31128D01*
X90035Y-31171D01*
X90035Y-31242D01*
X90535Y-31907D02*
X90535Y-32049D01*
X90235Y-32049D01*
X90535Y-31807D02*
X90235Y-31807D01*
X90535Y-31635D01*
X90235Y-31635D01*
X90535Y-31492D02*
X90235Y-31492D01*
X90235Y-31421D01*
X90250Y-31378D01*
X90278Y-31349D01*
X90307Y-31335D01*
X90364Y-31321D01*
X90407Y-31321D01*
X90464Y-31335D01*
X90492Y-31349D01*
X90521Y-31378D01*
X90535Y-31421D01*
X90535Y-31492D01*
X90264Y-31207D02*
X90250Y-31192D01*
X90235Y-31164D01*
X90235Y-31092D01*
X90250Y-31064D01*
X90264Y-31049D01*
X90292Y-31035D01*
X90321Y-31035D01*
X90364Y-31049D01*
X90535Y-31221D01*
X90535Y-31035D01*
X91035Y-32100D02*
X90735Y-32100D01*
X90878Y-32100D02*
X90878Y-31928D01*
X91035Y-31928D02*
X90735Y-31928D01*
X90735Y-31728D02*
X90735Y-31671D01*
X90750Y-31642D01*
X90778Y-31614D01*
X90835Y-31600D01*
X90935Y-31600D01*
X90992Y-31614D01*
X91021Y-31642D01*
X91035Y-31671D01*
X91035Y-31728D01*
X91021Y-31757D01*
X90992Y-31785D01*
X90935Y-31800D01*
X90835Y-31800D01*
X90778Y-31785D01*
X90750Y-31757D01*
X90735Y-31728D01*
X90735Y-31471D02*
X90978Y-31471D01*
X91007Y-31457D01*
X91021Y-31442D01*
X91035Y-31414D01*
X91035Y-31357D01*
X91021Y-31328D01*
X91007Y-31314D01*
X90978Y-31300D01*
X90735Y-31300D01*
X91035Y-30985D02*
X90892Y-31085D01*
X91035Y-31157D02*
X90735Y-31157D01*
X90735Y-31042D01*
X90750Y-31014D01*
X90764Y-31000D01*
X90792Y-30985D01*
X90835Y-30985D01*
X90864Y-31000D01*
X90878Y-31014D01*
X90892Y-31042D01*
X90892Y-31157D01*
X91535Y-31907D02*
X91535Y-32049D01*
X91235Y-32049D01*
X91535Y-31807D02*
X91235Y-31807D01*
X91535Y-31635D01*
X91235Y-31635D01*
X91535Y-31492D02*
X91235Y-31492D01*
X91235Y-31421D01*
X91250Y-31378D01*
X91278Y-31349D01*
X91307Y-31335D01*
X91364Y-31321D01*
X91407Y-31321D01*
X91464Y-31335D01*
X91492Y-31349D01*
X91521Y-31378D01*
X91535Y-31421D01*
X91535Y-31492D01*
X91235Y-31221D02*
X91235Y-31035D01*
X91350Y-31135D01*
X91350Y-31092D01*
X91364Y-31064D01*
X91378Y-31049D01*
X91407Y-31035D01*
X91478Y-31035D01*
X91507Y-31049D01*
X91521Y-31064D01*
X91535Y-31092D01*
X91535Y-31178D01*
X91521Y-31207D01*
X91507Y-31221D01*
X92035Y-31878D02*
X91735Y-31878D01*
X91950Y-31778D01*
X91735Y-31678D01*
X92035Y-31678D01*
X92035Y-31535D02*
X91735Y-31535D01*
X92035Y-31392D02*
X91735Y-31392D01*
X92035Y-31221D01*
X91735Y-31221D01*
X92535Y-31907D02*
X92535Y-32049D01*
X92235Y-32049D01*
X92535Y-31807D02*
X92235Y-31807D01*
X92535Y-31635D01*
X92235Y-31635D01*
X92535Y-31492D02*
X92235Y-31492D01*
X92235Y-31421D01*
X92250Y-31378D01*
X92278Y-31349D01*
X92307Y-31335D01*
X92364Y-31321D01*
X92407Y-31321D01*
X92464Y-31335D01*
X92492Y-31349D01*
X92521Y-31378D01*
X92535Y-31421D01*
X92535Y-31492D01*
X92335Y-31064D02*
X92535Y-31064D01*
X92221Y-31135D02*
X92435Y-31207D01*
X92435Y-31021D01*
X93021Y-31921D02*
X93035Y-31878D01*
X93035Y-31807D01*
X93021Y-31778D01*
X93007Y-31764D01*
X92978Y-31750D01*
X92950Y-31750D01*
X92921Y-31764D01*
X92907Y-31778D01*
X92892Y-31807D01*
X92878Y-31864D01*
X92864Y-31892D01*
X92850Y-31907D01*
X92821Y-31921D01*
X92792Y-31921D01*
X92764Y-31907D01*
X92750Y-31892D01*
X92735Y-31864D01*
X92735Y-31792D01*
X92750Y-31750D01*
X92878Y-31621D02*
X92878Y-31521D01*
X93035Y-31478D02*
X93035Y-31621D01*
X92735Y-31621D01*
X92735Y-31478D01*
X93007Y-31178D02*
X93021Y-31192D01*
X93035Y-31235D01*
X93035Y-31264D01*
X93021Y-31307D01*
X92992Y-31335D01*
X92964Y-31349D01*
X92907Y-31364D01*
X92864Y-31364D01*
X92807Y-31349D01*
X92778Y-31335D01*
X92750Y-31307D01*
X92735Y-31264D01*
X92735Y-31235D01*
X92750Y-31192D01*
X92764Y-31178D01*
X100735Y-31907D02*
X100735Y-32049D01*
X100435Y-32049D01*
X100735Y-31807D02*
X100435Y-31807D01*
X100735Y-31635D01*
X100435Y-31635D01*
X100735Y-31492D02*
X100435Y-31492D01*
X100435Y-31421D01*
X100450Y-31378D01*
X100478Y-31349D01*
X100507Y-31335D01*
X100564Y-31321D01*
X100607Y-31321D01*
X100664Y-31335D01*
X100692Y-31349D01*
X100721Y-31378D01*
X100735Y-31421D01*
X100735Y-31492D01*
X100535Y-31064D02*
X100735Y-31064D01*
X100421Y-31135D02*
X100635Y-31207D01*
X100635Y-31021D01*
X101221Y-31921D02*
X101235Y-31878D01*
X101235Y-31807D01*
X101221Y-31778D01*
X101207Y-31764D01*
X101178Y-31750D01*
X101150Y-31750D01*
X101121Y-31764D01*
X101107Y-31778D01*
X101092Y-31807D01*
X101078Y-31864D01*
X101064Y-31892D01*
X101050Y-31907D01*
X101021Y-31921D01*
X100992Y-31921D01*
X100964Y-31907D01*
X100950Y-31892D01*
X100935Y-31864D01*
X100935Y-31792D01*
X100950Y-31750D01*
X101078Y-31621D02*
X101078Y-31521D01*
X101235Y-31478D02*
X101235Y-31621D01*
X100935Y-31621D01*
X100935Y-31478D01*
X101207Y-31178D02*
X101221Y-31192D01*
X101235Y-31235D01*
X101235Y-31264D01*
X101221Y-31307D01*
X101192Y-31335D01*
X101164Y-31349D01*
X101107Y-31364D01*
X101064Y-31364D01*
X101007Y-31349D01*
X100978Y-31335D01*
X100950Y-31307D01*
X100935Y-31264D01*
X100935Y-31235D01*
X100950Y-31192D01*
X100964Y-31178D01*
X99735Y-31907D02*
X99735Y-32049D01*
X99435Y-32049D01*
X99735Y-31807D02*
X99435Y-31807D01*
X99735Y-31635D01*
X99435Y-31635D01*
X99735Y-31492D02*
X99435Y-31492D01*
X99435Y-31421D01*
X99450Y-31378D01*
X99478Y-31349D01*
X99507Y-31335D01*
X99564Y-31321D01*
X99607Y-31321D01*
X99664Y-31335D01*
X99692Y-31349D01*
X99721Y-31378D01*
X99735Y-31421D01*
X99735Y-31492D01*
X99435Y-31221D02*
X99435Y-31035D01*
X99550Y-31135D01*
X99550Y-31092D01*
X99564Y-31064D01*
X99578Y-31049D01*
X99607Y-31035D01*
X99678Y-31035D01*
X99707Y-31049D01*
X99721Y-31064D01*
X99735Y-31092D01*
X99735Y-31178D01*
X99721Y-31207D01*
X99707Y-31221D01*
X100235Y-31878D02*
X99935Y-31878D01*
X100150Y-31778D01*
X99935Y-31678D01*
X100235Y-31678D01*
X100235Y-31535D02*
X99935Y-31535D01*
X100235Y-31392D02*
X99935Y-31392D01*
X100235Y-31221D01*
X99935Y-31221D01*
X98735Y-31907D02*
X98735Y-32049D01*
X98435Y-32049D01*
X98735Y-31807D02*
X98435Y-31807D01*
X98735Y-31635D01*
X98435Y-31635D01*
X98735Y-31492D02*
X98435Y-31492D01*
X98435Y-31421D01*
X98450Y-31378D01*
X98478Y-31349D01*
X98507Y-31335D01*
X98564Y-31321D01*
X98607Y-31321D01*
X98664Y-31335D01*
X98692Y-31349D01*
X98721Y-31378D01*
X98735Y-31421D01*
X98735Y-31492D01*
X98464Y-31207D02*
X98450Y-31192D01*
X98435Y-31164D01*
X98435Y-31092D01*
X98450Y-31064D01*
X98464Y-31049D01*
X98492Y-31035D01*
X98521Y-31035D01*
X98564Y-31049D01*
X98735Y-31221D01*
X98735Y-31035D01*
X99235Y-32100D02*
X98935Y-32100D01*
X99078Y-32100D02*
X99078Y-31928D01*
X99235Y-31928D02*
X98935Y-31928D01*
X98935Y-31728D02*
X98935Y-31671D01*
X98950Y-31642D01*
X98978Y-31614D01*
X99035Y-31600D01*
X99135Y-31600D01*
X99192Y-31614D01*
X99221Y-31642D01*
X99235Y-31671D01*
X99235Y-31728D01*
X99221Y-31757D01*
X99192Y-31785D01*
X99135Y-31800D01*
X99035Y-31800D01*
X98978Y-31785D01*
X98950Y-31757D01*
X98935Y-31728D01*
X98935Y-31471D02*
X99178Y-31471D01*
X99207Y-31457D01*
X99221Y-31442D01*
X99235Y-31414D01*
X99235Y-31357D01*
X99221Y-31328D01*
X99207Y-31314D01*
X99178Y-31300D01*
X98935Y-31300D01*
X99235Y-30985D02*
X99092Y-31085D01*
X99235Y-31157D02*
X98935Y-31157D01*
X98935Y-31042D01*
X98950Y-31014D01*
X98964Y-31000D01*
X98992Y-30985D01*
X99035Y-30985D01*
X99064Y-31000D01*
X99078Y-31014D01*
X99092Y-31042D01*
X99092Y-31157D01*
X97735Y-31907D02*
X97735Y-32049D01*
X97435Y-32049D01*
X97735Y-31807D02*
X97435Y-31807D01*
X97735Y-31635D01*
X97435Y-31635D01*
X97735Y-31492D02*
X97435Y-31492D01*
X97435Y-31421D01*
X97450Y-31378D01*
X97478Y-31349D01*
X97507Y-31335D01*
X97564Y-31321D01*
X97607Y-31321D01*
X97664Y-31335D01*
X97692Y-31349D01*
X97721Y-31378D01*
X97735Y-31421D01*
X97735Y-31492D01*
X97735Y-31035D02*
X97735Y-31207D01*
X97735Y-31121D02*
X97435Y-31121D01*
X97478Y-31149D01*
X97507Y-31178D01*
X97521Y-31207D01*
X97935Y-32057D02*
X98235Y-31957D01*
X97935Y-31857D01*
X98235Y-31614D02*
X98235Y-31757D01*
X97935Y-31757D01*
X98078Y-31514D02*
X98078Y-31414D01*
X98235Y-31371D02*
X98235Y-31514D01*
X97935Y-31514D01*
X97935Y-31371D01*
X98235Y-31242D02*
X97935Y-31242D01*
X97935Y-31171D01*
X97950Y-31128D01*
X97978Y-31099D01*
X98007Y-31085D01*
X98064Y-31071D01*
X98107Y-31071D01*
X98164Y-31085D01*
X98192Y-31099D01*
X98221Y-31128D01*
X98235Y-31171D01*
X98235Y-31242D01*
X98657Y-42563D02*
X98657Y-42263D01*
X98657Y-42406D02*
X98828Y-42406D01*
X98828Y-42563D02*
X98828Y-42263D01*
X99028Y-42263D02*
X99085Y-42263D01*
X99114Y-42277D01*
X99142Y-42306D01*
X99157Y-42363D01*
X99157Y-42463D01*
X99142Y-42520D01*
X99114Y-42549D01*
X99085Y-42563D01*
X99028Y-42563D01*
X99000Y-42549D01*
X98971Y-42520D01*
X98957Y-42463D01*
X98957Y-42363D01*
X98971Y-42306D01*
X99000Y-42277D01*
X99028Y-42263D01*
X99285Y-42263D02*
X99285Y-42506D01*
X99300Y-42535D01*
X99314Y-42549D01*
X99342Y-42563D01*
X99400Y-42563D01*
X99428Y-42549D01*
X99442Y-42535D01*
X99457Y-42506D01*
X99457Y-42263D01*
X99771Y-42563D02*
X99671Y-42420D01*
X99600Y-42563D02*
X99600Y-42263D01*
X99714Y-42263D01*
X99742Y-42277D01*
X99757Y-42292D01*
X99771Y-42320D01*
X99771Y-42363D01*
X99757Y-42392D01*
X99742Y-42406D01*
X99714Y-42420D01*
X99600Y-42420D01*
X100057Y-42563D02*
X99885Y-42563D01*
X99971Y-42563D02*
X99971Y-42263D01*
X99942Y-42306D01*
X99914Y-42335D01*
X99885Y-42349D01*
X98878Y-53563D02*
X98878Y-53263D01*
X98978Y-53477D01*
X99078Y-53263D01*
X99078Y-53563D01*
X99221Y-53563D02*
X99221Y-53263D01*
X99364Y-53563D02*
X99364Y-53263D01*
X99535Y-53563D01*
X99535Y-53263D01*
X99835Y-53563D02*
X99664Y-53563D01*
X99750Y-53563D02*
X99750Y-53263D01*
X99721Y-53306D01*
X99692Y-53335D01*
X99664Y-53349D01*
X98835Y-64549D02*
X98878Y-64563D01*
X98950Y-64563D01*
X98978Y-64549D01*
X98992Y-64535D01*
X99007Y-64506D01*
X99007Y-64477D01*
X98992Y-64449D01*
X98978Y-64435D01*
X98950Y-64420D01*
X98892Y-64406D01*
X98864Y-64392D01*
X98850Y-64377D01*
X98835Y-64349D01*
X98835Y-64320D01*
X98850Y-64292D01*
X98864Y-64277D01*
X98892Y-64263D01*
X98964Y-64263D01*
X99007Y-64277D01*
X99135Y-64406D02*
X99235Y-64406D01*
X99278Y-64563D02*
X99135Y-64563D01*
X99135Y-64263D01*
X99278Y-64263D01*
X99578Y-64535D02*
X99564Y-64549D01*
X99521Y-64563D01*
X99492Y-64563D01*
X99450Y-64549D01*
X99421Y-64520D01*
X99407Y-64492D01*
X99392Y-64435D01*
X99392Y-64392D01*
X99407Y-64335D01*
X99421Y-64306D01*
X99450Y-64277D01*
X99492Y-64263D01*
X99521Y-64263D01*
X99564Y-64277D01*
X99578Y-64292D01*
X99864Y-64563D02*
X99692Y-64563D01*
X99778Y-64563D02*
X99778Y-64263D01*
X99750Y-64306D01*
X99721Y-64335D01*
X99692Y-64349D01*
X94735Y-64549D02*
X94778Y-64563D01*
X94850Y-64563D01*
X94878Y-64549D01*
X94892Y-64535D01*
X94907Y-64506D01*
X94907Y-64477D01*
X94892Y-64449D01*
X94878Y-64435D01*
X94850Y-64420D01*
X94792Y-64406D01*
X94764Y-64392D01*
X94750Y-64377D01*
X94735Y-64349D01*
X94735Y-64320D01*
X94750Y-64292D01*
X94764Y-64277D01*
X94792Y-64263D01*
X94864Y-64263D01*
X94907Y-64277D01*
X95035Y-64406D02*
X95135Y-64406D01*
X95178Y-64563D02*
X95035Y-64563D01*
X95035Y-64263D01*
X95178Y-64263D01*
X95478Y-64535D02*
X95464Y-64549D01*
X95421Y-64563D01*
X95392Y-64563D01*
X95350Y-64549D01*
X95321Y-64520D01*
X95307Y-64492D01*
X95292Y-64435D01*
X95292Y-64392D01*
X95307Y-64335D01*
X95321Y-64306D01*
X95350Y-64277D01*
X95392Y-64263D01*
X95421Y-64263D01*
X95464Y-64277D01*
X95478Y-64292D01*
X95764Y-64563D02*
X95592Y-64563D01*
X95678Y-64563D02*
X95678Y-64263D01*
X95650Y-64306D01*
X95621Y-64335D01*
X95592Y-64349D01*
X94778Y-53563D02*
X94778Y-53263D01*
X94878Y-53477D01*
X94978Y-53263D01*
X94978Y-53563D01*
X95121Y-53563D02*
X95121Y-53263D01*
X95264Y-53563D02*
X95264Y-53263D01*
X95435Y-53563D01*
X95435Y-53263D01*
X95735Y-53563D02*
X95564Y-53563D01*
X95650Y-53563D02*
X95650Y-53263D01*
X95621Y-53306D01*
X95592Y-53335D01*
X95564Y-53349D01*
X94557Y-42563D02*
X94557Y-42263D01*
X94557Y-42406D02*
X94728Y-42406D01*
X94728Y-42563D02*
X94728Y-42263D01*
X94928Y-42263D02*
X94985Y-42263D01*
X95014Y-42277D01*
X95042Y-42306D01*
X95057Y-42363D01*
X95057Y-42463D01*
X95042Y-42520D01*
X95014Y-42549D01*
X94985Y-42563D01*
X94928Y-42563D01*
X94900Y-42549D01*
X94871Y-42520D01*
X94857Y-42463D01*
X94857Y-42363D01*
X94871Y-42306D01*
X94900Y-42277D01*
X94928Y-42263D01*
X95185Y-42263D02*
X95185Y-42506D01*
X95200Y-42535D01*
X95214Y-42549D01*
X95242Y-42563D01*
X95300Y-42563D01*
X95328Y-42549D01*
X95342Y-42535D01*
X95357Y-42506D01*
X95357Y-42263D01*
X95671Y-42563D02*
X95571Y-42420D01*
X95500Y-42563D02*
X95500Y-42263D01*
X95614Y-42263D01*
X95642Y-42277D01*
X95657Y-42292D01*
X95671Y-42320D01*
X95671Y-42363D01*
X95657Y-42392D01*
X95642Y-42406D01*
X95614Y-42420D01*
X95500Y-42420D01*
X95957Y-42563D02*
X95785Y-42563D01*
X95871Y-42563D02*
X95871Y-42263D01*
X95842Y-42306D01*
X95814Y-42335D01*
X95785Y-42349D01*
X93635Y-31907D02*
X93635Y-32049D01*
X93335Y-32049D01*
X93635Y-31807D02*
X93335Y-31807D01*
X93635Y-31635D01*
X93335Y-31635D01*
X93635Y-31492D02*
X93335Y-31492D01*
X93335Y-31421D01*
X93350Y-31378D01*
X93378Y-31349D01*
X93407Y-31335D01*
X93464Y-31321D01*
X93507Y-31321D01*
X93564Y-31335D01*
X93592Y-31349D01*
X93621Y-31378D01*
X93635Y-31421D01*
X93635Y-31492D01*
X93635Y-31035D02*
X93635Y-31207D01*
X93635Y-31121D02*
X93335Y-31121D01*
X93378Y-31149D01*
X93407Y-31178D01*
X93421Y-31207D01*
X93835Y-32057D02*
X94135Y-31957D01*
X93835Y-31857D01*
X94135Y-31614D02*
X94135Y-31757D01*
X93835Y-31757D01*
X93978Y-31514D02*
X93978Y-31414D01*
X94135Y-31371D02*
X94135Y-31514D01*
X93835Y-31514D01*
X93835Y-31371D01*
X94135Y-31242D02*
X93835Y-31242D01*
X93835Y-31171D01*
X93850Y-31128D01*
X93878Y-31099D01*
X93907Y-31085D01*
X93964Y-31071D01*
X94007Y-31071D01*
X94064Y-31085D01*
X94092Y-31099D01*
X94121Y-31128D01*
X94135Y-31171D01*
X94135Y-31242D01*
X94635Y-31907D02*
X94635Y-32049D01*
X94335Y-32049D01*
X94635Y-31807D02*
X94335Y-31807D01*
X94635Y-31635D01*
X94335Y-31635D01*
X94635Y-31492D02*
X94335Y-31492D01*
X94335Y-31421D01*
X94350Y-31378D01*
X94378Y-31349D01*
X94407Y-31335D01*
X94464Y-31321D01*
X94507Y-31321D01*
X94564Y-31335D01*
X94592Y-31349D01*
X94621Y-31378D01*
X94635Y-31421D01*
X94635Y-31492D01*
X94364Y-31207D02*
X94350Y-31192D01*
X94335Y-31164D01*
X94335Y-31092D01*
X94350Y-31064D01*
X94364Y-31049D01*
X94392Y-31035D01*
X94421Y-31035D01*
X94464Y-31049D01*
X94635Y-31221D01*
X94635Y-31035D01*
X95135Y-32100D02*
X94835Y-32100D01*
X94978Y-32100D02*
X94978Y-31928D01*
X95135Y-31928D02*
X94835Y-31928D01*
X94835Y-31728D02*
X94835Y-31671D01*
X94850Y-31642D01*
X94878Y-31614D01*
X94935Y-31600D01*
X95035Y-31600D01*
X95092Y-31614D01*
X95121Y-31642D01*
X95135Y-31671D01*
X95135Y-31728D01*
X95121Y-31757D01*
X95092Y-31785D01*
X95035Y-31800D01*
X94935Y-31800D01*
X94878Y-31785D01*
X94850Y-31757D01*
X94835Y-31728D01*
X94835Y-31471D02*
X95078Y-31471D01*
X95107Y-31457D01*
X95121Y-31442D01*
X95135Y-31414D01*
X95135Y-31357D01*
X95121Y-31328D01*
X95107Y-31314D01*
X95078Y-31300D01*
X94835Y-31300D01*
X95135Y-30985D02*
X94992Y-31085D01*
X95135Y-31157D02*
X94835Y-31157D01*
X94835Y-31042D01*
X94850Y-31014D01*
X94864Y-31000D01*
X94892Y-30985D01*
X94935Y-30985D01*
X94964Y-31000D01*
X94978Y-31014D01*
X94992Y-31042D01*
X94992Y-31157D01*
X95635Y-31907D02*
X95635Y-32049D01*
X95335Y-32049D01*
X95635Y-31807D02*
X95335Y-31807D01*
X95635Y-31635D01*
X95335Y-31635D01*
X95635Y-31492D02*
X95335Y-31492D01*
X95335Y-31421D01*
X95350Y-31378D01*
X95378Y-31349D01*
X95407Y-31335D01*
X95464Y-31321D01*
X95507Y-31321D01*
X95564Y-31335D01*
X95592Y-31349D01*
X95621Y-31378D01*
X95635Y-31421D01*
X95635Y-31492D01*
X95335Y-31221D02*
X95335Y-31035D01*
X95450Y-31135D01*
X95450Y-31092D01*
X95464Y-31064D01*
X95478Y-31049D01*
X95507Y-31035D01*
X95578Y-31035D01*
X95607Y-31049D01*
X95621Y-31064D01*
X95635Y-31092D01*
X95635Y-31178D01*
X95621Y-31207D01*
X95607Y-31221D01*
X96135Y-31878D02*
X95835Y-31878D01*
X96050Y-31778D01*
X95835Y-31678D01*
X96135Y-31678D01*
X96135Y-31535D02*
X95835Y-31535D01*
X96135Y-31392D02*
X95835Y-31392D01*
X96135Y-31221D01*
X95835Y-31221D01*
X96635Y-31907D02*
X96635Y-32049D01*
X96335Y-32049D01*
X96635Y-31807D02*
X96335Y-31807D01*
X96635Y-31635D01*
X96335Y-31635D01*
X96635Y-31492D02*
X96335Y-31492D01*
X96335Y-31421D01*
X96350Y-31378D01*
X96378Y-31349D01*
X96407Y-31335D01*
X96464Y-31321D01*
X96507Y-31321D01*
X96564Y-31335D01*
X96592Y-31349D01*
X96621Y-31378D01*
X96635Y-31421D01*
X96635Y-31492D01*
X96435Y-31064D02*
X96635Y-31064D01*
X96321Y-31135D02*
X96535Y-31207D01*
X96535Y-31021D01*
X97121Y-31921D02*
X97135Y-31878D01*
X97135Y-31807D01*
X97121Y-31778D01*
X97107Y-31764D01*
X97078Y-31750D01*
X97050Y-31750D01*
X97021Y-31764D01*
X97007Y-31778D01*
X96992Y-31807D01*
X96978Y-31864D01*
X96964Y-31892D01*
X96950Y-31907D01*
X96921Y-31921D01*
X96892Y-31921D01*
X96864Y-31907D01*
X96850Y-31892D01*
X96835Y-31864D01*
X96835Y-31792D01*
X96850Y-31750D01*
X96978Y-31621D02*
X96978Y-31521D01*
X97135Y-31478D02*
X97135Y-31621D01*
X96835Y-31621D01*
X96835Y-31478D01*
X97107Y-31178D02*
X97121Y-31192D01*
X97135Y-31235D01*
X97135Y-31264D01*
X97121Y-31307D01*
X97092Y-31335D01*
X97064Y-31349D01*
X97007Y-31364D01*
X96964Y-31364D01*
X96907Y-31349D01*
X96878Y-31335D01*
X96850Y-31307D01*
X96835Y-31264D01*
X96835Y-31235D01*
X96850Y-31192D01*
X96864Y-31178D01*
X80235Y-31907D02*
X80235Y-32049D01*
X79935Y-32049D01*
X80235Y-31807D02*
X79935Y-31807D01*
X80235Y-31635D01*
X79935Y-31635D01*
X80235Y-31492D02*
X79935Y-31492D01*
X79935Y-31421D01*
X79950Y-31378D01*
X79978Y-31349D01*
X80007Y-31335D01*
X80064Y-31321D01*
X80107Y-31321D01*
X80164Y-31335D01*
X80192Y-31349D01*
X80221Y-31378D01*
X80235Y-31421D01*
X80235Y-31492D01*
X80035Y-31064D02*
X80235Y-31064D01*
X79921Y-31135D02*
X80135Y-31207D01*
X80135Y-31021D01*
X80721Y-31921D02*
X80735Y-31878D01*
X80735Y-31807D01*
X80721Y-31778D01*
X80707Y-31764D01*
X80678Y-31750D01*
X80650Y-31750D01*
X80621Y-31764D01*
X80607Y-31778D01*
X80592Y-31807D01*
X80578Y-31864D01*
X80564Y-31892D01*
X80550Y-31907D01*
X80521Y-31921D01*
X80492Y-31921D01*
X80464Y-31907D01*
X80450Y-31892D01*
X80435Y-31864D01*
X80435Y-31792D01*
X80450Y-31750D01*
X80578Y-31621D02*
X80578Y-31521D01*
X80735Y-31478D02*
X80735Y-31621D01*
X80435Y-31621D01*
X80435Y-31478D01*
X80707Y-31178D02*
X80721Y-31192D01*
X80735Y-31235D01*
X80735Y-31264D01*
X80721Y-31307D01*
X80692Y-31335D01*
X80664Y-31349D01*
X80607Y-31364D01*
X80564Y-31364D01*
X80507Y-31349D01*
X80478Y-31335D01*
X80450Y-31307D01*
X80435Y-31264D01*
X80435Y-31235D01*
X80450Y-31192D01*
X80464Y-31178D01*
X79235Y-31907D02*
X79235Y-32049D01*
X78935Y-32049D01*
X79235Y-31807D02*
X78935Y-31807D01*
X79235Y-31635D01*
X78935Y-31635D01*
X79235Y-31492D02*
X78935Y-31492D01*
X78935Y-31421D01*
X78950Y-31378D01*
X78978Y-31349D01*
X79007Y-31335D01*
X79064Y-31321D01*
X79107Y-31321D01*
X79164Y-31335D01*
X79192Y-31349D01*
X79221Y-31378D01*
X79235Y-31421D01*
X79235Y-31492D01*
X78935Y-31221D02*
X78935Y-31035D01*
X79050Y-31135D01*
X79050Y-31092D01*
X79064Y-31064D01*
X79078Y-31049D01*
X79107Y-31035D01*
X79178Y-31035D01*
X79207Y-31049D01*
X79221Y-31064D01*
X79235Y-31092D01*
X79235Y-31178D01*
X79221Y-31207D01*
X79207Y-31221D01*
X79735Y-31878D02*
X79435Y-31878D01*
X79650Y-31778D01*
X79435Y-31678D01*
X79735Y-31678D01*
X79735Y-31535D02*
X79435Y-31535D01*
X79735Y-31392D02*
X79435Y-31392D01*
X79735Y-31221D01*
X79435Y-31221D01*
X78235Y-31907D02*
X78235Y-32049D01*
X77935Y-32049D01*
X78235Y-31807D02*
X77935Y-31807D01*
X78235Y-31635D01*
X77935Y-31635D01*
X78235Y-31492D02*
X77935Y-31492D01*
X77935Y-31421D01*
X77950Y-31378D01*
X77978Y-31349D01*
X78007Y-31335D01*
X78064Y-31321D01*
X78107Y-31321D01*
X78164Y-31335D01*
X78192Y-31349D01*
X78221Y-31378D01*
X78235Y-31421D01*
X78235Y-31492D01*
X77964Y-31207D02*
X77950Y-31192D01*
X77935Y-31164D01*
X77935Y-31092D01*
X77950Y-31064D01*
X77964Y-31049D01*
X77992Y-31035D01*
X78021Y-31035D01*
X78064Y-31049D01*
X78235Y-31221D01*
X78235Y-31035D01*
X78735Y-32100D02*
X78435Y-32100D01*
X78578Y-32100D02*
X78578Y-31928D01*
X78735Y-31928D02*
X78435Y-31928D01*
X78435Y-31728D02*
X78435Y-31671D01*
X78450Y-31642D01*
X78478Y-31614D01*
X78535Y-31600D01*
X78635Y-31600D01*
X78692Y-31614D01*
X78721Y-31642D01*
X78735Y-31671D01*
X78735Y-31728D01*
X78721Y-31757D01*
X78692Y-31785D01*
X78635Y-31800D01*
X78535Y-31800D01*
X78478Y-31785D01*
X78450Y-31757D01*
X78435Y-31728D01*
X78435Y-31471D02*
X78678Y-31471D01*
X78707Y-31457D01*
X78721Y-31442D01*
X78735Y-31414D01*
X78735Y-31357D01*
X78721Y-31328D01*
X78707Y-31314D01*
X78678Y-31300D01*
X78435Y-31300D01*
X78735Y-30985D02*
X78592Y-31085D01*
X78735Y-31157D02*
X78435Y-31157D01*
X78435Y-31042D01*
X78450Y-31014D01*
X78464Y-31000D01*
X78492Y-30985D01*
X78535Y-30985D01*
X78564Y-31000D01*
X78578Y-31014D01*
X78592Y-31042D01*
X78592Y-31157D01*
X77235Y-31907D02*
X77235Y-32049D01*
X76935Y-32049D01*
X77235Y-31807D02*
X76935Y-31807D01*
X77235Y-31635D01*
X76935Y-31635D01*
X77235Y-31492D02*
X76935Y-31492D01*
X76935Y-31421D01*
X76950Y-31378D01*
X76978Y-31349D01*
X77007Y-31335D01*
X77064Y-31321D01*
X77107Y-31321D01*
X77164Y-31335D01*
X77192Y-31349D01*
X77221Y-31378D01*
X77235Y-31421D01*
X77235Y-31492D01*
X77235Y-31035D02*
X77235Y-31207D01*
X77235Y-31121D02*
X76935Y-31121D01*
X76978Y-31149D01*
X77007Y-31178D01*
X77021Y-31207D01*
X77435Y-32057D02*
X77735Y-31957D01*
X77435Y-31857D01*
X77735Y-31614D02*
X77735Y-31757D01*
X77435Y-31757D01*
X77578Y-31514D02*
X77578Y-31414D01*
X77735Y-31371D02*
X77735Y-31514D01*
X77435Y-31514D01*
X77435Y-31371D01*
X77735Y-31242D02*
X77435Y-31242D01*
X77435Y-31171D01*
X77450Y-31128D01*
X77478Y-31099D01*
X77507Y-31085D01*
X77564Y-31071D01*
X77607Y-31071D01*
X77664Y-31085D01*
X77692Y-31099D01*
X77721Y-31128D01*
X77735Y-31171D01*
X77735Y-31242D01*
X78157Y-42563D02*
X78157Y-42263D01*
X78157Y-42406D02*
X78328Y-42406D01*
X78328Y-42563D02*
X78328Y-42263D01*
X78528Y-42263D02*
X78585Y-42263D01*
X78614Y-42277D01*
X78642Y-42306D01*
X78657Y-42363D01*
X78657Y-42463D01*
X78642Y-42520D01*
X78614Y-42549D01*
X78585Y-42563D01*
X78528Y-42563D01*
X78500Y-42549D01*
X78471Y-42520D01*
X78457Y-42463D01*
X78457Y-42363D01*
X78471Y-42306D01*
X78500Y-42277D01*
X78528Y-42263D01*
X78785Y-42263D02*
X78785Y-42506D01*
X78800Y-42535D01*
X78814Y-42549D01*
X78842Y-42563D01*
X78900Y-42563D01*
X78928Y-42549D01*
X78942Y-42535D01*
X78957Y-42506D01*
X78957Y-42263D01*
X79271Y-42563D02*
X79171Y-42420D01*
X79100Y-42563D02*
X79100Y-42263D01*
X79214Y-42263D01*
X79242Y-42277D01*
X79257Y-42292D01*
X79271Y-42320D01*
X79271Y-42363D01*
X79257Y-42392D01*
X79242Y-42406D01*
X79214Y-42420D01*
X79100Y-42420D01*
X79557Y-42563D02*
X79385Y-42563D01*
X79471Y-42563D02*
X79471Y-42263D01*
X79442Y-42306D01*
X79414Y-42335D01*
X79385Y-42349D01*
X78378Y-53563D02*
X78378Y-53263D01*
X78478Y-53477D01*
X78578Y-53263D01*
X78578Y-53563D01*
X78721Y-53563D02*
X78721Y-53263D01*
X78864Y-53563D02*
X78864Y-53263D01*
X79035Y-53563D01*
X79035Y-53263D01*
X79335Y-53563D02*
X79164Y-53563D01*
X79250Y-53563D02*
X79250Y-53263D01*
X79221Y-53306D01*
X79192Y-53335D01*
X79164Y-53349D01*
X78335Y-64549D02*
X78378Y-64563D01*
X78450Y-64563D01*
X78478Y-64549D01*
X78492Y-64535D01*
X78507Y-64506D01*
X78507Y-64477D01*
X78492Y-64449D01*
X78478Y-64435D01*
X78450Y-64420D01*
X78392Y-64406D01*
X78364Y-64392D01*
X78350Y-64377D01*
X78335Y-64349D01*
X78335Y-64320D01*
X78350Y-64292D01*
X78364Y-64277D01*
X78392Y-64263D01*
X78464Y-64263D01*
X78507Y-64277D01*
X78635Y-64406D02*
X78735Y-64406D01*
X78778Y-64563D02*
X78635Y-64563D01*
X78635Y-64263D01*
X78778Y-64263D01*
X79078Y-64535D02*
X79064Y-64549D01*
X79021Y-64563D01*
X78992Y-64563D01*
X78950Y-64549D01*
X78921Y-64520D01*
X78907Y-64492D01*
X78892Y-64435D01*
X78892Y-64392D01*
X78907Y-64335D01*
X78921Y-64306D01*
X78950Y-64277D01*
X78992Y-64263D01*
X79021Y-64263D01*
X79064Y-64277D01*
X79078Y-64292D01*
X79364Y-64563D02*
X79192Y-64563D01*
X79278Y-64563D02*
X79278Y-64263D01*
X79250Y-64306D01*
X79221Y-64335D01*
X79192Y-64349D01*
X82435Y-64549D02*
X82478Y-64563D01*
X82550Y-64563D01*
X82578Y-64549D01*
X82592Y-64535D01*
X82607Y-64506D01*
X82607Y-64477D01*
X82592Y-64449D01*
X82578Y-64435D01*
X82550Y-64420D01*
X82492Y-64406D01*
X82464Y-64392D01*
X82450Y-64377D01*
X82435Y-64349D01*
X82435Y-64320D01*
X82450Y-64292D01*
X82464Y-64277D01*
X82492Y-64263D01*
X82564Y-64263D01*
X82607Y-64277D01*
X82735Y-64406D02*
X82835Y-64406D01*
X82878Y-64563D02*
X82735Y-64563D01*
X82735Y-64263D01*
X82878Y-64263D01*
X83178Y-64535D02*
X83164Y-64549D01*
X83121Y-64563D01*
X83092Y-64563D01*
X83050Y-64549D01*
X83021Y-64520D01*
X83007Y-64492D01*
X82992Y-64435D01*
X82992Y-64392D01*
X83007Y-64335D01*
X83021Y-64306D01*
X83050Y-64277D01*
X83092Y-64263D01*
X83121Y-64263D01*
X83164Y-64277D01*
X83178Y-64292D01*
X83464Y-64563D02*
X83292Y-64563D01*
X83378Y-64563D02*
X83378Y-64263D01*
X83350Y-64306D01*
X83321Y-64335D01*
X83292Y-64349D01*
X82478Y-53563D02*
X82478Y-53263D01*
X82578Y-53477D01*
X82678Y-53263D01*
X82678Y-53563D01*
X82821Y-53563D02*
X82821Y-53263D01*
X82964Y-53563D02*
X82964Y-53263D01*
X83135Y-53563D01*
X83135Y-53263D01*
X83435Y-53563D02*
X83264Y-53563D01*
X83350Y-53563D02*
X83350Y-53263D01*
X83321Y-53306D01*
X83292Y-53335D01*
X83264Y-53349D01*
X82257Y-42563D02*
X82257Y-42263D01*
X82257Y-42406D02*
X82428Y-42406D01*
X82428Y-42563D02*
X82428Y-42263D01*
X82628Y-42263D02*
X82685Y-42263D01*
X82714Y-42277D01*
X82742Y-42306D01*
X82757Y-42363D01*
X82757Y-42463D01*
X82742Y-42520D01*
X82714Y-42549D01*
X82685Y-42563D01*
X82628Y-42563D01*
X82600Y-42549D01*
X82571Y-42520D01*
X82557Y-42463D01*
X82557Y-42363D01*
X82571Y-42306D01*
X82600Y-42277D01*
X82628Y-42263D01*
X82885Y-42263D02*
X82885Y-42506D01*
X82900Y-42535D01*
X82914Y-42549D01*
X82942Y-42563D01*
X83000Y-42563D01*
X83028Y-42549D01*
X83042Y-42535D01*
X83057Y-42506D01*
X83057Y-42263D01*
X83371Y-42563D02*
X83271Y-42420D01*
X83200Y-42563D02*
X83200Y-42263D01*
X83314Y-42263D01*
X83342Y-42277D01*
X83357Y-42292D01*
X83371Y-42320D01*
X83371Y-42363D01*
X83357Y-42392D01*
X83342Y-42406D01*
X83314Y-42420D01*
X83200Y-42420D01*
X83657Y-42563D02*
X83485Y-42563D01*
X83571Y-42563D02*
X83571Y-42263D01*
X83542Y-42306D01*
X83514Y-42335D01*
X83485Y-42349D01*
X81335Y-31907D02*
X81335Y-32049D01*
X81035Y-32049D01*
X81335Y-31807D02*
X81035Y-31807D01*
X81335Y-31635D01*
X81035Y-31635D01*
X81335Y-31492D02*
X81035Y-31492D01*
X81035Y-31421D01*
X81050Y-31378D01*
X81078Y-31349D01*
X81107Y-31335D01*
X81164Y-31321D01*
X81207Y-31321D01*
X81264Y-31335D01*
X81292Y-31349D01*
X81321Y-31378D01*
X81335Y-31421D01*
X81335Y-31492D01*
X81335Y-31035D02*
X81335Y-31207D01*
X81335Y-31121D02*
X81035Y-31121D01*
X81078Y-31149D01*
X81107Y-31178D01*
X81121Y-31207D01*
X81535Y-32057D02*
X81835Y-31957D01*
X81535Y-31857D01*
X81835Y-31614D02*
X81835Y-31757D01*
X81535Y-31757D01*
X81678Y-31514D02*
X81678Y-31414D01*
X81835Y-31371D02*
X81835Y-31514D01*
X81535Y-31514D01*
X81535Y-31371D01*
X81835Y-31242D02*
X81535Y-31242D01*
X81535Y-31171D01*
X81550Y-31128D01*
X81578Y-31099D01*
X81607Y-31085D01*
X81664Y-31071D01*
X81707Y-31071D01*
X81764Y-31085D01*
X81792Y-31099D01*
X81821Y-31128D01*
X81835Y-31171D01*
X81835Y-31242D01*
X82335Y-31907D02*
X82335Y-32049D01*
X82035Y-32049D01*
X82335Y-31807D02*
X82035Y-31807D01*
X82335Y-31635D01*
X82035Y-31635D01*
X82335Y-31492D02*
X82035Y-31492D01*
X82035Y-31421D01*
X82050Y-31378D01*
X82078Y-31349D01*
X82107Y-31335D01*
X82164Y-31321D01*
X82207Y-31321D01*
X82264Y-31335D01*
X82292Y-31349D01*
X82321Y-31378D01*
X82335Y-31421D01*
X82335Y-31492D01*
X82064Y-31207D02*
X82050Y-31192D01*
X82035Y-31164D01*
X82035Y-31092D01*
X82050Y-31064D01*
X82064Y-31049D01*
X82092Y-31035D01*
X82121Y-31035D01*
X82164Y-31049D01*
X82335Y-31221D01*
X82335Y-31035D01*
X82835Y-32100D02*
X82535Y-32100D01*
X82678Y-32100D02*
X82678Y-31928D01*
X82835Y-31928D02*
X82535Y-31928D01*
X82535Y-31728D02*
X82535Y-31671D01*
X82550Y-31642D01*
X82578Y-31614D01*
X82635Y-31600D01*
X82735Y-31600D01*
X82792Y-31614D01*
X82821Y-31642D01*
X82835Y-31671D01*
X82835Y-31728D01*
X82821Y-31757D01*
X82792Y-31785D01*
X82735Y-31800D01*
X82635Y-31800D01*
X82578Y-31785D01*
X82550Y-31757D01*
X82535Y-31728D01*
X82535Y-31471D02*
X82778Y-31471D01*
X82807Y-31457D01*
X82821Y-31442D01*
X82835Y-31414D01*
X82835Y-31357D01*
X82821Y-31328D01*
X82807Y-31314D01*
X82778Y-31300D01*
X82535Y-31300D01*
X82835Y-30985D02*
X82692Y-31085D01*
X82835Y-31157D02*
X82535Y-31157D01*
X82535Y-31042D01*
X82550Y-31014D01*
X82564Y-31000D01*
X82592Y-30985D01*
X82635Y-30985D01*
X82664Y-31000D01*
X82678Y-31014D01*
X82692Y-31042D01*
X82692Y-31157D01*
X83335Y-31907D02*
X83335Y-32049D01*
X83035Y-32049D01*
X83335Y-31807D02*
X83035Y-31807D01*
X83335Y-31635D01*
X83035Y-31635D01*
X83335Y-31492D02*
X83035Y-31492D01*
X83035Y-31421D01*
X83050Y-31378D01*
X83078Y-31349D01*
X83107Y-31335D01*
X83164Y-31321D01*
X83207Y-31321D01*
X83264Y-31335D01*
X83292Y-31349D01*
X83321Y-31378D01*
X83335Y-31421D01*
X83335Y-31492D01*
X83035Y-31221D02*
X83035Y-31035D01*
X83150Y-31135D01*
X83150Y-31092D01*
X83164Y-31064D01*
X83178Y-31049D01*
X83207Y-31035D01*
X83278Y-31035D01*
X83307Y-31049D01*
X83321Y-31064D01*
X83335Y-31092D01*
X83335Y-31178D01*
X83321Y-31207D01*
X83307Y-31221D01*
X83835Y-31878D02*
X83535Y-31878D01*
X83750Y-31778D01*
X83535Y-31678D01*
X83835Y-31678D01*
X83835Y-31535D02*
X83535Y-31535D01*
X83835Y-31392D02*
X83535Y-31392D01*
X83835Y-31221D01*
X83535Y-31221D01*
X84335Y-31907D02*
X84335Y-32049D01*
X84035Y-32049D01*
X84335Y-31807D02*
X84035Y-31807D01*
X84335Y-31635D01*
X84035Y-31635D01*
X84335Y-31492D02*
X84035Y-31492D01*
X84035Y-31421D01*
X84050Y-31378D01*
X84078Y-31349D01*
X84107Y-31335D01*
X84164Y-31321D01*
X84207Y-31321D01*
X84264Y-31335D01*
X84292Y-31349D01*
X84321Y-31378D01*
X84335Y-31421D01*
X84335Y-31492D01*
X84135Y-31064D02*
X84335Y-31064D01*
X84021Y-31135D02*
X84235Y-31207D01*
X84235Y-31021D01*
X84821Y-31921D02*
X84835Y-31878D01*
X84835Y-31807D01*
X84821Y-31778D01*
X84807Y-31764D01*
X84778Y-31750D01*
X84750Y-31750D01*
X84721Y-31764D01*
X84707Y-31778D01*
X84692Y-31807D01*
X84678Y-31864D01*
X84664Y-31892D01*
X84650Y-31907D01*
X84621Y-31921D01*
X84592Y-31921D01*
X84564Y-31907D01*
X84550Y-31892D01*
X84535Y-31864D01*
X84535Y-31792D01*
X84550Y-31750D01*
X84678Y-31621D02*
X84678Y-31521D01*
X84835Y-31478D02*
X84835Y-31621D01*
X84535Y-31621D01*
X84535Y-31478D01*
X84807Y-31178D02*
X84821Y-31192D01*
X84835Y-31235D01*
X84835Y-31264D01*
X84821Y-31307D01*
X84792Y-31335D01*
X84764Y-31349D01*
X84707Y-31364D01*
X84664Y-31364D01*
X84607Y-31349D01*
X84578Y-31335D01*
X84550Y-31307D01*
X84535Y-31264D01*
X84535Y-31235D01*
X84550Y-31192D01*
X84564Y-31178D01*
X76135Y-31907D02*
X76135Y-32049D01*
X75835Y-32049D01*
X76135Y-31807D02*
X75835Y-31807D01*
X76135Y-31635D01*
X75835Y-31635D01*
X76135Y-31492D02*
X75835Y-31492D01*
X75835Y-31421D01*
X75850Y-31378D01*
X75878Y-31349D01*
X75907Y-31335D01*
X75964Y-31321D01*
X76007Y-31321D01*
X76064Y-31335D01*
X76092Y-31349D01*
X76121Y-31378D01*
X76135Y-31421D01*
X76135Y-31492D01*
X75935Y-31064D02*
X76135Y-31064D01*
X75821Y-31135D02*
X76035Y-31207D01*
X76035Y-31021D01*
X76621Y-31921D02*
X76635Y-31878D01*
X76635Y-31807D01*
X76621Y-31778D01*
X76607Y-31764D01*
X76578Y-31750D01*
X76550Y-31750D01*
X76521Y-31764D01*
X76507Y-31778D01*
X76492Y-31807D01*
X76478Y-31864D01*
X76464Y-31892D01*
X76450Y-31907D01*
X76421Y-31921D01*
X76392Y-31921D01*
X76364Y-31907D01*
X76350Y-31892D01*
X76335Y-31864D01*
X76335Y-31792D01*
X76350Y-31750D01*
X76478Y-31621D02*
X76478Y-31521D01*
X76635Y-31478D02*
X76635Y-31621D01*
X76335Y-31621D01*
X76335Y-31478D01*
X76607Y-31178D02*
X76621Y-31192D01*
X76635Y-31235D01*
X76635Y-31264D01*
X76621Y-31307D01*
X76592Y-31335D01*
X76564Y-31349D01*
X76507Y-31364D01*
X76464Y-31364D01*
X76407Y-31349D01*
X76378Y-31335D01*
X76350Y-31307D01*
X76335Y-31264D01*
X76335Y-31235D01*
X76350Y-31192D01*
X76364Y-31178D01*
X75135Y-31907D02*
X75135Y-32049D01*
X74835Y-32049D01*
X75135Y-31807D02*
X74835Y-31807D01*
X75135Y-31635D01*
X74835Y-31635D01*
X75135Y-31492D02*
X74835Y-31492D01*
X74835Y-31421D01*
X74850Y-31378D01*
X74878Y-31349D01*
X74907Y-31335D01*
X74964Y-31321D01*
X75007Y-31321D01*
X75064Y-31335D01*
X75092Y-31349D01*
X75121Y-31378D01*
X75135Y-31421D01*
X75135Y-31492D01*
X74835Y-31221D02*
X74835Y-31035D01*
X74950Y-31135D01*
X74950Y-31092D01*
X74964Y-31064D01*
X74978Y-31049D01*
X75007Y-31035D01*
X75078Y-31035D01*
X75107Y-31049D01*
X75121Y-31064D01*
X75135Y-31092D01*
X75135Y-31178D01*
X75121Y-31207D01*
X75107Y-31221D01*
X75635Y-31878D02*
X75335Y-31878D01*
X75550Y-31778D01*
X75335Y-31678D01*
X75635Y-31678D01*
X75635Y-31535D02*
X75335Y-31535D01*
X75635Y-31392D02*
X75335Y-31392D01*
X75635Y-31221D01*
X75335Y-31221D01*
X74135Y-31907D02*
X74135Y-32049D01*
X73835Y-32049D01*
X74135Y-31807D02*
X73835Y-31807D01*
X74135Y-31635D01*
X73835Y-31635D01*
X74135Y-31492D02*
X73835Y-31492D01*
X73835Y-31421D01*
X73850Y-31378D01*
X73878Y-31349D01*
X73907Y-31335D01*
X73964Y-31321D01*
X74007Y-31321D01*
X74064Y-31335D01*
X74092Y-31349D01*
X74121Y-31378D01*
X74135Y-31421D01*
X74135Y-31492D01*
X73864Y-31207D02*
X73850Y-31192D01*
X73835Y-31164D01*
X73835Y-31092D01*
X73850Y-31064D01*
X73864Y-31049D01*
X73892Y-31035D01*
X73921Y-31035D01*
X73964Y-31049D01*
X74135Y-31221D01*
X74135Y-31035D01*
X74635Y-32100D02*
X74335Y-32100D01*
X74478Y-32100D02*
X74478Y-31928D01*
X74635Y-31928D02*
X74335Y-31928D01*
X74335Y-31728D02*
X74335Y-31671D01*
X74350Y-31642D01*
X74378Y-31614D01*
X74435Y-31600D01*
X74535Y-31600D01*
X74592Y-31614D01*
X74621Y-31642D01*
X74635Y-31671D01*
X74635Y-31728D01*
X74621Y-31757D01*
X74592Y-31785D01*
X74535Y-31800D01*
X74435Y-31800D01*
X74378Y-31785D01*
X74350Y-31757D01*
X74335Y-31728D01*
X74335Y-31471D02*
X74578Y-31471D01*
X74607Y-31457D01*
X74621Y-31442D01*
X74635Y-31414D01*
X74635Y-31357D01*
X74621Y-31328D01*
X74607Y-31314D01*
X74578Y-31300D01*
X74335Y-31300D01*
X74635Y-30985D02*
X74492Y-31085D01*
X74635Y-31157D02*
X74335Y-31157D01*
X74335Y-31042D01*
X74350Y-31014D01*
X74364Y-31000D01*
X74392Y-30985D01*
X74435Y-30985D01*
X74464Y-31000D01*
X74478Y-31014D01*
X74492Y-31042D01*
X74492Y-31157D01*
X73135Y-31907D02*
X73135Y-32049D01*
X72835Y-32049D01*
X73135Y-31807D02*
X72835Y-31807D01*
X73135Y-31635D01*
X72835Y-31635D01*
X73135Y-31492D02*
X72835Y-31492D01*
X72835Y-31421D01*
X72850Y-31378D01*
X72878Y-31349D01*
X72907Y-31335D01*
X72964Y-31321D01*
X73007Y-31321D01*
X73064Y-31335D01*
X73092Y-31349D01*
X73121Y-31378D01*
X73135Y-31421D01*
X73135Y-31492D01*
X73135Y-31035D02*
X73135Y-31207D01*
X73135Y-31121D02*
X72835Y-31121D01*
X72878Y-31149D01*
X72907Y-31178D01*
X72921Y-31207D01*
X73335Y-32057D02*
X73635Y-31957D01*
X73335Y-31857D01*
X73635Y-31614D02*
X73635Y-31757D01*
X73335Y-31757D01*
X73478Y-31514D02*
X73478Y-31414D01*
X73635Y-31371D02*
X73635Y-31514D01*
X73335Y-31514D01*
X73335Y-31371D01*
X73635Y-31242D02*
X73335Y-31242D01*
X73335Y-31171D01*
X73350Y-31128D01*
X73378Y-31099D01*
X73407Y-31085D01*
X73464Y-31071D01*
X73507Y-31071D01*
X73564Y-31085D01*
X73592Y-31099D01*
X73621Y-31128D01*
X73635Y-31171D01*
X73635Y-31242D01*
X74057Y-42563D02*
X74057Y-42263D01*
X74057Y-42406D02*
X74228Y-42406D01*
X74228Y-42563D02*
X74228Y-42263D01*
X74428Y-42263D02*
X74485Y-42263D01*
X74514Y-42277D01*
X74542Y-42306D01*
X74557Y-42363D01*
X74557Y-42463D01*
X74542Y-42520D01*
X74514Y-42549D01*
X74485Y-42563D01*
X74428Y-42563D01*
X74400Y-42549D01*
X74371Y-42520D01*
X74357Y-42463D01*
X74357Y-42363D01*
X74371Y-42306D01*
X74400Y-42277D01*
X74428Y-42263D01*
X74685Y-42263D02*
X74685Y-42506D01*
X74700Y-42535D01*
X74714Y-42549D01*
X74742Y-42563D01*
X74800Y-42563D01*
X74828Y-42549D01*
X74842Y-42535D01*
X74857Y-42506D01*
X74857Y-42263D01*
X75171Y-42563D02*
X75071Y-42420D01*
X75000Y-42563D02*
X75000Y-42263D01*
X75114Y-42263D01*
X75142Y-42277D01*
X75157Y-42292D01*
X75171Y-42320D01*
X75171Y-42363D01*
X75157Y-42392D01*
X75142Y-42406D01*
X75114Y-42420D01*
X75000Y-42420D01*
X75457Y-42563D02*
X75285Y-42563D01*
X75371Y-42563D02*
X75371Y-42263D01*
X75342Y-42306D01*
X75314Y-42335D01*
X75285Y-42349D01*
X74278Y-53563D02*
X74278Y-53263D01*
X74378Y-53477D01*
X74478Y-53263D01*
X74478Y-53563D01*
X74621Y-53563D02*
X74621Y-53263D01*
X74764Y-53563D02*
X74764Y-53263D01*
X74935Y-53563D01*
X74935Y-53263D01*
X75235Y-53563D02*
X75064Y-53563D01*
X75150Y-53563D02*
X75150Y-53263D01*
X75121Y-53306D01*
X75092Y-53335D01*
X75064Y-53349D01*
X74235Y-64549D02*
X74278Y-64563D01*
X74350Y-64563D01*
X74378Y-64549D01*
X74392Y-64535D01*
X74407Y-64506D01*
X74407Y-64477D01*
X74392Y-64449D01*
X74378Y-64435D01*
X74350Y-64420D01*
X74292Y-64406D01*
X74264Y-64392D01*
X74250Y-64377D01*
X74235Y-64349D01*
X74235Y-64320D01*
X74250Y-64292D01*
X74264Y-64277D01*
X74292Y-64263D01*
X74364Y-64263D01*
X74407Y-64277D01*
X74535Y-64406D02*
X74635Y-64406D01*
X74678Y-64563D02*
X74535Y-64563D01*
X74535Y-64263D01*
X74678Y-64263D01*
X74978Y-64535D02*
X74964Y-64549D01*
X74921Y-64563D01*
X74892Y-64563D01*
X74850Y-64549D01*
X74821Y-64520D01*
X74807Y-64492D01*
X74792Y-64435D01*
X74792Y-64392D01*
X74807Y-64335D01*
X74821Y-64306D01*
X74850Y-64277D01*
X74892Y-64263D01*
X74921Y-64263D01*
X74964Y-64277D01*
X74978Y-64292D01*
X75264Y-64563D02*
X75092Y-64563D01*
X75178Y-64563D02*
X75178Y-64263D01*
X75150Y-64306D01*
X75121Y-64335D01*
X75092Y-64349D01*
X113035Y-31907D02*
X113035Y-32049D01*
X112735Y-32049D01*
X113035Y-31807D02*
X112735Y-31807D01*
X113035Y-31635D01*
X112735Y-31635D01*
X113035Y-31492D02*
X112735Y-31492D01*
X112735Y-31421D01*
X112750Y-31378D01*
X112778Y-31349D01*
X112807Y-31335D01*
X112864Y-31321D01*
X112907Y-31321D01*
X112964Y-31335D01*
X112992Y-31349D01*
X113021Y-31378D01*
X113035Y-31421D01*
X113035Y-31492D01*
X112835Y-31064D02*
X113035Y-31064D01*
X112721Y-31135D02*
X112935Y-31207D01*
X112935Y-31021D01*
X113521Y-31921D02*
X113535Y-31878D01*
X113535Y-31807D01*
X113521Y-31778D01*
X113507Y-31764D01*
X113478Y-31750D01*
X113450Y-31750D01*
X113421Y-31764D01*
X113407Y-31778D01*
X113392Y-31807D01*
X113378Y-31864D01*
X113364Y-31892D01*
X113350Y-31907D01*
X113321Y-31921D01*
X113292Y-31921D01*
X113264Y-31907D01*
X113250Y-31892D01*
X113235Y-31864D01*
X113235Y-31792D01*
X113250Y-31750D01*
X113378Y-31621D02*
X113378Y-31521D01*
X113535Y-31478D02*
X113535Y-31621D01*
X113235Y-31621D01*
X113235Y-31478D01*
X113507Y-31178D02*
X113521Y-31192D01*
X113535Y-31235D01*
X113535Y-31264D01*
X113521Y-31307D01*
X113492Y-31335D01*
X113464Y-31349D01*
X113407Y-31364D01*
X113364Y-31364D01*
X113307Y-31349D01*
X113278Y-31335D01*
X113250Y-31307D01*
X113235Y-31264D01*
X113235Y-31235D01*
X113250Y-31192D01*
X113264Y-31178D01*
X112035Y-31907D02*
X112035Y-32049D01*
X111735Y-32049D01*
X112035Y-31807D02*
X111735Y-31807D01*
X112035Y-31635D01*
X111735Y-31635D01*
X112035Y-31492D02*
X111735Y-31492D01*
X111735Y-31421D01*
X111750Y-31378D01*
X111778Y-31349D01*
X111807Y-31335D01*
X111864Y-31321D01*
X111907Y-31321D01*
X111964Y-31335D01*
X111992Y-31349D01*
X112021Y-31378D01*
X112035Y-31421D01*
X112035Y-31492D01*
X111735Y-31221D02*
X111735Y-31035D01*
X111850Y-31135D01*
X111850Y-31092D01*
X111864Y-31064D01*
X111878Y-31049D01*
X111907Y-31035D01*
X111978Y-31035D01*
X112007Y-31049D01*
X112021Y-31064D01*
X112035Y-31092D01*
X112035Y-31178D01*
X112021Y-31207D01*
X112007Y-31221D01*
X112535Y-31878D02*
X112235Y-31878D01*
X112450Y-31778D01*
X112235Y-31678D01*
X112535Y-31678D01*
X112535Y-31535D02*
X112235Y-31535D01*
X112535Y-31392D02*
X112235Y-31392D01*
X112535Y-31221D01*
X112235Y-31221D01*
X111035Y-31907D02*
X111035Y-32049D01*
X110735Y-32049D01*
X111035Y-31807D02*
X110735Y-31807D01*
X111035Y-31635D01*
X110735Y-31635D01*
X111035Y-31492D02*
X110735Y-31492D01*
X110735Y-31421D01*
X110750Y-31378D01*
X110778Y-31349D01*
X110807Y-31335D01*
X110864Y-31321D01*
X110907Y-31321D01*
X110964Y-31335D01*
X110992Y-31349D01*
X111021Y-31378D01*
X111035Y-31421D01*
X111035Y-31492D01*
X110764Y-31207D02*
X110750Y-31192D01*
X110735Y-31164D01*
X110735Y-31092D01*
X110750Y-31064D01*
X110764Y-31049D01*
X110792Y-31035D01*
X110821Y-31035D01*
X110864Y-31049D01*
X111035Y-31221D01*
X111035Y-31035D01*
X111535Y-32100D02*
X111235Y-32100D01*
X111378Y-32100D02*
X111378Y-31928D01*
X111535Y-31928D02*
X111235Y-31928D01*
X111235Y-31728D02*
X111235Y-31671D01*
X111250Y-31642D01*
X111278Y-31614D01*
X111335Y-31600D01*
X111435Y-31600D01*
X111492Y-31614D01*
X111521Y-31642D01*
X111535Y-31671D01*
X111535Y-31728D01*
X111521Y-31757D01*
X111492Y-31785D01*
X111435Y-31800D01*
X111335Y-31800D01*
X111278Y-31785D01*
X111250Y-31757D01*
X111235Y-31728D01*
X111235Y-31471D02*
X111478Y-31471D01*
X111507Y-31457D01*
X111521Y-31442D01*
X111535Y-31414D01*
X111535Y-31357D01*
X111521Y-31328D01*
X111507Y-31314D01*
X111478Y-31300D01*
X111235Y-31300D01*
X111535Y-30985D02*
X111392Y-31085D01*
X111535Y-31157D02*
X111235Y-31157D01*
X111235Y-31042D01*
X111250Y-31014D01*
X111264Y-31000D01*
X111292Y-30985D01*
X111335Y-30985D01*
X111364Y-31000D01*
X111378Y-31014D01*
X111392Y-31042D01*
X111392Y-31157D01*
X110035Y-31907D02*
X110035Y-32049D01*
X109735Y-32049D01*
X110035Y-31807D02*
X109735Y-31807D01*
X110035Y-31635D01*
X109735Y-31635D01*
X110035Y-31492D02*
X109735Y-31492D01*
X109735Y-31421D01*
X109750Y-31378D01*
X109778Y-31349D01*
X109807Y-31335D01*
X109864Y-31321D01*
X109907Y-31321D01*
X109964Y-31335D01*
X109992Y-31349D01*
X110021Y-31378D01*
X110035Y-31421D01*
X110035Y-31492D01*
X110035Y-31035D02*
X110035Y-31207D01*
X110035Y-31121D02*
X109735Y-31121D01*
X109778Y-31149D01*
X109807Y-31178D01*
X109821Y-31207D01*
X110235Y-32057D02*
X110535Y-31957D01*
X110235Y-31857D01*
X110535Y-31614D02*
X110535Y-31757D01*
X110235Y-31757D01*
X110378Y-31514D02*
X110378Y-31414D01*
X110535Y-31371D02*
X110535Y-31514D01*
X110235Y-31514D01*
X110235Y-31371D01*
X110535Y-31242D02*
X110235Y-31242D01*
X110235Y-31171D01*
X110250Y-31128D01*
X110278Y-31099D01*
X110307Y-31085D01*
X110364Y-31071D01*
X110407Y-31071D01*
X110464Y-31085D01*
X110492Y-31099D01*
X110521Y-31128D01*
X110535Y-31171D01*
X110535Y-31242D01*
X110957Y-42563D02*
X110957Y-42263D01*
X110957Y-42406D02*
X111128Y-42406D01*
X111128Y-42563D02*
X111128Y-42263D01*
X111328Y-42263D02*
X111385Y-42263D01*
X111414Y-42277D01*
X111442Y-42306D01*
X111457Y-42363D01*
X111457Y-42463D01*
X111442Y-42520D01*
X111414Y-42549D01*
X111385Y-42563D01*
X111328Y-42563D01*
X111300Y-42549D01*
X111271Y-42520D01*
X111257Y-42463D01*
X111257Y-42363D01*
X111271Y-42306D01*
X111300Y-42277D01*
X111328Y-42263D01*
X111585Y-42263D02*
X111585Y-42506D01*
X111600Y-42535D01*
X111614Y-42549D01*
X111642Y-42563D01*
X111700Y-42563D01*
X111728Y-42549D01*
X111742Y-42535D01*
X111757Y-42506D01*
X111757Y-42263D01*
X112071Y-42563D02*
X111971Y-42420D01*
X111900Y-42563D02*
X111900Y-42263D01*
X112014Y-42263D01*
X112042Y-42277D01*
X112057Y-42292D01*
X112071Y-42320D01*
X112071Y-42363D01*
X112057Y-42392D01*
X112042Y-42406D01*
X112014Y-42420D01*
X111900Y-42420D01*
X112357Y-42563D02*
X112185Y-42563D01*
X112271Y-42563D02*
X112271Y-42263D01*
X112242Y-42306D01*
X112214Y-42335D01*
X112185Y-42349D01*
X111178Y-53563D02*
X111178Y-53263D01*
X111278Y-53477D01*
X111378Y-53263D01*
X111378Y-53563D01*
X111521Y-53563D02*
X111521Y-53263D01*
X111664Y-53563D02*
X111664Y-53263D01*
X111835Y-53563D01*
X111835Y-53263D01*
X112135Y-53563D02*
X111964Y-53563D01*
X112050Y-53563D02*
X112050Y-53263D01*
X112021Y-53306D01*
X111992Y-53335D01*
X111964Y-53349D01*
X111135Y-64549D02*
X111178Y-64563D01*
X111250Y-64563D01*
X111278Y-64549D01*
X111292Y-64535D01*
X111307Y-64506D01*
X111307Y-64477D01*
X111292Y-64449D01*
X111278Y-64435D01*
X111250Y-64420D01*
X111192Y-64406D01*
X111164Y-64392D01*
X111150Y-64377D01*
X111135Y-64349D01*
X111135Y-64320D01*
X111150Y-64292D01*
X111164Y-64277D01*
X111192Y-64263D01*
X111264Y-64263D01*
X111307Y-64277D01*
X111435Y-64406D02*
X111535Y-64406D01*
X111578Y-64563D02*
X111435Y-64563D01*
X111435Y-64263D01*
X111578Y-64263D01*
X111878Y-64535D02*
X111864Y-64549D01*
X111821Y-64563D01*
X111792Y-64563D01*
X111750Y-64549D01*
X111721Y-64520D01*
X111707Y-64492D01*
X111692Y-64435D01*
X111692Y-64392D01*
X111707Y-64335D01*
X111721Y-64306D01*
X111750Y-64277D01*
X111792Y-64263D01*
X111821Y-64263D01*
X111864Y-64277D01*
X111878Y-64292D01*
X112164Y-64563D02*
X111992Y-64563D01*
X112078Y-64563D02*
X112078Y-64263D01*
X112050Y-64306D01*
X112021Y-64335D01*
X111992Y-64349D01*
X70135Y-64549D02*
X70178Y-64563D01*
X70250Y-64563D01*
X70278Y-64549D01*
X70292Y-64535D01*
X70307Y-64506D01*
X70307Y-64477D01*
X70292Y-64449D01*
X70278Y-64435D01*
X70250Y-64420D01*
X70192Y-64406D01*
X70164Y-64392D01*
X70150Y-64377D01*
X70135Y-64349D01*
X70135Y-64320D01*
X70150Y-64292D01*
X70164Y-64277D01*
X70192Y-64263D01*
X70264Y-64263D01*
X70307Y-64277D01*
X70435Y-64406D02*
X70535Y-64406D01*
X70578Y-64563D02*
X70435Y-64563D01*
X70435Y-64263D01*
X70578Y-64263D01*
X70878Y-64535D02*
X70864Y-64549D01*
X70821Y-64563D01*
X70792Y-64563D01*
X70750Y-64549D01*
X70721Y-64520D01*
X70707Y-64492D01*
X70692Y-64435D01*
X70692Y-64392D01*
X70707Y-64335D01*
X70721Y-64306D01*
X70750Y-64277D01*
X70792Y-64263D01*
X70821Y-64263D01*
X70864Y-64277D01*
X70878Y-64292D01*
X71164Y-64563D02*
X70992Y-64563D01*
X71078Y-64563D02*
X71078Y-64263D01*
X71050Y-64306D01*
X71021Y-64335D01*
X70992Y-64349D01*
X70178Y-53563D02*
X70178Y-53263D01*
X70278Y-53477D01*
X70378Y-53263D01*
X70378Y-53563D01*
X70521Y-53563D02*
X70521Y-53263D01*
X70664Y-53563D02*
X70664Y-53263D01*
X70835Y-53563D01*
X70835Y-53263D01*
X71135Y-53563D02*
X70964Y-53563D01*
X71050Y-53563D02*
X71050Y-53263D01*
X71021Y-53306D01*
X70992Y-53335D01*
X70964Y-53349D01*
X69957Y-42563D02*
X69957Y-42263D01*
X69957Y-42406D02*
X70128Y-42406D01*
X70128Y-42563D02*
X70128Y-42263D01*
X70328Y-42263D02*
X70385Y-42263D01*
X70414Y-42277D01*
X70442Y-42306D01*
X70457Y-42363D01*
X70457Y-42463D01*
X70442Y-42520D01*
X70414Y-42549D01*
X70385Y-42563D01*
X70328Y-42563D01*
X70300Y-42549D01*
X70271Y-42520D01*
X70257Y-42463D01*
X70257Y-42363D01*
X70271Y-42306D01*
X70300Y-42277D01*
X70328Y-42263D01*
X70585Y-42263D02*
X70585Y-42506D01*
X70600Y-42535D01*
X70614Y-42549D01*
X70642Y-42563D01*
X70700Y-42563D01*
X70728Y-42549D01*
X70742Y-42535D01*
X70757Y-42506D01*
X70757Y-42263D01*
X71071Y-42563D02*
X70971Y-42420D01*
X70900Y-42563D02*
X70900Y-42263D01*
X71014Y-42263D01*
X71042Y-42277D01*
X71057Y-42292D01*
X71071Y-42320D01*
X71071Y-42363D01*
X71057Y-42392D01*
X71042Y-42406D01*
X71014Y-42420D01*
X70900Y-42420D01*
X71357Y-42563D02*
X71185Y-42563D01*
X71271Y-42563D02*
X71271Y-42263D01*
X71242Y-42306D01*
X71214Y-42335D01*
X71185Y-42349D01*
X69035Y-31907D02*
X69035Y-32049D01*
X68735Y-32049D01*
X69035Y-31807D02*
X68735Y-31807D01*
X69035Y-31635D01*
X68735Y-31635D01*
X69035Y-31492D02*
X68735Y-31492D01*
X68735Y-31421D01*
X68750Y-31378D01*
X68778Y-31349D01*
X68807Y-31335D01*
X68864Y-31321D01*
X68907Y-31321D01*
X68964Y-31335D01*
X68992Y-31349D01*
X69021Y-31378D01*
X69035Y-31421D01*
X69035Y-31492D01*
X69035Y-31035D02*
X69035Y-31207D01*
X69035Y-31121D02*
X68735Y-31121D01*
X68778Y-31149D01*
X68807Y-31178D01*
X68821Y-31207D01*
X69235Y-32057D02*
X69535Y-31957D01*
X69235Y-31857D01*
X69535Y-31614D02*
X69535Y-31757D01*
X69235Y-31757D01*
X69378Y-31514D02*
X69378Y-31414D01*
X69535Y-31371D02*
X69535Y-31514D01*
X69235Y-31514D01*
X69235Y-31371D01*
X69535Y-31242D02*
X69235Y-31242D01*
X69235Y-31171D01*
X69250Y-31128D01*
X69278Y-31099D01*
X69307Y-31085D01*
X69364Y-31071D01*
X69407Y-31071D01*
X69464Y-31085D01*
X69492Y-31099D01*
X69521Y-31128D01*
X69535Y-31171D01*
X69535Y-31242D01*
X70035Y-31907D02*
X70035Y-32049D01*
X69735Y-32049D01*
X70035Y-31807D02*
X69735Y-31807D01*
X70035Y-31635D01*
X69735Y-31635D01*
X70035Y-31492D02*
X69735Y-31492D01*
X69735Y-31421D01*
X69750Y-31378D01*
X69778Y-31349D01*
X69807Y-31335D01*
X69864Y-31321D01*
X69907Y-31321D01*
X69964Y-31335D01*
X69992Y-31349D01*
X70021Y-31378D01*
X70035Y-31421D01*
X70035Y-31492D01*
X69764Y-31207D02*
X69750Y-31192D01*
X69735Y-31164D01*
X69735Y-31092D01*
X69750Y-31064D01*
X69764Y-31049D01*
X69792Y-31035D01*
X69821Y-31035D01*
X69864Y-31049D01*
X70035Y-31221D01*
X70035Y-31035D01*
X70535Y-32100D02*
X70235Y-32100D01*
X70378Y-32100D02*
X70378Y-31928D01*
X70535Y-31928D02*
X70235Y-31928D01*
X70235Y-31728D02*
X70235Y-31671D01*
X70250Y-31642D01*
X70278Y-31614D01*
X70335Y-31600D01*
X70435Y-31600D01*
X70492Y-31614D01*
X70521Y-31642D01*
X70535Y-31671D01*
X70535Y-31728D01*
X70521Y-31757D01*
X70492Y-31785D01*
X70435Y-31800D01*
X70335Y-31800D01*
X70278Y-31785D01*
X70250Y-31757D01*
X70235Y-31728D01*
X70235Y-31471D02*
X70478Y-31471D01*
X70507Y-31457D01*
X70521Y-31442D01*
X70535Y-31414D01*
X70535Y-31357D01*
X70521Y-31328D01*
X70507Y-31314D01*
X70478Y-31300D01*
X70235Y-31300D01*
X70535Y-30985D02*
X70392Y-31085D01*
X70535Y-31157D02*
X70235Y-31157D01*
X70235Y-31042D01*
X70250Y-31014D01*
X70264Y-31000D01*
X70292Y-30985D01*
X70335Y-30985D01*
X70364Y-31000D01*
X70378Y-31014D01*
X70392Y-31042D01*
X70392Y-31157D01*
X71035Y-31907D02*
X71035Y-32049D01*
X70735Y-32049D01*
X71035Y-31807D02*
X70735Y-31807D01*
X71035Y-31635D01*
X70735Y-31635D01*
X71035Y-31492D02*
X70735Y-31492D01*
X70735Y-31421D01*
X70750Y-31378D01*
X70778Y-31349D01*
X70807Y-31335D01*
X70864Y-31321D01*
X70907Y-31321D01*
X70964Y-31335D01*
X70992Y-31349D01*
X71021Y-31378D01*
X71035Y-31421D01*
X71035Y-31492D01*
X70735Y-31221D02*
X70735Y-31035D01*
X70850Y-31135D01*
X70850Y-31092D01*
X70864Y-31064D01*
X70878Y-31049D01*
X70907Y-31035D01*
X70978Y-31035D01*
X71007Y-31049D01*
X71021Y-31064D01*
X71035Y-31092D01*
X71035Y-31178D01*
X71021Y-31207D01*
X71007Y-31221D01*
X71535Y-31878D02*
X71235Y-31878D01*
X71450Y-31778D01*
X71235Y-31678D01*
X71535Y-31678D01*
X71535Y-31535D02*
X71235Y-31535D01*
X71535Y-31392D02*
X71235Y-31392D01*
X71535Y-31221D01*
X71235Y-31221D01*
X72035Y-31907D02*
X72035Y-32049D01*
X71735Y-32049D01*
X72035Y-31807D02*
X71735Y-31807D01*
X72035Y-31635D01*
X71735Y-31635D01*
X72035Y-31492D02*
X71735Y-31492D01*
X71735Y-31421D01*
X71750Y-31378D01*
X71778Y-31349D01*
X71807Y-31335D01*
X71864Y-31321D01*
X71907Y-31321D01*
X71964Y-31335D01*
X71992Y-31349D01*
X72021Y-31378D01*
X72035Y-31421D01*
X72035Y-31492D01*
X71835Y-31064D02*
X72035Y-31064D01*
X71721Y-31135D02*
X71935Y-31207D01*
X71935Y-31021D01*
X72521Y-31921D02*
X72535Y-31878D01*
X72535Y-31807D01*
X72521Y-31778D01*
X72507Y-31764D01*
X72478Y-31750D01*
X72450Y-31750D01*
X72421Y-31764D01*
X72407Y-31778D01*
X72392Y-31807D01*
X72378Y-31864D01*
X72364Y-31892D01*
X72350Y-31907D01*
X72321Y-31921D01*
X72292Y-31921D01*
X72264Y-31907D01*
X72250Y-31892D01*
X72235Y-31864D01*
X72235Y-31792D01*
X72250Y-31750D01*
X72378Y-31621D02*
X72378Y-31521D01*
X72535Y-31478D02*
X72535Y-31621D01*
X72235Y-31621D01*
X72235Y-31478D01*
X72507Y-31178D02*
X72521Y-31192D01*
X72535Y-31235D01*
X72535Y-31264D01*
X72521Y-31307D01*
X72492Y-31335D01*
X72464Y-31349D01*
X72407Y-31364D01*
X72364Y-31364D01*
X72307Y-31349D01*
X72278Y-31335D01*
X72250Y-31307D01*
X72235Y-31264D01*
X72235Y-31235D01*
X72250Y-31192D01*
X72264Y-31178D01*
%LPC*%
G54D13*
X107050Y-63050D03*
X108050Y-63050D03*
X107050Y-52050D03*
X108050Y-52050D03*
X107050Y-41050D03*
X108050Y-41050D03*
G54D14*
X106050Y-30050D03*
X107050Y-30050D03*
X108050Y-30050D03*
X109050Y-30050D03*
G54D15*
X107550Y-57550D03*
X107550Y-46550D03*
X107550Y-35550D03*
G54D13*
X102950Y-63050D03*
X103950Y-63050D03*
X102950Y-52050D03*
X103950Y-52050D03*
X102950Y-41050D03*
X103950Y-41050D03*
G54D14*
X101950Y-30050D03*
X102950Y-30050D03*
X103950Y-30050D03*
X104950Y-30050D03*
G54D15*
X103450Y-57550D03*
X103450Y-46550D03*
X103450Y-35550D03*
X87050Y-35550D03*
X87050Y-46550D03*
X87050Y-57550D03*
G54D14*
X88550Y-30050D03*
X87550Y-30050D03*
X86550Y-30050D03*
X85550Y-30050D03*
G54D13*
X86550Y-41050D03*
X87550Y-41050D03*
X86550Y-52050D03*
X87550Y-52050D03*
X86550Y-63050D03*
X87550Y-63050D03*
X90650Y-63050D03*
X91650Y-63050D03*
X90650Y-52050D03*
X91650Y-52050D03*
X90650Y-41050D03*
X91650Y-41050D03*
G54D14*
X89650Y-30050D03*
X90650Y-30050D03*
X91650Y-30050D03*
X92650Y-30050D03*
G54D15*
X91150Y-57550D03*
X91150Y-46550D03*
X91150Y-35550D03*
X99350Y-35550D03*
X99350Y-46550D03*
X99350Y-57550D03*
G54D14*
X100850Y-30050D03*
X99850Y-30050D03*
X98850Y-30050D03*
X97850Y-30050D03*
G54D13*
X98850Y-41050D03*
X99850Y-41050D03*
X98850Y-52050D03*
X99850Y-52050D03*
X98850Y-63050D03*
X99850Y-63050D03*
X94750Y-63050D03*
X95750Y-63050D03*
X94750Y-52050D03*
X95750Y-52050D03*
X94750Y-41050D03*
X95750Y-41050D03*
G54D14*
X93750Y-30050D03*
X94750Y-30050D03*
X95750Y-30050D03*
X96750Y-30050D03*
G54D15*
X95250Y-57550D03*
X95250Y-46550D03*
X95250Y-35550D03*
X78850Y-35550D03*
X78850Y-46550D03*
X78850Y-57550D03*
G54D14*
X80350Y-30050D03*
X79350Y-30050D03*
X78350Y-30050D03*
X77350Y-30050D03*
G54D13*
X78350Y-41050D03*
X79350Y-41050D03*
X78350Y-52050D03*
X79350Y-52050D03*
X78350Y-63050D03*
X79350Y-63050D03*
X82450Y-63050D03*
X83450Y-63050D03*
X82450Y-52050D03*
X83450Y-52050D03*
X82450Y-41050D03*
X83450Y-41050D03*
G54D14*
X81450Y-30050D03*
X82450Y-30050D03*
X83450Y-30050D03*
X84450Y-30050D03*
G54D15*
X82950Y-57550D03*
X82950Y-46550D03*
X82950Y-35550D03*
X74750Y-35550D03*
X74750Y-46550D03*
X74750Y-57550D03*
G54D14*
X76250Y-30050D03*
X75250Y-30050D03*
X74250Y-30050D03*
X73250Y-30050D03*
G54D13*
X74250Y-41050D03*
X75250Y-41050D03*
X74250Y-52050D03*
X75250Y-52050D03*
X74250Y-63050D03*
X75250Y-63050D03*
G54D15*
X111650Y-35550D03*
X111650Y-46550D03*
X111650Y-57550D03*
G54D14*
X113150Y-30050D03*
X112150Y-30050D03*
X111150Y-30050D03*
X110150Y-30050D03*
G54D13*
X111150Y-41050D03*
X112150Y-41050D03*
X111150Y-52050D03*
X112150Y-52050D03*
X111150Y-63050D03*
X112150Y-63050D03*
X70150Y-63050D03*
X71150Y-63050D03*
X70150Y-52050D03*
X71150Y-52050D03*
X70150Y-41050D03*
X71150Y-41050D03*
G54D14*
X69150Y-30050D03*
X70150Y-30050D03*
X71150Y-30050D03*
X72150Y-30050D03*
G54D15*
X70650Y-57550D03*
X70650Y-46550D03*
X70650Y-35550D03*
M02*
