M48
;DRILL file {Pcbnew (2014-03-10 BZR 4741)-product} date 3/24/2014 1:58:11 PM
;FORMAT={2:4/ absolute / inch / keep zeros}
FMAT,2
INCH,TZ
T1C0.035
T2C0.142
%
G90
G05
M72
T1
X070150Y-041050
X070150Y-052050
X070150Y-063050
X071150Y-041050
X071150Y-052050
X071150Y-063050
X074250Y-041050
X074250Y-052050
X074250Y-063050
X075250Y-041050
X075250Y-052050
X075250Y-063050
X078350Y-041050
X078350Y-052050
X078350Y-063050
X079350Y-041050
X079350Y-052050
X079350Y-063050
X082450Y-041050
X082450Y-052050
X082450Y-063050
X083450Y-041050
X083450Y-052050
X083450Y-063050
X086550Y-041050
X086550Y-052050
X086550Y-063050
X087550Y-041050
X087550Y-052050
X087550Y-063050
X090650Y-041050
X090650Y-052050
X090650Y-063050
X091650Y-041050
X091650Y-052050
X091650Y-063050
X094750Y-041050
X094750Y-052050
X094750Y-063050
X095750Y-041050
X095750Y-052050
X095750Y-063050
X098850Y-041050
X098850Y-052050
X098850Y-063050
X099850Y-041050
X099850Y-052050
X099850Y-063050
X102950Y-041050
X102950Y-052050
X102950Y-063050
X103950Y-041050
X103950Y-052050
X103950Y-063050
X107050Y-041050
X107050Y-052050
X107050Y-063050
X108050Y-041050
X108050Y-052050
X108050Y-063050
X111150Y-041050
X111150Y-052050
X111150Y-063050
X112150Y-041050
X112150Y-052050
X112150Y-063050
T2
X070650Y-035550
X070650Y-046550
X070650Y-057550
X074750Y-035550
X074750Y-046550
X074750Y-057550
X078850Y-035550
X078850Y-046550
X078850Y-057550
X082950Y-035550
X082950Y-046550
X082950Y-057550
X087050Y-035550
X087050Y-046550
X087050Y-057550
X091150Y-035550
X091150Y-046550
X091150Y-057550
X095250Y-035550
X095250Y-046550
X095250Y-057550
X099350Y-035550
X099350Y-046550
X099350Y-057550
X103450Y-035550
X103450Y-046550
X103450Y-057550
X107550Y-035550
X107550Y-046550
X107550Y-057550
X111650Y-035550
X111650Y-046550
X111650Y-057550
T0
M30
