<?xml version="1.0" encoding="utf-8"?>
<!-- Generator: Adobe Illustrator 15.0.2, SVG Export Plug-In . SVG Version: 6.00 Build 0)  -->
<!DOCTYPE svg PUBLIC "-//W3C//DTD SVG 1.1//EN" "http://www.w3.org/Graphics/SVG/1.1/DTD/svg11.dtd">
<svg version="1.1" id="Web_Page" xmlns="http://www.w3.org/2000/svg" xmlns:xlink="http://www.w3.org/1999/xlink" x="0px" y="0px"
	 width="100px" height="100px" viewBox="0 0 100 100" enable-background="new 0 0 100 100" xml:space="preserve">
<path id="by_Johan_Basberg" fill="#FFFFFF" d="M61.407,0H13.542v100h72.917V22.227L61.407,0z M71.79,62.211l8.418-7.938v16.192
	l-7.867-4.188c0.067-0.385,0.118-0.774,0.118-1.18C72.459,64.061,72.207,63.09,71.79,62.211z M68.925,59.188
	c-0.724-0.396-1.521-0.66-2.376-0.769l-3.064-16.208c0.23-0.177,0.441-0.374,0.634-0.59l15.925,6.567
	c0.008,0.161,0.025,0.318,0.049,0.475L68.925,59.188z M64.927,11.478l8.638,7.663h-8.638V11.478z M58.677,6.25v19.141h21.531v18.36
	L65.18,37.553c-0.462-2.065-2.299-3.611-4.505-3.611c-2.555,0-4.622,2.068-4.622,4.622c0,0.089,0.022,0.173,0.026,0.261
	L45.49,44.976c-1.259-1.16-2.926-1.884-4.772-1.884c-0.227,0-0.44,0.046-0.663,0.067l-4.377-10.498
	c0.791-0.872,1.284-2.019,1.284-3.289c0-2.714-2.196-4.912-4.912-4.912c-2.716,0-4.913,2.198-4.913,4.912
	c0,0.391,0.057,0.767,0.144,1.131l-7.489,5.958V6.25H58.677z M60.323,69.175l-7.601,10.946c-0.063-0.014-0.13-0.014-0.191-0.021
	l-7.767-24.16c1.822-1.278,3.02-3.387,3.02-5.78c0-0.546-0.075-1.073-0.193-1.584l10.567-6.141c0.377,0.244,0.794,0.421,1.232,0.549
	l3.063,16.207c-2.095,1.151-3.529,3.351-3.529,5.908C58.926,66.636,59.458,68.04,60.323,69.175z M34.937,54.207l-7.669,9.875
	c-0.348-0.077-0.707-0.126-1.079-0.126c-0.447,0-0.874,0.079-1.286,0.19l-5.112-6V41.787l10.088-8.026
	c0.594,0.294,1.251,0.472,1.952,0.502l4.377,10.496c-1.551,1.296-2.558,3.22-2.558,5.399C33.651,51.667,34.132,53.059,34.937,54.207
	z M19.792,93.75V64.57l1.933,2.27c-0.281,0.62-0.448,1.305-0.448,2.028c0,2.714,2.196,4.913,4.912,4.913s4.913-2.199,4.913-4.913
	c0-0.804-0.21-1.552-0.551-2.218l7.684-9.896c0.775,0.292,1.606,0.473,2.483,0.473c0.027,0,0.053-0.009,0.08-0.009l7.764,24.148
	c-0.962,0.896-1.573,2.164-1.573,3.585c0,2.714,2.197,4.91,4.913,4.91c2.717,0,4.912-2.196,4.912-4.91
	c0-0.896-0.256-1.725-0.676-2.448l7.61-10.955c0.619,0.187,1.263,0.317,1.942,0.317c1.828,0,3.478-0.73,4.695-1.907l9.82,5.229
	V93.75H19.792z"/>
</svg>
