<?xml version="1.0" encoding="utf-8"?>
<!-- Generator: Adobe Illustrator 15.0.2, SVG Export Plug-In . SVG Version: 6.00 Build 0)  -->
<!DOCTYPE svg PUBLIC "-//W3C//DTD SVG 1.1//EN" "http://www.w3.org/Graphics/SVG/1.1/DTD/svg11.dtd">
<svg version="1.1" id="Layer_1" xmlns="http://www.w3.org/2000/svg" xmlns:xlink="http://www.w3.org/1999/xlink" x="0px" y="0px"
	 width="100px" height="100px" viewBox="0 0 100 100" enable-background="new 0 0 100 100" xml:space="preserve">
<g id="Captions">
</g>
<g id="Your_Icon">
	<path id="ant-r" fill="#2A3F42" d="M83.51,51.6h-7.533l6.709-33.535c0.399-2,2.346-3.296,4.347-2.897
		c2,0.401,3.297,2.346,2.896,4.346L83.51,51.6L83.51,51.6z"/>
	<path id="ant-l" fill="#2A3F42" d="M16.551,51.6l-6.28-31.918c-0.395-2.011,0.888-3.968,2.866-4.37
		c1.977-0.401,3.902,0.903,4.298,2.915L24,51.6H16.551L16.551,51.6z"/>
	<path id="base" fill="#2A3F42" d="M88.312,54h-7.533H23.341h-7.449H4.83H0v26h9.712l3.333,6h14.262l3.332-6h42.14l3.334,6h14.262
		l3.333-6H100V54H88.312z M73.863,73.188c-1.883,0-3.408-1.523-3.408-3.408c0-1.883,1.525-3.407,3.408-3.407
		s3.408,1.524,3.408,3.407C77.271,71.663,75.746,73.188,73.863,73.188z M86.932,73.188c-1.883,0-3.408-1.523-3.408-3.408
		c0-1.883,1.525-3.407,3.408-3.407s3.409,1.524,3.409,3.407C90.341,71.663,88.814,73.188,86.932,73.188z"/>
</g>
</svg>
