G04 (created by PCBNEW (2013-07-07 BZR 4022)-stable) date 9/25/2013 7:58:19 PM*
%MOIN*%
G04 Gerber Fmt 3.4, Leading zero omitted, Abs format*
%FSLAX34Y34*%
G01*
G70*
G90*
G04 APERTURE LIST*
%ADD10C,0.006*%
%ADD11C,0.008*%
%ADD12C,0.01*%
%ADD13C,0.015*%
%ADD14R,0.0708661X0.0708661*%
%ADD15C,0.0708661*%
%ADD16C,0.0629921*%
G04 APERTURE END LIST*
G54D10*
G54D11*
X3911Y9290D02*
X3892Y9252D01*
X3873Y9233D01*
X3835Y9214D01*
X3721Y9214D01*
X3683Y9233D01*
X3664Y9252D01*
X3645Y9290D01*
X3645Y9347D01*
X3664Y9385D01*
X3683Y9404D01*
X3721Y9423D01*
X3835Y9423D01*
X3873Y9404D01*
X3892Y9385D01*
X3911Y9347D01*
X3911Y9290D01*
X3645Y9595D02*
X4045Y9595D01*
X3664Y9595D02*
X3645Y9633D01*
X3645Y9709D01*
X3664Y9747D01*
X3683Y9766D01*
X3721Y9785D01*
X3835Y9785D01*
X3873Y9766D01*
X3892Y9747D01*
X3911Y9709D01*
X3911Y9633D01*
X3892Y9595D01*
X3892Y10109D02*
X3911Y10071D01*
X3911Y9995D01*
X3892Y9957D01*
X3854Y9938D01*
X3702Y9938D01*
X3664Y9957D01*
X3645Y9995D01*
X3645Y10071D01*
X3664Y10109D01*
X3702Y10128D01*
X3740Y10128D01*
X3778Y9938D01*
X3645Y10300D02*
X3911Y10300D01*
X3683Y10300D02*
X3664Y10319D01*
X3645Y10357D01*
X3645Y10414D01*
X3664Y10452D01*
X3702Y10471D01*
X3911Y10471D01*
X3892Y10947D02*
X3911Y10985D01*
X3911Y11061D01*
X3892Y11100D01*
X3854Y11119D01*
X3835Y11119D01*
X3797Y11100D01*
X3778Y11061D01*
X3778Y11004D01*
X3759Y10966D01*
X3721Y10947D01*
X3702Y10947D01*
X3664Y10966D01*
X3645Y11004D01*
X3645Y11061D01*
X3664Y11100D01*
X3911Y11347D02*
X3892Y11309D01*
X3873Y11290D01*
X3835Y11271D01*
X3721Y11271D01*
X3683Y11290D01*
X3664Y11309D01*
X3645Y11347D01*
X3645Y11404D01*
X3664Y11442D01*
X3683Y11461D01*
X3721Y11480D01*
X3835Y11480D01*
X3873Y11461D01*
X3892Y11442D01*
X3911Y11404D01*
X3911Y11347D01*
X3645Y11823D02*
X3911Y11823D01*
X3645Y11652D02*
X3854Y11652D01*
X3892Y11671D01*
X3911Y11709D01*
X3911Y11766D01*
X3892Y11804D01*
X3873Y11823D01*
X3911Y12014D02*
X3645Y12014D01*
X3721Y12014D02*
X3683Y12033D01*
X3664Y12052D01*
X3645Y12090D01*
X3645Y12128D01*
X3892Y12433D02*
X3911Y12395D01*
X3911Y12319D01*
X3892Y12280D01*
X3873Y12261D01*
X3835Y12242D01*
X3721Y12242D01*
X3683Y12261D01*
X3664Y12280D01*
X3645Y12319D01*
X3645Y12395D01*
X3664Y12433D01*
X3892Y12757D02*
X3911Y12719D01*
X3911Y12642D01*
X3892Y12604D01*
X3854Y12585D01*
X3702Y12585D01*
X3664Y12604D01*
X3645Y12642D01*
X3645Y12719D01*
X3664Y12757D01*
X3702Y12776D01*
X3740Y12776D01*
X3778Y12585D01*
X3911Y13252D02*
X3511Y13252D01*
X3911Y13423D02*
X3702Y13423D01*
X3664Y13404D01*
X3645Y13366D01*
X3645Y13309D01*
X3664Y13271D01*
X3683Y13252D01*
X3911Y13785D02*
X3702Y13785D01*
X3664Y13766D01*
X3645Y13728D01*
X3645Y13652D01*
X3664Y13614D01*
X3892Y13785D02*
X3911Y13747D01*
X3911Y13652D01*
X3892Y13614D01*
X3854Y13595D01*
X3816Y13595D01*
X3778Y13614D01*
X3759Y13652D01*
X3759Y13747D01*
X3740Y13785D01*
X3911Y13976D02*
X3645Y13976D01*
X3721Y13976D02*
X3683Y13995D01*
X3664Y14014D01*
X3645Y14052D01*
X3645Y14090D01*
X3911Y14395D02*
X3511Y14395D01*
X3892Y14395D02*
X3911Y14357D01*
X3911Y14280D01*
X3892Y14242D01*
X3873Y14223D01*
X3835Y14204D01*
X3721Y14204D01*
X3683Y14223D01*
X3664Y14242D01*
X3645Y14280D01*
X3645Y14357D01*
X3664Y14395D01*
X3645Y14547D02*
X3911Y14623D01*
X3721Y14699D01*
X3911Y14776D01*
X3645Y14852D01*
X3911Y15176D02*
X3702Y15176D01*
X3664Y15157D01*
X3645Y15119D01*
X3645Y15042D01*
X3664Y15004D01*
X3892Y15176D02*
X3911Y15138D01*
X3911Y15042D01*
X3892Y15004D01*
X3854Y14985D01*
X3816Y14985D01*
X3778Y15004D01*
X3759Y15042D01*
X3759Y15138D01*
X3740Y15176D01*
X3911Y15366D02*
X3645Y15366D01*
X3721Y15366D02*
X3683Y15385D01*
X3664Y15404D01*
X3645Y15442D01*
X3645Y15480D01*
X3892Y15766D02*
X3911Y15728D01*
X3911Y15652D01*
X3892Y15614D01*
X3854Y15595D01*
X3702Y15595D01*
X3664Y15614D01*
X3645Y15652D01*
X3645Y15728D01*
X3664Y15766D01*
X3702Y15785D01*
X3740Y15785D01*
X3778Y15595D01*
X4513Y10661D02*
X4532Y10642D01*
X4551Y10585D01*
X4551Y10547D01*
X4532Y10490D01*
X4494Y10452D01*
X4456Y10433D01*
X4380Y10414D01*
X4323Y10414D01*
X4247Y10433D01*
X4209Y10452D01*
X4170Y10490D01*
X4151Y10547D01*
X4151Y10585D01*
X4170Y10642D01*
X4190Y10661D01*
X4513Y11061D02*
X4532Y11042D01*
X4551Y10985D01*
X4551Y10947D01*
X4532Y10890D01*
X4494Y10852D01*
X4456Y10833D01*
X4380Y10814D01*
X4323Y10814D01*
X4247Y10833D01*
X4209Y10852D01*
X4170Y10890D01*
X4151Y10947D01*
X4151Y10985D01*
X4170Y11042D01*
X4190Y11061D01*
X4342Y11671D02*
X4361Y11728D01*
X4380Y11747D01*
X4418Y11766D01*
X4475Y11766D01*
X4513Y11747D01*
X4532Y11728D01*
X4551Y11690D01*
X4551Y11538D01*
X4151Y11538D01*
X4151Y11671D01*
X4170Y11709D01*
X4190Y11728D01*
X4228Y11747D01*
X4266Y11747D01*
X4304Y11728D01*
X4323Y11709D01*
X4342Y11671D01*
X4342Y11538D01*
X4361Y12014D02*
X4551Y12014D01*
X4151Y11880D02*
X4361Y12014D01*
X4151Y12147D01*
X4399Y12280D02*
X4399Y12585D01*
X4532Y12757D02*
X4551Y12814D01*
X4551Y12909D01*
X4532Y12947D01*
X4513Y12966D01*
X4475Y12985D01*
X4437Y12985D01*
X4399Y12966D01*
X4380Y12947D01*
X4361Y12909D01*
X4342Y12833D01*
X4323Y12795D01*
X4304Y12776D01*
X4266Y12757D01*
X4228Y12757D01*
X4190Y12776D01*
X4170Y12795D01*
X4151Y12833D01*
X4151Y12928D01*
X4170Y12985D01*
X4437Y13138D02*
X4437Y13328D01*
X4551Y13100D02*
X4151Y13233D01*
X4551Y13366D01*
X4151Y13766D02*
X4151Y14014D01*
X4304Y13880D01*
X4304Y13938D01*
X4323Y13976D01*
X4342Y13995D01*
X4380Y14014D01*
X4475Y14014D01*
X4513Y13995D01*
X4532Y13976D01*
X4551Y13938D01*
X4551Y13823D01*
X4532Y13785D01*
X4513Y13766D01*
X4513Y14185D02*
X4532Y14204D01*
X4551Y14185D01*
X4532Y14166D01*
X4513Y14185D01*
X4551Y14185D01*
X4151Y14452D02*
X4151Y14490D01*
X4170Y14528D01*
X4190Y14547D01*
X4228Y14566D01*
X4304Y14585D01*
X4399Y14585D01*
X4475Y14566D01*
X4513Y14547D01*
X4532Y14528D01*
X4551Y14490D01*
X4551Y14452D01*
X4532Y14414D01*
X4513Y14395D01*
X4475Y14376D01*
X4399Y14357D01*
X4304Y14357D01*
X4228Y14376D01*
X4190Y14395D01*
X4170Y14414D01*
X4151Y14452D01*
G54D12*
X4214Y3507D02*
X4242Y3592D01*
X4242Y3735D01*
X4214Y3792D01*
X4185Y3821D01*
X4128Y3850D01*
X4071Y3850D01*
X4014Y3821D01*
X3985Y3792D01*
X3957Y3735D01*
X3928Y3621D01*
X3900Y3564D01*
X3871Y3535D01*
X3814Y3507D01*
X3757Y3507D01*
X3700Y3535D01*
X3671Y3564D01*
X3642Y3621D01*
X3642Y3764D01*
X3671Y3850D01*
X3928Y4107D02*
X3928Y4307D01*
X4242Y4392D02*
X4242Y4107D01*
X3642Y4107D01*
X3642Y4392D01*
X4185Y4992D02*
X4214Y4964D01*
X4242Y4878D01*
X4242Y4821D01*
X4214Y4735D01*
X4157Y4678D01*
X4100Y4650D01*
X3985Y4621D01*
X3900Y4621D01*
X3785Y4650D01*
X3728Y4678D01*
X3671Y4735D01*
X3642Y4821D01*
X3642Y4878D01*
X3671Y4964D01*
X3700Y4992D01*
X3242Y3592D02*
X2642Y3592D01*
X3071Y3792D01*
X2642Y3992D01*
X3242Y3992D01*
X3242Y4278D02*
X2642Y4278D01*
X3242Y4564D02*
X2642Y4564D01*
X3242Y4907D01*
X2642Y4907D01*
X2242Y3400D02*
X1642Y3400D01*
X1928Y3400D02*
X1928Y3742D01*
X2242Y3742D02*
X1642Y3742D01*
X1642Y4142D02*
X1642Y4257D01*
X1671Y4314D01*
X1728Y4371D01*
X1842Y4400D01*
X2042Y4400D01*
X2157Y4371D01*
X2214Y4314D01*
X2242Y4257D01*
X2242Y4142D01*
X2214Y4085D01*
X2157Y4028D01*
X2042Y4000D01*
X1842Y4000D01*
X1728Y4028D01*
X1671Y4085D01*
X1642Y4142D01*
X1642Y4657D02*
X2128Y4657D01*
X2185Y4685D01*
X2214Y4714D01*
X2242Y4771D01*
X2242Y4885D01*
X2214Y4942D01*
X2185Y4971D01*
X2128Y5000D01*
X1642Y5000D01*
X2242Y5628D02*
X1957Y5428D01*
X2242Y5285D02*
X1642Y5285D01*
X1642Y5514D01*
X1671Y5571D01*
X1700Y5600D01*
X1757Y5628D01*
X1842Y5628D01*
X1900Y5600D01*
X1928Y5571D01*
X1957Y5514D01*
X1957Y5285D01*
X642Y3450D02*
X1242Y3650D01*
X642Y3850D01*
X1185Y4392D02*
X1214Y4364D01*
X1242Y4278D01*
X1242Y4221D01*
X1214Y4135D01*
X1157Y4078D01*
X1100Y4050D01*
X985Y4021D01*
X900Y4021D01*
X785Y4050D01*
X728Y4078D01*
X671Y4135D01*
X642Y4221D01*
X642Y4278D01*
X671Y4364D01*
X700Y4392D01*
X1185Y4992D02*
X1214Y4964D01*
X1242Y4878D01*
X1242Y4821D01*
X1214Y4735D01*
X1157Y4678D01*
X1100Y4650D01*
X985Y4621D01*
X900Y4621D01*
X785Y4650D01*
X728Y4678D01*
X671Y4735D01*
X642Y4821D01*
X642Y4878D01*
X671Y4964D01*
X700Y4992D01*
G54D13*
X0Y1250D02*
X5000Y1250D01*
X5000Y1250D02*
X5000Y250D01*
X5000Y250D02*
X0Y250D01*
X500Y750D02*
G75*
G03X0Y1250I-500J0D01*
G74*
G01*
X0Y250D02*
G75*
G03X500Y750I0J500D01*
G74*
G01*
X0Y1250D02*
X0Y250D01*
X0Y3000D02*
X5000Y3000D01*
X5000Y3000D02*
X5000Y2000D01*
X5000Y2000D02*
X0Y2000D01*
X500Y2500D02*
G75*
G03X0Y3000I-500J0D01*
G74*
G01*
X0Y2000D02*
G75*
G03X500Y2500I0J500D01*
G74*
G01*
X0Y3000D02*
X0Y2000D01*
G54D10*
X4400Y1678D02*
X4400Y1464D01*
X4385Y1421D01*
X4357Y1392D01*
X4314Y1378D01*
X4285Y1378D01*
X4528Y1650D02*
X4542Y1664D01*
X4571Y1678D01*
X4642Y1678D01*
X4671Y1664D01*
X4685Y1650D01*
X4700Y1621D01*
X4700Y1592D01*
X4685Y1550D01*
X4514Y1378D01*
X4700Y1378D01*
G54D12*
X345Y1440D02*
X583Y1440D01*
X297Y1297D02*
X464Y1797D01*
X630Y1297D01*
X1083Y1297D02*
X916Y1535D01*
X797Y1297D02*
X797Y1797D01*
X988Y1797D01*
X1035Y1773D01*
X1059Y1750D01*
X1083Y1702D01*
X1083Y1630D01*
X1059Y1583D01*
X1035Y1559D01*
X988Y1535D01*
X797Y1535D01*
X1297Y1297D02*
X1297Y1797D01*
X1464Y1440D01*
X1630Y1797D01*
X1630Y1297D01*
%LPC*%
G54D14*
X1000Y750D03*
G54D15*
X2000Y750D03*
X3000Y750D03*
X4000Y750D03*
G54D14*
X1000Y2500D03*
G54D15*
X2000Y2500D03*
X3000Y2500D03*
X4000Y2500D03*
G54D16*
X2000Y7500D03*
X3000Y7500D03*
X2000Y27500D03*
X3000Y27500D03*
X2000Y17500D03*
X3000Y17500D03*
M02*
