G04 (created by PCBNEW (2013-07-07 BZR 4022)-stable) date 9/25/2013 7:58:19 PM*
%MOIN*%
G04 Gerber Fmt 3.4, Leading zero omitted, Abs format*
%FSLAX34Y34*%
G01*
G70*
G90*
G04 APERTURE LIST*
%ADD10C,0.006*%
%ADD11R,0.0708661X0.0708661*%
%ADD12C,0.0708661*%
%ADD13C,0.0629921*%
%ADD14C,0.02*%
G04 APERTURE END LIST*
G54D10*
G54D11*
X1000Y750D03*
G54D12*
X2000Y750D03*
X3000Y750D03*
X4000Y750D03*
G54D11*
X1000Y2500D03*
G54D12*
X2000Y2500D03*
X3000Y2500D03*
X4000Y2500D03*
G54D13*
X2000Y7500D03*
X3000Y7500D03*
X2000Y27500D03*
X3000Y27500D03*
X2000Y17500D03*
X3000Y17500D03*
G54D14*
X2000Y2500D02*
X2000Y3500D01*
X3500Y27500D02*
X3000Y27500D01*
X4000Y27000D02*
X3500Y27500D01*
X4000Y21500D02*
X4000Y27000D01*
X1000Y18500D02*
X4000Y21500D01*
X1000Y4500D02*
X1000Y18500D01*
X2000Y3500D02*
X1000Y4500D01*
X3000Y2500D02*
X3000Y3500D01*
X3500Y17500D02*
X3000Y17500D01*
X4000Y17000D02*
X3500Y17500D01*
X4000Y4500D02*
X4000Y17000D01*
X3000Y3500D02*
X4000Y4500D01*
G54D10*
G36*
X3600Y7635D02*
X3591Y7678D01*
X3545Y7790D01*
X3478Y7890D01*
X3393Y7976D01*
X3293Y8043D01*
X3182Y8090D01*
X3064Y8114D01*
X2943Y8115D01*
X2825Y8092D01*
X2713Y8047D01*
X2612Y7981D01*
X2526Y7897D01*
X2500Y7858D01*
X2478Y7890D01*
X2393Y7976D01*
X2293Y8043D01*
X2182Y8090D01*
X2064Y8114D01*
X1943Y8115D01*
X1825Y8092D01*
X1713Y8047D01*
X1612Y7981D01*
X1526Y7897D01*
X1458Y7797D01*
X1410Y7686D01*
X1400Y7635D01*
X1400Y17362D01*
X1406Y17329D01*
X1450Y17217D01*
X1515Y17116D01*
X1599Y17029D01*
X1698Y16960D01*
X1809Y16912D01*
X1926Y16886D01*
X2047Y16883D01*
X2166Y16904D01*
X2278Y16948D01*
X2380Y17013D01*
X2467Y17096D01*
X2499Y17141D01*
X2515Y17116D01*
X2599Y17029D01*
X2698Y16960D01*
X2809Y16912D01*
X2926Y16886D01*
X3047Y16883D01*
X3166Y16904D01*
X3278Y16948D01*
X3380Y17013D01*
X3401Y17032D01*
X3600Y16834D01*
X3600Y7635D01*
X3600Y7635D01*
G37*
G54D14*
X3600Y7635D02*
X3591Y7678D01*
X3545Y7790D01*
X3478Y7890D01*
X3393Y7976D01*
X3293Y8043D01*
X3182Y8090D01*
X3064Y8114D01*
X2943Y8115D01*
X2825Y8092D01*
X2713Y8047D01*
X2612Y7981D01*
X2526Y7897D01*
X2500Y7858D01*
X2478Y7890D01*
X2393Y7976D01*
X2293Y8043D01*
X2182Y8090D01*
X2064Y8114D01*
X1943Y8115D01*
X1825Y8092D01*
X1713Y8047D01*
X1612Y7981D01*
X1526Y7897D01*
X1458Y7797D01*
X1410Y7686D01*
X1400Y7635D01*
X1400Y17362D01*
X1406Y17329D01*
X1450Y17217D01*
X1515Y17116D01*
X1599Y17029D01*
X1698Y16960D01*
X1809Y16912D01*
X1926Y16886D01*
X2047Y16883D01*
X2166Y16904D01*
X2278Y16948D01*
X2380Y17013D01*
X2467Y17096D01*
X2499Y17141D01*
X2515Y17116D01*
X2599Y17029D01*
X2698Y16960D01*
X2809Y16912D01*
X2926Y16886D01*
X3047Y16883D01*
X3166Y16904D01*
X3278Y16948D01*
X3380Y17013D01*
X3401Y17032D01*
X3600Y16834D01*
X3600Y7635D01*
G54D10*
G36*
X3600Y4665D02*
X2717Y3782D01*
X2693Y3754D01*
X2669Y3725D01*
X2668Y3724D01*
X2667Y3722D01*
X2650Y3689D01*
X2632Y3657D01*
X2631Y3655D01*
X2630Y3653D01*
X2619Y3618D01*
X2608Y3583D01*
X2608Y3581D01*
X2607Y3579D01*
X2604Y3542D01*
X2600Y3505D01*
X2600Y3501D01*
X2600Y3501D01*
X2600Y3501D01*
X2600Y3500D01*
X2600Y3020D01*
X2588Y3012D01*
X2499Y2925D01*
X2419Y3006D01*
X2400Y3019D01*
X2400Y3500D01*
X2396Y3536D01*
X2393Y3573D01*
X2392Y3575D01*
X2392Y3577D01*
X2381Y3613D01*
X2371Y3648D01*
X2370Y3650D01*
X2369Y3652D01*
X2352Y3685D01*
X2335Y3717D01*
X2334Y3719D01*
X2333Y3721D01*
X2309Y3749D01*
X2286Y3778D01*
X2283Y3781D01*
X2283Y3781D01*
X2283Y3781D01*
X2282Y3782D01*
X1400Y4665D01*
X1400Y7362D01*
X1406Y7329D01*
X1450Y7217D01*
X1515Y7116D01*
X1599Y7029D01*
X1698Y6960D01*
X1809Y6912D01*
X1926Y6886D01*
X2047Y6883D01*
X2166Y6904D01*
X2278Y6948D01*
X2380Y7013D01*
X2467Y7096D01*
X2499Y7141D01*
X2515Y7116D01*
X2599Y7029D01*
X2698Y6960D01*
X2809Y6912D01*
X2926Y6886D01*
X3047Y6883D01*
X3166Y6904D01*
X3278Y6948D01*
X3380Y7013D01*
X3467Y7096D01*
X3537Y7194D01*
X3586Y7304D01*
X3600Y7365D01*
X3600Y4665D01*
X3600Y4665D01*
G37*
G54D14*
X3600Y4665D02*
X2717Y3782D01*
X2693Y3754D01*
X2669Y3725D01*
X2668Y3724D01*
X2667Y3722D01*
X2650Y3689D01*
X2632Y3657D01*
X2631Y3655D01*
X2630Y3653D01*
X2619Y3618D01*
X2608Y3583D01*
X2608Y3581D01*
X2607Y3579D01*
X2604Y3542D01*
X2600Y3505D01*
X2600Y3501D01*
X2600Y3501D01*
X2600Y3501D01*
X2600Y3500D01*
X2600Y3020D01*
X2588Y3012D01*
X2499Y2925D01*
X2419Y3006D01*
X2400Y3019D01*
X2400Y3500D01*
X2396Y3536D01*
X2393Y3573D01*
X2392Y3575D01*
X2392Y3577D01*
X2381Y3613D01*
X2371Y3648D01*
X2370Y3650D01*
X2369Y3652D01*
X2352Y3685D01*
X2335Y3717D01*
X2334Y3719D01*
X2333Y3721D01*
X2309Y3749D01*
X2286Y3778D01*
X2283Y3781D01*
X2283Y3781D01*
X2283Y3781D01*
X2282Y3782D01*
X1400Y4665D01*
X1400Y7362D01*
X1406Y7329D01*
X1450Y7217D01*
X1515Y7116D01*
X1599Y7029D01*
X1698Y6960D01*
X1809Y6912D01*
X1926Y6886D01*
X2047Y6883D01*
X2166Y6904D01*
X2278Y6948D01*
X2380Y7013D01*
X2467Y7096D01*
X2499Y7141D01*
X2515Y7116D01*
X2599Y7029D01*
X2698Y6960D01*
X2809Y6912D01*
X2926Y6886D01*
X3047Y6883D01*
X3166Y6904D01*
X3278Y6948D01*
X3380Y7013D01*
X3467Y7096D01*
X3537Y7194D01*
X3586Y7304D01*
X3600Y7365D01*
X3600Y4665D01*
G54D10*
G36*
X4675Y325D02*
X4500Y325D01*
X4571Y425D01*
X4623Y542D01*
X4652Y667D01*
X4654Y814D01*
X4654Y2564D01*
X4629Y2690D01*
X4580Y2808D01*
X4509Y2915D01*
X4419Y3006D01*
X4312Y3078D01*
X4194Y3128D01*
X4068Y3153D01*
X3940Y3154D01*
X3814Y3130D01*
X3695Y3082D01*
X3588Y3012D01*
X3499Y2925D01*
X3419Y3006D01*
X3400Y3019D01*
X3400Y3334D01*
X4282Y4217D01*
X4306Y4245D01*
X4330Y4274D01*
X4331Y4275D01*
X4332Y4277D01*
X4349Y4310D01*
X4367Y4342D01*
X4368Y4344D01*
X4369Y4346D01*
X4380Y4381D01*
X4391Y4416D01*
X4391Y4418D01*
X4392Y4420D01*
X4395Y4457D01*
X4399Y4494D01*
X4399Y4498D01*
X4399Y4498D01*
X4399Y4498D01*
X4400Y4500D01*
X4400Y17000D01*
X4396Y17036D01*
X4393Y17073D01*
X4392Y17075D01*
X4392Y17077D01*
X4381Y17113D01*
X4371Y17148D01*
X4370Y17150D01*
X4369Y17152D01*
X4352Y17185D01*
X4335Y17217D01*
X4334Y17219D01*
X4333Y17221D01*
X4309Y17249D01*
X4286Y17278D01*
X4283Y17281D01*
X4283Y17281D01*
X4283Y17281D01*
X4282Y17282D01*
X3782Y17782D01*
X3754Y17806D01*
X3725Y17830D01*
X3724Y17831D01*
X3722Y17832D01*
X3689Y17849D01*
X3657Y17867D01*
X3655Y17868D01*
X3653Y17869D01*
X3618Y17880D01*
X3583Y17891D01*
X3581Y17891D01*
X3579Y17892D01*
X3542Y17895D01*
X3505Y17899D01*
X3501Y17899D01*
X3501Y17899D01*
X3501Y17899D01*
X3500Y17900D01*
X3469Y17900D01*
X3393Y17976D01*
X3293Y18043D01*
X3182Y18090D01*
X3064Y18114D01*
X2943Y18115D01*
X2825Y18092D01*
X2713Y18047D01*
X2612Y17981D01*
X2526Y17897D01*
X2500Y17858D01*
X2478Y17890D01*
X2393Y17976D01*
X2293Y18043D01*
X2182Y18090D01*
X2064Y18114D01*
X1943Y18115D01*
X1825Y18092D01*
X1713Y18047D01*
X1612Y17981D01*
X1526Y17897D01*
X1458Y17797D01*
X1410Y17686D01*
X1400Y17635D01*
X1400Y18334D01*
X4282Y21217D01*
X4306Y21245D01*
X4330Y21274D01*
X4331Y21275D01*
X4332Y21277D01*
X4349Y21310D01*
X4367Y21342D01*
X4368Y21344D01*
X4369Y21346D01*
X4380Y21381D01*
X4391Y21416D01*
X4391Y21418D01*
X4392Y21420D01*
X4395Y21457D01*
X4399Y21494D01*
X4399Y21498D01*
X4399Y21498D01*
X4399Y21498D01*
X4400Y21500D01*
X4400Y27000D01*
X4396Y27036D01*
X4393Y27073D01*
X4392Y27075D01*
X4392Y27077D01*
X4381Y27113D01*
X4371Y27148D01*
X4370Y27150D01*
X4369Y27152D01*
X4352Y27185D01*
X4335Y27217D01*
X4334Y27219D01*
X4333Y27221D01*
X4309Y27249D01*
X4286Y27278D01*
X4283Y27281D01*
X4283Y27281D01*
X4283Y27281D01*
X4282Y27282D01*
X3782Y27782D01*
X3754Y27806D01*
X3725Y27830D01*
X3724Y27831D01*
X3722Y27832D01*
X3689Y27849D01*
X3657Y27867D01*
X3655Y27868D01*
X3653Y27869D01*
X3618Y27880D01*
X3583Y27891D01*
X3581Y27891D01*
X3579Y27892D01*
X3542Y27895D01*
X3505Y27899D01*
X3501Y27899D01*
X3501Y27899D01*
X3501Y27899D01*
X3500Y27900D01*
X3469Y27900D01*
X3393Y27976D01*
X3293Y28043D01*
X3182Y28090D01*
X3064Y28114D01*
X2943Y28115D01*
X2825Y28092D01*
X2713Y28047D01*
X2612Y27981D01*
X2526Y27897D01*
X2500Y27858D01*
X2478Y27890D01*
X2393Y27976D01*
X2293Y28043D01*
X2182Y28090D01*
X2064Y28114D01*
X1943Y28115D01*
X1825Y28092D01*
X1713Y28047D01*
X1612Y27981D01*
X1526Y27897D01*
X1458Y27797D01*
X1410Y27686D01*
X1385Y27568D01*
X1384Y27448D01*
X1406Y27329D01*
X1450Y27217D01*
X1515Y27116D01*
X1599Y27029D01*
X1698Y26960D01*
X1809Y26912D01*
X1926Y26886D01*
X2047Y26883D01*
X2166Y26904D01*
X2278Y26948D01*
X2380Y27013D01*
X2467Y27096D01*
X2499Y27141D01*
X2515Y27116D01*
X2599Y27029D01*
X2698Y26960D01*
X2809Y26912D01*
X2926Y26886D01*
X3047Y26883D01*
X3166Y26904D01*
X3278Y26948D01*
X3380Y27013D01*
X3401Y27032D01*
X3600Y26834D01*
X3600Y21665D01*
X717Y18782D01*
X693Y18754D01*
X669Y18725D01*
X668Y18724D01*
X667Y18722D01*
X650Y18689D01*
X632Y18657D01*
X631Y18655D01*
X630Y18653D01*
X619Y18618D01*
X608Y18583D01*
X608Y18581D01*
X607Y18579D01*
X604Y18542D01*
X600Y18505D01*
X600Y18501D01*
X600Y18501D01*
X600Y18501D01*
X600Y18500D01*
X600Y4500D01*
X603Y4463D01*
X606Y4426D01*
X607Y4424D01*
X607Y4422D01*
X618Y4386D01*
X628Y4351D01*
X629Y4349D01*
X630Y4347D01*
X647Y4314D01*
X664Y4282D01*
X665Y4280D01*
X666Y4278D01*
X690Y4250D01*
X713Y4221D01*
X716Y4218D01*
X716Y4218D01*
X716Y4218D01*
X717Y4217D01*
X1600Y3334D01*
X1600Y3026D01*
X1587Y3044D01*
X1546Y3086D01*
X1497Y3119D01*
X1443Y3142D01*
X1385Y3154D01*
X1327Y3154D01*
X616Y3154D01*
X558Y3142D01*
X504Y3120D01*
X455Y3087D01*
X413Y3046D01*
X380Y2997D01*
X357Y2943D01*
X345Y2885D01*
X345Y2827D01*
X345Y2116D01*
X357Y2058D01*
X379Y2004D01*
X412Y1955D01*
X453Y1913D01*
X502Y1880D01*
X556Y1857D01*
X614Y1845D01*
X672Y1845D01*
X1383Y1845D01*
X1441Y1857D01*
X1495Y1879D01*
X1544Y1912D01*
X1586Y1953D01*
X1603Y1978D01*
X1679Y1926D01*
X1796Y1874D01*
X1922Y1847D01*
X2050Y1844D01*
X2176Y1866D01*
X2296Y1913D01*
X2404Y1981D01*
X2497Y2070D01*
X2500Y2074D01*
X2573Y1999D01*
X2679Y1926D01*
X2796Y1874D01*
X2922Y1847D01*
X3050Y1844D01*
X3176Y1866D01*
X3296Y1913D01*
X3404Y1981D01*
X3497Y2070D01*
X3500Y2074D01*
X3573Y1999D01*
X3679Y1926D01*
X3796Y1874D01*
X3922Y1847D01*
X4050Y1844D01*
X4176Y1866D01*
X4296Y1913D01*
X4404Y1981D01*
X4497Y2070D01*
X4571Y2175D01*
X4623Y2292D01*
X4652Y2417D01*
X4654Y2564D01*
X4654Y814D01*
X4629Y940D01*
X4580Y1058D01*
X4509Y1165D01*
X4419Y1256D01*
X4312Y1328D01*
X4194Y1378D01*
X4068Y1403D01*
X3940Y1404D01*
X3814Y1380D01*
X3695Y1332D01*
X3588Y1262D01*
X3499Y1175D01*
X3419Y1256D01*
X3312Y1328D01*
X3194Y1378D01*
X3068Y1403D01*
X2940Y1404D01*
X2814Y1380D01*
X2695Y1332D01*
X2588Y1262D01*
X2499Y1175D01*
X2419Y1256D01*
X2312Y1328D01*
X2194Y1378D01*
X2068Y1403D01*
X1940Y1404D01*
X1814Y1380D01*
X1695Y1332D01*
X1602Y1272D01*
X1587Y1294D01*
X1546Y1336D01*
X1497Y1369D01*
X1443Y1392D01*
X1385Y1404D01*
X1327Y1404D01*
X616Y1404D01*
X558Y1392D01*
X504Y1370D01*
X455Y1337D01*
X413Y1296D01*
X380Y1247D01*
X357Y1193D01*
X345Y1135D01*
X345Y1077D01*
X345Y366D01*
X353Y325D01*
X325Y325D01*
X325Y29675D01*
X4675Y29675D01*
X4675Y325D01*
X4675Y325D01*
G37*
G54D14*
X4675Y325D02*
X4500Y325D01*
X4571Y425D01*
X4623Y542D01*
X4652Y667D01*
X4654Y814D01*
X4654Y2564D01*
X4629Y2690D01*
X4580Y2808D01*
X4509Y2915D01*
X4419Y3006D01*
X4312Y3078D01*
X4194Y3128D01*
X4068Y3153D01*
X3940Y3154D01*
X3814Y3130D01*
X3695Y3082D01*
X3588Y3012D01*
X3499Y2925D01*
X3419Y3006D01*
X3400Y3019D01*
X3400Y3334D01*
X4282Y4217D01*
X4306Y4245D01*
X4330Y4274D01*
X4331Y4275D01*
X4332Y4277D01*
X4349Y4310D01*
X4367Y4342D01*
X4368Y4344D01*
X4369Y4346D01*
X4380Y4381D01*
X4391Y4416D01*
X4391Y4418D01*
X4392Y4420D01*
X4395Y4457D01*
X4399Y4494D01*
X4399Y4498D01*
X4399Y4498D01*
X4399Y4498D01*
X4400Y4500D01*
X4400Y17000D01*
X4396Y17036D01*
X4393Y17073D01*
X4392Y17075D01*
X4392Y17077D01*
X4381Y17113D01*
X4371Y17148D01*
X4370Y17150D01*
X4369Y17152D01*
X4352Y17185D01*
X4335Y17217D01*
X4334Y17219D01*
X4333Y17221D01*
X4309Y17249D01*
X4286Y17278D01*
X4283Y17281D01*
X4283Y17281D01*
X4283Y17281D01*
X4282Y17282D01*
X3782Y17782D01*
X3754Y17806D01*
X3725Y17830D01*
X3724Y17831D01*
X3722Y17832D01*
X3689Y17849D01*
X3657Y17867D01*
X3655Y17868D01*
X3653Y17869D01*
X3618Y17880D01*
X3583Y17891D01*
X3581Y17891D01*
X3579Y17892D01*
X3542Y17895D01*
X3505Y17899D01*
X3501Y17899D01*
X3501Y17899D01*
X3501Y17899D01*
X3500Y17900D01*
X3469Y17900D01*
X3393Y17976D01*
X3293Y18043D01*
X3182Y18090D01*
X3064Y18114D01*
X2943Y18115D01*
X2825Y18092D01*
X2713Y18047D01*
X2612Y17981D01*
X2526Y17897D01*
X2500Y17858D01*
X2478Y17890D01*
X2393Y17976D01*
X2293Y18043D01*
X2182Y18090D01*
X2064Y18114D01*
X1943Y18115D01*
X1825Y18092D01*
X1713Y18047D01*
X1612Y17981D01*
X1526Y17897D01*
X1458Y17797D01*
X1410Y17686D01*
X1400Y17635D01*
X1400Y18334D01*
X4282Y21217D01*
X4306Y21245D01*
X4330Y21274D01*
X4331Y21275D01*
X4332Y21277D01*
X4349Y21310D01*
X4367Y21342D01*
X4368Y21344D01*
X4369Y21346D01*
X4380Y21381D01*
X4391Y21416D01*
X4391Y21418D01*
X4392Y21420D01*
X4395Y21457D01*
X4399Y21494D01*
X4399Y21498D01*
X4399Y21498D01*
X4399Y21498D01*
X4400Y21500D01*
X4400Y27000D01*
X4396Y27036D01*
X4393Y27073D01*
X4392Y27075D01*
X4392Y27077D01*
X4381Y27113D01*
X4371Y27148D01*
X4370Y27150D01*
X4369Y27152D01*
X4352Y27185D01*
X4335Y27217D01*
X4334Y27219D01*
X4333Y27221D01*
X4309Y27249D01*
X4286Y27278D01*
X4283Y27281D01*
X4283Y27281D01*
X4283Y27281D01*
X4282Y27282D01*
X3782Y27782D01*
X3754Y27806D01*
X3725Y27830D01*
X3724Y27831D01*
X3722Y27832D01*
X3689Y27849D01*
X3657Y27867D01*
X3655Y27868D01*
X3653Y27869D01*
X3618Y27880D01*
X3583Y27891D01*
X3581Y27891D01*
X3579Y27892D01*
X3542Y27895D01*
X3505Y27899D01*
X3501Y27899D01*
X3501Y27899D01*
X3501Y27899D01*
X3500Y27900D01*
X3469Y27900D01*
X3393Y27976D01*
X3293Y28043D01*
X3182Y28090D01*
X3064Y28114D01*
X2943Y28115D01*
X2825Y28092D01*
X2713Y28047D01*
X2612Y27981D01*
X2526Y27897D01*
X2500Y27858D01*
X2478Y27890D01*
X2393Y27976D01*
X2293Y28043D01*
X2182Y28090D01*
X2064Y28114D01*
X1943Y28115D01*
X1825Y28092D01*
X1713Y28047D01*
X1612Y27981D01*
X1526Y27897D01*
X1458Y27797D01*
X1410Y27686D01*
X1385Y27568D01*
X1384Y27448D01*
X1406Y27329D01*
X1450Y27217D01*
X1515Y27116D01*
X1599Y27029D01*
X1698Y26960D01*
X1809Y26912D01*
X1926Y26886D01*
X2047Y26883D01*
X2166Y26904D01*
X2278Y26948D01*
X2380Y27013D01*
X2467Y27096D01*
X2499Y27141D01*
X2515Y27116D01*
X2599Y27029D01*
X2698Y26960D01*
X2809Y26912D01*
X2926Y26886D01*
X3047Y26883D01*
X3166Y26904D01*
X3278Y26948D01*
X3380Y27013D01*
X3401Y27032D01*
X3600Y26834D01*
X3600Y21665D01*
X717Y18782D01*
X693Y18754D01*
X669Y18725D01*
X668Y18724D01*
X667Y18722D01*
X650Y18689D01*
X632Y18657D01*
X631Y18655D01*
X630Y18653D01*
X619Y18618D01*
X608Y18583D01*
X608Y18581D01*
X607Y18579D01*
X604Y18542D01*
X600Y18505D01*
X600Y18501D01*
X600Y18501D01*
X600Y18501D01*
X600Y18500D01*
X600Y4500D01*
X603Y4463D01*
X606Y4426D01*
X607Y4424D01*
X607Y4422D01*
X618Y4386D01*
X628Y4351D01*
X629Y4349D01*
X630Y4347D01*
X647Y4314D01*
X664Y4282D01*
X665Y4280D01*
X666Y4278D01*
X690Y4250D01*
X713Y4221D01*
X716Y4218D01*
X716Y4218D01*
X716Y4218D01*
X717Y4217D01*
X1600Y3334D01*
X1600Y3026D01*
X1587Y3044D01*
X1546Y3086D01*
X1497Y3119D01*
X1443Y3142D01*
X1385Y3154D01*
X1327Y3154D01*
X616Y3154D01*
X558Y3142D01*
X504Y3120D01*
X455Y3087D01*
X413Y3046D01*
X380Y2997D01*
X357Y2943D01*
X345Y2885D01*
X345Y2827D01*
X345Y2116D01*
X357Y2058D01*
X379Y2004D01*
X412Y1955D01*
X453Y1913D01*
X502Y1880D01*
X556Y1857D01*
X614Y1845D01*
X672Y1845D01*
X1383Y1845D01*
X1441Y1857D01*
X1495Y1879D01*
X1544Y1912D01*
X1586Y1953D01*
X1603Y1978D01*
X1679Y1926D01*
X1796Y1874D01*
X1922Y1847D01*
X2050Y1844D01*
X2176Y1866D01*
X2296Y1913D01*
X2404Y1981D01*
X2497Y2070D01*
X2500Y2074D01*
X2573Y1999D01*
X2679Y1926D01*
X2796Y1874D01*
X2922Y1847D01*
X3050Y1844D01*
X3176Y1866D01*
X3296Y1913D01*
X3404Y1981D01*
X3497Y2070D01*
X3500Y2074D01*
X3573Y1999D01*
X3679Y1926D01*
X3796Y1874D01*
X3922Y1847D01*
X4050Y1844D01*
X4176Y1866D01*
X4296Y1913D01*
X4404Y1981D01*
X4497Y2070D01*
X4571Y2175D01*
X4623Y2292D01*
X4652Y2417D01*
X4654Y2564D01*
X4654Y814D01*
X4629Y940D01*
X4580Y1058D01*
X4509Y1165D01*
X4419Y1256D01*
X4312Y1328D01*
X4194Y1378D01*
X4068Y1403D01*
X3940Y1404D01*
X3814Y1380D01*
X3695Y1332D01*
X3588Y1262D01*
X3499Y1175D01*
X3419Y1256D01*
X3312Y1328D01*
X3194Y1378D01*
X3068Y1403D01*
X2940Y1404D01*
X2814Y1380D01*
X2695Y1332D01*
X2588Y1262D01*
X2499Y1175D01*
X2419Y1256D01*
X2312Y1328D01*
X2194Y1378D01*
X2068Y1403D01*
X1940Y1404D01*
X1814Y1380D01*
X1695Y1332D01*
X1602Y1272D01*
X1587Y1294D01*
X1546Y1336D01*
X1497Y1369D01*
X1443Y1392D01*
X1385Y1404D01*
X1327Y1404D01*
X616Y1404D01*
X558Y1392D01*
X504Y1370D01*
X455Y1337D01*
X413Y1296D01*
X380Y1247D01*
X357Y1193D01*
X345Y1135D01*
X345Y1077D01*
X345Y366D01*
X353Y325D01*
X325Y325D01*
X325Y29675D01*
X4675Y29675D01*
X4675Y325D01*
M02*
