G04 (created by PCBNEW (2013-07-07 BZR 4022)-stable) date 9/25/2013 7:58:19 PM*
%MOIN*%
G04 Gerber Fmt 3.4, Leading zero omitted, Abs format*
%FSLAX34Y34*%
G01*
G70*
G90*
G04 APERTURE LIST*
%ADD10C,0.006*%
%ADD11C,0.008*%
%ADD12R,0.0708661X0.0708661*%
%ADD13C,0.0708661*%
%ADD14C,0.0629921*%
G04 APERTURE END LIST*
G54D10*
G54D11*
X3090Y6712D02*
X3090Y8287D01*
X2696Y7106D02*
X2696Y6712D01*
X2303Y6712D02*
X2303Y7106D01*
X2303Y7106D02*
X2696Y6909D01*
X2696Y6909D02*
X2303Y6712D01*
X2106Y6909D02*
X2893Y6909D01*
X3484Y7500D02*
G75*
G03X3484Y7500I-984J0D01*
G74*
G01*
X3090Y26712D02*
X3090Y28287D01*
X2696Y27106D02*
X2696Y26712D01*
X2303Y26712D02*
X2303Y27106D01*
X2303Y27106D02*
X2696Y26909D01*
X2696Y26909D02*
X2303Y26712D01*
X2106Y26909D02*
X2893Y26909D01*
X3484Y27500D02*
G75*
G03X3484Y27500I-984J0D01*
G74*
G01*
X3090Y16712D02*
X3090Y18287D01*
X2696Y17106D02*
X2696Y16712D01*
X2303Y16712D02*
X2303Y17106D01*
X2303Y17106D02*
X2696Y16909D01*
X2696Y16909D02*
X2303Y16712D01*
X2106Y16909D02*
X2893Y16909D01*
X3484Y17500D02*
G75*
G03X3484Y17500I-984J0D01*
G74*
G01*
G54D10*
X2835Y8756D02*
X2978Y8756D01*
X2978Y9056D01*
X2735Y8913D02*
X2635Y8913D01*
X2592Y8756D02*
X2735Y8756D01*
X2735Y9056D01*
X2592Y9056D01*
X2464Y8756D02*
X2464Y9056D01*
X2392Y9056D01*
X2350Y9042D01*
X2321Y9013D01*
X2307Y8985D01*
X2292Y8927D01*
X2292Y8885D01*
X2307Y8827D01*
X2321Y8799D01*
X2350Y8770D01*
X2392Y8756D01*
X2464Y8756D01*
X2035Y8956D02*
X2035Y8756D01*
X2107Y9070D02*
X2178Y8856D01*
X1992Y8856D01*
X2835Y28756D02*
X2978Y28756D01*
X2978Y29056D01*
X2735Y28913D02*
X2635Y28913D01*
X2592Y28756D02*
X2735Y28756D01*
X2735Y29056D01*
X2592Y29056D01*
X2464Y28756D02*
X2464Y29056D01*
X2392Y29056D01*
X2350Y29042D01*
X2321Y29013D01*
X2307Y28985D01*
X2292Y28927D01*
X2292Y28885D01*
X2307Y28827D01*
X2321Y28799D01*
X2350Y28770D01*
X2392Y28756D01*
X2464Y28756D01*
X2178Y29027D02*
X2164Y29042D01*
X2135Y29056D01*
X2064Y29056D01*
X2035Y29042D01*
X2021Y29027D01*
X2007Y28999D01*
X2007Y28970D01*
X2021Y28927D01*
X2192Y28756D01*
X2007Y28756D01*
X2835Y18756D02*
X2978Y18756D01*
X2978Y19056D01*
X2735Y18913D02*
X2635Y18913D01*
X2592Y18756D02*
X2735Y18756D01*
X2735Y19056D01*
X2592Y19056D01*
X2464Y18756D02*
X2464Y19056D01*
X2392Y19056D01*
X2350Y19042D01*
X2321Y19013D01*
X2307Y18985D01*
X2292Y18927D01*
X2292Y18885D01*
X2307Y18827D01*
X2321Y18799D01*
X2350Y18770D01*
X2392Y18756D01*
X2464Y18756D01*
X2192Y19056D02*
X2007Y19056D01*
X2107Y18942D01*
X2064Y18942D01*
X2035Y18927D01*
X2021Y18913D01*
X2007Y18885D01*
X2007Y18813D01*
X2021Y18785D01*
X2035Y18770D01*
X2064Y18756D01*
X2150Y18756D01*
X2178Y18770D01*
X2192Y18785D01*
%LPC*%
G54D12*
X1000Y750D03*
G54D13*
X2000Y750D03*
X3000Y750D03*
X4000Y750D03*
G54D12*
X1000Y2500D03*
G54D13*
X2000Y2500D03*
X3000Y2500D03*
X4000Y2500D03*
G54D14*
X2000Y7500D03*
X3000Y7500D03*
X2000Y27500D03*
X3000Y27500D03*
X2000Y17500D03*
X3000Y17500D03*
M02*
