G04 (created by PCBNEW (2013-07-07 BZR 4022)-stable) date 11/9/2013 6:45:55 PM*
%MOIN*%
G04 Gerber Fmt 3.4, Leading zero omitted, Abs format*
%FSLAX34Y34*%
G01*
G70*
G90*
G04 APERTURE LIST*
%ADD10C,0.006*%
%ADD11C,0.104425*%
%ADD12C,0.0689921*%
G04 APERTURE END LIST*
G54D10*
G54D11*
X40650Y-38850D03*
X44850Y-33650D03*
X38750Y-36500D03*
X34750Y-36500D03*
G54D12*
X42750Y-36750D03*
X42750Y-35750D03*
X54750Y-36750D03*
X54750Y-35750D03*
G54D11*
X56850Y-33650D03*
X52650Y-38850D03*
X46650Y-38850D03*
X50850Y-33650D03*
G54D12*
X48750Y-36750D03*
X48750Y-35750D03*
X48750Y-43750D03*
X48750Y-42750D03*
G54D11*
X50850Y-40650D03*
X46650Y-45850D03*
X52650Y-45850D03*
X56850Y-40650D03*
G54D12*
X54750Y-43750D03*
X54750Y-42750D03*
X42750Y-43750D03*
X42750Y-42750D03*
G54D11*
X34750Y-43500D03*
X38750Y-43500D03*
X44850Y-40650D03*
X40650Y-45850D03*
X40650Y-73850D03*
X44850Y-68650D03*
X38750Y-71500D03*
X34750Y-71500D03*
G54D12*
X42750Y-71750D03*
X42750Y-70750D03*
X54750Y-71750D03*
X54750Y-70750D03*
G54D11*
X56850Y-68650D03*
X52650Y-73850D03*
X46650Y-73850D03*
X50850Y-68650D03*
G54D12*
X48750Y-71750D03*
X48750Y-70750D03*
X48750Y-64750D03*
X48750Y-63750D03*
G54D11*
X50850Y-61650D03*
X46650Y-66850D03*
X52650Y-66850D03*
X56850Y-61650D03*
G54D12*
X54750Y-64750D03*
X54750Y-63750D03*
X42750Y-64750D03*
X42750Y-63750D03*
G54D11*
X34750Y-64500D03*
X38750Y-64500D03*
X44850Y-61650D03*
X40650Y-66850D03*
X40650Y-59850D03*
X44850Y-54650D03*
X38750Y-57500D03*
X34750Y-57500D03*
G54D12*
X42750Y-57750D03*
X42750Y-56750D03*
X54750Y-57750D03*
X54750Y-56750D03*
G54D11*
X56850Y-54650D03*
X52650Y-59850D03*
X46650Y-59850D03*
X50850Y-54650D03*
G54D12*
X48750Y-57750D03*
X48750Y-56750D03*
X48750Y-50750D03*
X48750Y-49750D03*
G54D11*
X50850Y-47650D03*
X46650Y-52850D03*
X52650Y-52850D03*
X56850Y-47650D03*
G54D12*
X54750Y-50750D03*
X54750Y-49750D03*
X42750Y-50750D03*
X42750Y-49750D03*
G54D11*
X34750Y-50500D03*
X38750Y-50500D03*
X44850Y-47650D03*
X40650Y-52850D03*
X16650Y-52850D03*
X20850Y-47650D03*
X14750Y-50500D03*
X10750Y-50500D03*
G54D12*
X18750Y-50750D03*
X18750Y-49750D03*
X30750Y-50750D03*
X30750Y-49750D03*
G54D11*
X32850Y-47650D03*
X28650Y-52850D03*
X22650Y-52850D03*
X26850Y-47650D03*
G54D12*
X24750Y-50750D03*
X24750Y-49750D03*
X24750Y-57750D03*
X24750Y-56750D03*
G54D11*
X26850Y-54650D03*
X22650Y-59850D03*
X28650Y-59850D03*
X32850Y-54650D03*
G54D12*
X30750Y-57750D03*
X30750Y-56750D03*
X18750Y-57750D03*
X18750Y-56750D03*
G54D11*
X10750Y-57500D03*
X14750Y-57500D03*
X20850Y-54650D03*
X16650Y-59850D03*
X16650Y-66850D03*
X20850Y-61650D03*
X14750Y-64500D03*
X10750Y-64500D03*
G54D12*
X18750Y-64750D03*
X18750Y-63750D03*
X30750Y-64750D03*
X30750Y-63750D03*
G54D11*
X32850Y-61650D03*
X28650Y-66850D03*
X22650Y-66850D03*
X26850Y-61650D03*
G54D12*
X24750Y-64750D03*
X24750Y-63750D03*
X24750Y-71750D03*
X24750Y-70750D03*
G54D11*
X26850Y-68650D03*
X22650Y-73850D03*
X28650Y-73850D03*
X32850Y-68650D03*
G54D12*
X30750Y-71750D03*
X30750Y-70750D03*
X18750Y-71750D03*
X18750Y-70750D03*
G54D11*
X10750Y-71500D03*
X14750Y-71500D03*
X20850Y-68650D03*
X16650Y-73850D03*
X16650Y-45850D03*
X20850Y-40650D03*
X14750Y-43500D03*
X10750Y-43500D03*
G54D12*
X18750Y-43750D03*
X18750Y-42750D03*
X30750Y-43750D03*
X30750Y-42750D03*
G54D11*
X32850Y-40650D03*
X28650Y-45850D03*
X22650Y-45850D03*
X26850Y-40650D03*
G54D12*
X24750Y-43750D03*
X24750Y-42750D03*
X24750Y-36750D03*
X24750Y-35750D03*
G54D11*
X26850Y-33650D03*
X22650Y-38850D03*
X28650Y-38850D03*
X32850Y-33650D03*
G54D12*
X30750Y-36750D03*
X30750Y-35750D03*
X18750Y-36750D03*
X18750Y-35750D03*
G54D11*
X10750Y-36500D03*
X14750Y-36500D03*
X20850Y-33650D03*
X16650Y-38850D03*
M02*
