G04 (created by PCBNEW (2013-07-07 BZR 4022)-stable) date 11/9/2013 6:45:55 PM*
%MOIN*%
G04 Gerber Fmt 3.4, Leading zero omitted, Abs format*
%FSLAX34Y34*%
G01*
G70*
G90*
G04 APERTURE LIST*
%ADD10C,0.006*%
%ADD11C,0.104425*%
%ADD12R,0.0847402X0.12411*%
%ADD13R,0.20285X0.12411*%
%ADD14R,0.12411X0.20285*%
%ADD15C,0.0689921*%
G04 APERTURE END LIST*
G54D10*
G54D11*
X40650Y-38850D03*
X44850Y-33650D03*
X38750Y-36500D03*
X34750Y-36500D03*
G54D12*
X38250Y-39000D03*
X37250Y-39000D03*
X36250Y-39000D03*
X35250Y-39000D03*
G54D13*
X42750Y-38750D03*
X42750Y-33750D03*
G54D14*
X39000Y-34000D03*
X37500Y-34000D03*
X36000Y-34000D03*
X34500Y-34000D03*
G54D15*
X42750Y-36750D03*
X42750Y-35750D03*
X54750Y-36750D03*
X54750Y-35750D03*
G54D13*
X54750Y-33750D03*
X54750Y-38750D03*
G54D11*
X56850Y-33650D03*
X52650Y-38850D03*
X46650Y-38850D03*
X50850Y-33650D03*
G54D13*
X48750Y-38750D03*
X48750Y-33750D03*
G54D15*
X48750Y-36750D03*
X48750Y-35750D03*
X48750Y-43750D03*
X48750Y-42750D03*
G54D13*
X48750Y-40750D03*
X48750Y-45750D03*
G54D11*
X50850Y-40650D03*
X46650Y-45850D03*
X52650Y-45850D03*
X56850Y-40650D03*
G54D13*
X54750Y-45750D03*
X54750Y-40750D03*
G54D15*
X54750Y-43750D03*
X54750Y-42750D03*
X42750Y-43750D03*
X42750Y-42750D03*
G54D14*
X34500Y-41000D03*
X36000Y-41000D03*
X37500Y-41000D03*
X39000Y-41000D03*
G54D13*
X42750Y-40750D03*
X42750Y-45750D03*
G54D12*
X35250Y-46000D03*
X36250Y-46000D03*
X37250Y-46000D03*
X38250Y-46000D03*
G54D11*
X34750Y-43500D03*
X38750Y-43500D03*
X44850Y-40650D03*
X40650Y-45850D03*
X40650Y-73850D03*
X44850Y-68650D03*
X38750Y-71500D03*
X34750Y-71500D03*
G54D12*
X38250Y-74000D03*
X37250Y-74000D03*
X36250Y-74000D03*
X35250Y-74000D03*
G54D13*
X42750Y-73750D03*
X42750Y-68750D03*
G54D14*
X39000Y-69000D03*
X37500Y-69000D03*
X36000Y-69000D03*
X34500Y-69000D03*
G54D15*
X42750Y-71750D03*
X42750Y-70750D03*
X54750Y-71750D03*
X54750Y-70750D03*
G54D13*
X54750Y-68750D03*
X54750Y-73750D03*
G54D11*
X56850Y-68650D03*
X52650Y-73850D03*
X46650Y-73850D03*
X50850Y-68650D03*
G54D13*
X48750Y-73750D03*
X48750Y-68750D03*
G54D15*
X48750Y-71750D03*
X48750Y-70750D03*
X48750Y-64750D03*
X48750Y-63750D03*
G54D13*
X48750Y-61750D03*
X48750Y-66750D03*
G54D11*
X50850Y-61650D03*
X46650Y-66850D03*
X52650Y-66850D03*
X56850Y-61650D03*
G54D13*
X54750Y-66750D03*
X54750Y-61750D03*
G54D15*
X54750Y-64750D03*
X54750Y-63750D03*
X42750Y-64750D03*
X42750Y-63750D03*
G54D14*
X34500Y-62000D03*
X36000Y-62000D03*
X37500Y-62000D03*
X39000Y-62000D03*
G54D13*
X42750Y-61750D03*
X42750Y-66750D03*
G54D12*
X35250Y-67000D03*
X36250Y-67000D03*
X37250Y-67000D03*
X38250Y-67000D03*
G54D11*
X34750Y-64500D03*
X38750Y-64500D03*
X44850Y-61650D03*
X40650Y-66850D03*
X40650Y-59850D03*
X44850Y-54650D03*
X38750Y-57500D03*
X34750Y-57500D03*
G54D12*
X38250Y-60000D03*
X37250Y-60000D03*
X36250Y-60000D03*
X35250Y-60000D03*
G54D13*
X42750Y-59750D03*
X42750Y-54750D03*
G54D14*
X39000Y-55000D03*
X37500Y-55000D03*
X36000Y-55000D03*
X34500Y-55000D03*
G54D15*
X42750Y-57750D03*
X42750Y-56750D03*
X54750Y-57750D03*
X54750Y-56750D03*
G54D13*
X54750Y-54750D03*
X54750Y-59750D03*
G54D11*
X56850Y-54650D03*
X52650Y-59850D03*
X46650Y-59850D03*
X50850Y-54650D03*
G54D13*
X48750Y-59750D03*
X48750Y-54750D03*
G54D15*
X48750Y-57750D03*
X48750Y-56750D03*
X48750Y-50750D03*
X48750Y-49750D03*
G54D13*
X48750Y-47750D03*
X48750Y-52750D03*
G54D11*
X50850Y-47650D03*
X46650Y-52850D03*
X52650Y-52850D03*
X56850Y-47650D03*
G54D13*
X54750Y-52750D03*
X54750Y-47750D03*
G54D15*
X54750Y-50750D03*
X54750Y-49750D03*
X42750Y-50750D03*
X42750Y-49750D03*
G54D14*
X34500Y-48000D03*
X36000Y-48000D03*
X37500Y-48000D03*
X39000Y-48000D03*
G54D13*
X42750Y-47750D03*
X42750Y-52750D03*
G54D12*
X35250Y-53000D03*
X36250Y-53000D03*
X37250Y-53000D03*
X38250Y-53000D03*
G54D11*
X34750Y-50500D03*
X38750Y-50500D03*
X44850Y-47650D03*
X40650Y-52850D03*
X16650Y-52850D03*
X20850Y-47650D03*
X14750Y-50500D03*
X10750Y-50500D03*
G54D12*
X14250Y-53000D03*
X13250Y-53000D03*
X12250Y-53000D03*
X11250Y-53000D03*
G54D13*
X18750Y-52750D03*
X18750Y-47750D03*
G54D14*
X15000Y-48000D03*
X13500Y-48000D03*
X12000Y-48000D03*
X10500Y-48000D03*
G54D15*
X18750Y-50750D03*
X18750Y-49750D03*
X30750Y-50750D03*
X30750Y-49750D03*
G54D13*
X30750Y-47750D03*
X30750Y-52750D03*
G54D11*
X32850Y-47650D03*
X28650Y-52850D03*
X22650Y-52850D03*
X26850Y-47650D03*
G54D13*
X24750Y-52750D03*
X24750Y-47750D03*
G54D15*
X24750Y-50750D03*
X24750Y-49750D03*
X24750Y-57750D03*
X24750Y-56750D03*
G54D13*
X24750Y-54750D03*
X24750Y-59750D03*
G54D11*
X26850Y-54650D03*
X22650Y-59850D03*
X28650Y-59850D03*
X32850Y-54650D03*
G54D13*
X30750Y-59750D03*
X30750Y-54750D03*
G54D15*
X30750Y-57750D03*
X30750Y-56750D03*
X18750Y-57750D03*
X18750Y-56750D03*
G54D14*
X10500Y-55000D03*
X12000Y-55000D03*
X13500Y-55000D03*
X15000Y-55000D03*
G54D13*
X18750Y-54750D03*
X18750Y-59750D03*
G54D12*
X11250Y-60000D03*
X12250Y-60000D03*
X13250Y-60000D03*
X14250Y-60000D03*
G54D11*
X10750Y-57500D03*
X14750Y-57500D03*
X20850Y-54650D03*
X16650Y-59850D03*
X16650Y-66850D03*
X20850Y-61650D03*
X14750Y-64500D03*
X10750Y-64500D03*
G54D12*
X14250Y-67000D03*
X13250Y-67000D03*
X12250Y-67000D03*
X11250Y-67000D03*
G54D13*
X18750Y-66750D03*
X18750Y-61750D03*
G54D14*
X15000Y-62000D03*
X13500Y-62000D03*
X12000Y-62000D03*
X10500Y-62000D03*
G54D15*
X18750Y-64750D03*
X18750Y-63750D03*
X30750Y-64750D03*
X30750Y-63750D03*
G54D13*
X30750Y-61750D03*
X30750Y-66750D03*
G54D11*
X32850Y-61650D03*
X28650Y-66850D03*
X22650Y-66850D03*
X26850Y-61650D03*
G54D13*
X24750Y-66750D03*
X24750Y-61750D03*
G54D15*
X24750Y-64750D03*
X24750Y-63750D03*
X24750Y-71750D03*
X24750Y-70750D03*
G54D13*
X24750Y-68750D03*
X24750Y-73750D03*
G54D11*
X26850Y-68650D03*
X22650Y-73850D03*
X28650Y-73850D03*
X32850Y-68650D03*
G54D13*
X30750Y-73750D03*
X30750Y-68750D03*
G54D15*
X30750Y-71750D03*
X30750Y-70750D03*
X18750Y-71750D03*
X18750Y-70750D03*
G54D14*
X10500Y-69000D03*
X12000Y-69000D03*
X13500Y-69000D03*
X15000Y-69000D03*
G54D13*
X18750Y-68750D03*
X18750Y-73750D03*
G54D12*
X11250Y-74000D03*
X12250Y-74000D03*
X13250Y-74000D03*
X14250Y-74000D03*
G54D11*
X10750Y-71500D03*
X14750Y-71500D03*
X20850Y-68650D03*
X16650Y-73850D03*
X16650Y-45850D03*
X20850Y-40650D03*
X14750Y-43500D03*
X10750Y-43500D03*
G54D12*
X14250Y-46000D03*
X13250Y-46000D03*
X12250Y-46000D03*
X11250Y-46000D03*
G54D13*
X18750Y-45750D03*
X18750Y-40750D03*
G54D14*
X15000Y-41000D03*
X13500Y-41000D03*
X12000Y-41000D03*
X10500Y-41000D03*
G54D15*
X18750Y-43750D03*
X18750Y-42750D03*
X30750Y-43750D03*
X30750Y-42750D03*
G54D13*
X30750Y-40750D03*
X30750Y-45750D03*
G54D11*
X32850Y-40650D03*
X28650Y-45850D03*
X22650Y-45850D03*
X26850Y-40650D03*
G54D13*
X24750Y-45750D03*
X24750Y-40750D03*
G54D15*
X24750Y-43750D03*
X24750Y-42750D03*
X24750Y-36750D03*
X24750Y-35750D03*
G54D13*
X24750Y-33750D03*
X24750Y-38750D03*
G54D11*
X26850Y-33650D03*
X22650Y-38850D03*
X28650Y-38850D03*
X32850Y-33650D03*
G54D13*
X30750Y-38750D03*
X30750Y-33750D03*
G54D15*
X30750Y-36750D03*
X30750Y-35750D03*
X18750Y-36750D03*
X18750Y-35750D03*
G54D14*
X10500Y-34000D03*
X12000Y-34000D03*
X13500Y-34000D03*
X15000Y-34000D03*
G54D13*
X18750Y-33750D03*
X18750Y-38750D03*
G54D12*
X11250Y-39000D03*
X12250Y-39000D03*
X13250Y-39000D03*
X14250Y-39000D03*
G54D11*
X10750Y-36500D03*
X14750Y-36500D03*
X20850Y-33650D03*
X16650Y-38850D03*
M02*
