G04 (created by PCBNEW (2013-07-07 BZR 4022)-stable) date 11/9/2013 6:45:55 PM*
%MOIN*%
G04 Gerber Fmt 3.4, Leading zero omitted, Abs format*
%FSLAX34Y34*%
G01*
G70*
G90*
G04 APERTURE LIST*
%ADD10C,0.006*%
%ADD11C,0.01*%
%ADD12C,0.005*%
G04 APERTURE END LIST*
G54D10*
G54D11*
X31935Y-76842D02*
X31935Y-77242D01*
X31792Y-76614D02*
X31650Y-77042D01*
X32021Y-77042D01*
X32250Y-77185D02*
X32278Y-77214D01*
X32250Y-77242D01*
X32221Y-77214D01*
X32250Y-77185D01*
X32250Y-77242D01*
X32621Y-76899D02*
X32564Y-76871D01*
X32535Y-76842D01*
X32507Y-76785D01*
X32507Y-76757D01*
X32535Y-76699D01*
X32564Y-76671D01*
X32621Y-76642D01*
X32735Y-76642D01*
X32792Y-76671D01*
X32821Y-76699D01*
X32850Y-76757D01*
X32850Y-76785D01*
X32821Y-76842D01*
X32792Y-76871D01*
X32735Y-76899D01*
X32621Y-76899D01*
X32564Y-76928D01*
X32535Y-76957D01*
X32507Y-77014D01*
X32507Y-77128D01*
X32535Y-77185D01*
X32564Y-77214D01*
X32621Y-77242D01*
X32735Y-77242D01*
X32792Y-77214D01*
X32821Y-77185D01*
X32850Y-77128D01*
X32850Y-77014D01*
X32821Y-76957D01*
X32792Y-76928D01*
X32735Y-76899D01*
X33221Y-76642D02*
X33278Y-76642D01*
X33335Y-76671D01*
X33364Y-76699D01*
X33392Y-76757D01*
X33421Y-76871D01*
X33421Y-77014D01*
X33392Y-77128D01*
X33364Y-77185D01*
X33335Y-77214D01*
X33278Y-77242D01*
X33221Y-77242D01*
X33164Y-77214D01*
X33135Y-77185D01*
X33107Y-77128D01*
X33078Y-77014D01*
X33078Y-76871D01*
X33107Y-76757D01*
X33135Y-76699D01*
X33164Y-76671D01*
X33221Y-76642D01*
X33792Y-76642D02*
X33850Y-76642D01*
X33907Y-76671D01*
X33935Y-76699D01*
X33964Y-76757D01*
X33992Y-76871D01*
X33992Y-77014D01*
X33964Y-77128D01*
X33935Y-77185D01*
X33907Y-77214D01*
X33850Y-77242D01*
X33792Y-77242D01*
X33735Y-77214D01*
X33707Y-77185D01*
X33678Y-77128D01*
X33650Y-77014D01*
X33650Y-76871D01*
X33678Y-76757D01*
X33707Y-76699D01*
X33735Y-76671D01*
X33792Y-76642D01*
X34364Y-76642D02*
X34421Y-76642D01*
X34478Y-76671D01*
X34507Y-76699D01*
X34535Y-76757D01*
X34564Y-76871D01*
X34564Y-77014D01*
X34535Y-77128D01*
X34507Y-77185D01*
X34478Y-77214D01*
X34421Y-77242D01*
X34364Y-77242D01*
X34307Y-77214D01*
X34278Y-77185D01*
X34250Y-77128D01*
X34221Y-77014D01*
X34221Y-76871D01*
X34250Y-76757D01*
X34278Y-76699D01*
X34307Y-76671D01*
X34364Y-76642D01*
X35278Y-77242D02*
X35278Y-76842D01*
X35278Y-76642D02*
X35250Y-76671D01*
X35278Y-76699D01*
X35307Y-76671D01*
X35278Y-76642D01*
X35278Y-76699D01*
X35564Y-76842D02*
X35564Y-77242D01*
X35564Y-76899D02*
X35592Y-76871D01*
X35650Y-76842D01*
X35735Y-76842D01*
X35792Y-76871D01*
X35821Y-76928D01*
X35821Y-77242D01*
X9750Y-76499D02*
X57750Y-76499D01*
X9750Y-75500D02*
X9750Y-77499D01*
X57750Y-75500D02*
X57750Y-77499D01*
X57750Y-76499D02*
X57306Y-76730D01*
X57750Y-76499D02*
X57306Y-76269D01*
X9750Y-76499D02*
X10193Y-76730D01*
X9750Y-76499D02*
X10193Y-76269D01*
X60157Y-51935D02*
X59757Y-51935D01*
X60385Y-51792D02*
X59957Y-51650D01*
X59957Y-52021D01*
X59814Y-52250D02*
X59785Y-52278D01*
X59757Y-52250D01*
X59785Y-52221D01*
X59814Y-52250D01*
X59757Y-52250D01*
X60299Y-52507D02*
X60328Y-52535D01*
X60357Y-52592D01*
X60357Y-52735D01*
X60328Y-52792D01*
X60299Y-52821D01*
X60242Y-52850D01*
X60185Y-52850D01*
X60099Y-52821D01*
X59757Y-52478D01*
X59757Y-52850D01*
X60357Y-53221D02*
X60357Y-53278D01*
X60328Y-53335D01*
X60299Y-53364D01*
X60242Y-53392D01*
X60128Y-53421D01*
X59985Y-53421D01*
X59871Y-53392D01*
X59814Y-53364D01*
X59785Y-53335D01*
X59757Y-53278D01*
X59757Y-53221D01*
X59785Y-53164D01*
X59814Y-53135D01*
X59871Y-53107D01*
X59985Y-53078D01*
X60128Y-53078D01*
X60242Y-53107D01*
X60299Y-53135D01*
X60328Y-53164D01*
X60357Y-53221D01*
X60357Y-53792D02*
X60357Y-53850D01*
X60328Y-53907D01*
X60299Y-53935D01*
X60242Y-53964D01*
X60128Y-53992D01*
X59985Y-53992D01*
X59871Y-53964D01*
X59814Y-53935D01*
X59785Y-53907D01*
X59757Y-53850D01*
X59757Y-53792D01*
X59785Y-53735D01*
X59814Y-53707D01*
X59871Y-53678D01*
X59985Y-53650D01*
X60128Y-53650D01*
X60242Y-53678D01*
X60299Y-53707D01*
X60328Y-53735D01*
X60357Y-53792D01*
X60357Y-54364D02*
X60357Y-54421D01*
X60328Y-54478D01*
X60299Y-54507D01*
X60242Y-54535D01*
X60128Y-54564D01*
X59985Y-54564D01*
X59871Y-54535D01*
X59814Y-54507D01*
X59785Y-54478D01*
X59757Y-54421D01*
X59757Y-54364D01*
X59785Y-54307D01*
X59814Y-54278D01*
X59871Y-54250D01*
X59985Y-54221D01*
X60128Y-54221D01*
X60242Y-54250D01*
X60299Y-54278D01*
X60328Y-54307D01*
X60357Y-54364D01*
X59757Y-55278D02*
X60157Y-55278D01*
X60357Y-55278D02*
X60328Y-55250D01*
X60299Y-55278D01*
X60328Y-55307D01*
X60357Y-55278D01*
X60299Y-55278D01*
X60157Y-55564D02*
X59757Y-55564D01*
X60099Y-55564D02*
X60128Y-55592D01*
X60157Y-55650D01*
X60157Y-55735D01*
X60128Y-55792D01*
X60071Y-55821D01*
X59757Y-55821D01*
X59499Y-32750D02*
X59499Y-74750D01*
X58500Y-32750D02*
X60499Y-32750D01*
X58500Y-74750D02*
X60499Y-74750D01*
X59499Y-74750D02*
X59269Y-74306D01*
X59499Y-74750D02*
X59730Y-74306D01*
X59499Y-32750D02*
X59269Y-33193D01*
X59499Y-32750D02*
X59730Y-33193D01*
X33535Y-29642D02*
X33507Y-29728D01*
X33507Y-29871D01*
X33535Y-29928D01*
X33564Y-29957D01*
X33621Y-29985D01*
X33678Y-29985D01*
X33735Y-29957D01*
X33764Y-29928D01*
X33792Y-29871D01*
X33821Y-29757D01*
X33850Y-29700D01*
X33878Y-29671D01*
X33935Y-29642D01*
X33992Y-29642D01*
X34050Y-29671D01*
X34078Y-29700D01*
X34107Y-29757D01*
X34107Y-29900D01*
X34078Y-29985D01*
X33564Y-30585D02*
X33535Y-30557D01*
X33507Y-30471D01*
X33507Y-30414D01*
X33535Y-30328D01*
X33592Y-30271D01*
X33650Y-30242D01*
X33764Y-30214D01*
X33850Y-30214D01*
X33964Y-30242D01*
X34021Y-30271D01*
X34078Y-30328D01*
X34107Y-30414D01*
X34107Y-30471D01*
X34078Y-30557D01*
X34050Y-30585D01*
X34107Y-30957D02*
X34107Y-31071D01*
X34078Y-31128D01*
X34021Y-31185D01*
X33907Y-31214D01*
X33707Y-31214D01*
X33592Y-31185D01*
X33535Y-31128D01*
X33507Y-31071D01*
X33507Y-30957D01*
X33535Y-30900D01*
X33592Y-30842D01*
X33707Y-30814D01*
X33907Y-30814D01*
X34021Y-30842D01*
X34078Y-30900D01*
X34107Y-30957D01*
X33507Y-31814D02*
X33792Y-31614D01*
X33507Y-31471D02*
X34107Y-31471D01*
X34107Y-31700D01*
X34078Y-31757D01*
X34050Y-31785D01*
X33992Y-31814D01*
X33907Y-31814D01*
X33850Y-31785D01*
X33821Y-31757D01*
X33792Y-31700D01*
X33792Y-31471D01*
X33821Y-32071D02*
X33821Y-32271D01*
X33507Y-32357D02*
X33507Y-32071D01*
X34107Y-32071D01*
X34107Y-32357D01*
G54D12*
X33750Y-32750D02*
X57750Y-32750D01*
X57750Y-32750D02*
X57750Y-74750D01*
X57750Y-74750D02*
X33750Y-74750D01*
X39750Y-32750D02*
X39750Y-74750D01*
X45750Y-74750D02*
X45750Y-32750D01*
X51750Y-32750D02*
X51750Y-74750D01*
X33750Y-39750D02*
X57750Y-39750D01*
X57750Y-46750D02*
X33750Y-46750D01*
X33750Y-53750D02*
X57750Y-53750D01*
X57750Y-60750D02*
X33750Y-60750D01*
X33750Y-67750D02*
X57750Y-67750D01*
G54D11*
X39535Y-29642D02*
X39507Y-29728D01*
X39507Y-29871D01*
X39535Y-29928D01*
X39564Y-29957D01*
X39621Y-29985D01*
X39678Y-29985D01*
X39735Y-29957D01*
X39764Y-29928D01*
X39792Y-29871D01*
X39821Y-29757D01*
X39850Y-29700D01*
X39878Y-29671D01*
X39935Y-29642D01*
X39992Y-29642D01*
X40050Y-29671D01*
X40078Y-29700D01*
X40107Y-29757D01*
X40107Y-29900D01*
X40078Y-29985D01*
X39564Y-30585D02*
X39535Y-30557D01*
X39507Y-30471D01*
X39507Y-30414D01*
X39535Y-30328D01*
X39592Y-30271D01*
X39650Y-30242D01*
X39764Y-30214D01*
X39850Y-30214D01*
X39964Y-30242D01*
X40021Y-30271D01*
X40078Y-30328D01*
X40107Y-30414D01*
X40107Y-30471D01*
X40078Y-30557D01*
X40050Y-30585D01*
X40107Y-30957D02*
X40107Y-31071D01*
X40078Y-31128D01*
X40021Y-31185D01*
X39907Y-31214D01*
X39707Y-31214D01*
X39592Y-31185D01*
X39535Y-31128D01*
X39507Y-31071D01*
X39507Y-30957D01*
X39535Y-30900D01*
X39592Y-30842D01*
X39707Y-30814D01*
X39907Y-30814D01*
X40021Y-30842D01*
X40078Y-30900D01*
X40107Y-30957D01*
X39507Y-31814D02*
X39792Y-31614D01*
X39507Y-31471D02*
X40107Y-31471D01*
X40107Y-31700D01*
X40078Y-31757D01*
X40050Y-31785D01*
X39992Y-31814D01*
X39907Y-31814D01*
X39850Y-31785D01*
X39821Y-31757D01*
X39792Y-31700D01*
X39792Y-31471D01*
X39821Y-32071D02*
X39821Y-32271D01*
X39507Y-32357D02*
X39507Y-32071D01*
X40107Y-32071D01*
X40107Y-32357D01*
X45535Y-29642D02*
X45507Y-29728D01*
X45507Y-29871D01*
X45535Y-29928D01*
X45564Y-29957D01*
X45621Y-29985D01*
X45678Y-29985D01*
X45735Y-29957D01*
X45764Y-29928D01*
X45792Y-29871D01*
X45821Y-29757D01*
X45850Y-29700D01*
X45878Y-29671D01*
X45935Y-29642D01*
X45992Y-29642D01*
X46050Y-29671D01*
X46078Y-29700D01*
X46107Y-29757D01*
X46107Y-29900D01*
X46078Y-29985D01*
X45564Y-30585D02*
X45535Y-30557D01*
X45507Y-30471D01*
X45507Y-30414D01*
X45535Y-30328D01*
X45592Y-30271D01*
X45650Y-30242D01*
X45764Y-30214D01*
X45850Y-30214D01*
X45964Y-30242D01*
X46021Y-30271D01*
X46078Y-30328D01*
X46107Y-30414D01*
X46107Y-30471D01*
X46078Y-30557D01*
X46050Y-30585D01*
X46107Y-30957D02*
X46107Y-31071D01*
X46078Y-31128D01*
X46021Y-31185D01*
X45907Y-31214D01*
X45707Y-31214D01*
X45592Y-31185D01*
X45535Y-31128D01*
X45507Y-31071D01*
X45507Y-30957D01*
X45535Y-30900D01*
X45592Y-30842D01*
X45707Y-30814D01*
X45907Y-30814D01*
X46021Y-30842D01*
X46078Y-30900D01*
X46107Y-30957D01*
X45507Y-31814D02*
X45792Y-31614D01*
X45507Y-31471D02*
X46107Y-31471D01*
X46107Y-31700D01*
X46078Y-31757D01*
X46050Y-31785D01*
X45992Y-31814D01*
X45907Y-31814D01*
X45850Y-31785D01*
X45821Y-31757D01*
X45792Y-31700D01*
X45792Y-31471D01*
X45821Y-32071D02*
X45821Y-32271D01*
X45507Y-32357D02*
X45507Y-32071D01*
X46107Y-32071D01*
X46107Y-32357D01*
X51535Y-29642D02*
X51507Y-29728D01*
X51507Y-29871D01*
X51535Y-29928D01*
X51564Y-29957D01*
X51621Y-29985D01*
X51678Y-29985D01*
X51735Y-29957D01*
X51764Y-29928D01*
X51792Y-29871D01*
X51821Y-29757D01*
X51850Y-29700D01*
X51878Y-29671D01*
X51935Y-29642D01*
X51992Y-29642D01*
X52050Y-29671D01*
X52078Y-29700D01*
X52107Y-29757D01*
X52107Y-29900D01*
X52078Y-29985D01*
X51564Y-30585D02*
X51535Y-30557D01*
X51507Y-30471D01*
X51507Y-30414D01*
X51535Y-30328D01*
X51592Y-30271D01*
X51650Y-30242D01*
X51764Y-30214D01*
X51850Y-30214D01*
X51964Y-30242D01*
X52021Y-30271D01*
X52078Y-30328D01*
X52107Y-30414D01*
X52107Y-30471D01*
X52078Y-30557D01*
X52050Y-30585D01*
X52107Y-30957D02*
X52107Y-31071D01*
X52078Y-31128D01*
X52021Y-31185D01*
X51907Y-31214D01*
X51707Y-31214D01*
X51592Y-31185D01*
X51535Y-31128D01*
X51507Y-31071D01*
X51507Y-30957D01*
X51535Y-30900D01*
X51592Y-30842D01*
X51707Y-30814D01*
X51907Y-30814D01*
X52021Y-30842D01*
X52078Y-30900D01*
X52107Y-30957D01*
X51507Y-31814D02*
X51792Y-31614D01*
X51507Y-31471D02*
X52107Y-31471D01*
X52107Y-31700D01*
X52078Y-31757D01*
X52050Y-31785D01*
X51992Y-31814D01*
X51907Y-31814D01*
X51850Y-31785D01*
X51821Y-31757D01*
X51792Y-31700D01*
X51792Y-31471D01*
X51821Y-32071D02*
X51821Y-32271D01*
X51507Y-32357D02*
X51507Y-32071D01*
X52107Y-32071D01*
X52107Y-32357D01*
X27535Y-29642D02*
X27507Y-29728D01*
X27507Y-29871D01*
X27535Y-29928D01*
X27564Y-29957D01*
X27621Y-29985D01*
X27678Y-29985D01*
X27735Y-29957D01*
X27764Y-29928D01*
X27792Y-29871D01*
X27821Y-29757D01*
X27850Y-29700D01*
X27878Y-29671D01*
X27935Y-29642D01*
X27992Y-29642D01*
X28050Y-29671D01*
X28078Y-29700D01*
X28107Y-29757D01*
X28107Y-29900D01*
X28078Y-29985D01*
X27564Y-30585D02*
X27535Y-30557D01*
X27507Y-30471D01*
X27507Y-30414D01*
X27535Y-30328D01*
X27592Y-30271D01*
X27650Y-30242D01*
X27764Y-30214D01*
X27850Y-30214D01*
X27964Y-30242D01*
X28021Y-30271D01*
X28078Y-30328D01*
X28107Y-30414D01*
X28107Y-30471D01*
X28078Y-30557D01*
X28050Y-30585D01*
X28107Y-30957D02*
X28107Y-31071D01*
X28078Y-31128D01*
X28021Y-31185D01*
X27907Y-31214D01*
X27707Y-31214D01*
X27592Y-31185D01*
X27535Y-31128D01*
X27507Y-31071D01*
X27507Y-30957D01*
X27535Y-30900D01*
X27592Y-30842D01*
X27707Y-30814D01*
X27907Y-30814D01*
X28021Y-30842D01*
X28078Y-30900D01*
X28107Y-30957D01*
X27507Y-31814D02*
X27792Y-31614D01*
X27507Y-31471D02*
X28107Y-31471D01*
X28107Y-31700D01*
X28078Y-31757D01*
X28050Y-31785D01*
X27992Y-31814D01*
X27907Y-31814D01*
X27850Y-31785D01*
X27821Y-31757D01*
X27792Y-31700D01*
X27792Y-31471D01*
X27821Y-32071D02*
X27821Y-32271D01*
X27507Y-32357D02*
X27507Y-32071D01*
X28107Y-32071D01*
X28107Y-32357D01*
X21535Y-29642D02*
X21507Y-29728D01*
X21507Y-29871D01*
X21535Y-29928D01*
X21564Y-29957D01*
X21621Y-29985D01*
X21678Y-29985D01*
X21735Y-29957D01*
X21764Y-29928D01*
X21792Y-29871D01*
X21821Y-29757D01*
X21850Y-29700D01*
X21878Y-29671D01*
X21935Y-29642D01*
X21992Y-29642D01*
X22050Y-29671D01*
X22078Y-29700D01*
X22107Y-29757D01*
X22107Y-29900D01*
X22078Y-29985D01*
X21564Y-30585D02*
X21535Y-30557D01*
X21507Y-30471D01*
X21507Y-30414D01*
X21535Y-30328D01*
X21592Y-30271D01*
X21650Y-30242D01*
X21764Y-30214D01*
X21850Y-30214D01*
X21964Y-30242D01*
X22021Y-30271D01*
X22078Y-30328D01*
X22107Y-30414D01*
X22107Y-30471D01*
X22078Y-30557D01*
X22050Y-30585D01*
X22107Y-30957D02*
X22107Y-31071D01*
X22078Y-31128D01*
X22021Y-31185D01*
X21907Y-31214D01*
X21707Y-31214D01*
X21592Y-31185D01*
X21535Y-31128D01*
X21507Y-31071D01*
X21507Y-30957D01*
X21535Y-30900D01*
X21592Y-30842D01*
X21707Y-30814D01*
X21907Y-30814D01*
X22021Y-30842D01*
X22078Y-30900D01*
X22107Y-30957D01*
X21507Y-31814D02*
X21792Y-31614D01*
X21507Y-31471D02*
X22107Y-31471D01*
X22107Y-31700D01*
X22078Y-31757D01*
X22050Y-31785D01*
X21992Y-31814D01*
X21907Y-31814D01*
X21850Y-31785D01*
X21821Y-31757D01*
X21792Y-31700D01*
X21792Y-31471D01*
X21821Y-32071D02*
X21821Y-32271D01*
X21507Y-32357D02*
X21507Y-32071D01*
X22107Y-32071D01*
X22107Y-32357D01*
X15535Y-29642D02*
X15507Y-29728D01*
X15507Y-29871D01*
X15535Y-29928D01*
X15564Y-29957D01*
X15621Y-29985D01*
X15678Y-29985D01*
X15735Y-29957D01*
X15764Y-29928D01*
X15792Y-29871D01*
X15821Y-29757D01*
X15850Y-29700D01*
X15878Y-29671D01*
X15935Y-29642D01*
X15992Y-29642D01*
X16050Y-29671D01*
X16078Y-29700D01*
X16107Y-29757D01*
X16107Y-29900D01*
X16078Y-29985D01*
X15564Y-30585D02*
X15535Y-30557D01*
X15507Y-30471D01*
X15507Y-30414D01*
X15535Y-30328D01*
X15592Y-30271D01*
X15650Y-30242D01*
X15764Y-30214D01*
X15850Y-30214D01*
X15964Y-30242D01*
X16021Y-30271D01*
X16078Y-30328D01*
X16107Y-30414D01*
X16107Y-30471D01*
X16078Y-30557D01*
X16050Y-30585D01*
X16107Y-30957D02*
X16107Y-31071D01*
X16078Y-31128D01*
X16021Y-31185D01*
X15907Y-31214D01*
X15707Y-31214D01*
X15592Y-31185D01*
X15535Y-31128D01*
X15507Y-31071D01*
X15507Y-30957D01*
X15535Y-30900D01*
X15592Y-30842D01*
X15707Y-30814D01*
X15907Y-30814D01*
X16021Y-30842D01*
X16078Y-30900D01*
X16107Y-30957D01*
X15507Y-31814D02*
X15792Y-31614D01*
X15507Y-31471D02*
X16107Y-31471D01*
X16107Y-31700D01*
X16078Y-31757D01*
X16050Y-31785D01*
X15992Y-31814D01*
X15907Y-31814D01*
X15850Y-31785D01*
X15821Y-31757D01*
X15792Y-31700D01*
X15792Y-31471D01*
X15821Y-32071D02*
X15821Y-32271D01*
X15507Y-32357D02*
X15507Y-32071D01*
X16107Y-32071D01*
X16107Y-32357D01*
X6642Y-67964D02*
X6728Y-67992D01*
X6871Y-67992D01*
X6928Y-67964D01*
X6957Y-67935D01*
X6985Y-67878D01*
X6985Y-67821D01*
X6957Y-67764D01*
X6928Y-67735D01*
X6871Y-67707D01*
X6757Y-67678D01*
X6700Y-67650D01*
X6671Y-67621D01*
X6642Y-67564D01*
X6642Y-67507D01*
X6671Y-67450D01*
X6700Y-67421D01*
X6757Y-67392D01*
X6900Y-67392D01*
X6985Y-67421D01*
X7585Y-67935D02*
X7557Y-67964D01*
X7471Y-67992D01*
X7414Y-67992D01*
X7328Y-67964D01*
X7271Y-67907D01*
X7242Y-67850D01*
X7214Y-67735D01*
X7214Y-67650D01*
X7242Y-67535D01*
X7271Y-67478D01*
X7328Y-67421D01*
X7414Y-67392D01*
X7471Y-67392D01*
X7557Y-67421D01*
X7585Y-67450D01*
X7957Y-67392D02*
X8071Y-67392D01*
X8128Y-67421D01*
X8185Y-67478D01*
X8214Y-67592D01*
X8214Y-67792D01*
X8185Y-67907D01*
X8128Y-67964D01*
X8071Y-67992D01*
X7957Y-67992D01*
X7900Y-67964D01*
X7842Y-67907D01*
X7814Y-67792D01*
X7814Y-67592D01*
X7842Y-67478D01*
X7900Y-67421D01*
X7957Y-67392D01*
X8814Y-67992D02*
X8614Y-67707D01*
X8471Y-67992D02*
X8471Y-67392D01*
X8700Y-67392D01*
X8757Y-67421D01*
X8785Y-67450D01*
X8814Y-67507D01*
X8814Y-67592D01*
X8785Y-67650D01*
X8757Y-67678D01*
X8700Y-67707D01*
X8471Y-67707D01*
X9071Y-67678D02*
X9271Y-67678D01*
X9357Y-67992D02*
X9071Y-67992D01*
X9071Y-67392D01*
X9357Y-67392D01*
X6642Y-60964D02*
X6728Y-60992D01*
X6871Y-60992D01*
X6928Y-60964D01*
X6957Y-60935D01*
X6985Y-60878D01*
X6985Y-60821D01*
X6957Y-60764D01*
X6928Y-60735D01*
X6871Y-60707D01*
X6757Y-60678D01*
X6700Y-60650D01*
X6671Y-60621D01*
X6642Y-60564D01*
X6642Y-60507D01*
X6671Y-60450D01*
X6700Y-60421D01*
X6757Y-60392D01*
X6900Y-60392D01*
X6985Y-60421D01*
X7585Y-60935D02*
X7557Y-60964D01*
X7471Y-60992D01*
X7414Y-60992D01*
X7328Y-60964D01*
X7271Y-60907D01*
X7242Y-60850D01*
X7214Y-60735D01*
X7214Y-60650D01*
X7242Y-60535D01*
X7271Y-60478D01*
X7328Y-60421D01*
X7414Y-60392D01*
X7471Y-60392D01*
X7557Y-60421D01*
X7585Y-60450D01*
X7957Y-60392D02*
X8071Y-60392D01*
X8128Y-60421D01*
X8185Y-60478D01*
X8214Y-60592D01*
X8214Y-60792D01*
X8185Y-60907D01*
X8128Y-60964D01*
X8071Y-60992D01*
X7957Y-60992D01*
X7900Y-60964D01*
X7842Y-60907D01*
X7814Y-60792D01*
X7814Y-60592D01*
X7842Y-60478D01*
X7900Y-60421D01*
X7957Y-60392D01*
X8814Y-60992D02*
X8614Y-60707D01*
X8471Y-60992D02*
X8471Y-60392D01*
X8700Y-60392D01*
X8757Y-60421D01*
X8785Y-60450D01*
X8814Y-60507D01*
X8814Y-60592D01*
X8785Y-60650D01*
X8757Y-60678D01*
X8700Y-60707D01*
X8471Y-60707D01*
X9071Y-60678D02*
X9271Y-60678D01*
X9357Y-60992D02*
X9071Y-60992D01*
X9071Y-60392D01*
X9357Y-60392D01*
X6642Y-53964D02*
X6728Y-53992D01*
X6871Y-53992D01*
X6928Y-53964D01*
X6957Y-53935D01*
X6985Y-53878D01*
X6985Y-53821D01*
X6957Y-53764D01*
X6928Y-53735D01*
X6871Y-53707D01*
X6757Y-53678D01*
X6700Y-53650D01*
X6671Y-53621D01*
X6642Y-53564D01*
X6642Y-53507D01*
X6671Y-53450D01*
X6700Y-53421D01*
X6757Y-53392D01*
X6900Y-53392D01*
X6985Y-53421D01*
X7585Y-53935D02*
X7557Y-53964D01*
X7471Y-53992D01*
X7414Y-53992D01*
X7328Y-53964D01*
X7271Y-53907D01*
X7242Y-53850D01*
X7214Y-53735D01*
X7214Y-53650D01*
X7242Y-53535D01*
X7271Y-53478D01*
X7328Y-53421D01*
X7414Y-53392D01*
X7471Y-53392D01*
X7557Y-53421D01*
X7585Y-53450D01*
X7957Y-53392D02*
X8071Y-53392D01*
X8128Y-53421D01*
X8185Y-53478D01*
X8214Y-53592D01*
X8214Y-53792D01*
X8185Y-53907D01*
X8128Y-53964D01*
X8071Y-53992D01*
X7957Y-53992D01*
X7900Y-53964D01*
X7842Y-53907D01*
X7814Y-53792D01*
X7814Y-53592D01*
X7842Y-53478D01*
X7900Y-53421D01*
X7957Y-53392D01*
X8814Y-53992D02*
X8614Y-53707D01*
X8471Y-53992D02*
X8471Y-53392D01*
X8700Y-53392D01*
X8757Y-53421D01*
X8785Y-53450D01*
X8814Y-53507D01*
X8814Y-53592D01*
X8785Y-53650D01*
X8757Y-53678D01*
X8700Y-53707D01*
X8471Y-53707D01*
X9071Y-53678D02*
X9271Y-53678D01*
X9357Y-53992D02*
X9071Y-53992D01*
X9071Y-53392D01*
X9357Y-53392D01*
X6642Y-47214D02*
X6728Y-47242D01*
X6871Y-47242D01*
X6928Y-47214D01*
X6957Y-47185D01*
X6985Y-47128D01*
X6985Y-47071D01*
X6957Y-47014D01*
X6928Y-46985D01*
X6871Y-46957D01*
X6757Y-46928D01*
X6700Y-46900D01*
X6671Y-46871D01*
X6642Y-46814D01*
X6642Y-46757D01*
X6671Y-46700D01*
X6700Y-46671D01*
X6757Y-46642D01*
X6900Y-46642D01*
X6985Y-46671D01*
X7585Y-47185D02*
X7557Y-47214D01*
X7471Y-47242D01*
X7414Y-47242D01*
X7328Y-47214D01*
X7271Y-47157D01*
X7242Y-47100D01*
X7214Y-46985D01*
X7214Y-46900D01*
X7242Y-46785D01*
X7271Y-46728D01*
X7328Y-46671D01*
X7414Y-46642D01*
X7471Y-46642D01*
X7557Y-46671D01*
X7585Y-46700D01*
X7957Y-46642D02*
X8071Y-46642D01*
X8128Y-46671D01*
X8185Y-46728D01*
X8214Y-46842D01*
X8214Y-47042D01*
X8185Y-47157D01*
X8128Y-47214D01*
X8071Y-47242D01*
X7957Y-47242D01*
X7900Y-47214D01*
X7842Y-47157D01*
X7814Y-47042D01*
X7814Y-46842D01*
X7842Y-46728D01*
X7900Y-46671D01*
X7957Y-46642D01*
X8814Y-47242D02*
X8614Y-46957D01*
X8471Y-47242D02*
X8471Y-46642D01*
X8700Y-46642D01*
X8757Y-46671D01*
X8785Y-46700D01*
X8814Y-46757D01*
X8814Y-46842D01*
X8785Y-46900D01*
X8757Y-46928D01*
X8700Y-46957D01*
X8471Y-46957D01*
X9071Y-46928D02*
X9271Y-46928D01*
X9357Y-47242D02*
X9071Y-47242D01*
X9071Y-46642D01*
X9357Y-46642D01*
X6642Y-39964D02*
X6728Y-39992D01*
X6871Y-39992D01*
X6928Y-39964D01*
X6957Y-39935D01*
X6985Y-39878D01*
X6985Y-39821D01*
X6957Y-39764D01*
X6928Y-39735D01*
X6871Y-39707D01*
X6757Y-39678D01*
X6700Y-39650D01*
X6671Y-39621D01*
X6642Y-39564D01*
X6642Y-39507D01*
X6671Y-39450D01*
X6700Y-39421D01*
X6757Y-39392D01*
X6900Y-39392D01*
X6985Y-39421D01*
X7585Y-39935D02*
X7557Y-39964D01*
X7471Y-39992D01*
X7414Y-39992D01*
X7328Y-39964D01*
X7271Y-39907D01*
X7242Y-39850D01*
X7214Y-39735D01*
X7214Y-39650D01*
X7242Y-39535D01*
X7271Y-39478D01*
X7328Y-39421D01*
X7414Y-39392D01*
X7471Y-39392D01*
X7557Y-39421D01*
X7585Y-39450D01*
X7957Y-39392D02*
X8071Y-39392D01*
X8128Y-39421D01*
X8185Y-39478D01*
X8214Y-39592D01*
X8214Y-39792D01*
X8185Y-39907D01*
X8128Y-39964D01*
X8071Y-39992D01*
X7957Y-39992D01*
X7900Y-39964D01*
X7842Y-39907D01*
X7814Y-39792D01*
X7814Y-39592D01*
X7842Y-39478D01*
X7900Y-39421D01*
X7957Y-39392D01*
X8814Y-39992D02*
X8614Y-39707D01*
X8471Y-39992D02*
X8471Y-39392D01*
X8700Y-39392D01*
X8757Y-39421D01*
X8785Y-39450D01*
X8814Y-39507D01*
X8814Y-39592D01*
X8785Y-39650D01*
X8757Y-39678D01*
X8700Y-39707D01*
X8471Y-39707D01*
X9071Y-39678D02*
X9271Y-39678D01*
X9357Y-39992D02*
X9071Y-39992D01*
X9071Y-39392D01*
X9357Y-39392D01*
G54D12*
X9750Y-67750D02*
X33750Y-67750D01*
X33750Y-60750D02*
X9750Y-60750D01*
X9750Y-53750D02*
X33750Y-53750D01*
X33750Y-46750D02*
X9750Y-46750D01*
X9750Y-39750D02*
X33750Y-39750D01*
X27750Y-32750D02*
X27750Y-74750D01*
X21750Y-74750D02*
X21750Y-32750D01*
X15750Y-32750D02*
X15750Y-74750D01*
X9750Y-74750D02*
X9750Y-32750D01*
X33750Y-74750D02*
X9750Y-74750D01*
X33750Y-32750D02*
X33750Y-74750D01*
X9750Y-32750D02*
X33750Y-32750D01*
M02*
