M48
;DRILL file {Pcbnew (2013-07-07 BZR 4022)-stable} date 11/9/2013 6:45:38 PM
;FORMAT={2:4/ absolute / inch / keep zeros}
FMAT,2
INCH,TZ
T1C0.035
T2C0.098
%
G90
G05
M72
T1
X018750Y-035750
X018750Y-036750
X018750Y-042750
X018750Y-043750
X018750Y-049750
X018750Y-050750
X018750Y-056750
X018750Y-057750
X018750Y-063750
X018750Y-064750
X018750Y-070750
X018750Y-071750
X024750Y-035750
X024750Y-036750
X024750Y-042750
X024750Y-043750
X024750Y-049750
X024750Y-050750
X024750Y-056750
X024750Y-057750
X024750Y-063750
X024750Y-064750
X024750Y-070750
X024750Y-071750
X030750Y-035750
X030750Y-036750
X030750Y-042750
X030750Y-043750
X030750Y-049750
X030750Y-050750
X030750Y-056750
X030750Y-057750
X030750Y-063750
X030750Y-064750
X030750Y-070750
X030750Y-071750
X042750Y-035750
X042750Y-036750
X042750Y-042750
X042750Y-043750
X042750Y-049750
X042750Y-050750
X042750Y-056750
X042750Y-057750
X042750Y-063750
X042750Y-064750
X042750Y-070750
X042750Y-071750
X048750Y-035750
X048750Y-036750
X048750Y-042750
X048750Y-043750
X048750Y-049750
X048750Y-050750
X048750Y-056750
X048750Y-057750
X048750Y-063750
X048750Y-064750
X048750Y-070750
X048750Y-071750
X054750Y-035750
X054750Y-036750
X054750Y-042750
X054750Y-043750
X054750Y-049750
X054750Y-050750
X054750Y-056750
X054750Y-057750
X054750Y-063750
X054750Y-064750
X054750Y-070750
X054750Y-071750
T2
X010750Y-036500
X010750Y-043500
X010750Y-050500
X010750Y-057500
X010750Y-064500
X010750Y-071500
X014750Y-036500
X014750Y-043500
X014750Y-050500
X014750Y-057500
X014750Y-064500
X014750Y-071500
X016650Y-038850
X016650Y-045850
X016650Y-052850
X016650Y-059850
X016650Y-066850
X016650Y-073850
X020850Y-033650
X020850Y-040650
X020850Y-047650
X020850Y-054650
X020850Y-061650
X020850Y-068650
X022650Y-038850
X022650Y-045850
X022650Y-052850
X022650Y-059850
X022650Y-066850
X022650Y-073850
X026850Y-033650
X026850Y-040650
X026850Y-047650
X026850Y-054650
X026850Y-061650
X026850Y-068650
X028650Y-038850
X028650Y-045850
X028650Y-052850
X028650Y-059850
X028650Y-066850
X028650Y-073850
X032850Y-033650
X032850Y-040650
X032850Y-047650
X032850Y-054650
X032850Y-061650
X032850Y-068650
X034750Y-036500
X034750Y-043500
X034750Y-050500
X034750Y-057500
X034750Y-064500
X034750Y-071500
X038750Y-036500
X038750Y-043500
X038750Y-050500
X038750Y-057500
X038750Y-064500
X038750Y-071500
X040650Y-038850
X040650Y-045850
X040650Y-052850
X040650Y-059850
X040650Y-066850
X040650Y-073850
X044850Y-033650
X044850Y-040650
X044850Y-047650
X044850Y-054650
X044850Y-061650
X044850Y-068650
X046650Y-038850
X046650Y-045850
X046650Y-052850
X046650Y-059850
X046650Y-066850
X046650Y-073850
X050850Y-033650
X050850Y-040650
X050850Y-047650
X050850Y-054650
X050850Y-061650
X050850Y-068650
X052650Y-038850
X052650Y-045850
X052650Y-052850
X052650Y-059850
X052650Y-066850
X052650Y-073850
X056850Y-033650
X056850Y-040650
X056850Y-047650
X056850Y-054650
X056850Y-061650
X056850Y-068650
T0
M30
